<?xml version="1.0" encoding="utf-8" standalone="no"?>
<!DOCTYPE svg PUBLIC "-//W3C//DTD SVG 1.1//EN"
  "http://www.w3.org/Graphics/SVG/1.1/DTD/svg11.dtd">
<svg xmlns:xlink="http://www.w3.org/1999/xlink" width="633.6pt" height="374.4pt" viewBox="0 0 633.6 374.4" xmlns="http://www.w3.org/2000/svg" version="1.1">
 <metadata>
  <rdf:RDF xmlns:dc="http://purl.org/dc/elements/1.1/" xmlns:cc="http://creativecommons.org/ns#" xmlns:rdf="http://www.w3.org/1999/02/22-rdf-syntax-ns#">
   <cc:Work>
    <dc:type rdf:resource="http://purl.org/dc/dcmitype/StillImage"/>
    <dc:date>2026-05-15T23:03:40.014483</dc:date>
    <dc:format>image/svg+xml</dc:format>
    <dc:creator>
     <cc:Agent>
      <dc:title>Matplotlib v3.10.9, https://matplotlib.org/</dc:title>
     </cc:Agent>
    </dc:creator>
   </cc:Work>
  </rdf:RDF>
 </metadata>
 <defs>
  <style type="text/css">*{stroke-linejoin: round; stroke-linecap: butt}</style>
 </defs>
 <g id="figure_1">
  <g id="patch_1">
   <path d="M 0 374.4 
L 633.6 374.4 
L 633.6 0 
L 0 0 
z
" style="fill: #ffffff"/>
  </g>
  <g id="axes_1">
   <g id="patch_2">
    <path d="M 54.02 332.44 
L 622.8 332.44 
L 622.8 26.88 
L 54.02 26.88 
z
" style="fill: #ffffff"/>
   </g>
   <g id="matplotlib.axis_1">
    <g id="xtick_1">
     <g id="line2d_1">
      <defs>
       <path id="md021dba8d5" d="M 0 0 
L 0 3.5 
" style="stroke: #000000; stroke-width: 0.8"/>
      </defs>
      <g>
       <use xlink:href="#md021dba8d5" x="76.621607" y="332.44" style="stroke: #000000; stroke-width: 0.8"/>
      </g>
     </g>
     <g id="text_1">
      <!-- 0 -->
      <g transform="translate(73.440357 347.038437) scale(0.1 -0.1)">
       <defs>
        <path id="DejaVuSans-30" d="M 2034 4250 
Q 1547 4250 1301 3770 
Q 1056 3291 1056 2328 
Q 1056 1369 1301 889 
Q 1547 409 2034 409 
Q 2525 409 2770 889 
Q 3016 1369 3016 2328 
Q 3016 3291 2770 3770 
Q 2525 4250 2034 4250 
z
M 2034 4750 
Q 2819 4750 3233 4129 
Q 3647 3509 3647 2328 
Q 3647 1150 3233 529 
Q 2819 -91 2034 -91 
Q 1250 -91 836 529 
Q 422 1150 422 2328 
Q 422 3509 836 4129 
Q 1250 4750 2034 4750 
z
" transform="scale(0.015625)"/>
       </defs>
       <use xlink:href="#DejaVuSans-30"/>
      </g>
     </g>
    </g>
    <g id="xtick_2">
     <g id="line2d_2">
      <g>
       <use xlink:href="#md021dba8d5" x="141.662201" y="332.44" style="stroke: #000000; stroke-width: 0.8"/>
      </g>
     </g>
     <g id="text_2">
      <!-- 20 -->
      <g transform="translate(135.299701 347.038437) scale(0.1 -0.1)">
       <defs>
        <path id="DejaVuSans-32" d="M 1228 531 
L 3431 531 
L 3431 0 
L 469 0 
L 469 531 
Q 828 903 1448 1529 
Q 2069 2156 2228 2338 
Q 2531 2678 2651 2914 
Q 2772 3150 2772 3378 
Q 2772 3750 2511 3984 
Q 2250 4219 1831 4219 
Q 1534 4219 1204 4116 
Q 875 4013 500 3803 
L 500 4441 
Q 881 4594 1212 4672 
Q 1544 4750 1819 4750 
Q 2544 4750 2975 4387 
Q 3406 4025 3406 3419 
Q 3406 3131 3298 2873 
Q 3191 2616 2906 2266 
Q 2828 2175 2409 1742 
Q 1991 1309 1228 531 
z
" transform="scale(0.015625)"/>
       </defs>
       <use xlink:href="#DejaVuSans-32"/>
       <use xlink:href="#DejaVuSans-30" transform="translate(63.623047 0)"/>
      </g>
     </g>
    </g>
    <g id="xtick_3">
     <g id="line2d_3">
      <g>
       <use xlink:href="#md021dba8d5" x="206.702796" y="332.44" style="stroke: #000000; stroke-width: 0.8"/>
      </g>
     </g>
     <g id="text_3">
      <!-- 40 -->
      <g transform="translate(200.340296 347.038437) scale(0.1 -0.1)">
       <defs>
        <path id="DejaVuSans-34" d="M 2419 4116 
L 825 1625 
L 2419 1625 
L 2419 4116 
z
M 2253 4666 
L 3047 4666 
L 3047 1625 
L 3713 1625 
L 3713 1100 
L 3047 1100 
L 3047 0 
L 2419 0 
L 2419 1100 
L 313 1100 
L 313 1709 
L 2253 4666 
z
" transform="scale(0.015625)"/>
       </defs>
       <use xlink:href="#DejaVuSans-34"/>
       <use xlink:href="#DejaVuSans-30" transform="translate(63.623047 0)"/>
      </g>
     </g>
    </g>
    <g id="xtick_4">
     <g id="line2d_4">
      <g>
       <use xlink:href="#md021dba8d5" x="271.743391" y="332.44" style="stroke: #000000; stroke-width: 0.8"/>
      </g>
     </g>
     <g id="text_4">
      <!-- 60 -->
      <g transform="translate(265.380891 347.038437) scale(0.1 -0.1)">
       <defs>
        <path id="DejaVuSans-36" d="M 2113 2584 
Q 1688 2584 1439 2293 
Q 1191 2003 1191 1497 
Q 1191 994 1439 701 
Q 1688 409 2113 409 
Q 2538 409 2786 701 
Q 3034 994 3034 1497 
Q 3034 2003 2786 2293 
Q 2538 2584 2113 2584 
z
M 3366 4563 
L 3366 3988 
Q 3128 4100 2886 4159 
Q 2644 4219 2406 4219 
Q 1781 4219 1451 3797 
Q 1122 3375 1075 2522 
Q 1259 2794 1537 2939 
Q 1816 3084 2150 3084 
Q 2853 3084 3261 2657 
Q 3669 2231 3669 1497 
Q 3669 778 3244 343 
Q 2819 -91 2113 -91 
Q 1303 -91 875 529 
Q 447 1150 447 2328 
Q 447 3434 972 4092 
Q 1497 4750 2381 4750 
Q 2619 4750 2861 4703 
Q 3103 4656 3366 4563 
z
" transform="scale(0.015625)"/>
       </defs>
       <use xlink:href="#DejaVuSans-36"/>
       <use xlink:href="#DejaVuSans-30" transform="translate(63.623047 0)"/>
      </g>
     </g>
    </g>
    <g id="xtick_5">
     <g id="line2d_5">
      <g>
       <use xlink:href="#md021dba8d5" x="336.783985" y="332.44" style="stroke: #000000; stroke-width: 0.8"/>
      </g>
     </g>
     <g id="text_5">
      <!-- 80 -->
      <g transform="translate(330.421485 347.038437) scale(0.1 -0.1)">
       <defs>
        <path id="DejaVuSans-38" d="M 2034 2216 
Q 1584 2216 1326 1975 
Q 1069 1734 1069 1313 
Q 1069 891 1326 650 
Q 1584 409 2034 409 
Q 2484 409 2743 651 
Q 3003 894 3003 1313 
Q 3003 1734 2745 1975 
Q 2488 2216 2034 2216 
z
M 1403 2484 
Q 997 2584 770 2862 
Q 544 3141 544 3541 
Q 544 4100 942 4425 
Q 1341 4750 2034 4750 
Q 2731 4750 3128 4425 
Q 3525 4100 3525 3541 
Q 3525 3141 3298 2862 
Q 3072 2584 2669 2484 
Q 3125 2378 3379 2068 
Q 3634 1759 3634 1313 
Q 3634 634 3220 271 
Q 2806 -91 2034 -91 
Q 1263 -91 848 271 
Q 434 634 434 1313 
Q 434 1759 690 2068 
Q 947 2378 1403 2484 
z
M 1172 3481 
Q 1172 3119 1398 2916 
Q 1625 2713 2034 2713 
Q 2441 2713 2670 2916 
Q 2900 3119 2900 3481 
Q 2900 3844 2670 4047 
Q 2441 4250 2034 4250 
Q 1625 4250 1398 4047 
Q 1172 3844 1172 3481 
z
" transform="scale(0.015625)"/>
       </defs>
       <use xlink:href="#DejaVuSans-38"/>
       <use xlink:href="#DejaVuSans-30" transform="translate(63.623047 0)"/>
      </g>
     </g>
    </g>
    <g id="xtick_6">
     <g id="line2d_6">
      <g>
       <use xlink:href="#md021dba8d5" x="401.82458" y="332.44" style="stroke: #000000; stroke-width: 0.8"/>
      </g>
     </g>
     <g id="text_6">
      <!-- 100 -->
      <g transform="translate(392.28083 347.038437) scale(0.1 -0.1)">
       <defs>
        <path id="DejaVuSans-31" d="M 794 531 
L 1825 531 
L 1825 4091 
L 703 3866 
L 703 4441 
L 1819 4666 
L 2450 4666 
L 2450 531 
L 3481 531 
L 3481 0 
L 794 0 
L 794 531 
z
" transform="scale(0.015625)"/>
       </defs>
       <use xlink:href="#DejaVuSans-31"/>
       <use xlink:href="#DejaVuSans-30" transform="translate(63.623047 0)"/>
       <use xlink:href="#DejaVuSans-30" transform="translate(127.246094 0)"/>
      </g>
     </g>
    </g>
    <g id="xtick_7">
     <g id="line2d_7">
      <g>
       <use xlink:href="#md021dba8d5" x="466.865174" y="332.44" style="stroke: #000000; stroke-width: 0.8"/>
      </g>
     </g>
     <g id="text_7">
      <!-- 120 -->
      <g transform="translate(457.321424 347.038437) scale(0.1 -0.1)">
       <use xlink:href="#DejaVuSans-31"/>
       <use xlink:href="#DejaVuSans-32" transform="translate(63.623047 0)"/>
       <use xlink:href="#DejaVuSans-30" transform="translate(127.246094 0)"/>
      </g>
     </g>
    </g>
    <g id="xtick_8">
     <g id="line2d_8">
      <g>
       <use xlink:href="#md021dba8d5" x="531.905769" y="332.44" style="stroke: #000000; stroke-width: 0.8"/>
      </g>
     </g>
     <g id="text_8">
      <!-- 140 -->
      <g transform="translate(522.362019 347.038437) scale(0.1 -0.1)">
       <use xlink:href="#DejaVuSans-31"/>
       <use xlink:href="#DejaVuSans-34" transform="translate(63.623047 0)"/>
       <use xlink:href="#DejaVuSans-30" transform="translate(127.246094 0)"/>
      </g>
     </g>
    </g>
    <g id="xtick_9">
     <g id="line2d_9">
      <g>
       <use xlink:href="#md021dba8d5" x="596.946364" y="332.44" style="stroke: #000000; stroke-width: 0.8"/>
      </g>
     </g>
     <g id="text_9">
      <!-- 160 -->
      <g transform="translate(587.402614 347.038437) scale(0.1 -0.1)">
       <use xlink:href="#DejaVuSans-31"/>
       <use xlink:href="#DejaVuSans-36" transform="translate(63.623047 0)"/>
       <use xlink:href="#DejaVuSans-30" transform="translate(127.246094 0)"/>
      </g>
     </g>
    </g>
    <g id="text_10">
     <!-- Round t -->
     <g transform="translate(319.040469 360.716563) scale(0.1 -0.1)">
      <defs>
       <path id="DejaVuSans-52" d="M 2841 2188 
Q 3044 2119 3236 1894 
Q 3428 1669 3622 1275 
L 4263 0 
L 3584 0 
L 2988 1197 
Q 2756 1666 2539 1819 
Q 2322 1972 1947 1972 
L 1259 1972 
L 1259 0 
L 628 0 
L 628 4666 
L 2053 4666 
Q 2853 4666 3247 4331 
Q 3641 3997 3641 3322 
Q 3641 2881 3436 2590 
Q 3231 2300 2841 2188 
z
M 1259 4147 
L 1259 2491 
L 2053 2491 
Q 2509 2491 2742 2702 
Q 2975 2913 2975 3322 
Q 2975 3731 2742 3939 
Q 2509 4147 2053 4147 
L 1259 4147 
z
" transform="scale(0.015625)"/>
       <path id="DejaVuSans-6f" d="M 1959 3097 
Q 1497 3097 1228 2736 
Q 959 2375 959 1747 
Q 959 1119 1226 758 
Q 1494 397 1959 397 
Q 2419 397 2687 759 
Q 2956 1122 2956 1747 
Q 2956 2369 2687 2733 
Q 2419 3097 1959 3097 
z
M 1959 3584 
Q 2709 3584 3137 3096 
Q 3566 2609 3566 1747 
Q 3566 888 3137 398 
Q 2709 -91 1959 -91 
Q 1206 -91 779 398 
Q 353 888 353 1747 
Q 353 2609 779 3096 
Q 1206 3584 1959 3584 
z
" transform="scale(0.015625)"/>
       <path id="DejaVuSans-75" d="M 544 1381 
L 544 3500 
L 1119 3500 
L 1119 1403 
Q 1119 906 1312 657 
Q 1506 409 1894 409 
Q 2359 409 2629 706 
Q 2900 1003 2900 1516 
L 2900 3500 
L 3475 3500 
L 3475 0 
L 2900 0 
L 2900 538 
Q 2691 219 2414 64 
Q 2138 -91 1772 -91 
Q 1169 -91 856 284 
Q 544 659 544 1381 
z
M 1991 3584 
L 1991 3584 
z
" transform="scale(0.015625)"/>
       <path id="DejaVuSans-6e" d="M 3513 2113 
L 3513 0 
L 2938 0 
L 2938 2094 
Q 2938 2591 2744 2837 
Q 2550 3084 2163 3084 
Q 1697 3084 1428 2787 
Q 1159 2491 1159 1978 
L 1159 0 
L 581 0 
L 581 3500 
L 1159 3500 
L 1159 2956 
Q 1366 3272 1645 3428 
Q 1925 3584 2291 3584 
Q 2894 3584 3203 3211 
Q 3513 2838 3513 2113 
z
" transform="scale(0.015625)"/>
       <path id="DejaVuSans-64" d="M 2906 2969 
L 2906 4863 
L 3481 4863 
L 3481 0 
L 2906 0 
L 2906 525 
Q 2725 213 2448 61 
Q 2172 -91 1784 -91 
Q 1150 -91 751 415 
Q 353 922 353 1747 
Q 353 2572 751 3078 
Q 1150 3584 1784 3584 
Q 2172 3584 2448 3432 
Q 2725 3281 2906 2969 
z
M 947 1747 
Q 947 1113 1208 752 
Q 1469 391 1925 391 
Q 2381 391 2643 752 
Q 2906 1113 2906 1747 
Q 2906 2381 2643 2742 
Q 2381 3103 1925 3103 
Q 1469 3103 1208 2742 
Q 947 2381 947 1747 
z
" transform="scale(0.015625)"/>
       <path id="DejaVuSans-20" transform="scale(0.015625)"/>
       <path id="DejaVuSans-74" d="M 1172 4494 
L 1172 3500 
L 2356 3500 
L 2356 3053 
L 1172 3053 
L 1172 1153 
Q 1172 725 1289 603 
Q 1406 481 1766 481 
L 2356 481 
L 2356 0 
L 1766 0 
Q 1100 0 847 248 
Q 594 497 594 1153 
L 594 3053 
L 172 3053 
L 172 3500 
L 594 3500 
L 594 4494 
L 1172 4494 
z
" transform="scale(0.015625)"/>
      </defs>
      <use xlink:href="#DejaVuSans-52"/>
      <use xlink:href="#DejaVuSans-6f" transform="translate(64.982422 0)"/>
      <use xlink:href="#DejaVuSans-75" transform="translate(126.164062 0)"/>
      <use xlink:href="#DejaVuSans-6e" transform="translate(189.542969 0)"/>
      <use xlink:href="#DejaVuSans-64" transform="translate(252.921875 0)"/>
      <use xlink:href="#DejaVuSans-20" transform="translate(316.398438 0)"/>
      <use xlink:href="#DejaVuSans-74" transform="translate(348.185547 0)"/>
     </g>
    </g>
   </g>
   <g id="matplotlib.axis_2">
    <g id="ytick_1">
     <g id="line2d_10">
      <defs>
       <path id="m51d99d2512" d="M 0 0 
L -3.5 0 
" style="stroke: #000000; stroke-width: 0.8"/>
      </defs>
      <g>
       <use xlink:href="#m51d99d2512" x="54.02" y="314.799631" style="stroke: #000000; stroke-width: 0.8"/>
      </g>
     </g>
     <g id="text_11">
      <!-- 0.06 -->
      <g transform="translate(24.754375 318.598849) scale(0.1 -0.1)">
       <defs>
        <path id="DejaVuSans-2e" d="M 684 794 
L 1344 794 
L 1344 0 
L 684 0 
L 684 794 
z
" transform="scale(0.015625)"/>
       </defs>
       <use xlink:href="#DejaVuSans-30"/>
       <use xlink:href="#DejaVuSans-2e" transform="translate(63.623047 0)"/>
       <use xlink:href="#DejaVuSans-30" transform="translate(95.410156 0)"/>
       <use xlink:href="#DejaVuSans-36" transform="translate(159.033203 0)"/>
      </g>
     </g>
    </g>
    <g id="ytick_2">
     <g id="line2d_11">
      <g>
       <use xlink:href="#m51d99d2512" x="54.02" y="249.577599" style="stroke: #000000; stroke-width: 0.8"/>
      </g>
     </g>
     <g id="text_12">
      <!-- 0.07 -->
      <g transform="translate(24.754375 253.376818) scale(0.1 -0.1)">
       <defs>
        <path id="DejaVuSans-37" d="M 525 4666 
L 3525 4666 
L 3525 4397 
L 1831 0 
L 1172 0 
L 2766 4134 
L 525 4134 
L 525 4666 
z
" transform="scale(0.015625)"/>
       </defs>
       <use xlink:href="#DejaVuSans-30"/>
       <use xlink:href="#DejaVuSans-2e" transform="translate(63.623047 0)"/>
       <use xlink:href="#DejaVuSans-30" transform="translate(95.410156 0)"/>
       <use xlink:href="#DejaVuSans-37" transform="translate(159.033203 0)"/>
      </g>
     </g>
    </g>
    <g id="ytick_3">
     <g id="line2d_12">
      <g>
       <use xlink:href="#m51d99d2512" x="54.02" y="184.355568" style="stroke: #000000; stroke-width: 0.8"/>
      </g>
     </g>
     <g id="text_13">
      <!-- 0.08 -->
      <g transform="translate(24.754375 188.154787) scale(0.1 -0.1)">
       <use xlink:href="#DejaVuSans-30"/>
       <use xlink:href="#DejaVuSans-2e" transform="translate(63.623047 0)"/>
       <use xlink:href="#DejaVuSans-30" transform="translate(95.410156 0)"/>
       <use xlink:href="#DejaVuSans-38" transform="translate(159.033203 0)"/>
      </g>
     </g>
    </g>
    <g id="ytick_4">
     <g id="line2d_13">
      <g>
       <use xlink:href="#m51d99d2512" x="54.02" y="119.133537" style="stroke: #000000; stroke-width: 0.8"/>
      </g>
     </g>
     <g id="text_14">
      <!-- 0.09 -->
      <g transform="translate(24.754375 122.932755) scale(0.1 -0.1)">
       <defs>
        <path id="DejaVuSans-39" d="M 703 97 
L 703 672 
Q 941 559 1184 500 
Q 1428 441 1663 441 
Q 2288 441 2617 861 
Q 2947 1281 2994 2138 
Q 2813 1869 2534 1725 
Q 2256 1581 1919 1581 
Q 1219 1581 811 2004 
Q 403 2428 403 3163 
Q 403 3881 828 4315 
Q 1253 4750 1959 4750 
Q 2769 4750 3195 4129 
Q 3622 3509 3622 2328 
Q 3622 1225 3098 567 
Q 2575 -91 1691 -91 
Q 1453 -91 1209 -44 
Q 966 3 703 97 
z
M 1959 2075 
Q 2384 2075 2632 2365 
Q 2881 2656 2881 3163 
Q 2881 3666 2632 3958 
Q 2384 4250 1959 4250 
Q 1534 4250 1286 3958 
Q 1038 3666 1038 3163 
Q 1038 2656 1286 2365 
Q 1534 2075 1959 2075 
z
" transform="scale(0.015625)"/>
       </defs>
       <use xlink:href="#DejaVuSans-30"/>
       <use xlink:href="#DejaVuSans-2e" transform="translate(63.623047 0)"/>
       <use xlink:href="#DejaVuSans-30" transform="translate(95.410156 0)"/>
       <use xlink:href="#DejaVuSans-39" transform="translate(159.033203 0)"/>
      </g>
     </g>
    </g>
    <g id="ytick_5">
     <g id="line2d_14">
      <g>
       <use xlink:href="#m51d99d2512" x="54.02" y="53.911505" style="stroke: #000000; stroke-width: 0.8"/>
      </g>
     </g>
     <g id="text_15">
      <!-- 0.10 -->
      <g transform="translate(24.754375 57.710724) scale(0.1 -0.1)">
       <use xlink:href="#DejaVuSans-30"/>
       <use xlink:href="#DejaVuSans-2e" transform="translate(63.623047 0)"/>
       <use xlink:href="#DejaVuSans-31" transform="translate(95.410156 0)"/>
       <use xlink:href="#DejaVuSans-30" transform="translate(159.033203 0)"/>
      </g>
     </g>
    </g>
    <g id="text_16">
     <!-- Rolling mean throughput (window=12) -->
     <g transform="translate(18.674688 276.795156) rotate(-90) scale(0.1 -0.1)">
      <defs>
       <path id="DejaVuSans-6c" d="M 603 4863 
L 1178 4863 
L 1178 0 
L 603 0 
L 603 4863 
z
" transform="scale(0.015625)"/>
       <path id="DejaVuSans-69" d="M 603 3500 
L 1178 3500 
L 1178 0 
L 603 0 
L 603 3500 
z
M 603 4863 
L 1178 4863 
L 1178 4134 
L 603 4134 
L 603 4863 
z
" transform="scale(0.015625)"/>
       <path id="DejaVuSans-67" d="M 2906 1791 
Q 2906 2416 2648 2759 
Q 2391 3103 1925 3103 
Q 1463 3103 1205 2759 
Q 947 2416 947 1791 
Q 947 1169 1205 825 
Q 1463 481 1925 481 
Q 2391 481 2648 825 
Q 2906 1169 2906 1791 
z
M 3481 434 
Q 3481 -459 3084 -895 
Q 2688 -1331 1869 -1331 
Q 1566 -1331 1297 -1286 
Q 1028 -1241 775 -1147 
L 775 -588 
Q 1028 -725 1275 -790 
Q 1522 -856 1778 -856 
Q 2344 -856 2625 -561 
Q 2906 -266 2906 331 
L 2906 616 
Q 2728 306 2450 153 
Q 2172 0 1784 0 
Q 1141 0 747 490 
Q 353 981 353 1791 
Q 353 2603 747 3093 
Q 1141 3584 1784 3584 
Q 2172 3584 2450 3431 
Q 2728 3278 2906 2969 
L 2906 3500 
L 3481 3500 
L 3481 434 
z
" transform="scale(0.015625)"/>
       <path id="DejaVuSans-6d" d="M 3328 2828 
Q 3544 3216 3844 3400 
Q 4144 3584 4550 3584 
Q 5097 3584 5394 3201 
Q 5691 2819 5691 2113 
L 5691 0 
L 5113 0 
L 5113 2094 
Q 5113 2597 4934 2840 
Q 4756 3084 4391 3084 
Q 3944 3084 3684 2787 
Q 3425 2491 3425 1978 
L 3425 0 
L 2847 0 
L 2847 2094 
Q 2847 2600 2669 2842 
Q 2491 3084 2119 3084 
Q 1678 3084 1418 2786 
Q 1159 2488 1159 1978 
L 1159 0 
L 581 0 
L 581 3500 
L 1159 3500 
L 1159 2956 
Q 1356 3278 1631 3431 
Q 1906 3584 2284 3584 
Q 2666 3584 2933 3390 
Q 3200 3197 3328 2828 
z
" transform="scale(0.015625)"/>
       <path id="DejaVuSans-65" d="M 3597 1894 
L 3597 1613 
L 953 1613 
Q 991 1019 1311 708 
Q 1631 397 2203 397 
Q 2534 397 2845 478 
Q 3156 559 3463 722 
L 3463 178 
Q 3153 47 2828 -22 
Q 2503 -91 2169 -91 
Q 1331 -91 842 396 
Q 353 884 353 1716 
Q 353 2575 817 3079 
Q 1281 3584 2069 3584 
Q 2775 3584 3186 3129 
Q 3597 2675 3597 1894 
z
M 3022 2063 
Q 3016 2534 2758 2815 
Q 2500 3097 2075 3097 
Q 1594 3097 1305 2825 
Q 1016 2553 972 2059 
L 3022 2063 
z
" transform="scale(0.015625)"/>
       <path id="DejaVuSans-61" d="M 2194 1759 
Q 1497 1759 1228 1600 
Q 959 1441 959 1056 
Q 959 750 1161 570 
Q 1363 391 1709 391 
Q 2188 391 2477 730 
Q 2766 1069 2766 1631 
L 2766 1759 
L 2194 1759 
z
M 3341 1997 
L 3341 0 
L 2766 0 
L 2766 531 
Q 2569 213 2275 61 
Q 1981 -91 1556 -91 
Q 1019 -91 701 211 
Q 384 513 384 1019 
Q 384 1609 779 1909 
Q 1175 2209 1959 2209 
L 2766 2209 
L 2766 2266 
Q 2766 2663 2505 2880 
Q 2244 3097 1772 3097 
Q 1472 3097 1187 3025 
Q 903 2953 641 2809 
L 641 3341 
Q 956 3463 1253 3523 
Q 1550 3584 1831 3584 
Q 2591 3584 2966 3190 
Q 3341 2797 3341 1997 
z
" transform="scale(0.015625)"/>
       <path id="DejaVuSans-68" d="M 3513 2113 
L 3513 0 
L 2938 0 
L 2938 2094 
Q 2938 2591 2744 2837 
Q 2550 3084 2163 3084 
Q 1697 3084 1428 2787 
Q 1159 2491 1159 1978 
L 1159 0 
L 581 0 
L 581 4863 
L 1159 4863 
L 1159 2956 
Q 1366 3272 1645 3428 
Q 1925 3584 2291 3584 
Q 2894 3584 3203 3211 
Q 3513 2838 3513 2113 
z
" transform="scale(0.015625)"/>
       <path id="DejaVuSans-72" d="M 2631 2963 
Q 2534 3019 2420 3045 
Q 2306 3072 2169 3072 
Q 1681 3072 1420 2755 
Q 1159 2438 1159 1844 
L 1159 0 
L 581 0 
L 581 3500 
L 1159 3500 
L 1159 2956 
Q 1341 3275 1631 3429 
Q 1922 3584 2338 3584 
Q 2397 3584 2469 3576 
Q 2541 3569 2628 3553 
L 2631 2963 
z
" transform="scale(0.015625)"/>
       <path id="DejaVuSans-70" d="M 1159 525 
L 1159 -1331 
L 581 -1331 
L 581 3500 
L 1159 3500 
L 1159 2969 
Q 1341 3281 1617 3432 
Q 1894 3584 2278 3584 
Q 2916 3584 3314 3078 
Q 3713 2572 3713 1747 
Q 3713 922 3314 415 
Q 2916 -91 2278 -91 
Q 1894 -91 1617 61 
Q 1341 213 1159 525 
z
M 3116 1747 
Q 3116 2381 2855 2742 
Q 2594 3103 2138 3103 
Q 1681 3103 1420 2742 
Q 1159 2381 1159 1747 
Q 1159 1113 1420 752 
Q 1681 391 2138 391 
Q 2594 391 2855 752 
Q 3116 1113 3116 1747 
z
" transform="scale(0.015625)"/>
       <path id="DejaVuSans-28" d="M 1984 4856 
Q 1566 4138 1362 3434 
Q 1159 2731 1159 2009 
Q 1159 1288 1364 580 
Q 1569 -128 1984 -844 
L 1484 -844 
Q 1016 -109 783 600 
Q 550 1309 550 2009 
Q 550 2706 781 3412 
Q 1013 4119 1484 4856 
L 1984 4856 
z
" transform="scale(0.015625)"/>
       <path id="DejaVuSans-77" d="M 269 3500 
L 844 3500 
L 1563 769 
L 2278 3500 
L 2956 3500 
L 3675 769 
L 4391 3500 
L 4966 3500 
L 4050 0 
L 3372 0 
L 2619 2869 
L 1863 0 
L 1184 0 
L 269 3500 
z
" transform="scale(0.015625)"/>
       <path id="DejaVuSans-3d" d="M 678 2906 
L 4684 2906 
L 4684 2381 
L 678 2381 
L 678 2906 
z
M 678 1631 
L 4684 1631 
L 4684 1100 
L 678 1100 
L 678 1631 
z
" transform="scale(0.015625)"/>
       <path id="DejaVuSans-29" d="M 513 4856 
L 1013 4856 
Q 1481 4119 1714 3412 
Q 1947 2706 1947 2009 
Q 1947 1309 1714 600 
Q 1481 -109 1013 -844 
L 513 -844 
Q 928 -128 1133 580 
Q 1338 1288 1338 2009 
Q 1338 2731 1133 3434 
Q 928 4138 513 4856 
z
" transform="scale(0.015625)"/>
      </defs>
      <use xlink:href="#DejaVuSans-52"/>
      <use xlink:href="#DejaVuSans-6f" transform="translate(64.982422 0)"/>
      <use xlink:href="#DejaVuSans-6c" transform="translate(126.164062 0)"/>
      <use xlink:href="#DejaVuSans-6c" transform="translate(153.947266 0)"/>
      <use xlink:href="#DejaVuSans-69" transform="translate(181.730469 0)"/>
      <use xlink:href="#DejaVuSans-6e" transform="translate(209.513672 0)"/>
      <use xlink:href="#DejaVuSans-67" transform="translate(272.892578 0)"/>
      <use xlink:href="#DejaVuSans-20" transform="translate(336.369141 0)"/>
      <use xlink:href="#DejaVuSans-6d" transform="translate(368.15625 0)"/>
      <use xlink:href="#DejaVuSans-65" transform="translate(465.568359 0)"/>
      <use xlink:href="#DejaVuSans-61" transform="translate(527.091797 0)"/>
      <use xlink:href="#DejaVuSans-6e" transform="translate(588.371094 0)"/>
      <use xlink:href="#DejaVuSans-20" transform="translate(651.75 0)"/>
      <use xlink:href="#DejaVuSans-74" transform="translate(683.537109 0)"/>
      <use xlink:href="#DejaVuSans-68" transform="translate(722.746094 0)"/>
      <use xlink:href="#DejaVuSans-72" transform="translate(786.125 0)"/>
      <use xlink:href="#DejaVuSans-6f" transform="translate(824.988281 0)"/>
      <use xlink:href="#DejaVuSans-75" transform="translate(886.169922 0)"/>
      <use xlink:href="#DejaVuSans-67" transform="translate(949.548828 0)"/>
      <use xlink:href="#DejaVuSans-68" transform="translate(1013.025391 0)"/>
      <use xlink:href="#DejaVuSans-70" transform="translate(1076.404297 0)"/>
      <use xlink:href="#DejaVuSans-75" transform="translate(1139.880859 0)"/>
      <use xlink:href="#DejaVuSans-74" transform="translate(1203.259766 0)"/>
      <use xlink:href="#DejaVuSans-20" transform="translate(1242.46875 0)"/>
      <use xlink:href="#DejaVuSans-28" transform="translate(1274.255859 0)"/>
      <use xlink:href="#DejaVuSans-77" transform="translate(1313.269531 0)"/>
      <use xlink:href="#DejaVuSans-69" transform="translate(1395.056641 0)"/>
      <use xlink:href="#DejaVuSans-6e" transform="translate(1422.839844 0)"/>
      <use xlink:href="#DejaVuSans-64" transform="translate(1486.21875 0)"/>
      <use xlink:href="#DejaVuSans-6f" transform="translate(1549.695312 0)"/>
      <use xlink:href="#DejaVuSans-77" transform="translate(1610.876953 0)"/>
      <use xlink:href="#DejaVuSans-3d" transform="translate(1692.664062 0)"/>
      <use xlink:href="#DejaVuSans-31" transform="translate(1776.453125 0)"/>
      <use xlink:href="#DejaVuSans-32" transform="translate(1840.076172 0)"/>
      <use xlink:href="#DejaVuSans-29" transform="translate(1903.699219 0)"/>
     </g>
    </g>
   </g>
   <g id="line2d_15">
    <path d="M 79.873636 301.685469 
L 83.125666 267.97692 
L 86.377696 302.561538 
L 89.629726 289.219236 
L 92.881755 294.416133 
L 96.133785 287.127794 
L 99.385815 285.871223 
L 102.637844 287.454097 
L 105.889874 293.779215 
L 109.141904 286.441319 
L 112.393934 283.614762 
L 115.645963 278.351414 
L 118.897993 273.670777 
L 122.150023 286.414409 
L 125.402053 283.306886 
L 128.654082 285.108212 
L 131.906112 277.670131 
L 135.158142 278.839134 
L 138.410172 277.64626 
L 141.662201 272.900961 
L 144.914231 262.418242 
L 148.166261 269.429189 
L 151.41829 271.48239 
L 154.67032 279.900078 
L 157.92235 281.669949 
L 161.17438 276.696433 
L 164.426409 278.206833 
L 167.678439 280.001927 
L 170.930469 284.380251 
L 174.182499 284.538957 
L 177.434528 294.404193 
L 180.686558 294.727472 
L 183.938588 295.227647 
L 187.190617 298.006636 
L 190.442647 293.402168 
L 193.694677 293.615793 
L 196.946707 292.66747 
L 200.198736 289.215283 
L 203.450766 285.100171 
L 206.702796 284.391963 
L 209.954826 278.935137 
L 213.206855 283.233017 
L 216.458885 281.953333 
L 219.710915 283.260581 
L 222.962945 292.6885 
L 226.214974 291.549922 
L 229.467004 295.119743 
L 232.719034 292.251948 
L 235.971063 300.36789 
L 239.223093 300.485253 
L 242.475123 290.478282 
L 245.727153 289.643546 
L 248.979182 295.424463 
L 252.231212 295.309326 
L 255.483242 289.667705 
L 258.735272 295.093218 
L 261.987301 294.686162 
L 265.239331 286.782528 
L 268.491361 298.073996 
L 271.743391 297.706751 
L 274.99542 291.276426 
L 278.24745 297.916473 
L 281.49948 303.852227 
L 284.751509 301.854078 
L 288.003539 307.314943 
L 291.255569 298.869762 
L 294.507599 301.38869 
L 297.759628 297.257778 
L 301.011658 288.556299 
L 304.263688 295.930526 
L 307.515718 286.343762 
L 310.767747 283.493523 
L 314.019777 284.360352 
L 317.271807 276.557682 
L 320.523836 280.239454 
L 323.775866 276.562443 
L 327.027896 280.859775 
L 330.279926 285.924753 
L 333.531955 281.647988 
L 340.036015 285.943923 
L 343.288045 285.083401 
L 346.540074 280.499682 
L 349.792104 291.395064 
L 353.044134 293.76694 
L 356.296164 298.966956 
L 359.548193 296.293482 
L 362.800223 301.982964 
L 366.052253 299.229675 
L 369.304282 295.432613 
L 372.556312 307.284533 
L 375.808342 313.261498 
L 379.060372 313.382612 
L 382.312401 307.648714 
L 385.564431 307.285632 
L 388.816461 298.629921 
L 395.32052 291.236859 
L 398.57255 291.593347 
L 401.82458 290.28499 
L 405.076609 284.80412 
L 408.328639 292.736472 
L 411.580669 277.637244 
L 414.832699 267.37752 
L 418.084728 266.852706 
L 421.336758 283.284119 
L 424.588788 298.075364 
L 427.840818 296.462913 
L 431.092847 299.931713 
L 434.344877 297.138271 
L 437.596907 293.535031 
L 440.848937 291.402906 
L 444.100966 288.268048 
L 447.352996 283.868328 
L 450.605026 286.152035 
L 453.857055 285.11016 
L 457.109085 296.884394 
L 460.361115 283.870447 
L 463.613145 269.255411 
L 466.865174 269.694372 
L 470.117204 276.665011 
L 473.369234 284.952405 
L 476.621264 290.310781 
L 479.873293 293.391393 
L 483.125323 299.199883 
L 486.377353 308.94564 
L 489.629383 312.925931 
L 492.881412 318.550909 
L 496.133442 300.208826 
L 499.385472 306.065245 
L 502.637501 307.331753 
L 505.889531 308.323848 
L 509.141561 300.791772 
L 512.393591 298.612152 
L 515.64562 304.312993 
L 518.89765 310.37248 
L 522.14968 306.573393 
L 525.40171 295.170718 
L 528.653739 293.156267 
L 531.905769 299.083803 
L 535.157799 305.649133 
L 538.409828 297.828997 
L 541.661858 309.465817 
L 544.913888 308.239286 
L 551.417947 299.478706 
L 554.669977 290.837562 
L 557.922007 284.27139 
L 561.174037 284.622928 
L 564.426066 299.166625 
L 567.678096 299.429988 
L 570.930126 286.347973 
L 574.182156 282.463847 
L 577.434185 289.575522 
L 580.686215 280.083838 
L 583.938245 282.731063 
L 587.190274 288.02713 
L 590.442304 285.164063 
L 593.694334 283.341345 
L 596.946364 284.249558 
L 596.946364 284.249558 
" clip-path="url(#p005f0122f7)" style="fill: none; stroke: #1f77b4; stroke-width: 1.5; stroke-linecap: square"/>
   </g>
   <g id="line2d_16">
    <path d="M 79.873636 272.45859 
L 83.125666 245.30836 
L 86.377696 250.51294 
L 89.629726 261.313308 
L 92.881755 262.316738 
L 96.133785 262.141249 
L 99.385815 264.456138 
L 102.637844 260.090619 
L 105.889874 267.028482 
L 109.141904 263.496934 
L 112.393934 264.651832 
L 115.645963 264.95738 
L 122.150023 264.3046 
L 125.402053 265.370013 
L 128.654082 257.903582 
L 131.906112 257.089199 
L 135.158142 258.165486 
L 138.410172 252.817544 
L 141.662201 258.007422 
L 144.914231 252.170102 
L 148.166261 252.202616 
L 151.41829 246.297989 
L 154.67032 242.717214 
L 157.92235 241.18294 
L 161.17438 247.120267 
L 164.426409 246.652928 
L 167.678439 251.313535 
L 170.930469 251.019416 
L 174.182499 248.397751 
L 177.434528 253.696788 
L 180.686558 250.954985 
L 183.938588 250.286123 
L 187.190617 253.272455 
L 190.442647 258.839116 
L 193.694677 259.483492 
L 196.946707 257.563466 
L 200.198736 253.20241 
L 203.450766 255.164678 
L 206.702796 257.428404 
L 209.954826 255.108367 
L 213.206855 256.471553 
L 216.458885 251.25188 
L 219.710915 247.85602 
L 222.962945 250.988682 
L 226.214974 248.43884 
L 229.467004 247.729517 
L 232.719034 252.269171 
L 235.971063 255.415262 
L 239.223093 254.159723 
L 242.475123 251.148287 
L 245.727153 250.939813 
L 248.979182 253.413015 
L 252.231212 258.183081 
L 255.483242 262.707413 
L 258.735272 264.029084 
L 261.987301 266.014055 
L 265.239331 266.867497 
L 268.491361 267.081115 
L 271.743391 264.619287 
L 274.99542 262.522515 
L 278.24745 264.249085 
L 284.751509 259.77257 
L 288.003539 260.310947 
L 291.255569 255.588912 
L 294.507599 253.66717 
L 297.759628 260.667315 
L 301.011658 252.306123 
L 304.263688 259.115036 
L 307.515718 261.720481 
L 310.767747 264.492858 
L 314.019777 261.236297 
L 317.271807 260.572713 
L 320.523836 259.578944 
L 323.775866 259.011177 
L 327.027896 257.503228 
L 330.279926 255.272888 
L 333.531955 256.785953 
L 336.783985 249.027196 
L 340.036015 254.859312 
L 343.288045 244.62096 
L 346.540074 237.712581 
L 349.792104 234.247915 
L 353.044134 233.705814 
L 356.296164 234.77676 
L 359.548193 237.713547 
L 362.800223 237.647122 
L 366.052253 240.457366 
L 369.304282 243.544387 
L 372.556312 243.332726 
L 375.808342 239.890657 
L 379.060372 235.143778 
L 382.312401 239.909881 
L 385.564431 242.728121 
L 388.816461 244.053828 
L 392.068491 247.694403 
L 395.32052 249.654249 
L 398.57255 248.189524 
L 401.82458 249.203166 
L 405.076609 252.78465 
L 408.328639 251.988711 
L 411.580669 249.099193 
L 414.832699 255.50885 
L 421.336758 259.351742 
L 424.588788 258.653024 
L 427.840818 257.415633 
L 431.092847 258.068969 
L 434.344877 257.590595 
L 437.596907 255.292197 
L 440.848937 252.554994 
L 444.100966 243.121866 
L 447.352996 239.572188 
L 450.605026 242.403167 
L 453.857055 241.188869 
L 457.109085 243.40554 
L 460.361115 236.802779 
L 463.613145 237.211478 
L 466.865174 239.700797 
L 470.117204 239.469937 
L 473.369234 237.539784 
L 476.621264 241.030477 
L 479.873293 239.936653 
L 483.125323 243.208096 
L 486.377353 242.997384 
L 489.629383 241.944554 
L 492.881412 248.091758 
L 496.133442 245.513793 
L 499.385472 249.749668 
L 502.637501 249.372572 
L 505.889531 244.185645 
L 509.141561 250.060581 
L 512.393591 249.935406 
L 515.64562 248.807223 
L 518.89765 251.554651 
L 522.14968 254.528448 
L 525.40171 259.349117 
L 528.653739 261.204033 
L 531.905769 250.728756 
L 535.157799 250.160014 
L 538.409828 251.503218 
L 541.661858 254.107313 
L 544.913888 256.045915 
L 548.165918 250.576147 
L 554.669977 254.566688 
L 557.922007 255.592156 
L 561.174037 253.013001 
L 567.678096 253.259003 
L 570.930126 259.143908 
L 574.182156 262.401589 
L 577.434185 258.37966 
L 580.686215 254.982108 
L 583.938245 259.340509 
L 587.190274 260.471608 
L 590.442304 258.115996 
L 593.694334 260.190437 
L 596.946364 260.397846 
L 596.946364 260.397846 
" clip-path="url(#p005f0122f7)" style="fill: none; stroke: #ff7f0e; stroke-width: 1.5; stroke-linecap: square"/>
   </g>
   <g id="line2d_17">
    <path d="M 79.873636 202.273565 
L 83.125666 175.426572 
L 86.377696 135.302934 
L 89.629726 173.276975 
L 96.133785 205.128907 
L 99.385815 217.78416 
L 102.637844 231.393654 
L 105.889874 210.473037 
L 109.141904 205.804327 
L 112.393934 204.506984 
L 115.645963 207.979489 
L 118.897993 208.779549 
L 122.150023 202.931265 
L 125.402053 203.373004 
L 128.654082 187.821524 
L 131.906112 180.644748 
L 135.158142 178.044478 
L 138.410172 165.086031 
L 141.662201 162.19227 
L 144.914231 170.296596 
L 148.166261 167.731126 
L 154.67032 149.547081 
L 161.17438 161.862669 
L 164.426409 163.914519 
L 167.678439 170.480632 
L 170.930469 176.62508 
L 174.182499 159.0204 
L 177.434528 153.499497 
L 180.686558 146.433319 
L 183.938588 147.209822 
L 187.190617 160.615809 
L 190.442647 169.489329 
L 193.694677 160.033195 
L 196.946707 156.552335 
L 200.198736 165.82987 
L 203.450766 179.828773 
L 206.702796 177.8799 
L 209.954826 175.67762 
L 213.206855 174.976059 
L 216.458885 173.168136 
L 219.710915 172.553566 
L 222.962945 168.212698 
L 226.214974 153.557662 
L 229.467004 149.034252 
L 232.719034 164.6456 
L 235.971063 152.17499 
L 239.223093 133.208378 
L 242.475123 129.117628 
L 245.727153 123.447019 
L 248.979182 129.983678 
L 252.231212 149.352058 
L 255.483242 151.17932 
L 258.735272 144.385904 
L 261.987301 143.086839 
L 265.239331 156.038076 
L 268.491361 150.544364 
L 271.743391 153.5298 
L 274.99542 169.105988 
L 278.24745 168.221025 
L 281.49948 166.372334 
L 284.751509 171.188957 
L 288.003539 151.432495 
L 291.255569 151.341048 
L 294.507599 150.323255 
L 297.759628 157.588745 
L 301.011658 165.978673 
L 304.263688 167.020195 
L 307.515718 172.712148 
L 310.767747 176.640033 
L 314.019777 170.953843 
L 317.271807 186.695849 
L 320.523836 179.218651 
L 323.775866 187.549759 
L 327.027896 191.942773 
L 330.279926 183.040151 
L 333.531955 195.790974 
L 336.783985 169.078468 
L 340.036015 161.830191 
L 343.288045 131.449306 
L 346.540074 127.988289 
L 349.792104 95.152411 
L 353.044134 82.082707 
L 356.296164 52.962362 
L 359.548193 58.634907 
L 362.800223 61.567167 
L 366.052253 56.957095 
L 369.304282 65.082639 
L 372.556312 44.22431 
L 375.808342 44.429909 
L 379.060372 58.846233 
L 382.312401 85.006441 
L 385.564431 97.888164 
L 388.816461 126.963791 
L 392.068491 143.08737 
L 395.32052 175.879041 
L 398.57255 176.991469 
L 401.82458 175.82765 
L 405.076609 179.308019 
L 408.328639 168.444592 
L 411.580669 195.940182 
L 414.832699 217.483086 
L 418.084728 216.137186 
L 421.336758 189.956773 
L 424.588788 165.441655 
L 427.840818 165.46938 
L 431.092847 145.681974 
L 434.344877 149.230336 
L 437.596907 154.252328 
L 440.848937 145.998524 
L 444.100966 158.025976 
L 447.352996 160.79219 
L 450.605026 153.249457 
L 453.857055 147.666348 
L 457.109085 121.385784 
L 460.361115 147.87673 
L 463.613145 172.604724 
L 466.865174 165.793037 
L 470.117204 162.86273 
L 473.369234 126.680835 
L 476.621264 125.167928 
L 479.873293 122.140794 
L 486.377353 78.884671 
L 489.629383 73.662875 
L 492.881412 90.524557 
L 496.133442 112.427028 
L 499.385472 94.322569 
L 502.637501 97.514552 
L 505.889531 102.810373 
L 509.141561 108.886628 
L 512.393591 119.360385 
L 515.64562 92.990092 
L 518.89765 76.461967 
L 522.14968 105.950959 
L 525.40171 137.537279 
L 528.653739 129.661211 
L 531.905769 99.034132 
L 535.157799 103.346218 
L 538.409828 115.013048 
L 541.661858 87.838638 
L 544.913888 90.625451 
L 548.165918 102.30017 
L 551.417947 116.936011 
L 554.669977 133.637054 
L 557.922007 147.881719 
L 561.174037 140.426135 
L 564.426066 109.047855 
L 567.678096 130.363789 
L 570.930126 162.423273 
L 574.182156 155.648556 
L 577.434185 146.806118 
L 580.686215 171.089255 
L 583.938245 173.724418 
L 590.442304 167.189056 
L 593.694334 162.130887 
L 596.946364 178.669994 
L 596.946364 178.669994 
" clip-path="url(#p005f0122f7)" style="fill: none; stroke: #2ca02c; stroke-width: 1.5; stroke-linecap: square"/>
   </g>
   <g id="line2d_18">
    <path d="M 79.873636 169.162959 
L 83.125666 140.910165 
L 86.377696 138.471051 
L 89.629726 165.513356 
L 92.881755 173.114854 
L 96.133785 187.650507 
L 99.385815 204.889569 
L 102.637844 213.401746 
L 105.889874 200.058438 
L 109.141904 198.915853 
L 112.393934 202.550333 
L 115.645963 205.928475 
L 118.897993 217.161499 
L 122.150023 211.185954 
L 125.402053 207.896408 
L 128.654082 197.144936 
L 131.906112 192.501736 
L 135.158142 190.261428 
L 138.410172 175.119147 
L 141.662201 174.575198 
L 144.914231 176.810333 
L 148.166261 177.822329 
L 151.41829 171.074734 
L 154.67032 163.437394 
L 157.92235 159.211219 
L 161.17438 169.746227 
L 164.426409 172.026309 
L 167.678439 179.128118 
L 170.930469 184.406985 
L 174.182499 171.322036 
L 177.434528 167.4685 
L 180.686558 162.213866 
L 183.938588 165.220153 
L 187.190617 171.261759 
L 190.442647 172.838999 
L 193.694677 161.843929 
L 196.946707 157.299153 
L 200.198736 165.498646 
L 203.450766 182.323879 
L 206.702796 182.200102 
L 209.954826 184.632464 
L 213.206855 184.590306 
L 216.458885 179.8178 
L 219.710915 180.914876 
L 222.962945 176.400997 
L 226.214974 161.271512 
L 229.467004 155.750855 
L 232.719034 170.610484 
L 235.971063 159.970668 
L 239.223093 143.216981 
L 242.475123 137.140555 
L 245.727153 125.662632 
L 248.979182 129.099176 
L 252.231212 142.161024 
L 255.483242 150.889762 
L 258.735272 138.168039 
L 261.987301 141.83841 
L 265.239331 154.39309 
L 268.491361 152.006671 
L 271.743391 159.934503 
L 274.99542 174.31736 
L 278.24745 174.807209 
L 281.49948 172.362955 
L 284.751509 179.832918 
L 288.003539 159.32774 
L 291.255569 161.089865 
L 294.507599 156.737052 
L 297.759628 171.620845 
L 301.011658 169.936804 
L 304.263688 171.117142 
L 307.515718 177.515477 
L 310.767747 175.754257 
L 314.019777 169.902862 
L 317.271807 187.971966 
L 320.523836 174.02912 
L 323.775866 183.226289 
L 327.027896 186.758924 
L 330.279926 178.894498 
L 333.531955 195.356702 
L 336.783985 166.940427 
L 340.036015 167.598168 
L 343.288045 138.048279 
L 346.540074 145.286149 
L 349.792104 114.529955 
L 353.044134 100.415449 
L 356.296164 63.589123 
L 359.548193 70.340407 
L 362.800223 66.570867 
L 366.052253 62.614779 
L 369.304282 71.047597 
L 372.556312 41.339596 
L 375.808342 40.769091 
L 379.060372 49.891351 
L 382.312401 78.080907 
L 385.564431 77.598134 
L 388.816461 108.454566 
L 392.068491 128.592247 
L 395.32052 161.801339 
L 398.57255 160.752694 
L 401.82458 170.224601 
L 405.076609 175.936571 
L 408.328639 161.568455 
L 411.580669 186.053021 
L 414.832699 212.358254 
L 418.084728 213.868859 
L 421.336758 186.813035 
L 424.588788 165.749223 
L 427.840818 163.35235 
L 431.092847 154.422744 
L 434.344877 157.22375 
L 437.596907 167.120696 
L 440.848937 149.405342 
L 444.100966 157.896391 
L 447.352996 162.899032 
L 450.605026 159.870675 
L 453.857055 156.249325 
L 457.109085 127.996621 
L 460.361115 157.467105 
L 463.613145 180.522959 
L 466.865174 177.735089 
L 470.117204 164.018054 
L 473.369234 136.581109 
L 476.621264 139.186363 
L 479.873293 144.063075 
L 483.125323 125.262076 
L 486.377353 103.551349 
L 489.629383 104.413436 
L 492.881412 114.627514 
L 496.133442 139.477472 
L 499.385472 120.335946 
L 502.637501 117.236112 
L 505.889531 121.678129 
L 509.141561 128.045477 
L 512.393591 137.273525 
L 515.64562 105.814507 
L 518.89765 84.37275 
L 522.14968 110.606805 
L 525.40171 142.702625 
L 528.653739 130.941572 
L 531.905769 98.366842 
L 535.157799 99.568705 
L 538.409828 107.029106 
L 541.661858 82.097704 
L 544.913888 81.346951 
L 548.165918 93.984419 
L 551.417947 100.993302 
L 554.669977 128.578267 
L 557.922007 149.514339 
L 561.174037 147.526494 
L 564.426066 116.346553 
L 567.678096 139.226006 
L 570.930126 168.030382 
L 574.182156 162.773494 
L 577.434185 156.895535 
L 580.686215 192.040544 
L 583.938245 193.85457 
L 587.190274 193.609467 
L 590.442304 194.044103 
L 593.694334 173.489084 
L 596.946364 179.713062 
L 596.946364 179.713062 
" clip-path="url(#p005f0122f7)" style="fill: none; stroke: #d62728; stroke-width: 1.5; stroke-linecap: square"/>
   </g>
   <g id="line2d_19">
    <path d="M 336.783985 332.44 
L 336.783985 26.88 
" clip-path="url(#p005f0122f7)" style="fill: none; stroke-dasharray: 5.55,2.4; stroke-dashoffset: 0; stroke: #1f77b4; stroke-width: 1.5"/>
   </g>
   <g id="patch_3">
    <path d="M 54.02 332.44 
L 54.02 26.88 
" style="fill: none; stroke: #000000; stroke-width: 0.8; stroke-linejoin: miter; stroke-linecap: square"/>
   </g>
   <g id="patch_4">
    <path d="M 622.8 332.44 
L 622.8 26.88 
" style="fill: none; stroke: #000000; stroke-width: 0.8; stroke-linejoin: miter; stroke-linecap: square"/>
   </g>
   <g id="patch_5">
    <path d="M 54.02 332.44 
L 622.8 332.44 
" style="fill: none; stroke: #000000; stroke-width: 0.8; stroke-linejoin: miter; stroke-linecap: square"/>
   </g>
   <g id="patch_6">
    <path d="M 54.02 26.88 
L 622.8 26.88 
" style="fill: none; stroke: #000000; stroke-width: 0.8; stroke-linejoin: miter; stroke-linecap: square"/>
   </g>
   <g id="text_17">
    <!-- Rolling throughput of different budget-allocation policies -->
    <g transform="translate(168.6175 20.88) scale(0.12 -0.12)">
     <defs>
      <path id="DejaVuSans-66" d="M 2375 4863 
L 2375 4384 
L 1825 4384 
Q 1516 4384 1395 4259 
Q 1275 4134 1275 3809 
L 1275 3500 
L 2222 3500 
L 2222 3053 
L 1275 3053 
L 1275 0 
L 697 0 
L 697 3053 
L 147 3053 
L 147 3500 
L 697 3500 
L 697 3744 
Q 697 4328 969 4595 
Q 1241 4863 1831 4863 
L 2375 4863 
z
" transform="scale(0.015625)"/>
      <path id="DejaVuSans-62" d="M 3116 1747 
Q 3116 2381 2855 2742 
Q 2594 3103 2138 3103 
Q 1681 3103 1420 2742 
Q 1159 2381 1159 1747 
Q 1159 1113 1420 752 
Q 1681 391 2138 391 
Q 2594 391 2855 752 
Q 3116 1113 3116 1747 
z
M 1159 2969 
Q 1341 3281 1617 3432 
Q 1894 3584 2278 3584 
Q 2916 3584 3314 3078 
Q 3713 2572 3713 1747 
Q 3713 922 3314 415 
Q 2916 -91 2278 -91 
Q 1894 -91 1617 61 
Q 1341 213 1159 525 
L 1159 0 
L 581 0 
L 581 4863 
L 1159 4863 
L 1159 2969 
z
" transform="scale(0.015625)"/>
      <path id="DejaVuSans-2d" d="M 313 2009 
L 1997 2009 
L 1997 1497 
L 313 1497 
L 313 2009 
z
" transform="scale(0.015625)"/>
      <path id="DejaVuSans-63" d="M 3122 3366 
L 3122 2828 
Q 2878 2963 2633 3030 
Q 2388 3097 2138 3097 
Q 1578 3097 1268 2742 
Q 959 2388 959 1747 
Q 959 1106 1268 751 
Q 1578 397 2138 397 
Q 2388 397 2633 464 
Q 2878 531 3122 666 
L 3122 134 
Q 2881 22 2623 -34 
Q 2366 -91 2075 -91 
Q 1284 -91 818 406 
Q 353 903 353 1747 
Q 353 2603 823 3093 
Q 1294 3584 2113 3584 
Q 2378 3584 2631 3529 
Q 2884 3475 3122 3366 
z
" transform="scale(0.015625)"/>
      <path id="DejaVuSans-73" d="M 2834 3397 
L 2834 2853 
Q 2591 2978 2328 3040 
Q 2066 3103 1784 3103 
Q 1356 3103 1142 2972 
Q 928 2841 928 2578 
Q 928 2378 1081 2264 
Q 1234 2150 1697 2047 
L 1894 2003 
Q 2506 1872 2764 1633 
Q 3022 1394 3022 966 
Q 3022 478 2636 193 
Q 2250 -91 1575 -91 
Q 1294 -91 989 -36 
Q 684 19 347 128 
L 347 722 
Q 666 556 975 473 
Q 1284 391 1588 391 
Q 1994 391 2212 530 
Q 2431 669 2431 922 
Q 2431 1156 2273 1281 
Q 2116 1406 1581 1522 
L 1381 1569 
Q 847 1681 609 1914 
Q 372 2147 372 2553 
Q 372 3047 722 3315 
Q 1072 3584 1716 3584 
Q 2034 3584 2315 3537 
Q 2597 3491 2834 3397 
z
" transform="scale(0.015625)"/>
     </defs>
     <use xlink:href="#DejaVuSans-52"/>
     <use xlink:href="#DejaVuSans-6f" transform="translate(64.982422 0)"/>
     <use xlink:href="#DejaVuSans-6c" transform="translate(126.164062 0)"/>
     <use xlink:href="#DejaVuSans-6c" transform="translate(153.947266 0)"/>
     <use xlink:href="#DejaVuSans-69" transform="translate(181.730469 0)"/>
     <use xlink:href="#DejaVuSans-6e" transform="translate(209.513672 0)"/>
     <use xlink:href="#DejaVuSans-67" transform="translate(272.892578 0)"/>
     <use xlink:href="#DejaVuSans-20" transform="translate(336.369141 0)"/>
     <use xlink:href="#DejaVuSans-74" transform="translate(368.15625 0)"/>
     <use xlink:href="#DejaVuSans-68" transform="translate(407.365234 0)"/>
     <use xlink:href="#DejaVuSans-72" transform="translate(470.744141 0)"/>
     <use xlink:href="#DejaVuSans-6f" transform="translate(509.607422 0)"/>
     <use xlink:href="#DejaVuSans-75" transform="translate(570.789062 0)"/>
     <use xlink:href="#DejaVuSans-67" transform="translate(634.167969 0)"/>
     <use xlink:href="#DejaVuSans-68" transform="translate(697.644531 0)"/>
     <use xlink:href="#DejaVuSans-70" transform="translate(761.023438 0)"/>
     <use xlink:href="#DejaVuSans-75" transform="translate(824.5 0)"/>
     <use xlink:href="#DejaVuSans-74" transform="translate(887.878906 0)"/>
     <use xlink:href="#DejaVuSans-20" transform="translate(927.087891 0)"/>
     <use xlink:href="#DejaVuSans-6f" transform="translate(958.875 0)"/>
     <use xlink:href="#DejaVuSans-66" transform="translate(1020.056641 0)"/>
     <use xlink:href="#DejaVuSans-20" transform="translate(1055.261719 0)"/>
     <use xlink:href="#DejaVuSans-64" transform="translate(1087.048828 0)"/>
     <use xlink:href="#DejaVuSans-69" transform="translate(1150.525391 0)"/>
     <use xlink:href="#DejaVuSans-66" transform="translate(1178.308594 0)"/>
     <use xlink:href="#DejaVuSans-66" transform="translate(1213.513672 0)"/>
     <use xlink:href="#DejaVuSans-65" transform="translate(1248.71875 0)"/>
     <use xlink:href="#DejaVuSans-72" transform="translate(1310.242188 0)"/>
     <use xlink:href="#DejaVuSans-65" transform="translate(1349.105469 0)"/>
     <use xlink:href="#DejaVuSans-6e" transform="translate(1410.628906 0)"/>
     <use xlink:href="#DejaVuSans-74" transform="translate(1474.007812 0)"/>
     <use xlink:href="#DejaVuSans-20" transform="translate(1513.216797 0)"/>
     <use xlink:href="#DejaVuSans-62" transform="translate(1545.003906 0)"/>
     <use xlink:href="#DejaVuSans-75" transform="translate(1608.480469 0)"/>
     <use xlink:href="#DejaVuSans-64" transform="translate(1671.859375 0)"/>
     <use xlink:href="#DejaVuSans-67" transform="translate(1735.335938 0)"/>
     <use xlink:href="#DejaVuSans-65" transform="translate(1798.8125 0)"/>
     <use xlink:href="#DejaVuSans-74" transform="translate(1860.335938 0)"/>
     <use xlink:href="#DejaVuSans-2d" transform="translate(1899.544922 0)"/>
     <use xlink:href="#DejaVuSans-61" transform="translate(1935.628906 0)"/>
     <use xlink:href="#DejaVuSans-6c" transform="translate(1996.908203 0)"/>
     <use xlink:href="#DejaVuSans-6c" transform="translate(2024.691406 0)"/>
     <use xlink:href="#DejaVuSans-6f" transform="translate(2052.474609 0)"/>
     <use xlink:href="#DejaVuSans-63" transform="translate(2113.65625 0)"/>
     <use xlink:href="#DejaVuSans-61" transform="translate(2168.636719 0)"/>
     <use xlink:href="#DejaVuSans-74" transform="translate(2229.916016 0)"/>
     <use xlink:href="#DejaVuSans-69" transform="translate(2269.125 0)"/>
     <use xlink:href="#DejaVuSans-6f" transform="translate(2296.908203 0)"/>
     <use xlink:href="#DejaVuSans-6e" transform="translate(2358.089844 0)"/>
     <use xlink:href="#DejaVuSans-20" transform="translate(2421.46875 0)"/>
     <use xlink:href="#DejaVuSans-70" transform="translate(2453.255859 0)"/>
     <use xlink:href="#DejaVuSans-6f" transform="translate(2516.732422 0)"/>
     <use xlink:href="#DejaVuSans-6c" transform="translate(2577.914062 0)"/>
     <use xlink:href="#DejaVuSans-69" transform="translate(2605.697266 0)"/>
     <use xlink:href="#DejaVuSans-63" transform="translate(2633.480469 0)"/>
     <use xlink:href="#DejaVuSans-69" transform="translate(2688.460938 0)"/>
     <use xlink:href="#DejaVuSans-65" transform="translate(2716.244141 0)"/>
     <use xlink:href="#DejaVuSans-73" transform="translate(2777.767578 0)"/>
    </g>
   </g>
   <g id="legend_1">
    <g id="patch_7">
     <path d="M 61.02 109.105 
L 210.412188 109.105 
Q 212.412188 109.105 212.412188 107.105 
L 212.412188 33.88 
Q 212.412188 31.88 210.412188 31.88 
L 61.02 31.88 
Q 59.02 31.88 59.02 33.88 
L 59.02 107.105 
Q 59.02 109.105 61.02 109.105 
z
" style="fill: #ffffff; opacity: 0.8; stroke: #cccccc; stroke-linejoin: miter"/>
    </g>
    <g id="line2d_20">
     <path d="M 63.02 39.978438 
L 73.02 39.978438 
L 83.02 39.978438 
" style="fill: none; stroke: #1f77b4; stroke-width: 1.5; stroke-linecap: square"/>
    </g>
    <g id="text_18">
     <!-- best_all -->
     <g transform="translate(91.02 43.478438) scale(0.1 -0.1)">
      <defs>
       <path id="DejaVuSans-5f" d="M 3263 -1063 
L 3263 -1509 
L -63 -1509 
L -63 -1063 
L 3263 -1063 
z
" transform="scale(0.015625)"/>
      </defs>
      <use xlink:href="#DejaVuSans-62"/>
      <use xlink:href="#DejaVuSans-65" transform="translate(63.476562 0)"/>
      <use xlink:href="#DejaVuSans-73" transform="translate(125 0)"/>
      <use xlink:href="#DejaVuSans-74" transform="translate(177.099609 0)"/>
      <use xlink:href="#DejaVuSans-5f" transform="translate(216.308594 0)"/>
      <use xlink:href="#DejaVuSans-61" transform="translate(266.308594 0)"/>
      <use xlink:href="#DejaVuSans-6c" transform="translate(327.587891 0)"/>
      <use xlink:href="#DejaVuSans-6c" transform="translate(355.371094 0)"/>
     </g>
    </g>
    <g id="line2d_21">
     <path d="M 63.02 54.934688 
L 73.02 54.934688 
L 83.02 54.934688 
" style="fill: none; stroke: #ff7f0e; stroke-width: 1.5; stroke-linecap: square"/>
    </g>
    <g id="text_19">
     <!-- primary_only -->
     <g transform="translate(91.02 58.434688) scale(0.1 -0.1)">
      <defs>
       <path id="DejaVuSans-79" d="M 2059 -325 
Q 1816 -950 1584 -1140 
Q 1353 -1331 966 -1331 
L 506 -1331 
L 506 -850 
L 844 -850 
Q 1081 -850 1212 -737 
Q 1344 -625 1503 -206 
L 1606 56 
L 191 3500 
L 800 3500 
L 1894 763 
L 2988 3500 
L 3597 3500 
L 2059 -325 
z
" transform="scale(0.015625)"/>
      </defs>
      <use xlink:href="#DejaVuSans-70"/>
      <use xlink:href="#DejaVuSans-72" transform="translate(63.476562 0)"/>
      <use xlink:href="#DejaVuSans-69" transform="translate(104.589844 0)"/>
      <use xlink:href="#DejaVuSans-6d" transform="translate(132.373047 0)"/>
      <use xlink:href="#DejaVuSans-61" transform="translate(229.785156 0)"/>
      <use xlink:href="#DejaVuSans-72" transform="translate(291.064453 0)"/>
      <use xlink:href="#DejaVuSans-79" transform="translate(332.177734 0)"/>
      <use xlink:href="#DejaVuSans-5f" transform="translate(391.357422 0)"/>
      <use xlink:href="#DejaVuSans-6f" transform="translate(441.357422 0)"/>
      <use xlink:href="#DejaVuSans-6e" transform="translate(502.539062 0)"/>
      <use xlink:href="#DejaVuSans-6c" transform="translate(565.917969 0)"/>
      <use xlink:href="#DejaVuSans-79" transform="translate(593.701172 0)"/>
     </g>
    </g>
    <g id="line2d_22">
     <path d="M 63.02 69.890938 
L 73.02 69.890938 
L 83.02 69.890938 
" style="fill: none; stroke: #2ca02c; stroke-width: 1.5; stroke-linecap: square"/>
    </g>
    <g id="text_20">
     <!-- proposed -->
     <g transform="translate(91.02 73.390938) scale(0.1 -0.1)">
      <use xlink:href="#DejaVuSans-70"/>
      <use xlink:href="#DejaVuSans-72" transform="translate(63.476562 0)"/>
      <use xlink:href="#DejaVuSans-6f" transform="translate(102.339844 0)"/>
      <use xlink:href="#DejaVuSans-70" transform="translate(163.521484 0)"/>
      <use xlink:href="#DejaVuSans-6f" transform="translate(226.998047 0)"/>
      <use xlink:href="#DejaVuSans-73" transform="translate(288.179688 0)"/>
      <use xlink:href="#DejaVuSans-65" transform="translate(340.279297 0)"/>
      <use xlink:href="#DejaVuSans-64" transform="translate(401.802734 0)"/>
     </g>
    </g>
    <g id="line2d_23">
     <path d="M 63.02 84.569063 
L 73.02 84.569063 
L 83.02 84.569063 
" style="fill: none; stroke: #d62728; stroke-width: 1.5; stroke-linecap: square"/>
    </g>
    <g id="text_21">
     <!-- random_residual -->
     <g transform="translate(91.02 88.069063) scale(0.1 -0.1)">
      <use xlink:href="#DejaVuSans-72"/>
      <use xlink:href="#DejaVuSans-61" transform="translate(41.113281 0)"/>
      <use xlink:href="#DejaVuSans-6e" transform="translate(102.392578 0)"/>
      <use xlink:href="#DejaVuSans-64" transform="translate(165.771484 0)"/>
      <use xlink:href="#DejaVuSans-6f" transform="translate(229.248047 0)"/>
      <use xlink:href="#DejaVuSans-6d" transform="translate(290.429688 0)"/>
      <use xlink:href="#DejaVuSans-5f" transform="translate(387.841797 0)"/>
      <use xlink:href="#DejaVuSans-72" transform="translate(437.841797 0)"/>
      <use xlink:href="#DejaVuSans-65" transform="translate(476.705078 0)"/>
      <use xlink:href="#DejaVuSans-73" transform="translate(538.228516 0)"/>
      <use xlink:href="#DejaVuSans-69" transform="translate(590.328125 0)"/>
      <use xlink:href="#DejaVuSans-64" transform="translate(618.111328 0)"/>
      <use xlink:href="#DejaVuSans-75" transform="translate(681.587891 0)"/>
      <use xlink:href="#DejaVuSans-61" transform="translate(744.966797 0)"/>
      <use xlink:href="#DejaVuSans-6c" transform="translate(806.246094 0)"/>
     </g>
    </g>
    <g id="line2d_24">
     <path d="M 63.02 99.525313 
L 73.02 99.525313 
L 83.02 99.525313 
" style="fill: none; stroke-dasharray: 5.55,2.4; stroke-dashoffset: 0; stroke: #1f77b4; stroke-width: 1.5"/>
    </g>
    <g id="text_22">
     <!-- new model joins (t=80) -->
     <g transform="translate(91.02 103.025313) scale(0.1 -0.1)">
      <defs>
       <path id="DejaVuSans-6a" d="M 603 3500 
L 1178 3500 
L 1178 -63 
Q 1178 -731 923 -1031 
Q 669 -1331 103 -1331 
L -116 -1331 
L -116 -844 
L 38 -844 
Q 366 -844 484 -692 
Q 603 -541 603 -63 
L 603 3500 
z
M 603 4863 
L 1178 4863 
L 1178 4134 
L 603 4134 
L 603 4863 
z
" transform="scale(0.015625)"/>
      </defs>
      <use xlink:href="#DejaVuSans-6e"/>
      <use xlink:href="#DejaVuSans-65" transform="translate(63.378906 0)"/>
      <use xlink:href="#DejaVuSans-77" transform="translate(124.902344 0)"/>
      <use xlink:href="#DejaVuSans-20" transform="translate(206.689453 0)"/>
      <use xlink:href="#DejaVuSans-6d" transform="translate(238.476562 0)"/>
      <use xlink:href="#DejaVuSans-6f" transform="translate(335.888672 0)"/>
      <use xlink:href="#DejaVuSans-64" transform="translate(397.070312 0)"/>
      <use xlink:href="#DejaVuSans-65" transform="translate(460.546875 0)"/>
      <use xlink:href="#DejaVuSans-6c" transform="translate(522.070312 0)"/>
      <use xlink:href="#DejaVuSans-20" transform="translate(549.853516 0)"/>
      <use xlink:href="#DejaVuSans-6a" transform="translate(581.640625 0)"/>
      <use xlink:href="#DejaVuSans-6f" transform="translate(609.423828 0)"/>
      <use xlink:href="#DejaVuSans-69" transform="translate(670.605469 0)"/>
      <use xlink:href="#DejaVuSans-6e" transform="translate(698.388672 0)"/>
      <use xlink:href="#DejaVuSans-73" transform="translate(761.767578 0)"/>
      <use xlink:href="#DejaVuSans-20" transform="translate(813.867188 0)"/>
      <use xlink:href="#DejaVuSans-28" transform="translate(845.654297 0)"/>
      <use xlink:href="#DejaVuSans-74" transform="translate(884.667969 0)"/>
      <use xlink:href="#DejaVuSans-3d" transform="translate(923.876953 0)"/>
      <use xlink:href="#DejaVuSans-38" transform="translate(1007.666016 0)"/>
      <use xlink:href="#DejaVuSans-30" transform="translate(1071.289062 0)"/>
      <use xlink:href="#DejaVuSans-29" transform="translate(1134.912109 0)"/>
     </g>
    </g>
   </g>
  </g>
 </g>
 <defs>
  <clipPath id="p005f0122f7">
   <rect x="54.02" y="26.88" width="568.78" height="305.56"/>
  </clipPath>
 </defs>
</svg>
