<?xml version="1.0" encoding="utf-8" standalone="no"?>
<!DOCTYPE svg PUBLIC "-//W3C//DTD SVG 1.1//EN"
  "http://www.w3.org/Graphics/SVG/1.1/DTD/svg11.dtd">
<svg xmlns:xlink="http://www.w3.org/1999/xlink" width="633.6pt" height="374.4pt" viewBox="0 0 633.6 374.4" xmlns="http://www.w3.org/2000/svg" version="1.1">
 <metadata>
  <rdf:RDF xmlns:dc="http://purl.org/dc/elements/1.1/" xmlns:cc="http://creativecommons.org/ns#" xmlns:rdf="http://www.w3.org/1999/02/22-rdf-syntax-ns#">
   <cc:Work>
    <dc:type rdf:resource="http://purl.org/dc/dcmitype/StillImage"/>
    <dc:date>2026-05-15T23:45:31.842263</dc:date>
    <dc:format>image/svg+xml</dc:format>
    <dc:creator>
     <cc:Agent>
      <dc:title>Matplotlib v3.10.9, https://matplotlib.org/</dc:title>
     </cc:Agent>
    </dc:creator>
   </cc:Work>
  </rdf:RDF>
 </metadata>
 <defs>
  <style type="text/css">*{stroke-linejoin: round; stroke-linecap: butt}</style>
 </defs>
 <g id="figure_1">
  <g id="patch_1">
   <path d="M 0 374.4 
L 633.6 374.4 
L 633.6 0 
L 0 0 
z
" style="fill: #ffffff"/>
  </g>
  <g id="axes_1">
   <g id="patch_2">
    <path d="M 54.11 332.44 
L 622.8 332.44 
L 622.8 26.88 
L 54.11 26.88 
z
" style="fill: #ffffff"/>
   </g>
   <g id="matplotlib.axis_1">
    <g id="xtick_1">
     <g id="line2d_1">
      <defs>
       <path id="m2f4b618415" d="M 0 0 
L 0 3.5 
" style="stroke: #000000; stroke-width: 0.8"/>
      </defs>
      <g>
       <use xlink:href="#m2f4b618415" x="76.70803" y="332.44" style="stroke: #000000; stroke-width: 0.8"/>
      </g>
     </g>
     <g id="text_1">
      <!-- 0 -->
      <g transform="translate(73.52678 347.038437) scale(0.1 -0.1)">
       <defs>
        <path id="DejaVuSans-30" d="M 2034 4250 
Q 1547 4250 1301 3770 
Q 1056 3291 1056 2328 
Q 1056 1369 1301 889 
Q 1547 409 2034 409 
Q 2525 409 2770 889 
Q 3016 1369 3016 2328 
Q 3016 3291 2770 3770 
Q 2525 4250 2034 4250 
z
M 2034 4750 
Q 2819 4750 3233 4129 
Q 3647 3509 3647 2328 
Q 3647 1150 3233 529 
Q 2819 -91 2034 -91 
Q 1250 -91 836 529 
Q 422 1150 422 2328 
Q 422 3509 836 4129 
Q 1250 4750 2034 4750 
z
" transform="scale(0.015625)"/>
       </defs>
       <use xlink:href="#DejaVuSans-30"/>
      </g>
     </g>
    </g>
    <g id="xtick_2">
     <g id="line2d_2">
      <g>
       <use xlink:href="#m2f4b618415" x="141.738333" y="332.44" style="stroke: #000000; stroke-width: 0.8"/>
      </g>
     </g>
     <g id="text_2">
      <!-- 20 -->
      <g transform="translate(135.375833 347.038437) scale(0.1 -0.1)">
       <defs>
        <path id="DejaVuSans-32" d="M 1228 531 
L 3431 531 
L 3431 0 
L 469 0 
L 469 531 
Q 828 903 1448 1529 
Q 2069 2156 2228 2338 
Q 2531 2678 2651 2914 
Q 2772 3150 2772 3378 
Q 2772 3750 2511 3984 
Q 2250 4219 1831 4219 
Q 1534 4219 1204 4116 
Q 875 4013 500 3803 
L 500 4441 
Q 881 4594 1212 4672 
Q 1544 4750 1819 4750 
Q 2544 4750 2975 4387 
Q 3406 4025 3406 3419 
Q 3406 3131 3298 2873 
Q 3191 2616 2906 2266 
Q 2828 2175 2409 1742 
Q 1991 1309 1228 531 
z
" transform="scale(0.015625)"/>
       </defs>
       <use xlink:href="#DejaVuSans-32"/>
       <use xlink:href="#DejaVuSans-30" transform="translate(63.623047 0)"/>
      </g>
     </g>
    </g>
    <g id="xtick_3">
     <g id="line2d_3">
      <g>
       <use xlink:href="#m2f4b618415" x="206.768636" y="332.44" style="stroke: #000000; stroke-width: 0.8"/>
      </g>
     </g>
     <g id="text_3">
      <!-- 40 -->
      <g transform="translate(200.406136 347.038437) scale(0.1 -0.1)">
       <defs>
        <path id="DejaVuSans-34" d="M 2419 4116 
L 825 1625 
L 2419 1625 
L 2419 4116 
z
M 2253 4666 
L 3047 4666 
L 3047 1625 
L 3713 1625 
L 3713 1100 
L 3047 1100 
L 3047 0 
L 2419 0 
L 2419 1100 
L 313 1100 
L 313 1709 
L 2253 4666 
z
" transform="scale(0.015625)"/>
       </defs>
       <use xlink:href="#DejaVuSans-34"/>
       <use xlink:href="#DejaVuSans-30" transform="translate(63.623047 0)"/>
      </g>
     </g>
    </g>
    <g id="xtick_4">
     <g id="line2d_4">
      <g>
       <use xlink:href="#m2f4b618415" x="271.798939" y="332.44" style="stroke: #000000; stroke-width: 0.8"/>
      </g>
     </g>
     <g id="text_4">
      <!-- 60 -->
      <g transform="translate(265.436439 347.038437) scale(0.1 -0.1)">
       <defs>
        <path id="DejaVuSans-36" d="M 2113 2584 
Q 1688 2584 1439 2293 
Q 1191 2003 1191 1497 
Q 1191 994 1439 701 
Q 1688 409 2113 409 
Q 2538 409 2786 701 
Q 3034 994 3034 1497 
Q 3034 2003 2786 2293 
Q 2538 2584 2113 2584 
z
M 3366 4563 
L 3366 3988 
Q 3128 4100 2886 4159 
Q 2644 4219 2406 4219 
Q 1781 4219 1451 3797 
Q 1122 3375 1075 2522 
Q 1259 2794 1537 2939 
Q 1816 3084 2150 3084 
Q 2853 3084 3261 2657 
Q 3669 2231 3669 1497 
Q 3669 778 3244 343 
Q 2819 -91 2113 -91 
Q 1303 -91 875 529 
Q 447 1150 447 2328 
Q 447 3434 972 4092 
Q 1497 4750 2381 4750 
Q 2619 4750 2861 4703 
Q 3103 4656 3366 4563 
z
" transform="scale(0.015625)"/>
       </defs>
       <use xlink:href="#DejaVuSans-36"/>
       <use xlink:href="#DejaVuSans-30" transform="translate(63.623047 0)"/>
      </g>
     </g>
    </g>
    <g id="xtick_5">
     <g id="line2d_5">
      <g>
       <use xlink:href="#m2f4b618415" x="336.829242" y="332.44" style="stroke: #000000; stroke-width: 0.8"/>
      </g>
     </g>
     <g id="text_5">
      <!-- 80 -->
      <g transform="translate(330.466742 347.038437) scale(0.1 -0.1)">
       <defs>
        <path id="DejaVuSans-38" d="M 2034 2216 
Q 1584 2216 1326 1975 
Q 1069 1734 1069 1313 
Q 1069 891 1326 650 
Q 1584 409 2034 409 
Q 2484 409 2743 651 
Q 3003 894 3003 1313 
Q 3003 1734 2745 1975 
Q 2488 2216 2034 2216 
z
M 1403 2484 
Q 997 2584 770 2862 
Q 544 3141 544 3541 
Q 544 4100 942 4425 
Q 1341 4750 2034 4750 
Q 2731 4750 3128 4425 
Q 3525 4100 3525 3541 
Q 3525 3141 3298 2862 
Q 3072 2584 2669 2484 
Q 3125 2378 3379 2068 
Q 3634 1759 3634 1313 
Q 3634 634 3220 271 
Q 2806 -91 2034 -91 
Q 1263 -91 848 271 
Q 434 634 434 1313 
Q 434 1759 690 2068 
Q 947 2378 1403 2484 
z
M 1172 3481 
Q 1172 3119 1398 2916 
Q 1625 2713 2034 2713 
Q 2441 2713 2670 2916 
Q 2900 3119 2900 3481 
Q 2900 3844 2670 4047 
Q 2441 4250 2034 4250 
Q 1625 4250 1398 4047 
Q 1172 3844 1172 3481 
z
" transform="scale(0.015625)"/>
       </defs>
       <use xlink:href="#DejaVuSans-38"/>
       <use xlink:href="#DejaVuSans-30" transform="translate(63.623047 0)"/>
      </g>
     </g>
    </g>
    <g id="xtick_6">
     <g id="line2d_6">
      <g>
       <use xlink:href="#m2f4b618415" x="401.859545" y="332.44" style="stroke: #000000; stroke-width: 0.8"/>
      </g>
     </g>
     <g id="text_6">
      <!-- 100 -->
      <g transform="translate(392.315795 347.038437) scale(0.1 -0.1)">
       <defs>
        <path id="DejaVuSans-31" d="M 794 531 
L 1825 531 
L 1825 4091 
L 703 3866 
L 703 4441 
L 1819 4666 
L 2450 4666 
L 2450 531 
L 3481 531 
L 3481 0 
L 794 0 
L 794 531 
z
" transform="scale(0.015625)"/>
       </defs>
       <use xlink:href="#DejaVuSans-31"/>
       <use xlink:href="#DejaVuSans-30" transform="translate(63.623047 0)"/>
       <use xlink:href="#DejaVuSans-30" transform="translate(127.246094 0)"/>
      </g>
     </g>
    </g>
    <g id="xtick_7">
     <g id="line2d_7">
      <g>
       <use xlink:href="#m2f4b618415" x="466.889848" y="332.44" style="stroke: #000000; stroke-width: 0.8"/>
      </g>
     </g>
     <g id="text_7">
      <!-- 120 -->
      <g transform="translate(457.346098 347.038437) scale(0.1 -0.1)">
       <use xlink:href="#DejaVuSans-31"/>
       <use xlink:href="#DejaVuSans-32" transform="translate(63.623047 0)"/>
       <use xlink:href="#DejaVuSans-30" transform="translate(127.246094 0)"/>
      </g>
     </g>
    </g>
    <g id="xtick_8">
     <g id="line2d_8">
      <g>
       <use xlink:href="#m2f4b618415" x="531.920152" y="332.44" style="stroke: #000000; stroke-width: 0.8"/>
      </g>
     </g>
     <g id="text_8">
      <!-- 140 -->
      <g transform="translate(522.376402 347.038437) scale(0.1 -0.1)">
       <use xlink:href="#DejaVuSans-31"/>
       <use xlink:href="#DejaVuSans-34" transform="translate(63.623047 0)"/>
       <use xlink:href="#DejaVuSans-30" transform="translate(127.246094 0)"/>
      </g>
     </g>
    </g>
    <g id="xtick_9">
     <g id="line2d_9">
      <g>
       <use xlink:href="#m2f4b618415" x="596.950455" y="332.44" style="stroke: #000000; stroke-width: 0.8"/>
      </g>
     </g>
     <g id="text_9">
      <!-- 160 -->
      <g transform="translate(587.406705 347.038437) scale(0.1 -0.1)">
       <use xlink:href="#DejaVuSans-31"/>
       <use xlink:href="#DejaVuSans-36" transform="translate(63.623047 0)"/>
       <use xlink:href="#DejaVuSans-30" transform="translate(127.246094 0)"/>
      </g>
     </g>
    </g>
    <g id="text_10">
     <!-- Round t -->
     <g transform="translate(319.085469 360.716563) scale(0.1 -0.1)">
      <defs>
       <path id="DejaVuSans-52" d="M 2841 2188 
Q 3044 2119 3236 1894 
Q 3428 1669 3622 1275 
L 4263 0 
L 3584 0 
L 2988 1197 
Q 2756 1666 2539 1819 
Q 2322 1972 1947 1972 
L 1259 1972 
L 1259 0 
L 628 0 
L 628 4666 
L 2053 4666 
Q 2853 4666 3247 4331 
Q 3641 3997 3641 3322 
Q 3641 2881 3436 2590 
Q 3231 2300 2841 2188 
z
M 1259 4147 
L 1259 2491 
L 2053 2491 
Q 2509 2491 2742 2702 
Q 2975 2913 2975 3322 
Q 2975 3731 2742 3939 
Q 2509 4147 2053 4147 
L 1259 4147 
z
" transform="scale(0.015625)"/>
       <path id="DejaVuSans-6f" d="M 1959 3097 
Q 1497 3097 1228 2736 
Q 959 2375 959 1747 
Q 959 1119 1226 758 
Q 1494 397 1959 397 
Q 2419 397 2687 759 
Q 2956 1122 2956 1747 
Q 2956 2369 2687 2733 
Q 2419 3097 1959 3097 
z
M 1959 3584 
Q 2709 3584 3137 3096 
Q 3566 2609 3566 1747 
Q 3566 888 3137 398 
Q 2709 -91 1959 -91 
Q 1206 -91 779 398 
Q 353 888 353 1747 
Q 353 2609 779 3096 
Q 1206 3584 1959 3584 
z
" transform="scale(0.015625)"/>
       <path id="DejaVuSans-75" d="M 544 1381 
L 544 3500 
L 1119 3500 
L 1119 1403 
Q 1119 906 1312 657 
Q 1506 409 1894 409 
Q 2359 409 2629 706 
Q 2900 1003 2900 1516 
L 2900 3500 
L 3475 3500 
L 3475 0 
L 2900 0 
L 2900 538 
Q 2691 219 2414 64 
Q 2138 -91 1772 -91 
Q 1169 -91 856 284 
Q 544 659 544 1381 
z
M 1991 3584 
L 1991 3584 
z
" transform="scale(0.015625)"/>
       <path id="DejaVuSans-6e" d="M 3513 2113 
L 3513 0 
L 2938 0 
L 2938 2094 
Q 2938 2591 2744 2837 
Q 2550 3084 2163 3084 
Q 1697 3084 1428 2787 
Q 1159 2491 1159 1978 
L 1159 0 
L 581 0 
L 581 3500 
L 1159 3500 
L 1159 2956 
Q 1366 3272 1645 3428 
Q 1925 3584 2291 3584 
Q 2894 3584 3203 3211 
Q 3513 2838 3513 2113 
z
" transform="scale(0.015625)"/>
       <path id="DejaVuSans-64" d="M 2906 2969 
L 2906 4863 
L 3481 4863 
L 3481 0 
L 2906 0 
L 2906 525 
Q 2725 213 2448 61 
Q 2172 -91 1784 -91 
Q 1150 -91 751 415 
Q 353 922 353 1747 
Q 353 2572 751 3078 
Q 1150 3584 1784 3584 
Q 2172 3584 2448 3432 
Q 2725 3281 2906 2969 
z
M 947 1747 
Q 947 1113 1208 752 
Q 1469 391 1925 391 
Q 2381 391 2643 752 
Q 2906 1113 2906 1747 
Q 2906 2381 2643 2742 
Q 2381 3103 1925 3103 
Q 1469 3103 1208 2742 
Q 947 2381 947 1747 
z
" transform="scale(0.015625)"/>
       <path id="DejaVuSans-20" transform="scale(0.015625)"/>
       <path id="DejaVuSans-74" d="M 1172 4494 
L 1172 3500 
L 2356 3500 
L 2356 3053 
L 1172 3053 
L 1172 1153 
Q 1172 725 1289 603 
Q 1406 481 1766 481 
L 2356 481 
L 2356 0 
L 1766 0 
Q 1100 0 847 248 
Q 594 497 594 1153 
L 594 3053 
L 172 3053 
L 172 3500 
L 594 3500 
L 594 4494 
L 1172 4494 
z
" transform="scale(0.015625)"/>
      </defs>
      <use xlink:href="#DejaVuSans-52"/>
      <use xlink:href="#DejaVuSans-6f" transform="translate(64.982422 0)"/>
      <use xlink:href="#DejaVuSans-75" transform="translate(126.164062 0)"/>
      <use xlink:href="#DejaVuSans-6e" transform="translate(189.542969 0)"/>
      <use xlink:href="#DejaVuSans-64" transform="translate(252.921875 0)"/>
      <use xlink:href="#DejaVuSans-20" transform="translate(316.398438 0)"/>
      <use xlink:href="#DejaVuSans-74" transform="translate(348.185547 0)"/>
     </g>
    </g>
   </g>
   <g id="matplotlib.axis_2">
    <g id="ytick_1">
     <g id="line2d_10">
      <defs>
       <path id="md634eff384" d="M 0 0 
L -3.5 0 
" style="stroke: #000000; stroke-width: 0.8"/>
      </defs>
      <g>
       <use xlink:href="#md634eff384" x="54.11" y="310.177082" style="stroke: #000000; stroke-width: 0.8"/>
      </g>
     </g>
     <g id="text_11">
      <!-- 0.06 -->
      <g transform="translate(24.844375 313.976301) scale(0.1 -0.1)">
       <defs>
        <path id="DejaVuSans-2e" d="M 684 794 
L 1344 794 
L 1344 0 
L 684 0 
L 684 794 
z
" transform="scale(0.015625)"/>
       </defs>
       <use xlink:href="#DejaVuSans-30"/>
       <use xlink:href="#DejaVuSans-2e" transform="translate(63.623047 0)"/>
       <use xlink:href="#DejaVuSans-30" transform="translate(95.410156 0)"/>
       <use xlink:href="#DejaVuSans-36" transform="translate(159.033203 0)"/>
      </g>
     </g>
    </g>
    <g id="ytick_2">
     <g id="line2d_11">
      <g>
       <use xlink:href="#md634eff384" x="54.11" y="257.013969" style="stroke: #000000; stroke-width: 0.8"/>
      </g>
     </g>
     <g id="text_12">
      <!-- 0.07 -->
      <g transform="translate(24.844375 260.813188) scale(0.1 -0.1)">
       <defs>
        <path id="DejaVuSans-37" d="M 525 4666 
L 3525 4666 
L 3525 4397 
L 1831 0 
L 1172 0 
L 2766 4134 
L 525 4134 
L 525 4666 
z
" transform="scale(0.015625)"/>
       </defs>
       <use xlink:href="#DejaVuSans-30"/>
       <use xlink:href="#DejaVuSans-2e" transform="translate(63.623047 0)"/>
       <use xlink:href="#DejaVuSans-30" transform="translate(95.410156 0)"/>
       <use xlink:href="#DejaVuSans-37" transform="translate(159.033203 0)"/>
      </g>
     </g>
    </g>
    <g id="ytick_3">
     <g id="line2d_12">
      <g>
       <use xlink:href="#md634eff384" x="54.11" y="203.850857" style="stroke: #000000; stroke-width: 0.8"/>
      </g>
     </g>
     <g id="text_13">
      <!-- 0.08 -->
      <g transform="translate(24.844375 207.650075) scale(0.1 -0.1)">
       <use xlink:href="#DejaVuSans-30"/>
       <use xlink:href="#DejaVuSans-2e" transform="translate(63.623047 0)"/>
       <use xlink:href="#DejaVuSans-30" transform="translate(95.410156 0)"/>
       <use xlink:href="#DejaVuSans-38" transform="translate(159.033203 0)"/>
      </g>
     </g>
    </g>
    <g id="ytick_4">
     <g id="line2d_13">
      <g>
       <use xlink:href="#md634eff384" x="54.11" y="150.687744" style="stroke: #000000; stroke-width: 0.8"/>
      </g>
     </g>
     <g id="text_14">
      <!-- 0.09 -->
      <g transform="translate(24.844375 154.486963) scale(0.1 -0.1)">
       <defs>
        <path id="DejaVuSans-39" d="M 703 97 
L 703 672 
Q 941 559 1184 500 
Q 1428 441 1663 441 
Q 2288 441 2617 861 
Q 2947 1281 2994 2138 
Q 2813 1869 2534 1725 
Q 2256 1581 1919 1581 
Q 1219 1581 811 2004 
Q 403 2428 403 3163 
Q 403 3881 828 4315 
Q 1253 4750 1959 4750 
Q 2769 4750 3195 4129 
Q 3622 3509 3622 2328 
Q 3622 1225 3098 567 
Q 2575 -91 1691 -91 
Q 1453 -91 1209 -44 
Q 966 3 703 97 
z
M 1959 2075 
Q 2384 2075 2632 2365 
Q 2881 2656 2881 3163 
Q 2881 3666 2632 3958 
Q 2384 4250 1959 4250 
Q 1534 4250 1286 3958 
Q 1038 3666 1038 3163 
Q 1038 2656 1286 2365 
Q 1534 2075 1959 2075 
z
" transform="scale(0.015625)"/>
       </defs>
       <use xlink:href="#DejaVuSans-30"/>
       <use xlink:href="#DejaVuSans-2e" transform="translate(63.623047 0)"/>
       <use xlink:href="#DejaVuSans-30" transform="translate(95.410156 0)"/>
       <use xlink:href="#DejaVuSans-39" transform="translate(159.033203 0)"/>
      </g>
     </g>
    </g>
    <g id="ytick_5">
     <g id="line2d_14">
      <g>
       <use xlink:href="#md634eff384" x="54.11" y="97.524631" style="stroke: #000000; stroke-width: 0.8"/>
      </g>
     </g>
     <g id="text_15">
      <!-- 0.10 -->
      <g transform="translate(24.844375 101.32385) scale(0.1 -0.1)">
       <use xlink:href="#DejaVuSans-30"/>
       <use xlink:href="#DejaVuSans-2e" transform="translate(63.623047 0)"/>
       <use xlink:href="#DejaVuSans-31" transform="translate(95.410156 0)"/>
       <use xlink:href="#DejaVuSans-30" transform="translate(159.033203 0)"/>
      </g>
     </g>
    </g>
    <g id="ytick_6">
     <g id="line2d_15">
      <g>
       <use xlink:href="#md634eff384" x="54.11" y="44.361519" style="stroke: #000000; stroke-width: 0.8"/>
      </g>
     </g>
     <g id="text_16">
      <!-- 0.11 -->
      <g transform="translate(24.844375 48.160737) scale(0.1 -0.1)">
       <use xlink:href="#DejaVuSans-30"/>
       <use xlink:href="#DejaVuSans-2e" transform="translate(63.623047 0)"/>
       <use xlink:href="#DejaVuSans-31" transform="translate(95.410156 0)"/>
       <use xlink:href="#DejaVuSans-31" transform="translate(159.033203 0)"/>
      </g>
     </g>
    </g>
    <g id="text_17">
     <!-- Rolling mean throughput (window=12) -->
     <g transform="translate(18.764687 276.795156) rotate(-90) scale(0.1 -0.1)">
      <defs>
       <path id="DejaVuSans-6c" d="M 603 4863 
L 1178 4863 
L 1178 0 
L 603 0 
L 603 4863 
z
" transform="scale(0.015625)"/>
       <path id="DejaVuSans-69" d="M 603 3500 
L 1178 3500 
L 1178 0 
L 603 0 
L 603 3500 
z
M 603 4863 
L 1178 4863 
L 1178 4134 
L 603 4134 
L 603 4863 
z
" transform="scale(0.015625)"/>
       <path id="DejaVuSans-67" d="M 2906 1791 
Q 2906 2416 2648 2759 
Q 2391 3103 1925 3103 
Q 1463 3103 1205 2759 
Q 947 2416 947 1791 
Q 947 1169 1205 825 
Q 1463 481 1925 481 
Q 2391 481 2648 825 
Q 2906 1169 2906 1791 
z
M 3481 434 
Q 3481 -459 3084 -895 
Q 2688 -1331 1869 -1331 
Q 1566 -1331 1297 -1286 
Q 1028 -1241 775 -1147 
L 775 -588 
Q 1028 -725 1275 -790 
Q 1522 -856 1778 -856 
Q 2344 -856 2625 -561 
Q 2906 -266 2906 331 
L 2906 616 
Q 2728 306 2450 153 
Q 2172 0 1784 0 
Q 1141 0 747 490 
Q 353 981 353 1791 
Q 353 2603 747 3093 
Q 1141 3584 1784 3584 
Q 2172 3584 2450 3431 
Q 2728 3278 2906 2969 
L 2906 3500 
L 3481 3500 
L 3481 434 
z
" transform="scale(0.015625)"/>
       <path id="DejaVuSans-6d" d="M 3328 2828 
Q 3544 3216 3844 3400 
Q 4144 3584 4550 3584 
Q 5097 3584 5394 3201 
Q 5691 2819 5691 2113 
L 5691 0 
L 5113 0 
L 5113 2094 
Q 5113 2597 4934 2840 
Q 4756 3084 4391 3084 
Q 3944 3084 3684 2787 
Q 3425 2491 3425 1978 
L 3425 0 
L 2847 0 
L 2847 2094 
Q 2847 2600 2669 2842 
Q 2491 3084 2119 3084 
Q 1678 3084 1418 2786 
Q 1159 2488 1159 1978 
L 1159 0 
L 581 0 
L 581 3500 
L 1159 3500 
L 1159 2956 
Q 1356 3278 1631 3431 
Q 1906 3584 2284 3584 
Q 2666 3584 2933 3390 
Q 3200 3197 3328 2828 
z
" transform="scale(0.015625)"/>
       <path id="DejaVuSans-65" d="M 3597 1894 
L 3597 1613 
L 953 1613 
Q 991 1019 1311 708 
Q 1631 397 2203 397 
Q 2534 397 2845 478 
Q 3156 559 3463 722 
L 3463 178 
Q 3153 47 2828 -22 
Q 2503 -91 2169 -91 
Q 1331 -91 842 396 
Q 353 884 353 1716 
Q 353 2575 817 3079 
Q 1281 3584 2069 3584 
Q 2775 3584 3186 3129 
Q 3597 2675 3597 1894 
z
M 3022 2063 
Q 3016 2534 2758 2815 
Q 2500 3097 2075 3097 
Q 1594 3097 1305 2825 
Q 1016 2553 972 2059 
L 3022 2063 
z
" transform="scale(0.015625)"/>
       <path id="DejaVuSans-61" d="M 2194 1759 
Q 1497 1759 1228 1600 
Q 959 1441 959 1056 
Q 959 750 1161 570 
Q 1363 391 1709 391 
Q 2188 391 2477 730 
Q 2766 1069 2766 1631 
L 2766 1759 
L 2194 1759 
z
M 3341 1997 
L 3341 0 
L 2766 0 
L 2766 531 
Q 2569 213 2275 61 
Q 1981 -91 1556 -91 
Q 1019 -91 701 211 
Q 384 513 384 1019 
Q 384 1609 779 1909 
Q 1175 2209 1959 2209 
L 2766 2209 
L 2766 2266 
Q 2766 2663 2505 2880 
Q 2244 3097 1772 3097 
Q 1472 3097 1187 3025 
Q 903 2953 641 2809 
L 641 3341 
Q 956 3463 1253 3523 
Q 1550 3584 1831 3584 
Q 2591 3584 2966 3190 
Q 3341 2797 3341 1997 
z
" transform="scale(0.015625)"/>
       <path id="DejaVuSans-68" d="M 3513 2113 
L 3513 0 
L 2938 0 
L 2938 2094 
Q 2938 2591 2744 2837 
Q 2550 3084 2163 3084 
Q 1697 3084 1428 2787 
Q 1159 2491 1159 1978 
L 1159 0 
L 581 0 
L 581 4863 
L 1159 4863 
L 1159 2956 
Q 1366 3272 1645 3428 
Q 1925 3584 2291 3584 
Q 2894 3584 3203 3211 
Q 3513 2838 3513 2113 
z
" transform="scale(0.015625)"/>
       <path id="DejaVuSans-72" d="M 2631 2963 
Q 2534 3019 2420 3045 
Q 2306 3072 2169 3072 
Q 1681 3072 1420 2755 
Q 1159 2438 1159 1844 
L 1159 0 
L 581 0 
L 581 3500 
L 1159 3500 
L 1159 2956 
Q 1341 3275 1631 3429 
Q 1922 3584 2338 3584 
Q 2397 3584 2469 3576 
Q 2541 3569 2628 3553 
L 2631 2963 
z
" transform="scale(0.015625)"/>
       <path id="DejaVuSans-70" d="M 1159 525 
L 1159 -1331 
L 581 -1331 
L 581 3500 
L 1159 3500 
L 1159 2969 
Q 1341 3281 1617 3432 
Q 1894 3584 2278 3584 
Q 2916 3584 3314 3078 
Q 3713 2572 3713 1747 
Q 3713 922 3314 415 
Q 2916 -91 2278 -91 
Q 1894 -91 1617 61 
Q 1341 213 1159 525 
z
M 3116 1747 
Q 3116 2381 2855 2742 
Q 2594 3103 2138 3103 
Q 1681 3103 1420 2742 
Q 1159 2381 1159 1747 
Q 1159 1113 1420 752 
Q 1681 391 2138 391 
Q 2594 391 2855 752 
Q 3116 1113 3116 1747 
z
" transform="scale(0.015625)"/>
       <path id="DejaVuSans-28" d="M 1984 4856 
Q 1566 4138 1362 3434 
Q 1159 2731 1159 2009 
Q 1159 1288 1364 580 
Q 1569 -128 1984 -844 
L 1484 -844 
Q 1016 -109 783 600 
Q 550 1309 550 2009 
Q 550 2706 781 3412 
Q 1013 4119 1484 4856 
L 1984 4856 
z
" transform="scale(0.015625)"/>
       <path id="DejaVuSans-77" d="M 269 3500 
L 844 3500 
L 1563 769 
L 2278 3500 
L 2956 3500 
L 3675 769 
L 4391 3500 
L 4966 3500 
L 4050 0 
L 3372 0 
L 2619 2869 
L 1863 0 
L 1184 0 
L 269 3500 
z
" transform="scale(0.015625)"/>
       <path id="DejaVuSans-3d" d="M 678 2906 
L 4684 2906 
L 4684 2381 
L 678 2381 
L 678 2906 
z
M 678 1631 
L 4684 1631 
L 4684 1100 
L 678 1100 
L 678 1631 
z
" transform="scale(0.015625)"/>
       <path id="DejaVuSans-29" d="M 513 4856 
L 1013 4856 
Q 1481 4119 1714 3412 
Q 1947 2706 1947 2009 
Q 1947 1309 1714 600 
Q 1481 -109 1013 -844 
L 513 -844 
Q 928 -128 1133 580 
Q 1338 1288 1338 2009 
Q 1338 2731 1133 3434 
Q 928 4138 513 4856 
z
" transform="scale(0.015625)"/>
      </defs>
      <use xlink:href="#DejaVuSans-52"/>
      <use xlink:href="#DejaVuSans-6f" transform="translate(64.982422 0)"/>
      <use xlink:href="#DejaVuSans-6c" transform="translate(126.164062 0)"/>
      <use xlink:href="#DejaVuSans-6c" transform="translate(153.947266 0)"/>
      <use xlink:href="#DejaVuSans-69" transform="translate(181.730469 0)"/>
      <use xlink:href="#DejaVuSans-6e" transform="translate(209.513672 0)"/>
      <use xlink:href="#DejaVuSans-67" transform="translate(272.892578 0)"/>
      <use xlink:href="#DejaVuSans-20" transform="translate(336.369141 0)"/>
      <use xlink:href="#DejaVuSans-6d" transform="translate(368.15625 0)"/>
      <use xlink:href="#DejaVuSans-65" transform="translate(465.568359 0)"/>
      <use xlink:href="#DejaVuSans-61" transform="translate(527.091797 0)"/>
      <use xlink:href="#DejaVuSans-6e" transform="translate(588.371094 0)"/>
      <use xlink:href="#DejaVuSans-20" transform="translate(651.75 0)"/>
      <use xlink:href="#DejaVuSans-74" transform="translate(683.537109 0)"/>
      <use xlink:href="#DejaVuSans-68" transform="translate(722.746094 0)"/>
      <use xlink:href="#DejaVuSans-72" transform="translate(786.125 0)"/>
      <use xlink:href="#DejaVuSans-6f" transform="translate(824.988281 0)"/>
      <use xlink:href="#DejaVuSans-75" transform="translate(886.169922 0)"/>
      <use xlink:href="#DejaVuSans-67" transform="translate(949.548828 0)"/>
      <use xlink:href="#DejaVuSans-68" transform="translate(1013.025391 0)"/>
      <use xlink:href="#DejaVuSans-70" transform="translate(1076.404297 0)"/>
      <use xlink:href="#DejaVuSans-75" transform="translate(1139.880859 0)"/>
      <use xlink:href="#DejaVuSans-74" transform="translate(1203.259766 0)"/>
      <use xlink:href="#DejaVuSans-20" transform="translate(1242.46875 0)"/>
      <use xlink:href="#DejaVuSans-28" transform="translate(1274.255859 0)"/>
      <use xlink:href="#DejaVuSans-77" transform="translate(1313.269531 0)"/>
      <use xlink:href="#DejaVuSans-69" transform="translate(1395.056641 0)"/>
      <use xlink:href="#DejaVuSans-6e" transform="translate(1422.839844 0)"/>
      <use xlink:href="#DejaVuSans-64" transform="translate(1486.21875 0)"/>
      <use xlink:href="#DejaVuSans-6f" transform="translate(1549.695312 0)"/>
      <use xlink:href="#DejaVuSans-77" transform="translate(1610.876953 0)"/>
      <use xlink:href="#DejaVuSans-3d" transform="translate(1692.664062 0)"/>
      <use xlink:href="#DejaVuSans-31" transform="translate(1776.453125 0)"/>
      <use xlink:href="#DejaVuSans-32" transform="translate(1840.076172 0)"/>
      <use xlink:href="#DejaVuSans-29" transform="translate(1903.699219 0)"/>
     </g>
    </g>
   </g>
   <g id="line2d_16">
    <path d="M 79.959545 299.106796 
L 83.211061 283.256392 
L 86.462576 280.965806 
L 89.714091 280.227494 
L 92.965606 273.248785 
L 96.217121 272.099856 
L 99.468636 274.141284 
L 102.720152 284.489477 
L 105.971667 287.513165 
L 109.223182 298.051399 
L 112.474697 301.362166 
L 115.726212 300.076888 
L 118.977727 298.039113 
L 122.229242 296.702244 
L 125.480758 293.966114 
L 128.732273 299.310162 
L 131.983788 298.928742 
L 135.235303 305.875755 
L 138.486818 305.966804 
L 141.738333 307.015734 
L 144.989848 302.536965 
L 148.241364 293.181642 
L 151.492879 286.470834 
L 154.744394 282.211791 
L 157.995909 287.228598 
L 161.247424 292.486229 
L 164.498939 298.579767 
L 167.750455 300.283684 
L 171.00197 309.523785 
L 174.253485 311.158269 
L 180.756515 298.679835 
L 184.00803 301.739657 
L 187.259545 299.552481 
L 190.511061 301.725722 
L 193.762576 306.681588 
L 197.014091 305.637436 
L 200.265606 305.243856 
L 203.517121 307.398244 
L 206.768636 299.436531 
L 210.020152 294.429383 
L 213.271667 290.360724 
L 216.523182 304.320617 
L 219.774697 307.343279 
L 223.026212 308.240403 
L 226.277727 311.127292 
L 229.529242 313.148535 
L 232.780758 311.847082 
L 236.032273 308.531679 
L 239.283788 306.970128 
L 242.535303 296.611692 
L 245.786818 297.470265 
L 249.038333 297.135323 
L 252.289848 298.231788 
L 255.541364 294.884388 
L 258.792879 300.652291 
L 262.044394 295.998844 
L 265.295909 294.867612 
L 268.547424 292.977425 
L 271.798939 298.341947 
L 275.050455 296.069533 
L 278.30197 295.064201 
L 281.553485 298.354519 
L 284.805 305.561608 
L 288.056515 309.635953 
L 291.30803 305.972264 
L 294.559545 301.482449 
L 297.811061 291.189946 
L 301.062576 297.688408 
L 304.314091 297.58636 
L 307.565606 297.643703 
L 310.817121 294.711309 
L 314.068636 294.973553 
L 317.320152 293.037102 
L 320.571667 296.575052 
L 323.823182 284.912223 
L 327.074697 287.063227 
L 330.326212 285.44938 
L 333.577727 294.114038 
L 336.829242 299.826085 
L 340.080758 291.11425 
L 343.332273 298.947058 
L 346.583788 298.01988 
L 349.835303 303.152667 
L 353.086818 306.077633 
L 356.338333 307.673985 
L 359.589848 307.26539 
L 362.841364 313.561133 
L 366.092879 305.437221 
L 369.344394 313.646209 
L 372.595909 304.581565 
L 375.847424 301.146551 
L 379.098939 314.622792 
L 382.350455 311.681241 
L 385.60197 316.125408 
L 388.853485 315.081993 
L 392.105 312.669619 
L 395.356515 314.150561 
L 398.60803 312.974079 
L 401.859545 310.592145 
L 405.111061 309.80976 
L 408.362576 299.617946 
L 411.614091 307.514282 
L 414.865606 306.974676 
L 418.117121 297.787507 
L 421.368636 295.883223 
L 424.620152 291.25121 
L 427.871667 293.072171 
L 431.123182 298.603223 
L 434.374697 291.467466 
L 437.626212 290.17183 
L 440.877727 287.364261 
L 444.129242 283.455231 
L 447.380758 290.24456 
L 450.632273 276.844047 
L 453.883788 277.576493 
L 457.135303 285.435075 
L 460.386818 281.315339 
L 463.638333 280.140446 
L 466.889848 281.454142 
L 470.141364 283.673052 
L 473.392879 286.449266 
L 476.644394 288.480326 
L 479.895909 294.242021 
L 483.147424 299.373146 
L 486.398939 296.868607 
L 489.650455 307.384084 
L 492.90197 304.55715 
L 496.153485 299.586756 
L 499.405 307.714146 
L 502.656515 309.467486 
L 505.90803 299.828627 
L 509.159545 293.656146 
L 512.411061 299.321885 
L 515.662576 297.311459 
L 518.914091 301.208956 
L 522.165606 304.078436 
L 525.417121 313.351263 
L 528.668636 311.114489 
L 531.920152 313.072017 
L 535.171667 308.85655 
L 538.423182 312.714717 
L 541.674697 312.207045 
L 544.926212 316.831935 
L 548.177727 313.100537 
L 551.429242 308.271017 
L 554.680758 309.256465 
L 557.932273 304.083511 
L 561.183788 312.607855 
L 564.435303 305.32744 
L 567.686818 301.507767 
L 570.938333 296.652885 
L 574.189848 299.39796 
L 577.441364 288.447579 
L 580.692879 296.943092 
L 583.944394 295.738293 
L 587.195909 305.518685 
L 590.447424 318.550909 
L 593.698939 317.565456 
L 596.950455 314.910469 
L 596.950455 314.910469 
" clip-path="url(#pd791c4cd0a)" style="fill: none; stroke: #1f77b4; stroke-width: 1.5; stroke-linecap: square"/>
   </g>
   <g id="line2d_17">
    <path d="M 79.959545 249.921562 
L 83.211061 264.921489 
L 86.462576 267.403838 
L 89.714091 271.709913 
L 92.965606 270.456606 
L 96.217121 267.373601 
L 99.468636 266.499998 
L 102.720152 265.200501 
L 105.971667 266.99899 
L 109.223182 265.825281 
L 112.474697 261.606018 
L 115.726212 262.428526 
L 118.977727 262.857684 
L 122.229242 261.886092 
L 125.480758 259.401428 
L 128.732273 257.982318 
L 131.983788 257.527244 
L 135.235303 257.280404 
L 138.486818 255.796899 
L 141.738333 253.11502 
L 144.989848 249.267877 
L 151.492879 257.571712 
L 154.744394 254.82757 
L 161.247424 259.295686 
L 164.498939 257.745595 
L 167.750455 255.571694 
L 171.00197 256.250939 
L 174.253485 255.264423 
L 177.505 258.267287 
L 180.756515 260.758542 
L 184.00803 260.707114 
L 187.259545 257.545714 
L 190.511061 256.91791 
L 193.762576 260.158091 
L 197.014091 256.341004 
L 200.265606 254.791577 
L 203.517121 257.244457 
L 206.768636 258.085664 
L 210.020152 257.294829 
L 213.271667 260.836748 
L 216.523182 258.990474 
L 219.774697 258.780776 
L 223.026212 259.905477 
L 226.277727 254.457916 
L 229.529242 257.334825 
L 232.780758 257.618425 
L 236.032273 260.356163 
L 239.283788 257.358714 
L 242.535303 257.316821 
L 249.038333 259.765737 
L 252.289848 261.364512 
L 255.541364 263.578073 
L 258.792879 262.638928 
L 262.044394 261.285914 
L 265.295909 268.697504 
L 268.547424 265.982102 
L 271.798939 266.197845 
L 275.050455 260.82399 
L 278.30197 265.24683 
L 281.553485 267.522184 
L 284.805 270.336788 
L 288.056515 264.349777 
L 291.30803 263.248359 
L 294.559545 260.912718 
L 297.811061 261.067154 
L 301.062576 263.269583 
L 304.314091 257.715751 
L 307.565606 257.155421 
L 310.817121 257.252739 
L 314.068636 260.980261 
L 317.320152 258.364418 
L 320.571667 254.693272 
L 323.823182 246.161192 
L 327.074697 252.711331 
L 330.326212 249.926289 
L 333.577727 248.213189 
L 336.829242 251.782299 
L 340.080758 251.587657 
L 343.332273 258.630606 
L 346.583788 258.548673 
L 349.835303 256.404215 
L 353.086818 255.16705 
L 356.338333 254.573933 
L 359.589848 255.177498 
L 362.841364 258.536285 
L 366.092879 257.72631 
L 369.344394 258.609725 
L 372.595909 260.209186 
L 375.847424 256.500478 
L 379.098939 254.546354 
L 382.350455 249.935775 
L 385.60197 250.018745 
L 388.853485 248.793113 
L 392.105 249.905673 
L 398.60803 255.375399 
L 401.859545 261.433864 
L 405.111061 259.684959 
L 408.362576 261.348716 
L 411.614091 259.538535 
L 414.865606 262.47082 
L 418.117121 261.01984 
L 421.368636 264.688655 
L 424.620152 265.72954 
L 427.871667 269.966903 
L 431.123182 267.905917 
L 434.374697 261.678528 
L 437.626212 258.024386 
L 440.877727 251.754976 
L 444.129242 249.066192 
L 447.380758 245.923158 
L 450.632273 244.71331 
L 453.883788 242.302628 
L 457.135303 248.68 
L 460.386818 245.953823 
L 463.638333 245.551409 
L 466.889848 240.948764 
L 470.141364 240.788377 
L 476.644394 247.378913 
L 483.147424 252.470483 
L 486.398939 252.21428 
L 489.650455 256.077589 
L 492.90197 256.851756 
L 496.153485 254.540616 
L 499.405 254.817169 
L 502.656515 254.238758 
L 505.90803 254.07818 
L 509.159545 257.677471 
L 512.411061 257.994451 
L 515.662576 255.66028 
L 518.914091 257.668978 
L 522.165606 259.29564 
L 525.417121 258.634966 
L 528.668636 262.20073 
L 531.920152 261.512893 
L 535.171667 260.098375 
L 538.423182 258.845346 
L 541.674697 259.980116 
L 544.926212 260.305323 
L 548.177727 258.491713 
L 554.680758 262.629536 
L 557.932273 262.28208 
L 561.183788 264.421604 
L 564.435303 268.025539 
L 567.686818 267.284567 
L 570.938333 265.737914 
L 574.189848 267.790599 
L 577.441364 267.045158 
L 580.692879 268.324177 
L 583.944394 269.792744 
L 587.195909 272.445228 
L 590.447424 273.470684 
L 593.698939 272.89826 
L 596.950455 270.7272 
L 596.950455 270.7272 
" clip-path="url(#pd791c4cd0a)" style="fill: none; stroke: #ff7f0e; stroke-width: 1.5; stroke-linecap: square"/>
   </g>
   <g id="line2d_18">
    <path d="M 79.959545 200.991587 
L 83.211061 190.664531 
L 86.462576 166.605846 
L 89.714091 159.33195 
L 92.965606 183.259666 
L 96.217121 192.614884 
L 99.468636 204.674321 
L 102.720152 191.641076 
L 105.971667 181.655042 
L 109.223182 170.576987 
L 112.474697 159.928567 
L 115.726212 167.034869 
L 118.977727 168.319517 
L 122.229242 170.952663 
L 125.480758 178.856758 
L 128.732273 174.027212 
L 131.983788 170.618511 
L 135.235303 155.775261 
L 138.486818 153.674119 
L 141.738333 150.689753 
L 144.989848 155.741951 
L 148.241364 173.452677 
L 151.492879 196.196723 
L 154.744394 192.22295 
L 157.995909 182.137258 
L 161.247424 165.501297 
L 164.498939 167.29847 
L 167.750455 169.789311 
L 171.00197 157.033039 
L 174.253485 157.313096 
L 177.505 156.016228 
L 180.756515 159.109068 
L 184.00803 153.74354 
L 187.259545 136.294403 
L 190.511061 123.797186 
L 193.762576 122.137512 
L 197.014091 118.464621 
L 200.265606 130.536811 
L 203.517121 120.410721 
L 206.768636 129.073448 
L 210.020152 141.228361 
L 213.271667 160.049356 
L 216.523182 145.493197 
L 219.774697 139.574141 
L 223.026212 137.675359 
L 226.277727 138.230671 
L 229.529242 144.029367 
L 232.780758 138.841349 
L 236.032273 155.848402 
L 239.283788 153.819785 
L 242.535303 161.532983 
L 245.786818 162.597477 
L 249.038333 165.593122 
L 252.289848 149.951277 
L 255.541364 148.436311 
L 258.792879 152.643065 
L 262.044394 155.196356 
L 265.295909 173.48385 
L 268.547424 168.056316 
L 271.798939 159.113661 
L 275.050455 154.096383 
L 278.30197 166.857361 
L 281.553485 161.343279 
L 284.805 149.237019 
L 288.056515 128.458968 
L 291.30803 143.714212 
L 294.559545 146.772643 
L 297.811061 166.092213 
L 301.062576 179.811875 
L 304.314091 171.41916 
L 307.565606 182.484409 
L 310.817121 189.754061 
L 314.068636 191.07805 
L 317.320152 186.311692 
L 320.571667 197.987686 
L 323.823182 212.499137 
L 327.074697 220.414123 
L 330.326212 208.956137 
L 333.577727 207.286229 
L 336.829242 172.104454 
L 340.080758 166.277517 
L 343.332273 140.534864 
L 346.583788 130.063946 
L 349.835303 118.770099 
L 353.086818 122.816932 
L 356.338333 119.044134 
L 359.589848 96.910707 
L 362.841364 85.031693 
L 366.092879 93.643206 
L 369.344394 76.196024 
L 372.595909 83.36679 
L 375.847424 92.039173 
L 379.098939 75.863342 
L 382.350455 82.174687 
L 385.60197 61.489101 
L 388.853485 64.627738 
L 392.105 59.765396 
L 395.356515 57.472746 
L 398.60803 70.567879 
L 401.859545 81.767839 
L 405.111061 76.760012 
L 408.362576 93.111282 
L 411.614091 76.62724 
L 414.865606 77.923125 
L 418.117121 82.850363 
L 421.368636 85.387449 
L 424.620152 101.818238 
L 427.871667 97.608113 
L 431.123182 78.997418 
L 434.374697 79.145655 
L 437.626212 73.843086 
L 440.877727 74.6218 
L 444.129242 82.696699 
L 447.380758 70.211924 
L 450.632273 85.938946 
L 453.883788 86.44604 
L 457.135303 76.505653 
L 460.386818 97.581529 
L 463.638333 96.162753 
L 466.889848 88.130547 
L 470.141364 83.074143 
L 473.392879 82.873679 
L 476.644394 85.377739 
L 479.895909 62.217943 
L 483.147424 53.499339 
L 486.398939 56.594241 
L 489.650455 40.769091 
L 492.90197 65.53301 
L 496.153485 65.889114 
L 499.405 46.652902 
L 502.656515 56.731165 
L 505.90803 87.303789 
L 509.159545 112.627039 
L 512.411061 93.952352 
L 515.662576 98.656871 
L 518.914091 97.466705 
L 522.165606 101.224281 
L 525.417121 96.427944 
L 528.668636 107.776996 
L 531.920152 88.303706 
L 535.171667 104.10373 
L 538.423182 98.87768 
L 541.674697 88.584336 
L 544.926212 70.905665 
L 548.177727 63.543571 
L 551.429242 89.069526 
L 554.680758 89.20238 
L 557.932273 117.089726 
L 561.183788 102.440832 
L 564.435303 103.571068 
L 567.686818 119.828037 
L 570.938333 124.42969 
L 574.189848 135.728082 
L 577.441364 148.614728 
L 580.692879 135.876619 
L 583.944394 134.538978 
L 587.195909 118.833998 
L 590.447424 99.826874 
L 593.698939 106.284588 
L 596.950455 95.355923 
L 596.950455 95.355923 
" clip-path="url(#pd791c4cd0a)" style="fill: none; stroke: #2ca02c; stroke-width: 1.5; stroke-linecap: square"/>
   </g>
   <g id="line2d_19">
    <path d="M 79.959545 226.669089 
L 83.211061 204.549563 
L 86.462576 169.427533 
L 89.714091 164.991561 
L 92.965606 194.021112 
L 96.217121 199.090188 
L 99.468636 201.628133 
L 102.720152 182.981123 
L 105.971667 177.547886 
L 109.223182 171.285753 
L 112.474697 164.259433 
L 115.726212 178.091956 
L 118.977727 177.170141 
L 122.229242 179.845526 
L 125.480758 190.407677 
L 128.732273 188.039942 
L 131.983788 181.079324 
L 135.235303 169.645041 
L 138.486818 173.299504 
L 141.738333 170.39162 
L 144.989848 170.536801 
L 148.241364 182.918093 
L 151.492879 198.710286 
L 154.744394 188.025262 
L 157.995909 178.566043 
L 161.247424 158.496544 
L 164.498939 162.783115 
L 167.750455 159.943523 
L 171.00197 143.26612 
L 174.253485 145.191319 
L 177.505 146.666059 
L 184.00803 156.080772 
L 187.259545 150.010798 
L 190.511061 144.757414 
L 193.762576 146.714985 
L 197.014091 145.80378 
L 200.265606 166.819319 
L 203.517121 151.443266 
L 206.768636 162.570933 
L 210.020152 182.7282 
L 213.271667 198.299454 
L 216.523182 181.238617 
L 219.774697 185.0544 
L 226.277727 171.621695 
L 229.529242 179.848012 
L 232.780758 173.705603 
L 236.032273 188.636589 
L 239.283788 184.232827 
L 242.535303 192.822462 
L 245.786818 193.13316 
L 249.038333 192.861099 
L 252.289848 179.483724 
L 255.541364 173.624218 
L 258.792879 171.883435 
L 262.044394 179.36793 
L 265.295909 192.562737 
L 268.547424 182.309191 
L 271.798939 179.111517 
L 275.050455 171.92997 
L 278.30197 177.842737 
L 281.553485 178.356369 
L 284.805 167.764579 
L 288.056515 148.633239 
L 291.30803 158.140329 
L 294.559545 171.462563 
L 297.811061 185.721876 
L 301.062576 191.748023 
L 304.314091 187.50056 
L 307.565606 198.1132 
L 310.817121 201.845201 
L 314.068636 206.234589 
L 317.320152 202.758281 
L 320.571667 209.619151 
L 323.823182 215.455595 
L 327.074697 219.487113 
L 330.326212 216.802506 
L 333.577727 206.401338 
L 336.829242 179.352743 
L 340.080758 169.774578 
L 343.332273 150.657229 
L 346.583788 142.133267 
L 349.835303 130.788307 
L 353.086818 130.117304 
L 356.338333 133.237814 
L 359.589848 113.183911 
L 362.841364 115.553654 
L 366.092879 131.618958 
L 369.344394 109.760695 
L 372.595909 128.311063 
L 375.847424 141.120612 
L 379.098939 138.476304 
L 382.350455 150.44239 
L 385.60197 130.182131 
L 388.853485 137.645962 
L 392.105 135.589014 
L 395.356515 135.601551 
L 398.60803 151.706665 
L 401.859545 158.962398 
L 405.111061 152.994373 
L 408.362576 164.406698 
L 411.614091 149.126552 
L 414.865606 151.474698 
L 418.117121 159.77143 
L 421.368636 165.87932 
L 424.620152 177.087421 
L 427.871667 168.476768 
L 431.123182 156.544005 
L 434.374697 145.698947 
L 437.626212 133.426068 
L 440.877727 133.102942 
L 444.129242 137.791226 
L 447.380758 145.531927 
L 450.632273 155.068884 
L 453.883788 159.83573 
L 457.135303 139.481258 
L 460.386818 144.401876 
L 463.638333 150.02743 
L 466.889848 140.776984 
L 470.141364 140.536977 
L 473.392879 148.292149 
L 476.644394 149.08202 
L 479.895909 126.40888 
L 483.147424 115.35967 
L 486.398939 109.487394 
L 489.650455 90.687809 
L 492.90197 97.649037 
L 496.153485 104.250945 
L 499.405 86.30703 
L 502.656515 94.529907 
L 505.90803 119.136441 
L 509.159545 132.93186 
L 512.411061 122.617841 
L 515.662576 131.889562 
L 518.914091 141.875195 
L 522.165606 148.55961 
L 525.417121 137.712257 
L 528.668636 151.355189 
L 531.920152 144.033781 
L 535.171667 148.685728 
L 538.423182 146.350924 
L 541.674697 144.507981 
L 544.926212 137.920963 
L 548.177727 135.746254 
L 551.429242 153.575278 
L 554.680758 151.389557 
L 557.932273 164.200244 
L 561.183788 148.738076 
L 564.435303 154.215302 
L 567.686818 164.842167 
L 570.938333 161.214628 
L 574.189848 174.416968 
L 577.441364 188.415954 
L 580.692879 176.104418 
L 583.944394 180.968615 
L 587.195909 156.955382 
L 590.447424 135.157938 
L 593.698939 144.772312 
L 596.950455 138.59038 
L 596.950455 138.59038 
" clip-path="url(#pd791c4cd0a)" style="fill: none; stroke: #d62728; stroke-width: 1.5; stroke-linecap: square"/>
   </g>
   <g id="line2d_20">
    <path d="M 336.829242 332.44 
L 336.829242 26.88 
" clip-path="url(#pd791c4cd0a)" style="fill: none; stroke-dasharray: 5.55,2.4; stroke-dashoffset: 0; stroke: #1f77b4; stroke-width: 1.5"/>
   </g>
   <g id="patch_3">
    <path d="M 54.11 332.44 
L 54.11 26.88 
" style="fill: none; stroke: #000000; stroke-width: 0.8; stroke-linejoin: miter; stroke-linecap: square"/>
   </g>
   <g id="patch_4">
    <path d="M 622.8 332.44 
L 622.8 26.88 
" style="fill: none; stroke: #000000; stroke-width: 0.8; stroke-linejoin: miter; stroke-linecap: square"/>
   </g>
   <g id="patch_5">
    <path d="M 54.11 332.44 
L 622.8 332.44 
" style="fill: none; stroke: #000000; stroke-width: 0.8; stroke-linejoin: miter; stroke-linecap: square"/>
   </g>
   <g id="patch_6">
    <path d="M 54.11 26.88 
L 622.8 26.88 
" style="fill: none; stroke: #000000; stroke-width: 0.8; stroke-linejoin: miter; stroke-linecap: square"/>
   </g>
   <g id="text_18">
    <!-- Rolling throughput under directional-redundancy allocation -->
    <g transform="translate(161.010625 20.88) scale(0.12 -0.12)">
     <defs>
      <path id="DejaVuSans-63" d="M 3122 3366 
L 3122 2828 
Q 2878 2963 2633 3030 
Q 2388 3097 2138 3097 
Q 1578 3097 1268 2742 
Q 959 2388 959 1747 
Q 959 1106 1268 751 
Q 1578 397 2138 397 
Q 2388 397 2633 464 
Q 2878 531 3122 666 
L 3122 134 
Q 2881 22 2623 -34 
Q 2366 -91 2075 -91 
Q 1284 -91 818 406 
Q 353 903 353 1747 
Q 353 2603 823 3093 
Q 1294 3584 2113 3584 
Q 2378 3584 2631 3529 
Q 2884 3475 3122 3366 
z
" transform="scale(0.015625)"/>
      <path id="DejaVuSans-2d" d="M 313 2009 
L 1997 2009 
L 1997 1497 
L 313 1497 
L 313 2009 
z
" transform="scale(0.015625)"/>
      <path id="DejaVuSans-79" d="M 2059 -325 
Q 1816 -950 1584 -1140 
Q 1353 -1331 966 -1331 
L 506 -1331 
L 506 -850 
L 844 -850 
Q 1081 -850 1212 -737 
Q 1344 -625 1503 -206 
L 1606 56 
L 191 3500 
L 800 3500 
L 1894 763 
L 2988 3500 
L 3597 3500 
L 2059 -325 
z
" transform="scale(0.015625)"/>
     </defs>
     <use xlink:href="#DejaVuSans-52"/>
     <use xlink:href="#DejaVuSans-6f" transform="translate(64.982422 0)"/>
     <use xlink:href="#DejaVuSans-6c" transform="translate(126.164062 0)"/>
     <use xlink:href="#DejaVuSans-6c" transform="translate(153.947266 0)"/>
     <use xlink:href="#DejaVuSans-69" transform="translate(181.730469 0)"/>
     <use xlink:href="#DejaVuSans-6e" transform="translate(209.513672 0)"/>
     <use xlink:href="#DejaVuSans-67" transform="translate(272.892578 0)"/>
     <use xlink:href="#DejaVuSans-20" transform="translate(336.369141 0)"/>
     <use xlink:href="#DejaVuSans-74" transform="translate(368.15625 0)"/>
     <use xlink:href="#DejaVuSans-68" transform="translate(407.365234 0)"/>
     <use xlink:href="#DejaVuSans-72" transform="translate(470.744141 0)"/>
     <use xlink:href="#DejaVuSans-6f" transform="translate(509.607422 0)"/>
     <use xlink:href="#DejaVuSans-75" transform="translate(570.789062 0)"/>
     <use xlink:href="#DejaVuSans-67" transform="translate(634.167969 0)"/>
     <use xlink:href="#DejaVuSans-68" transform="translate(697.644531 0)"/>
     <use xlink:href="#DejaVuSans-70" transform="translate(761.023438 0)"/>
     <use xlink:href="#DejaVuSans-75" transform="translate(824.5 0)"/>
     <use xlink:href="#DejaVuSans-74" transform="translate(887.878906 0)"/>
     <use xlink:href="#DejaVuSans-20" transform="translate(927.087891 0)"/>
     <use xlink:href="#DejaVuSans-75" transform="translate(958.875 0)"/>
     <use xlink:href="#DejaVuSans-6e" transform="translate(1022.253906 0)"/>
     <use xlink:href="#DejaVuSans-64" transform="translate(1085.632812 0)"/>
     <use xlink:href="#DejaVuSans-65" transform="translate(1149.109375 0)"/>
     <use xlink:href="#DejaVuSans-72" transform="translate(1210.632812 0)"/>
     <use xlink:href="#DejaVuSans-20" transform="translate(1251.746094 0)"/>
     <use xlink:href="#DejaVuSans-64" transform="translate(1283.533203 0)"/>
     <use xlink:href="#DejaVuSans-69" transform="translate(1347.009766 0)"/>
     <use xlink:href="#DejaVuSans-72" transform="translate(1374.792969 0)"/>
     <use xlink:href="#DejaVuSans-65" transform="translate(1413.65625 0)"/>
     <use xlink:href="#DejaVuSans-63" transform="translate(1475.179688 0)"/>
     <use xlink:href="#DejaVuSans-74" transform="translate(1530.160156 0)"/>
     <use xlink:href="#DejaVuSans-69" transform="translate(1569.369141 0)"/>
     <use xlink:href="#DejaVuSans-6f" transform="translate(1597.152344 0)"/>
     <use xlink:href="#DejaVuSans-6e" transform="translate(1658.333984 0)"/>
     <use xlink:href="#DejaVuSans-61" transform="translate(1721.712891 0)"/>
     <use xlink:href="#DejaVuSans-6c" transform="translate(1782.992188 0)"/>
     <use xlink:href="#DejaVuSans-2d" transform="translate(1810.775391 0)"/>
     <use xlink:href="#DejaVuSans-72" transform="translate(1846.859375 0)"/>
     <use xlink:href="#DejaVuSans-65" transform="translate(1885.722656 0)"/>
     <use xlink:href="#DejaVuSans-64" transform="translate(1947.246094 0)"/>
     <use xlink:href="#DejaVuSans-75" transform="translate(2010.722656 0)"/>
     <use xlink:href="#DejaVuSans-6e" transform="translate(2074.101562 0)"/>
     <use xlink:href="#DejaVuSans-64" transform="translate(2137.480469 0)"/>
     <use xlink:href="#DejaVuSans-61" transform="translate(2200.957031 0)"/>
     <use xlink:href="#DejaVuSans-6e" transform="translate(2262.236328 0)"/>
     <use xlink:href="#DejaVuSans-63" transform="translate(2325.615234 0)"/>
     <use xlink:href="#DejaVuSans-79" transform="translate(2380.595703 0)"/>
     <use xlink:href="#DejaVuSans-20" transform="translate(2439.775391 0)"/>
     <use xlink:href="#DejaVuSans-61" transform="translate(2471.5625 0)"/>
     <use xlink:href="#DejaVuSans-6c" transform="translate(2532.841797 0)"/>
     <use xlink:href="#DejaVuSans-6c" transform="translate(2560.625 0)"/>
     <use xlink:href="#DejaVuSans-6f" transform="translate(2588.408203 0)"/>
     <use xlink:href="#DejaVuSans-63" transform="translate(2649.589844 0)"/>
     <use xlink:href="#DejaVuSans-61" transform="translate(2704.570312 0)"/>
     <use xlink:href="#DejaVuSans-74" transform="translate(2765.849609 0)"/>
     <use xlink:href="#DejaVuSans-69" transform="translate(2805.058594 0)"/>
     <use xlink:href="#DejaVuSans-6f" transform="translate(2832.841797 0)"/>
     <use xlink:href="#DejaVuSans-6e" transform="translate(2894.023438 0)"/>
    </g>
   </g>
   <g id="legend_1">
    <g id="patch_7">
     <path d="M 61.11 109.105 
L 210.502187 109.105 
Q 212.502187 109.105 212.502187 107.105 
L 212.502187 33.88 
Q 212.502187 31.88 210.502187 31.88 
L 61.11 31.88 
Q 59.11 31.88 59.11 33.88 
L 59.11 107.105 
Q 59.11 109.105 61.11 109.105 
z
" style="fill: #ffffff; opacity: 0.8; stroke: #cccccc; stroke-linejoin: miter"/>
    </g>
    <g id="line2d_21">
     <path d="M 63.11 39.978438 
L 73.11 39.978438 
L 83.11 39.978438 
" style="fill: none; stroke: #1f77b4; stroke-width: 1.5; stroke-linecap: square"/>
    </g>
    <g id="text_19">
     <!-- best_all -->
     <g transform="translate(91.11 43.478438) scale(0.1 -0.1)">
      <defs>
       <path id="DejaVuSans-62" d="M 3116 1747 
Q 3116 2381 2855 2742 
Q 2594 3103 2138 3103 
Q 1681 3103 1420 2742 
Q 1159 2381 1159 1747 
Q 1159 1113 1420 752 
Q 1681 391 2138 391 
Q 2594 391 2855 752 
Q 3116 1113 3116 1747 
z
M 1159 2969 
Q 1341 3281 1617 3432 
Q 1894 3584 2278 3584 
Q 2916 3584 3314 3078 
Q 3713 2572 3713 1747 
Q 3713 922 3314 415 
Q 2916 -91 2278 -91 
Q 1894 -91 1617 61 
Q 1341 213 1159 525 
L 1159 0 
L 581 0 
L 581 4863 
L 1159 4863 
L 1159 2969 
z
" transform="scale(0.015625)"/>
       <path id="DejaVuSans-73" d="M 2834 3397 
L 2834 2853 
Q 2591 2978 2328 3040 
Q 2066 3103 1784 3103 
Q 1356 3103 1142 2972 
Q 928 2841 928 2578 
Q 928 2378 1081 2264 
Q 1234 2150 1697 2047 
L 1894 2003 
Q 2506 1872 2764 1633 
Q 3022 1394 3022 966 
Q 3022 478 2636 193 
Q 2250 -91 1575 -91 
Q 1294 -91 989 -36 
Q 684 19 347 128 
L 347 722 
Q 666 556 975 473 
Q 1284 391 1588 391 
Q 1994 391 2212 530 
Q 2431 669 2431 922 
Q 2431 1156 2273 1281 
Q 2116 1406 1581 1522 
L 1381 1569 
Q 847 1681 609 1914 
Q 372 2147 372 2553 
Q 372 3047 722 3315 
Q 1072 3584 1716 3584 
Q 2034 3584 2315 3537 
Q 2597 3491 2834 3397 
z
" transform="scale(0.015625)"/>
       <path id="DejaVuSans-5f" d="M 3263 -1063 
L 3263 -1509 
L -63 -1509 
L -63 -1063 
L 3263 -1063 
z
" transform="scale(0.015625)"/>
      </defs>
      <use xlink:href="#DejaVuSans-62"/>
      <use xlink:href="#DejaVuSans-65" transform="translate(63.476562 0)"/>
      <use xlink:href="#DejaVuSans-73" transform="translate(125 0)"/>
      <use xlink:href="#DejaVuSans-74" transform="translate(177.099609 0)"/>
      <use xlink:href="#DejaVuSans-5f" transform="translate(216.308594 0)"/>
      <use xlink:href="#DejaVuSans-61" transform="translate(266.308594 0)"/>
      <use xlink:href="#DejaVuSans-6c" transform="translate(327.587891 0)"/>
      <use xlink:href="#DejaVuSans-6c" transform="translate(355.371094 0)"/>
     </g>
    </g>
    <g id="line2d_22">
     <path d="M 63.11 54.934688 
L 73.11 54.934688 
L 83.11 54.934688 
" style="fill: none; stroke: #ff7f0e; stroke-width: 1.5; stroke-linecap: square"/>
    </g>
    <g id="text_20">
     <!-- primary_only -->
     <g transform="translate(91.11 58.434688) scale(0.1 -0.1)">
      <use xlink:href="#DejaVuSans-70"/>
      <use xlink:href="#DejaVuSans-72" transform="translate(63.476562 0)"/>
      <use xlink:href="#DejaVuSans-69" transform="translate(104.589844 0)"/>
      <use xlink:href="#DejaVuSans-6d" transform="translate(132.373047 0)"/>
      <use xlink:href="#DejaVuSans-61" transform="translate(229.785156 0)"/>
      <use xlink:href="#DejaVuSans-72" transform="translate(291.064453 0)"/>
      <use xlink:href="#DejaVuSans-79" transform="translate(332.177734 0)"/>
      <use xlink:href="#DejaVuSans-5f" transform="translate(391.357422 0)"/>
      <use xlink:href="#DejaVuSans-6f" transform="translate(441.357422 0)"/>
      <use xlink:href="#DejaVuSans-6e" transform="translate(502.539062 0)"/>
      <use xlink:href="#DejaVuSans-6c" transform="translate(565.917969 0)"/>
      <use xlink:href="#DejaVuSans-79" transform="translate(593.701172 0)"/>
     </g>
    </g>
    <g id="line2d_23">
     <path d="M 63.11 69.890938 
L 73.11 69.890938 
L 83.11 69.890938 
" style="fill: none; stroke: #2ca02c; stroke-width: 1.5; stroke-linecap: square"/>
    </g>
    <g id="text_21">
     <!-- proposed -->
     <g transform="translate(91.11 73.390938) scale(0.1 -0.1)">
      <use xlink:href="#DejaVuSans-70"/>
      <use xlink:href="#DejaVuSans-72" transform="translate(63.476562 0)"/>
      <use xlink:href="#DejaVuSans-6f" transform="translate(102.339844 0)"/>
      <use xlink:href="#DejaVuSans-70" transform="translate(163.521484 0)"/>
      <use xlink:href="#DejaVuSans-6f" transform="translate(226.998047 0)"/>
      <use xlink:href="#DejaVuSans-73" transform="translate(288.179688 0)"/>
      <use xlink:href="#DejaVuSans-65" transform="translate(340.279297 0)"/>
      <use xlink:href="#DejaVuSans-64" transform="translate(401.802734 0)"/>
     </g>
    </g>
    <g id="line2d_24">
     <path d="M 63.11 84.569063 
L 73.11 84.569063 
L 83.11 84.569063 
" style="fill: none; stroke: #d62728; stroke-width: 1.5; stroke-linecap: square"/>
    </g>
    <g id="text_22">
     <!-- random_residual -->
     <g transform="translate(91.11 88.069063) scale(0.1 -0.1)">
      <use xlink:href="#DejaVuSans-72"/>
      <use xlink:href="#DejaVuSans-61" transform="translate(41.113281 0)"/>
      <use xlink:href="#DejaVuSans-6e" transform="translate(102.392578 0)"/>
      <use xlink:href="#DejaVuSans-64" transform="translate(165.771484 0)"/>
      <use xlink:href="#DejaVuSans-6f" transform="translate(229.248047 0)"/>
      <use xlink:href="#DejaVuSans-6d" transform="translate(290.429688 0)"/>
      <use xlink:href="#DejaVuSans-5f" transform="translate(387.841797 0)"/>
      <use xlink:href="#DejaVuSans-72" transform="translate(437.841797 0)"/>
      <use xlink:href="#DejaVuSans-65" transform="translate(476.705078 0)"/>
      <use xlink:href="#DejaVuSans-73" transform="translate(538.228516 0)"/>
      <use xlink:href="#DejaVuSans-69" transform="translate(590.328125 0)"/>
      <use xlink:href="#DejaVuSans-64" transform="translate(618.111328 0)"/>
      <use xlink:href="#DejaVuSans-75" transform="translate(681.587891 0)"/>
      <use xlink:href="#DejaVuSans-61" transform="translate(744.966797 0)"/>
      <use xlink:href="#DejaVuSans-6c" transform="translate(806.246094 0)"/>
     </g>
    </g>
    <g id="line2d_25">
     <path d="M 63.11 99.525313 
L 73.11 99.525313 
L 83.11 99.525313 
" style="fill: none; stroke-dasharray: 5.55,2.4; stroke-dashoffset: 0; stroke: #1f77b4; stroke-width: 1.5"/>
    </g>
    <g id="text_23">
     <!-- new model joins (t=80) -->
     <g transform="translate(91.11 103.025313) scale(0.1 -0.1)">
      <defs>
       <path id="DejaVuSans-6a" d="M 603 3500 
L 1178 3500 
L 1178 -63 
Q 1178 -731 923 -1031 
Q 669 -1331 103 -1331 
L -116 -1331 
L -116 -844 
L 38 -844 
Q 366 -844 484 -692 
Q 603 -541 603 -63 
L 603 3500 
z
M 603 4863 
L 1178 4863 
L 1178 4134 
L 603 4134 
L 603 4863 
z
" transform="scale(0.015625)"/>
      </defs>
      <use xlink:href="#DejaVuSans-6e"/>
      <use xlink:href="#DejaVuSans-65" transform="translate(63.378906 0)"/>
      <use xlink:href="#DejaVuSans-77" transform="translate(124.902344 0)"/>
      <use xlink:href="#DejaVuSans-20" transform="translate(206.689453 0)"/>
      <use xlink:href="#DejaVuSans-6d" transform="translate(238.476562 0)"/>
      <use xlink:href="#DejaVuSans-6f" transform="translate(335.888672 0)"/>
      <use xlink:href="#DejaVuSans-64" transform="translate(397.070312 0)"/>
      <use xlink:href="#DejaVuSans-65" transform="translate(460.546875 0)"/>
      <use xlink:href="#DejaVuSans-6c" transform="translate(522.070312 0)"/>
      <use xlink:href="#DejaVuSans-20" transform="translate(549.853516 0)"/>
      <use xlink:href="#DejaVuSans-6a" transform="translate(581.640625 0)"/>
      <use xlink:href="#DejaVuSans-6f" transform="translate(609.423828 0)"/>
      <use xlink:href="#DejaVuSans-69" transform="translate(670.605469 0)"/>
      <use xlink:href="#DejaVuSans-6e" transform="translate(698.388672 0)"/>
      <use xlink:href="#DejaVuSans-73" transform="translate(761.767578 0)"/>
      <use xlink:href="#DejaVuSans-20" transform="translate(813.867188 0)"/>
      <use xlink:href="#DejaVuSans-28" transform="translate(845.654297 0)"/>
      <use xlink:href="#DejaVuSans-74" transform="translate(884.667969 0)"/>
      <use xlink:href="#DejaVuSans-3d" transform="translate(923.876953 0)"/>
      <use xlink:href="#DejaVuSans-38" transform="translate(1007.666016 0)"/>
      <use xlink:href="#DejaVuSans-30" transform="translate(1071.289062 0)"/>
      <use xlink:href="#DejaVuSans-29" transform="translate(1134.912109 0)"/>
     </g>
    </g>
   </g>
  </g>
 </g>
 <defs>
  <clipPath id="pd791c4cd0a">
   <rect x="54.11" y="26.88" width="568.69" height="305.56"/>
  </clipPath>
 </defs>
</svg>
