<?xml version="1.0" encoding="utf-8" standalone="no"?>
<!DOCTYPE svg PUBLIC "-//W3C//DTD SVG 1.1//EN"
  "http://www.w3.org/Graphics/SVG/1.1/DTD/svg11.dtd">
<svg xmlns:xlink="http://www.w3.org/1999/xlink" width="604.46125pt" height="408.634375pt" viewBox="0 0 604.46125 408.634375" xmlns="http://www.w3.org/2000/svg" version="1.1">
 <metadata>
  <rdf:RDF xmlns:dc="http://purl.org/dc/elements/1.1/" xmlns:cc="http://creativecommons.org/ns#" xmlns:rdf="http://www.w3.org/1999/02/22-rdf-syntax-ns#">
   <cc:Work>
    <dc:type rdf:resource="http://purl.org/dc/dcmitype/StillImage"/>
    <dc:date>2026-05-19T18:15:31.560885</dc:date>
    <dc:format>image/svg+xml</dc:format>
    <dc:creator>
     <cc:Agent>
      <dc:title>Matplotlib v3.10.9, https://matplotlib.org/</dc:title>
     </cc:Agent>
    </dc:creator>
   </cc:Work>
  </rdf:RDF>
 </metadata>
 <defs>
  <style type="text/css">*{stroke-linejoin: round; stroke-linecap: butt}</style>
 </defs>
 <g id="figure_1">
  <g id="patch_1">
   <path d="M 0 408.634375 
L 604.46125 408.634375 
L 604.46125 0 
L 0 0 
z
" style="fill: #ffffff"/>
  </g>
  <g id="axes_1">
   <g id="patch_2">
    <path d="M 43.78125 371.078125 
L 597.26125 371.078125 
L 597.26125 22.318125 
L 43.78125 22.318125 
z
" style="fill: #ffffff"/>
   </g>
   <g id="matplotlib.axis_1">
    <g id="xtick_1">
     <g id="line2d_1">
      <path d="M 48.36799 371.078125 
L 48.36799 22.318125 
" clip-path="url(#p3eb4911646)" style="fill: none; stroke: #b0b0b0; stroke-opacity: 0.3; stroke-width: 0.8; stroke-linecap: square"/>
     </g>
     <g id="line2d_2">
      <defs>
       <path id="mccced67284" d="M 0 0 
L 0 3.5 
" style="stroke: #000000; stroke-width: 0.8"/>
      </defs>
      <g>
       <use xlink:href="#mccced67284" x="48.36799" y="371.078125" style="stroke: #000000; stroke-width: 0.8"/>
      </g>
     </g>
     <g id="text_1">
      <!-- 0 -->
      <g transform="translate(45.18674 385.676562) scale(0.1 -0.1)">
       <defs>
        <path id="DejaVuSans-30" d="M 2034 4250 
Q 1547 4250 1301 3770 
Q 1056 3291 1056 2328 
Q 1056 1369 1301 889 
Q 1547 409 2034 409 
Q 2525 409 2770 889 
Q 3016 1369 3016 2328 
Q 3016 3291 2770 3770 
Q 2525 4250 2034 4250 
z
M 2034 4750 
Q 2819 4750 3233 4129 
Q 3647 3509 3647 2328 
Q 3647 1150 3233 529 
Q 2819 -91 2034 -91 
Q 1250 -91 836 529 
Q 422 1150 422 2328 
Q 422 3509 836 4129 
Q 1250 4750 2034 4750 
z
" transform="scale(0.015625)"/>
       </defs>
       <use xlink:href="#DejaVuSans-30"/>
      </g>
     </g>
    </g>
    <g id="xtick_2">
     <g id="line2d_3">
      <path d="M 125.208164 371.078125 
L 125.208164 22.318125 
" clip-path="url(#p3eb4911646)" style="fill: none; stroke: #b0b0b0; stroke-opacity: 0.3; stroke-width: 0.8; stroke-linecap: square"/>
     </g>
     <g id="line2d_4">
      <g>
       <use xlink:href="#mccced67284" x="125.208164" y="371.078125" style="stroke: #000000; stroke-width: 0.8"/>
      </g>
     </g>
     <g id="text_2">
      <!-- 1 -->
      <g transform="translate(122.026914 385.676562) scale(0.1 -0.1)">
       <defs>
        <path id="DejaVuSans-31" d="M 794 531 
L 1825 531 
L 1825 4091 
L 703 3866 
L 703 4441 
L 1819 4666 
L 2450 4666 
L 2450 531 
L 3481 531 
L 3481 0 
L 794 0 
L 794 531 
z
" transform="scale(0.015625)"/>
       </defs>
       <use xlink:href="#DejaVuSans-31"/>
      </g>
     </g>
    </g>
    <g id="xtick_3">
     <g id="line2d_5">
      <path d="M 202.048338 371.078125 
L 202.048338 22.318125 
" clip-path="url(#p3eb4911646)" style="fill: none; stroke: #b0b0b0; stroke-opacity: 0.3; stroke-width: 0.8; stroke-linecap: square"/>
     </g>
     <g id="line2d_6">
      <g>
       <use xlink:href="#mccced67284" x="202.048338" y="371.078125" style="stroke: #000000; stroke-width: 0.8"/>
      </g>
     </g>
     <g id="text_3">
      <!-- 2 -->
      <g transform="translate(198.867088 385.676562) scale(0.1 -0.1)">
       <defs>
        <path id="DejaVuSans-32" d="M 1228 531 
L 3431 531 
L 3431 0 
L 469 0 
L 469 531 
Q 828 903 1448 1529 
Q 2069 2156 2228 2338 
Q 2531 2678 2651 2914 
Q 2772 3150 2772 3378 
Q 2772 3750 2511 3984 
Q 2250 4219 1831 4219 
Q 1534 4219 1204 4116 
Q 875 4013 500 3803 
L 500 4441 
Q 881 4594 1212 4672 
Q 1544 4750 1819 4750 
Q 2544 4750 2975 4387 
Q 3406 4025 3406 3419 
Q 3406 3131 3298 2873 
Q 3191 2616 2906 2266 
Q 2828 2175 2409 1742 
Q 1991 1309 1228 531 
z
" transform="scale(0.015625)"/>
       </defs>
       <use xlink:href="#DejaVuSans-32"/>
      </g>
     </g>
    </g>
    <g id="xtick_4">
     <g id="line2d_7">
      <path d="M 278.888513 371.078125 
L 278.888513 22.318125 
" clip-path="url(#p3eb4911646)" style="fill: none; stroke: #b0b0b0; stroke-opacity: 0.3; stroke-width: 0.8; stroke-linecap: square"/>
     </g>
     <g id="line2d_8">
      <g>
       <use xlink:href="#mccced67284" x="278.888513" y="371.078125" style="stroke: #000000; stroke-width: 0.8"/>
      </g>
     </g>
     <g id="text_4">
      <!-- 3 -->
      <g transform="translate(275.707263 385.676562) scale(0.1 -0.1)">
       <defs>
        <path id="DejaVuSans-33" d="M 2597 2516 
Q 3050 2419 3304 2112 
Q 3559 1806 3559 1356 
Q 3559 666 3084 287 
Q 2609 -91 1734 -91 
Q 1441 -91 1130 -33 
Q 819 25 488 141 
L 488 750 
Q 750 597 1062 519 
Q 1375 441 1716 441 
Q 2309 441 2620 675 
Q 2931 909 2931 1356 
Q 2931 1769 2642 2001 
Q 2353 2234 1838 2234 
L 1294 2234 
L 1294 2753 
L 1863 2753 
Q 2328 2753 2575 2939 
Q 2822 3125 2822 3475 
Q 2822 3834 2567 4026 
Q 2313 4219 1838 4219 
Q 1578 4219 1281 4162 
Q 984 4106 628 3988 
L 628 4550 
Q 988 4650 1302 4700 
Q 1616 4750 1894 4750 
Q 2613 4750 3031 4423 
Q 3450 4097 3450 3541 
Q 3450 3153 3228 2886 
Q 3006 2619 2597 2516 
z
" transform="scale(0.015625)"/>
       </defs>
       <use xlink:href="#DejaVuSans-33"/>
      </g>
     </g>
    </g>
    <g id="xtick_5">
     <g id="line2d_9">
      <path d="M 355.728687 371.078125 
L 355.728687 22.318125 
" clip-path="url(#p3eb4911646)" style="fill: none; stroke: #b0b0b0; stroke-opacity: 0.3; stroke-width: 0.8; stroke-linecap: square"/>
     </g>
     <g id="line2d_10">
      <g>
       <use xlink:href="#mccced67284" x="355.728687" y="371.078125" style="stroke: #000000; stroke-width: 0.8"/>
      </g>
     </g>
     <g id="text_5">
      <!-- 4 -->
      <g transform="translate(352.547437 385.676562) scale(0.1 -0.1)">
       <defs>
        <path id="DejaVuSans-34" d="M 2419 4116 
L 825 1625 
L 2419 1625 
L 2419 4116 
z
M 2253 4666 
L 3047 4666 
L 3047 1625 
L 3713 1625 
L 3713 1100 
L 3047 1100 
L 3047 0 
L 2419 0 
L 2419 1100 
L 313 1100 
L 313 1709 
L 2253 4666 
z
" transform="scale(0.015625)"/>
       </defs>
       <use xlink:href="#DejaVuSans-34"/>
      </g>
     </g>
    </g>
    <g id="xtick_6">
     <g id="line2d_11">
      <path d="M 432.568861 371.078125 
L 432.568861 22.318125 
" clip-path="url(#p3eb4911646)" style="fill: none; stroke: #b0b0b0; stroke-opacity: 0.3; stroke-width: 0.8; stroke-linecap: square"/>
     </g>
     <g id="line2d_12">
      <g>
       <use xlink:href="#mccced67284" x="432.568861" y="371.078125" style="stroke: #000000; stroke-width: 0.8"/>
      </g>
     </g>
     <g id="text_6">
      <!-- 5 -->
      <g transform="translate(429.387611 385.676562) scale(0.1 -0.1)">
       <defs>
        <path id="DejaVuSans-35" d="M 691 4666 
L 3169 4666 
L 3169 4134 
L 1269 4134 
L 1269 2991 
Q 1406 3038 1543 3061 
Q 1681 3084 1819 3084 
Q 2600 3084 3056 2656 
Q 3513 2228 3513 1497 
Q 3513 744 3044 326 
Q 2575 -91 1722 -91 
Q 1428 -91 1123 -41 
Q 819 9 494 109 
L 494 744 
Q 775 591 1075 516 
Q 1375 441 1709 441 
Q 2250 441 2565 725 
Q 2881 1009 2881 1497 
Q 2881 1984 2565 2268 
Q 2250 2553 1709 2553 
Q 1456 2553 1204 2497 
Q 953 2441 691 2322 
L 691 4666 
z
" transform="scale(0.015625)"/>
       </defs>
       <use xlink:href="#DejaVuSans-35"/>
      </g>
     </g>
    </g>
    <g id="xtick_7">
     <g id="line2d_13">
      <path d="M 509.409035 371.078125 
L 509.409035 22.318125 
" clip-path="url(#p3eb4911646)" style="fill: none; stroke: #b0b0b0; stroke-opacity: 0.3; stroke-width: 0.8; stroke-linecap: square"/>
     </g>
     <g id="line2d_14">
      <g>
       <use xlink:href="#mccced67284" x="509.409035" y="371.078125" style="stroke: #000000; stroke-width: 0.8"/>
      </g>
     </g>
     <g id="text_7">
      <!-- 6 -->
      <g transform="translate(506.227785 385.676562) scale(0.1 -0.1)">
       <defs>
        <path id="DejaVuSans-36" d="M 2113 2584 
Q 1688 2584 1439 2293 
Q 1191 2003 1191 1497 
Q 1191 994 1439 701 
Q 1688 409 2113 409 
Q 2538 409 2786 701 
Q 3034 994 3034 1497 
Q 3034 2003 2786 2293 
Q 2538 2584 2113 2584 
z
M 3366 4563 
L 3366 3988 
Q 3128 4100 2886 4159 
Q 2644 4219 2406 4219 
Q 1781 4219 1451 3797 
Q 1122 3375 1075 2522 
Q 1259 2794 1537 2939 
Q 1816 3084 2150 3084 
Q 2853 3084 3261 2657 
Q 3669 2231 3669 1497 
Q 3669 778 3244 343 
Q 2819 -91 2113 -91 
Q 1303 -91 875 529 
Q 447 1150 447 2328 
Q 447 3434 972 4092 
Q 1497 4750 2381 4750 
Q 2619 4750 2861 4703 
Q 3103 4656 3366 4563 
z
" transform="scale(0.015625)"/>
       </defs>
       <use xlink:href="#DejaVuSans-36"/>
      </g>
     </g>
    </g>
    <g id="xtick_8">
     <g id="line2d_15">
      <path d="M 586.249209 371.078125 
L 586.249209 22.318125 
" clip-path="url(#p3eb4911646)" style="fill: none; stroke: #b0b0b0; stroke-opacity: 0.3; stroke-width: 0.8; stroke-linecap: square"/>
     </g>
     <g id="line2d_16">
      <g>
       <use xlink:href="#mccced67284" x="586.249209" y="371.078125" style="stroke: #000000; stroke-width: 0.8"/>
      </g>
     </g>
     <g id="text_8">
      <!-- 7 -->
      <g transform="translate(583.067959 385.676562) scale(0.1 -0.1)">
       <defs>
        <path id="DejaVuSans-37" d="M 525 4666 
L 3525 4666 
L 3525 4397 
L 1831 0 
L 1172 0 
L 2766 4134 
L 525 4134 
L 525 4666 
z
" transform="scale(0.015625)"/>
       </defs>
       <use xlink:href="#DejaVuSans-37"/>
      </g>
     </g>
    </g>
    <g id="text_9">
     <!-- Draft entropy H(q) / nats -->
     <g transform="translate(258.903281 399.354687) scale(0.1 -0.1)">
      <defs>
       <path id="DejaVuSans-44" d="M 1259 4147 
L 1259 519 
L 2022 519 
Q 2988 519 3436 956 
Q 3884 1394 3884 2338 
Q 3884 3275 3436 3711 
Q 2988 4147 2022 4147 
L 1259 4147 
z
M 628 4666 
L 1925 4666 
Q 3281 4666 3915 4102 
Q 4550 3538 4550 2338 
Q 4550 1131 3912 565 
Q 3275 0 1925 0 
L 628 0 
L 628 4666 
z
" transform="scale(0.015625)"/>
       <path id="DejaVuSans-72" d="M 2631 2963 
Q 2534 3019 2420 3045 
Q 2306 3072 2169 3072 
Q 1681 3072 1420 2755 
Q 1159 2438 1159 1844 
L 1159 0 
L 581 0 
L 581 3500 
L 1159 3500 
L 1159 2956 
Q 1341 3275 1631 3429 
Q 1922 3584 2338 3584 
Q 2397 3584 2469 3576 
Q 2541 3569 2628 3553 
L 2631 2963 
z
" transform="scale(0.015625)"/>
       <path id="DejaVuSans-61" d="M 2194 1759 
Q 1497 1759 1228 1600 
Q 959 1441 959 1056 
Q 959 750 1161 570 
Q 1363 391 1709 391 
Q 2188 391 2477 730 
Q 2766 1069 2766 1631 
L 2766 1759 
L 2194 1759 
z
M 3341 1997 
L 3341 0 
L 2766 0 
L 2766 531 
Q 2569 213 2275 61 
Q 1981 -91 1556 -91 
Q 1019 -91 701 211 
Q 384 513 384 1019 
Q 384 1609 779 1909 
Q 1175 2209 1959 2209 
L 2766 2209 
L 2766 2266 
Q 2766 2663 2505 2880 
Q 2244 3097 1772 3097 
Q 1472 3097 1187 3025 
Q 903 2953 641 2809 
L 641 3341 
Q 956 3463 1253 3523 
Q 1550 3584 1831 3584 
Q 2591 3584 2966 3190 
Q 3341 2797 3341 1997 
z
" transform="scale(0.015625)"/>
       <path id="DejaVuSans-66" d="M 2375 4863 
L 2375 4384 
L 1825 4384 
Q 1516 4384 1395 4259 
Q 1275 4134 1275 3809 
L 1275 3500 
L 2222 3500 
L 2222 3053 
L 1275 3053 
L 1275 0 
L 697 0 
L 697 3053 
L 147 3053 
L 147 3500 
L 697 3500 
L 697 3744 
Q 697 4328 969 4595 
Q 1241 4863 1831 4863 
L 2375 4863 
z
" transform="scale(0.015625)"/>
       <path id="DejaVuSans-74" d="M 1172 4494 
L 1172 3500 
L 2356 3500 
L 2356 3053 
L 1172 3053 
L 1172 1153 
Q 1172 725 1289 603 
Q 1406 481 1766 481 
L 2356 481 
L 2356 0 
L 1766 0 
Q 1100 0 847 248 
Q 594 497 594 1153 
L 594 3053 
L 172 3053 
L 172 3500 
L 594 3500 
L 594 4494 
L 1172 4494 
z
" transform="scale(0.015625)"/>
       <path id="DejaVuSans-20" transform="scale(0.015625)"/>
       <path id="DejaVuSans-65" d="M 3597 1894 
L 3597 1613 
L 953 1613 
Q 991 1019 1311 708 
Q 1631 397 2203 397 
Q 2534 397 2845 478 
Q 3156 559 3463 722 
L 3463 178 
Q 3153 47 2828 -22 
Q 2503 -91 2169 -91 
Q 1331 -91 842 396 
Q 353 884 353 1716 
Q 353 2575 817 3079 
Q 1281 3584 2069 3584 
Q 2775 3584 3186 3129 
Q 3597 2675 3597 1894 
z
M 3022 2063 
Q 3016 2534 2758 2815 
Q 2500 3097 2075 3097 
Q 1594 3097 1305 2825 
Q 1016 2553 972 2059 
L 3022 2063 
z
" transform="scale(0.015625)"/>
       <path id="DejaVuSans-6e" d="M 3513 2113 
L 3513 0 
L 2938 0 
L 2938 2094 
Q 2938 2591 2744 2837 
Q 2550 3084 2163 3084 
Q 1697 3084 1428 2787 
Q 1159 2491 1159 1978 
L 1159 0 
L 581 0 
L 581 3500 
L 1159 3500 
L 1159 2956 
Q 1366 3272 1645 3428 
Q 1925 3584 2291 3584 
Q 2894 3584 3203 3211 
Q 3513 2838 3513 2113 
z
" transform="scale(0.015625)"/>
       <path id="DejaVuSans-6f" d="M 1959 3097 
Q 1497 3097 1228 2736 
Q 959 2375 959 1747 
Q 959 1119 1226 758 
Q 1494 397 1959 397 
Q 2419 397 2687 759 
Q 2956 1122 2956 1747 
Q 2956 2369 2687 2733 
Q 2419 3097 1959 3097 
z
M 1959 3584 
Q 2709 3584 3137 3096 
Q 3566 2609 3566 1747 
Q 3566 888 3137 398 
Q 2709 -91 1959 -91 
Q 1206 -91 779 398 
Q 353 888 353 1747 
Q 353 2609 779 3096 
Q 1206 3584 1959 3584 
z
" transform="scale(0.015625)"/>
       <path id="DejaVuSans-70" d="M 1159 525 
L 1159 -1331 
L 581 -1331 
L 581 3500 
L 1159 3500 
L 1159 2969 
Q 1341 3281 1617 3432 
Q 1894 3584 2278 3584 
Q 2916 3584 3314 3078 
Q 3713 2572 3713 1747 
Q 3713 922 3314 415 
Q 2916 -91 2278 -91 
Q 1894 -91 1617 61 
Q 1341 213 1159 525 
z
M 3116 1747 
Q 3116 2381 2855 2742 
Q 2594 3103 2138 3103 
Q 1681 3103 1420 2742 
Q 1159 2381 1159 1747 
Q 1159 1113 1420 752 
Q 1681 391 2138 391 
Q 2594 391 2855 752 
Q 3116 1113 3116 1747 
z
" transform="scale(0.015625)"/>
       <path id="DejaVuSans-79" d="M 2059 -325 
Q 1816 -950 1584 -1140 
Q 1353 -1331 966 -1331 
L 506 -1331 
L 506 -850 
L 844 -850 
Q 1081 -850 1212 -737 
Q 1344 -625 1503 -206 
L 1606 56 
L 191 3500 
L 800 3500 
L 1894 763 
L 2988 3500 
L 3597 3500 
L 2059 -325 
z
" transform="scale(0.015625)"/>
       <path id="DejaVuSans-48" d="M 628 4666 
L 1259 4666 
L 1259 2753 
L 3553 2753 
L 3553 4666 
L 4184 4666 
L 4184 0 
L 3553 0 
L 3553 2222 
L 1259 2222 
L 1259 0 
L 628 0 
L 628 4666 
z
" transform="scale(0.015625)"/>
       <path id="DejaVuSans-28" d="M 1984 4856 
Q 1566 4138 1362 3434 
Q 1159 2731 1159 2009 
Q 1159 1288 1364 580 
Q 1569 -128 1984 -844 
L 1484 -844 
Q 1016 -109 783 600 
Q 550 1309 550 2009 
Q 550 2706 781 3412 
Q 1013 4119 1484 4856 
L 1984 4856 
z
" transform="scale(0.015625)"/>
       <path id="DejaVuSans-71" d="M 947 1747 
Q 947 1113 1208 752 
Q 1469 391 1925 391 
Q 2381 391 2643 752 
Q 2906 1113 2906 1747 
Q 2906 2381 2643 2742 
Q 2381 3103 1925 3103 
Q 1469 3103 1208 2742 
Q 947 2381 947 1747 
z
M 2906 525 
Q 2725 213 2448 61 
Q 2172 -91 1784 -91 
Q 1150 -91 751 415 
Q 353 922 353 1747 
Q 353 2572 751 3078 
Q 1150 3584 1784 3584 
Q 2172 3584 2448 3432 
Q 2725 3281 2906 2969 
L 2906 3500 
L 3481 3500 
L 3481 -1331 
L 2906 -1331 
L 2906 525 
z
" transform="scale(0.015625)"/>
       <path id="DejaVuSans-29" d="M 513 4856 
L 1013 4856 
Q 1481 4119 1714 3412 
Q 1947 2706 1947 2009 
Q 1947 1309 1714 600 
Q 1481 -109 1013 -844 
L 513 -844 
Q 928 -128 1133 580 
Q 1338 1288 1338 2009 
Q 1338 2731 1133 3434 
Q 928 4138 513 4856 
z
" transform="scale(0.015625)"/>
       <path id="DejaVuSans-2f" d="M 1625 4666 
L 2156 4666 
L 531 -594 
L 0 -594 
L 1625 4666 
z
" transform="scale(0.015625)"/>
       <path id="DejaVuSans-73" d="M 2834 3397 
L 2834 2853 
Q 2591 2978 2328 3040 
Q 2066 3103 1784 3103 
Q 1356 3103 1142 2972 
Q 928 2841 928 2578 
Q 928 2378 1081 2264 
Q 1234 2150 1697 2047 
L 1894 2003 
Q 2506 1872 2764 1633 
Q 3022 1394 3022 966 
Q 3022 478 2636 193 
Q 2250 -91 1575 -91 
Q 1294 -91 989 -36 
Q 684 19 347 128 
L 347 722 
Q 666 556 975 473 
Q 1284 391 1588 391 
Q 1994 391 2212 530 
Q 2431 669 2431 922 
Q 2431 1156 2273 1281 
Q 2116 1406 1581 1522 
L 1381 1569 
Q 847 1681 609 1914 
Q 372 2147 372 2553 
Q 372 3047 722 3315 
Q 1072 3584 1716 3584 
Q 2034 3584 2315 3537 
Q 2597 3491 2834 3397 
z
" transform="scale(0.015625)"/>
      </defs>
      <use xlink:href="#DejaVuSans-44"/>
      <use xlink:href="#DejaVuSans-72" transform="translate(77.001953 0)"/>
      <use xlink:href="#DejaVuSans-61" transform="translate(118.115234 0)"/>
      <use xlink:href="#DejaVuSans-66" transform="translate(179.394531 0)"/>
      <use xlink:href="#DejaVuSans-74" transform="translate(212.849609 0)"/>
      <use xlink:href="#DejaVuSans-20" transform="translate(252.058594 0)"/>
      <use xlink:href="#DejaVuSans-65" transform="translate(283.845703 0)"/>
      <use xlink:href="#DejaVuSans-6e" transform="translate(345.369141 0)"/>
      <use xlink:href="#DejaVuSans-74" transform="translate(408.748047 0)"/>
      <use xlink:href="#DejaVuSans-72" transform="translate(447.957031 0)"/>
      <use xlink:href="#DejaVuSans-6f" transform="translate(486.820312 0)"/>
      <use xlink:href="#DejaVuSans-70" transform="translate(548.001953 0)"/>
      <use xlink:href="#DejaVuSans-79" transform="translate(611.478516 0)"/>
      <use xlink:href="#DejaVuSans-20" transform="translate(670.658203 0)"/>
      <use xlink:href="#DejaVuSans-48" transform="translate(702.445312 0)"/>
      <use xlink:href="#DejaVuSans-28" transform="translate(777.640625 0)"/>
      <use xlink:href="#DejaVuSans-71" transform="translate(816.654297 0)"/>
      <use xlink:href="#DejaVuSans-29" transform="translate(880.130859 0)"/>
      <use xlink:href="#DejaVuSans-20" transform="translate(919.144531 0)"/>
      <use xlink:href="#DejaVuSans-2f" transform="translate(950.931641 0)"/>
      <use xlink:href="#DejaVuSans-20" transform="translate(984.623047 0)"/>
      <use xlink:href="#DejaVuSans-6e" transform="translate(1016.410156 0)"/>
      <use xlink:href="#DejaVuSans-61" transform="translate(1079.789062 0)"/>
      <use xlink:href="#DejaVuSans-74" transform="translate(1141.068359 0)"/>
      <use xlink:href="#DejaVuSans-73" transform="translate(1180.277344 0)"/>
     </g>
    </g>
   </g>
   <g id="matplotlib.axis_2">
    <g id="ytick_1">
     <g id="line2d_17">
      <path d="M 43.78125 305.633411 
L 597.26125 305.633411 
" clip-path="url(#p3eb4911646)" style="fill: none; stroke: #b0b0b0; stroke-opacity: 0.3; stroke-width: 0.8; stroke-linecap: square"/>
     </g>
     <g id="line2d_18">
      <defs>
       <path id="mafae4ccee8" d="M 0 0 
L -3.5 0 
" style="stroke: #000000; stroke-width: 0.8"/>
      </defs>
      <g>
       <use xlink:href="#mafae4ccee8" x="43.78125" y="305.633411" style="stroke: #000000; stroke-width: 0.8"/>
      </g>
     </g>
     <g id="text_10">
      <!-- 0.2 -->
      <g transform="translate(20.878125 309.43263) scale(0.1 -0.1)">
       <defs>
        <path id="DejaVuSans-2e" d="M 684 794 
L 1344 794 
L 1344 0 
L 684 0 
L 684 794 
z
" transform="scale(0.015625)"/>
       </defs>
       <use xlink:href="#DejaVuSans-30"/>
       <use xlink:href="#DejaVuSans-2e" transform="translate(63.623047 0)"/>
       <use xlink:href="#DejaVuSans-32" transform="translate(95.410156 0)"/>
      </g>
     </g>
    </g>
    <g id="ytick_2">
     <g id="line2d_19">
      <path d="M 43.78125 229.708731 
L 597.26125 229.708731 
" clip-path="url(#p3eb4911646)" style="fill: none; stroke: #b0b0b0; stroke-opacity: 0.3; stroke-width: 0.8; stroke-linecap: square"/>
     </g>
     <g id="line2d_20">
      <g>
       <use xlink:href="#mafae4ccee8" x="43.78125" y="229.708731" style="stroke: #000000; stroke-width: 0.8"/>
      </g>
     </g>
     <g id="text_11">
      <!-- 0.4 -->
      <g transform="translate(20.878125 233.50795) scale(0.1 -0.1)">
       <use xlink:href="#DejaVuSans-30"/>
       <use xlink:href="#DejaVuSans-2e" transform="translate(63.623047 0)"/>
       <use xlink:href="#DejaVuSans-34" transform="translate(95.410156 0)"/>
      </g>
     </g>
    </g>
    <g id="ytick_3">
     <g id="line2d_21">
      <path d="M 43.78125 153.784051 
L 597.26125 153.784051 
" clip-path="url(#p3eb4911646)" style="fill: none; stroke: #b0b0b0; stroke-opacity: 0.3; stroke-width: 0.8; stroke-linecap: square"/>
     </g>
     <g id="line2d_22">
      <g>
       <use xlink:href="#mafae4ccee8" x="43.78125" y="153.784051" style="stroke: #000000; stroke-width: 0.8"/>
      </g>
     </g>
     <g id="text_12">
      <!-- 0.6 -->
      <g transform="translate(20.878125 157.58327) scale(0.1 -0.1)">
       <use xlink:href="#DejaVuSans-30"/>
       <use xlink:href="#DejaVuSans-2e" transform="translate(63.623047 0)"/>
       <use xlink:href="#DejaVuSans-36" transform="translate(95.410156 0)"/>
      </g>
     </g>
    </g>
    <g id="ytick_4">
     <g id="line2d_23">
      <path d="M 43.78125 77.859371 
L 597.26125 77.859371 
" clip-path="url(#p3eb4911646)" style="fill: none; stroke: #b0b0b0; stroke-opacity: 0.3; stroke-width: 0.8; stroke-linecap: square"/>
     </g>
     <g id="line2d_24">
      <g>
       <use xlink:href="#mafae4ccee8" x="43.78125" y="77.859371" style="stroke: #000000; stroke-width: 0.8"/>
      </g>
     </g>
     <g id="text_13">
      <!-- 0.8 -->
      <g transform="translate(20.878125 81.65859) scale(0.1 -0.1)">
       <defs>
        <path id="DejaVuSans-38" d="M 2034 2216 
Q 1584 2216 1326 1975 
Q 1069 1734 1069 1313 
Q 1069 891 1326 650 
Q 1584 409 2034 409 
Q 2484 409 2743 651 
Q 3003 894 3003 1313 
Q 3003 1734 2745 1975 
Q 2488 2216 2034 2216 
z
M 1403 2484 
Q 997 2584 770 2862 
Q 544 3141 544 3541 
Q 544 4100 942 4425 
Q 1341 4750 2034 4750 
Q 2731 4750 3128 4425 
Q 3525 4100 3525 3541 
Q 3525 3141 3298 2862 
Q 3072 2584 2669 2484 
Q 3125 2378 3379 2068 
Q 3634 1759 3634 1313 
Q 3634 634 3220 271 
Q 2806 -91 2034 -91 
Q 1263 -91 848 271 
Q 434 634 434 1313 
Q 434 1759 690 2068 
Q 947 2378 1403 2484 
z
M 1172 3481 
Q 1172 3119 1398 2916 
Q 1625 2713 2034 2713 
Q 2441 2713 2670 2916 
Q 2900 3119 2900 3481 
Q 2900 3844 2670 4047 
Q 2441 4250 2034 4250 
Q 1625 4250 1398 4047 
Q 1172 3844 1172 3481 
z
" transform="scale(0.015625)"/>
       </defs>
       <use xlink:href="#DejaVuSans-30"/>
       <use xlink:href="#DejaVuSans-2e" transform="translate(63.623047 0)"/>
       <use xlink:href="#DejaVuSans-38" transform="translate(95.410156 0)"/>
      </g>
     </g>
    </g>
    <g id="text_14">
     <!-- Acceptance -->
     <g transform="translate(14.798438 225.798906) rotate(-90) scale(0.1 -0.1)">
      <defs>
       <path id="DejaVuSans-41" d="M 2188 4044 
L 1331 1722 
L 3047 1722 
L 2188 4044 
z
M 1831 4666 
L 2547 4666 
L 4325 0 
L 3669 0 
L 3244 1197 
L 1141 1197 
L 716 0 
L 50 0 
L 1831 4666 
z
" transform="scale(0.015625)"/>
       <path id="DejaVuSans-63" d="M 3122 3366 
L 3122 2828 
Q 2878 2963 2633 3030 
Q 2388 3097 2138 3097 
Q 1578 3097 1268 2742 
Q 959 2388 959 1747 
Q 959 1106 1268 751 
Q 1578 397 2138 397 
Q 2388 397 2633 464 
Q 2878 531 3122 666 
L 3122 134 
Q 2881 22 2623 -34 
Q 2366 -91 2075 -91 
Q 1284 -91 818 406 
Q 353 903 353 1747 
Q 353 2603 823 3093 
Q 1294 3584 2113 3584 
Q 2378 3584 2631 3529 
Q 2884 3475 3122 3366 
z
" transform="scale(0.015625)"/>
      </defs>
      <use xlink:href="#DejaVuSans-41"/>
      <use xlink:href="#DejaVuSans-63" transform="translate(66.658203 0)"/>
      <use xlink:href="#DejaVuSans-63" transform="translate(121.638672 0)"/>
      <use xlink:href="#DejaVuSans-65" transform="translate(176.619141 0)"/>
      <use xlink:href="#DejaVuSans-70" transform="translate(238.142578 0)"/>
      <use xlink:href="#DejaVuSans-74" transform="translate(301.619141 0)"/>
      <use xlink:href="#DejaVuSans-61" transform="translate(340.828125 0)"/>
      <use xlink:href="#DejaVuSans-6e" transform="translate(402.107422 0)"/>
      <use xlink:href="#DejaVuSans-63" transform="translate(465.486328 0)"/>
      <use xlink:href="#DejaVuSans-65" transform="translate(520.466797 0)"/>
     </g>
    </g>
   </g>
   <g id="LineCollection_1">
    <path d="M 91.742934 77.551641 
L 91.742934 66.019153 
" clip-path="url(#p3eb4911646)" style="fill: none; stroke: #1f77b4; stroke-width: 2"/>
    <path d="M 189.545183 209.350221 
L 189.545183 194.490376 
" clip-path="url(#p3eb4911646)" style="fill: none; stroke: #1f77b4; stroke-width: 2"/>
    <path d="M 242.980371 246.328507 
L 242.980371 231.918276 
" clip-path="url(#p3eb4911646)" style="fill: none; stroke: #1f77b4; stroke-width: 2"/>
    <path d="M 280.265252 246.779429 
L 280.265252 232.37845 
" clip-path="url(#p3eb4911646)" style="fill: none; stroke: #1f77b4; stroke-width: 2"/>
    <path d="M 308.632683 271.504253 
L 308.632683 257.763915 
" clip-path="url(#p3eb4911646)" style="fill: none; stroke: #1f77b4; stroke-width: 2"/>
    <path d="M 337.365473 288.045811 
L 337.365473 274.932915 
" clip-path="url(#p3eb4911646)" style="fill: none; stroke: #1f77b4; stroke-width: 2"/>
    <path d="M 379.626118 317.47363 
L 379.626118 305.941141 
" clip-path="url(#p3eb4911646)" style="fill: none; stroke: #1f77b4; stroke-width: 2"/>
    <path d="M 430.085531 330.074254 
L 430.085531 319.458607 
" clip-path="url(#p3eb4911646)" style="fill: none; stroke: #1f77b4; stroke-width: 2"/>
    <path d="M 481.912542 340.983993 
L 481.912542 331.326272 
" clip-path="url(#p3eb4911646)" style="fill: none; stroke: #1f77b4; stroke-width: 2"/>
    <path d="M 549.758525 355.082749 
L 549.758525 346.989991 
" clip-path="url(#p3eb4911646)" style="fill: none; stroke: #1f77b4; stroke-width: 2"/>
   </g>
   <g id="line2d_25">
    <defs>
     <path id="m55cffeadf0" d="M 2 0 
L -2 -0 
" style="stroke: #1f77b4"/>
    </defs>
    <g clip-path="url(#p3eb4911646)">
     <use xlink:href="#m55cffeadf0" x="91.742934" y="77.551641" style="fill: #1f77b4; stroke: #1f77b4"/>
     <use xlink:href="#m55cffeadf0" x="189.545183" y="209.350221" style="fill: #1f77b4; stroke: #1f77b4"/>
     <use xlink:href="#m55cffeadf0" x="242.980371" y="246.328507" style="fill: #1f77b4; stroke: #1f77b4"/>
     <use xlink:href="#m55cffeadf0" x="280.265252" y="246.779429" style="fill: #1f77b4; stroke: #1f77b4"/>
     <use xlink:href="#m55cffeadf0" x="308.632683" y="271.504253" style="fill: #1f77b4; stroke: #1f77b4"/>
     <use xlink:href="#m55cffeadf0" x="337.365473" y="288.045811" style="fill: #1f77b4; stroke: #1f77b4"/>
     <use xlink:href="#m55cffeadf0" x="379.626118" y="317.47363" style="fill: #1f77b4; stroke: #1f77b4"/>
     <use xlink:href="#m55cffeadf0" x="430.085531" y="330.074254" style="fill: #1f77b4; stroke: #1f77b4"/>
     <use xlink:href="#m55cffeadf0" x="481.912542" y="340.983993" style="fill: #1f77b4; stroke: #1f77b4"/>
     <use xlink:href="#m55cffeadf0" x="549.758525" y="355.082749" style="fill: #1f77b4; stroke: #1f77b4"/>
    </g>
   </g>
   <g id="line2d_26">
    <g clip-path="url(#p3eb4911646)">
     <use xlink:href="#m55cffeadf0" x="91.742934" y="66.019153" style="fill: #1f77b4; stroke: #1f77b4"/>
     <use xlink:href="#m55cffeadf0" x="189.545183" y="194.490376" style="fill: #1f77b4; stroke: #1f77b4"/>
     <use xlink:href="#m55cffeadf0" x="242.980371" y="231.918276" style="fill: #1f77b4; stroke: #1f77b4"/>
     <use xlink:href="#m55cffeadf0" x="280.265252" y="232.37845" style="fill: #1f77b4; stroke: #1f77b4"/>
     <use xlink:href="#m55cffeadf0" x="308.632683" y="257.763915" style="fill: #1f77b4; stroke: #1f77b4"/>
     <use xlink:href="#m55cffeadf0" x="337.365473" y="274.932915" style="fill: #1f77b4; stroke: #1f77b4"/>
     <use xlink:href="#m55cffeadf0" x="379.626118" y="305.941141" style="fill: #1f77b4; stroke: #1f77b4"/>
     <use xlink:href="#m55cffeadf0" x="430.085531" y="319.458607" style="fill: #1f77b4; stroke: #1f77b4"/>
     <use xlink:href="#m55cffeadf0" x="481.912542" y="331.326272" style="fill: #1f77b4; stroke: #1f77b4"/>
     <use xlink:href="#m55cffeadf0" x="549.758525" y="346.989991" style="fill: #1f77b4; stroke: #1f77b4"/>
    </g>
   </g>
   <g id="line2d_27">
    <path d="M 91.742934 75.009999 
L 189.545183 204.510099 
L 242.980371 238.455194 
L 280.265252 245.173347 
L 308.632683 259.424688 
L 337.365473 282.861328 
L 379.626118 304.155592 
L 430.085531 323.712547 
L 481.912542 339.131084 
L 549.758525 352.155914 
" clip-path="url(#p3eb4911646)" style="fill: none; stroke-dasharray: 5.92,2.56; stroke-dashoffset: 0; stroke: #ff7f0e; stroke-opacity: 0.85; stroke-width: 1.6"/>
   </g>
   <g id="LineCollection_2">
    <path d="M 81.48277 63.718755 
L 81.48277 53.126551 
" clip-path="url(#p3eb4911646)" style="fill: none; stroke: #2ca02c; stroke-width: 2"/>
    <path d="M 143.488727 173.914113 
L 143.488727 159.164681 
" clip-path="url(#p3eb4911646)" style="fill: none; stroke: #2ca02c; stroke-width: 2"/>
    <path d="M 187.082436 172.3874 
L 187.082436 157.654408 
" clip-path="url(#p3eb4911646)" style="fill: none; stroke: #2ca02c; stroke-width: 2"/>
    <path d="M 245.37166 246.328507 
L 245.37166 231.918276 
" clip-path="url(#p3eb4911646)" style="fill: none; stroke: #2ca02c; stroke-width: 2"/>
    <path d="M 304.252653 278.219846 
L 304.252653 264.714764 
" clip-path="url(#p3eb4911646)" style="fill: none; stroke: #2ca02c; stroke-width: 2"/>
    <path d="M 352.985321 309.521614 
L 352.985321 297.493426 
" clip-path="url(#p3eb4911646)" style="fill: none; stroke: #2ca02c; stroke-width: 2"/>
    <path d="M 399.430063 322.318732 
L 399.430063 311.118097 
" clip-path="url(#p3eb4911646)" style="fill: none; stroke: #2ca02c; stroke-width: 2"/>
    <path d="M 445.391886 345.32193 
L 445.391886 336.099297 
" clip-path="url(#p3eb4911646)" style="fill: none; stroke: #2ca02c; stroke-width: 2"/>
    <path d="M 498.672013 348.779408 
L 498.672013 339.930588 
" clip-path="url(#p3eb4911646)" style="fill: none; stroke: #2ca02c; stroke-width: 2"/>
    <path d="M 565.01285 354.797362 
L 565.01285 346.66798 
" clip-path="url(#p3eb4911646)" style="fill: none; stroke: #2ca02c; stroke-width: 2"/>
   </g>
   <g id="line2d_28">
    <defs>
     <path id="m66c3287140" d="M 2 0 
L -2 -0 
" style="stroke: #2ca02c"/>
    </defs>
    <g clip-path="url(#p3eb4911646)">
     <use xlink:href="#m66c3287140" x="81.48277" y="63.718755" style="fill: #2ca02c; stroke: #2ca02c"/>
     <use xlink:href="#m66c3287140" x="143.488727" y="173.914113" style="fill: #2ca02c; stroke: #2ca02c"/>
     <use xlink:href="#m66c3287140" x="187.082436" y="172.3874" style="fill: #2ca02c; stroke: #2ca02c"/>
     <use xlink:href="#m66c3287140" x="245.37166" y="246.328507" style="fill: #2ca02c; stroke: #2ca02c"/>
     <use xlink:href="#m66c3287140" x="304.252653" y="278.219846" style="fill: #2ca02c; stroke: #2ca02c"/>
     <use xlink:href="#m66c3287140" x="352.985321" y="309.521614" style="fill: #2ca02c; stroke: #2ca02c"/>
     <use xlink:href="#m66c3287140" x="399.430063" y="322.318732" style="fill: #2ca02c; stroke: #2ca02c"/>
     <use xlink:href="#m66c3287140" x="445.391886" y="345.32193" style="fill: #2ca02c; stroke: #2ca02c"/>
     <use xlink:href="#m66c3287140" x="498.672013" y="348.779408" style="fill: #2ca02c; stroke: #2ca02c"/>
     <use xlink:href="#m66c3287140" x="565.01285" y="354.797362" style="fill: #2ca02c; stroke: #2ca02c"/>
    </g>
   </g>
   <g id="line2d_29">
    <g clip-path="url(#p3eb4911646)">
     <use xlink:href="#m66c3287140" x="81.48277" y="53.126551" style="fill: #2ca02c; stroke: #2ca02c"/>
     <use xlink:href="#m66c3287140" x="143.488727" y="159.164681" style="fill: #2ca02c; stroke: #2ca02c"/>
     <use xlink:href="#m66c3287140" x="187.082436" y="157.654408" style="fill: #2ca02c; stroke: #2ca02c"/>
     <use xlink:href="#m66c3287140" x="245.37166" y="231.918276" style="fill: #2ca02c; stroke: #2ca02c"/>
     <use xlink:href="#m66c3287140" x="304.252653" y="264.714764" style="fill: #2ca02c; stroke: #2ca02c"/>
     <use xlink:href="#m66c3287140" x="352.985321" y="297.493426" style="fill: #2ca02c; stroke: #2ca02c"/>
     <use xlink:href="#m66c3287140" x="399.430063" y="311.118097" style="fill: #2ca02c; stroke: #2ca02c"/>
     <use xlink:href="#m66c3287140" x="445.391886" y="336.099297" style="fill: #2ca02c; stroke: #2ca02c"/>
     <use xlink:href="#m66c3287140" x="498.672013" y="339.930588" style="fill: #2ca02c; stroke: #2ca02c"/>
     <use xlink:href="#m66c3287140" x="565.01285" y="346.66798" style="fill: #2ca02c; stroke: #2ca02c"/>
    </g>
   </g>
   <g id="line2d_30">
    <path d="M 81.48277 58.920392 
L 143.488727 165.858816 
L 187.082436 161.687199 
L 245.37166 239.784413 
L 304.252653 277.041005 
L 352.985321 301.591328 
L 399.430063 317.068193 
L 445.391886 338.781769 
L 498.672013 344.032616 
L 565.01285 353.293508 
" clip-path="url(#p3eb4911646)" style="fill: none; stroke-dasharray: 5.92,2.56; stroke-dashoffset: 0; stroke: #d62728; stroke-opacity: 0.85; stroke-width: 1.6"/>
   </g>
   <g id="LineCollection_3">
    <path d="M 68.939432 47.393486 
L 68.939432 38.170852 
" clip-path="url(#p3eb4911646)" style="fill: none; stroke: #9467bd; stroke-width: 2"/>
    <path d="M 127.409327 144.205984 
L 127.409327 129.955259 
" clip-path="url(#p3eb4911646)" style="fill: none; stroke: #9467bd; stroke-width: 2"/>
    <path d="M 188.53121 221.00378 
L 188.53121 206.221618 
" clip-path="url(#p3eb4911646)" style="fill: none; stroke: #9467bd; stroke-width: 2"/>
    <path d="M 245.776224 250.835584 
L 245.776224 236.522161 
" clip-path="url(#p3eb4911646)" style="fill: none; stroke: #9467bd; stroke-width: 2"/>
    <path d="M 299.402821 286.410182 
L 299.402821 273.227858 
" clip-path="url(#p3eb4911646)" style="fill: none; stroke: #9467bd; stroke-width: 2"/>
    <path d="M 347.283897 302.578853 
L 347.283897 290.162348 
" clip-path="url(#p3eb4911646)" style="fill: none; stroke: #9467bd; stroke-width: 2"/>
    <path d="M 395.083173 319.383691 
L 395.083173 307.979164 
" clip-path="url(#p3eb4911646)" style="fill: none; stroke: #9467bd; stroke-width: 2"/>
    <path d="M 444.359474 331.971151 
L 444.359474 321.509794 
" clip-path="url(#p3eb4911646)" style="fill: none; stroke: #9467bd; stroke-width: 2"/>
    <path d="M 498.945862 347.0522 
L 498.945862 338.013411 
" clip-path="url(#p3eb4911646)" style="fill: none; stroke: #9467bd; stroke-width: 2"/>
    <path d="M 572.103068 355.225398 
L 572.103068 347.151041 
" clip-path="url(#p3eb4911646)" style="fill: none; stroke: #9467bd; stroke-width: 2"/>
   </g>
   <g id="line2d_31">
    <defs>
     <path id="m11543b47af" d="M 2 0 
L -2 -0 
" style="stroke: #9467bd"/>
    </defs>
    <g clip-path="url(#p3eb4911646)">
     <use xlink:href="#m11543b47af" x="68.939432" y="47.393486" style="fill: #9467bd; stroke: #9467bd"/>
     <use xlink:href="#m11543b47af" x="127.409327" y="144.205984" style="fill: #9467bd; stroke: #9467bd"/>
     <use xlink:href="#m11543b47af" x="188.53121" y="221.00378" style="fill: #9467bd; stroke: #9467bd"/>
     <use xlink:href="#m11543b47af" x="245.776224" y="250.835584" style="fill: #9467bd; stroke: #9467bd"/>
     <use xlink:href="#m11543b47af" x="299.402821" y="286.410182" style="fill: #9467bd; stroke: #9467bd"/>
     <use xlink:href="#m11543b47af" x="347.283897" y="302.578853" style="fill: #9467bd; stroke: #9467bd"/>
     <use xlink:href="#m11543b47af" x="395.083173" y="319.383691" style="fill: #9467bd; stroke: #9467bd"/>
     <use xlink:href="#m11543b47af" x="444.359474" y="331.971151" style="fill: #9467bd; stroke: #9467bd"/>
     <use xlink:href="#m11543b47af" x="498.945862" y="347.0522" style="fill: #9467bd; stroke: #9467bd"/>
     <use xlink:href="#m11543b47af" x="572.103068" y="355.225398" style="fill: #9467bd; stroke: #9467bd"/>
    </g>
   </g>
   <g id="line2d_32">
    <g clip-path="url(#p3eb4911646)">
     <use xlink:href="#m11543b47af" x="68.939432" y="38.170852" style="fill: #9467bd; stroke: #9467bd"/>
     <use xlink:href="#m11543b47af" x="127.409327" y="129.955259" style="fill: #9467bd; stroke: #9467bd"/>
     <use xlink:href="#m11543b47af" x="188.53121" y="206.221618" style="fill: #9467bd; stroke: #9467bd"/>
     <use xlink:href="#m11543b47af" x="245.776224" y="236.522161" style="fill: #9467bd; stroke: #9467bd"/>
     <use xlink:href="#m11543b47af" x="299.402821" y="273.227858" style="fill: #9467bd; stroke: #9467bd"/>
     <use xlink:href="#m11543b47af" x="347.283897" y="290.162348" style="fill: #9467bd; stroke: #9467bd"/>
     <use xlink:href="#m11543b47af" x="395.083173" y="307.979164" style="fill: #9467bd; stroke: #9467bd"/>
     <use xlink:href="#m11543b47af" x="444.359474" y="321.509794" style="fill: #9467bd; stroke: #9467bd"/>
     <use xlink:href="#m11543b47af" x="498.945862" y="338.013411" style="fill: #9467bd; stroke: #9467bd"/>
     <use xlink:href="#m11543b47af" x="572.103068" y="347.151041" style="fill: #9467bd; stroke: #9467bd"/>
    </g>
   </g>
   <g id="line2d_33">
    <path d="M 68.939432 42.259966 
L 127.409327 134.396979 
L 188.53121 211.298623 
L 245.776224 248.252913 
L 299.402821 271.134709 
L 347.283897 292.7653 
L 395.083173 312.08107 
L 444.359474 327.822182 
L 498.945862 343.884257 
L 572.103068 351.042141 
" clip-path="url(#p3eb4911646)" style="fill: none; stroke-dasharray: 5.92,2.56; stroke-dashoffset: 0; stroke: #8c564b; stroke-opacity: 0.85; stroke-width: 1.6"/>
   </g>
   <g id="line2d_34">
    <path d="M 91.742934 71.785397 
L 189.545183 201.920298 
L 242.980371 239.123392 
L 280.265252 239.57894 
L 308.632683 264.634084 
L 337.365473 281.489363 
L 379.626118 311.707386 
L 430.085531 324.766431 
L 481.912542 336.155133 
L 549.758525 351.03637 
" clip-path="url(#p3eb4911646)" style="fill: none; stroke: #1f77b4; stroke-width: 2; stroke-linecap: square"/>
    <defs>
     <path id="ma7fdc93548" d="M 0 3 
C 0.795609 3 1.55874 2.683901 2.12132 2.12132 
C 2.683901 1.55874 3 0.795609 3 0 
C 3 -0.795609 2.683901 -1.55874 2.12132 -2.12132 
C 1.55874 -2.683901 0.795609 -3 0 -3 
C -0.795609 -3 -1.55874 -2.683901 -2.12132 -2.12132 
C -2.683901 -1.55874 -3 -0.795609 -3 0 
C -3 0.795609 -2.683901 1.55874 -2.12132 2.12132 
C -1.55874 2.683901 -0.795609 3 0 3 
z
" style="stroke: #1f77b4"/>
    </defs>
    <g clip-path="url(#p3eb4911646)">
     <use xlink:href="#ma7fdc93548" x="91.742934" y="71.785397" style="fill: #1f77b4; stroke: #1f77b4"/>
     <use xlink:href="#ma7fdc93548" x="189.545183" y="201.920298" style="fill: #1f77b4; stroke: #1f77b4"/>
     <use xlink:href="#ma7fdc93548" x="242.980371" y="239.123392" style="fill: #1f77b4; stroke: #1f77b4"/>
     <use xlink:href="#ma7fdc93548" x="280.265252" y="239.57894" style="fill: #1f77b4; stroke: #1f77b4"/>
     <use xlink:href="#ma7fdc93548" x="308.632683" y="264.634084" style="fill: #1f77b4; stroke: #1f77b4"/>
     <use xlink:href="#ma7fdc93548" x="337.365473" y="281.489363" style="fill: #1f77b4; stroke: #1f77b4"/>
     <use xlink:href="#ma7fdc93548" x="379.626118" y="311.707386" style="fill: #1f77b4; stroke: #1f77b4"/>
     <use xlink:href="#ma7fdc93548" x="430.085531" y="324.766431" style="fill: #1f77b4; stroke: #1f77b4"/>
     <use xlink:href="#ma7fdc93548" x="481.912542" y="336.155133" style="fill: #1f77b4; stroke: #1f77b4"/>
     <use xlink:href="#ma7fdc93548" x="549.758525" y="351.03637" style="fill: #1f77b4; stroke: #1f77b4"/>
    </g>
   </g>
   <g id="line2d_35">
    <path d="M 81.48277 58.422653 
L 143.488727 166.539397 
L 187.082436 165.020904 
L 245.37166 239.123392 
L 304.252653 271.467305 
L 352.985321 303.50752 
L 399.430063 316.718415 
L 445.391886 340.710613 
L 498.672013 344.354998 
L 565.01285 350.732671 
" clip-path="url(#p3eb4911646)" style="fill: none; stroke: #2ca02c; stroke-width: 2; stroke-linecap: square"/>
    <defs>
     <path id="mda6cc32044" d="M 0 3 
C 0.795609 3 1.55874 2.683901 2.12132 2.12132 
C 2.683901 1.55874 3 0.795609 3 0 
C 3 -0.795609 2.683901 -1.55874 2.12132 -2.12132 
C 1.55874 -2.683901 0.795609 -3 0 -3 
C -0.795609 -3 -1.55874 -2.683901 -2.12132 -2.12132 
C -2.683901 -1.55874 -3 -0.795609 -3 0 
C -3 0.795609 -2.683901 1.55874 -2.12132 2.12132 
C -1.55874 2.683901 -0.795609 3 0 3 
z
" style="stroke: #2ca02c"/>
    </defs>
    <g clip-path="url(#p3eb4911646)">
     <use xlink:href="#mda6cc32044" x="81.48277" y="58.422653" style="fill: #2ca02c; stroke: #2ca02c"/>
     <use xlink:href="#mda6cc32044" x="143.488727" y="166.539397" style="fill: #2ca02c; stroke: #2ca02c"/>
     <use xlink:href="#mda6cc32044" x="187.082436" y="165.020904" style="fill: #2ca02c; stroke: #2ca02c"/>
     <use xlink:href="#mda6cc32044" x="245.37166" y="239.123392" style="fill: #2ca02c; stroke: #2ca02c"/>
     <use xlink:href="#mda6cc32044" x="304.252653" y="271.467305" style="fill: #2ca02c; stroke: #2ca02c"/>
     <use xlink:href="#mda6cc32044" x="352.985321" y="303.50752" style="fill: #2ca02c; stroke: #2ca02c"/>
     <use xlink:href="#mda6cc32044" x="399.430063" y="316.718415" style="fill: #2ca02c; stroke: #2ca02c"/>
     <use xlink:href="#mda6cc32044" x="445.391886" y="340.710613" style="fill: #2ca02c; stroke: #2ca02c"/>
     <use xlink:href="#mda6cc32044" x="498.672013" y="344.354998" style="fill: #2ca02c; stroke: #2ca02c"/>
     <use xlink:href="#mda6cc32044" x="565.01285" y="350.732671" style="fill: #2ca02c; stroke: #2ca02c"/>
    </g>
   </g>
   <g id="line2d_36">
    <path d="M 68.939432 42.782169 
L 127.409327 137.080622 
L 188.53121 213.612699 
L 245.776224 243.678872 
L 299.402821 279.81902 
L 347.283897 296.3706 
L 395.083173 313.681427 
L 444.359474 326.740472 
L 498.945862 342.532806 
L 572.103068 351.188219 
" clip-path="url(#p3eb4911646)" style="fill: none; stroke: #9467bd; stroke-width: 2; stroke-linecap: square"/>
    <defs>
     <path id="m7c764e3221" d="M 0 3 
C 0.795609 3 1.55874 2.683901 2.12132 2.12132 
C 2.683901 1.55874 3 0.795609 3 0 
C 3 -0.795609 2.683901 -1.55874 2.12132 -2.12132 
C 1.55874 -2.683901 0.795609 -3 0 -3 
C -0.795609 -3 -1.55874 -2.683901 -2.12132 -2.12132 
C -2.683901 -1.55874 -3 -0.795609 -3 0 
C -3 0.795609 -2.683901 1.55874 -2.12132 2.12132 
C -1.55874 2.683901 -0.795609 3 0 3 
z
" style="stroke: #9467bd"/>
    </defs>
    <g clip-path="url(#p3eb4911646)">
     <use xlink:href="#m7c764e3221" x="68.939432" y="42.782169" style="fill: #9467bd; stroke: #9467bd"/>
     <use xlink:href="#m7c764e3221" x="127.409327" y="137.080622" style="fill: #9467bd; stroke: #9467bd"/>
     <use xlink:href="#m7c764e3221" x="188.53121" y="213.612699" style="fill: #9467bd; stroke: #9467bd"/>
     <use xlink:href="#m7c764e3221" x="245.776224" y="243.678872" style="fill: #9467bd; stroke: #9467bd"/>
     <use xlink:href="#m7c764e3221" x="299.402821" y="279.81902" style="fill: #9467bd; stroke: #9467bd"/>
     <use xlink:href="#m7c764e3221" x="347.283897" y="296.3706" style="fill: #9467bd; stroke: #9467bd"/>
     <use xlink:href="#m7c764e3221" x="395.083173" y="313.681427" style="fill: #9467bd; stroke: #9467bd"/>
     <use xlink:href="#m7c764e3221" x="444.359474" y="326.740472" style="fill: #9467bd; stroke: #9467bd"/>
     <use xlink:href="#m7c764e3221" x="498.945862" y="342.532806" style="fill: #9467bd; stroke: #9467bd"/>
     <use xlink:href="#m7c764e3221" x="572.103068" y="351.188219" style="fill: #9467bd; stroke: #9467bd"/>
    </g>
   </g>
   <g id="patch_3">
    <path d="M 43.78125 371.078125 
L 43.78125 22.318125 
" style="fill: none; stroke: #000000; stroke-width: 0.8; stroke-linejoin: miter; stroke-linecap: square"/>
   </g>
   <g id="patch_4">
    <path d="M 597.26125 371.078125 
L 597.26125 22.318125 
" style="fill: none; stroke: #000000; stroke-width: 0.8; stroke-linejoin: miter; stroke-linecap: square"/>
   </g>
   <g id="patch_5">
    <path d="M 43.78125 371.078125 
L 597.26125 371.078125 
" style="fill: none; stroke: #000000; stroke-width: 0.8; stroke-linejoin: miter; stroke-linecap: square"/>
   </g>
   <g id="patch_6">
    <path d="M 43.78125 22.318125 
L 597.26125 22.318125 
" style="fill: none; stroke: #000000; stroke-width: 0.8; stroke-linejoin: miter; stroke-linecap: square"/>
   </g>
   <g id="text_15">
    <!-- Balanced natural-prefix corpus: draft entropy vs acceptance -->
    <g transform="translate(139.57625 16.318125) scale(0.12 -0.12)">
     <defs>
      <path id="DejaVuSans-42" d="M 1259 2228 
L 1259 519 
L 2272 519 
Q 2781 519 3026 730 
Q 3272 941 3272 1375 
Q 3272 1813 3026 2020 
Q 2781 2228 2272 2228 
L 1259 2228 
z
M 1259 4147 
L 1259 2741 
L 2194 2741 
Q 2656 2741 2882 2914 
Q 3109 3088 3109 3444 
Q 3109 3797 2882 3972 
Q 2656 4147 2194 4147 
L 1259 4147 
z
M 628 4666 
L 2241 4666 
Q 2963 4666 3353 4366 
Q 3744 4066 3744 3513 
Q 3744 3084 3544 2831 
Q 3344 2578 2956 2516 
Q 3422 2416 3680 2098 
Q 3938 1781 3938 1306 
Q 3938 681 3513 340 
Q 3088 0 2303 0 
L 628 0 
L 628 4666 
z
" transform="scale(0.015625)"/>
      <path id="DejaVuSans-6c" d="M 603 4863 
L 1178 4863 
L 1178 0 
L 603 0 
L 603 4863 
z
" transform="scale(0.015625)"/>
      <path id="DejaVuSans-64" d="M 2906 2969 
L 2906 4863 
L 3481 4863 
L 3481 0 
L 2906 0 
L 2906 525 
Q 2725 213 2448 61 
Q 2172 -91 1784 -91 
Q 1150 -91 751 415 
Q 353 922 353 1747 
Q 353 2572 751 3078 
Q 1150 3584 1784 3584 
Q 2172 3584 2448 3432 
Q 2725 3281 2906 2969 
z
M 947 1747 
Q 947 1113 1208 752 
Q 1469 391 1925 391 
Q 2381 391 2643 752 
Q 2906 1113 2906 1747 
Q 2906 2381 2643 2742 
Q 2381 3103 1925 3103 
Q 1469 3103 1208 2742 
Q 947 2381 947 1747 
z
" transform="scale(0.015625)"/>
      <path id="DejaVuSans-75" d="M 544 1381 
L 544 3500 
L 1119 3500 
L 1119 1403 
Q 1119 906 1312 657 
Q 1506 409 1894 409 
Q 2359 409 2629 706 
Q 2900 1003 2900 1516 
L 2900 3500 
L 3475 3500 
L 3475 0 
L 2900 0 
L 2900 538 
Q 2691 219 2414 64 
Q 2138 -91 1772 -91 
Q 1169 -91 856 284 
Q 544 659 544 1381 
z
M 1991 3584 
L 1991 3584 
z
" transform="scale(0.015625)"/>
      <path id="DejaVuSans-2d" d="M 313 2009 
L 1997 2009 
L 1997 1497 
L 313 1497 
L 313 2009 
z
" transform="scale(0.015625)"/>
      <path id="DejaVuSans-69" d="M 603 3500 
L 1178 3500 
L 1178 0 
L 603 0 
L 603 3500 
z
M 603 4863 
L 1178 4863 
L 1178 4134 
L 603 4134 
L 603 4863 
z
" transform="scale(0.015625)"/>
      <path id="DejaVuSans-78" d="M 3513 3500 
L 2247 1797 
L 3578 0 
L 2900 0 
L 1881 1375 
L 863 0 
L 184 0 
L 1544 1831 
L 300 3500 
L 978 3500 
L 1906 2253 
L 2834 3500 
L 3513 3500 
z
" transform="scale(0.015625)"/>
      <path id="DejaVuSans-3a" d="M 750 794 
L 1409 794 
L 1409 0 
L 750 0 
L 750 794 
z
M 750 3309 
L 1409 3309 
L 1409 2516 
L 750 2516 
L 750 3309 
z
" transform="scale(0.015625)"/>
      <path id="DejaVuSans-76" d="M 191 3500 
L 800 3500 
L 1894 563 
L 2988 3500 
L 3597 3500 
L 2284 0 
L 1503 0 
L 191 3500 
z
" transform="scale(0.015625)"/>
     </defs>
     <use xlink:href="#DejaVuSans-42"/>
     <use xlink:href="#DejaVuSans-61" transform="translate(68.603516 0)"/>
     <use xlink:href="#DejaVuSans-6c" transform="translate(129.882812 0)"/>
     <use xlink:href="#DejaVuSans-61" transform="translate(157.666016 0)"/>
     <use xlink:href="#DejaVuSans-6e" transform="translate(218.945312 0)"/>
     <use xlink:href="#DejaVuSans-63" transform="translate(282.324219 0)"/>
     <use xlink:href="#DejaVuSans-65" transform="translate(337.304688 0)"/>
     <use xlink:href="#DejaVuSans-64" transform="translate(398.828125 0)"/>
     <use xlink:href="#DejaVuSans-20" transform="translate(462.304688 0)"/>
     <use xlink:href="#DejaVuSans-6e" transform="translate(494.091797 0)"/>
     <use xlink:href="#DejaVuSans-61" transform="translate(557.470703 0)"/>
     <use xlink:href="#DejaVuSans-74" transform="translate(618.75 0)"/>
     <use xlink:href="#DejaVuSans-75" transform="translate(657.958984 0)"/>
     <use xlink:href="#DejaVuSans-72" transform="translate(721.337891 0)"/>
     <use xlink:href="#DejaVuSans-61" transform="translate(762.451172 0)"/>
     <use xlink:href="#DejaVuSans-6c" transform="translate(823.730469 0)"/>
     <use xlink:href="#DejaVuSans-2d" transform="translate(851.513672 0)"/>
     <use xlink:href="#DejaVuSans-70" transform="translate(887.597656 0)"/>
     <use xlink:href="#DejaVuSans-72" transform="translate(951.074219 0)"/>
     <use xlink:href="#DejaVuSans-65" transform="translate(989.9375 0)"/>
     <use xlink:href="#DejaVuSans-66" transform="translate(1051.460938 0)"/>
     <use xlink:href="#DejaVuSans-69" transform="translate(1086.666016 0)"/>
     <use xlink:href="#DejaVuSans-78" transform="translate(1114.449219 0)"/>
     <use xlink:href="#DejaVuSans-20" transform="translate(1173.628906 0)"/>
     <use xlink:href="#DejaVuSans-63" transform="translate(1205.416016 0)"/>
     <use xlink:href="#DejaVuSans-6f" transform="translate(1260.396484 0)"/>
     <use xlink:href="#DejaVuSans-72" transform="translate(1321.578125 0)"/>
     <use xlink:href="#DejaVuSans-70" transform="translate(1362.691406 0)"/>
     <use xlink:href="#DejaVuSans-75" transform="translate(1426.167969 0)"/>
     <use xlink:href="#DejaVuSans-73" transform="translate(1489.546875 0)"/>
     <use xlink:href="#DejaVuSans-3a" transform="translate(1541.646484 0)"/>
     <use xlink:href="#DejaVuSans-20" transform="translate(1575.337891 0)"/>
     <use xlink:href="#DejaVuSans-64" transform="translate(1607.125 0)"/>
     <use xlink:href="#DejaVuSans-72" transform="translate(1670.601562 0)"/>
     <use xlink:href="#DejaVuSans-61" transform="translate(1711.714844 0)"/>
     <use xlink:href="#DejaVuSans-66" transform="translate(1772.994141 0)"/>
     <use xlink:href="#DejaVuSans-74" transform="translate(1806.449219 0)"/>
     <use xlink:href="#DejaVuSans-20" transform="translate(1845.658203 0)"/>
     <use xlink:href="#DejaVuSans-65" transform="translate(1877.445312 0)"/>
     <use xlink:href="#DejaVuSans-6e" transform="translate(1938.96875 0)"/>
     <use xlink:href="#DejaVuSans-74" transform="translate(2002.347656 0)"/>
     <use xlink:href="#DejaVuSans-72" transform="translate(2041.556641 0)"/>
     <use xlink:href="#DejaVuSans-6f" transform="translate(2080.419922 0)"/>
     <use xlink:href="#DejaVuSans-70" transform="translate(2141.601562 0)"/>
     <use xlink:href="#DejaVuSans-79" transform="translate(2205.078125 0)"/>
     <use xlink:href="#DejaVuSans-20" transform="translate(2264.257812 0)"/>
     <use xlink:href="#DejaVuSans-76" transform="translate(2296.044922 0)"/>
     <use xlink:href="#DejaVuSans-73" transform="translate(2355.224609 0)"/>
     <use xlink:href="#DejaVuSans-20" transform="translate(2407.324219 0)"/>
     <use xlink:href="#DejaVuSans-61" transform="translate(2439.111328 0)"/>
     <use xlink:href="#DejaVuSans-63" transform="translate(2500.390625 0)"/>
     <use xlink:href="#DejaVuSans-63" transform="translate(2555.371094 0)"/>
     <use xlink:href="#DejaVuSans-65" transform="translate(2610.351562 0)"/>
     <use xlink:href="#DejaVuSans-70" transform="translate(2671.875 0)"/>
     <use xlink:href="#DejaVuSans-74" transform="translate(2735.351562 0)"/>
     <use xlink:href="#DejaVuSans-61" transform="translate(2774.560547 0)"/>
     <use xlink:href="#DejaVuSans-6e" transform="translate(2835.839844 0)"/>
     <use xlink:href="#DejaVuSans-63" transform="translate(2899.21875 0)"/>
     <use xlink:href="#DejaVuSans-65" transform="translate(2954.199219 0)"/>
    </g>
   </g>
   <g id="legend_1">
    <g id="patch_7">
     <path d="M 395.0825 63.945625 
L 591.66125 63.945625 
Q 593.26125 63.945625 593.26125 62.345625 
L 593.26125 27.918125 
Q 593.26125 26.318125 591.66125 26.318125 
L 395.0825 26.318125 
Q 393.4825 26.318125 393.4825 27.918125 
L 393.4825 62.345625 
Q 393.4825 63.945625 395.0825 63.945625 
z
" style="fill: #ffffff; opacity: 0.8; stroke: #cccccc; stroke-linejoin: miter"/>
    </g>
    <g id="line2d_37">
     <path d="M 396.6825 32.796875 
L 404.6825 32.796875 
L 412.6825 32.796875 
" style="fill: none; stroke-dasharray: 5.92,2.56; stroke-dashoffset: 0; stroke: #ff7f0e; stroke-opacity: 0.85; stroke-width: 1.6"/>
    </g>
    <g id="text_16">
     <!-- ctx=64 exact -->
     <g transform="translate(419.0825 35.596875) scale(0.08 -0.08)">
      <defs>
       <path id="DejaVuSans-3d" d="M 678 2906 
L 4684 2906 
L 4684 2381 
L 678 2381 
L 678 2906 
z
M 678 1631 
L 4684 1631 
L 4684 1100 
L 678 1100 
L 678 1631 
z
" transform="scale(0.015625)"/>
      </defs>
      <use xlink:href="#DejaVuSans-63"/>
      <use xlink:href="#DejaVuSans-74" transform="translate(54.980469 0)"/>
      <use xlink:href="#DejaVuSans-78" transform="translate(94.189453 0)"/>
      <use xlink:href="#DejaVuSans-3d" transform="translate(153.369141 0)"/>
      <use xlink:href="#DejaVuSans-36" transform="translate(237.158203 0)"/>
      <use xlink:href="#DejaVuSans-34" transform="translate(300.78125 0)"/>
      <use xlink:href="#DejaVuSans-20" transform="translate(364.404297 0)"/>
      <use xlink:href="#DejaVuSans-65" transform="translate(396.191406 0)"/>
      <use xlink:href="#DejaVuSans-78" transform="translate(455.964844 0)"/>
      <use xlink:href="#DejaVuSans-61" transform="translate(515.144531 0)"/>
      <use xlink:href="#DejaVuSans-63" transform="translate(576.423828 0)"/>
      <use xlink:href="#DejaVuSans-74" transform="translate(631.404297 0)"/>
     </g>
    </g>
    <g id="line2d_38">
     <path d="M 396.6825 44.539375 
L 404.6825 44.539375 
L 412.6825 44.539375 
" style="fill: none; stroke-dasharray: 5.92,2.56; stroke-dashoffset: 0; stroke: #d62728; stroke-opacity: 0.85; stroke-width: 1.6"/>
    </g>
    <g id="text_17">
     <!-- ctx=128 exact -->
     <g transform="translate(419.0825 47.339375) scale(0.08 -0.08)">
      <use xlink:href="#DejaVuSans-63"/>
      <use xlink:href="#DejaVuSans-74" transform="translate(54.980469 0)"/>
      <use xlink:href="#DejaVuSans-78" transform="translate(94.189453 0)"/>
      <use xlink:href="#DejaVuSans-3d" transform="translate(153.369141 0)"/>
      <use xlink:href="#DejaVuSans-31" transform="translate(237.158203 0)"/>
      <use xlink:href="#DejaVuSans-32" transform="translate(300.78125 0)"/>
      <use xlink:href="#DejaVuSans-38" transform="translate(364.404297 0)"/>
      <use xlink:href="#DejaVuSans-20" transform="translate(428.027344 0)"/>
      <use xlink:href="#DejaVuSans-65" transform="translate(459.814453 0)"/>
      <use xlink:href="#DejaVuSans-78" transform="translate(519.587891 0)"/>
      <use xlink:href="#DejaVuSans-61" transform="translate(578.767578 0)"/>
      <use xlink:href="#DejaVuSans-63" transform="translate(640.046875 0)"/>
      <use xlink:href="#DejaVuSans-74" transform="translate(695.027344 0)"/>
     </g>
    </g>
    <g id="line2d_39">
     <path d="M 396.6825 56.281875 
L 404.6825 56.281875 
L 412.6825 56.281875 
" style="fill: none; stroke-dasharray: 5.92,2.56; stroke-dashoffset: 0; stroke: #8c564b; stroke-opacity: 0.85; stroke-width: 1.6"/>
    </g>
    <g id="text_18">
     <!-- ctx=256 exact -->
     <g transform="translate(419.0825 59.081875) scale(0.08 -0.08)">
      <use xlink:href="#DejaVuSans-63"/>
      <use xlink:href="#DejaVuSans-74" transform="translate(54.980469 0)"/>
      <use xlink:href="#DejaVuSans-78" transform="translate(94.189453 0)"/>
      <use xlink:href="#DejaVuSans-3d" transform="translate(153.369141 0)"/>
      <use xlink:href="#DejaVuSans-32" transform="translate(237.158203 0)"/>
      <use xlink:href="#DejaVuSans-35" transform="translate(300.78125 0)"/>
      <use xlink:href="#DejaVuSans-36" transform="translate(364.404297 0)"/>
      <use xlink:href="#DejaVuSans-20" transform="translate(428.027344 0)"/>
      <use xlink:href="#DejaVuSans-65" transform="translate(459.814453 0)"/>
      <use xlink:href="#DejaVuSans-78" transform="translate(519.587891 0)"/>
      <use xlink:href="#DejaVuSans-61" transform="translate(578.767578 0)"/>
      <use xlink:href="#DejaVuSans-63" transform="translate(640.046875 0)"/>
      <use xlink:href="#DejaVuSans-74" transform="translate(695.027344 0)"/>
     </g>
    </g>
    <g id="LineCollection_4">
     <path d="M 501.82375 36.796875 
L 501.82375 28.796875 
" style="fill: none; stroke: #1f77b4; stroke-width: 2"/>
    </g>
    <g id="line2d_40">
     <g>
      <use xlink:href="#m55cffeadf0" x="501.82375" y="36.796875" style="fill: #1f77b4; stroke: #1f77b4"/>
     </g>
    </g>
    <g id="line2d_41">
     <g>
      <use xlink:href="#m55cffeadf0" x="501.82375" y="28.796875" style="fill: #1f77b4; stroke: #1f77b4"/>
     </g>
    </g>
    <g id="line2d_42">
     <path d="M 493.82375 32.796875 
L 509.82375 32.796875 
" style="fill: none; stroke: #1f77b4; stroke-width: 2; stroke-linecap: square"/>
    </g>
    <g id="line2d_43">
     <g>
      <use xlink:href="#ma7fdc93548" x="501.82375" y="32.796875" style="fill: #1f77b4; stroke: #1f77b4"/>
     </g>
    </g>
    <g id="text_19">
     <!-- ctx=64 empirical -->
     <g transform="translate(516.22375 35.596875) scale(0.08 -0.08)">
      <defs>
       <path id="DejaVuSans-6d" d="M 3328 2828 
Q 3544 3216 3844 3400 
Q 4144 3584 4550 3584 
Q 5097 3584 5394 3201 
Q 5691 2819 5691 2113 
L 5691 0 
L 5113 0 
L 5113 2094 
Q 5113 2597 4934 2840 
Q 4756 3084 4391 3084 
Q 3944 3084 3684 2787 
Q 3425 2491 3425 1978 
L 3425 0 
L 2847 0 
L 2847 2094 
Q 2847 2600 2669 2842 
Q 2491 3084 2119 3084 
Q 1678 3084 1418 2786 
Q 1159 2488 1159 1978 
L 1159 0 
L 581 0 
L 581 3500 
L 1159 3500 
L 1159 2956 
Q 1356 3278 1631 3431 
Q 1906 3584 2284 3584 
Q 2666 3584 2933 3390 
Q 3200 3197 3328 2828 
z
" transform="scale(0.015625)"/>
      </defs>
      <use xlink:href="#DejaVuSans-63"/>
      <use xlink:href="#DejaVuSans-74" transform="translate(54.980469 0)"/>
      <use xlink:href="#DejaVuSans-78" transform="translate(94.189453 0)"/>
      <use xlink:href="#DejaVuSans-3d" transform="translate(153.369141 0)"/>
      <use xlink:href="#DejaVuSans-36" transform="translate(237.158203 0)"/>
      <use xlink:href="#DejaVuSans-34" transform="translate(300.78125 0)"/>
      <use xlink:href="#DejaVuSans-20" transform="translate(364.404297 0)"/>
      <use xlink:href="#DejaVuSans-65" transform="translate(396.191406 0)"/>
      <use xlink:href="#DejaVuSans-6d" transform="translate(457.714844 0)"/>
      <use xlink:href="#DejaVuSans-70" transform="translate(555.126953 0)"/>
      <use xlink:href="#DejaVuSans-69" transform="translate(618.603516 0)"/>
      <use xlink:href="#DejaVuSans-72" transform="translate(646.386719 0)"/>
      <use xlink:href="#DejaVuSans-69" transform="translate(687.5 0)"/>
      <use xlink:href="#DejaVuSans-63" transform="translate(715.283203 0)"/>
      <use xlink:href="#DejaVuSans-61" transform="translate(770.263672 0)"/>
      <use xlink:href="#DejaVuSans-6c" transform="translate(831.542969 0)"/>
     </g>
    </g>
    <g id="LineCollection_5">
     <path d="M 501.82375 48.539375 
L 501.82375 40.539375 
" style="fill: none; stroke: #2ca02c; stroke-width: 2"/>
    </g>
    <g id="line2d_44">
     <g>
      <use xlink:href="#m66c3287140" x="501.82375" y="48.539375" style="fill: #2ca02c; stroke: #2ca02c"/>
     </g>
    </g>
    <g id="line2d_45">
     <g>
      <use xlink:href="#m66c3287140" x="501.82375" y="40.539375" style="fill: #2ca02c; stroke: #2ca02c"/>
     </g>
    </g>
    <g id="line2d_46">
     <path d="M 493.82375 44.539375 
L 509.82375 44.539375 
" style="fill: none; stroke: #2ca02c; stroke-width: 2; stroke-linecap: square"/>
    </g>
    <g id="line2d_47">
     <g>
      <use xlink:href="#mda6cc32044" x="501.82375" y="44.539375" style="fill: #2ca02c; stroke: #2ca02c"/>
     </g>
    </g>
    <g id="text_20">
     <!-- ctx=128 empirical -->
     <g transform="translate(516.22375 47.339375) scale(0.08 -0.08)">
      <use xlink:href="#DejaVuSans-63"/>
      <use xlink:href="#DejaVuSans-74" transform="translate(54.980469 0)"/>
      <use xlink:href="#DejaVuSans-78" transform="translate(94.189453 0)"/>
      <use xlink:href="#DejaVuSans-3d" transform="translate(153.369141 0)"/>
      <use xlink:href="#DejaVuSans-31" transform="translate(237.158203 0)"/>
      <use xlink:href="#DejaVuSans-32" transform="translate(300.78125 0)"/>
      <use xlink:href="#DejaVuSans-38" transform="translate(364.404297 0)"/>
      <use xlink:href="#DejaVuSans-20" transform="translate(428.027344 0)"/>
      <use xlink:href="#DejaVuSans-65" transform="translate(459.814453 0)"/>
      <use xlink:href="#DejaVuSans-6d" transform="translate(521.337891 0)"/>
      <use xlink:href="#DejaVuSans-70" transform="translate(618.75 0)"/>
      <use xlink:href="#DejaVuSans-69" transform="translate(682.226562 0)"/>
      <use xlink:href="#DejaVuSans-72" transform="translate(710.009766 0)"/>
      <use xlink:href="#DejaVuSans-69" transform="translate(751.123047 0)"/>
      <use xlink:href="#DejaVuSans-63" transform="translate(778.90625 0)"/>
      <use xlink:href="#DejaVuSans-61" transform="translate(833.886719 0)"/>
      <use xlink:href="#DejaVuSans-6c" transform="translate(895.166016 0)"/>
     </g>
    </g>
    <g id="LineCollection_6">
     <path d="M 501.82375 60.281875 
L 501.82375 52.281875 
" style="fill: none; stroke: #9467bd; stroke-width: 2"/>
    </g>
    <g id="line2d_48">
     <g>
      <use xlink:href="#m11543b47af" x="501.82375" y="60.281875" style="fill: #9467bd; stroke: #9467bd"/>
     </g>
    </g>
    <g id="line2d_49">
     <g>
      <use xlink:href="#m11543b47af" x="501.82375" y="52.281875" style="fill: #9467bd; stroke: #9467bd"/>
     </g>
    </g>
    <g id="line2d_50">
     <path d="M 493.82375 56.281875 
L 509.82375 56.281875 
" style="fill: none; stroke: #9467bd; stroke-width: 2; stroke-linecap: square"/>
    </g>
    <g id="line2d_51">
     <g>
      <use xlink:href="#m7c764e3221" x="501.82375" y="56.281875" style="fill: #9467bd; stroke: #9467bd"/>
     </g>
    </g>
    <g id="text_21">
     <!-- ctx=256 empirical -->
     <g transform="translate(516.22375 59.081875) scale(0.08 -0.08)">
      <use xlink:href="#DejaVuSans-63"/>
      <use xlink:href="#DejaVuSans-74" transform="translate(54.980469 0)"/>
      <use xlink:href="#DejaVuSans-78" transform="translate(94.189453 0)"/>
      <use xlink:href="#DejaVuSans-3d" transform="translate(153.369141 0)"/>
      <use xlink:href="#DejaVuSans-32" transform="translate(237.158203 0)"/>
      <use xlink:href="#DejaVuSans-35" transform="translate(300.78125 0)"/>
      <use xlink:href="#DejaVuSans-36" transform="translate(364.404297 0)"/>
      <use xlink:href="#DejaVuSans-20" transform="translate(428.027344 0)"/>
      <use xlink:href="#DejaVuSans-65" transform="translate(459.814453 0)"/>
      <use xlink:href="#DejaVuSans-6d" transform="translate(521.337891 0)"/>
      <use xlink:href="#DejaVuSans-70" transform="translate(618.75 0)"/>
      <use xlink:href="#DejaVuSans-69" transform="translate(682.226562 0)"/>
      <use xlink:href="#DejaVuSans-72" transform="translate(710.009766 0)"/>
      <use xlink:href="#DejaVuSans-69" transform="translate(751.123047 0)"/>
      <use xlink:href="#DejaVuSans-63" transform="translate(778.90625 0)"/>
      <use xlink:href="#DejaVuSans-61" transform="translate(833.886719 0)"/>
      <use xlink:href="#DejaVuSans-6c" transform="translate(895.166016 0)"/>
     </g>
    </g>
   </g>
  </g>
 </g>
 <defs>
  <clipPath id="p3eb4911646">
   <rect x="43.78125" y="22.318125" width="553.48" height="348.76"/>
  </clipPath>
 </defs>
</svg>
