<?xml version="1.0" encoding="utf-8" standalone="no"?>
<!DOCTYPE svg PUBLIC "-//W3C//DTD SVG 1.1//EN"
  "http://www.w3.org/Graphics/SVG/1.1/DTD/svg11.dtd">
<svg xmlns:xlink="http://www.w3.org/1999/xlink" width="576pt" height="360pt" viewBox="0 0 576 360" xmlns="http://www.w3.org/2000/svg" version="1.1">
 <metadata>
  <rdf:RDF xmlns:dc="http://purl.org/dc/elements/1.1/" xmlns:cc="http://creativecommons.org/ns#" xmlns:rdf="http://www.w3.org/1999/02/22-rdf-syntax-ns#">
   <cc:Work>
    <dc:type rdf:resource="http://purl.org/dc/dcmitype/StillImage"/>
    <dc:date>2026-05-18T00:00:01.403653</dc:date>
    <dc:format>image/svg+xml</dc:format>
    <dc:creator>
     <cc:Agent>
      <dc:title>Matplotlib v3.10.9, https://matplotlib.org/</dc:title>
     </cc:Agent>
    </dc:creator>
   </cc:Work>
  </rdf:RDF>
 </metadata>
 <defs>
  <style type="text/css">*{stroke-linejoin: round; stroke-linecap: butt}</style>
 </defs>
 <g id="figure_1">
  <g id="patch_1">
   <path d="M 0 360 
L 576 360 
L 576 0 
L 0 0 
z
" style="fill: #ffffff"/>
  </g>
  <g id="axes_1">
   <g id="patch_2">
    <path d="M 44.67125 318.04 
L 565.2 318.04 
L 565.2 26.88 
L 44.67125 26.88 
z
" style="fill: #ffffff"/>
   </g>
   <g id="FillBetweenPolyCollection_1">
    <path d="M 68.331648 253.671575 
L 68.331648 254.3368 
L 73.111526 250.706939 
L 77.891404 250.480029 
L 82.671283 252.254517 
L 87.451161 251.626962 
L 92.231039 251.736002 
L 97.010918 252.12786 
L 101.790796 254.269179 
L 106.570674 249.836091 
L 111.350553 250.0114 
L 116.130431 255.166474 
L 120.910309 257.471345 
L 125.690188 252.585018 
L 130.470066 248.11204 
L 135.249944 250.208898 
L 140.029823 249.072773 
L 144.809701 245.974223 
L 149.589579 259.988247 
L 154.369458 245.659749 
L 159.149336 243.130615 
L 163.929214 241.488245 
L 168.709093 257.01828 
L 173.488971 257.931384 
L 178.268849 248.043941 
L 183.048728 238.473139 
L 187.828606 252.848586 
L 192.608484 242.618638 
L 197.388363 231.386359 
L 202.168241 231.94367 
L 206.948119 235.364726 
L 211.727998 232.666855 
L 216.507876 232.682422 
L 221.287754 234.525853 
L 226.067633 238.711851 
L 230.847511 240.81956 
L 235.627389 239.660811 
L 240.407268 250.186737 
L 245.187146 282.032619 
L 249.967024 237.095856 
L 254.746903 274.538844 
L 259.526781 295.333852 
L 264.306659 237.876645 
L 269.086538 238.061344 
L 273.866416 237.294812 
L 278.646294 246.428723 
L 283.426173 237.414634 
L 288.206051 283.652214 
L 292.985929 239.158827 
L 297.765808 300.588034 
L 302.545686 234.293367 
L 307.325564 235.014676 
L 312.105442 283.022606 
L 316.885321 235.140527 
L 321.665199 236.767777 
L 326.445077 242.485574 
L 331.224956 248.187582 
L 336.004834 232.127002 
L 340.784712 231.942486 
L 345.564591 239.92278 
L 350.344469 232.693438 
L 355.124347 232.472689 
L 359.904226 304.805455 
L 364.684104 236.168078 
L 369.463982 233.081565 
L 374.243861 234.719842 
L 379.023739 284.650461 
L 383.803617 233.956798 
L 388.583496 242.455541 
L 393.363374 231.931602 
L 398.143252 253.06873 
L 402.923131 223.952215 
L 407.703009 246.58688 
L 412.482887 225.691674 
L 417.262766 233.595935 
L 422.042644 223.225861 
L 426.822522 224.10708 
L 431.602401 223.211666 
L 436.382279 224.051745 
L 441.162157 222.940854 
L 445.942036 223.847798 
L 450.721914 221.641639 
L 455.501792 230.349003 
L 460.281671 221.795586 
L 465.061549 226.623738 
L 469.841427 231.002946 
L 474.621306 220.785151 
L 479.401184 222.634449 
L 484.181062 214.624963 
L 488.960941 287.505745 
L 493.740819 220.606747 
L 498.520697 215.076509 
L 503.300576 215.209844 
L 508.080454 217.510315 
L 512.860332 212.473188 
L 517.640211 271.076283 
L 522.420089 216.443226 
L 527.199967 218.17794 
L 531.979846 277.52228 
L 536.759724 225.106634 
L 541.539602 277.973179 
L 541.539602 103.864608 
L 541.539602 103.864608 
L 536.759724 217.180992 
L 531.979846 99.79242 
L 527.199967 209.612587 
L 522.420089 211.769231 
L 517.640211 79.704602 
L 512.860332 210.918932 
L 508.080454 201.852849 
L 503.300576 211.747982 
L 498.520697 211.911277 
L 493.740819 193.723235 
L 488.960941 40.114545 
L 484.181062 211.178001 
L 479.401184 196.657157 
L 474.621306 212.019265 
L 469.841427 187.108646 
L 465.061549 197.008067 
L 460.281671 213.983284 
L 455.501792 201.828416 
L 450.721914 220.082401 
L 445.942036 219.936938 
L 441.162157 221.013596 
L 436.382279 219.514565 
L 431.602401 220.149271 
L 426.822522 219.870956 
L 422.042644 220.682301 
L 417.262766 203.11738 
L 412.482887 223.11206 
L 407.703009 179.060245 
L 402.923131 220.476271 
L 398.143252 171.615982 
L 393.363374 229.609616 
L 388.583496 212.071118 
L 383.803617 232.400375 
L 379.023739 133.302017 
L 374.243861 231.76514 
L 369.463982 227.713945 
L 364.684104 225.712111 
L 359.904226 90.29636 
L 355.124347 231.24943 
L 350.344469 230.985086 
L 345.564591 212.369274 
L 340.784712 229.999093 
L 336.004834 230.654422 
L 331.224956 197.58686 
L 326.445077 216.762898 
L 321.665199 232.888669 
L 316.885321 227.676128 
L 312.105442 128.578609 
L 307.325564 232.683154 
L 302.545686 232.852921 
L 297.765808 107.684441 
L 292.985929 237.17652 
L 288.206051 144.882697 
L 283.426173 235.520349 
L 278.646294 215.235673 
L 273.866416 235.575959 
L 269.086538 233.972892 
L 264.306659 234.413541 
L 259.526781 121.885083 
L 254.746903 155.402996 
L 249.967024 234.712629 
L 245.187146 114.86012 
L 240.407268 215.111495 
L 235.627389 236.36142 
L 230.847511 239.801825 
L 226.067633 232.015423 
L 221.287754 228.405097 
L 216.507876 228.367113 
L 211.727998 223.095625 
L 206.948119 219.934839 
L 202.168241 230.370484 
L 197.388363 229.443711 
L 192.608484 212.486793 
L 187.828606 190.936057 
L 183.048728 232.364848 
L 178.268849 213.718516 
L 173.488971 186.926599 
L 168.709093 202.956201 
L 163.929214 235.736451 
L 159.149336 239.316402 
L 154.369458 236.94139 
L 149.589579 210.189721 
L 144.809701 243.642613 
L 140.029823 247.719888 
L 135.249944 238.557584 
L 130.470066 246.485507 
L 125.690188 238.412145 
L 120.910309 228.34994 
L 116.130431 235.506086 
L 111.350553 248.724071 
L 106.570674 248.675378 
L 101.790796 242.063136 
L 97.010918 249.864634 
L 92.231039 248.193108 
L 87.451161 249.749139 
L 82.671283 251.257846 
L 77.891404 249.711312 
L 73.111526 250.198155 
L 68.331648 253.671575 
z
" clip-path="url(#pf1c7bb87b3)" style="fill: #1f77b4; fill-opacity: 0.15"/>
   </g>
   <g id="FillBetweenPolyCollection_2">
    <path d="M 68.331648 250.12308 
L 68.331648 251.414953 
L 73.111526 248.544363 
L 77.891404 248.181395 
L 82.671283 249.775995 
L 87.451161 264.167305 
L 92.231039 250.102586 
L 97.010918 267.789681 
L 101.790796 248.727169 
L 106.570674 252.869686 
L 111.350553 248.288813 
L 116.130431 264.301108 
L 120.910309 248.272601 
L 125.690188 246.740377 
L 130.470066 246.323443 
L 135.249944 246.027964 
L 140.029823 266.304562 
L 144.809701 243.752755 
L 149.589579 241.915409 
L 154.369458 241.590232 
L 159.149336 243.226412 
L 163.929214 242.187612 
L 168.709093 237.616527 
L 173.488971 236.291227 
L 178.268849 236.115459 
L 183.048728 239.843012 
L 187.828606 233.215848 
L 192.608484 228.717623 
L 197.388363 229.837426 
L 202.168241 237.264711 
L 206.948119 241.555687 
L 211.727998 226.673508 
L 216.507876 229.65167 
L 221.287754 281.870409 
L 226.067633 238.254725 
L 230.847511 238.084377 
L 235.627389 255.938854 
L 240.407268 245.218137 
L 245.187146 234.804412 
L 249.967024 233.96163 
L 254.746903 246.259311 
L 259.526781 239.952833 
L 264.306659 234.050833 
L 269.086538 302.721498 
L 273.866416 233.661017 
L 278.646294 241.994864 
L 283.426173 234.288996 
L 288.206051 240.118719 
L 292.985929 235.926329 
L 297.765808 241.610097 
L 302.545686 231.808817 
L 307.325564 266.235042 
L 312.105442 232.969087 
L 316.885321 230.474338 
L 321.665199 233.325442 
L 326.445077 241.975589 
L 331.224956 230.664581 
L 336.004834 230.529738 
L 340.784712 228.602938 
L 345.564591 238.45893 
L 350.344469 282.746566 
L 355.124347 233.172967 
L 359.904226 229.599089 
L 364.684104 230.216226 
L 369.463982 229.543429 
L 374.243861 231.652398 
L 379.023739 240.09048 
L 383.803617 229.891613 
L 388.583496 229.774585 
L 393.363374 228.372385 
L 398.143252 221.940735 
L 402.923131 220.129478 
L 407.703009 220.808337 
L 412.482887 222.111882 
L 417.262766 237.235479 
L 422.042644 219.323248 
L 426.822522 236.491544 
L 431.602401 228.50644 
L 436.382279 247.394789 
L 441.162157 219.75435 
L 445.942036 233.695869 
L 450.721914 217.696089 
L 455.501792 228.651618 
L 460.281671 218.941517 
L 465.061549 252.733031 
L 469.841427 214.201626 
L 474.621306 226.298681 
L 479.401184 223.69688 
L 484.181062 214.008452 
L 488.960941 218.464997 
L 493.740819 212.946082 
L 498.520697 210.170205 
L 503.300576 208.71579 
L 508.080454 234.707711 
L 512.860332 241.413437 
L 517.640211 209.70882 
L 522.420089 212.424952 
L 527.199967 214.21378 
L 531.979846 218.600244 
L 536.759724 229.940544 
L 541.539602 255.488878 
L 541.539602 148.020939 
L 541.539602 148.020939 
L 536.759724 193.696591 
L 531.979846 209.666343 
L 527.199967 205.635401 
L 522.420089 204.252516 
L 517.640211 205.344866 
L 512.860332 118.071129 
L 508.080454 155.801228 
L 503.300576 205.957632 
L 498.520697 205.96445 
L 493.740819 195.5941 
L 488.960941 187.588249 
L 484.181062 198.806104 
L 479.401184 183.155131 
L 474.621306 165.194451 
L 469.841427 206.232859 
L 465.061549 120.286007 
L 460.281671 212.721454 
L 455.501792 185.821242 
L 450.721914 215.677608 
L 445.942036 188.88297 
L 441.162157 217.783184 
L 436.382279 163.109647 
L 431.602401 198.203305 
L 426.822522 172.148631 
L 422.042644 217.121034 
L 417.262766 170.914327 
L 412.482887 219.762636 
L 407.703009 218.655124 
L 402.923131 216.757012 
L 398.143252 219.911328 
L 393.363374 226.252302 
L 388.583496 227.002788 
L 383.803617 227.401213 
L 379.023739 208.719168 
L 374.243861 227.75476 
L 369.463982 226.888477 
L 364.684104 228.593345 
L 359.904226 227.95024 
L 355.124347 221.072433 
L 350.344469 126.054566 
L 345.564591 211.998028 
L 340.784712 226.965752 
L 336.004834 224.419828 
L 331.224956 228.871759 
L 326.445077 213.672685 
L 321.665199 229.875703 
L 316.885321 220.73405 
L 312.105442 230.113382 
L 307.325564 161.965501 
L 302.545686 229.561154 
L 297.765808 212.935673 
L 292.985929 233.687289 
L 288.206051 220.565437 
L 283.426173 231.986078 
L 278.646294 215.515716 
L 273.866416 231.477579 
L 269.086538 97.689396 
L 264.306659 229.761563 
L 259.526781 217.924254 
L 254.746903 190.420305 
L 249.967024 231.026733 
L 245.187146 233.6958 
L 240.407268 214.238129 
L 235.627389 196.204312 
L 230.847511 236.596491 
L 226.067633 227.865797 
L 221.287754 124.613 
L 216.507876 224.652854 
L 211.727998 224.704811 
L 206.948119 198.152635 
L 202.168241 203.216064 
L 197.388363 225.439346 
L 192.608484 227.028008 
L 187.828606 229.102841 
L 183.048728 230.572496 
L 178.268849 231.373171 
L 173.488971 229.728905 
L 168.709093 231.5876 
L 163.929214 226.574616 
L 159.149336 233.637592 
L 154.369458 238.511439 
L 149.589579 238.827409 
L 144.809701 241.141013 
L 140.029823 206.220221 
L 135.249944 243.760946 
L 130.470066 241.358704 
L 125.690188 243.4814 
L 120.910309 242.442205 
L 116.130431 213.2375 
L 111.350553 245.145755 
L 106.570674 224.64068 
L 101.790796 244.786865 
L 97.010918 208.675985 
L 92.231039 239.452551 
L 87.451161 215.93155 
L 82.671283 248.303801 
L 77.891404 247.057515 
L 73.111526 247.963027 
L 68.331648 250.12308 
z
" clip-path="url(#pf1c7bb87b3)" style="fill: #ff7f0e; fill-opacity: 0.15"/>
   </g>
   <g id="matplotlib.axis_1">
    <g id="xtick_1">
     <g id="line2d_1">
      <path d="M 63.551769 318.04 
L 63.551769 26.88 
" clip-path="url(#pf1c7bb87b3)" style="fill: none; stroke: #b0b0b0; stroke-opacity: 0.3; stroke-width: 0.8; stroke-linecap: square"/>
     </g>
     <g id="line2d_2">
      <defs>
       <path id="m96618da75d" d="M 0 0 
L 0 3.5 
" style="stroke: #000000; stroke-width: 0.8"/>
      </defs>
      <g>
       <use xlink:href="#m96618da75d" x="63.551769" y="318.04" style="stroke: #000000; stroke-width: 0.8"/>
      </g>
     </g>
     <g id="text_1">
      <!-- 0 -->
      <g transform="translate(60.370519 332.638438) scale(0.1 -0.1)">
       <defs>
        <path id="DejaVuSans-30" d="M 2034 4250 
Q 1547 4250 1301 3770 
Q 1056 3291 1056 2328 
Q 1056 1369 1301 889 
Q 1547 409 2034 409 
Q 2525 409 2770 889 
Q 3016 1369 3016 2328 
Q 3016 3291 2770 3770 
Q 2525 4250 2034 4250 
z
M 2034 4750 
Q 2819 4750 3233 4129 
Q 3647 3509 3647 2328 
Q 3647 1150 3233 529 
Q 2819 -91 2034 -91 
Q 1250 -91 836 529 
Q 422 1150 422 2328 
Q 422 3509 836 4129 
Q 1250 4750 2034 4750 
z
" transform="scale(0.015625)"/>
       </defs>
       <use xlink:href="#DejaVuSans-30"/>
      </g>
     </g>
    </g>
    <g id="xtick_2">
     <g id="line2d_3">
      <path d="M 159.149336 318.04 
L 159.149336 26.88 
" clip-path="url(#pf1c7bb87b3)" style="fill: none; stroke: #b0b0b0; stroke-opacity: 0.3; stroke-width: 0.8; stroke-linecap: square"/>
     </g>
     <g id="line2d_4">
      <g>
       <use xlink:href="#m96618da75d" x="159.149336" y="318.04" style="stroke: #000000; stroke-width: 0.8"/>
      </g>
     </g>
     <g id="text_2">
      <!-- 20 -->
      <g transform="translate(152.786836 332.638438) scale(0.1 -0.1)">
       <defs>
        <path id="DejaVuSans-32" d="M 1228 531 
L 3431 531 
L 3431 0 
L 469 0 
L 469 531 
Q 828 903 1448 1529 
Q 2069 2156 2228 2338 
Q 2531 2678 2651 2914 
Q 2772 3150 2772 3378 
Q 2772 3750 2511 3984 
Q 2250 4219 1831 4219 
Q 1534 4219 1204 4116 
Q 875 4013 500 3803 
L 500 4441 
Q 881 4594 1212 4672 
Q 1544 4750 1819 4750 
Q 2544 4750 2975 4387 
Q 3406 4025 3406 3419 
Q 3406 3131 3298 2873 
Q 3191 2616 2906 2266 
Q 2828 2175 2409 1742 
Q 1991 1309 1228 531 
z
" transform="scale(0.015625)"/>
       </defs>
       <use xlink:href="#DejaVuSans-32"/>
       <use xlink:href="#DejaVuSans-30" transform="translate(63.623047 0)"/>
      </g>
     </g>
    </g>
    <g id="xtick_3">
     <g id="line2d_5">
      <path d="M 254.746903 318.04 
L 254.746903 26.88 
" clip-path="url(#pf1c7bb87b3)" style="fill: none; stroke: #b0b0b0; stroke-opacity: 0.3; stroke-width: 0.8; stroke-linecap: square"/>
     </g>
     <g id="line2d_6">
      <g>
       <use xlink:href="#m96618da75d" x="254.746903" y="318.04" style="stroke: #000000; stroke-width: 0.8"/>
      </g>
     </g>
     <g id="text_3">
      <!-- 40 -->
      <g transform="translate(248.384403 332.638438) scale(0.1 -0.1)">
       <defs>
        <path id="DejaVuSans-34" d="M 2419 4116 
L 825 1625 
L 2419 1625 
L 2419 4116 
z
M 2253 4666 
L 3047 4666 
L 3047 1625 
L 3713 1625 
L 3713 1100 
L 3047 1100 
L 3047 0 
L 2419 0 
L 2419 1100 
L 313 1100 
L 313 1709 
L 2253 4666 
z
" transform="scale(0.015625)"/>
       </defs>
       <use xlink:href="#DejaVuSans-34"/>
       <use xlink:href="#DejaVuSans-30" transform="translate(63.623047 0)"/>
      </g>
     </g>
    </g>
    <g id="xtick_4">
     <g id="line2d_7">
      <path d="M 350.344469 318.04 
L 350.344469 26.88 
" clip-path="url(#pf1c7bb87b3)" style="fill: none; stroke: #b0b0b0; stroke-opacity: 0.3; stroke-width: 0.8; stroke-linecap: square"/>
     </g>
     <g id="line2d_8">
      <g>
       <use xlink:href="#m96618da75d" x="350.344469" y="318.04" style="stroke: #000000; stroke-width: 0.8"/>
      </g>
     </g>
     <g id="text_4">
      <!-- 60 -->
      <g transform="translate(343.981969 332.638438) scale(0.1 -0.1)">
       <defs>
        <path id="DejaVuSans-36" d="M 2113 2584 
Q 1688 2584 1439 2293 
Q 1191 2003 1191 1497 
Q 1191 994 1439 701 
Q 1688 409 2113 409 
Q 2538 409 2786 701 
Q 3034 994 3034 1497 
Q 3034 2003 2786 2293 
Q 2538 2584 2113 2584 
z
M 3366 4563 
L 3366 3988 
Q 3128 4100 2886 4159 
Q 2644 4219 2406 4219 
Q 1781 4219 1451 3797 
Q 1122 3375 1075 2522 
Q 1259 2794 1537 2939 
Q 1816 3084 2150 3084 
Q 2853 3084 3261 2657 
Q 3669 2231 3669 1497 
Q 3669 778 3244 343 
Q 2819 -91 2113 -91 
Q 1303 -91 875 529 
Q 447 1150 447 2328 
Q 447 3434 972 4092 
Q 1497 4750 2381 4750 
Q 2619 4750 2861 4703 
Q 3103 4656 3366 4563 
z
" transform="scale(0.015625)"/>
       </defs>
       <use xlink:href="#DejaVuSans-36"/>
       <use xlink:href="#DejaVuSans-30" transform="translate(63.623047 0)"/>
      </g>
     </g>
    </g>
    <g id="xtick_5">
     <g id="line2d_9">
      <path d="M 445.942036 318.04 
L 445.942036 26.88 
" clip-path="url(#pf1c7bb87b3)" style="fill: none; stroke: #b0b0b0; stroke-opacity: 0.3; stroke-width: 0.8; stroke-linecap: square"/>
     </g>
     <g id="line2d_10">
      <g>
       <use xlink:href="#m96618da75d" x="445.942036" y="318.04" style="stroke: #000000; stroke-width: 0.8"/>
      </g>
     </g>
     <g id="text_5">
      <!-- 80 -->
      <g transform="translate(439.579536 332.638438) scale(0.1 -0.1)">
       <defs>
        <path id="DejaVuSans-38" d="M 2034 2216 
Q 1584 2216 1326 1975 
Q 1069 1734 1069 1313 
Q 1069 891 1326 650 
Q 1584 409 2034 409 
Q 2484 409 2743 651 
Q 3003 894 3003 1313 
Q 3003 1734 2745 1975 
Q 2488 2216 2034 2216 
z
M 1403 2484 
Q 997 2584 770 2862 
Q 544 3141 544 3541 
Q 544 4100 942 4425 
Q 1341 4750 2034 4750 
Q 2731 4750 3128 4425 
Q 3525 4100 3525 3541 
Q 3525 3141 3298 2862 
Q 3072 2584 2669 2484 
Q 3125 2378 3379 2068 
Q 3634 1759 3634 1313 
Q 3634 634 3220 271 
Q 2806 -91 2034 -91 
Q 1263 -91 848 271 
Q 434 634 434 1313 
Q 434 1759 690 2068 
Q 947 2378 1403 2484 
z
M 1172 3481 
Q 1172 3119 1398 2916 
Q 1625 2713 2034 2713 
Q 2441 2713 2670 2916 
Q 2900 3119 2900 3481 
Q 2900 3844 2670 4047 
Q 2441 4250 2034 4250 
Q 1625 4250 1398 4047 
Q 1172 3844 1172 3481 
z
" transform="scale(0.015625)"/>
       </defs>
       <use xlink:href="#DejaVuSans-38"/>
       <use xlink:href="#DejaVuSans-30" transform="translate(63.623047 0)"/>
      </g>
     </g>
    </g>
    <g id="xtick_6">
     <g id="line2d_11">
      <path d="M 541.539602 318.04 
L 541.539602 26.88 
" clip-path="url(#pf1c7bb87b3)" style="fill: none; stroke: #b0b0b0; stroke-opacity: 0.3; stroke-width: 0.8; stroke-linecap: square"/>
     </g>
     <g id="line2d_12">
      <g>
       <use xlink:href="#m96618da75d" x="541.539602" y="318.04" style="stroke: #000000; stroke-width: 0.8"/>
      </g>
     </g>
     <g id="text_6">
      <!-- 100 -->
      <g transform="translate(531.995852 332.638438) scale(0.1 -0.1)">
       <defs>
        <path id="DejaVuSans-31" d="M 794 531 
L 1825 531 
L 1825 4091 
L 703 3866 
L 703 4441 
L 1819 4666 
L 2450 4666 
L 2450 531 
L 3481 531 
L 3481 0 
L 794 0 
L 794 531 
z
" transform="scale(0.015625)"/>
       </defs>
       <use xlink:href="#DejaVuSans-31"/>
       <use xlink:href="#DejaVuSans-30" transform="translate(63.623047 0)"/>
       <use xlink:href="#DejaVuSans-30" transform="translate(127.246094 0)"/>
      </g>
     </g>
    </g>
    <g id="text_7">
     <!-- Draft length -->
     <g transform="translate(274.806719 346.316563) scale(0.1 -0.1)">
      <defs>
       <path id="DejaVuSans-44" d="M 1259 4147 
L 1259 519 
L 2022 519 
Q 2988 519 3436 956 
Q 3884 1394 3884 2338 
Q 3884 3275 3436 3711 
Q 2988 4147 2022 4147 
L 1259 4147 
z
M 628 4666 
L 1925 4666 
Q 3281 4666 3915 4102 
Q 4550 3538 4550 2338 
Q 4550 1131 3912 565 
Q 3275 0 1925 0 
L 628 0 
L 628 4666 
z
" transform="scale(0.015625)"/>
       <path id="DejaVuSans-72" d="M 2631 2963 
Q 2534 3019 2420 3045 
Q 2306 3072 2169 3072 
Q 1681 3072 1420 2755 
Q 1159 2438 1159 1844 
L 1159 0 
L 581 0 
L 581 3500 
L 1159 3500 
L 1159 2956 
Q 1341 3275 1631 3429 
Q 1922 3584 2338 3584 
Q 2397 3584 2469 3576 
Q 2541 3569 2628 3553 
L 2631 2963 
z
" transform="scale(0.015625)"/>
       <path id="DejaVuSans-61" d="M 2194 1759 
Q 1497 1759 1228 1600 
Q 959 1441 959 1056 
Q 959 750 1161 570 
Q 1363 391 1709 391 
Q 2188 391 2477 730 
Q 2766 1069 2766 1631 
L 2766 1759 
L 2194 1759 
z
M 3341 1997 
L 3341 0 
L 2766 0 
L 2766 531 
Q 2569 213 2275 61 
Q 1981 -91 1556 -91 
Q 1019 -91 701 211 
Q 384 513 384 1019 
Q 384 1609 779 1909 
Q 1175 2209 1959 2209 
L 2766 2209 
L 2766 2266 
Q 2766 2663 2505 2880 
Q 2244 3097 1772 3097 
Q 1472 3097 1187 3025 
Q 903 2953 641 2809 
L 641 3341 
Q 956 3463 1253 3523 
Q 1550 3584 1831 3584 
Q 2591 3584 2966 3190 
Q 3341 2797 3341 1997 
z
" transform="scale(0.015625)"/>
       <path id="DejaVuSans-66" d="M 2375 4863 
L 2375 4384 
L 1825 4384 
Q 1516 4384 1395 4259 
Q 1275 4134 1275 3809 
L 1275 3500 
L 2222 3500 
L 2222 3053 
L 1275 3053 
L 1275 0 
L 697 0 
L 697 3053 
L 147 3053 
L 147 3500 
L 697 3500 
L 697 3744 
Q 697 4328 969 4595 
Q 1241 4863 1831 4863 
L 2375 4863 
z
" transform="scale(0.015625)"/>
       <path id="DejaVuSans-74" d="M 1172 4494 
L 1172 3500 
L 2356 3500 
L 2356 3053 
L 1172 3053 
L 1172 1153 
Q 1172 725 1289 603 
Q 1406 481 1766 481 
L 2356 481 
L 2356 0 
L 1766 0 
Q 1100 0 847 248 
Q 594 497 594 1153 
L 594 3053 
L 172 3053 
L 172 3500 
L 594 3500 
L 594 4494 
L 1172 4494 
z
" transform="scale(0.015625)"/>
       <path id="DejaVuSans-20" transform="scale(0.015625)"/>
       <path id="DejaVuSans-6c" d="M 603 4863 
L 1178 4863 
L 1178 0 
L 603 0 
L 603 4863 
z
" transform="scale(0.015625)"/>
       <path id="DejaVuSans-65" d="M 3597 1894 
L 3597 1613 
L 953 1613 
Q 991 1019 1311 708 
Q 1631 397 2203 397 
Q 2534 397 2845 478 
Q 3156 559 3463 722 
L 3463 178 
Q 3153 47 2828 -22 
Q 2503 -91 2169 -91 
Q 1331 -91 842 396 
Q 353 884 353 1716 
Q 353 2575 817 3079 
Q 1281 3584 2069 3584 
Q 2775 3584 3186 3129 
Q 3597 2675 3597 1894 
z
M 3022 2063 
Q 3016 2534 2758 2815 
Q 2500 3097 2075 3097 
Q 1594 3097 1305 2825 
Q 1016 2553 972 2059 
L 3022 2063 
z
" transform="scale(0.015625)"/>
       <path id="DejaVuSans-6e" d="M 3513 2113 
L 3513 0 
L 2938 0 
L 2938 2094 
Q 2938 2591 2744 2837 
Q 2550 3084 2163 3084 
Q 1697 3084 1428 2787 
Q 1159 2491 1159 1978 
L 1159 0 
L 581 0 
L 581 3500 
L 1159 3500 
L 1159 2956 
Q 1366 3272 1645 3428 
Q 1925 3584 2291 3584 
Q 2894 3584 3203 3211 
Q 3513 2838 3513 2113 
z
" transform="scale(0.015625)"/>
       <path id="DejaVuSans-67" d="M 2906 1791 
Q 2906 2416 2648 2759 
Q 2391 3103 1925 3103 
Q 1463 3103 1205 2759 
Q 947 2416 947 1791 
Q 947 1169 1205 825 
Q 1463 481 1925 481 
Q 2391 481 2648 825 
Q 2906 1169 2906 1791 
z
M 3481 434 
Q 3481 -459 3084 -895 
Q 2688 -1331 1869 -1331 
Q 1566 -1331 1297 -1286 
Q 1028 -1241 775 -1147 
L 775 -588 
Q 1028 -725 1275 -790 
Q 1522 -856 1778 -856 
Q 2344 -856 2625 -561 
Q 2906 -266 2906 331 
L 2906 616 
Q 2728 306 2450 153 
Q 2172 0 1784 0 
Q 1141 0 747 490 
Q 353 981 353 1791 
Q 353 2603 747 3093 
Q 1141 3584 1784 3584 
Q 2172 3584 2450 3431 
Q 2728 3278 2906 2969 
L 2906 3500 
L 3481 3500 
L 3481 434 
z
" transform="scale(0.015625)"/>
       <path id="DejaVuSans-68" d="M 3513 2113 
L 3513 0 
L 2938 0 
L 2938 2094 
Q 2938 2591 2744 2837 
Q 2550 3084 2163 3084 
Q 1697 3084 1428 2787 
Q 1159 2491 1159 1978 
L 1159 0 
L 581 0 
L 581 4863 
L 1159 4863 
L 1159 2956 
Q 1366 3272 1645 3428 
Q 1925 3584 2291 3584 
Q 2894 3584 3203 3211 
Q 3513 2838 3513 2113 
z
" transform="scale(0.015625)"/>
      </defs>
      <use xlink:href="#DejaVuSans-44"/>
      <use xlink:href="#DejaVuSans-72" transform="translate(77.001953 0)"/>
      <use xlink:href="#DejaVuSans-61" transform="translate(118.115234 0)"/>
      <use xlink:href="#DejaVuSans-66" transform="translate(179.394531 0)"/>
      <use xlink:href="#DejaVuSans-74" transform="translate(212.849609 0)"/>
      <use xlink:href="#DejaVuSans-20" transform="translate(252.058594 0)"/>
      <use xlink:href="#DejaVuSans-6c" transform="translate(283.845703 0)"/>
      <use xlink:href="#DejaVuSans-65" transform="translate(311.628906 0)"/>
      <use xlink:href="#DejaVuSans-6e" transform="translate(373.152344 0)"/>
      <use xlink:href="#DejaVuSans-67" transform="translate(436.53125 0)"/>
      <use xlink:href="#DejaVuSans-74" transform="translate(500.007812 0)"/>
      <use xlink:href="#DejaVuSans-68" transform="translate(539.216797 0)"/>
     </g>
    </g>
   </g>
   <g id="matplotlib.axis_2">
    <g id="ytick_1">
     <g id="line2d_13">
      <path d="M 44.67125 278.127636 
L 565.2 278.127636 
" clip-path="url(#pf1c7bb87b3)" style="fill: none; stroke: #b0b0b0; stroke-opacity: 0.3; stroke-width: 0.8; stroke-linecap: square"/>
     </g>
     <g id="line2d_14">
      <defs>
       <path id="m84d4455dd0" d="M 0 0 
L -3.5 0 
" style="stroke: #000000; stroke-width: 0.8"/>
      </defs>
      <g>
       <use xlink:href="#m84d4455dd0" x="44.67125" y="278.127636" style="stroke: #000000; stroke-width: 0.8"/>
      </g>
     </g>
     <g id="text_8">
      <!-- 10 -->
      <g transform="translate(24.94625 281.926854) scale(0.1 -0.1)">
       <use xlink:href="#DejaVuSans-31"/>
       <use xlink:href="#DejaVuSans-30" transform="translate(63.623047 0)"/>
      </g>
     </g>
    </g>
    <g id="ytick_2">
     <g id="line2d_15">
      <path d="M 44.67125 230.261249 
L 565.2 230.261249 
" clip-path="url(#pf1c7bb87b3)" style="fill: none; stroke: #b0b0b0; stroke-opacity: 0.3; stroke-width: 0.8; stroke-linecap: square"/>
     </g>
     <g id="line2d_16">
      <g>
       <use xlink:href="#m84d4455dd0" x="44.67125" y="230.261249" style="stroke: #000000; stroke-width: 0.8"/>
      </g>
     </g>
     <g id="text_9">
      <!-- 20 -->
      <g transform="translate(24.94625 234.060468) scale(0.1 -0.1)">
       <use xlink:href="#DejaVuSans-32"/>
       <use xlink:href="#DejaVuSans-30" transform="translate(63.623047 0)"/>
      </g>
     </g>
    </g>
    <g id="ytick_3">
     <g id="line2d_17">
      <path d="M 44.67125 182.394863 
L 565.2 182.394863 
" clip-path="url(#pf1c7bb87b3)" style="fill: none; stroke: #b0b0b0; stroke-opacity: 0.3; stroke-width: 0.8; stroke-linecap: square"/>
     </g>
     <g id="line2d_18">
      <g>
       <use xlink:href="#m84d4455dd0" x="44.67125" y="182.394863" style="stroke: #000000; stroke-width: 0.8"/>
      </g>
     </g>
     <g id="text_10">
      <!-- 30 -->
      <g transform="translate(24.94625 186.194081) scale(0.1 -0.1)">
       <defs>
        <path id="DejaVuSans-33" d="M 2597 2516 
Q 3050 2419 3304 2112 
Q 3559 1806 3559 1356 
Q 3559 666 3084 287 
Q 2609 -91 1734 -91 
Q 1441 -91 1130 -33 
Q 819 25 488 141 
L 488 750 
Q 750 597 1062 519 
Q 1375 441 1716 441 
Q 2309 441 2620 675 
Q 2931 909 2931 1356 
Q 2931 1769 2642 2001 
Q 2353 2234 1838 2234 
L 1294 2234 
L 1294 2753 
L 1863 2753 
Q 2328 2753 2575 2939 
Q 2822 3125 2822 3475 
Q 2822 3834 2567 4026 
Q 2313 4219 1838 4219 
Q 1578 4219 1281 4162 
Q 984 4106 628 3988 
L 628 4550 
Q 988 4650 1302 4700 
Q 1616 4750 1894 4750 
Q 2613 4750 3031 4423 
Q 3450 4097 3450 3541 
Q 3450 3153 3228 2886 
Q 3006 2619 2597 2516 
z
" transform="scale(0.015625)"/>
       </defs>
       <use xlink:href="#DejaVuSans-33"/>
       <use xlink:href="#DejaVuSans-30" transform="translate(63.623047 0)"/>
      </g>
     </g>
    </g>
    <g id="ytick_4">
     <g id="line2d_19">
      <path d="M 44.67125 134.528476 
L 565.2 134.528476 
" clip-path="url(#pf1c7bb87b3)" style="fill: none; stroke: #b0b0b0; stroke-opacity: 0.3; stroke-width: 0.8; stroke-linecap: square"/>
     </g>
     <g id="line2d_20">
      <g>
       <use xlink:href="#m84d4455dd0" x="44.67125" y="134.528476" style="stroke: #000000; stroke-width: 0.8"/>
      </g>
     </g>
     <g id="text_11">
      <!-- 40 -->
      <g transform="translate(24.94625 138.327695) scale(0.1 -0.1)">
       <use xlink:href="#DejaVuSans-34"/>
       <use xlink:href="#DejaVuSans-30" transform="translate(63.623047 0)"/>
      </g>
     </g>
    </g>
    <g id="ytick_5">
     <g id="line2d_21">
      <path d="M 44.67125 86.66209 
L 565.2 86.66209 
" clip-path="url(#pf1c7bb87b3)" style="fill: none; stroke: #b0b0b0; stroke-opacity: 0.3; stroke-width: 0.8; stroke-linecap: square"/>
     </g>
     <g id="line2d_22">
      <g>
       <use xlink:href="#m84d4455dd0" x="44.67125" y="86.66209" style="stroke: #000000; stroke-width: 0.8"/>
      </g>
     </g>
     <g id="text_12">
      <!-- 50 -->
      <g transform="translate(24.94625 90.461309) scale(0.1 -0.1)">
       <defs>
        <path id="DejaVuSans-35" d="M 691 4666 
L 3169 4666 
L 3169 4134 
L 1269 4134 
L 1269 2991 
Q 1406 3038 1543 3061 
Q 1681 3084 1819 3084 
Q 2600 3084 3056 2656 
Q 3513 2228 3513 1497 
Q 3513 744 3044 326 
Q 2575 -91 1722 -91 
Q 1428 -91 1123 -41 
Q 819 9 494 109 
L 494 744 
Q 775 591 1075 516 
Q 1375 441 1709 441 
Q 2250 441 2565 725 
Q 2881 1009 2881 1497 
Q 2881 1984 2565 2268 
Q 2250 2553 1709 2553 
Q 1456 2553 1204 2497 
Q 953 2441 691 2322 
L 691 4666 
z
" transform="scale(0.015625)"/>
       </defs>
       <use xlink:href="#DejaVuSans-35"/>
       <use xlink:href="#DejaVuSans-30" transform="translate(63.623047 0)"/>
      </g>
     </g>
    </g>
    <g id="ytick_6">
     <g id="line2d_23">
      <path d="M 44.67125 38.795703 
L 565.2 38.795703 
" clip-path="url(#pf1c7bb87b3)" style="fill: none; stroke: #b0b0b0; stroke-opacity: 0.3; stroke-width: 0.8; stroke-linecap: square"/>
     </g>
     <g id="line2d_24">
      <g>
       <use xlink:href="#m84d4455dd0" x="44.67125" y="38.795703" style="stroke: #000000; stroke-width: 0.8"/>
      </g>
     </g>
     <g id="text_13">
      <!-- 60 -->
      <g transform="translate(24.94625 42.594922) scale(0.1 -0.1)">
       <use xlink:href="#DejaVuSans-36"/>
       <use xlink:href="#DejaVuSans-30" transform="translate(63.623047 0)"/>
      </g>
     </g>
    </g>
    <g id="text_14">
     <!-- cuda_ms -->
     <g transform="translate(18.588438 194.59125) rotate(-90) scale(0.1 -0.1)">
      <defs>
       <path id="DejaVuSans-63" d="M 3122 3366 
L 3122 2828 
Q 2878 2963 2633 3030 
Q 2388 3097 2138 3097 
Q 1578 3097 1268 2742 
Q 959 2388 959 1747 
Q 959 1106 1268 751 
Q 1578 397 2138 397 
Q 2388 397 2633 464 
Q 2878 531 3122 666 
L 3122 134 
Q 2881 22 2623 -34 
Q 2366 -91 2075 -91 
Q 1284 -91 818 406 
Q 353 903 353 1747 
Q 353 2603 823 3093 
Q 1294 3584 2113 3584 
Q 2378 3584 2631 3529 
Q 2884 3475 3122 3366 
z
" transform="scale(0.015625)"/>
       <path id="DejaVuSans-75" d="M 544 1381 
L 544 3500 
L 1119 3500 
L 1119 1403 
Q 1119 906 1312 657 
Q 1506 409 1894 409 
Q 2359 409 2629 706 
Q 2900 1003 2900 1516 
L 2900 3500 
L 3475 3500 
L 3475 0 
L 2900 0 
L 2900 538 
Q 2691 219 2414 64 
Q 2138 -91 1772 -91 
Q 1169 -91 856 284 
Q 544 659 544 1381 
z
M 1991 3584 
L 1991 3584 
z
" transform="scale(0.015625)"/>
       <path id="DejaVuSans-64" d="M 2906 2969 
L 2906 4863 
L 3481 4863 
L 3481 0 
L 2906 0 
L 2906 525 
Q 2725 213 2448 61 
Q 2172 -91 1784 -91 
Q 1150 -91 751 415 
Q 353 922 353 1747 
Q 353 2572 751 3078 
Q 1150 3584 1784 3584 
Q 2172 3584 2448 3432 
Q 2725 3281 2906 2969 
z
M 947 1747 
Q 947 1113 1208 752 
Q 1469 391 1925 391 
Q 2381 391 2643 752 
Q 2906 1113 2906 1747 
Q 2906 2381 2643 2742 
Q 2381 3103 1925 3103 
Q 1469 3103 1208 2742 
Q 947 2381 947 1747 
z
" transform="scale(0.015625)"/>
       <path id="DejaVuSans-5f" d="M 3263 -1063 
L 3263 -1509 
L -63 -1509 
L -63 -1063 
L 3263 -1063 
z
" transform="scale(0.015625)"/>
       <path id="DejaVuSans-6d" d="M 3328 2828 
Q 3544 3216 3844 3400 
Q 4144 3584 4550 3584 
Q 5097 3584 5394 3201 
Q 5691 2819 5691 2113 
L 5691 0 
L 5113 0 
L 5113 2094 
Q 5113 2597 4934 2840 
Q 4756 3084 4391 3084 
Q 3944 3084 3684 2787 
Q 3425 2491 3425 1978 
L 3425 0 
L 2847 0 
L 2847 2094 
Q 2847 2600 2669 2842 
Q 2491 3084 2119 3084 
Q 1678 3084 1418 2786 
Q 1159 2488 1159 1978 
L 1159 0 
L 581 0 
L 581 3500 
L 1159 3500 
L 1159 2956 
Q 1356 3278 1631 3431 
Q 1906 3584 2284 3584 
Q 2666 3584 2933 3390 
Q 3200 3197 3328 2828 
z
" transform="scale(0.015625)"/>
       <path id="DejaVuSans-73" d="M 2834 3397 
L 2834 2853 
Q 2591 2978 2328 3040 
Q 2066 3103 1784 3103 
Q 1356 3103 1142 2972 
Q 928 2841 928 2578 
Q 928 2378 1081 2264 
Q 1234 2150 1697 2047 
L 1894 2003 
Q 2506 1872 2764 1633 
Q 3022 1394 3022 966 
Q 3022 478 2636 193 
Q 2250 -91 1575 -91 
Q 1294 -91 989 -36 
Q 684 19 347 128 
L 347 722 
Q 666 556 975 473 
Q 1284 391 1588 391 
Q 1994 391 2212 530 
Q 2431 669 2431 922 
Q 2431 1156 2273 1281 
Q 2116 1406 1581 1522 
L 1381 1569 
Q 847 1681 609 1914 
Q 372 2147 372 2553 
Q 372 3047 722 3315 
Q 1072 3584 1716 3584 
Q 2034 3584 2315 3537 
Q 2597 3491 2834 3397 
z
" transform="scale(0.015625)"/>
      </defs>
      <use xlink:href="#DejaVuSans-63"/>
      <use xlink:href="#DejaVuSans-75" transform="translate(54.980469 0)"/>
      <use xlink:href="#DejaVuSans-64" transform="translate(118.359375 0)"/>
      <use xlink:href="#DejaVuSans-61" transform="translate(181.835938 0)"/>
      <use xlink:href="#DejaVuSans-5f" transform="translate(243.115234 0)"/>
      <use xlink:href="#DejaVuSans-6d" transform="translate(293.115234 0)"/>
      <use xlink:href="#DejaVuSans-73" transform="translate(390.527344 0)"/>
     </g>
    </g>
   </g>
   <g id="line2d_25">
    <path d="M 68.331648 254.004187 
L 73.111526 250.452547 
L 77.891404 250.095671 
L 82.671283 251.756182 
L 87.451161 250.68805 
L 92.231039 249.964555 
L 97.010918 250.996247 
L 101.790796 248.166157 
L 106.570674 249.255734 
L 111.350553 249.367735 
L 116.130431 245.33628 
L 120.910309 242.910643 
L 125.690188 245.498582 
L 130.470066 247.298773 
L 135.249944 244.383241 
L 140.029823 248.39633 
L 144.809701 244.808418 
L 149.589579 235.088984 
L 154.369458 241.30057 
L 159.149336 241.223509 
L 163.929214 238.612348 
L 168.709093 229.98724 
L 173.488971 222.428991 
L 178.268849 230.881228 
L 183.048728 235.418994 
L 187.828606 221.892322 
L 192.608484 227.552716 
L 197.388363 230.415035 
L 202.168241 231.157077 
L 206.948119 227.649783 
L 211.727998 227.88124 
L 216.507876 230.524768 
L 221.287754 231.465475 
L 226.067633 235.363637 
L 230.847511 240.310692 
L 235.627389 238.011116 
L 240.407268 232.649116 
L 245.187146 198.44637 
L 249.967024 235.904243 
L 254.746903 214.97092 
L 259.526781 208.609468 
L 264.306659 236.145093 
L 269.086538 236.017118 
L 273.866416 236.435386 
L 278.646294 230.832198 
L 283.426173 236.467491 
L 288.206051 214.267455 
L 292.985929 238.167673 
L 297.765808 204.136237 
L 302.545686 233.573144 
L 307.325564 233.848915 
L 312.105442 205.800608 
L 316.885321 231.408328 
L 321.665199 234.828223 
L 326.445077 229.624236 
L 331.224956 222.887221 
L 336.004834 231.390712 
L 340.784712 230.97079 
L 345.564591 226.146027 
L 350.344469 231.839262 
L 355.124347 231.861059 
L 359.904226 197.550907 
L 364.684104 230.940095 
L 369.463982 230.397755 
L 374.243861 233.242491 
L 379.023739 208.976239 
L 383.803617 233.178586 
L 388.583496 227.26333 
L 393.363374 230.770609 
L 398.143252 212.342356 
L 402.923131 222.214243 
L 407.703009 212.823563 
L 412.482887 224.401867 
L 417.262766 218.356657 
L 422.042644 221.954081 
L 426.822522 221.989018 
L 431.602401 221.680468 
L 436.382279 221.783155 
L 441.162157 221.977225 
L 445.942036 221.892368 
L 450.721914 220.86202 
L 455.501792 216.088709 
L 460.281671 217.889435 
L 465.061549 211.815902 
L 469.841427 209.055796 
L 474.621306 216.402208 
L 479.401184 209.645803 
L 484.181062 212.901482 
L 488.960941 163.810145 
L 493.740819 207.164991 
L 498.520697 213.493893 
L 503.300576 213.478913 
L 508.080454 209.681582 
L 512.860332 211.69606 
L 517.640211 175.390442 
L 522.420089 214.106229 
L 527.199967 213.895264 
L 531.979846 188.65735 
L 536.759724 221.143813 
L 541.539602 190.918894 
" clip-path="url(#pf1c7bb87b3)" style="fill: none; stroke: #1f77b4; stroke-width: 1.2; stroke-linecap: square"/>
    <defs>
     <path id="mcb43fb77c7" d="M 0 1.25 
C 0.331504 1.25 0.649475 1.118292 0.883883 0.883883 
C 1.118292 0.649475 1.25 0.331504 1.25 0 
C 1.25 -0.331504 1.118292 -0.649475 0.883883 -0.883883 
C 0.649475 -1.118292 0.331504 -1.25 0 -1.25 
C -0.331504 -1.25 -0.649475 -1.118292 -0.883883 -0.883883 
C -1.118292 -0.649475 -1.25 -0.331504 -1.25 0 
C -1.25 0.331504 -1.118292 0.649475 -0.883883 0.883883 
C -0.649475 1.118292 -0.331504 1.25 0 1.25 
z
" style="stroke: #1f77b4"/>
    </defs>
    <g clip-path="url(#pf1c7bb87b3)">
     <use xlink:href="#mcb43fb77c7" x="68.331648" y="254.004187" style="fill: #1f77b4; stroke: #1f77b4"/>
     <use xlink:href="#mcb43fb77c7" x="73.111526" y="250.452547" style="fill: #1f77b4; stroke: #1f77b4"/>
     <use xlink:href="#mcb43fb77c7" x="77.891404" y="250.095671" style="fill: #1f77b4; stroke: #1f77b4"/>
     <use xlink:href="#mcb43fb77c7" x="82.671283" y="251.756182" style="fill: #1f77b4; stroke: #1f77b4"/>
     <use xlink:href="#mcb43fb77c7" x="87.451161" y="250.68805" style="fill: #1f77b4; stroke: #1f77b4"/>
     <use xlink:href="#mcb43fb77c7" x="92.231039" y="249.964555" style="fill: #1f77b4; stroke: #1f77b4"/>
     <use xlink:href="#mcb43fb77c7" x="97.010918" y="250.996247" style="fill: #1f77b4; stroke: #1f77b4"/>
     <use xlink:href="#mcb43fb77c7" x="101.790796" y="248.166157" style="fill: #1f77b4; stroke: #1f77b4"/>
     <use xlink:href="#mcb43fb77c7" x="106.570674" y="249.255734" style="fill: #1f77b4; stroke: #1f77b4"/>
     <use xlink:href="#mcb43fb77c7" x="111.350553" y="249.367735" style="fill: #1f77b4; stroke: #1f77b4"/>
     <use xlink:href="#mcb43fb77c7" x="116.130431" y="245.33628" style="fill: #1f77b4; stroke: #1f77b4"/>
     <use xlink:href="#mcb43fb77c7" x="120.910309" y="242.910643" style="fill: #1f77b4; stroke: #1f77b4"/>
     <use xlink:href="#mcb43fb77c7" x="125.690188" y="245.498582" style="fill: #1f77b4; stroke: #1f77b4"/>
     <use xlink:href="#mcb43fb77c7" x="130.470066" y="247.298773" style="fill: #1f77b4; stroke: #1f77b4"/>
     <use xlink:href="#mcb43fb77c7" x="135.249944" y="244.383241" style="fill: #1f77b4; stroke: #1f77b4"/>
     <use xlink:href="#mcb43fb77c7" x="140.029823" y="248.39633" style="fill: #1f77b4; stroke: #1f77b4"/>
     <use xlink:href="#mcb43fb77c7" x="144.809701" y="244.808418" style="fill: #1f77b4; stroke: #1f77b4"/>
     <use xlink:href="#mcb43fb77c7" x="149.589579" y="235.088984" style="fill: #1f77b4; stroke: #1f77b4"/>
     <use xlink:href="#mcb43fb77c7" x="154.369458" y="241.30057" style="fill: #1f77b4; stroke: #1f77b4"/>
     <use xlink:href="#mcb43fb77c7" x="159.149336" y="241.223509" style="fill: #1f77b4; stroke: #1f77b4"/>
     <use xlink:href="#mcb43fb77c7" x="163.929214" y="238.612348" style="fill: #1f77b4; stroke: #1f77b4"/>
     <use xlink:href="#mcb43fb77c7" x="168.709093" y="229.98724" style="fill: #1f77b4; stroke: #1f77b4"/>
     <use xlink:href="#mcb43fb77c7" x="173.488971" y="222.428991" style="fill: #1f77b4; stroke: #1f77b4"/>
     <use xlink:href="#mcb43fb77c7" x="178.268849" y="230.881228" style="fill: #1f77b4; stroke: #1f77b4"/>
     <use xlink:href="#mcb43fb77c7" x="183.048728" y="235.418994" style="fill: #1f77b4; stroke: #1f77b4"/>
     <use xlink:href="#mcb43fb77c7" x="187.828606" y="221.892322" style="fill: #1f77b4; stroke: #1f77b4"/>
     <use xlink:href="#mcb43fb77c7" x="192.608484" y="227.552716" style="fill: #1f77b4; stroke: #1f77b4"/>
     <use xlink:href="#mcb43fb77c7" x="197.388363" y="230.415035" style="fill: #1f77b4; stroke: #1f77b4"/>
     <use xlink:href="#mcb43fb77c7" x="202.168241" y="231.157077" style="fill: #1f77b4; stroke: #1f77b4"/>
     <use xlink:href="#mcb43fb77c7" x="206.948119" y="227.649783" style="fill: #1f77b4; stroke: #1f77b4"/>
     <use xlink:href="#mcb43fb77c7" x="211.727998" y="227.88124" style="fill: #1f77b4; stroke: #1f77b4"/>
     <use xlink:href="#mcb43fb77c7" x="216.507876" y="230.524768" style="fill: #1f77b4; stroke: #1f77b4"/>
     <use xlink:href="#mcb43fb77c7" x="221.287754" y="231.465475" style="fill: #1f77b4; stroke: #1f77b4"/>
     <use xlink:href="#mcb43fb77c7" x="226.067633" y="235.363637" style="fill: #1f77b4; stroke: #1f77b4"/>
     <use xlink:href="#mcb43fb77c7" x="230.847511" y="240.310692" style="fill: #1f77b4; stroke: #1f77b4"/>
     <use xlink:href="#mcb43fb77c7" x="235.627389" y="238.011116" style="fill: #1f77b4; stroke: #1f77b4"/>
     <use xlink:href="#mcb43fb77c7" x="240.407268" y="232.649116" style="fill: #1f77b4; stroke: #1f77b4"/>
     <use xlink:href="#mcb43fb77c7" x="245.187146" y="198.44637" style="fill: #1f77b4; stroke: #1f77b4"/>
     <use xlink:href="#mcb43fb77c7" x="249.967024" y="235.904243" style="fill: #1f77b4; stroke: #1f77b4"/>
     <use xlink:href="#mcb43fb77c7" x="254.746903" y="214.97092" style="fill: #1f77b4; stroke: #1f77b4"/>
     <use xlink:href="#mcb43fb77c7" x="259.526781" y="208.609468" style="fill: #1f77b4; stroke: #1f77b4"/>
     <use xlink:href="#mcb43fb77c7" x="264.306659" y="236.145093" style="fill: #1f77b4; stroke: #1f77b4"/>
     <use xlink:href="#mcb43fb77c7" x="269.086538" y="236.017118" style="fill: #1f77b4; stroke: #1f77b4"/>
     <use xlink:href="#mcb43fb77c7" x="273.866416" y="236.435386" style="fill: #1f77b4; stroke: #1f77b4"/>
     <use xlink:href="#mcb43fb77c7" x="278.646294" y="230.832198" style="fill: #1f77b4; stroke: #1f77b4"/>
     <use xlink:href="#mcb43fb77c7" x="283.426173" y="236.467491" style="fill: #1f77b4; stroke: #1f77b4"/>
     <use xlink:href="#mcb43fb77c7" x="288.206051" y="214.267455" style="fill: #1f77b4; stroke: #1f77b4"/>
     <use xlink:href="#mcb43fb77c7" x="292.985929" y="238.167673" style="fill: #1f77b4; stroke: #1f77b4"/>
     <use xlink:href="#mcb43fb77c7" x="297.765808" y="204.136237" style="fill: #1f77b4; stroke: #1f77b4"/>
     <use xlink:href="#mcb43fb77c7" x="302.545686" y="233.573144" style="fill: #1f77b4; stroke: #1f77b4"/>
     <use xlink:href="#mcb43fb77c7" x="307.325564" y="233.848915" style="fill: #1f77b4; stroke: #1f77b4"/>
     <use xlink:href="#mcb43fb77c7" x="312.105442" y="205.800608" style="fill: #1f77b4; stroke: #1f77b4"/>
     <use xlink:href="#mcb43fb77c7" x="316.885321" y="231.408328" style="fill: #1f77b4; stroke: #1f77b4"/>
     <use xlink:href="#mcb43fb77c7" x="321.665199" y="234.828223" style="fill: #1f77b4; stroke: #1f77b4"/>
     <use xlink:href="#mcb43fb77c7" x="326.445077" y="229.624236" style="fill: #1f77b4; stroke: #1f77b4"/>
     <use xlink:href="#mcb43fb77c7" x="331.224956" y="222.887221" style="fill: #1f77b4; stroke: #1f77b4"/>
     <use xlink:href="#mcb43fb77c7" x="336.004834" y="231.390712" style="fill: #1f77b4; stroke: #1f77b4"/>
     <use xlink:href="#mcb43fb77c7" x="340.784712" y="230.97079" style="fill: #1f77b4; stroke: #1f77b4"/>
     <use xlink:href="#mcb43fb77c7" x="345.564591" y="226.146027" style="fill: #1f77b4; stroke: #1f77b4"/>
     <use xlink:href="#mcb43fb77c7" x="350.344469" y="231.839262" style="fill: #1f77b4; stroke: #1f77b4"/>
     <use xlink:href="#mcb43fb77c7" x="355.124347" y="231.861059" style="fill: #1f77b4; stroke: #1f77b4"/>
     <use xlink:href="#mcb43fb77c7" x="359.904226" y="197.550907" style="fill: #1f77b4; stroke: #1f77b4"/>
     <use xlink:href="#mcb43fb77c7" x="364.684104" y="230.940095" style="fill: #1f77b4; stroke: #1f77b4"/>
     <use xlink:href="#mcb43fb77c7" x="369.463982" y="230.397755" style="fill: #1f77b4; stroke: #1f77b4"/>
     <use xlink:href="#mcb43fb77c7" x="374.243861" y="233.242491" style="fill: #1f77b4; stroke: #1f77b4"/>
     <use xlink:href="#mcb43fb77c7" x="379.023739" y="208.976239" style="fill: #1f77b4; stroke: #1f77b4"/>
     <use xlink:href="#mcb43fb77c7" x="383.803617" y="233.178586" style="fill: #1f77b4; stroke: #1f77b4"/>
     <use xlink:href="#mcb43fb77c7" x="388.583496" y="227.26333" style="fill: #1f77b4; stroke: #1f77b4"/>
     <use xlink:href="#mcb43fb77c7" x="393.363374" y="230.770609" style="fill: #1f77b4; stroke: #1f77b4"/>
     <use xlink:href="#mcb43fb77c7" x="398.143252" y="212.342356" style="fill: #1f77b4; stroke: #1f77b4"/>
     <use xlink:href="#mcb43fb77c7" x="402.923131" y="222.214243" style="fill: #1f77b4; stroke: #1f77b4"/>
     <use xlink:href="#mcb43fb77c7" x="407.703009" y="212.823563" style="fill: #1f77b4; stroke: #1f77b4"/>
     <use xlink:href="#mcb43fb77c7" x="412.482887" y="224.401867" style="fill: #1f77b4; stroke: #1f77b4"/>
     <use xlink:href="#mcb43fb77c7" x="417.262766" y="218.356657" style="fill: #1f77b4; stroke: #1f77b4"/>
     <use xlink:href="#mcb43fb77c7" x="422.042644" y="221.954081" style="fill: #1f77b4; stroke: #1f77b4"/>
     <use xlink:href="#mcb43fb77c7" x="426.822522" y="221.989018" style="fill: #1f77b4; stroke: #1f77b4"/>
     <use xlink:href="#mcb43fb77c7" x="431.602401" y="221.680468" style="fill: #1f77b4; stroke: #1f77b4"/>
     <use xlink:href="#mcb43fb77c7" x="436.382279" y="221.783155" style="fill: #1f77b4; stroke: #1f77b4"/>
     <use xlink:href="#mcb43fb77c7" x="441.162157" y="221.977225" style="fill: #1f77b4; stroke: #1f77b4"/>
     <use xlink:href="#mcb43fb77c7" x="445.942036" y="221.892368" style="fill: #1f77b4; stroke: #1f77b4"/>
     <use xlink:href="#mcb43fb77c7" x="450.721914" y="220.86202" style="fill: #1f77b4; stroke: #1f77b4"/>
     <use xlink:href="#mcb43fb77c7" x="455.501792" y="216.088709" style="fill: #1f77b4; stroke: #1f77b4"/>
     <use xlink:href="#mcb43fb77c7" x="460.281671" y="217.889435" style="fill: #1f77b4; stroke: #1f77b4"/>
     <use xlink:href="#mcb43fb77c7" x="465.061549" y="211.815902" style="fill: #1f77b4; stroke: #1f77b4"/>
     <use xlink:href="#mcb43fb77c7" x="469.841427" y="209.055796" style="fill: #1f77b4; stroke: #1f77b4"/>
     <use xlink:href="#mcb43fb77c7" x="474.621306" y="216.402208" style="fill: #1f77b4; stroke: #1f77b4"/>
     <use xlink:href="#mcb43fb77c7" x="479.401184" y="209.645803" style="fill: #1f77b4; stroke: #1f77b4"/>
     <use xlink:href="#mcb43fb77c7" x="484.181062" y="212.901482" style="fill: #1f77b4; stroke: #1f77b4"/>
     <use xlink:href="#mcb43fb77c7" x="488.960941" y="163.810145" style="fill: #1f77b4; stroke: #1f77b4"/>
     <use xlink:href="#mcb43fb77c7" x="493.740819" y="207.164991" style="fill: #1f77b4; stroke: #1f77b4"/>
     <use xlink:href="#mcb43fb77c7" x="498.520697" y="213.493893" style="fill: #1f77b4; stroke: #1f77b4"/>
     <use xlink:href="#mcb43fb77c7" x="503.300576" y="213.478913" style="fill: #1f77b4; stroke: #1f77b4"/>
     <use xlink:href="#mcb43fb77c7" x="508.080454" y="209.681582" style="fill: #1f77b4; stroke: #1f77b4"/>
     <use xlink:href="#mcb43fb77c7" x="512.860332" y="211.69606" style="fill: #1f77b4; stroke: #1f77b4"/>
     <use xlink:href="#mcb43fb77c7" x="517.640211" y="175.390442" style="fill: #1f77b4; stroke: #1f77b4"/>
     <use xlink:href="#mcb43fb77c7" x="522.420089" y="214.106229" style="fill: #1f77b4; stroke: #1f77b4"/>
     <use xlink:href="#mcb43fb77c7" x="527.199967" y="213.895264" style="fill: #1f77b4; stroke: #1f77b4"/>
     <use xlink:href="#mcb43fb77c7" x="531.979846" y="188.65735" style="fill: #1f77b4; stroke: #1f77b4"/>
     <use xlink:href="#mcb43fb77c7" x="536.759724" y="221.143813" style="fill: #1f77b4; stroke: #1f77b4"/>
     <use xlink:href="#mcb43fb77c7" x="541.539602" y="190.918894" style="fill: #1f77b4; stroke: #1f77b4"/>
    </g>
   </g>
   <g id="line2d_26">
    <path d="M 68.331648 250.769017 
L 73.111526 248.253695 
L 77.891404 247.619455 
L 82.671283 249.039898 
L 87.451161 240.049427 
L 92.231039 244.777568 
L 97.010918 238.232833 
L 101.790796 246.757017 
L 106.570674 238.755183 
L 111.350553 246.717284 
L 116.130431 238.769304 
L 120.910309 245.357403 
L 125.690188 245.110889 
L 130.470066 243.841074 
L 135.249944 244.894455 
L 140.029823 236.262392 
L 144.809701 242.446884 
L 149.589579 240.371409 
L 154.369458 240.050836 
L 159.149336 238.432002 
L 163.929214 234.381114 
L 168.709093 234.602064 
L 173.488971 233.010066 
L 178.268849 233.744315 
L 183.048728 235.207754 
L 187.828606 231.159345 
L 192.608484 227.872815 
L 197.388363 227.638386 
L 202.168241 220.240388 
L 206.948119 219.854161 
L 211.727998 225.68916 
L 216.507876 227.152262 
L 221.287754 203.241704 
L 226.067633 233.060261 
L 230.847511 237.340434 
L 235.627389 226.071583 
L 240.407268 229.728133 
L 245.187146 234.250106 
L 249.967024 232.494182 
L 254.746903 218.339808 
L 259.526781 228.938544 
L 264.306659 231.906198 
L 269.086538 200.205447 
L 273.866416 232.569298 
L 278.646294 228.75529 
L 283.426173 233.137537 
L 288.206051 230.342078 
L 292.985929 234.806809 
L 297.765808 227.272885 
L 302.545686 230.684985 
L 307.325564 214.100271 
L 312.105442 231.541235 
L 316.885321 225.604194 
L 321.665199 231.600573 
L 326.445077 227.824137 
L 331.224956 229.76817 
L 336.004834 227.474783 
L 340.784712 227.784345 
L 345.564591 225.228479 
L 350.344469 204.400566 
L 355.124347 227.1227 
L 359.904226 228.774665 
L 364.684104 229.404785 
L 369.463982 228.215953 
L 374.243861 229.703579 
L 379.023739 224.404824 
L 383.803617 228.646413 
L 388.583496 228.388687 
L 393.363374 227.312344 
L 398.143252 220.926031 
L 402.923131 218.443245 
L 407.703009 219.731731 
L 412.482887 220.937259 
L 417.262766 204.074903 
L 422.042644 218.222141 
L 426.822522 204.320088 
L 431.602401 213.354873 
L 436.382279 205.252218 
L 441.162157 218.768767 
L 445.942036 211.28942 
L 450.721914 216.686848 
L 455.501792 207.23643 
L 460.281671 215.831486 
L 465.061549 186.509519 
L 469.841427 210.217243 
L 474.621306 195.746566 
L 479.401184 203.426006 
L 484.181062 206.407278 
L 488.960941 203.026623 
L 493.740819 204.270091 
L 498.520697 208.067327 
L 503.300576 207.336711 
L 508.080454 195.254469 
L 512.860332 179.742283 
L 517.640211 207.526843 
L 522.420089 208.338734 
L 527.199967 209.924591 
L 531.979846 214.133294 
L 536.759724 211.818567 
L 541.539602 201.754908 
" clip-path="url(#pf1c7bb87b3)" style="fill: none; stroke: #ff7f0e; stroke-width: 1.2; stroke-linecap: square"/>
    <defs>
     <path id="m707b13bbaa" d="M 0 1.25 
C 0.331504 1.25 0.649475 1.118292 0.883883 0.883883 
C 1.118292 0.649475 1.25 0.331504 1.25 0 
C 1.25 -0.331504 1.118292 -0.649475 0.883883 -0.883883 
C 0.649475 -1.118292 0.331504 -1.25 0 -1.25 
C -0.331504 -1.25 -0.649475 -1.118292 -0.883883 -0.883883 
C -1.118292 -0.649475 -1.25 -0.331504 -1.25 0 
C -1.25 0.331504 -1.118292 0.649475 -0.883883 0.883883 
C -0.649475 1.118292 -0.331504 1.25 0 1.25 
z
" style="stroke: #ff7f0e"/>
    </defs>
    <g clip-path="url(#pf1c7bb87b3)">
     <use xlink:href="#m707b13bbaa" x="68.331648" y="250.769017" style="fill: #ff7f0e; stroke: #ff7f0e"/>
     <use xlink:href="#m707b13bbaa" x="73.111526" y="248.253695" style="fill: #ff7f0e; stroke: #ff7f0e"/>
     <use xlink:href="#m707b13bbaa" x="77.891404" y="247.619455" style="fill: #ff7f0e; stroke: #ff7f0e"/>
     <use xlink:href="#m707b13bbaa" x="82.671283" y="249.039898" style="fill: #ff7f0e; stroke: #ff7f0e"/>
     <use xlink:href="#m707b13bbaa" x="87.451161" y="240.049427" style="fill: #ff7f0e; stroke: #ff7f0e"/>
     <use xlink:href="#m707b13bbaa" x="92.231039" y="244.777568" style="fill: #ff7f0e; stroke: #ff7f0e"/>
     <use xlink:href="#m707b13bbaa" x="97.010918" y="238.232833" style="fill: #ff7f0e; stroke: #ff7f0e"/>
     <use xlink:href="#m707b13bbaa" x="101.790796" y="246.757017" style="fill: #ff7f0e; stroke: #ff7f0e"/>
     <use xlink:href="#m707b13bbaa" x="106.570674" y="238.755183" style="fill: #ff7f0e; stroke: #ff7f0e"/>
     <use xlink:href="#m707b13bbaa" x="111.350553" y="246.717284" style="fill: #ff7f0e; stroke: #ff7f0e"/>
     <use xlink:href="#m707b13bbaa" x="116.130431" y="238.769304" style="fill: #ff7f0e; stroke: #ff7f0e"/>
     <use xlink:href="#m707b13bbaa" x="120.910309" y="245.357403" style="fill: #ff7f0e; stroke: #ff7f0e"/>
     <use xlink:href="#m707b13bbaa" x="125.690188" y="245.110889" style="fill: #ff7f0e; stroke: #ff7f0e"/>
     <use xlink:href="#m707b13bbaa" x="130.470066" y="243.841074" style="fill: #ff7f0e; stroke: #ff7f0e"/>
     <use xlink:href="#m707b13bbaa" x="135.249944" y="244.894455" style="fill: #ff7f0e; stroke: #ff7f0e"/>
     <use xlink:href="#m707b13bbaa" x="140.029823" y="236.262392" style="fill: #ff7f0e; stroke: #ff7f0e"/>
     <use xlink:href="#m707b13bbaa" x="144.809701" y="242.446884" style="fill: #ff7f0e; stroke: #ff7f0e"/>
     <use xlink:href="#m707b13bbaa" x="149.589579" y="240.371409" style="fill: #ff7f0e; stroke: #ff7f0e"/>
     <use xlink:href="#m707b13bbaa" x="154.369458" y="240.050836" style="fill: #ff7f0e; stroke: #ff7f0e"/>
     <use xlink:href="#m707b13bbaa" x="159.149336" y="238.432002" style="fill: #ff7f0e; stroke: #ff7f0e"/>
     <use xlink:href="#m707b13bbaa" x="163.929214" y="234.381114" style="fill: #ff7f0e; stroke: #ff7f0e"/>
     <use xlink:href="#m707b13bbaa" x="168.709093" y="234.602064" style="fill: #ff7f0e; stroke: #ff7f0e"/>
     <use xlink:href="#m707b13bbaa" x="173.488971" y="233.010066" style="fill: #ff7f0e; stroke: #ff7f0e"/>
     <use xlink:href="#m707b13bbaa" x="178.268849" y="233.744315" style="fill: #ff7f0e; stroke: #ff7f0e"/>
     <use xlink:href="#m707b13bbaa" x="183.048728" y="235.207754" style="fill: #ff7f0e; stroke: #ff7f0e"/>
     <use xlink:href="#m707b13bbaa" x="187.828606" y="231.159345" style="fill: #ff7f0e; stroke: #ff7f0e"/>
     <use xlink:href="#m707b13bbaa" x="192.608484" y="227.872815" style="fill: #ff7f0e; stroke: #ff7f0e"/>
     <use xlink:href="#m707b13bbaa" x="197.388363" y="227.638386" style="fill: #ff7f0e; stroke: #ff7f0e"/>
     <use xlink:href="#m707b13bbaa" x="202.168241" y="220.240388" style="fill: #ff7f0e; stroke: #ff7f0e"/>
     <use xlink:href="#m707b13bbaa" x="206.948119" y="219.854161" style="fill: #ff7f0e; stroke: #ff7f0e"/>
     <use xlink:href="#m707b13bbaa" x="211.727998" y="225.68916" style="fill: #ff7f0e; stroke: #ff7f0e"/>
     <use xlink:href="#m707b13bbaa" x="216.507876" y="227.152262" style="fill: #ff7f0e; stroke: #ff7f0e"/>
     <use xlink:href="#m707b13bbaa" x="221.287754" y="203.241704" style="fill: #ff7f0e; stroke: #ff7f0e"/>
     <use xlink:href="#m707b13bbaa" x="226.067633" y="233.060261" style="fill: #ff7f0e; stroke: #ff7f0e"/>
     <use xlink:href="#m707b13bbaa" x="230.847511" y="237.340434" style="fill: #ff7f0e; stroke: #ff7f0e"/>
     <use xlink:href="#m707b13bbaa" x="235.627389" y="226.071583" style="fill: #ff7f0e; stroke: #ff7f0e"/>
     <use xlink:href="#m707b13bbaa" x="240.407268" y="229.728133" style="fill: #ff7f0e; stroke: #ff7f0e"/>
     <use xlink:href="#m707b13bbaa" x="245.187146" y="234.250106" style="fill: #ff7f0e; stroke: #ff7f0e"/>
     <use xlink:href="#m707b13bbaa" x="249.967024" y="232.494182" style="fill: #ff7f0e; stroke: #ff7f0e"/>
     <use xlink:href="#m707b13bbaa" x="254.746903" y="218.339808" style="fill: #ff7f0e; stroke: #ff7f0e"/>
     <use xlink:href="#m707b13bbaa" x="259.526781" y="228.938544" style="fill: #ff7f0e; stroke: #ff7f0e"/>
     <use xlink:href="#m707b13bbaa" x="264.306659" y="231.906198" style="fill: #ff7f0e; stroke: #ff7f0e"/>
     <use xlink:href="#m707b13bbaa" x="269.086538" y="200.205447" style="fill: #ff7f0e; stroke: #ff7f0e"/>
     <use xlink:href="#m707b13bbaa" x="273.866416" y="232.569298" style="fill: #ff7f0e; stroke: #ff7f0e"/>
     <use xlink:href="#m707b13bbaa" x="278.646294" y="228.75529" style="fill: #ff7f0e; stroke: #ff7f0e"/>
     <use xlink:href="#m707b13bbaa" x="283.426173" y="233.137537" style="fill: #ff7f0e; stroke: #ff7f0e"/>
     <use xlink:href="#m707b13bbaa" x="288.206051" y="230.342078" style="fill: #ff7f0e; stroke: #ff7f0e"/>
     <use xlink:href="#m707b13bbaa" x="292.985929" y="234.806809" style="fill: #ff7f0e; stroke: #ff7f0e"/>
     <use xlink:href="#m707b13bbaa" x="297.765808" y="227.272885" style="fill: #ff7f0e; stroke: #ff7f0e"/>
     <use xlink:href="#m707b13bbaa" x="302.545686" y="230.684985" style="fill: #ff7f0e; stroke: #ff7f0e"/>
     <use xlink:href="#m707b13bbaa" x="307.325564" y="214.100271" style="fill: #ff7f0e; stroke: #ff7f0e"/>
     <use xlink:href="#m707b13bbaa" x="312.105442" y="231.541235" style="fill: #ff7f0e; stroke: #ff7f0e"/>
     <use xlink:href="#m707b13bbaa" x="316.885321" y="225.604194" style="fill: #ff7f0e; stroke: #ff7f0e"/>
     <use xlink:href="#m707b13bbaa" x="321.665199" y="231.600573" style="fill: #ff7f0e; stroke: #ff7f0e"/>
     <use xlink:href="#m707b13bbaa" x="326.445077" y="227.824137" style="fill: #ff7f0e; stroke: #ff7f0e"/>
     <use xlink:href="#m707b13bbaa" x="331.224956" y="229.76817" style="fill: #ff7f0e; stroke: #ff7f0e"/>
     <use xlink:href="#m707b13bbaa" x="336.004834" y="227.474783" style="fill: #ff7f0e; stroke: #ff7f0e"/>
     <use xlink:href="#m707b13bbaa" x="340.784712" y="227.784345" style="fill: #ff7f0e; stroke: #ff7f0e"/>
     <use xlink:href="#m707b13bbaa" x="345.564591" y="225.228479" style="fill: #ff7f0e; stroke: #ff7f0e"/>
     <use xlink:href="#m707b13bbaa" x="350.344469" y="204.400566" style="fill: #ff7f0e; stroke: #ff7f0e"/>
     <use xlink:href="#m707b13bbaa" x="355.124347" y="227.1227" style="fill: #ff7f0e; stroke: #ff7f0e"/>
     <use xlink:href="#m707b13bbaa" x="359.904226" y="228.774665" style="fill: #ff7f0e; stroke: #ff7f0e"/>
     <use xlink:href="#m707b13bbaa" x="364.684104" y="229.404785" style="fill: #ff7f0e; stroke: #ff7f0e"/>
     <use xlink:href="#m707b13bbaa" x="369.463982" y="228.215953" style="fill: #ff7f0e; stroke: #ff7f0e"/>
     <use xlink:href="#m707b13bbaa" x="374.243861" y="229.703579" style="fill: #ff7f0e; stroke: #ff7f0e"/>
     <use xlink:href="#m707b13bbaa" x="379.023739" y="224.404824" style="fill: #ff7f0e; stroke: #ff7f0e"/>
     <use xlink:href="#m707b13bbaa" x="383.803617" y="228.646413" style="fill: #ff7f0e; stroke: #ff7f0e"/>
     <use xlink:href="#m707b13bbaa" x="388.583496" y="228.388687" style="fill: #ff7f0e; stroke: #ff7f0e"/>
     <use xlink:href="#m707b13bbaa" x="393.363374" y="227.312344" style="fill: #ff7f0e; stroke: #ff7f0e"/>
     <use xlink:href="#m707b13bbaa" x="398.143252" y="220.926031" style="fill: #ff7f0e; stroke: #ff7f0e"/>
     <use xlink:href="#m707b13bbaa" x="402.923131" y="218.443245" style="fill: #ff7f0e; stroke: #ff7f0e"/>
     <use xlink:href="#m707b13bbaa" x="407.703009" y="219.731731" style="fill: #ff7f0e; stroke: #ff7f0e"/>
     <use xlink:href="#m707b13bbaa" x="412.482887" y="220.937259" style="fill: #ff7f0e; stroke: #ff7f0e"/>
     <use xlink:href="#m707b13bbaa" x="417.262766" y="204.074903" style="fill: #ff7f0e; stroke: #ff7f0e"/>
     <use xlink:href="#m707b13bbaa" x="422.042644" y="218.222141" style="fill: #ff7f0e; stroke: #ff7f0e"/>
     <use xlink:href="#m707b13bbaa" x="426.822522" y="204.320088" style="fill: #ff7f0e; stroke: #ff7f0e"/>
     <use xlink:href="#m707b13bbaa" x="431.602401" y="213.354873" style="fill: #ff7f0e; stroke: #ff7f0e"/>
     <use xlink:href="#m707b13bbaa" x="436.382279" y="205.252218" style="fill: #ff7f0e; stroke: #ff7f0e"/>
     <use xlink:href="#m707b13bbaa" x="441.162157" y="218.768767" style="fill: #ff7f0e; stroke: #ff7f0e"/>
     <use xlink:href="#m707b13bbaa" x="445.942036" y="211.28942" style="fill: #ff7f0e; stroke: #ff7f0e"/>
     <use xlink:href="#m707b13bbaa" x="450.721914" y="216.686848" style="fill: #ff7f0e; stroke: #ff7f0e"/>
     <use xlink:href="#m707b13bbaa" x="455.501792" y="207.23643" style="fill: #ff7f0e; stroke: #ff7f0e"/>
     <use xlink:href="#m707b13bbaa" x="460.281671" y="215.831486" style="fill: #ff7f0e; stroke: #ff7f0e"/>
     <use xlink:href="#m707b13bbaa" x="465.061549" y="186.509519" style="fill: #ff7f0e; stroke: #ff7f0e"/>
     <use xlink:href="#m707b13bbaa" x="469.841427" y="210.217243" style="fill: #ff7f0e; stroke: #ff7f0e"/>
     <use xlink:href="#m707b13bbaa" x="474.621306" y="195.746566" style="fill: #ff7f0e; stroke: #ff7f0e"/>
     <use xlink:href="#m707b13bbaa" x="479.401184" y="203.426006" style="fill: #ff7f0e; stroke: #ff7f0e"/>
     <use xlink:href="#m707b13bbaa" x="484.181062" y="206.407278" style="fill: #ff7f0e; stroke: #ff7f0e"/>
     <use xlink:href="#m707b13bbaa" x="488.960941" y="203.026623" style="fill: #ff7f0e; stroke: #ff7f0e"/>
     <use xlink:href="#m707b13bbaa" x="493.740819" y="204.270091" style="fill: #ff7f0e; stroke: #ff7f0e"/>
     <use xlink:href="#m707b13bbaa" x="498.520697" y="208.067327" style="fill: #ff7f0e; stroke: #ff7f0e"/>
     <use xlink:href="#m707b13bbaa" x="503.300576" y="207.336711" style="fill: #ff7f0e; stroke: #ff7f0e"/>
     <use xlink:href="#m707b13bbaa" x="508.080454" y="195.254469" style="fill: #ff7f0e; stroke: #ff7f0e"/>
     <use xlink:href="#m707b13bbaa" x="512.860332" y="179.742283" style="fill: #ff7f0e; stroke: #ff7f0e"/>
     <use xlink:href="#m707b13bbaa" x="517.640211" y="207.526843" style="fill: #ff7f0e; stroke: #ff7f0e"/>
     <use xlink:href="#m707b13bbaa" x="522.420089" y="208.338734" style="fill: #ff7f0e; stroke: #ff7f0e"/>
     <use xlink:href="#m707b13bbaa" x="527.199967" y="209.924591" style="fill: #ff7f0e; stroke: #ff7f0e"/>
     <use xlink:href="#m707b13bbaa" x="531.979846" y="214.133294" style="fill: #ff7f0e; stroke: #ff7f0e"/>
     <use xlink:href="#m707b13bbaa" x="536.759724" y="211.818567" style="fill: #ff7f0e; stroke: #ff7f0e"/>
     <use xlink:href="#m707b13bbaa" x="541.539602" y="201.754908" style="fill: #ff7f0e; stroke: #ff7f0e"/>
    </g>
   </g>
   <g id="patch_3">
    <path d="M 44.67125 318.04 
L 44.67125 26.88 
" style="fill: none; stroke: #000000; stroke-width: 0.8; stroke-linejoin: miter; stroke-linecap: square"/>
   </g>
   <g id="patch_4">
    <path d="M 565.2 318.04 
L 565.2 26.88 
" style="fill: none; stroke: #000000; stroke-width: 0.8; stroke-linejoin: miter; stroke-linecap: square"/>
   </g>
   <g id="patch_5">
    <path d="M 44.67125 318.04 
L 565.2 318.04 
" style="fill: none; stroke: #000000; stroke-width: 0.8; stroke-linejoin: miter; stroke-linecap: square"/>
   </g>
   <g id="patch_6">
    <path d="M 44.67125 26.88 
L 565.2 26.88 
" style="fill: none; stroke: #000000; stroke-width: 0.8; stroke-linejoin: miter; stroke-linecap: square"/>
   </g>
   <g id="text_15">
    <!-- Verification latency vs draft length, context_len=16 -->
    <g transform="translate(150.188125 20.88) scale(0.12 -0.12)">
     <defs>
      <path id="DejaVuSans-56" d="M 1831 0 
L 50 4666 
L 709 4666 
L 2188 738 
L 3669 4666 
L 4325 4666 
L 2547 0 
L 1831 0 
z
" transform="scale(0.015625)"/>
      <path id="DejaVuSans-69" d="M 603 3500 
L 1178 3500 
L 1178 0 
L 603 0 
L 603 3500 
z
M 603 4863 
L 1178 4863 
L 1178 4134 
L 603 4134 
L 603 4863 
z
" transform="scale(0.015625)"/>
      <path id="DejaVuSans-6f" d="M 1959 3097 
Q 1497 3097 1228 2736 
Q 959 2375 959 1747 
Q 959 1119 1226 758 
Q 1494 397 1959 397 
Q 2419 397 2687 759 
Q 2956 1122 2956 1747 
Q 2956 2369 2687 2733 
Q 2419 3097 1959 3097 
z
M 1959 3584 
Q 2709 3584 3137 3096 
Q 3566 2609 3566 1747 
Q 3566 888 3137 398 
Q 2709 -91 1959 -91 
Q 1206 -91 779 398 
Q 353 888 353 1747 
Q 353 2609 779 3096 
Q 1206 3584 1959 3584 
z
" transform="scale(0.015625)"/>
      <path id="DejaVuSans-79" d="M 2059 -325 
Q 1816 -950 1584 -1140 
Q 1353 -1331 966 -1331 
L 506 -1331 
L 506 -850 
L 844 -850 
Q 1081 -850 1212 -737 
Q 1344 -625 1503 -206 
L 1606 56 
L 191 3500 
L 800 3500 
L 1894 763 
L 2988 3500 
L 3597 3500 
L 2059 -325 
z
" transform="scale(0.015625)"/>
      <path id="DejaVuSans-76" d="M 191 3500 
L 800 3500 
L 1894 563 
L 2988 3500 
L 3597 3500 
L 2284 0 
L 1503 0 
L 191 3500 
z
" transform="scale(0.015625)"/>
      <path id="DejaVuSans-2c" d="M 750 794 
L 1409 794 
L 1409 256 
L 897 -744 
L 494 -744 
L 750 256 
L 750 794 
z
" transform="scale(0.015625)"/>
      <path id="DejaVuSans-78" d="M 3513 3500 
L 2247 1797 
L 3578 0 
L 2900 0 
L 1881 1375 
L 863 0 
L 184 0 
L 1544 1831 
L 300 3500 
L 978 3500 
L 1906 2253 
L 2834 3500 
L 3513 3500 
z
" transform="scale(0.015625)"/>
      <path id="DejaVuSans-3d" d="M 678 2906 
L 4684 2906 
L 4684 2381 
L 678 2381 
L 678 2906 
z
M 678 1631 
L 4684 1631 
L 4684 1100 
L 678 1100 
L 678 1631 
z
" transform="scale(0.015625)"/>
     </defs>
     <use xlink:href="#DejaVuSans-56"/>
     <use xlink:href="#DejaVuSans-65" transform="translate(60.658203 0)"/>
     <use xlink:href="#DejaVuSans-72" transform="translate(122.181641 0)"/>
     <use xlink:href="#DejaVuSans-69" transform="translate(163.294922 0)"/>
     <use xlink:href="#DejaVuSans-66" transform="translate(191.078125 0)"/>
     <use xlink:href="#DejaVuSans-69" transform="translate(226.283203 0)"/>
     <use xlink:href="#DejaVuSans-63" transform="translate(254.066406 0)"/>
     <use xlink:href="#DejaVuSans-61" transform="translate(309.046875 0)"/>
     <use xlink:href="#DejaVuSans-74" transform="translate(370.326172 0)"/>
     <use xlink:href="#DejaVuSans-69" transform="translate(409.535156 0)"/>
     <use xlink:href="#DejaVuSans-6f" transform="translate(437.318359 0)"/>
     <use xlink:href="#DejaVuSans-6e" transform="translate(498.5 0)"/>
     <use xlink:href="#DejaVuSans-20" transform="translate(561.878906 0)"/>
     <use xlink:href="#DejaVuSans-6c" transform="translate(593.666016 0)"/>
     <use xlink:href="#DejaVuSans-61" transform="translate(621.449219 0)"/>
     <use xlink:href="#DejaVuSans-74" transform="translate(682.728516 0)"/>
     <use xlink:href="#DejaVuSans-65" transform="translate(721.9375 0)"/>
     <use xlink:href="#DejaVuSans-6e" transform="translate(783.460938 0)"/>
     <use xlink:href="#DejaVuSans-63" transform="translate(846.839844 0)"/>
     <use xlink:href="#DejaVuSans-79" transform="translate(901.820312 0)"/>
     <use xlink:href="#DejaVuSans-20" transform="translate(961 0)"/>
     <use xlink:href="#DejaVuSans-76" transform="translate(992.787109 0)"/>
     <use xlink:href="#DejaVuSans-73" transform="translate(1051.966797 0)"/>
     <use xlink:href="#DejaVuSans-20" transform="translate(1104.066406 0)"/>
     <use xlink:href="#DejaVuSans-64" transform="translate(1135.853516 0)"/>
     <use xlink:href="#DejaVuSans-72" transform="translate(1199.330078 0)"/>
     <use xlink:href="#DejaVuSans-61" transform="translate(1240.443359 0)"/>
     <use xlink:href="#DejaVuSans-66" transform="translate(1301.722656 0)"/>
     <use xlink:href="#DejaVuSans-74" transform="translate(1335.177734 0)"/>
     <use xlink:href="#DejaVuSans-20" transform="translate(1374.386719 0)"/>
     <use xlink:href="#DejaVuSans-6c" transform="translate(1406.173828 0)"/>
     <use xlink:href="#DejaVuSans-65" transform="translate(1433.957031 0)"/>
     <use xlink:href="#DejaVuSans-6e" transform="translate(1495.480469 0)"/>
     <use xlink:href="#DejaVuSans-67" transform="translate(1558.859375 0)"/>
     <use xlink:href="#DejaVuSans-74" transform="translate(1622.335938 0)"/>
     <use xlink:href="#DejaVuSans-68" transform="translate(1661.544922 0)"/>
     <use xlink:href="#DejaVuSans-2c" transform="translate(1724.923828 0)"/>
     <use xlink:href="#DejaVuSans-20" transform="translate(1756.710938 0)"/>
     <use xlink:href="#DejaVuSans-63" transform="translate(1788.498047 0)"/>
     <use xlink:href="#DejaVuSans-6f" transform="translate(1843.478516 0)"/>
     <use xlink:href="#DejaVuSans-6e" transform="translate(1904.660156 0)"/>
     <use xlink:href="#DejaVuSans-74" transform="translate(1968.039062 0)"/>
     <use xlink:href="#DejaVuSans-65" transform="translate(2007.248047 0)"/>
     <use xlink:href="#DejaVuSans-78" transform="translate(2067.021484 0)"/>
     <use xlink:href="#DejaVuSans-74" transform="translate(2126.201172 0)"/>
     <use xlink:href="#DejaVuSans-5f" transform="translate(2165.410156 0)"/>
     <use xlink:href="#DejaVuSans-6c" transform="translate(2215.410156 0)"/>
     <use xlink:href="#DejaVuSans-65" transform="translate(2243.193359 0)"/>
     <use xlink:href="#DejaVuSans-6e" transform="translate(2304.716797 0)"/>
     <use xlink:href="#DejaVuSans-3d" transform="translate(2368.095703 0)"/>
     <use xlink:href="#DejaVuSans-31" transform="translate(2451.884766 0)"/>
     <use xlink:href="#DejaVuSans-36" transform="translate(2515.507812 0)"/>
    </g>
   </g>
   <g id="legend_1">
    <g id="patch_7">
     <path d="M 51.67125 64.7925 
L 195.649375 64.7925 
Q 197.649375 64.7925 197.649375 62.7925 
L 197.649375 33.88 
Q 197.649375 31.88 195.649375 31.88 
L 51.67125 31.88 
Q 49.67125 31.88 49.67125 33.88 
L 49.67125 62.7925 
Q 49.67125 64.7925 51.67125 64.7925 
z
" style="fill: #ffffff; opacity: 0.8; stroke: #cccccc; stroke-linejoin: miter"/>
    </g>
    <g id="line2d_27">
     <path d="M 53.67125 39.978437 
L 63.67125 39.978437 
L 73.67125 39.978437 
" style="fill: none; stroke: #1f77b4; stroke-width: 1.2; stroke-linecap: square"/>
     <g>
      <use xlink:href="#mcb43fb77c7" x="63.67125" y="39.978437" style="fill: #1f77b4; stroke: #1f77b4"/>
     </g>
    </g>
    <g id="text_16">
     <!-- target_only -->
     <g transform="translate(81.67125 43.478437) scale(0.1 -0.1)">
      <use xlink:href="#DejaVuSans-74"/>
      <use xlink:href="#DejaVuSans-61" transform="translate(39.208984 0)"/>
      <use xlink:href="#DejaVuSans-72" transform="translate(100.488281 0)"/>
      <use xlink:href="#DejaVuSans-67" transform="translate(139.851562 0)"/>
      <use xlink:href="#DejaVuSans-65" transform="translate(203.328125 0)"/>
      <use xlink:href="#DejaVuSans-74" transform="translate(264.851562 0)"/>
      <use xlink:href="#DejaVuSans-5f" transform="translate(304.060547 0)"/>
      <use xlink:href="#DejaVuSans-6f" transform="translate(354.060547 0)"/>
      <use xlink:href="#DejaVuSans-6e" transform="translate(415.242188 0)"/>
      <use xlink:href="#DejaVuSans-6c" transform="translate(478.621094 0)"/>
      <use xlink:href="#DejaVuSans-79" transform="translate(506.404297 0)"/>
     </g>
    </g>
    <g id="line2d_28">
     <path d="M 53.67125 54.934687 
L 63.67125 54.934687 
L 73.67125 54.934687 
" style="fill: none; stroke: #ff7f0e; stroke-width: 1.2; stroke-linecap: square"/>
     <g>
      <use xlink:href="#m707b13bbaa" x="63.67125" y="54.934687" style="fill: #ff7f0e; stroke: #ff7f0e"/>
     </g>
    </g>
    <g id="text_17">
     <!-- classic_spec_sampling -->
     <g transform="translate(81.67125 58.434687) scale(0.1 -0.1)">
      <defs>
       <path id="DejaVuSans-70" d="M 1159 525 
L 1159 -1331 
L 581 -1331 
L 581 3500 
L 1159 3500 
L 1159 2969 
Q 1341 3281 1617 3432 
Q 1894 3584 2278 3584 
Q 2916 3584 3314 3078 
Q 3713 2572 3713 1747 
Q 3713 922 3314 415 
Q 2916 -91 2278 -91 
Q 1894 -91 1617 61 
Q 1341 213 1159 525 
z
M 3116 1747 
Q 3116 2381 2855 2742 
Q 2594 3103 2138 3103 
Q 1681 3103 1420 2742 
Q 1159 2381 1159 1747 
Q 1159 1113 1420 752 
Q 1681 391 2138 391 
Q 2594 391 2855 752 
Q 3116 1113 3116 1747 
z
" transform="scale(0.015625)"/>
      </defs>
      <use xlink:href="#DejaVuSans-63"/>
      <use xlink:href="#DejaVuSans-6c" transform="translate(54.980469 0)"/>
      <use xlink:href="#DejaVuSans-61" transform="translate(82.763672 0)"/>
      <use xlink:href="#DejaVuSans-73" transform="translate(144.042969 0)"/>
      <use xlink:href="#DejaVuSans-73" transform="translate(196.142578 0)"/>
      <use xlink:href="#DejaVuSans-69" transform="translate(248.242188 0)"/>
      <use xlink:href="#DejaVuSans-63" transform="translate(276.025391 0)"/>
      <use xlink:href="#DejaVuSans-5f" transform="translate(331.005859 0)"/>
      <use xlink:href="#DejaVuSans-73" transform="translate(381.005859 0)"/>
      <use xlink:href="#DejaVuSans-70" transform="translate(433.105469 0)"/>
      <use xlink:href="#DejaVuSans-65" transform="translate(496.582031 0)"/>
      <use xlink:href="#DejaVuSans-63" transform="translate(558.105469 0)"/>
      <use xlink:href="#DejaVuSans-5f" transform="translate(613.085938 0)"/>
      <use xlink:href="#DejaVuSans-73" transform="translate(663.085938 0)"/>
      <use xlink:href="#DejaVuSans-61" transform="translate(715.185547 0)"/>
      <use xlink:href="#DejaVuSans-6d" transform="translate(776.464844 0)"/>
      <use xlink:href="#DejaVuSans-70" transform="translate(873.876953 0)"/>
      <use xlink:href="#DejaVuSans-6c" transform="translate(937.353516 0)"/>
      <use xlink:href="#DejaVuSans-69" transform="translate(965.136719 0)"/>
      <use xlink:href="#DejaVuSans-6e" transform="translate(992.919922 0)"/>
      <use xlink:href="#DejaVuSans-67" transform="translate(1056.298828 0)"/>
     </g>
    </g>
   </g>
  </g>
 </g>
 <defs>
  <clipPath id="pf1c7bb87b3">
   <rect x="44.67125" y="26.88" width="520.52875" height="291.16"/>
  </clipPath>
 </defs>
</svg>
