<?xml version="1.0" encoding="utf-8" standalone="no"?>
<!DOCTYPE svg PUBLIC "-//W3C//DTD SVG 1.1//EN"
  "http://www.w3.org/Graphics/SVG/1.1/DTD/svg11.dtd">
<svg xmlns:xlink="http://www.w3.org/1999/xlink" width="576pt" height="360pt" viewBox="0 0 576 360" xmlns="http://www.w3.org/2000/svg" version="1.1">
 <metadata>
  <rdf:RDF xmlns:dc="http://purl.org/dc/elements/1.1/" xmlns:cc="http://creativecommons.org/ns#" xmlns:rdf="http://www.w3.org/1999/02/22-rdf-syntax-ns#">
   <cc:Work>
    <dc:type rdf:resource="http://purl.org/dc/dcmitype/StillImage"/>
    <dc:date>2026-05-18T00:00:01.761339</dc:date>
    <dc:format>image/svg+xml</dc:format>
    <dc:creator>
     <cc:Agent>
      <dc:title>Matplotlib v3.10.9, https://matplotlib.org/</dc:title>
     </cc:Agent>
    </dc:creator>
   </cc:Work>
  </rdf:RDF>
 </metadata>
 <defs>
  <style type="text/css">*{stroke-linejoin: round; stroke-linecap: butt}</style>
 </defs>
 <g id="figure_1">
  <g id="patch_1">
   <path d="M 0 360 
L 576 360 
L 576 0 
L 0 0 
z
" style="fill: #ffffff"/>
  </g>
  <g id="axes_1">
   <g id="patch_2">
    <path d="M 44.67125 318.04 
L 565.2 318.04 
L 565.2 26.88 
L 44.67125 26.88 
z
" style="fill: #ffffff"/>
   </g>
   <g id="FillBetweenPolyCollection_1">
    <path d="M 68.331648 226.828681 
L 68.331648 232.589502 
L 73.111526 221.992774 
L 77.891404 235.091632 
L 82.671283 226.922807 
L 87.451161 244.092097 
L 92.231039 223.659958 
L 97.010918 227.648915 
L 101.790796 221.93323 
L 106.570674 221.772856 
L 111.350553 227.531547 
L 116.130431 228.922363 
L 120.910309 234.734557 
L 125.690188 234.337339 
L 130.470066 234.864066 
L 135.249944 242.755341 
L 140.029823 234.163005 
L 144.809701 226.076655 
L 149.589579 227.492038 
L 154.369458 231.683336 
L 159.149336 225.911864 
L 163.929214 225.037928 
L 168.709093 225.81869 
L 173.488971 225.209278 
L 178.268849 226.046984 
L 183.048728 227.270594 
L 187.828606 224.090025 
L 192.608484 223.666468 
L 197.388363 223.95573 
L 202.168241 223.088081 
L 206.948119 243.967831 
L 211.727998 222.992078 
L 216.507876 227.951739 
L 221.287754 232.514041 
L 226.067633 223.94345 
L 230.847511 222.401245 
L 235.627389 223.414688 
L 240.407268 222.329244 
L 245.187146 228.369046 
L 249.967024 222.994926 
L 254.746903 246.322506 
L 259.526781 222.236304 
L 264.306659 304.805455 
L 269.086538 221.745141 
L 273.866416 280.266217 
L 278.646294 221.401475 
L 283.426173 221.944154 
L 288.206051 225.451304 
L 292.985929 227.187818 
L 297.765808 221.382701 
L 302.545686 222.476681 
L 307.325564 219.499213 
L 312.105442 220.494557 
L 316.885321 229.734044 
L 321.665199 219.196909 
L 326.445077 217.706856 
L 331.224956 214.964778 
L 336.004834 213.901962 
L 340.784712 212.567167 
L 345.564591 220.041753 
L 350.344469 232.095288 
L 355.124347 215.607902 
L 359.904226 214.186881 
L 364.684104 216.716237 
L 369.463982 216.321897 
L 374.243861 226.18009 
L 379.023739 217.653935 
L 383.803617 215.656933 
L 388.583496 210.544622 
L 393.363374 217.62088 
L 398.143252 213.517971 
L 402.923131 207.658565 
L 407.703009 209.891172 
L 412.482887 242.233812 
L 417.262766 217.278204 
L 422.042644 207.486969 
L 426.822522 207.756913 
L 431.602401 206.850241 
L 436.382279 220.382921 
L 441.162157 224.342089 
L 445.942036 208.520614 
L 450.721914 205.917082 
L 455.501792 213.745476 
L 460.281671 204.109614 
L 465.061549 205.035361 
L 469.841427 203.435252 
L 474.621306 204.010272 
L 479.401184 203.520234 
L 484.181062 206.108706 
L 488.960941 204.294955 
L 493.740819 205.770752 
L 498.520697 214.625442 
L 503.300576 260.922706 
L 508.080454 203.618834 
L 512.860332 260.640206 
L 517.640211 202.74019 
L 522.420089 212.866228 
L 527.199967 205.103338 
L 531.979846 200.352431 
L 536.759724 199.047594 
L 541.539602 199.227551 
L 541.539602 197.403343 
L 541.539602 197.403343 
L 536.759724 197.743317 
L 531.979846 199.544062 
L 527.199967 186.709299 
L 522.420089 182.031196 
L 517.640211 201.590311 
L 512.860332 90.512723 
L 508.080454 201.634966 
L 503.300576 93.636941 
L 498.520697 182.490289 
L 493.740819 200.287051 
L 488.960941 203.120739 
L 484.181062 205.057725 
L 479.401184 202.780133 
L 474.621306 202.960292 
L 469.841427 202.510611 
L 465.061549 204.087626 
L 460.281671 202.08872 
L 455.501792 188.012789 
L 450.721914 204.926622 
L 445.942036 206.907505 
L 441.162157 169.982285 
L 436.382279 182.708827 
L 431.602401 205.649548 
L 426.822522 207.153621 
L 422.042644 206.573058 
L 417.262766 188.815622 
L 412.482887 139.067564 
L 407.703009 209.114226 
L 402.923131 206.711724 
L 398.143252 200.507614 
L 393.363374 188.757716 
L 388.583496 208.350883 
L 383.803617 214.510434 
L 379.023739 216.723569 
L 374.243861 195.649694 
L 369.463982 214.521326 
L 364.684104 206.396775 
L 359.904226 208.757545 
L 355.124347 209.892739 
L 350.344469 169.815305 
L 345.564591 191.778382 
L 340.784712 209.199453 
L 336.004834 208.396574 
L 331.224956 208.993749 
L 326.445077 209.108907 
L 321.665199 216.9672 
L 316.885321 176.20372 
L 312.105442 215.501699 
L 307.325564 216.470365 
L 302.545686 217.972622 
L 297.765808 220.133501 
L 292.985929 212.982952 
L 288.206051 208.249658 
L 283.426173 220.851657 
L 278.646294 219.907454 
L 273.866416 109.386343 
L 269.086538 220.778649 
L 264.306659 60.825629 
L 259.526781 220.857644 
L 254.746903 177.270761 
L 249.967024 221.19905 
L 245.187146 210.798444 
L 240.407268 221.389008 
L 235.627389 220.571285 
L 230.847511 220.625683 
L 226.067633 218.550486 
L 221.287754 203.788681 
L 216.507876 214.27199 
L 211.727998 221.976104 
L 206.948119 182.572005 
L 202.168241 221.94456 
L 197.388363 222.700025 
L 192.608484 221.907896 
L 187.828606 222.686617 
L 183.048728 218.996569 
L 178.268849 224.641843 
L 173.488971 223.626782 
L 168.709093 224.727945 
L 163.929214 222.654078 
L 159.149336 224.704505 
L 154.369458 212.473205 
L 149.589579 222.497305 
L 144.809701 224.152195 
L 140.029823 232.792618 
L 135.249944 214.90779 
L 130.470066 233.978477 
L 125.690188 232.633002 
L 120.910309 211.055576 
L 116.130431 221.216073 
L 111.350553 218.838939 
L 106.570674 218.556526 
L 101.790796 216.423238 
L 97.010918 216.668382 
L 92.231039 219.179358 
L 87.451161 181.995411 
L 82.671283 208.9175 
L 77.891404 186.233138 
L 73.111526 216.494038 
L 68.331648 226.828681 
z
" clip-path="url(#p82f44ac6bd)" style="fill: #1f77b4; fill-opacity: 0.15"/>
   </g>
   <g id="FillBetweenPolyCollection_2">
    <path d="M 68.331648 222.012506 
L 68.331648 225.98619 
L 73.111526 222.40689 
L 77.891404 218.84909 
L 82.671283 230.200086 
L 87.451161 216.08109 
L 92.231039 225.955391 
L 97.010918 282.815535 
L 101.790796 215.464068 
L 106.570674 215.101543 
L 111.350553 221.696538 
L 116.130431 239.001433 
L 120.910309 227.239872 
L 125.690188 230.388648 
L 130.470066 234.422811 
L 135.249944 230.148018 
L 140.029823 230.634535 
L 144.809701 227.893077 
L 149.589579 221.888755 
L 154.369458 221.135515 
L 159.149336 221.453966 
L 163.929214 232.882198 
L 168.709093 221.537393 
L 173.488971 232.76409 
L 178.268849 238.498834 
L 183.048728 231.915726 
L 187.828606 219.865491 
L 192.608484 222.590757 
L 197.388363 219.750008 
L 202.168241 219.488462 
L 206.948119 219.243246 
L 211.727998 218.761912 
L 216.507876 219.117768 
L 221.287754 219.317386 
L 226.067633 227.464413 
L 230.847511 217.607796 
L 235.627389 226.978572 
L 240.407268 218.570533 
L 245.187146 219.37256 
L 249.967024 232.943194 
L 254.746903 218.952897 
L 259.526781 217.621821 
L 264.306659 223.28895 
L 269.086538 225.646494 
L 273.866416 229.266308 
L 278.646294 217.030678 
L 283.426173 220.640734 
L 288.206051 216.837637 
L 292.985929 218.83542 
L 297.765808 216.972605 
L 302.545686 217.584362 
L 307.325564 219.249016 
L 312.105442 237.213701 
L 316.885321 214.002438 
L 321.665199 214.745008 
L 326.445077 218.137067 
L 331.224956 213.761221 
L 336.004834 204.839382 
L 340.784712 213.009883 
L 345.564591 204.129272 
L 350.344469 207.350815 
L 355.124347 210.827362 
L 359.904226 214.477091 
L 364.684104 209.841951 
L 369.463982 212.086794 
L 374.243861 225.813782 
L 379.023739 213.355109 
L 383.803617 299.259423 
L 388.583496 205.90533 
L 393.363374 204.004071 
L 398.143252 204.947249 
L 402.923131 235.327065 
L 407.703009 205.707395 
L 412.482887 203.119944 
L 417.262766 203.857164 
L 422.042644 216.690268 
L 426.822522 203.621611 
L 431.602401 215.891988 
L 436.382279 203.967258 
L 441.162157 202.394247 
L 445.942036 217.979441 
L 450.721914 201.613408 
L 455.501792 201.25704 
L 460.281671 210.19478 
L 465.061549 263.860993 
L 469.841427 199.030658 
L 474.621306 218.068647 
L 479.401184 199.128768 
L 484.181062 210.50098 
L 488.960941 200.312688 
L 493.740819 213.763765 
L 498.520697 199.537906 
L 503.300576 199.960195 
L 508.080454 199.094307 
L 512.860332 206.316741 
L 517.640211 198.085659 
L 522.420089 198.267656 
L 527.199967 195.250951 
L 531.979846 216.089755 
L 536.759724 194.476685 
L 541.539602 229.906956 
L 541.539602 124.641866 
L 541.539602 124.641866 
L 536.759724 193.768755 
L 531.979846 132.948021 
L 527.199967 194.306609 
L 522.420089 196.732135 
L 517.640211 196.189493 
L 512.860332 176.252692 
L 508.080454 198.411893 
L 503.300576 198.882322 
L 498.520697 198.762833 
L 493.740819 151.734539 
L 488.960941 198.961365 
L 484.181062 182.413334 
L 479.401184 198.251059 
L 474.621306 162.521188 
L 469.841427 198.279375 
L 465.061549 57.961301 
L 460.281671 175.08965 
L 455.501792 198.937135 
L 450.721914 200.695758 
L 445.942036 175.53256 
L 441.162157 201.214803 
L 436.382279 202.943307 
L 431.602401 173.980699 
L 426.822522 202.735456 
L 422.042644 175.134038 
L 417.262766 202.822739 
L 412.482887 201.803782 
L 407.703009 204.616009 
L 402.923131 140.993086 
L 398.143252 204.184465 
L 393.363374 202.716272 
L 388.583496 204.715583 
L 383.803617 40.114545 
L 379.023739 212.448422 
L 374.243861 183.340478 
L 369.463982 209.512551 
L 364.684104 206.052826 
L 359.904226 195.249249 
L 355.124347 203.162878 
L 350.344469 202.375633 
L 345.564591 202.20151 
L 340.784712 186.495578 
L 336.004834 202.671481 
L 331.224956 189.343274 
L 326.445077 192.772292 
L 321.665199 208.911085 
L 316.885321 208.35581 
L 312.105442 165.99445 
L 307.325564 201.217762 
L 302.545686 211.595243 
L 297.765808 215.667755 
L 292.985929 217.36953 
L 288.206051 214.782783 
L 283.426173 210.060247 
L 278.646294 215.630862 
L 273.866416 195.298059 
L 269.086538 199.620028 
L 264.306659 206.86221 
L 259.526781 216.07127 
L 254.746903 217.271592 
L 249.967024 188.245565 
L 245.187146 216.087931 
L 240.407268 215.989372 
L 235.627389 200.328893 
L 230.847511 216.937216 
L 226.067633 199.029994 
L 221.287754 216.953104 
L 216.507876 218.136689 
L 211.727998 217.355966 
L 206.948119 217.855199 
L 202.168241 215.610956 
L 197.388363 218.367016 
L 192.608484 210.445335 
L 187.828606 218.89952 
L 183.048728 189.299377 
L 178.268849 188.264986 
L 173.488971 196.19844 
L 168.709093 220.394152 
L 163.929214 193.498011 
L 159.149336 220.792764 
L 154.369458 220.063409 
L 149.589579 220.964891 
L 144.809701 208.043591 
L 140.029823 228.092263 
L 135.249944 228.85029 
L 130.470066 221.713053 
L 125.690188 228.651181 
L 120.910309 215.964701 
L 116.130431 188.913349 
L 111.350553 213.37212 
L 106.570674 212.851988 
L 101.790796 209.973464 
L 97.010918 81.466095 
L 92.231039 192.12581 
L 87.451161 208.584735 
L 82.671283 191.583184 
L 77.891404 210.188212 
L 73.111526 201.11036 
L 68.331648 222.012506 
z
" clip-path="url(#p82f44ac6bd)" style="fill: #ff7f0e; fill-opacity: 0.15"/>
   </g>
   <g id="matplotlib.axis_1">
    <g id="xtick_1">
     <g id="line2d_1">
      <path d="M 63.551769 318.04 
L 63.551769 26.88 
" clip-path="url(#p82f44ac6bd)" style="fill: none; stroke: #b0b0b0; stroke-opacity: 0.3; stroke-width: 0.8; stroke-linecap: square"/>
     </g>
     <g id="line2d_2">
      <defs>
       <path id="ma8cebf42fd" d="M 0 0 
L 0 3.5 
" style="stroke: #000000; stroke-width: 0.8"/>
      </defs>
      <g>
       <use xlink:href="#ma8cebf42fd" x="63.551769" y="318.04" style="stroke: #000000; stroke-width: 0.8"/>
      </g>
     </g>
     <g id="text_1">
      <!-- 0 -->
      <g transform="translate(60.370519 332.638438) scale(0.1 -0.1)">
       <defs>
        <path id="DejaVuSans-30" d="M 2034 4250 
Q 1547 4250 1301 3770 
Q 1056 3291 1056 2328 
Q 1056 1369 1301 889 
Q 1547 409 2034 409 
Q 2525 409 2770 889 
Q 3016 1369 3016 2328 
Q 3016 3291 2770 3770 
Q 2525 4250 2034 4250 
z
M 2034 4750 
Q 2819 4750 3233 4129 
Q 3647 3509 3647 2328 
Q 3647 1150 3233 529 
Q 2819 -91 2034 -91 
Q 1250 -91 836 529 
Q 422 1150 422 2328 
Q 422 3509 836 4129 
Q 1250 4750 2034 4750 
z
" transform="scale(0.015625)"/>
       </defs>
       <use xlink:href="#DejaVuSans-30"/>
      </g>
     </g>
    </g>
    <g id="xtick_2">
     <g id="line2d_3">
      <path d="M 159.149336 318.04 
L 159.149336 26.88 
" clip-path="url(#p82f44ac6bd)" style="fill: none; stroke: #b0b0b0; stroke-opacity: 0.3; stroke-width: 0.8; stroke-linecap: square"/>
     </g>
     <g id="line2d_4">
      <g>
       <use xlink:href="#ma8cebf42fd" x="159.149336" y="318.04" style="stroke: #000000; stroke-width: 0.8"/>
      </g>
     </g>
     <g id="text_2">
      <!-- 20 -->
      <g transform="translate(152.786836 332.638438) scale(0.1 -0.1)">
       <defs>
        <path id="DejaVuSans-32" d="M 1228 531 
L 3431 531 
L 3431 0 
L 469 0 
L 469 531 
Q 828 903 1448 1529 
Q 2069 2156 2228 2338 
Q 2531 2678 2651 2914 
Q 2772 3150 2772 3378 
Q 2772 3750 2511 3984 
Q 2250 4219 1831 4219 
Q 1534 4219 1204 4116 
Q 875 4013 500 3803 
L 500 4441 
Q 881 4594 1212 4672 
Q 1544 4750 1819 4750 
Q 2544 4750 2975 4387 
Q 3406 4025 3406 3419 
Q 3406 3131 3298 2873 
Q 3191 2616 2906 2266 
Q 2828 2175 2409 1742 
Q 1991 1309 1228 531 
z
" transform="scale(0.015625)"/>
       </defs>
       <use xlink:href="#DejaVuSans-32"/>
       <use xlink:href="#DejaVuSans-30" transform="translate(63.623047 0)"/>
      </g>
     </g>
    </g>
    <g id="xtick_3">
     <g id="line2d_5">
      <path d="M 254.746903 318.04 
L 254.746903 26.88 
" clip-path="url(#p82f44ac6bd)" style="fill: none; stroke: #b0b0b0; stroke-opacity: 0.3; stroke-width: 0.8; stroke-linecap: square"/>
     </g>
     <g id="line2d_6">
      <g>
       <use xlink:href="#ma8cebf42fd" x="254.746903" y="318.04" style="stroke: #000000; stroke-width: 0.8"/>
      </g>
     </g>
     <g id="text_3">
      <!-- 40 -->
      <g transform="translate(248.384403 332.638438) scale(0.1 -0.1)">
       <defs>
        <path id="DejaVuSans-34" d="M 2419 4116 
L 825 1625 
L 2419 1625 
L 2419 4116 
z
M 2253 4666 
L 3047 4666 
L 3047 1625 
L 3713 1625 
L 3713 1100 
L 3047 1100 
L 3047 0 
L 2419 0 
L 2419 1100 
L 313 1100 
L 313 1709 
L 2253 4666 
z
" transform="scale(0.015625)"/>
       </defs>
       <use xlink:href="#DejaVuSans-34"/>
       <use xlink:href="#DejaVuSans-30" transform="translate(63.623047 0)"/>
      </g>
     </g>
    </g>
    <g id="xtick_4">
     <g id="line2d_7">
      <path d="M 350.344469 318.04 
L 350.344469 26.88 
" clip-path="url(#p82f44ac6bd)" style="fill: none; stroke: #b0b0b0; stroke-opacity: 0.3; stroke-width: 0.8; stroke-linecap: square"/>
     </g>
     <g id="line2d_8">
      <g>
       <use xlink:href="#ma8cebf42fd" x="350.344469" y="318.04" style="stroke: #000000; stroke-width: 0.8"/>
      </g>
     </g>
     <g id="text_4">
      <!-- 60 -->
      <g transform="translate(343.981969 332.638438) scale(0.1 -0.1)">
       <defs>
        <path id="DejaVuSans-36" d="M 2113 2584 
Q 1688 2584 1439 2293 
Q 1191 2003 1191 1497 
Q 1191 994 1439 701 
Q 1688 409 2113 409 
Q 2538 409 2786 701 
Q 3034 994 3034 1497 
Q 3034 2003 2786 2293 
Q 2538 2584 2113 2584 
z
M 3366 4563 
L 3366 3988 
Q 3128 4100 2886 4159 
Q 2644 4219 2406 4219 
Q 1781 4219 1451 3797 
Q 1122 3375 1075 2522 
Q 1259 2794 1537 2939 
Q 1816 3084 2150 3084 
Q 2853 3084 3261 2657 
Q 3669 2231 3669 1497 
Q 3669 778 3244 343 
Q 2819 -91 2113 -91 
Q 1303 -91 875 529 
Q 447 1150 447 2328 
Q 447 3434 972 4092 
Q 1497 4750 2381 4750 
Q 2619 4750 2861 4703 
Q 3103 4656 3366 4563 
z
" transform="scale(0.015625)"/>
       </defs>
       <use xlink:href="#DejaVuSans-36"/>
       <use xlink:href="#DejaVuSans-30" transform="translate(63.623047 0)"/>
      </g>
     </g>
    </g>
    <g id="xtick_5">
     <g id="line2d_9">
      <path d="M 445.942036 318.04 
L 445.942036 26.88 
" clip-path="url(#p82f44ac6bd)" style="fill: none; stroke: #b0b0b0; stroke-opacity: 0.3; stroke-width: 0.8; stroke-linecap: square"/>
     </g>
     <g id="line2d_10">
      <g>
       <use xlink:href="#ma8cebf42fd" x="445.942036" y="318.04" style="stroke: #000000; stroke-width: 0.8"/>
      </g>
     </g>
     <g id="text_5">
      <!-- 80 -->
      <g transform="translate(439.579536 332.638438) scale(0.1 -0.1)">
       <defs>
        <path id="DejaVuSans-38" d="M 2034 2216 
Q 1584 2216 1326 1975 
Q 1069 1734 1069 1313 
Q 1069 891 1326 650 
Q 1584 409 2034 409 
Q 2484 409 2743 651 
Q 3003 894 3003 1313 
Q 3003 1734 2745 1975 
Q 2488 2216 2034 2216 
z
M 1403 2484 
Q 997 2584 770 2862 
Q 544 3141 544 3541 
Q 544 4100 942 4425 
Q 1341 4750 2034 4750 
Q 2731 4750 3128 4425 
Q 3525 4100 3525 3541 
Q 3525 3141 3298 2862 
Q 3072 2584 2669 2484 
Q 3125 2378 3379 2068 
Q 3634 1759 3634 1313 
Q 3634 634 3220 271 
Q 2806 -91 2034 -91 
Q 1263 -91 848 271 
Q 434 634 434 1313 
Q 434 1759 690 2068 
Q 947 2378 1403 2484 
z
M 1172 3481 
Q 1172 3119 1398 2916 
Q 1625 2713 2034 2713 
Q 2441 2713 2670 2916 
Q 2900 3119 2900 3481 
Q 2900 3844 2670 4047 
Q 2441 4250 2034 4250 
Q 1625 4250 1398 4047 
Q 1172 3844 1172 3481 
z
" transform="scale(0.015625)"/>
       </defs>
       <use xlink:href="#DejaVuSans-38"/>
       <use xlink:href="#DejaVuSans-30" transform="translate(63.623047 0)"/>
      </g>
     </g>
    </g>
    <g id="xtick_6">
     <g id="line2d_11">
      <path d="M 541.539602 318.04 
L 541.539602 26.88 
" clip-path="url(#p82f44ac6bd)" style="fill: none; stroke: #b0b0b0; stroke-opacity: 0.3; stroke-width: 0.8; stroke-linecap: square"/>
     </g>
     <g id="line2d_12">
      <g>
       <use xlink:href="#ma8cebf42fd" x="541.539602" y="318.04" style="stroke: #000000; stroke-width: 0.8"/>
      </g>
     </g>
     <g id="text_6">
      <!-- 100 -->
      <g transform="translate(531.995852 332.638438) scale(0.1 -0.1)">
       <defs>
        <path id="DejaVuSans-31" d="M 794 531 
L 1825 531 
L 1825 4091 
L 703 3866 
L 703 4441 
L 1819 4666 
L 2450 4666 
L 2450 531 
L 3481 531 
L 3481 0 
L 794 0 
L 794 531 
z
" transform="scale(0.015625)"/>
       </defs>
       <use xlink:href="#DejaVuSans-31"/>
       <use xlink:href="#DejaVuSans-30" transform="translate(63.623047 0)"/>
       <use xlink:href="#DejaVuSans-30" transform="translate(127.246094 0)"/>
      </g>
     </g>
    </g>
    <g id="text_7">
     <!-- Draft length -->
     <g transform="translate(274.806719 346.316563) scale(0.1 -0.1)">
      <defs>
       <path id="DejaVuSans-44" d="M 1259 4147 
L 1259 519 
L 2022 519 
Q 2988 519 3436 956 
Q 3884 1394 3884 2338 
Q 3884 3275 3436 3711 
Q 2988 4147 2022 4147 
L 1259 4147 
z
M 628 4666 
L 1925 4666 
Q 3281 4666 3915 4102 
Q 4550 3538 4550 2338 
Q 4550 1131 3912 565 
Q 3275 0 1925 0 
L 628 0 
L 628 4666 
z
" transform="scale(0.015625)"/>
       <path id="DejaVuSans-72" d="M 2631 2963 
Q 2534 3019 2420 3045 
Q 2306 3072 2169 3072 
Q 1681 3072 1420 2755 
Q 1159 2438 1159 1844 
L 1159 0 
L 581 0 
L 581 3500 
L 1159 3500 
L 1159 2956 
Q 1341 3275 1631 3429 
Q 1922 3584 2338 3584 
Q 2397 3584 2469 3576 
Q 2541 3569 2628 3553 
L 2631 2963 
z
" transform="scale(0.015625)"/>
       <path id="DejaVuSans-61" d="M 2194 1759 
Q 1497 1759 1228 1600 
Q 959 1441 959 1056 
Q 959 750 1161 570 
Q 1363 391 1709 391 
Q 2188 391 2477 730 
Q 2766 1069 2766 1631 
L 2766 1759 
L 2194 1759 
z
M 3341 1997 
L 3341 0 
L 2766 0 
L 2766 531 
Q 2569 213 2275 61 
Q 1981 -91 1556 -91 
Q 1019 -91 701 211 
Q 384 513 384 1019 
Q 384 1609 779 1909 
Q 1175 2209 1959 2209 
L 2766 2209 
L 2766 2266 
Q 2766 2663 2505 2880 
Q 2244 3097 1772 3097 
Q 1472 3097 1187 3025 
Q 903 2953 641 2809 
L 641 3341 
Q 956 3463 1253 3523 
Q 1550 3584 1831 3584 
Q 2591 3584 2966 3190 
Q 3341 2797 3341 1997 
z
" transform="scale(0.015625)"/>
       <path id="DejaVuSans-66" d="M 2375 4863 
L 2375 4384 
L 1825 4384 
Q 1516 4384 1395 4259 
Q 1275 4134 1275 3809 
L 1275 3500 
L 2222 3500 
L 2222 3053 
L 1275 3053 
L 1275 0 
L 697 0 
L 697 3053 
L 147 3053 
L 147 3500 
L 697 3500 
L 697 3744 
Q 697 4328 969 4595 
Q 1241 4863 1831 4863 
L 2375 4863 
z
" transform="scale(0.015625)"/>
       <path id="DejaVuSans-74" d="M 1172 4494 
L 1172 3500 
L 2356 3500 
L 2356 3053 
L 1172 3053 
L 1172 1153 
Q 1172 725 1289 603 
Q 1406 481 1766 481 
L 2356 481 
L 2356 0 
L 1766 0 
Q 1100 0 847 248 
Q 594 497 594 1153 
L 594 3053 
L 172 3053 
L 172 3500 
L 594 3500 
L 594 4494 
L 1172 4494 
z
" transform="scale(0.015625)"/>
       <path id="DejaVuSans-20" transform="scale(0.015625)"/>
       <path id="DejaVuSans-6c" d="M 603 4863 
L 1178 4863 
L 1178 0 
L 603 0 
L 603 4863 
z
" transform="scale(0.015625)"/>
       <path id="DejaVuSans-65" d="M 3597 1894 
L 3597 1613 
L 953 1613 
Q 991 1019 1311 708 
Q 1631 397 2203 397 
Q 2534 397 2845 478 
Q 3156 559 3463 722 
L 3463 178 
Q 3153 47 2828 -22 
Q 2503 -91 2169 -91 
Q 1331 -91 842 396 
Q 353 884 353 1716 
Q 353 2575 817 3079 
Q 1281 3584 2069 3584 
Q 2775 3584 3186 3129 
Q 3597 2675 3597 1894 
z
M 3022 2063 
Q 3016 2534 2758 2815 
Q 2500 3097 2075 3097 
Q 1594 3097 1305 2825 
Q 1016 2553 972 2059 
L 3022 2063 
z
" transform="scale(0.015625)"/>
       <path id="DejaVuSans-6e" d="M 3513 2113 
L 3513 0 
L 2938 0 
L 2938 2094 
Q 2938 2591 2744 2837 
Q 2550 3084 2163 3084 
Q 1697 3084 1428 2787 
Q 1159 2491 1159 1978 
L 1159 0 
L 581 0 
L 581 3500 
L 1159 3500 
L 1159 2956 
Q 1366 3272 1645 3428 
Q 1925 3584 2291 3584 
Q 2894 3584 3203 3211 
Q 3513 2838 3513 2113 
z
" transform="scale(0.015625)"/>
       <path id="DejaVuSans-67" d="M 2906 1791 
Q 2906 2416 2648 2759 
Q 2391 3103 1925 3103 
Q 1463 3103 1205 2759 
Q 947 2416 947 1791 
Q 947 1169 1205 825 
Q 1463 481 1925 481 
Q 2391 481 2648 825 
Q 2906 1169 2906 1791 
z
M 3481 434 
Q 3481 -459 3084 -895 
Q 2688 -1331 1869 -1331 
Q 1566 -1331 1297 -1286 
Q 1028 -1241 775 -1147 
L 775 -588 
Q 1028 -725 1275 -790 
Q 1522 -856 1778 -856 
Q 2344 -856 2625 -561 
Q 2906 -266 2906 331 
L 2906 616 
Q 2728 306 2450 153 
Q 2172 0 1784 0 
Q 1141 0 747 490 
Q 353 981 353 1791 
Q 353 2603 747 3093 
Q 1141 3584 1784 3584 
Q 2172 3584 2450 3431 
Q 2728 3278 2906 2969 
L 2906 3500 
L 3481 3500 
L 3481 434 
z
" transform="scale(0.015625)"/>
       <path id="DejaVuSans-68" d="M 3513 2113 
L 3513 0 
L 2938 0 
L 2938 2094 
Q 2938 2591 2744 2837 
Q 2550 3084 2163 3084 
Q 1697 3084 1428 2787 
Q 1159 2491 1159 1978 
L 1159 0 
L 581 0 
L 581 4863 
L 1159 4863 
L 1159 2956 
Q 1366 3272 1645 3428 
Q 1925 3584 2291 3584 
Q 2894 3584 3203 3211 
Q 3513 2838 3513 2113 
z
" transform="scale(0.015625)"/>
      </defs>
      <use xlink:href="#DejaVuSans-44"/>
      <use xlink:href="#DejaVuSans-72" transform="translate(77.001953 0)"/>
      <use xlink:href="#DejaVuSans-61" transform="translate(118.115234 0)"/>
      <use xlink:href="#DejaVuSans-66" transform="translate(179.394531 0)"/>
      <use xlink:href="#DejaVuSans-74" transform="translate(212.849609 0)"/>
      <use xlink:href="#DejaVuSans-20" transform="translate(252.058594 0)"/>
      <use xlink:href="#DejaVuSans-6c" transform="translate(283.845703 0)"/>
      <use xlink:href="#DejaVuSans-65" transform="translate(311.628906 0)"/>
      <use xlink:href="#DejaVuSans-6e" transform="translate(373.152344 0)"/>
      <use xlink:href="#DejaVuSans-67" transform="translate(436.53125 0)"/>
      <use xlink:href="#DejaVuSans-74" transform="translate(500.007812 0)"/>
      <use xlink:href="#DejaVuSans-68" transform="translate(539.216797 0)"/>
     </g>
    </g>
   </g>
   <g id="matplotlib.axis_2">
    <g id="ytick_1">
     <g id="line2d_13">
      <path d="M 44.67125 289.55069 
L 565.2 289.55069 
" clip-path="url(#p82f44ac6bd)" style="fill: none; stroke: #b0b0b0; stroke-opacity: 0.3; stroke-width: 0.8; stroke-linecap: square"/>
     </g>
     <g id="line2d_14">
      <defs>
       <path id="m6ec11ca245" d="M 0 0 
L -3.5 0 
" style="stroke: #000000; stroke-width: 0.8"/>
      </defs>
      <g>
       <use xlink:href="#m6ec11ca245" x="44.67125" y="289.55069" style="stroke: #000000; stroke-width: 0.8"/>
      </g>
     </g>
     <g id="text_8">
      <!-- 10 -->
      <g transform="translate(24.94625 293.349909) scale(0.1 -0.1)">
       <use xlink:href="#DejaVuSans-31"/>
       <use xlink:href="#DejaVuSans-30" transform="translate(63.623047 0)"/>
      </g>
     </g>
    </g>
    <g id="ytick_2">
     <g id="line2d_15">
      <path d="M 44.67125 245.294954 
L 565.2 245.294954 
" clip-path="url(#p82f44ac6bd)" style="fill: none; stroke: #b0b0b0; stroke-opacity: 0.3; stroke-width: 0.8; stroke-linecap: square"/>
     </g>
     <g id="line2d_16">
      <g>
       <use xlink:href="#m6ec11ca245" x="44.67125" y="245.294954" style="stroke: #000000; stroke-width: 0.8"/>
      </g>
     </g>
     <g id="text_9">
      <!-- 15 -->
      <g transform="translate(24.94625 249.094173) scale(0.1 -0.1)">
       <defs>
        <path id="DejaVuSans-35" d="M 691 4666 
L 3169 4666 
L 3169 4134 
L 1269 4134 
L 1269 2991 
Q 1406 3038 1543 3061 
Q 1681 3084 1819 3084 
Q 2600 3084 3056 2656 
Q 3513 2228 3513 1497 
Q 3513 744 3044 326 
Q 2575 -91 1722 -91 
Q 1428 -91 1123 -41 
Q 819 9 494 109 
L 494 744 
Q 775 591 1075 516 
Q 1375 441 1709 441 
Q 2250 441 2565 725 
Q 2881 1009 2881 1497 
Q 2881 1984 2565 2268 
Q 2250 2553 1709 2553 
Q 1456 2553 1204 2497 
Q 953 2441 691 2322 
L 691 4666 
z
" transform="scale(0.015625)"/>
       </defs>
       <use xlink:href="#DejaVuSans-31"/>
       <use xlink:href="#DejaVuSans-35" transform="translate(63.623047 0)"/>
      </g>
     </g>
    </g>
    <g id="ytick_3">
     <g id="line2d_17">
      <path d="M 44.67125 201.039218 
L 565.2 201.039218 
" clip-path="url(#p82f44ac6bd)" style="fill: none; stroke: #b0b0b0; stroke-opacity: 0.3; stroke-width: 0.8; stroke-linecap: square"/>
     </g>
     <g id="line2d_18">
      <g>
       <use xlink:href="#m6ec11ca245" x="44.67125" y="201.039218" style="stroke: #000000; stroke-width: 0.8"/>
      </g>
     </g>
     <g id="text_10">
      <!-- 20 -->
      <g transform="translate(24.94625 204.838437) scale(0.1 -0.1)">
       <use xlink:href="#DejaVuSans-32"/>
       <use xlink:href="#DejaVuSans-30" transform="translate(63.623047 0)"/>
      </g>
     </g>
    </g>
    <g id="ytick_4">
     <g id="line2d_19">
      <path d="M 44.67125 156.783482 
L 565.2 156.783482 
" clip-path="url(#p82f44ac6bd)" style="fill: none; stroke: #b0b0b0; stroke-opacity: 0.3; stroke-width: 0.8; stroke-linecap: square"/>
     </g>
     <g id="line2d_20">
      <g>
       <use xlink:href="#m6ec11ca245" x="44.67125" y="156.783482" style="stroke: #000000; stroke-width: 0.8"/>
      </g>
     </g>
     <g id="text_11">
      <!-- 25 -->
      <g transform="translate(24.94625 160.582701) scale(0.1 -0.1)">
       <use xlink:href="#DejaVuSans-32"/>
       <use xlink:href="#DejaVuSans-35" transform="translate(63.623047 0)"/>
      </g>
     </g>
    </g>
    <g id="ytick_5">
     <g id="line2d_21">
      <path d="M 44.67125 112.527746 
L 565.2 112.527746 
" clip-path="url(#p82f44ac6bd)" style="fill: none; stroke: #b0b0b0; stroke-opacity: 0.3; stroke-width: 0.8; stroke-linecap: square"/>
     </g>
     <g id="line2d_22">
      <g>
       <use xlink:href="#m6ec11ca245" x="44.67125" y="112.527746" style="stroke: #000000; stroke-width: 0.8"/>
      </g>
     </g>
     <g id="text_12">
      <!-- 30 -->
      <g transform="translate(24.94625 116.326965) scale(0.1 -0.1)">
       <defs>
        <path id="DejaVuSans-33" d="M 2597 2516 
Q 3050 2419 3304 2112 
Q 3559 1806 3559 1356 
Q 3559 666 3084 287 
Q 2609 -91 1734 -91 
Q 1441 -91 1130 -33 
Q 819 25 488 141 
L 488 750 
Q 750 597 1062 519 
Q 1375 441 1716 441 
Q 2309 441 2620 675 
Q 2931 909 2931 1356 
Q 2931 1769 2642 2001 
Q 2353 2234 1838 2234 
L 1294 2234 
L 1294 2753 
L 1863 2753 
Q 2328 2753 2575 2939 
Q 2822 3125 2822 3475 
Q 2822 3834 2567 4026 
Q 2313 4219 1838 4219 
Q 1578 4219 1281 4162 
Q 984 4106 628 3988 
L 628 4550 
Q 988 4650 1302 4700 
Q 1616 4750 1894 4750 
Q 2613 4750 3031 4423 
Q 3450 4097 3450 3541 
Q 3450 3153 3228 2886 
Q 3006 2619 2597 2516 
z
" transform="scale(0.015625)"/>
       </defs>
       <use xlink:href="#DejaVuSans-33"/>
       <use xlink:href="#DejaVuSans-30" transform="translate(63.623047 0)"/>
      </g>
     </g>
    </g>
    <g id="ytick_6">
     <g id="line2d_23">
      <path d="M 44.67125 68.27201 
L 565.2 68.27201 
" clip-path="url(#p82f44ac6bd)" style="fill: none; stroke: #b0b0b0; stroke-opacity: 0.3; stroke-width: 0.8; stroke-linecap: square"/>
     </g>
     <g id="line2d_24">
      <g>
       <use xlink:href="#m6ec11ca245" x="44.67125" y="68.27201" style="stroke: #000000; stroke-width: 0.8"/>
      </g>
     </g>
     <g id="text_13">
      <!-- 35 -->
      <g transform="translate(24.94625 72.071229) scale(0.1 -0.1)">
       <use xlink:href="#DejaVuSans-33"/>
       <use xlink:href="#DejaVuSans-35" transform="translate(63.623047 0)"/>
      </g>
     </g>
    </g>
    <g id="text_14">
     <!-- cuda_ms -->
     <g transform="translate(18.588438 194.59125) rotate(-90) scale(0.1 -0.1)">
      <defs>
       <path id="DejaVuSans-63" d="M 3122 3366 
L 3122 2828 
Q 2878 2963 2633 3030 
Q 2388 3097 2138 3097 
Q 1578 3097 1268 2742 
Q 959 2388 959 1747 
Q 959 1106 1268 751 
Q 1578 397 2138 397 
Q 2388 397 2633 464 
Q 2878 531 3122 666 
L 3122 134 
Q 2881 22 2623 -34 
Q 2366 -91 2075 -91 
Q 1284 -91 818 406 
Q 353 903 353 1747 
Q 353 2603 823 3093 
Q 1294 3584 2113 3584 
Q 2378 3584 2631 3529 
Q 2884 3475 3122 3366 
z
" transform="scale(0.015625)"/>
       <path id="DejaVuSans-75" d="M 544 1381 
L 544 3500 
L 1119 3500 
L 1119 1403 
Q 1119 906 1312 657 
Q 1506 409 1894 409 
Q 2359 409 2629 706 
Q 2900 1003 2900 1516 
L 2900 3500 
L 3475 3500 
L 3475 0 
L 2900 0 
L 2900 538 
Q 2691 219 2414 64 
Q 2138 -91 1772 -91 
Q 1169 -91 856 284 
Q 544 659 544 1381 
z
M 1991 3584 
L 1991 3584 
z
" transform="scale(0.015625)"/>
       <path id="DejaVuSans-64" d="M 2906 2969 
L 2906 4863 
L 3481 4863 
L 3481 0 
L 2906 0 
L 2906 525 
Q 2725 213 2448 61 
Q 2172 -91 1784 -91 
Q 1150 -91 751 415 
Q 353 922 353 1747 
Q 353 2572 751 3078 
Q 1150 3584 1784 3584 
Q 2172 3584 2448 3432 
Q 2725 3281 2906 2969 
z
M 947 1747 
Q 947 1113 1208 752 
Q 1469 391 1925 391 
Q 2381 391 2643 752 
Q 2906 1113 2906 1747 
Q 2906 2381 2643 2742 
Q 2381 3103 1925 3103 
Q 1469 3103 1208 2742 
Q 947 2381 947 1747 
z
" transform="scale(0.015625)"/>
       <path id="DejaVuSans-5f" d="M 3263 -1063 
L 3263 -1509 
L -63 -1509 
L -63 -1063 
L 3263 -1063 
z
" transform="scale(0.015625)"/>
       <path id="DejaVuSans-6d" d="M 3328 2828 
Q 3544 3216 3844 3400 
Q 4144 3584 4550 3584 
Q 5097 3584 5394 3201 
Q 5691 2819 5691 2113 
L 5691 0 
L 5113 0 
L 5113 2094 
Q 5113 2597 4934 2840 
Q 4756 3084 4391 3084 
Q 3944 3084 3684 2787 
Q 3425 2491 3425 1978 
L 3425 0 
L 2847 0 
L 2847 2094 
Q 2847 2600 2669 2842 
Q 2491 3084 2119 3084 
Q 1678 3084 1418 2786 
Q 1159 2488 1159 1978 
L 1159 0 
L 581 0 
L 581 3500 
L 1159 3500 
L 1159 2956 
Q 1356 3278 1631 3431 
Q 1906 3584 2284 3584 
Q 2666 3584 2933 3390 
Q 3200 3197 3328 2828 
z
" transform="scale(0.015625)"/>
       <path id="DejaVuSans-73" d="M 2834 3397 
L 2834 2853 
Q 2591 2978 2328 3040 
Q 2066 3103 1784 3103 
Q 1356 3103 1142 2972 
Q 928 2841 928 2578 
Q 928 2378 1081 2264 
Q 1234 2150 1697 2047 
L 1894 2003 
Q 2506 1872 2764 1633 
Q 3022 1394 3022 966 
Q 3022 478 2636 193 
Q 2250 -91 1575 -91 
Q 1294 -91 989 -36 
Q 684 19 347 128 
L 347 722 
Q 666 556 975 473 
Q 1284 391 1588 391 
Q 1994 391 2212 530 
Q 2431 669 2431 922 
Q 2431 1156 2273 1281 
Q 2116 1406 1581 1522 
L 1381 1569 
Q 847 1681 609 1914 
Q 372 2147 372 2553 
Q 372 3047 722 3315 
Q 1072 3584 1716 3584 
Q 2034 3584 2315 3537 
Q 2597 3491 2834 3397 
z
" transform="scale(0.015625)"/>
      </defs>
      <use xlink:href="#DejaVuSans-63"/>
      <use xlink:href="#DejaVuSans-75" transform="translate(54.980469 0)"/>
      <use xlink:href="#DejaVuSans-64" transform="translate(118.359375 0)"/>
      <use xlink:href="#DejaVuSans-61" transform="translate(181.835938 0)"/>
      <use xlink:href="#DejaVuSans-5f" transform="translate(243.115234 0)"/>
      <use xlink:href="#DejaVuSans-6d" transform="translate(293.115234 0)"/>
      <use xlink:href="#DejaVuSans-73" transform="translate(390.527344 0)"/>
     </g>
    </g>
   </g>
   <g id="line2d_25">
    <path d="M 68.331648 229.709091 
L 73.111526 219.243406 
L 77.891404 210.662385 
L 82.671283 217.920154 
L 87.451161 213.043754 
L 92.231039 221.419658 
L 97.010918 222.158649 
L 101.790796 219.178234 
L 106.570674 220.164691 
L 111.350553 223.185243 
L 116.130431 225.069218 
L 120.910309 222.895066 
L 125.690188 233.48517 
L 130.470066 234.421271 
L 135.249944 228.831565 
L 140.029823 233.477811 
L 144.809701 225.114425 
L 149.589579 224.994671 
L 154.369458 222.078271 
L 159.149336 225.308184 
L 163.929214 223.846003 
L 168.709093 225.273318 
L 173.488971 224.41803 
L 178.268849 225.344414 
L 183.048728 223.133582 
L 187.828606 223.388321 
L 192.608484 222.787182 
L 197.388363 223.327878 
L 202.168241 222.51632 
L 206.948119 213.269918 
L 211.727998 222.484091 
L 216.507876 221.111865 
L 221.287754 218.151361 
L 226.067633 221.246968 
L 230.847511 221.513464 
L 235.627389 221.992987 
L 240.407268 221.859126 
L 245.187146 219.583745 
L 249.967024 222.096988 
L 254.746903 211.796634 
L 259.526781 221.546974 
L 264.306659 182.815542 
L 269.086538 221.261895 
L 273.866416 194.82628 
L 278.646294 220.654464 
L 283.426173 221.397905 
L 288.206051 216.850481 
L 292.985929 220.085385 
L 297.765808 220.758101 
L 302.545686 220.224651 
L 307.325564 217.984789 
L 312.105442 217.998128 
L 316.885321 202.968882 
L 321.665199 218.082054 
L 326.445077 213.407881 
L 331.224956 211.979264 
L 336.004834 211.149268 
L 340.784712 210.88331 
L 345.564591 205.910067 
L 350.344469 200.955297 
L 355.124347 212.750321 
L 359.904226 211.472213 
L 364.684104 211.556506 
L 369.463982 215.421612 
L 374.243861 210.914892 
L 379.023739 217.188752 
L 383.803617 215.083684 
L 388.583496 209.447752 
L 393.363374 203.189298 
L 398.143252 207.012792 
L 402.923131 207.185145 
L 407.703009 209.502699 
L 412.482887 190.650688 
L 417.262766 203.046913 
L 422.042644 207.030014 
L 426.822522 207.455267 
L 431.602401 206.249895 
L 436.382279 201.545874 
L 441.162157 197.162187 
L 445.942036 207.71406 
L 450.721914 205.421852 
L 455.501792 200.879133 
L 460.281671 203.099167 
L 465.061549 204.561493 
L 469.841427 202.972932 
L 474.621306 203.485282 
L 479.401184 203.150183 
L 484.181062 205.583216 
L 488.960941 203.707847 
L 493.740819 203.028901 
L 498.520697 198.557866 
L 503.300576 177.279824 
L 508.080454 202.6269 
L 512.860332 175.576465 
L 517.640211 202.165251 
L 522.420089 197.448712 
L 527.199967 195.906318 
L 531.979846 199.948247 
L 536.759724 198.395455 
L 541.539602 198.315447 
" clip-path="url(#p82f44ac6bd)" style="fill: none; stroke: #1f77b4; stroke-width: 1.2; stroke-linecap: square"/>
    <defs>
     <path id="m31019b06de" d="M 0 1.25 
C 0.331504 1.25 0.649475 1.118292 0.883883 0.883883 
C 1.118292 0.649475 1.25 0.331504 1.25 0 
C 1.25 -0.331504 1.118292 -0.649475 0.883883 -0.883883 
C 0.649475 -1.118292 0.331504 -1.25 0 -1.25 
C -0.331504 -1.25 -0.649475 -1.118292 -0.883883 -0.883883 
C -1.118292 -0.649475 -1.25 -0.331504 -1.25 0 
C -1.25 0.331504 -1.118292 0.649475 -0.883883 0.883883 
C -0.649475 1.118292 -0.331504 1.25 0 1.25 
z
" style="stroke: #1f77b4"/>
    </defs>
    <g clip-path="url(#p82f44ac6bd)">
     <use xlink:href="#m31019b06de" x="68.331648" y="229.709091" style="fill: #1f77b4; stroke: #1f77b4"/>
     <use xlink:href="#m31019b06de" x="73.111526" y="219.243406" style="fill: #1f77b4; stroke: #1f77b4"/>
     <use xlink:href="#m31019b06de" x="77.891404" y="210.662385" style="fill: #1f77b4; stroke: #1f77b4"/>
     <use xlink:href="#m31019b06de" x="82.671283" y="217.920154" style="fill: #1f77b4; stroke: #1f77b4"/>
     <use xlink:href="#m31019b06de" x="87.451161" y="213.043754" style="fill: #1f77b4; stroke: #1f77b4"/>
     <use xlink:href="#m31019b06de" x="92.231039" y="221.419658" style="fill: #1f77b4; stroke: #1f77b4"/>
     <use xlink:href="#m31019b06de" x="97.010918" y="222.158649" style="fill: #1f77b4; stroke: #1f77b4"/>
     <use xlink:href="#m31019b06de" x="101.790796" y="219.178234" style="fill: #1f77b4; stroke: #1f77b4"/>
     <use xlink:href="#m31019b06de" x="106.570674" y="220.164691" style="fill: #1f77b4; stroke: #1f77b4"/>
     <use xlink:href="#m31019b06de" x="111.350553" y="223.185243" style="fill: #1f77b4; stroke: #1f77b4"/>
     <use xlink:href="#m31019b06de" x="116.130431" y="225.069218" style="fill: #1f77b4; stroke: #1f77b4"/>
     <use xlink:href="#m31019b06de" x="120.910309" y="222.895066" style="fill: #1f77b4; stroke: #1f77b4"/>
     <use xlink:href="#m31019b06de" x="125.690188" y="233.48517" style="fill: #1f77b4; stroke: #1f77b4"/>
     <use xlink:href="#m31019b06de" x="130.470066" y="234.421271" style="fill: #1f77b4; stroke: #1f77b4"/>
     <use xlink:href="#m31019b06de" x="135.249944" y="228.831565" style="fill: #1f77b4; stroke: #1f77b4"/>
     <use xlink:href="#m31019b06de" x="140.029823" y="233.477811" style="fill: #1f77b4; stroke: #1f77b4"/>
     <use xlink:href="#m31019b06de" x="144.809701" y="225.114425" style="fill: #1f77b4; stroke: #1f77b4"/>
     <use xlink:href="#m31019b06de" x="149.589579" y="224.994671" style="fill: #1f77b4; stroke: #1f77b4"/>
     <use xlink:href="#m31019b06de" x="154.369458" y="222.078271" style="fill: #1f77b4; stroke: #1f77b4"/>
     <use xlink:href="#m31019b06de" x="159.149336" y="225.308184" style="fill: #1f77b4; stroke: #1f77b4"/>
     <use xlink:href="#m31019b06de" x="163.929214" y="223.846003" style="fill: #1f77b4; stroke: #1f77b4"/>
     <use xlink:href="#m31019b06de" x="168.709093" y="225.273318" style="fill: #1f77b4; stroke: #1f77b4"/>
     <use xlink:href="#m31019b06de" x="173.488971" y="224.41803" style="fill: #1f77b4; stroke: #1f77b4"/>
     <use xlink:href="#m31019b06de" x="178.268849" y="225.344414" style="fill: #1f77b4; stroke: #1f77b4"/>
     <use xlink:href="#m31019b06de" x="183.048728" y="223.133582" style="fill: #1f77b4; stroke: #1f77b4"/>
     <use xlink:href="#m31019b06de" x="187.828606" y="223.388321" style="fill: #1f77b4; stroke: #1f77b4"/>
     <use xlink:href="#m31019b06de" x="192.608484" y="222.787182" style="fill: #1f77b4; stroke: #1f77b4"/>
     <use xlink:href="#m31019b06de" x="197.388363" y="223.327878" style="fill: #1f77b4; stroke: #1f77b4"/>
     <use xlink:href="#m31019b06de" x="202.168241" y="222.51632" style="fill: #1f77b4; stroke: #1f77b4"/>
     <use xlink:href="#m31019b06de" x="206.948119" y="213.269918" style="fill: #1f77b4; stroke: #1f77b4"/>
     <use xlink:href="#m31019b06de" x="211.727998" y="222.484091" style="fill: #1f77b4; stroke: #1f77b4"/>
     <use xlink:href="#m31019b06de" x="216.507876" y="221.111865" style="fill: #1f77b4; stroke: #1f77b4"/>
     <use xlink:href="#m31019b06de" x="221.287754" y="218.151361" style="fill: #1f77b4; stroke: #1f77b4"/>
     <use xlink:href="#m31019b06de" x="226.067633" y="221.246968" style="fill: #1f77b4; stroke: #1f77b4"/>
     <use xlink:href="#m31019b06de" x="230.847511" y="221.513464" style="fill: #1f77b4; stroke: #1f77b4"/>
     <use xlink:href="#m31019b06de" x="235.627389" y="221.992987" style="fill: #1f77b4; stroke: #1f77b4"/>
     <use xlink:href="#m31019b06de" x="240.407268" y="221.859126" style="fill: #1f77b4; stroke: #1f77b4"/>
     <use xlink:href="#m31019b06de" x="245.187146" y="219.583745" style="fill: #1f77b4; stroke: #1f77b4"/>
     <use xlink:href="#m31019b06de" x="249.967024" y="222.096988" style="fill: #1f77b4; stroke: #1f77b4"/>
     <use xlink:href="#m31019b06de" x="254.746903" y="211.796634" style="fill: #1f77b4; stroke: #1f77b4"/>
     <use xlink:href="#m31019b06de" x="259.526781" y="221.546974" style="fill: #1f77b4; stroke: #1f77b4"/>
     <use xlink:href="#m31019b06de" x="264.306659" y="182.815542" style="fill: #1f77b4; stroke: #1f77b4"/>
     <use xlink:href="#m31019b06de" x="269.086538" y="221.261895" style="fill: #1f77b4; stroke: #1f77b4"/>
     <use xlink:href="#m31019b06de" x="273.866416" y="194.82628" style="fill: #1f77b4; stroke: #1f77b4"/>
     <use xlink:href="#m31019b06de" x="278.646294" y="220.654464" style="fill: #1f77b4; stroke: #1f77b4"/>
     <use xlink:href="#m31019b06de" x="283.426173" y="221.397905" style="fill: #1f77b4; stroke: #1f77b4"/>
     <use xlink:href="#m31019b06de" x="288.206051" y="216.850481" style="fill: #1f77b4; stroke: #1f77b4"/>
     <use xlink:href="#m31019b06de" x="292.985929" y="220.085385" style="fill: #1f77b4; stroke: #1f77b4"/>
     <use xlink:href="#m31019b06de" x="297.765808" y="220.758101" style="fill: #1f77b4; stroke: #1f77b4"/>
     <use xlink:href="#m31019b06de" x="302.545686" y="220.224651" style="fill: #1f77b4; stroke: #1f77b4"/>
     <use xlink:href="#m31019b06de" x="307.325564" y="217.984789" style="fill: #1f77b4; stroke: #1f77b4"/>
     <use xlink:href="#m31019b06de" x="312.105442" y="217.998128" style="fill: #1f77b4; stroke: #1f77b4"/>
     <use xlink:href="#m31019b06de" x="316.885321" y="202.968882" style="fill: #1f77b4; stroke: #1f77b4"/>
     <use xlink:href="#m31019b06de" x="321.665199" y="218.082054" style="fill: #1f77b4; stroke: #1f77b4"/>
     <use xlink:href="#m31019b06de" x="326.445077" y="213.407881" style="fill: #1f77b4; stroke: #1f77b4"/>
     <use xlink:href="#m31019b06de" x="331.224956" y="211.979264" style="fill: #1f77b4; stroke: #1f77b4"/>
     <use xlink:href="#m31019b06de" x="336.004834" y="211.149268" style="fill: #1f77b4; stroke: #1f77b4"/>
     <use xlink:href="#m31019b06de" x="340.784712" y="210.88331" style="fill: #1f77b4; stroke: #1f77b4"/>
     <use xlink:href="#m31019b06de" x="345.564591" y="205.910067" style="fill: #1f77b4; stroke: #1f77b4"/>
     <use xlink:href="#m31019b06de" x="350.344469" y="200.955297" style="fill: #1f77b4; stroke: #1f77b4"/>
     <use xlink:href="#m31019b06de" x="355.124347" y="212.750321" style="fill: #1f77b4; stroke: #1f77b4"/>
     <use xlink:href="#m31019b06de" x="359.904226" y="211.472213" style="fill: #1f77b4; stroke: #1f77b4"/>
     <use xlink:href="#m31019b06de" x="364.684104" y="211.556506" style="fill: #1f77b4; stroke: #1f77b4"/>
     <use xlink:href="#m31019b06de" x="369.463982" y="215.421612" style="fill: #1f77b4; stroke: #1f77b4"/>
     <use xlink:href="#m31019b06de" x="374.243861" y="210.914892" style="fill: #1f77b4; stroke: #1f77b4"/>
     <use xlink:href="#m31019b06de" x="379.023739" y="217.188752" style="fill: #1f77b4; stroke: #1f77b4"/>
     <use xlink:href="#m31019b06de" x="383.803617" y="215.083684" style="fill: #1f77b4; stroke: #1f77b4"/>
     <use xlink:href="#m31019b06de" x="388.583496" y="209.447752" style="fill: #1f77b4; stroke: #1f77b4"/>
     <use xlink:href="#m31019b06de" x="393.363374" y="203.189298" style="fill: #1f77b4; stroke: #1f77b4"/>
     <use xlink:href="#m31019b06de" x="398.143252" y="207.012792" style="fill: #1f77b4; stroke: #1f77b4"/>
     <use xlink:href="#m31019b06de" x="402.923131" y="207.185145" style="fill: #1f77b4; stroke: #1f77b4"/>
     <use xlink:href="#m31019b06de" x="407.703009" y="209.502699" style="fill: #1f77b4; stroke: #1f77b4"/>
     <use xlink:href="#m31019b06de" x="412.482887" y="190.650688" style="fill: #1f77b4; stroke: #1f77b4"/>
     <use xlink:href="#m31019b06de" x="417.262766" y="203.046913" style="fill: #1f77b4; stroke: #1f77b4"/>
     <use xlink:href="#m31019b06de" x="422.042644" y="207.030014" style="fill: #1f77b4; stroke: #1f77b4"/>
     <use xlink:href="#m31019b06de" x="426.822522" y="207.455267" style="fill: #1f77b4; stroke: #1f77b4"/>
     <use xlink:href="#m31019b06de" x="431.602401" y="206.249895" style="fill: #1f77b4; stroke: #1f77b4"/>
     <use xlink:href="#m31019b06de" x="436.382279" y="201.545874" style="fill: #1f77b4; stroke: #1f77b4"/>
     <use xlink:href="#m31019b06de" x="441.162157" y="197.162187" style="fill: #1f77b4; stroke: #1f77b4"/>
     <use xlink:href="#m31019b06de" x="445.942036" y="207.71406" style="fill: #1f77b4; stroke: #1f77b4"/>
     <use xlink:href="#m31019b06de" x="450.721914" y="205.421852" style="fill: #1f77b4; stroke: #1f77b4"/>
     <use xlink:href="#m31019b06de" x="455.501792" y="200.879133" style="fill: #1f77b4; stroke: #1f77b4"/>
     <use xlink:href="#m31019b06de" x="460.281671" y="203.099167" style="fill: #1f77b4; stroke: #1f77b4"/>
     <use xlink:href="#m31019b06de" x="465.061549" y="204.561493" style="fill: #1f77b4; stroke: #1f77b4"/>
     <use xlink:href="#m31019b06de" x="469.841427" y="202.972932" style="fill: #1f77b4; stroke: #1f77b4"/>
     <use xlink:href="#m31019b06de" x="474.621306" y="203.485282" style="fill: #1f77b4; stroke: #1f77b4"/>
     <use xlink:href="#m31019b06de" x="479.401184" y="203.150183" style="fill: #1f77b4; stroke: #1f77b4"/>
     <use xlink:href="#m31019b06de" x="484.181062" y="205.583216" style="fill: #1f77b4; stroke: #1f77b4"/>
     <use xlink:href="#m31019b06de" x="488.960941" y="203.707847" style="fill: #1f77b4; stroke: #1f77b4"/>
     <use xlink:href="#m31019b06de" x="493.740819" y="203.028901" style="fill: #1f77b4; stroke: #1f77b4"/>
     <use xlink:href="#m31019b06de" x="498.520697" y="198.557866" style="fill: #1f77b4; stroke: #1f77b4"/>
     <use xlink:href="#m31019b06de" x="503.300576" y="177.279824" style="fill: #1f77b4; stroke: #1f77b4"/>
     <use xlink:href="#m31019b06de" x="508.080454" y="202.6269" style="fill: #1f77b4; stroke: #1f77b4"/>
     <use xlink:href="#m31019b06de" x="512.860332" y="175.576465" style="fill: #1f77b4; stroke: #1f77b4"/>
     <use xlink:href="#m31019b06de" x="517.640211" y="202.165251" style="fill: #1f77b4; stroke: #1f77b4"/>
     <use xlink:href="#m31019b06de" x="522.420089" y="197.448712" style="fill: #1f77b4; stroke: #1f77b4"/>
     <use xlink:href="#m31019b06de" x="527.199967" y="195.906318" style="fill: #1f77b4; stroke: #1f77b4"/>
     <use xlink:href="#m31019b06de" x="531.979846" y="199.948247" style="fill: #1f77b4; stroke: #1f77b4"/>
     <use xlink:href="#m31019b06de" x="536.759724" y="198.395455" style="fill: #1f77b4; stroke: #1f77b4"/>
     <use xlink:href="#m31019b06de" x="541.539602" y="198.315447" style="fill: #1f77b4; stroke: #1f77b4"/>
    </g>
   </g>
   <g id="line2d_26">
    <path d="M 68.331648 223.999348 
L 73.111526 211.758625 
L 77.891404 214.518651 
L 82.671283 210.891635 
L 87.451161 212.332913 
L 92.231039 209.0406 
L 97.010918 182.140815 
L 101.790796 212.718766 
L 106.570674 213.976765 
L 111.350553 217.534329 
L 116.130431 213.957391 
L 120.910309 221.602287 
L 125.690188 229.519914 
L 130.470066 228.067932 
L 135.249944 229.499154 
L 140.029823 229.363399 
L 144.809701 217.968334 
L 149.589579 221.426823 
L 154.369458 220.599462 
L 159.149336 221.123365 
L 163.929214 213.190104 
L 168.709093 220.965773 
L 173.488971 214.481265 
L 178.268849 213.38191 
L 183.048728 210.607551 
L 187.828606 219.382505 
L 192.608484 216.518046 
L 197.388363 219.058512 
L 202.168241 217.549709 
L 206.948119 218.549222 
L 211.727998 218.058939 
L 216.507876 218.627228 
L 221.287754 218.135245 
L 226.067633 213.247203 
L 230.847511 217.272506 
L 235.627389 213.653732 
L 240.407268 217.279953 
L 245.187146 217.730246 
L 249.967024 210.59438 
L 254.746903 218.112245 
L 259.526781 216.846546 
L 264.306659 215.07558 
L 269.086538 212.633261 
L 273.866416 212.282183 
L 278.646294 216.33077 
L 283.426173 215.35049 
L 288.206051 215.81021 
L 292.985929 218.102475 
L 297.765808 216.32018 
L 302.545686 214.589803 
L 307.325564 210.233389 
L 312.105442 201.604076 
L 316.885321 211.179124 
L 321.665199 211.828046 
L 326.445077 205.454679 
L 331.224956 201.552247 
L 336.004834 203.755431 
L 340.784712 199.75273 
L 345.564591 203.165391 
L 350.344469 204.863224 
L 355.124347 206.99512 
L 359.904226 204.86317 
L 364.684104 207.947389 
L 369.463982 210.799672 
L 374.243861 204.57713 
L 379.023739 212.901766 
L 383.803617 169.686984 
L 388.583496 205.310456 
L 393.363374 203.360171 
L 398.143252 204.565857 
L 402.923131 188.160076 
L 407.703009 205.161702 
L 412.482887 202.461863 
L 417.262766 203.339951 
L 422.042644 195.912153 
L 426.822522 203.178534 
L 431.602401 194.936343 
L 436.382279 203.455282 
L 441.162157 201.804525 
L 445.942036 196.756001 
L 450.721914 201.154583 
L 455.501792 200.097087 
L 460.281671 192.642215 
L 465.061549 160.911147 
L 469.841427 198.655016 
L 474.621306 190.294917 
L 479.401184 198.689913 
L 484.181062 196.457157 
L 488.960941 199.637026 
L 493.740819 182.749152 
L 498.520697 199.150369 
L 503.300576 199.421258 
L 508.080454 198.7531 
L 512.860332 191.284717 
L 517.640211 197.137576 
L 522.420089 197.499896 
L 527.199967 194.77878 
L 531.979846 174.518888 
L 536.759724 194.12272 
L 541.539602 177.274411 
" clip-path="url(#p82f44ac6bd)" style="fill: none; stroke: #ff7f0e; stroke-width: 1.2; stroke-linecap: square"/>
    <defs>
     <path id="ma3b2a494c9" d="M 0 1.25 
C 0.331504 1.25 0.649475 1.118292 0.883883 0.883883 
C 1.118292 0.649475 1.25 0.331504 1.25 0 
C 1.25 -0.331504 1.118292 -0.649475 0.883883 -0.883883 
C 0.649475 -1.118292 0.331504 -1.25 0 -1.25 
C -0.331504 -1.25 -0.649475 -1.118292 -0.883883 -0.883883 
C -1.118292 -0.649475 -1.25 -0.331504 -1.25 0 
C -1.25 0.331504 -1.118292 0.649475 -0.883883 0.883883 
C -0.649475 1.118292 -0.331504 1.25 0 1.25 
z
" style="stroke: #ff7f0e"/>
    </defs>
    <g clip-path="url(#p82f44ac6bd)">
     <use xlink:href="#ma3b2a494c9" x="68.331648" y="223.999348" style="fill: #ff7f0e; stroke: #ff7f0e"/>
     <use xlink:href="#ma3b2a494c9" x="73.111526" y="211.758625" style="fill: #ff7f0e; stroke: #ff7f0e"/>
     <use xlink:href="#ma3b2a494c9" x="77.891404" y="214.518651" style="fill: #ff7f0e; stroke: #ff7f0e"/>
     <use xlink:href="#ma3b2a494c9" x="82.671283" y="210.891635" style="fill: #ff7f0e; stroke: #ff7f0e"/>
     <use xlink:href="#ma3b2a494c9" x="87.451161" y="212.332913" style="fill: #ff7f0e; stroke: #ff7f0e"/>
     <use xlink:href="#ma3b2a494c9" x="92.231039" y="209.0406" style="fill: #ff7f0e; stroke: #ff7f0e"/>
     <use xlink:href="#ma3b2a494c9" x="97.010918" y="182.140815" style="fill: #ff7f0e; stroke: #ff7f0e"/>
     <use xlink:href="#ma3b2a494c9" x="101.790796" y="212.718766" style="fill: #ff7f0e; stroke: #ff7f0e"/>
     <use xlink:href="#ma3b2a494c9" x="106.570674" y="213.976765" style="fill: #ff7f0e; stroke: #ff7f0e"/>
     <use xlink:href="#ma3b2a494c9" x="111.350553" y="217.534329" style="fill: #ff7f0e; stroke: #ff7f0e"/>
     <use xlink:href="#ma3b2a494c9" x="116.130431" y="213.957391" style="fill: #ff7f0e; stroke: #ff7f0e"/>
     <use xlink:href="#ma3b2a494c9" x="120.910309" y="221.602287" style="fill: #ff7f0e; stroke: #ff7f0e"/>
     <use xlink:href="#ma3b2a494c9" x="125.690188" y="229.519914" style="fill: #ff7f0e; stroke: #ff7f0e"/>
     <use xlink:href="#ma3b2a494c9" x="130.470066" y="228.067932" style="fill: #ff7f0e; stroke: #ff7f0e"/>
     <use xlink:href="#ma3b2a494c9" x="135.249944" y="229.499154" style="fill: #ff7f0e; stroke: #ff7f0e"/>
     <use xlink:href="#ma3b2a494c9" x="140.029823" y="229.363399" style="fill: #ff7f0e; stroke: #ff7f0e"/>
     <use xlink:href="#ma3b2a494c9" x="144.809701" y="217.968334" style="fill: #ff7f0e; stroke: #ff7f0e"/>
     <use xlink:href="#ma3b2a494c9" x="149.589579" y="221.426823" style="fill: #ff7f0e; stroke: #ff7f0e"/>
     <use xlink:href="#ma3b2a494c9" x="154.369458" y="220.599462" style="fill: #ff7f0e; stroke: #ff7f0e"/>
     <use xlink:href="#ma3b2a494c9" x="159.149336" y="221.123365" style="fill: #ff7f0e; stroke: #ff7f0e"/>
     <use xlink:href="#ma3b2a494c9" x="163.929214" y="213.190104" style="fill: #ff7f0e; stroke: #ff7f0e"/>
     <use xlink:href="#ma3b2a494c9" x="168.709093" y="220.965773" style="fill: #ff7f0e; stroke: #ff7f0e"/>
     <use xlink:href="#ma3b2a494c9" x="173.488971" y="214.481265" style="fill: #ff7f0e; stroke: #ff7f0e"/>
     <use xlink:href="#ma3b2a494c9" x="178.268849" y="213.38191" style="fill: #ff7f0e; stroke: #ff7f0e"/>
     <use xlink:href="#ma3b2a494c9" x="183.048728" y="210.607551" style="fill: #ff7f0e; stroke: #ff7f0e"/>
     <use xlink:href="#ma3b2a494c9" x="187.828606" y="219.382505" style="fill: #ff7f0e; stroke: #ff7f0e"/>
     <use xlink:href="#ma3b2a494c9" x="192.608484" y="216.518046" style="fill: #ff7f0e; stroke: #ff7f0e"/>
     <use xlink:href="#ma3b2a494c9" x="197.388363" y="219.058512" style="fill: #ff7f0e; stroke: #ff7f0e"/>
     <use xlink:href="#ma3b2a494c9" x="202.168241" y="217.549709" style="fill: #ff7f0e; stroke: #ff7f0e"/>
     <use xlink:href="#ma3b2a494c9" x="206.948119" y="218.549222" style="fill: #ff7f0e; stroke: #ff7f0e"/>
     <use xlink:href="#ma3b2a494c9" x="211.727998" y="218.058939" style="fill: #ff7f0e; stroke: #ff7f0e"/>
     <use xlink:href="#ma3b2a494c9" x="216.507876" y="218.627228" style="fill: #ff7f0e; stroke: #ff7f0e"/>
     <use xlink:href="#ma3b2a494c9" x="221.287754" y="218.135245" style="fill: #ff7f0e; stroke: #ff7f0e"/>
     <use xlink:href="#ma3b2a494c9" x="226.067633" y="213.247203" style="fill: #ff7f0e; stroke: #ff7f0e"/>
     <use xlink:href="#ma3b2a494c9" x="230.847511" y="217.272506" style="fill: #ff7f0e; stroke: #ff7f0e"/>
     <use xlink:href="#ma3b2a494c9" x="235.627389" y="213.653732" style="fill: #ff7f0e; stroke: #ff7f0e"/>
     <use xlink:href="#ma3b2a494c9" x="240.407268" y="217.279953" style="fill: #ff7f0e; stroke: #ff7f0e"/>
     <use xlink:href="#ma3b2a494c9" x="245.187146" y="217.730246" style="fill: #ff7f0e; stroke: #ff7f0e"/>
     <use xlink:href="#ma3b2a494c9" x="249.967024" y="210.59438" style="fill: #ff7f0e; stroke: #ff7f0e"/>
     <use xlink:href="#ma3b2a494c9" x="254.746903" y="218.112245" style="fill: #ff7f0e; stroke: #ff7f0e"/>
     <use xlink:href="#ma3b2a494c9" x="259.526781" y="216.846546" style="fill: #ff7f0e; stroke: #ff7f0e"/>
     <use xlink:href="#ma3b2a494c9" x="264.306659" y="215.07558" style="fill: #ff7f0e; stroke: #ff7f0e"/>
     <use xlink:href="#ma3b2a494c9" x="269.086538" y="212.633261" style="fill: #ff7f0e; stroke: #ff7f0e"/>
     <use xlink:href="#ma3b2a494c9" x="273.866416" y="212.282183" style="fill: #ff7f0e; stroke: #ff7f0e"/>
     <use xlink:href="#ma3b2a494c9" x="278.646294" y="216.33077" style="fill: #ff7f0e; stroke: #ff7f0e"/>
     <use xlink:href="#ma3b2a494c9" x="283.426173" y="215.35049" style="fill: #ff7f0e; stroke: #ff7f0e"/>
     <use xlink:href="#ma3b2a494c9" x="288.206051" y="215.81021" style="fill: #ff7f0e; stroke: #ff7f0e"/>
     <use xlink:href="#ma3b2a494c9" x="292.985929" y="218.102475" style="fill: #ff7f0e; stroke: #ff7f0e"/>
     <use xlink:href="#ma3b2a494c9" x="297.765808" y="216.32018" style="fill: #ff7f0e; stroke: #ff7f0e"/>
     <use xlink:href="#ma3b2a494c9" x="302.545686" y="214.589803" style="fill: #ff7f0e; stroke: #ff7f0e"/>
     <use xlink:href="#ma3b2a494c9" x="307.325564" y="210.233389" style="fill: #ff7f0e; stroke: #ff7f0e"/>
     <use xlink:href="#ma3b2a494c9" x="312.105442" y="201.604076" style="fill: #ff7f0e; stroke: #ff7f0e"/>
     <use xlink:href="#ma3b2a494c9" x="316.885321" y="211.179124" style="fill: #ff7f0e; stroke: #ff7f0e"/>
     <use xlink:href="#ma3b2a494c9" x="321.665199" y="211.828046" style="fill: #ff7f0e; stroke: #ff7f0e"/>
     <use xlink:href="#ma3b2a494c9" x="326.445077" y="205.454679" style="fill: #ff7f0e; stroke: #ff7f0e"/>
     <use xlink:href="#ma3b2a494c9" x="331.224956" y="201.552247" style="fill: #ff7f0e; stroke: #ff7f0e"/>
     <use xlink:href="#ma3b2a494c9" x="336.004834" y="203.755431" style="fill: #ff7f0e; stroke: #ff7f0e"/>
     <use xlink:href="#ma3b2a494c9" x="340.784712" y="199.75273" style="fill: #ff7f0e; stroke: #ff7f0e"/>
     <use xlink:href="#ma3b2a494c9" x="345.564591" y="203.165391" style="fill: #ff7f0e; stroke: #ff7f0e"/>
     <use xlink:href="#ma3b2a494c9" x="350.344469" y="204.863224" style="fill: #ff7f0e; stroke: #ff7f0e"/>
     <use xlink:href="#ma3b2a494c9" x="355.124347" y="206.99512" style="fill: #ff7f0e; stroke: #ff7f0e"/>
     <use xlink:href="#ma3b2a494c9" x="359.904226" y="204.86317" style="fill: #ff7f0e; stroke: #ff7f0e"/>
     <use xlink:href="#ma3b2a494c9" x="364.684104" y="207.947389" style="fill: #ff7f0e; stroke: #ff7f0e"/>
     <use xlink:href="#ma3b2a494c9" x="369.463982" y="210.799672" style="fill: #ff7f0e; stroke: #ff7f0e"/>
     <use xlink:href="#ma3b2a494c9" x="374.243861" y="204.57713" style="fill: #ff7f0e; stroke: #ff7f0e"/>
     <use xlink:href="#ma3b2a494c9" x="379.023739" y="212.901766" style="fill: #ff7f0e; stroke: #ff7f0e"/>
     <use xlink:href="#ma3b2a494c9" x="383.803617" y="169.686984" style="fill: #ff7f0e; stroke: #ff7f0e"/>
     <use xlink:href="#ma3b2a494c9" x="388.583496" y="205.310456" style="fill: #ff7f0e; stroke: #ff7f0e"/>
     <use xlink:href="#ma3b2a494c9" x="393.363374" y="203.360171" style="fill: #ff7f0e; stroke: #ff7f0e"/>
     <use xlink:href="#ma3b2a494c9" x="398.143252" y="204.565857" style="fill: #ff7f0e; stroke: #ff7f0e"/>
     <use xlink:href="#ma3b2a494c9" x="402.923131" y="188.160076" style="fill: #ff7f0e; stroke: #ff7f0e"/>
     <use xlink:href="#ma3b2a494c9" x="407.703009" y="205.161702" style="fill: #ff7f0e; stroke: #ff7f0e"/>
     <use xlink:href="#ma3b2a494c9" x="412.482887" y="202.461863" style="fill: #ff7f0e; stroke: #ff7f0e"/>
     <use xlink:href="#ma3b2a494c9" x="417.262766" y="203.339951" style="fill: #ff7f0e; stroke: #ff7f0e"/>
     <use xlink:href="#ma3b2a494c9" x="422.042644" y="195.912153" style="fill: #ff7f0e; stroke: #ff7f0e"/>
     <use xlink:href="#ma3b2a494c9" x="426.822522" y="203.178534" style="fill: #ff7f0e; stroke: #ff7f0e"/>
     <use xlink:href="#ma3b2a494c9" x="431.602401" y="194.936343" style="fill: #ff7f0e; stroke: #ff7f0e"/>
     <use xlink:href="#ma3b2a494c9" x="436.382279" y="203.455282" style="fill: #ff7f0e; stroke: #ff7f0e"/>
     <use xlink:href="#ma3b2a494c9" x="441.162157" y="201.804525" style="fill: #ff7f0e; stroke: #ff7f0e"/>
     <use xlink:href="#ma3b2a494c9" x="445.942036" y="196.756001" style="fill: #ff7f0e; stroke: #ff7f0e"/>
     <use xlink:href="#ma3b2a494c9" x="450.721914" y="201.154583" style="fill: #ff7f0e; stroke: #ff7f0e"/>
     <use xlink:href="#ma3b2a494c9" x="455.501792" y="200.097087" style="fill: #ff7f0e; stroke: #ff7f0e"/>
     <use xlink:href="#ma3b2a494c9" x="460.281671" y="192.642215" style="fill: #ff7f0e; stroke: #ff7f0e"/>
     <use xlink:href="#ma3b2a494c9" x="465.061549" y="160.911147" style="fill: #ff7f0e; stroke: #ff7f0e"/>
     <use xlink:href="#ma3b2a494c9" x="469.841427" y="198.655016" style="fill: #ff7f0e; stroke: #ff7f0e"/>
     <use xlink:href="#ma3b2a494c9" x="474.621306" y="190.294917" style="fill: #ff7f0e; stroke: #ff7f0e"/>
     <use xlink:href="#ma3b2a494c9" x="479.401184" y="198.689913" style="fill: #ff7f0e; stroke: #ff7f0e"/>
     <use xlink:href="#ma3b2a494c9" x="484.181062" y="196.457157" style="fill: #ff7f0e; stroke: #ff7f0e"/>
     <use xlink:href="#ma3b2a494c9" x="488.960941" y="199.637026" style="fill: #ff7f0e; stroke: #ff7f0e"/>
     <use xlink:href="#ma3b2a494c9" x="493.740819" y="182.749152" style="fill: #ff7f0e; stroke: #ff7f0e"/>
     <use xlink:href="#ma3b2a494c9" x="498.520697" y="199.150369" style="fill: #ff7f0e; stroke: #ff7f0e"/>
     <use xlink:href="#ma3b2a494c9" x="503.300576" y="199.421258" style="fill: #ff7f0e; stroke: #ff7f0e"/>
     <use xlink:href="#ma3b2a494c9" x="508.080454" y="198.7531" style="fill: #ff7f0e; stroke: #ff7f0e"/>
     <use xlink:href="#ma3b2a494c9" x="512.860332" y="191.284717" style="fill: #ff7f0e; stroke: #ff7f0e"/>
     <use xlink:href="#ma3b2a494c9" x="517.640211" y="197.137576" style="fill: #ff7f0e; stroke: #ff7f0e"/>
     <use xlink:href="#ma3b2a494c9" x="522.420089" y="197.499896" style="fill: #ff7f0e; stroke: #ff7f0e"/>
     <use xlink:href="#ma3b2a494c9" x="527.199967" y="194.77878" style="fill: #ff7f0e; stroke: #ff7f0e"/>
     <use xlink:href="#ma3b2a494c9" x="531.979846" y="174.518888" style="fill: #ff7f0e; stroke: #ff7f0e"/>
     <use xlink:href="#ma3b2a494c9" x="536.759724" y="194.12272" style="fill: #ff7f0e; stroke: #ff7f0e"/>
     <use xlink:href="#ma3b2a494c9" x="541.539602" y="177.274411" style="fill: #ff7f0e; stroke: #ff7f0e"/>
    </g>
   </g>
   <g id="patch_3">
    <path d="M 44.67125 318.04 
L 44.67125 26.88 
" style="fill: none; stroke: #000000; stroke-width: 0.8; stroke-linejoin: miter; stroke-linecap: square"/>
   </g>
   <g id="patch_4">
    <path d="M 565.2 318.04 
L 565.2 26.88 
" style="fill: none; stroke: #000000; stroke-width: 0.8; stroke-linejoin: miter; stroke-linecap: square"/>
   </g>
   <g id="patch_5">
    <path d="M 44.67125 318.04 
L 565.2 318.04 
" style="fill: none; stroke: #000000; stroke-width: 0.8; stroke-linejoin: miter; stroke-linecap: square"/>
   </g>
   <g id="patch_6">
    <path d="M 44.67125 26.88 
L 565.2 26.88 
" style="fill: none; stroke: #000000; stroke-width: 0.8; stroke-linejoin: miter; stroke-linecap: square"/>
   </g>
   <g id="text_15">
    <!-- Verification latency vs draft length, context_len=256 -->
    <g transform="translate(146.370625 20.88) scale(0.12 -0.12)">
     <defs>
      <path id="DejaVuSans-56" d="M 1831 0 
L 50 4666 
L 709 4666 
L 2188 738 
L 3669 4666 
L 4325 4666 
L 2547 0 
L 1831 0 
z
" transform="scale(0.015625)"/>
      <path id="DejaVuSans-69" d="M 603 3500 
L 1178 3500 
L 1178 0 
L 603 0 
L 603 3500 
z
M 603 4863 
L 1178 4863 
L 1178 4134 
L 603 4134 
L 603 4863 
z
" transform="scale(0.015625)"/>
      <path id="DejaVuSans-6f" d="M 1959 3097 
Q 1497 3097 1228 2736 
Q 959 2375 959 1747 
Q 959 1119 1226 758 
Q 1494 397 1959 397 
Q 2419 397 2687 759 
Q 2956 1122 2956 1747 
Q 2956 2369 2687 2733 
Q 2419 3097 1959 3097 
z
M 1959 3584 
Q 2709 3584 3137 3096 
Q 3566 2609 3566 1747 
Q 3566 888 3137 398 
Q 2709 -91 1959 -91 
Q 1206 -91 779 398 
Q 353 888 353 1747 
Q 353 2609 779 3096 
Q 1206 3584 1959 3584 
z
" transform="scale(0.015625)"/>
      <path id="DejaVuSans-79" d="M 2059 -325 
Q 1816 -950 1584 -1140 
Q 1353 -1331 966 -1331 
L 506 -1331 
L 506 -850 
L 844 -850 
Q 1081 -850 1212 -737 
Q 1344 -625 1503 -206 
L 1606 56 
L 191 3500 
L 800 3500 
L 1894 763 
L 2988 3500 
L 3597 3500 
L 2059 -325 
z
" transform="scale(0.015625)"/>
      <path id="DejaVuSans-76" d="M 191 3500 
L 800 3500 
L 1894 563 
L 2988 3500 
L 3597 3500 
L 2284 0 
L 1503 0 
L 191 3500 
z
" transform="scale(0.015625)"/>
      <path id="DejaVuSans-2c" d="M 750 794 
L 1409 794 
L 1409 256 
L 897 -744 
L 494 -744 
L 750 256 
L 750 794 
z
" transform="scale(0.015625)"/>
      <path id="DejaVuSans-78" d="M 3513 3500 
L 2247 1797 
L 3578 0 
L 2900 0 
L 1881 1375 
L 863 0 
L 184 0 
L 1544 1831 
L 300 3500 
L 978 3500 
L 1906 2253 
L 2834 3500 
L 3513 3500 
z
" transform="scale(0.015625)"/>
      <path id="DejaVuSans-3d" d="M 678 2906 
L 4684 2906 
L 4684 2381 
L 678 2381 
L 678 2906 
z
M 678 1631 
L 4684 1631 
L 4684 1100 
L 678 1100 
L 678 1631 
z
" transform="scale(0.015625)"/>
     </defs>
     <use xlink:href="#DejaVuSans-56"/>
     <use xlink:href="#DejaVuSans-65" transform="translate(60.658203 0)"/>
     <use xlink:href="#DejaVuSans-72" transform="translate(122.181641 0)"/>
     <use xlink:href="#DejaVuSans-69" transform="translate(163.294922 0)"/>
     <use xlink:href="#DejaVuSans-66" transform="translate(191.078125 0)"/>
     <use xlink:href="#DejaVuSans-69" transform="translate(226.283203 0)"/>
     <use xlink:href="#DejaVuSans-63" transform="translate(254.066406 0)"/>
     <use xlink:href="#DejaVuSans-61" transform="translate(309.046875 0)"/>
     <use xlink:href="#DejaVuSans-74" transform="translate(370.326172 0)"/>
     <use xlink:href="#DejaVuSans-69" transform="translate(409.535156 0)"/>
     <use xlink:href="#DejaVuSans-6f" transform="translate(437.318359 0)"/>
     <use xlink:href="#DejaVuSans-6e" transform="translate(498.5 0)"/>
     <use xlink:href="#DejaVuSans-20" transform="translate(561.878906 0)"/>
     <use xlink:href="#DejaVuSans-6c" transform="translate(593.666016 0)"/>
     <use xlink:href="#DejaVuSans-61" transform="translate(621.449219 0)"/>
     <use xlink:href="#DejaVuSans-74" transform="translate(682.728516 0)"/>
     <use xlink:href="#DejaVuSans-65" transform="translate(721.9375 0)"/>
     <use xlink:href="#DejaVuSans-6e" transform="translate(783.460938 0)"/>
     <use xlink:href="#DejaVuSans-63" transform="translate(846.839844 0)"/>
     <use xlink:href="#DejaVuSans-79" transform="translate(901.820312 0)"/>
     <use xlink:href="#DejaVuSans-20" transform="translate(961 0)"/>
     <use xlink:href="#DejaVuSans-76" transform="translate(992.787109 0)"/>
     <use xlink:href="#DejaVuSans-73" transform="translate(1051.966797 0)"/>
     <use xlink:href="#DejaVuSans-20" transform="translate(1104.066406 0)"/>
     <use xlink:href="#DejaVuSans-64" transform="translate(1135.853516 0)"/>
     <use xlink:href="#DejaVuSans-72" transform="translate(1199.330078 0)"/>
     <use xlink:href="#DejaVuSans-61" transform="translate(1240.443359 0)"/>
     <use xlink:href="#DejaVuSans-66" transform="translate(1301.722656 0)"/>
     <use xlink:href="#DejaVuSans-74" transform="translate(1335.177734 0)"/>
     <use xlink:href="#DejaVuSans-20" transform="translate(1374.386719 0)"/>
     <use xlink:href="#DejaVuSans-6c" transform="translate(1406.173828 0)"/>
     <use xlink:href="#DejaVuSans-65" transform="translate(1433.957031 0)"/>
     <use xlink:href="#DejaVuSans-6e" transform="translate(1495.480469 0)"/>
     <use xlink:href="#DejaVuSans-67" transform="translate(1558.859375 0)"/>
     <use xlink:href="#DejaVuSans-74" transform="translate(1622.335938 0)"/>
     <use xlink:href="#DejaVuSans-68" transform="translate(1661.544922 0)"/>
     <use xlink:href="#DejaVuSans-2c" transform="translate(1724.923828 0)"/>
     <use xlink:href="#DejaVuSans-20" transform="translate(1756.710938 0)"/>
     <use xlink:href="#DejaVuSans-63" transform="translate(1788.498047 0)"/>
     <use xlink:href="#DejaVuSans-6f" transform="translate(1843.478516 0)"/>
     <use xlink:href="#DejaVuSans-6e" transform="translate(1904.660156 0)"/>
     <use xlink:href="#DejaVuSans-74" transform="translate(1968.039062 0)"/>
     <use xlink:href="#DejaVuSans-65" transform="translate(2007.248047 0)"/>
     <use xlink:href="#DejaVuSans-78" transform="translate(2067.021484 0)"/>
     <use xlink:href="#DejaVuSans-74" transform="translate(2126.201172 0)"/>
     <use xlink:href="#DejaVuSans-5f" transform="translate(2165.410156 0)"/>
     <use xlink:href="#DejaVuSans-6c" transform="translate(2215.410156 0)"/>
     <use xlink:href="#DejaVuSans-65" transform="translate(2243.193359 0)"/>
     <use xlink:href="#DejaVuSans-6e" transform="translate(2304.716797 0)"/>
     <use xlink:href="#DejaVuSans-3d" transform="translate(2368.095703 0)"/>
     <use xlink:href="#DejaVuSans-32" transform="translate(2451.884766 0)"/>
     <use xlink:href="#DejaVuSans-35" transform="translate(2515.507812 0)"/>
     <use xlink:href="#DejaVuSans-36" transform="translate(2579.130859 0)"/>
    </g>
   </g>
   <g id="legend_1">
    <g id="patch_7">
     <path d="M 51.67125 64.7925 
L 195.649375 64.7925 
Q 197.649375 64.7925 197.649375 62.7925 
L 197.649375 33.88 
Q 197.649375 31.88 195.649375 31.88 
L 51.67125 31.88 
Q 49.67125 31.88 49.67125 33.88 
L 49.67125 62.7925 
Q 49.67125 64.7925 51.67125 64.7925 
z
" style="fill: #ffffff; opacity: 0.8; stroke: #cccccc; stroke-linejoin: miter"/>
    </g>
    <g id="line2d_27">
     <path d="M 53.67125 39.978437 
L 63.67125 39.978437 
L 73.67125 39.978437 
" style="fill: none; stroke: #1f77b4; stroke-width: 1.2; stroke-linecap: square"/>
     <g>
      <use xlink:href="#m31019b06de" x="63.67125" y="39.978437" style="fill: #1f77b4; stroke: #1f77b4"/>
     </g>
    </g>
    <g id="text_16">
     <!-- target_only -->
     <g transform="translate(81.67125 43.478437) scale(0.1 -0.1)">
      <use xlink:href="#DejaVuSans-74"/>
      <use xlink:href="#DejaVuSans-61" transform="translate(39.208984 0)"/>
      <use xlink:href="#DejaVuSans-72" transform="translate(100.488281 0)"/>
      <use xlink:href="#DejaVuSans-67" transform="translate(139.851562 0)"/>
      <use xlink:href="#DejaVuSans-65" transform="translate(203.328125 0)"/>
      <use xlink:href="#DejaVuSans-74" transform="translate(264.851562 0)"/>
      <use xlink:href="#DejaVuSans-5f" transform="translate(304.060547 0)"/>
      <use xlink:href="#DejaVuSans-6f" transform="translate(354.060547 0)"/>
      <use xlink:href="#DejaVuSans-6e" transform="translate(415.242188 0)"/>
      <use xlink:href="#DejaVuSans-6c" transform="translate(478.621094 0)"/>
      <use xlink:href="#DejaVuSans-79" transform="translate(506.404297 0)"/>
     </g>
    </g>
    <g id="line2d_28">
     <path d="M 53.67125 54.934687 
L 63.67125 54.934687 
L 73.67125 54.934687 
" style="fill: none; stroke: #ff7f0e; stroke-width: 1.2; stroke-linecap: square"/>
     <g>
      <use xlink:href="#ma3b2a494c9" x="63.67125" y="54.934687" style="fill: #ff7f0e; stroke: #ff7f0e"/>
     </g>
    </g>
    <g id="text_17">
     <!-- classic_spec_sampling -->
     <g transform="translate(81.67125 58.434687) scale(0.1 -0.1)">
      <defs>
       <path id="DejaVuSans-70" d="M 1159 525 
L 1159 -1331 
L 581 -1331 
L 581 3500 
L 1159 3500 
L 1159 2969 
Q 1341 3281 1617 3432 
Q 1894 3584 2278 3584 
Q 2916 3584 3314 3078 
Q 3713 2572 3713 1747 
Q 3713 922 3314 415 
Q 2916 -91 2278 -91 
Q 1894 -91 1617 61 
Q 1341 213 1159 525 
z
M 3116 1747 
Q 3116 2381 2855 2742 
Q 2594 3103 2138 3103 
Q 1681 3103 1420 2742 
Q 1159 2381 1159 1747 
Q 1159 1113 1420 752 
Q 1681 391 2138 391 
Q 2594 391 2855 752 
Q 3116 1113 3116 1747 
z
" transform="scale(0.015625)"/>
      </defs>
      <use xlink:href="#DejaVuSans-63"/>
      <use xlink:href="#DejaVuSans-6c" transform="translate(54.980469 0)"/>
      <use xlink:href="#DejaVuSans-61" transform="translate(82.763672 0)"/>
      <use xlink:href="#DejaVuSans-73" transform="translate(144.042969 0)"/>
      <use xlink:href="#DejaVuSans-73" transform="translate(196.142578 0)"/>
      <use xlink:href="#DejaVuSans-69" transform="translate(248.242188 0)"/>
      <use xlink:href="#DejaVuSans-63" transform="translate(276.025391 0)"/>
      <use xlink:href="#DejaVuSans-5f" transform="translate(331.005859 0)"/>
      <use xlink:href="#DejaVuSans-73" transform="translate(381.005859 0)"/>
      <use xlink:href="#DejaVuSans-70" transform="translate(433.105469 0)"/>
      <use xlink:href="#DejaVuSans-65" transform="translate(496.582031 0)"/>
      <use xlink:href="#DejaVuSans-63" transform="translate(558.105469 0)"/>
      <use xlink:href="#DejaVuSans-5f" transform="translate(613.085938 0)"/>
      <use xlink:href="#DejaVuSans-73" transform="translate(663.085938 0)"/>
      <use xlink:href="#DejaVuSans-61" transform="translate(715.185547 0)"/>
      <use xlink:href="#DejaVuSans-6d" transform="translate(776.464844 0)"/>
      <use xlink:href="#DejaVuSans-70" transform="translate(873.876953 0)"/>
      <use xlink:href="#DejaVuSans-6c" transform="translate(937.353516 0)"/>
      <use xlink:href="#DejaVuSans-69" transform="translate(965.136719 0)"/>
      <use xlink:href="#DejaVuSans-6e" transform="translate(992.919922 0)"/>
      <use xlink:href="#DejaVuSans-67" transform="translate(1056.298828 0)"/>
     </g>
    </g>
   </g>
  </g>
 </g>
 <defs>
  <clipPath id="p82f44ac6bd">
   <rect x="44.67125" y="26.88" width="520.52875" height="291.16"/>
  </clipPath>
 </defs>
</svg>
