<?xml version="1.0" encoding="utf-8" standalone="no"?>
<!DOCTYPE svg PUBLIC "-//W3C//DTD SVG 1.1//EN"
  "http://www.w3.org/Graphics/SVG/1.1/DTD/svg11.dtd">
<svg xmlns:xlink="http://www.w3.org/1999/xlink" width="576pt" height="360pt" viewBox="0 0 576 360" xmlns="http://www.w3.org/2000/svg" version="1.1">
 <metadata>
  <rdf:RDF xmlns:dc="http://purl.org/dc/elements/1.1/" xmlns:cc="http://creativecommons.org/ns#" xmlns:rdf="http://www.w3.org/1999/02/22-rdf-syntax-ns#">
   <cc:Work>
    <dc:type rdf:resource="http://purl.org/dc/dcmitype/StillImage"/>
    <dc:date>2026-05-18T00:00:01.933886</dc:date>
    <dc:format>image/svg+xml</dc:format>
    <dc:creator>
     <cc:Agent>
      <dc:title>Matplotlib v3.10.9, https://matplotlib.org/</dc:title>
     </cc:Agent>
    </dc:creator>
   </cc:Work>
  </rdf:RDF>
 </metadata>
 <defs>
  <style type="text/css">*{stroke-linejoin: round; stroke-linecap: butt}</style>
 </defs>
 <g id="figure_1">
  <g id="patch_1">
   <path d="M 0 360 
L 576 360 
L 576 0 
L 0 0 
z
" style="fill: #ffffff"/>
  </g>
  <g id="axes_1">
   <g id="patch_2">
    <path d="M 44.67125 318.04 
L 565.2 318.04 
L 565.2 26.88 
L 44.67125 26.88 
z
" style="fill: #ffffff"/>
   </g>
   <g id="FillBetweenPolyCollection_1">
    <path d="M 68.331648 267.125104 
L 68.331648 268.085001 
L 73.111526 252.926568 
L 77.891404 251.441579 
L 82.671283 259.049989 
L 87.451161 257.722285 
L 92.231039 271.568936 
L 97.010918 256.693588 
L 101.790796 258.015823 
L 106.570674 254.465637 
L 111.350553 263.379709 
L 116.130431 260.985233 
L 120.910309 304.805455 
L 125.690188 258.000883 
L 130.470066 252.866985 
L 135.249944 250.36214 
L 140.029823 252.540087 
L 144.809701 247.85069 
L 149.589579 241.208239 
L 154.369458 241.437991 
L 159.149336 293.824983 
L 163.929214 236.629635 
L 168.709093 238.134785 
L 173.488971 236.563503 
L 178.268849 237.779273 
L 183.048728 235.773054 
L 187.828606 237.622377 
L 192.608484 247.69786 
L 197.388363 240.701086 
L 202.168241 268.947427 
L 206.948119 239.340768 
L 211.727998 236.507485 
L 216.507876 236.620854 
L 221.287754 271.900599 
L 226.067633 236.092159 
L 230.847511 248.835829 
L 235.627389 236.529296 
L 240.407268 231.498241 
L 245.187146 234.73696 
L 249.967024 233.197024 
L 254.746903 246.203931 
L 259.526781 230.463341 
L 264.306659 248.190171 
L 269.086538 231.172317 
L 273.866416 235.499901 
L 278.646294 230.713753 
L 283.426173 234.849432 
L 288.206051 229.123186 
L 292.985929 233.012686 
L 297.765808 227.87957 
L 302.545686 231.827757 
L 307.325564 255.840296 
L 312.105442 232.70129 
L 316.885321 226.31949 
L 321.665199 230.832836 
L 326.445077 226.320191 
L 331.224956 227.590407 
L 336.004834 221.951492 
L 340.784712 226.817479 
L 345.564591 221.701867 
L 350.344469 226.059323 
L 355.124347 269.850618 
L 359.904226 220.491199 
L 364.684104 231.017036 
L 369.463982 219.761559 
L 374.243861 214.711092 
L 379.023739 241.502561 
L 383.803617 212.721282 
L 388.583496 209.828726 
L 393.363374 203.793361 
L 398.143252 209.080614 
L 402.923131 203.236054 
L 407.703009 209.041703 
L 412.482887 209.11571 
L 417.262766 209.27506 
L 422.042644 203.854063 
L 426.822522 210.94929 
L 431.602401 205.455544 
L 436.382279 210.656644 
L 441.162157 204.687627 
L 445.942036 209.678276 
L 450.721914 204.520543 
L 455.501792 209.382306 
L 460.281671 202.271244 
L 465.061549 207.729152 
L 469.841427 201.791965 
L 474.621306 213.232996 
L 479.401184 223.599142 
L 484.181062 206.063927 
L 488.960941 198.424183 
L 493.740819 220.370654 
L 498.520697 198.664376 
L 503.300576 205.698783 
L 508.080454 197.875259 
L 512.860332 203.194837 
L 517.640211 268.387939 
L 522.420089 203.181554 
L 527.199967 253.467228 
L 531.979846 202.28018 
L 536.759724 194.089581 
L 541.539602 202.042196 
L 541.539602 200.830777 
L 541.539602 200.830777 
L 536.759724 192.772909 
L 531.979846 200.407324 
L 527.199967 77.4445 
L 522.420089 202.304531 
L 517.640211 59.414213 
L 512.860332 202.337807 
L 508.080454 196.903648 
L 503.300576 198.743868 
L 498.520697 197.616079 
L 493.740819 170.943122 
L 488.960941 197.013529 
L 484.181062 204.069972 
L 479.401184 154.160106 
L 474.621306 191.832878 
L 469.841427 200.102099 
L 465.061549 205.498154 
L 460.281671 200.738785 
L 455.501792 208.458145 
L 450.721914 203.06 
L 445.942036 208.864287 
L 441.162157 203.479802 
L 436.382279 209.413106 
L 431.602401 204.331026 
L 426.822522 208.550421 
L 422.042644 202.180575 
L 417.262766 207.905271 
L 412.482887 184.975722 
L 407.703009 206.946326 
L 402.923131 201.400643 
L 398.143252 205.577041 
L 393.363374 203.028772 
L 388.583496 208.577065 
L 383.803617 211.566062 
L 379.023739 173.839316 
L 374.243861 212.611015 
L 369.463982 217.114807 
L 364.684104 179.65539 
L 359.904226 218.80133 
L 355.124347 116.160751 
L 350.344469 224.228314 
L 345.564591 220.952236 
L 340.784712 224.807096 
L 336.004834 219.95118 
L 331.224956 225.624359 
L 326.445077 224.011589 
L 321.665199 228.725284 
L 316.885321 225.255421 
L 312.105442 231.145367 
L 307.325564 172.90393 
L 302.545686 230.931806 
L 297.765808 226.598437 
L 292.985929 231.675833 
L 288.206051 228.318777 
L 283.426173 233.137318 
L 278.646294 229.497161 
L 273.866416 234.485228 
L 269.086538 229.436149 
L 264.306659 210.107471 
L 259.526781 229.124828 
L 254.746903 215.299375 
L 249.967024 229.761765 
L 245.187146 232.244632 
L 240.407268 230.334775 
L 235.627389 231.777009 
L 230.847511 198.625456 
L 226.067633 235.030625 
L 221.287754 155.004819 
L 216.507876 235.244517 
L 211.727998 235.258965 
L 206.948119 238.1103 
L 202.168241 179.054259 
L 197.388363 239.40281 
L 192.608484 216.597879 
L 187.828606 235.803618 
L 183.048728 234.892006 
L 178.268849 236.375153 
L 173.488971 234.74668 
L 168.709093 237.06923 
L 163.929214 235.187793 
L 159.149336 132.161693 
L 154.369458 236.501529 
L 149.589579 239.116778 
L 144.809701 224.022281 
L 140.029823 247.950282 
L 135.249944 246.317105 
L 130.470066 249.949471 
L 125.690188 240.963053 
L 120.910309 157.089458 
L 116.130431 239.449671 
L 111.350553 241.712195 
L 106.570674 252.579873 
L 101.790796 256.853466 
L 97.010918 254.475644 
L 92.231039 231.426771 
L 87.451161 256.257414 
L 82.671283 256.046708 
L 77.891404 247.710394 
L 73.111526 251.540936 
L 68.331648 267.125104 
z
" clip-path="url(#p5012dd5a12)" style="fill: #1f77b4; fill-opacity: 0.15"/>
   </g>
   <g id="FillBetweenPolyCollection_2">
    <path d="M 68.331648 260.91618 
L 68.331648 262.793722 
L 73.111526 248.198543 
L 77.891404 245.53276 
L 82.671283 277.993105 
L 87.451161 252.909562 
L 92.231039 253.651014 
L 97.010918 248.807944 
L 101.790796 252.785504 
L 106.570674 249.272595 
L 111.350553 252.213723 
L 116.130431 249.487906 
L 120.910309 249.783009 
L 125.690188 247.673518 
L 130.470066 246.923448 
L 135.249944 243.837497 
L 140.029823 247.556294 
L 144.809701 243.922969 
L 149.589579 239.549395 
L 154.369458 250.413755 
L 159.149336 240.490513 
L 163.929214 232.190713 
L 168.709093 232.281848 
L 173.488971 230.236072 
L 178.268849 232.126351 
L 183.048728 230.901446 
L 187.828606 232.052152 
L 192.608484 233.455907 
L 197.388363 235.735342 
L 202.168241 233.255629 
L 206.948119 234.248867 
L 211.727998 230.937207 
L 216.507876 231.557455 
L 221.287754 228.107434 
L 226.067633 230.81982 
L 230.847511 227.057657 
L 235.627389 230.052015 
L 240.407268 226.255299 
L 245.187146 252.55226 
L 249.967024 227.555092 
L 254.746903 230.556459 
L 259.526781 224.835363 
L 264.306659 230.463667 
L 269.086538 225.712076 
L 273.866416 230.732151 
L 278.646294 225.487259 
L 283.426173 229.65601 
L 288.206051 224.125061 
L 292.985929 227.533288 
L 297.765808 222.83383 
L 302.545686 226.492711 
L 307.325564 222.914268 
L 312.105442 226.540919 
L 316.885321 221.733519 
L 321.665199 225.161911 
L 326.445077 221.016256 
L 331.224956 222.467669 
L 336.004834 225.848305 
L 340.784712 221.358774 
L 345.564591 216.860443 
L 350.344469 220.762096 
L 355.124347 213.816078 
L 359.904226 214.882532 
L 364.684104 208.228025 
L 369.463982 213.359998 
L 374.243861 208.370249 
L 379.023739 213.157725 
L 383.803617 207.140489 
L 388.583496 204.500704 
L 393.363374 230.064819 
L 398.143252 202.609392 
L 402.923131 196.129615 
L 407.703009 202.926755 
L 412.482887 195.317322 
L 417.262766 212.830903 
L 422.042644 198.251522 
L 426.822522 234.502729 
L 431.602401 200.209318 
L 436.382279 269.287057 
L 441.162157 199.494315 
L 445.942036 204.75437 
L 450.721914 198.760886 
L 455.501792 204.093769 
L 460.281671 196.766603 
L 465.061549 202.097638 
L 469.841427 232.748053 
L 474.621306 200.651615 
L 479.401184 195.560214 
L 484.181062 200.107128 
L 488.960941 234.727902 
L 493.740819 199.239098 
L 498.520697 219.552443 
L 503.300576 199.012199 
L 508.080454 214.848258 
L 512.860332 198.107939 
L 517.640211 192.052898 
L 522.420089 197.458651 
L 527.199967 188.403907 
L 531.979846 196.478592 
L 536.759724 189.703087 
L 541.539602 277.047633 
L 541.539602 40.114545 
L 541.539602 40.114545 
L 536.759724 186.662844 
L 531.979846 194.983291 
L 527.199967 187.815024 
L 522.420089 196.307551 
L 517.640211 190.20889 
L 512.860332 195.341684 
L 508.080454 147.532093 
L 503.300576 197.610268 
L 498.520697 138.994941 
L 493.740819 193.447134 
L 488.960941 109.065183 
L 484.181062 198.535692 
L 479.401184 191.362383 
L 474.621306 199.69682 
L 469.841427 123.900845 
L 465.061549 200.094983 
L 460.281671 195.153548 
L 455.501792 202.885719 
L 450.721914 196.929775 
L 445.942036 202.569206 
L 441.162157 198.376685 
L 436.382279 80.64844 
L 431.602401 198.5378 
L 426.822522 147.617519 
L 422.042644 195.991459 
L 417.262766 182.53123 
L 412.482887 193.581259 
L 407.703009 200.84466 
L 402.923131 194.912825 
L 398.143252 200.980001 
L 393.363374 134.213533 
L 388.583496 199.48354 
L 383.803617 205.111773 
L 379.023739 211.309439 
L 374.243861 206.565101 
L 369.463982 211.132022 
L 364.684104 206.441299 
L 359.904226 212.705943 
L 355.124347 209.345556 
L 350.344469 219.431569 
L 345.564591 214.900791 
L 340.784712 219.839081 
L 336.004834 196.365098 
L 331.224956 221.06781 
L 326.445077 219.24745 
L 321.665199 224.030134 
L 316.885321 218.271416 
L 312.105442 225.683817 
L 307.325564 221.168241 
L 302.545686 225.052917 
L 297.765808 220.862809 
L 292.985929 226.271137 
L 288.206051 222.910838 
L 283.426173 227.511236 
L 278.646294 224.537181 
L 273.866416 228.807103 
L 269.086538 222.997183 
L 264.306659 229.397021 
L 259.526781 223.6335 
L 254.746903 229.140998 
L 249.967024 226.254175 
L 245.187146 179.560449 
L 240.407268 224.449917 
L 235.627389 229.214728 
L 230.847511 225.328729 
L 226.067633 229.397661 
L 221.287754 225.916868 
L 216.507876 229.844579 
L 211.727998 229.829511 
L 206.948119 232.024103 
L 202.168241 232.154069 
L 197.388363 234.266495 
L 192.608484 231.19262 
L 187.828606 230.201756 
L 183.048728 228.340573 
L 178.268849 230.288655 
L 173.488971 228.198074 
L 168.709093 231.49117 
L 163.929214 228.533107 
L 159.149336 220.307366 
L 154.369458 195.147315 
L 149.589579 225.755376 
L 144.809701 213.478108 
L 140.029823 243.034078 
L 135.249944 240.783654 
L 130.470066 243.719635 
L 125.690188 244.349547 
L 120.910309 246.936159 
L 116.130431 247.48906 
L 111.350553 248.842959 
L 106.570674 248.041678 
L 101.790796 249.280551 
L 97.010918 247.293513 
L 92.231039 250.765511 
L 87.451161 251.165508 
L 82.671283 202.317052 
L 77.891404 243.863729 
L 73.111526 245.688739 
L 68.331648 260.91618 
z
" clip-path="url(#p5012dd5a12)" style="fill: #ff7f0e; fill-opacity: 0.15"/>
   </g>
   <g id="matplotlib.axis_1">
    <g id="xtick_1">
     <g id="line2d_1">
      <path d="M 63.551769 318.04 
L 63.551769 26.88 
" clip-path="url(#p5012dd5a12)" style="fill: none; stroke: #b0b0b0; stroke-opacity: 0.3; stroke-width: 0.8; stroke-linecap: square"/>
     </g>
     <g id="line2d_2">
      <defs>
       <path id="m570d2e5f28" d="M 0 0 
L 0 3.5 
" style="stroke: #000000; stroke-width: 0.8"/>
      </defs>
      <g>
       <use xlink:href="#m570d2e5f28" x="63.551769" y="318.04" style="stroke: #000000; stroke-width: 0.8"/>
      </g>
     </g>
     <g id="text_1">
      <!-- 0 -->
      <g transform="translate(60.370519 332.638438) scale(0.1 -0.1)">
       <defs>
        <path id="DejaVuSans-30" d="M 2034 4250 
Q 1547 4250 1301 3770 
Q 1056 3291 1056 2328 
Q 1056 1369 1301 889 
Q 1547 409 2034 409 
Q 2525 409 2770 889 
Q 3016 1369 3016 2328 
Q 3016 3291 2770 3770 
Q 2525 4250 2034 4250 
z
M 2034 4750 
Q 2819 4750 3233 4129 
Q 3647 3509 3647 2328 
Q 3647 1150 3233 529 
Q 2819 -91 2034 -91 
Q 1250 -91 836 529 
Q 422 1150 422 2328 
Q 422 3509 836 4129 
Q 1250 4750 2034 4750 
z
" transform="scale(0.015625)"/>
       </defs>
       <use xlink:href="#DejaVuSans-30"/>
      </g>
     </g>
    </g>
    <g id="xtick_2">
     <g id="line2d_3">
      <path d="M 159.149336 318.04 
L 159.149336 26.88 
" clip-path="url(#p5012dd5a12)" style="fill: none; stroke: #b0b0b0; stroke-opacity: 0.3; stroke-width: 0.8; stroke-linecap: square"/>
     </g>
     <g id="line2d_4">
      <g>
       <use xlink:href="#m570d2e5f28" x="159.149336" y="318.04" style="stroke: #000000; stroke-width: 0.8"/>
      </g>
     </g>
     <g id="text_2">
      <!-- 20 -->
      <g transform="translate(152.786836 332.638438) scale(0.1 -0.1)">
       <defs>
        <path id="DejaVuSans-32" d="M 1228 531 
L 3431 531 
L 3431 0 
L 469 0 
L 469 531 
Q 828 903 1448 1529 
Q 2069 2156 2228 2338 
Q 2531 2678 2651 2914 
Q 2772 3150 2772 3378 
Q 2772 3750 2511 3984 
Q 2250 4219 1831 4219 
Q 1534 4219 1204 4116 
Q 875 4013 500 3803 
L 500 4441 
Q 881 4594 1212 4672 
Q 1544 4750 1819 4750 
Q 2544 4750 2975 4387 
Q 3406 4025 3406 3419 
Q 3406 3131 3298 2873 
Q 3191 2616 2906 2266 
Q 2828 2175 2409 1742 
Q 1991 1309 1228 531 
z
" transform="scale(0.015625)"/>
       </defs>
       <use xlink:href="#DejaVuSans-32"/>
       <use xlink:href="#DejaVuSans-30" transform="translate(63.623047 0)"/>
      </g>
     </g>
    </g>
    <g id="xtick_3">
     <g id="line2d_5">
      <path d="M 254.746903 318.04 
L 254.746903 26.88 
" clip-path="url(#p5012dd5a12)" style="fill: none; stroke: #b0b0b0; stroke-opacity: 0.3; stroke-width: 0.8; stroke-linecap: square"/>
     </g>
     <g id="line2d_6">
      <g>
       <use xlink:href="#m570d2e5f28" x="254.746903" y="318.04" style="stroke: #000000; stroke-width: 0.8"/>
      </g>
     </g>
     <g id="text_3">
      <!-- 40 -->
      <g transform="translate(248.384403 332.638438) scale(0.1 -0.1)">
       <defs>
        <path id="DejaVuSans-34" d="M 2419 4116 
L 825 1625 
L 2419 1625 
L 2419 4116 
z
M 2253 4666 
L 3047 4666 
L 3047 1625 
L 3713 1625 
L 3713 1100 
L 3047 1100 
L 3047 0 
L 2419 0 
L 2419 1100 
L 313 1100 
L 313 1709 
L 2253 4666 
z
" transform="scale(0.015625)"/>
       </defs>
       <use xlink:href="#DejaVuSans-34"/>
       <use xlink:href="#DejaVuSans-30" transform="translate(63.623047 0)"/>
      </g>
     </g>
    </g>
    <g id="xtick_4">
     <g id="line2d_7">
      <path d="M 350.344469 318.04 
L 350.344469 26.88 
" clip-path="url(#p5012dd5a12)" style="fill: none; stroke: #b0b0b0; stroke-opacity: 0.3; stroke-width: 0.8; stroke-linecap: square"/>
     </g>
     <g id="line2d_8">
      <g>
       <use xlink:href="#m570d2e5f28" x="350.344469" y="318.04" style="stroke: #000000; stroke-width: 0.8"/>
      </g>
     </g>
     <g id="text_4">
      <!-- 60 -->
      <g transform="translate(343.981969 332.638438) scale(0.1 -0.1)">
       <defs>
        <path id="DejaVuSans-36" d="M 2113 2584 
Q 1688 2584 1439 2293 
Q 1191 2003 1191 1497 
Q 1191 994 1439 701 
Q 1688 409 2113 409 
Q 2538 409 2786 701 
Q 3034 994 3034 1497 
Q 3034 2003 2786 2293 
Q 2538 2584 2113 2584 
z
M 3366 4563 
L 3366 3988 
Q 3128 4100 2886 4159 
Q 2644 4219 2406 4219 
Q 1781 4219 1451 3797 
Q 1122 3375 1075 2522 
Q 1259 2794 1537 2939 
Q 1816 3084 2150 3084 
Q 2853 3084 3261 2657 
Q 3669 2231 3669 1497 
Q 3669 778 3244 343 
Q 2819 -91 2113 -91 
Q 1303 -91 875 529 
Q 447 1150 447 2328 
Q 447 3434 972 4092 
Q 1497 4750 2381 4750 
Q 2619 4750 2861 4703 
Q 3103 4656 3366 4563 
z
" transform="scale(0.015625)"/>
       </defs>
       <use xlink:href="#DejaVuSans-36"/>
       <use xlink:href="#DejaVuSans-30" transform="translate(63.623047 0)"/>
      </g>
     </g>
    </g>
    <g id="xtick_5">
     <g id="line2d_9">
      <path d="M 445.942036 318.04 
L 445.942036 26.88 
" clip-path="url(#p5012dd5a12)" style="fill: none; stroke: #b0b0b0; stroke-opacity: 0.3; stroke-width: 0.8; stroke-linecap: square"/>
     </g>
     <g id="line2d_10">
      <g>
       <use xlink:href="#m570d2e5f28" x="445.942036" y="318.04" style="stroke: #000000; stroke-width: 0.8"/>
      </g>
     </g>
     <g id="text_5">
      <!-- 80 -->
      <g transform="translate(439.579536 332.638438) scale(0.1 -0.1)">
       <defs>
        <path id="DejaVuSans-38" d="M 2034 2216 
Q 1584 2216 1326 1975 
Q 1069 1734 1069 1313 
Q 1069 891 1326 650 
Q 1584 409 2034 409 
Q 2484 409 2743 651 
Q 3003 894 3003 1313 
Q 3003 1734 2745 1975 
Q 2488 2216 2034 2216 
z
M 1403 2484 
Q 997 2584 770 2862 
Q 544 3141 544 3541 
Q 544 4100 942 4425 
Q 1341 4750 2034 4750 
Q 2731 4750 3128 4425 
Q 3525 4100 3525 3541 
Q 3525 3141 3298 2862 
Q 3072 2584 2669 2484 
Q 3125 2378 3379 2068 
Q 3634 1759 3634 1313 
Q 3634 634 3220 271 
Q 2806 -91 2034 -91 
Q 1263 -91 848 271 
Q 434 634 434 1313 
Q 434 1759 690 2068 
Q 947 2378 1403 2484 
z
M 1172 3481 
Q 1172 3119 1398 2916 
Q 1625 2713 2034 2713 
Q 2441 2713 2670 2916 
Q 2900 3119 2900 3481 
Q 2900 3844 2670 4047 
Q 2441 4250 2034 4250 
Q 1625 4250 1398 4047 
Q 1172 3844 1172 3481 
z
" transform="scale(0.015625)"/>
       </defs>
       <use xlink:href="#DejaVuSans-38"/>
       <use xlink:href="#DejaVuSans-30" transform="translate(63.623047 0)"/>
      </g>
     </g>
    </g>
    <g id="xtick_6">
     <g id="line2d_11">
      <path d="M 541.539602 318.04 
L 541.539602 26.88 
" clip-path="url(#p5012dd5a12)" style="fill: none; stroke: #b0b0b0; stroke-opacity: 0.3; stroke-width: 0.8; stroke-linecap: square"/>
     </g>
     <g id="line2d_12">
      <g>
       <use xlink:href="#m570d2e5f28" x="541.539602" y="318.04" style="stroke: #000000; stroke-width: 0.8"/>
      </g>
     </g>
     <g id="text_6">
      <!-- 100 -->
      <g transform="translate(531.995852 332.638438) scale(0.1 -0.1)">
       <defs>
        <path id="DejaVuSans-31" d="M 794 531 
L 1825 531 
L 1825 4091 
L 703 3866 
L 703 4441 
L 1819 4666 
L 2450 4666 
L 2450 531 
L 3481 531 
L 3481 0 
L 794 0 
L 794 531 
z
" transform="scale(0.015625)"/>
       </defs>
       <use xlink:href="#DejaVuSans-31"/>
       <use xlink:href="#DejaVuSans-30" transform="translate(63.623047 0)"/>
       <use xlink:href="#DejaVuSans-30" transform="translate(127.246094 0)"/>
      </g>
     </g>
    </g>
    <g id="text_7">
     <!-- Draft length -->
     <g transform="translate(274.806719 346.316563) scale(0.1 -0.1)">
      <defs>
       <path id="DejaVuSans-44" d="M 1259 4147 
L 1259 519 
L 2022 519 
Q 2988 519 3436 956 
Q 3884 1394 3884 2338 
Q 3884 3275 3436 3711 
Q 2988 4147 2022 4147 
L 1259 4147 
z
M 628 4666 
L 1925 4666 
Q 3281 4666 3915 4102 
Q 4550 3538 4550 2338 
Q 4550 1131 3912 565 
Q 3275 0 1925 0 
L 628 0 
L 628 4666 
z
" transform="scale(0.015625)"/>
       <path id="DejaVuSans-72" d="M 2631 2963 
Q 2534 3019 2420 3045 
Q 2306 3072 2169 3072 
Q 1681 3072 1420 2755 
Q 1159 2438 1159 1844 
L 1159 0 
L 581 0 
L 581 3500 
L 1159 3500 
L 1159 2956 
Q 1341 3275 1631 3429 
Q 1922 3584 2338 3584 
Q 2397 3584 2469 3576 
Q 2541 3569 2628 3553 
L 2631 2963 
z
" transform="scale(0.015625)"/>
       <path id="DejaVuSans-61" d="M 2194 1759 
Q 1497 1759 1228 1600 
Q 959 1441 959 1056 
Q 959 750 1161 570 
Q 1363 391 1709 391 
Q 2188 391 2477 730 
Q 2766 1069 2766 1631 
L 2766 1759 
L 2194 1759 
z
M 3341 1997 
L 3341 0 
L 2766 0 
L 2766 531 
Q 2569 213 2275 61 
Q 1981 -91 1556 -91 
Q 1019 -91 701 211 
Q 384 513 384 1019 
Q 384 1609 779 1909 
Q 1175 2209 1959 2209 
L 2766 2209 
L 2766 2266 
Q 2766 2663 2505 2880 
Q 2244 3097 1772 3097 
Q 1472 3097 1187 3025 
Q 903 2953 641 2809 
L 641 3341 
Q 956 3463 1253 3523 
Q 1550 3584 1831 3584 
Q 2591 3584 2966 3190 
Q 3341 2797 3341 1997 
z
" transform="scale(0.015625)"/>
       <path id="DejaVuSans-66" d="M 2375 4863 
L 2375 4384 
L 1825 4384 
Q 1516 4384 1395 4259 
Q 1275 4134 1275 3809 
L 1275 3500 
L 2222 3500 
L 2222 3053 
L 1275 3053 
L 1275 0 
L 697 0 
L 697 3053 
L 147 3053 
L 147 3500 
L 697 3500 
L 697 3744 
Q 697 4328 969 4595 
Q 1241 4863 1831 4863 
L 2375 4863 
z
" transform="scale(0.015625)"/>
       <path id="DejaVuSans-74" d="M 1172 4494 
L 1172 3500 
L 2356 3500 
L 2356 3053 
L 1172 3053 
L 1172 1153 
Q 1172 725 1289 603 
Q 1406 481 1766 481 
L 2356 481 
L 2356 0 
L 1766 0 
Q 1100 0 847 248 
Q 594 497 594 1153 
L 594 3053 
L 172 3053 
L 172 3500 
L 594 3500 
L 594 4494 
L 1172 4494 
z
" transform="scale(0.015625)"/>
       <path id="DejaVuSans-20" transform="scale(0.015625)"/>
       <path id="DejaVuSans-6c" d="M 603 4863 
L 1178 4863 
L 1178 0 
L 603 0 
L 603 4863 
z
" transform="scale(0.015625)"/>
       <path id="DejaVuSans-65" d="M 3597 1894 
L 3597 1613 
L 953 1613 
Q 991 1019 1311 708 
Q 1631 397 2203 397 
Q 2534 397 2845 478 
Q 3156 559 3463 722 
L 3463 178 
Q 3153 47 2828 -22 
Q 2503 -91 2169 -91 
Q 1331 -91 842 396 
Q 353 884 353 1716 
Q 353 2575 817 3079 
Q 1281 3584 2069 3584 
Q 2775 3584 3186 3129 
Q 3597 2675 3597 1894 
z
M 3022 2063 
Q 3016 2534 2758 2815 
Q 2500 3097 2075 3097 
Q 1594 3097 1305 2825 
Q 1016 2553 972 2059 
L 3022 2063 
z
" transform="scale(0.015625)"/>
       <path id="DejaVuSans-6e" d="M 3513 2113 
L 3513 0 
L 2938 0 
L 2938 2094 
Q 2938 2591 2744 2837 
Q 2550 3084 2163 3084 
Q 1697 3084 1428 2787 
Q 1159 2491 1159 1978 
L 1159 0 
L 581 0 
L 581 3500 
L 1159 3500 
L 1159 2956 
Q 1366 3272 1645 3428 
Q 1925 3584 2291 3584 
Q 2894 3584 3203 3211 
Q 3513 2838 3513 2113 
z
" transform="scale(0.015625)"/>
       <path id="DejaVuSans-67" d="M 2906 1791 
Q 2906 2416 2648 2759 
Q 2391 3103 1925 3103 
Q 1463 3103 1205 2759 
Q 947 2416 947 1791 
Q 947 1169 1205 825 
Q 1463 481 1925 481 
Q 2391 481 2648 825 
Q 2906 1169 2906 1791 
z
M 3481 434 
Q 3481 -459 3084 -895 
Q 2688 -1331 1869 -1331 
Q 1566 -1331 1297 -1286 
Q 1028 -1241 775 -1147 
L 775 -588 
Q 1028 -725 1275 -790 
Q 1522 -856 1778 -856 
Q 2344 -856 2625 -561 
Q 2906 -266 2906 331 
L 2906 616 
Q 2728 306 2450 153 
Q 2172 0 1784 0 
Q 1141 0 747 490 
Q 353 981 353 1791 
Q 353 2603 747 3093 
Q 1141 3584 1784 3584 
Q 2172 3584 2450 3431 
Q 2728 3278 2906 2969 
L 2906 3500 
L 3481 3500 
L 3481 434 
z
" transform="scale(0.015625)"/>
       <path id="DejaVuSans-68" d="M 3513 2113 
L 3513 0 
L 2938 0 
L 2938 2094 
Q 2938 2591 2744 2837 
Q 2550 3084 2163 3084 
Q 1697 3084 1428 2787 
Q 1159 2491 1159 1978 
L 1159 0 
L 581 0 
L 581 4863 
L 1159 4863 
L 1159 2956 
Q 1366 3272 1645 3428 
Q 1925 3584 2291 3584 
Q 2894 3584 3203 3211 
Q 3513 2838 3513 2113 
z
" transform="scale(0.015625)"/>
      </defs>
      <use xlink:href="#DejaVuSans-44"/>
      <use xlink:href="#DejaVuSans-72" transform="translate(77.001953 0)"/>
      <use xlink:href="#DejaVuSans-61" transform="translate(118.115234 0)"/>
      <use xlink:href="#DejaVuSans-66" transform="translate(179.394531 0)"/>
      <use xlink:href="#DejaVuSans-74" transform="translate(212.849609 0)"/>
      <use xlink:href="#DejaVuSans-20" transform="translate(252.058594 0)"/>
      <use xlink:href="#DejaVuSans-6c" transform="translate(283.845703 0)"/>
      <use xlink:href="#DejaVuSans-65" transform="translate(311.628906 0)"/>
      <use xlink:href="#DejaVuSans-6e" transform="translate(373.152344 0)"/>
      <use xlink:href="#DejaVuSans-67" transform="translate(436.53125 0)"/>
      <use xlink:href="#DejaVuSans-74" transform="translate(500.007812 0)"/>
      <use xlink:href="#DejaVuSans-68" transform="translate(539.216797 0)"/>
     </g>
    </g>
   </g>
   <g id="matplotlib.axis_2">
    <g id="ytick_1">
     <g id="line2d_13">
      <path d="M 44.67125 287.140758 
L 565.2 287.140758 
" clip-path="url(#p5012dd5a12)" style="fill: none; stroke: #b0b0b0; stroke-opacity: 0.3; stroke-width: 0.8; stroke-linecap: square"/>
     </g>
     <g id="line2d_14">
      <defs>
       <path id="m2ba59ec136" d="M 0 0 
L -3.5 0 
" style="stroke: #000000; stroke-width: 0.8"/>
      </defs>
      <g>
       <use xlink:href="#m2ba59ec136" x="44.67125" y="287.140758" style="stroke: #000000; stroke-width: 0.8"/>
      </g>
     </g>
     <g id="text_8">
      <!-- 15 -->
      <g transform="translate(24.94625 290.939977) scale(0.1 -0.1)">
       <defs>
        <path id="DejaVuSans-35" d="M 691 4666 
L 3169 4666 
L 3169 4134 
L 1269 4134 
L 1269 2991 
Q 1406 3038 1543 3061 
Q 1681 3084 1819 3084 
Q 2600 3084 3056 2656 
Q 3513 2228 3513 1497 
Q 3513 744 3044 326 
Q 2575 -91 1722 -91 
Q 1428 -91 1123 -41 
Q 819 9 494 109 
L 494 744 
Q 775 591 1075 516 
Q 1375 441 1709 441 
Q 2250 441 2565 725 
Q 2881 1009 2881 1497 
Q 2881 1984 2565 2268 
Q 2250 2553 1709 2553 
Q 1456 2553 1204 2497 
Q 953 2441 691 2322 
L 691 4666 
z
" transform="scale(0.015625)"/>
       </defs>
       <use xlink:href="#DejaVuSans-31"/>
       <use xlink:href="#DejaVuSans-35" transform="translate(63.623047 0)"/>
      </g>
     </g>
    </g>
    <g id="ytick_2">
     <g id="line2d_15">
      <path d="M 44.67125 233.173099 
L 565.2 233.173099 
" clip-path="url(#p5012dd5a12)" style="fill: none; stroke: #b0b0b0; stroke-opacity: 0.3; stroke-width: 0.8; stroke-linecap: square"/>
     </g>
     <g id="line2d_16">
      <g>
       <use xlink:href="#m2ba59ec136" x="44.67125" y="233.173099" style="stroke: #000000; stroke-width: 0.8"/>
      </g>
     </g>
     <g id="text_9">
      <!-- 20 -->
      <g transform="translate(24.94625 236.972318) scale(0.1 -0.1)">
       <use xlink:href="#DejaVuSans-32"/>
       <use xlink:href="#DejaVuSans-30" transform="translate(63.623047 0)"/>
      </g>
     </g>
    </g>
    <g id="ytick_3">
     <g id="line2d_17">
      <path d="M 44.67125 179.20544 
L 565.2 179.20544 
" clip-path="url(#p5012dd5a12)" style="fill: none; stroke: #b0b0b0; stroke-opacity: 0.3; stroke-width: 0.8; stroke-linecap: square"/>
     </g>
     <g id="line2d_18">
      <g>
       <use xlink:href="#m2ba59ec136" x="44.67125" y="179.20544" style="stroke: #000000; stroke-width: 0.8"/>
      </g>
     </g>
     <g id="text_10">
      <!-- 25 -->
      <g transform="translate(24.94625 183.004659) scale(0.1 -0.1)">
       <use xlink:href="#DejaVuSans-32"/>
       <use xlink:href="#DejaVuSans-35" transform="translate(63.623047 0)"/>
      </g>
     </g>
    </g>
    <g id="ytick_4">
     <g id="line2d_19">
      <path d="M 44.67125 125.237781 
L 565.2 125.237781 
" clip-path="url(#p5012dd5a12)" style="fill: none; stroke: #b0b0b0; stroke-opacity: 0.3; stroke-width: 0.8; stroke-linecap: square"/>
     </g>
     <g id="line2d_20">
      <g>
       <use xlink:href="#m2ba59ec136" x="44.67125" y="125.237781" style="stroke: #000000; stroke-width: 0.8"/>
      </g>
     </g>
     <g id="text_11">
      <!-- 30 -->
      <g transform="translate(24.94625 129.036999) scale(0.1 -0.1)">
       <defs>
        <path id="DejaVuSans-33" d="M 2597 2516 
Q 3050 2419 3304 2112 
Q 3559 1806 3559 1356 
Q 3559 666 3084 287 
Q 2609 -91 1734 -91 
Q 1441 -91 1130 -33 
Q 819 25 488 141 
L 488 750 
Q 750 597 1062 519 
Q 1375 441 1716 441 
Q 2309 441 2620 675 
Q 2931 909 2931 1356 
Q 2931 1769 2642 2001 
Q 2353 2234 1838 2234 
L 1294 2234 
L 1294 2753 
L 1863 2753 
Q 2328 2753 2575 2939 
Q 2822 3125 2822 3475 
Q 2822 3834 2567 4026 
Q 2313 4219 1838 4219 
Q 1578 4219 1281 4162 
Q 984 4106 628 3988 
L 628 4550 
Q 988 4650 1302 4700 
Q 1616 4750 1894 4750 
Q 2613 4750 3031 4423 
Q 3450 4097 3450 3541 
Q 3450 3153 3228 2886 
Q 3006 2619 2597 2516 
z
" transform="scale(0.015625)"/>
       </defs>
       <use xlink:href="#DejaVuSans-33"/>
       <use xlink:href="#DejaVuSans-30" transform="translate(63.623047 0)"/>
      </g>
     </g>
    </g>
    <g id="ytick_5">
     <g id="line2d_21">
      <path d="M 44.67125 71.270121 
L 565.2 71.270121 
" clip-path="url(#p5012dd5a12)" style="fill: none; stroke: #b0b0b0; stroke-opacity: 0.3; stroke-width: 0.8; stroke-linecap: square"/>
     </g>
     <g id="line2d_22">
      <g>
       <use xlink:href="#m2ba59ec136" x="44.67125" y="71.270121" style="stroke: #000000; stroke-width: 0.8"/>
      </g>
     </g>
     <g id="text_12">
      <!-- 35 -->
      <g transform="translate(24.94625 75.06934) scale(0.1 -0.1)">
       <use xlink:href="#DejaVuSans-33"/>
       <use xlink:href="#DejaVuSans-35" transform="translate(63.623047 0)"/>
      </g>
     </g>
    </g>
    <g id="text_13">
     <!-- cuda_ms -->
     <g transform="translate(18.588438 194.59125) rotate(-90) scale(0.1 -0.1)">
      <defs>
       <path id="DejaVuSans-63" d="M 3122 3366 
L 3122 2828 
Q 2878 2963 2633 3030 
Q 2388 3097 2138 3097 
Q 1578 3097 1268 2742 
Q 959 2388 959 1747 
Q 959 1106 1268 751 
Q 1578 397 2138 397 
Q 2388 397 2633 464 
Q 2878 531 3122 666 
L 3122 134 
Q 2881 22 2623 -34 
Q 2366 -91 2075 -91 
Q 1284 -91 818 406 
Q 353 903 353 1747 
Q 353 2603 823 3093 
Q 1294 3584 2113 3584 
Q 2378 3584 2631 3529 
Q 2884 3475 3122 3366 
z
" transform="scale(0.015625)"/>
       <path id="DejaVuSans-75" d="M 544 1381 
L 544 3500 
L 1119 3500 
L 1119 1403 
Q 1119 906 1312 657 
Q 1506 409 1894 409 
Q 2359 409 2629 706 
Q 2900 1003 2900 1516 
L 2900 3500 
L 3475 3500 
L 3475 0 
L 2900 0 
L 2900 538 
Q 2691 219 2414 64 
Q 2138 -91 1772 -91 
Q 1169 -91 856 284 
Q 544 659 544 1381 
z
M 1991 3584 
L 1991 3584 
z
" transform="scale(0.015625)"/>
       <path id="DejaVuSans-64" d="M 2906 2969 
L 2906 4863 
L 3481 4863 
L 3481 0 
L 2906 0 
L 2906 525 
Q 2725 213 2448 61 
Q 2172 -91 1784 -91 
Q 1150 -91 751 415 
Q 353 922 353 1747 
Q 353 2572 751 3078 
Q 1150 3584 1784 3584 
Q 2172 3584 2448 3432 
Q 2725 3281 2906 2969 
z
M 947 1747 
Q 947 1113 1208 752 
Q 1469 391 1925 391 
Q 2381 391 2643 752 
Q 2906 1113 2906 1747 
Q 2906 2381 2643 2742 
Q 2381 3103 1925 3103 
Q 1469 3103 1208 2742 
Q 947 2381 947 1747 
z
" transform="scale(0.015625)"/>
       <path id="DejaVuSans-5f" d="M 3263 -1063 
L 3263 -1509 
L -63 -1509 
L -63 -1063 
L 3263 -1063 
z
" transform="scale(0.015625)"/>
       <path id="DejaVuSans-6d" d="M 3328 2828 
Q 3544 3216 3844 3400 
Q 4144 3584 4550 3584 
Q 5097 3584 5394 3201 
Q 5691 2819 5691 2113 
L 5691 0 
L 5113 0 
L 5113 2094 
Q 5113 2597 4934 2840 
Q 4756 3084 4391 3084 
Q 3944 3084 3684 2787 
Q 3425 2491 3425 1978 
L 3425 0 
L 2847 0 
L 2847 2094 
Q 2847 2600 2669 2842 
Q 2491 3084 2119 3084 
Q 1678 3084 1418 2786 
Q 1159 2488 1159 1978 
L 1159 0 
L 581 0 
L 581 3500 
L 1159 3500 
L 1159 2956 
Q 1356 3278 1631 3431 
Q 1906 3584 2284 3584 
Q 2666 3584 2933 3390 
Q 3200 3197 3328 2828 
z
" transform="scale(0.015625)"/>
       <path id="DejaVuSans-73" d="M 2834 3397 
L 2834 2853 
Q 2591 2978 2328 3040 
Q 2066 3103 1784 3103 
Q 1356 3103 1142 2972 
Q 928 2841 928 2578 
Q 928 2378 1081 2264 
Q 1234 2150 1697 2047 
L 1894 2003 
Q 2506 1872 2764 1633 
Q 3022 1394 3022 966 
Q 3022 478 2636 193 
Q 2250 -91 1575 -91 
Q 1294 -91 989 -36 
Q 684 19 347 128 
L 347 722 
Q 666 556 975 473 
Q 1284 391 1588 391 
Q 1994 391 2212 530 
Q 2431 669 2431 922 
Q 2431 1156 2273 1281 
Q 2116 1406 1581 1522 
L 1381 1569 
Q 847 1681 609 1914 
Q 372 2147 372 2553 
Q 372 3047 722 3315 
Q 1072 3584 1716 3584 
Q 2034 3584 2315 3537 
Q 2597 3491 2834 3397 
z
" transform="scale(0.015625)"/>
      </defs>
      <use xlink:href="#DejaVuSans-63"/>
      <use xlink:href="#DejaVuSans-75" transform="translate(54.980469 0)"/>
      <use xlink:href="#DejaVuSans-64" transform="translate(118.359375 0)"/>
      <use xlink:href="#DejaVuSans-61" transform="translate(181.835938 0)"/>
      <use xlink:href="#DejaVuSans-5f" transform="translate(243.115234 0)"/>
      <use xlink:href="#DejaVuSans-6d" transform="translate(293.115234 0)"/>
      <use xlink:href="#DejaVuSans-73" transform="translate(390.527344 0)"/>
     </g>
    </g>
   </g>
   <g id="line2d_23">
    <path d="M 68.331648 267.605052 
L 73.111526 252.233752 
L 77.891404 249.575987 
L 82.671283 257.548349 
L 87.451161 256.989849 
L 92.231039 251.497854 
L 97.010918 255.584616 
L 101.790796 257.434644 
L 106.570674 253.522755 
L 111.350553 252.545952 
L 116.130431 250.217452 
L 120.910309 230.947456 
L 125.690188 249.481968 
L 130.470066 251.408228 
L 135.249944 248.339623 
L 140.029823 250.245185 
L 144.809701 235.936486 
L 149.589579 240.162509 
L 154.369458 238.96976 
L 159.149336 212.993338 
L 163.929214 235.908714 
L 168.709093 237.602007 
L 173.488971 235.655092 
L 178.268849 237.077213 
L 183.048728 235.33253 
L 187.828606 236.712998 
L 192.608484 232.147869 
L 197.388363 240.051948 
L 202.168241 224.000843 
L 206.948119 238.725534 
L 211.727998 235.883225 
L 216.507876 235.932685 
L 221.287754 213.452709 
L 226.067633 235.561392 
L 230.847511 223.730643 
L 235.627389 234.153153 
L 240.407268 230.916508 
L 245.187146 233.490796 
L 249.967024 231.479394 
L 254.746903 230.751653 
L 259.526781 229.794084 
L 264.306659 229.148821 
L 269.086538 230.304233 
L 273.866416 234.992564 
L 278.646294 230.105457 
L 283.426173 233.993375 
L 288.206051 228.720981 
L 292.985929 232.344259 
L 297.765808 227.239004 
L 302.545686 231.379782 
L 307.325564 214.372113 
L 312.105442 231.923329 
L 316.885321 225.787455 
L 321.665199 229.77906 
L 326.445077 225.16589 
L 331.224956 226.607383 
L 336.004834 220.951336 
L 340.784712 225.812288 
L 345.564591 221.327051 
L 350.344469 225.143818 
L 355.124347 193.005685 
L 359.904226 219.646265 
L 364.684104 205.336213 
L 369.463982 218.438183 
L 374.243861 213.661054 
L 379.023739 207.670939 
L 383.803617 212.143672 
L 388.583496 209.202896 
L 393.363374 203.411067 
L 398.143252 207.328827 
L 402.923131 202.318348 
L 407.703009 207.994015 
L 412.482887 197.045716 
L 417.262766 208.590166 
L 422.042644 203.017319 
L 426.822522 209.749856 
L 431.602401 204.893285 
L 436.382279 210.034875 
L 441.162157 204.083715 
L 445.942036 209.271281 
L 450.721914 203.790271 
L 455.501792 208.920225 
L 460.281671 201.505014 
L 465.061549 206.613653 
L 469.841427 200.947032 
L 474.621306 202.532937 
L 479.401184 188.879624 
L 484.181062 205.066949 
L 488.960941 197.718856 
L 493.740819 195.656888 
L 498.520697 198.140227 
L 503.300576 202.221326 
L 508.080454 197.389453 
L 512.860332 202.766322 
L 517.640211 163.901076 
L 522.420089 202.743042 
L 527.199967 165.455864 
L 531.979846 201.343752 
L 536.759724 193.431245 
L 541.539602 201.436486 
" clip-path="url(#p5012dd5a12)" style="fill: none; stroke: #1f77b4; stroke-width: 1.2; stroke-linecap: square"/>
    <defs>
     <path id="mce2eada50d" d="M 0 1.25 
C 0.331504 1.25 0.649475 1.118292 0.883883 0.883883 
C 1.118292 0.649475 1.25 0.331504 1.25 0 
C 1.25 -0.331504 1.118292 -0.649475 0.883883 -0.883883 
C 0.649475 -1.118292 0.331504 -1.25 0 -1.25 
C -0.331504 -1.25 -0.649475 -1.118292 -0.883883 -0.883883 
C -1.118292 -0.649475 -1.25 -0.331504 -1.25 0 
C -1.25 0.331504 -1.118292 0.649475 -0.883883 0.883883 
C -0.649475 1.118292 -0.331504 1.25 0 1.25 
z
" style="stroke: #1f77b4"/>
    </defs>
    <g clip-path="url(#p5012dd5a12)">
     <use xlink:href="#mce2eada50d" x="68.331648" y="267.605052" style="fill: #1f77b4; stroke: #1f77b4"/>
     <use xlink:href="#mce2eada50d" x="73.111526" y="252.233752" style="fill: #1f77b4; stroke: #1f77b4"/>
     <use xlink:href="#mce2eada50d" x="77.891404" y="249.575987" style="fill: #1f77b4; stroke: #1f77b4"/>
     <use xlink:href="#mce2eada50d" x="82.671283" y="257.548349" style="fill: #1f77b4; stroke: #1f77b4"/>
     <use xlink:href="#mce2eada50d" x="87.451161" y="256.989849" style="fill: #1f77b4; stroke: #1f77b4"/>
     <use xlink:href="#mce2eada50d" x="92.231039" y="251.497854" style="fill: #1f77b4; stroke: #1f77b4"/>
     <use xlink:href="#mce2eada50d" x="97.010918" y="255.584616" style="fill: #1f77b4; stroke: #1f77b4"/>
     <use xlink:href="#mce2eada50d" x="101.790796" y="257.434644" style="fill: #1f77b4; stroke: #1f77b4"/>
     <use xlink:href="#mce2eada50d" x="106.570674" y="253.522755" style="fill: #1f77b4; stroke: #1f77b4"/>
     <use xlink:href="#mce2eada50d" x="111.350553" y="252.545952" style="fill: #1f77b4; stroke: #1f77b4"/>
     <use xlink:href="#mce2eada50d" x="116.130431" y="250.217452" style="fill: #1f77b4; stroke: #1f77b4"/>
     <use xlink:href="#mce2eada50d" x="120.910309" y="230.947456" style="fill: #1f77b4; stroke: #1f77b4"/>
     <use xlink:href="#mce2eada50d" x="125.690188" y="249.481968" style="fill: #1f77b4; stroke: #1f77b4"/>
     <use xlink:href="#mce2eada50d" x="130.470066" y="251.408228" style="fill: #1f77b4; stroke: #1f77b4"/>
     <use xlink:href="#mce2eada50d" x="135.249944" y="248.339623" style="fill: #1f77b4; stroke: #1f77b4"/>
     <use xlink:href="#mce2eada50d" x="140.029823" y="250.245185" style="fill: #1f77b4; stroke: #1f77b4"/>
     <use xlink:href="#mce2eada50d" x="144.809701" y="235.936486" style="fill: #1f77b4; stroke: #1f77b4"/>
     <use xlink:href="#mce2eada50d" x="149.589579" y="240.162509" style="fill: #1f77b4; stroke: #1f77b4"/>
     <use xlink:href="#mce2eada50d" x="154.369458" y="238.96976" style="fill: #1f77b4; stroke: #1f77b4"/>
     <use xlink:href="#mce2eada50d" x="159.149336" y="212.993338" style="fill: #1f77b4; stroke: #1f77b4"/>
     <use xlink:href="#mce2eada50d" x="163.929214" y="235.908714" style="fill: #1f77b4; stroke: #1f77b4"/>
     <use xlink:href="#mce2eada50d" x="168.709093" y="237.602007" style="fill: #1f77b4; stroke: #1f77b4"/>
     <use xlink:href="#mce2eada50d" x="173.488971" y="235.655092" style="fill: #1f77b4; stroke: #1f77b4"/>
     <use xlink:href="#mce2eada50d" x="178.268849" y="237.077213" style="fill: #1f77b4; stroke: #1f77b4"/>
     <use xlink:href="#mce2eada50d" x="183.048728" y="235.33253" style="fill: #1f77b4; stroke: #1f77b4"/>
     <use xlink:href="#mce2eada50d" x="187.828606" y="236.712998" style="fill: #1f77b4; stroke: #1f77b4"/>
     <use xlink:href="#mce2eada50d" x="192.608484" y="232.147869" style="fill: #1f77b4; stroke: #1f77b4"/>
     <use xlink:href="#mce2eada50d" x="197.388363" y="240.051948" style="fill: #1f77b4; stroke: #1f77b4"/>
     <use xlink:href="#mce2eada50d" x="202.168241" y="224.000843" style="fill: #1f77b4; stroke: #1f77b4"/>
     <use xlink:href="#mce2eada50d" x="206.948119" y="238.725534" style="fill: #1f77b4; stroke: #1f77b4"/>
     <use xlink:href="#mce2eada50d" x="211.727998" y="235.883225" style="fill: #1f77b4; stroke: #1f77b4"/>
     <use xlink:href="#mce2eada50d" x="216.507876" y="235.932685" style="fill: #1f77b4; stroke: #1f77b4"/>
     <use xlink:href="#mce2eada50d" x="221.287754" y="213.452709" style="fill: #1f77b4; stroke: #1f77b4"/>
     <use xlink:href="#mce2eada50d" x="226.067633" y="235.561392" style="fill: #1f77b4; stroke: #1f77b4"/>
     <use xlink:href="#mce2eada50d" x="230.847511" y="223.730643" style="fill: #1f77b4; stroke: #1f77b4"/>
     <use xlink:href="#mce2eada50d" x="235.627389" y="234.153153" style="fill: #1f77b4; stroke: #1f77b4"/>
     <use xlink:href="#mce2eada50d" x="240.407268" y="230.916508" style="fill: #1f77b4; stroke: #1f77b4"/>
     <use xlink:href="#mce2eada50d" x="245.187146" y="233.490796" style="fill: #1f77b4; stroke: #1f77b4"/>
     <use xlink:href="#mce2eada50d" x="249.967024" y="231.479394" style="fill: #1f77b4; stroke: #1f77b4"/>
     <use xlink:href="#mce2eada50d" x="254.746903" y="230.751653" style="fill: #1f77b4; stroke: #1f77b4"/>
     <use xlink:href="#mce2eada50d" x="259.526781" y="229.794084" style="fill: #1f77b4; stroke: #1f77b4"/>
     <use xlink:href="#mce2eada50d" x="264.306659" y="229.148821" style="fill: #1f77b4; stroke: #1f77b4"/>
     <use xlink:href="#mce2eada50d" x="269.086538" y="230.304233" style="fill: #1f77b4; stroke: #1f77b4"/>
     <use xlink:href="#mce2eada50d" x="273.866416" y="234.992564" style="fill: #1f77b4; stroke: #1f77b4"/>
     <use xlink:href="#mce2eada50d" x="278.646294" y="230.105457" style="fill: #1f77b4; stroke: #1f77b4"/>
     <use xlink:href="#mce2eada50d" x="283.426173" y="233.993375" style="fill: #1f77b4; stroke: #1f77b4"/>
     <use xlink:href="#mce2eada50d" x="288.206051" y="228.720981" style="fill: #1f77b4; stroke: #1f77b4"/>
     <use xlink:href="#mce2eada50d" x="292.985929" y="232.344259" style="fill: #1f77b4; stroke: #1f77b4"/>
     <use xlink:href="#mce2eada50d" x="297.765808" y="227.239004" style="fill: #1f77b4; stroke: #1f77b4"/>
     <use xlink:href="#mce2eada50d" x="302.545686" y="231.379782" style="fill: #1f77b4; stroke: #1f77b4"/>
     <use xlink:href="#mce2eada50d" x="307.325564" y="214.372113" style="fill: #1f77b4; stroke: #1f77b4"/>
     <use xlink:href="#mce2eada50d" x="312.105442" y="231.923329" style="fill: #1f77b4; stroke: #1f77b4"/>
     <use xlink:href="#mce2eada50d" x="316.885321" y="225.787455" style="fill: #1f77b4; stroke: #1f77b4"/>
     <use xlink:href="#mce2eada50d" x="321.665199" y="229.77906" style="fill: #1f77b4; stroke: #1f77b4"/>
     <use xlink:href="#mce2eada50d" x="326.445077" y="225.16589" style="fill: #1f77b4; stroke: #1f77b4"/>
     <use xlink:href="#mce2eada50d" x="331.224956" y="226.607383" style="fill: #1f77b4; stroke: #1f77b4"/>
     <use xlink:href="#mce2eada50d" x="336.004834" y="220.951336" style="fill: #1f77b4; stroke: #1f77b4"/>
     <use xlink:href="#mce2eada50d" x="340.784712" y="225.812288" style="fill: #1f77b4; stroke: #1f77b4"/>
     <use xlink:href="#mce2eada50d" x="345.564591" y="221.327051" style="fill: #1f77b4; stroke: #1f77b4"/>
     <use xlink:href="#mce2eada50d" x="350.344469" y="225.143818" style="fill: #1f77b4; stroke: #1f77b4"/>
     <use xlink:href="#mce2eada50d" x="355.124347" y="193.005685" style="fill: #1f77b4; stroke: #1f77b4"/>
     <use xlink:href="#mce2eada50d" x="359.904226" y="219.646265" style="fill: #1f77b4; stroke: #1f77b4"/>
     <use xlink:href="#mce2eada50d" x="364.684104" y="205.336213" style="fill: #1f77b4; stroke: #1f77b4"/>
     <use xlink:href="#mce2eada50d" x="369.463982" y="218.438183" style="fill: #1f77b4; stroke: #1f77b4"/>
     <use xlink:href="#mce2eada50d" x="374.243861" y="213.661054" style="fill: #1f77b4; stroke: #1f77b4"/>
     <use xlink:href="#mce2eada50d" x="379.023739" y="207.670939" style="fill: #1f77b4; stroke: #1f77b4"/>
     <use xlink:href="#mce2eada50d" x="383.803617" y="212.143672" style="fill: #1f77b4; stroke: #1f77b4"/>
     <use xlink:href="#mce2eada50d" x="388.583496" y="209.202896" style="fill: #1f77b4; stroke: #1f77b4"/>
     <use xlink:href="#mce2eada50d" x="393.363374" y="203.411067" style="fill: #1f77b4; stroke: #1f77b4"/>
     <use xlink:href="#mce2eada50d" x="398.143252" y="207.328827" style="fill: #1f77b4; stroke: #1f77b4"/>
     <use xlink:href="#mce2eada50d" x="402.923131" y="202.318348" style="fill: #1f77b4; stroke: #1f77b4"/>
     <use xlink:href="#mce2eada50d" x="407.703009" y="207.994015" style="fill: #1f77b4; stroke: #1f77b4"/>
     <use xlink:href="#mce2eada50d" x="412.482887" y="197.045716" style="fill: #1f77b4; stroke: #1f77b4"/>
     <use xlink:href="#mce2eada50d" x="417.262766" y="208.590166" style="fill: #1f77b4; stroke: #1f77b4"/>
     <use xlink:href="#mce2eada50d" x="422.042644" y="203.017319" style="fill: #1f77b4; stroke: #1f77b4"/>
     <use xlink:href="#mce2eada50d" x="426.822522" y="209.749856" style="fill: #1f77b4; stroke: #1f77b4"/>
     <use xlink:href="#mce2eada50d" x="431.602401" y="204.893285" style="fill: #1f77b4; stroke: #1f77b4"/>
     <use xlink:href="#mce2eada50d" x="436.382279" y="210.034875" style="fill: #1f77b4; stroke: #1f77b4"/>
     <use xlink:href="#mce2eada50d" x="441.162157" y="204.083715" style="fill: #1f77b4; stroke: #1f77b4"/>
     <use xlink:href="#mce2eada50d" x="445.942036" y="209.271281" style="fill: #1f77b4; stroke: #1f77b4"/>
     <use xlink:href="#mce2eada50d" x="450.721914" y="203.790271" style="fill: #1f77b4; stroke: #1f77b4"/>
     <use xlink:href="#mce2eada50d" x="455.501792" y="208.920225" style="fill: #1f77b4; stroke: #1f77b4"/>
     <use xlink:href="#mce2eada50d" x="460.281671" y="201.505014" style="fill: #1f77b4; stroke: #1f77b4"/>
     <use xlink:href="#mce2eada50d" x="465.061549" y="206.613653" style="fill: #1f77b4; stroke: #1f77b4"/>
     <use xlink:href="#mce2eada50d" x="469.841427" y="200.947032" style="fill: #1f77b4; stroke: #1f77b4"/>
     <use xlink:href="#mce2eada50d" x="474.621306" y="202.532937" style="fill: #1f77b4; stroke: #1f77b4"/>
     <use xlink:href="#mce2eada50d" x="479.401184" y="188.879624" style="fill: #1f77b4; stroke: #1f77b4"/>
     <use xlink:href="#mce2eada50d" x="484.181062" y="205.066949" style="fill: #1f77b4; stroke: #1f77b4"/>
     <use xlink:href="#mce2eada50d" x="488.960941" y="197.718856" style="fill: #1f77b4; stroke: #1f77b4"/>
     <use xlink:href="#mce2eada50d" x="493.740819" y="195.656888" style="fill: #1f77b4; stroke: #1f77b4"/>
     <use xlink:href="#mce2eada50d" x="498.520697" y="198.140227" style="fill: #1f77b4; stroke: #1f77b4"/>
     <use xlink:href="#mce2eada50d" x="503.300576" y="202.221326" style="fill: #1f77b4; stroke: #1f77b4"/>
     <use xlink:href="#mce2eada50d" x="508.080454" y="197.389453" style="fill: #1f77b4; stroke: #1f77b4"/>
     <use xlink:href="#mce2eada50d" x="512.860332" y="202.766322" style="fill: #1f77b4; stroke: #1f77b4"/>
     <use xlink:href="#mce2eada50d" x="517.640211" y="163.901076" style="fill: #1f77b4; stroke: #1f77b4"/>
     <use xlink:href="#mce2eada50d" x="522.420089" y="202.743042" style="fill: #1f77b4; stroke: #1f77b4"/>
     <use xlink:href="#mce2eada50d" x="527.199967" y="165.455864" style="fill: #1f77b4; stroke: #1f77b4"/>
     <use xlink:href="#mce2eada50d" x="531.979846" y="201.343752" style="fill: #1f77b4; stroke: #1f77b4"/>
     <use xlink:href="#mce2eada50d" x="536.759724" y="193.431245" style="fill: #1f77b4; stroke: #1f77b4"/>
     <use xlink:href="#mce2eada50d" x="541.539602" y="201.436486" style="fill: #1f77b4; stroke: #1f77b4"/>
    </g>
   </g>
   <g id="line2d_24">
    <path d="M 68.331648 261.854951 
L 73.111526 246.943641 
L 77.891404 244.698245 
L 82.671283 240.155079 
L 87.451161 252.037535 
L 92.231039 252.208263 
L 97.010918 248.050729 
L 101.790796 251.033028 
L 106.570674 248.657136 
L 111.350553 250.528341 
L 116.130431 248.488483 
L 120.910309 248.359584 
L 125.690188 246.011532 
L 130.470066 245.321542 
L 135.249944 242.310576 
L 140.029823 245.295186 
L 144.809701 228.700538 
L 149.589579 232.652385 
L 154.369458 222.780535 
L 159.149336 230.398939 
L 163.929214 230.36191 
L 168.709093 231.886509 
L 173.488971 229.217073 
L 178.268849 231.207503 
L 183.048728 229.621009 
L 187.828606 231.126954 
L 192.608484 232.324263 
L 197.388363 235.000918 
L 202.168241 232.704849 
L 206.948119 233.136485 
L 211.727998 230.383359 
L 216.507876 230.701017 
L 221.287754 227.012151 
L 226.067633 230.108741 
L 230.847511 226.193193 
L 235.627389 229.633372 
L 240.407268 225.352608 
L 245.187146 216.056354 
L 249.967024 226.904633 
L 254.746903 229.848729 
L 259.526781 224.234432 
L 264.306659 229.930344 
L 269.086538 224.354629 
L 273.866416 229.769627 
L 278.646294 225.01222 
L 283.426173 228.583623 
L 288.206051 223.51795 
L 292.985929 226.902212 
L 297.765808 221.848319 
L 302.545686 225.772814 
L 307.325564 222.041255 
L 312.105442 226.112368 
L 316.885321 220.002468 
L 321.665199 224.596022 
L 326.445077 220.131853 
L 331.224956 221.767739 
L 336.004834 211.106702 
L 340.784712 220.598927 
L 345.564591 215.880617 
L 350.344469 220.096832 
L 355.124347 211.580817 
L 359.904226 213.794237 
L 364.684104 207.334662 
L 369.463982 212.24601 
L 374.243861 207.467675 
L 379.023739 212.233582 
L 383.803617 206.126131 
L 388.583496 201.992122 
L 393.363374 182.139176 
L 398.143252 201.794697 
L 402.923131 195.52122 
L 407.703009 201.885708 
L 412.482887 194.44929 
L 417.262766 197.681067 
L 422.042644 197.121491 
L 426.822522 191.060124 
L 431.602401 199.373559 
L 436.382279 174.967748 
L 441.162157 198.9355 
L 445.942036 203.661788 
L 450.721914 197.845331 
L 455.501792 203.489744 
L 460.281671 195.960075 
L 465.061549 201.096311 
L 469.841427 178.324449 
L 474.621306 200.174218 
L 479.401184 193.461298 
L 484.181062 199.32141 
L 488.960941 171.896543 
L 493.740819 196.343116 
L 498.520697 179.273692 
L 503.300576 198.311234 
L 508.080454 181.190176 
L 512.860332 196.724812 
L 517.640211 191.130894 
L 522.420089 196.883101 
L 527.199967 188.109465 
L 531.979846 195.730942 
L 536.759724 188.182965 
L 541.539602 158.581089 
" clip-path="url(#p5012dd5a12)" style="fill: none; stroke: #ff7f0e; stroke-width: 1.2; stroke-linecap: square"/>
    <defs>
     <path id="m54badaba08" d="M 0 1.25 
C 0.331504 1.25 0.649475 1.118292 0.883883 0.883883 
C 1.118292 0.649475 1.25 0.331504 1.25 0 
C 1.25 -0.331504 1.118292 -0.649475 0.883883 -0.883883 
C 0.649475 -1.118292 0.331504 -1.25 0 -1.25 
C -0.331504 -1.25 -0.649475 -1.118292 -0.883883 -0.883883 
C -1.118292 -0.649475 -1.25 -0.331504 -1.25 0 
C -1.25 0.331504 -1.118292 0.649475 -0.883883 0.883883 
C -0.649475 1.118292 -0.331504 1.25 0 1.25 
z
" style="stroke: #ff7f0e"/>
    </defs>
    <g clip-path="url(#p5012dd5a12)">
     <use xlink:href="#m54badaba08" x="68.331648" y="261.854951" style="fill: #ff7f0e; stroke: #ff7f0e"/>
     <use xlink:href="#m54badaba08" x="73.111526" y="246.943641" style="fill: #ff7f0e; stroke: #ff7f0e"/>
     <use xlink:href="#m54badaba08" x="77.891404" y="244.698245" style="fill: #ff7f0e; stroke: #ff7f0e"/>
     <use xlink:href="#m54badaba08" x="82.671283" y="240.155079" style="fill: #ff7f0e; stroke: #ff7f0e"/>
     <use xlink:href="#m54badaba08" x="87.451161" y="252.037535" style="fill: #ff7f0e; stroke: #ff7f0e"/>
     <use xlink:href="#m54badaba08" x="92.231039" y="252.208263" style="fill: #ff7f0e; stroke: #ff7f0e"/>
     <use xlink:href="#m54badaba08" x="97.010918" y="248.050729" style="fill: #ff7f0e; stroke: #ff7f0e"/>
     <use xlink:href="#m54badaba08" x="101.790796" y="251.033028" style="fill: #ff7f0e; stroke: #ff7f0e"/>
     <use xlink:href="#m54badaba08" x="106.570674" y="248.657136" style="fill: #ff7f0e; stroke: #ff7f0e"/>
     <use xlink:href="#m54badaba08" x="111.350553" y="250.528341" style="fill: #ff7f0e; stroke: #ff7f0e"/>
     <use xlink:href="#m54badaba08" x="116.130431" y="248.488483" style="fill: #ff7f0e; stroke: #ff7f0e"/>
     <use xlink:href="#m54badaba08" x="120.910309" y="248.359584" style="fill: #ff7f0e; stroke: #ff7f0e"/>
     <use xlink:href="#m54badaba08" x="125.690188" y="246.011532" style="fill: #ff7f0e; stroke: #ff7f0e"/>
     <use xlink:href="#m54badaba08" x="130.470066" y="245.321542" style="fill: #ff7f0e; stroke: #ff7f0e"/>
     <use xlink:href="#m54badaba08" x="135.249944" y="242.310576" style="fill: #ff7f0e; stroke: #ff7f0e"/>
     <use xlink:href="#m54badaba08" x="140.029823" y="245.295186" style="fill: #ff7f0e; stroke: #ff7f0e"/>
     <use xlink:href="#m54badaba08" x="144.809701" y="228.700538" style="fill: #ff7f0e; stroke: #ff7f0e"/>
     <use xlink:href="#m54badaba08" x="149.589579" y="232.652385" style="fill: #ff7f0e; stroke: #ff7f0e"/>
     <use xlink:href="#m54badaba08" x="154.369458" y="222.780535" style="fill: #ff7f0e; stroke: #ff7f0e"/>
     <use xlink:href="#m54badaba08" x="159.149336" y="230.398939" style="fill: #ff7f0e; stroke: #ff7f0e"/>
     <use xlink:href="#m54badaba08" x="163.929214" y="230.36191" style="fill: #ff7f0e; stroke: #ff7f0e"/>
     <use xlink:href="#m54badaba08" x="168.709093" y="231.886509" style="fill: #ff7f0e; stroke: #ff7f0e"/>
     <use xlink:href="#m54badaba08" x="173.488971" y="229.217073" style="fill: #ff7f0e; stroke: #ff7f0e"/>
     <use xlink:href="#m54badaba08" x="178.268849" y="231.207503" style="fill: #ff7f0e; stroke: #ff7f0e"/>
     <use xlink:href="#m54badaba08" x="183.048728" y="229.621009" style="fill: #ff7f0e; stroke: #ff7f0e"/>
     <use xlink:href="#m54badaba08" x="187.828606" y="231.126954" style="fill: #ff7f0e; stroke: #ff7f0e"/>
     <use xlink:href="#m54badaba08" x="192.608484" y="232.324263" style="fill: #ff7f0e; stroke: #ff7f0e"/>
     <use xlink:href="#m54badaba08" x="197.388363" y="235.000918" style="fill: #ff7f0e; stroke: #ff7f0e"/>
     <use xlink:href="#m54badaba08" x="202.168241" y="232.704849" style="fill: #ff7f0e; stroke: #ff7f0e"/>
     <use xlink:href="#m54badaba08" x="206.948119" y="233.136485" style="fill: #ff7f0e; stroke: #ff7f0e"/>
     <use xlink:href="#m54badaba08" x="211.727998" y="230.383359" style="fill: #ff7f0e; stroke: #ff7f0e"/>
     <use xlink:href="#m54badaba08" x="216.507876" y="230.701017" style="fill: #ff7f0e; stroke: #ff7f0e"/>
     <use xlink:href="#m54badaba08" x="221.287754" y="227.012151" style="fill: #ff7f0e; stroke: #ff7f0e"/>
     <use xlink:href="#m54badaba08" x="226.067633" y="230.108741" style="fill: #ff7f0e; stroke: #ff7f0e"/>
     <use xlink:href="#m54badaba08" x="230.847511" y="226.193193" style="fill: #ff7f0e; stroke: #ff7f0e"/>
     <use xlink:href="#m54badaba08" x="235.627389" y="229.633372" style="fill: #ff7f0e; stroke: #ff7f0e"/>
     <use xlink:href="#m54badaba08" x="240.407268" y="225.352608" style="fill: #ff7f0e; stroke: #ff7f0e"/>
     <use xlink:href="#m54badaba08" x="245.187146" y="216.056354" style="fill: #ff7f0e; stroke: #ff7f0e"/>
     <use xlink:href="#m54badaba08" x="249.967024" y="226.904633" style="fill: #ff7f0e; stroke: #ff7f0e"/>
     <use xlink:href="#m54badaba08" x="254.746903" y="229.848729" style="fill: #ff7f0e; stroke: #ff7f0e"/>
     <use xlink:href="#m54badaba08" x="259.526781" y="224.234432" style="fill: #ff7f0e; stroke: #ff7f0e"/>
     <use xlink:href="#m54badaba08" x="264.306659" y="229.930344" style="fill: #ff7f0e; stroke: #ff7f0e"/>
     <use xlink:href="#m54badaba08" x="269.086538" y="224.354629" style="fill: #ff7f0e; stroke: #ff7f0e"/>
     <use xlink:href="#m54badaba08" x="273.866416" y="229.769627" style="fill: #ff7f0e; stroke: #ff7f0e"/>
     <use xlink:href="#m54badaba08" x="278.646294" y="225.01222" style="fill: #ff7f0e; stroke: #ff7f0e"/>
     <use xlink:href="#m54badaba08" x="283.426173" y="228.583623" style="fill: #ff7f0e; stroke: #ff7f0e"/>
     <use xlink:href="#m54badaba08" x="288.206051" y="223.51795" style="fill: #ff7f0e; stroke: #ff7f0e"/>
     <use xlink:href="#m54badaba08" x="292.985929" y="226.902212" style="fill: #ff7f0e; stroke: #ff7f0e"/>
     <use xlink:href="#m54badaba08" x="297.765808" y="221.848319" style="fill: #ff7f0e; stroke: #ff7f0e"/>
     <use xlink:href="#m54badaba08" x="302.545686" y="225.772814" style="fill: #ff7f0e; stroke: #ff7f0e"/>
     <use xlink:href="#m54badaba08" x="307.325564" y="222.041255" style="fill: #ff7f0e; stroke: #ff7f0e"/>
     <use xlink:href="#m54badaba08" x="312.105442" y="226.112368" style="fill: #ff7f0e; stroke: #ff7f0e"/>
     <use xlink:href="#m54badaba08" x="316.885321" y="220.002468" style="fill: #ff7f0e; stroke: #ff7f0e"/>
     <use xlink:href="#m54badaba08" x="321.665199" y="224.596022" style="fill: #ff7f0e; stroke: #ff7f0e"/>
     <use xlink:href="#m54badaba08" x="326.445077" y="220.131853" style="fill: #ff7f0e; stroke: #ff7f0e"/>
     <use xlink:href="#m54badaba08" x="331.224956" y="221.767739" style="fill: #ff7f0e; stroke: #ff7f0e"/>
     <use xlink:href="#m54badaba08" x="336.004834" y="211.106702" style="fill: #ff7f0e; stroke: #ff7f0e"/>
     <use xlink:href="#m54badaba08" x="340.784712" y="220.598927" style="fill: #ff7f0e; stroke: #ff7f0e"/>
     <use xlink:href="#m54badaba08" x="345.564591" y="215.880617" style="fill: #ff7f0e; stroke: #ff7f0e"/>
     <use xlink:href="#m54badaba08" x="350.344469" y="220.096832" style="fill: #ff7f0e; stroke: #ff7f0e"/>
     <use xlink:href="#m54badaba08" x="355.124347" y="211.580817" style="fill: #ff7f0e; stroke: #ff7f0e"/>
     <use xlink:href="#m54badaba08" x="359.904226" y="213.794237" style="fill: #ff7f0e; stroke: #ff7f0e"/>
     <use xlink:href="#m54badaba08" x="364.684104" y="207.334662" style="fill: #ff7f0e; stroke: #ff7f0e"/>
     <use xlink:href="#m54badaba08" x="369.463982" y="212.24601" style="fill: #ff7f0e; stroke: #ff7f0e"/>
     <use xlink:href="#m54badaba08" x="374.243861" y="207.467675" style="fill: #ff7f0e; stroke: #ff7f0e"/>
     <use xlink:href="#m54badaba08" x="379.023739" y="212.233582" style="fill: #ff7f0e; stroke: #ff7f0e"/>
     <use xlink:href="#m54badaba08" x="383.803617" y="206.126131" style="fill: #ff7f0e; stroke: #ff7f0e"/>
     <use xlink:href="#m54badaba08" x="388.583496" y="201.992122" style="fill: #ff7f0e; stroke: #ff7f0e"/>
     <use xlink:href="#m54badaba08" x="393.363374" y="182.139176" style="fill: #ff7f0e; stroke: #ff7f0e"/>
     <use xlink:href="#m54badaba08" x="398.143252" y="201.794697" style="fill: #ff7f0e; stroke: #ff7f0e"/>
     <use xlink:href="#m54badaba08" x="402.923131" y="195.52122" style="fill: #ff7f0e; stroke: #ff7f0e"/>
     <use xlink:href="#m54badaba08" x="407.703009" y="201.885708" style="fill: #ff7f0e; stroke: #ff7f0e"/>
     <use xlink:href="#m54badaba08" x="412.482887" y="194.44929" style="fill: #ff7f0e; stroke: #ff7f0e"/>
     <use xlink:href="#m54badaba08" x="417.262766" y="197.681067" style="fill: #ff7f0e; stroke: #ff7f0e"/>
     <use xlink:href="#m54badaba08" x="422.042644" y="197.121491" style="fill: #ff7f0e; stroke: #ff7f0e"/>
     <use xlink:href="#m54badaba08" x="426.822522" y="191.060124" style="fill: #ff7f0e; stroke: #ff7f0e"/>
     <use xlink:href="#m54badaba08" x="431.602401" y="199.373559" style="fill: #ff7f0e; stroke: #ff7f0e"/>
     <use xlink:href="#m54badaba08" x="436.382279" y="174.967748" style="fill: #ff7f0e; stroke: #ff7f0e"/>
     <use xlink:href="#m54badaba08" x="441.162157" y="198.9355" style="fill: #ff7f0e; stroke: #ff7f0e"/>
     <use xlink:href="#m54badaba08" x="445.942036" y="203.661788" style="fill: #ff7f0e; stroke: #ff7f0e"/>
     <use xlink:href="#m54badaba08" x="450.721914" y="197.845331" style="fill: #ff7f0e; stroke: #ff7f0e"/>
     <use xlink:href="#m54badaba08" x="455.501792" y="203.489744" style="fill: #ff7f0e; stroke: #ff7f0e"/>
     <use xlink:href="#m54badaba08" x="460.281671" y="195.960075" style="fill: #ff7f0e; stroke: #ff7f0e"/>
     <use xlink:href="#m54badaba08" x="465.061549" y="201.096311" style="fill: #ff7f0e; stroke: #ff7f0e"/>
     <use xlink:href="#m54badaba08" x="469.841427" y="178.324449" style="fill: #ff7f0e; stroke: #ff7f0e"/>
     <use xlink:href="#m54badaba08" x="474.621306" y="200.174218" style="fill: #ff7f0e; stroke: #ff7f0e"/>
     <use xlink:href="#m54badaba08" x="479.401184" y="193.461298" style="fill: #ff7f0e; stroke: #ff7f0e"/>
     <use xlink:href="#m54badaba08" x="484.181062" y="199.32141" style="fill: #ff7f0e; stroke: #ff7f0e"/>
     <use xlink:href="#m54badaba08" x="488.960941" y="171.896543" style="fill: #ff7f0e; stroke: #ff7f0e"/>
     <use xlink:href="#m54badaba08" x="493.740819" y="196.343116" style="fill: #ff7f0e; stroke: #ff7f0e"/>
     <use xlink:href="#m54badaba08" x="498.520697" y="179.273692" style="fill: #ff7f0e; stroke: #ff7f0e"/>
     <use xlink:href="#m54badaba08" x="503.300576" y="198.311234" style="fill: #ff7f0e; stroke: #ff7f0e"/>
     <use xlink:href="#m54badaba08" x="508.080454" y="181.190176" style="fill: #ff7f0e; stroke: #ff7f0e"/>
     <use xlink:href="#m54badaba08" x="512.860332" y="196.724812" style="fill: #ff7f0e; stroke: #ff7f0e"/>
     <use xlink:href="#m54badaba08" x="517.640211" y="191.130894" style="fill: #ff7f0e; stroke: #ff7f0e"/>
     <use xlink:href="#m54badaba08" x="522.420089" y="196.883101" style="fill: #ff7f0e; stroke: #ff7f0e"/>
     <use xlink:href="#m54badaba08" x="527.199967" y="188.109465" style="fill: #ff7f0e; stroke: #ff7f0e"/>
     <use xlink:href="#m54badaba08" x="531.979846" y="195.730942" style="fill: #ff7f0e; stroke: #ff7f0e"/>
     <use xlink:href="#m54badaba08" x="536.759724" y="188.182965" style="fill: #ff7f0e; stroke: #ff7f0e"/>
     <use xlink:href="#m54badaba08" x="541.539602" y="158.581089" style="fill: #ff7f0e; stroke: #ff7f0e"/>
    </g>
   </g>
   <g id="patch_3">
    <path d="M 44.67125 318.04 
L 44.67125 26.88 
" style="fill: none; stroke: #000000; stroke-width: 0.8; stroke-linejoin: miter; stroke-linecap: square"/>
   </g>
   <g id="patch_4">
    <path d="M 565.2 318.04 
L 565.2 26.88 
" style="fill: none; stroke: #000000; stroke-width: 0.8; stroke-linejoin: miter; stroke-linecap: square"/>
   </g>
   <g id="patch_5">
    <path d="M 44.67125 318.04 
L 565.2 318.04 
" style="fill: none; stroke: #000000; stroke-width: 0.8; stroke-linejoin: miter; stroke-linecap: square"/>
   </g>
   <g id="patch_6">
    <path d="M 44.67125 26.88 
L 565.2 26.88 
" style="fill: none; stroke: #000000; stroke-width: 0.8; stroke-linejoin: miter; stroke-linecap: square"/>
   </g>
   <g id="text_14">
    <!-- Verification latency vs draft length, context_len=1024 -->
    <g transform="translate(142.553125 20.88) scale(0.12 -0.12)">
     <defs>
      <path id="DejaVuSans-56" d="M 1831 0 
L 50 4666 
L 709 4666 
L 2188 738 
L 3669 4666 
L 4325 4666 
L 2547 0 
L 1831 0 
z
" transform="scale(0.015625)"/>
      <path id="DejaVuSans-69" d="M 603 3500 
L 1178 3500 
L 1178 0 
L 603 0 
L 603 3500 
z
M 603 4863 
L 1178 4863 
L 1178 4134 
L 603 4134 
L 603 4863 
z
" transform="scale(0.015625)"/>
      <path id="DejaVuSans-6f" d="M 1959 3097 
Q 1497 3097 1228 2736 
Q 959 2375 959 1747 
Q 959 1119 1226 758 
Q 1494 397 1959 397 
Q 2419 397 2687 759 
Q 2956 1122 2956 1747 
Q 2956 2369 2687 2733 
Q 2419 3097 1959 3097 
z
M 1959 3584 
Q 2709 3584 3137 3096 
Q 3566 2609 3566 1747 
Q 3566 888 3137 398 
Q 2709 -91 1959 -91 
Q 1206 -91 779 398 
Q 353 888 353 1747 
Q 353 2609 779 3096 
Q 1206 3584 1959 3584 
z
" transform="scale(0.015625)"/>
      <path id="DejaVuSans-79" d="M 2059 -325 
Q 1816 -950 1584 -1140 
Q 1353 -1331 966 -1331 
L 506 -1331 
L 506 -850 
L 844 -850 
Q 1081 -850 1212 -737 
Q 1344 -625 1503 -206 
L 1606 56 
L 191 3500 
L 800 3500 
L 1894 763 
L 2988 3500 
L 3597 3500 
L 2059 -325 
z
" transform="scale(0.015625)"/>
      <path id="DejaVuSans-76" d="M 191 3500 
L 800 3500 
L 1894 563 
L 2988 3500 
L 3597 3500 
L 2284 0 
L 1503 0 
L 191 3500 
z
" transform="scale(0.015625)"/>
      <path id="DejaVuSans-2c" d="M 750 794 
L 1409 794 
L 1409 256 
L 897 -744 
L 494 -744 
L 750 256 
L 750 794 
z
" transform="scale(0.015625)"/>
      <path id="DejaVuSans-78" d="M 3513 3500 
L 2247 1797 
L 3578 0 
L 2900 0 
L 1881 1375 
L 863 0 
L 184 0 
L 1544 1831 
L 300 3500 
L 978 3500 
L 1906 2253 
L 2834 3500 
L 3513 3500 
z
" transform="scale(0.015625)"/>
      <path id="DejaVuSans-3d" d="M 678 2906 
L 4684 2906 
L 4684 2381 
L 678 2381 
L 678 2906 
z
M 678 1631 
L 4684 1631 
L 4684 1100 
L 678 1100 
L 678 1631 
z
" transform="scale(0.015625)"/>
     </defs>
     <use xlink:href="#DejaVuSans-56"/>
     <use xlink:href="#DejaVuSans-65" transform="translate(60.658203 0)"/>
     <use xlink:href="#DejaVuSans-72" transform="translate(122.181641 0)"/>
     <use xlink:href="#DejaVuSans-69" transform="translate(163.294922 0)"/>
     <use xlink:href="#DejaVuSans-66" transform="translate(191.078125 0)"/>
     <use xlink:href="#DejaVuSans-69" transform="translate(226.283203 0)"/>
     <use xlink:href="#DejaVuSans-63" transform="translate(254.066406 0)"/>
     <use xlink:href="#DejaVuSans-61" transform="translate(309.046875 0)"/>
     <use xlink:href="#DejaVuSans-74" transform="translate(370.326172 0)"/>
     <use xlink:href="#DejaVuSans-69" transform="translate(409.535156 0)"/>
     <use xlink:href="#DejaVuSans-6f" transform="translate(437.318359 0)"/>
     <use xlink:href="#DejaVuSans-6e" transform="translate(498.5 0)"/>
     <use xlink:href="#DejaVuSans-20" transform="translate(561.878906 0)"/>
     <use xlink:href="#DejaVuSans-6c" transform="translate(593.666016 0)"/>
     <use xlink:href="#DejaVuSans-61" transform="translate(621.449219 0)"/>
     <use xlink:href="#DejaVuSans-74" transform="translate(682.728516 0)"/>
     <use xlink:href="#DejaVuSans-65" transform="translate(721.9375 0)"/>
     <use xlink:href="#DejaVuSans-6e" transform="translate(783.460938 0)"/>
     <use xlink:href="#DejaVuSans-63" transform="translate(846.839844 0)"/>
     <use xlink:href="#DejaVuSans-79" transform="translate(901.820312 0)"/>
     <use xlink:href="#DejaVuSans-20" transform="translate(961 0)"/>
     <use xlink:href="#DejaVuSans-76" transform="translate(992.787109 0)"/>
     <use xlink:href="#DejaVuSans-73" transform="translate(1051.966797 0)"/>
     <use xlink:href="#DejaVuSans-20" transform="translate(1104.066406 0)"/>
     <use xlink:href="#DejaVuSans-64" transform="translate(1135.853516 0)"/>
     <use xlink:href="#DejaVuSans-72" transform="translate(1199.330078 0)"/>
     <use xlink:href="#DejaVuSans-61" transform="translate(1240.443359 0)"/>
     <use xlink:href="#DejaVuSans-66" transform="translate(1301.722656 0)"/>
     <use xlink:href="#DejaVuSans-74" transform="translate(1335.177734 0)"/>
     <use xlink:href="#DejaVuSans-20" transform="translate(1374.386719 0)"/>
     <use xlink:href="#DejaVuSans-6c" transform="translate(1406.173828 0)"/>
     <use xlink:href="#DejaVuSans-65" transform="translate(1433.957031 0)"/>
     <use xlink:href="#DejaVuSans-6e" transform="translate(1495.480469 0)"/>
     <use xlink:href="#DejaVuSans-67" transform="translate(1558.859375 0)"/>
     <use xlink:href="#DejaVuSans-74" transform="translate(1622.335938 0)"/>
     <use xlink:href="#DejaVuSans-68" transform="translate(1661.544922 0)"/>
     <use xlink:href="#DejaVuSans-2c" transform="translate(1724.923828 0)"/>
     <use xlink:href="#DejaVuSans-20" transform="translate(1756.710938 0)"/>
     <use xlink:href="#DejaVuSans-63" transform="translate(1788.498047 0)"/>
     <use xlink:href="#DejaVuSans-6f" transform="translate(1843.478516 0)"/>
     <use xlink:href="#DejaVuSans-6e" transform="translate(1904.660156 0)"/>
     <use xlink:href="#DejaVuSans-74" transform="translate(1968.039062 0)"/>
     <use xlink:href="#DejaVuSans-65" transform="translate(2007.248047 0)"/>
     <use xlink:href="#DejaVuSans-78" transform="translate(2067.021484 0)"/>
     <use xlink:href="#DejaVuSans-74" transform="translate(2126.201172 0)"/>
     <use xlink:href="#DejaVuSans-5f" transform="translate(2165.410156 0)"/>
     <use xlink:href="#DejaVuSans-6c" transform="translate(2215.410156 0)"/>
     <use xlink:href="#DejaVuSans-65" transform="translate(2243.193359 0)"/>
     <use xlink:href="#DejaVuSans-6e" transform="translate(2304.716797 0)"/>
     <use xlink:href="#DejaVuSans-3d" transform="translate(2368.095703 0)"/>
     <use xlink:href="#DejaVuSans-31" transform="translate(2451.884766 0)"/>
     <use xlink:href="#DejaVuSans-30" transform="translate(2515.507812 0)"/>
     <use xlink:href="#DejaVuSans-32" transform="translate(2579.130859 0)"/>
     <use xlink:href="#DejaVuSans-34" transform="translate(2642.753906 0)"/>
    </g>
   </g>
   <g id="legend_1">
    <g id="patch_7">
     <path d="M 51.67125 64.7925 
L 195.649375 64.7925 
Q 197.649375 64.7925 197.649375 62.7925 
L 197.649375 33.88 
Q 197.649375 31.88 195.649375 31.88 
L 51.67125 31.88 
Q 49.67125 31.88 49.67125 33.88 
L 49.67125 62.7925 
Q 49.67125 64.7925 51.67125 64.7925 
z
" style="fill: #ffffff; opacity: 0.8; stroke: #cccccc; stroke-linejoin: miter"/>
    </g>
    <g id="line2d_25">
     <path d="M 53.67125 39.978437 
L 63.67125 39.978437 
L 73.67125 39.978437 
" style="fill: none; stroke: #1f77b4; stroke-width: 1.2; stroke-linecap: square"/>
     <g>
      <use xlink:href="#mce2eada50d" x="63.67125" y="39.978437" style="fill: #1f77b4; stroke: #1f77b4"/>
     </g>
    </g>
    <g id="text_15">
     <!-- target_only -->
     <g transform="translate(81.67125 43.478437) scale(0.1 -0.1)">
      <use xlink:href="#DejaVuSans-74"/>
      <use xlink:href="#DejaVuSans-61" transform="translate(39.208984 0)"/>
      <use xlink:href="#DejaVuSans-72" transform="translate(100.488281 0)"/>
      <use xlink:href="#DejaVuSans-67" transform="translate(139.851562 0)"/>
      <use xlink:href="#DejaVuSans-65" transform="translate(203.328125 0)"/>
      <use xlink:href="#DejaVuSans-74" transform="translate(264.851562 0)"/>
      <use xlink:href="#DejaVuSans-5f" transform="translate(304.060547 0)"/>
      <use xlink:href="#DejaVuSans-6f" transform="translate(354.060547 0)"/>
      <use xlink:href="#DejaVuSans-6e" transform="translate(415.242188 0)"/>
      <use xlink:href="#DejaVuSans-6c" transform="translate(478.621094 0)"/>
      <use xlink:href="#DejaVuSans-79" transform="translate(506.404297 0)"/>
     </g>
    </g>
    <g id="line2d_26">
     <path d="M 53.67125 54.934687 
L 63.67125 54.934687 
L 73.67125 54.934687 
" style="fill: none; stroke: #ff7f0e; stroke-width: 1.2; stroke-linecap: square"/>
     <g>
      <use xlink:href="#m54badaba08" x="63.67125" y="54.934687" style="fill: #ff7f0e; stroke: #ff7f0e"/>
     </g>
    </g>
    <g id="text_16">
     <!-- classic_spec_sampling -->
     <g transform="translate(81.67125 58.434687) scale(0.1 -0.1)">
      <defs>
       <path id="DejaVuSans-70" d="M 1159 525 
L 1159 -1331 
L 581 -1331 
L 581 3500 
L 1159 3500 
L 1159 2969 
Q 1341 3281 1617 3432 
Q 1894 3584 2278 3584 
Q 2916 3584 3314 3078 
Q 3713 2572 3713 1747 
Q 3713 922 3314 415 
Q 2916 -91 2278 -91 
Q 1894 -91 1617 61 
Q 1341 213 1159 525 
z
M 3116 1747 
Q 3116 2381 2855 2742 
Q 2594 3103 2138 3103 
Q 1681 3103 1420 2742 
Q 1159 2381 1159 1747 
Q 1159 1113 1420 752 
Q 1681 391 2138 391 
Q 2594 391 2855 752 
Q 3116 1113 3116 1747 
z
" transform="scale(0.015625)"/>
      </defs>
      <use xlink:href="#DejaVuSans-63"/>
      <use xlink:href="#DejaVuSans-6c" transform="translate(54.980469 0)"/>
      <use xlink:href="#DejaVuSans-61" transform="translate(82.763672 0)"/>
      <use xlink:href="#DejaVuSans-73" transform="translate(144.042969 0)"/>
      <use xlink:href="#DejaVuSans-73" transform="translate(196.142578 0)"/>
      <use xlink:href="#DejaVuSans-69" transform="translate(248.242188 0)"/>
      <use xlink:href="#DejaVuSans-63" transform="translate(276.025391 0)"/>
      <use xlink:href="#DejaVuSans-5f" transform="translate(331.005859 0)"/>
      <use xlink:href="#DejaVuSans-73" transform="translate(381.005859 0)"/>
      <use xlink:href="#DejaVuSans-70" transform="translate(433.105469 0)"/>
      <use xlink:href="#DejaVuSans-65" transform="translate(496.582031 0)"/>
      <use xlink:href="#DejaVuSans-63" transform="translate(558.105469 0)"/>
      <use xlink:href="#DejaVuSans-5f" transform="translate(613.085938 0)"/>
      <use xlink:href="#DejaVuSans-73" transform="translate(663.085938 0)"/>
      <use xlink:href="#DejaVuSans-61" transform="translate(715.185547 0)"/>
      <use xlink:href="#DejaVuSans-6d" transform="translate(776.464844 0)"/>
      <use xlink:href="#DejaVuSans-70" transform="translate(873.876953 0)"/>
      <use xlink:href="#DejaVuSans-6c" transform="translate(937.353516 0)"/>
      <use xlink:href="#DejaVuSans-69" transform="translate(965.136719 0)"/>
      <use xlink:href="#DejaVuSans-6e" transform="translate(992.919922 0)"/>
      <use xlink:href="#DejaVuSans-67" transform="translate(1056.298828 0)"/>
     </g>
    </g>
   </g>
  </g>
 </g>
 <defs>
  <clipPath id="p5012dd5a12">
   <rect x="44.67125" y="26.88" width="520.52875" height="291.16"/>
  </clipPath>
 </defs>
</svg>
