<?xml version="1.0" encoding="utf-8" standalone="no"?>
<!DOCTYPE svg PUBLIC "-//W3C//DTD SVG 1.1//EN"
  "http://www.w3.org/Graphics/SVG/1.1/DTD/svg11.dtd">
<svg xmlns:xlink="http://www.w3.org/1999/xlink" width="576pt" height="360pt" viewBox="0 0 576 360" xmlns="http://www.w3.org/2000/svg" version="1.1">
 <metadata>
  <rdf:RDF xmlns:dc="http://purl.org/dc/elements/1.1/" xmlns:cc="http://creativecommons.org/ns#" xmlns:rdf="http://www.w3.org/1999/02/22-rdf-syntax-ns#">
   <cc:Work>
    <dc:type rdf:resource="http://purl.org/dc/dcmitype/StillImage"/>
    <dc:date>2026-05-18T00:00:01.848381</dc:date>
    <dc:format>image/svg+xml</dc:format>
    <dc:creator>
     <cc:Agent>
      <dc:title>Matplotlib v3.10.9, https://matplotlib.org/</dc:title>
     </cc:Agent>
    </dc:creator>
   </cc:Work>
  </rdf:RDF>
 </metadata>
 <defs>
  <style type="text/css">*{stroke-linejoin: round; stroke-linecap: butt}</style>
 </defs>
 <g id="figure_1">
  <g id="patch_1">
   <path d="M 0 360 
L 576 360 
L 576 0 
L 0 0 
z
" style="fill: #ffffff"/>
  </g>
  <g id="axes_1">
   <g id="patch_2">
    <path d="M 44.67125 318.04 
L 565.2 318.04 
L 565.2 26.88 
L 44.67125 26.88 
z
" style="fill: #ffffff"/>
   </g>
   <g id="FillBetweenPolyCollection_1">
    <path d="M 68.331648 236.258915 
L 68.331648 245.342555 
L 73.111526 229.300916 
L 77.891404 241.964139 
L 82.671283 232.106947 
L 87.451161 228.064408 
L 92.231039 224.944038 
L 97.010918 223.964026 
L 101.790796 224.482834 
L 106.570674 225.18389 
L 111.350553 232.543026 
L 116.130431 252.603887 
L 120.910309 228.122056 
L 125.690188 236.294387 
L 130.470066 236.24564 
L 135.249944 237.872465 
L 140.029823 239.212098 
L 144.809701 228.287892 
L 149.589579 238.61947 
L 154.369458 226.589099 
L 159.149336 227.947368 
L 163.929214 227.37238 
L 168.709093 237.170534 
L 173.488971 225.178531 
L 178.268849 241.856445 
L 183.048728 224.562923 
L 187.828606 225.013813 
L 192.608484 224.477507 
L 197.388363 224.973889 
L 202.168241 237.420074 
L 206.948119 223.635566 
L 211.727998 244.554427 
L 216.507876 224.677494 
L 221.287754 274.981525 
L 226.067633 224.232579 
L 230.847511 224.760253 
L 235.627389 224.365652 
L 240.407268 221.412683 
L 245.187146 223.87522 
L 249.967024 221.384239 
L 254.746903 224.614271 
L 259.526781 223.845681 
L 264.306659 229.415717 
L 269.086538 223.860695 
L 273.866416 225.09576 
L 278.646294 221.947036 
L 283.426173 226.224695 
L 288.206051 236.245516 
L 292.985929 236.828072 
L 297.765808 219.02297 
L 302.545686 240.897104 
L 307.325564 224.620797 
L 312.105442 218.989558 
L 316.885321 239.934709 
L 321.665199 218.387436 
L 326.445077 222.271422 
L 331.224956 212.088061 
L 336.004834 252.94295 
L 340.784712 212.708569 
L 345.564591 225.455099 
L 350.344469 212.283041 
L 355.124347 249.266373 
L 359.904226 209.570129 
L 364.684104 207.822647 
L 369.463982 210.862925 
L 374.243861 213.363025 
L 379.023739 213.627029 
L 383.803617 210.434302 
L 388.583496 205.09938 
L 393.363374 210.617068 
L 398.143252 204.505266 
L 402.923131 207.111029 
L 407.703009 203.981991 
L 412.482887 217.402876 
L 417.262766 203.90485 
L 422.042644 199.605863 
L 426.822522 203.071388 
L 431.602401 198.477176 
L 436.382279 202.046344 
L 441.162157 198.505482 
L 445.942036 203.820146 
L 450.721914 198.845891 
L 455.501792 199.831742 
L 460.281671 195.389823 
L 465.061549 200.568313 
L 469.841427 203.839183 
L 474.621306 202.444196 
L 479.401184 196.120395 
L 484.181062 209.042157 
L 488.960941 227.589347 
L 493.740819 202.903784 
L 498.520697 194.461528 
L 503.300576 207.786312 
L 508.080454 194.492399 
L 512.860332 197.442394 
L 517.640211 193.791587 
L 522.420089 197.978259 
L 527.199967 192.053267 
L 531.979846 196.017242 
L 536.759724 191.592544 
L 541.539602 217.443558 
L 541.539602 153.052899 
L 541.539602 153.052899 
L 536.759724 189.741994 
L 531.979846 194.456736 
L 527.199967 189.934199 
L 522.420089 196.797152 
L 517.640211 192.21092 
L 512.860332 196.498373 
L 508.080454 191.545493 
L 503.300576 178.174584 
L 498.520697 192.58216 
L 493.740819 188.054344 
L 488.960941 130.724232 
L 484.181062 178.303193 
L 479.401184 195.420886 
L 474.621306 194.090463 
L 469.841427 179.624705 
L 465.061549 199.062533 
L 460.281671 192.106418 
L 455.501792 198.347618 
L 450.721914 195.390366 
L 445.942036 202.046667 
L 441.162157 197.077526 
L 436.382279 200.935917 
L 431.602401 196.747644 
L 426.822522 202.064746 
L 422.042644 198.027207 
L 417.262766 202.855951 
L 412.482887 163.565064 
L 407.703009 203.056371 
L 402.923131 183.992885 
L 398.143252 203.070704 
L 393.363374 180.701851 
L 388.583496 203.956594 
L 383.803617 209.375473 
L 379.023739 210.957423 
L 374.243861 195.909425 
L 369.463982 208.779556 
L 364.684104 205.564675 
L 359.904226 207.360126 
L 355.124347 126.873788 
L 350.344469 210.965153 
L 345.564591 174.346197 
L 340.784712 210.368971 
L 336.004834 123.281639 
L 331.224956 209.471291 
L 326.445077 194.184707 
L 321.665199 211.303734 
L 316.885321 163.226959 
L 312.105442 216.547781 
L 307.325564 198.128172 
L 302.545686 176.611684 
L 297.765808 217.746378 
L 292.985929 194.756226 
L 288.206051 190.629057 
L 283.426173 217.949017 
L 278.646294 220.938767 
L 273.866416 224.053461 
L 269.086538 219.548072 
L 264.306659 210.933635 
L 259.526781 214.943597 
L 254.746903 223.323269 
L 249.967024 219.896711 
L 245.187146 221.968339 
L 240.407268 219.819587 
L 235.627389 222.936825 
L 230.847511 215.8586 
L 226.067633 223.040263 
L 221.287754 104.894659 
L 216.507876 223.208899 
L 211.727998 180.441524 
L 206.948119 222.244989 
L 202.168241 198.195454 
L 197.388363 223.143552 
L 192.608484 223.170347 
L 187.828606 223.835012 
L 183.048728 223.603343 
L 178.268849 193.596271 
L 173.488971 222.418672 
L 168.709093 201.440381 
L 163.929214 224.753801 
L 159.149336 226.898379 
L 154.369458 225.244668 
L 149.589579 191.07654 
L 144.809701 225.213351 
L 140.029823 232.430004 
L 135.249944 235.766719 
L 130.470066 224.802582 
L 125.690188 223.719039 
L 120.910309 223.043029 
L 116.130431 169.4668 
L 111.350553 197.008247 
L 106.570674 212.474895 
L 101.790796 220.236745 
L 97.010918 219.736733 
L 92.231039 219.372652 
L 87.451161 222.033027 
L 82.671283 222.836886 
L 77.891404 170.9068 
L 73.111526 214.782071 
L 68.331648 236.258915 
z
" clip-path="url(#p71b072b5c5)" style="fill: #1f77b4; fill-opacity: 0.15"/>
   </g>
   <g id="FillBetweenPolyCollection_2">
    <path d="M 68.331648 186.178107 
L 68.331648 260.034997 
L 73.111526 222.633031 
L 77.891404 221.512192 
L 82.671283 232.162103 
L 87.451161 222.362158 
L 92.231039 217.400188 
L 97.010918 304.805455 
L 101.790796 216.362387 
L 106.570674 215.149052 
L 111.350553 216.099276 
L 116.130431 224.975787 
L 120.910309 226.816317 
L 125.690188 229.654344 
L 130.470066 232.226516 
L 135.249944 233.185346 
L 140.029823 265.143902 
L 144.809701 223.430161 
L 149.589579 227.259766 
L 154.369458 221.585417 
L 159.149336 272.031023 
L 163.929214 221.55289 
L 168.709093 220.805712 
L 173.488971 232.046012 
L 178.268849 221.452696 
L 183.048728 221.778157 
L 187.828606 219.8718 
L 192.608484 249.079232 
L 197.388363 219.679547 
L 202.168241 242.381941 
L 206.948119 218.320048 
L 211.727998 249.269336 
L 216.507876 219.508473 
L 221.287754 216.716933 
L 226.067633 218.813794 
L 230.847511 216.983378 
L 235.627389 219.040858 
L 240.407268 216.269787 
L 245.187146 218.305372 
L 249.967024 263.396348 
L 254.746903 228.225848 
L 259.526781 216.08478 
L 264.306659 218.132461 
L 269.086538 235.885116 
L 273.866416 220.261109 
L 278.646294 231.832315 
L 283.426173 224.227639 
L 288.206051 231.78034 
L 292.985929 217.958074 
L 297.765808 220.68864 
L 302.545686 214.60799 
L 307.325564 211.101666 
L 312.105442 217.402468 
L 316.885321 208.517779 
L 321.665199 212.437258 
L 326.445077 207.641881 
L 331.224956 205.410887 
L 336.004834 203.049042 
L 340.784712 207.934923 
L 345.564591 209.74293 
L 350.344469 224.646197 
L 355.124347 217.606828 
L 359.904226 208.996988 
L 364.684104 211.685822 
L 369.463982 238.263159 
L 374.243861 202.526946 
L 379.023739 218.159223 
L 383.803617 212.760409 
L 388.583496 203.246789 
L 393.363374 229.441564 
L 398.143252 198.948651 
L 402.923131 203.645038 
L 407.703009 198.214784 
L 412.482887 194.62986 
L 417.262766 198.272324 
L 422.042644 194.498145 
L 426.822522 197.536294 
L 431.602401 193.344842 
L 436.382279 196.945033 
L 441.162157 194.751958 
L 445.942036 198.364231 
L 450.721914 192.990622 
L 455.501792 201.214185 
L 460.281671 226.658056 
L 465.061549 199.951942 
L 469.841427 191.285794 
L 474.621306 213.562677 
L 479.401184 190.730238 
L 484.181062 194.709199 
L 488.960941 189.598925 
L 493.740819 200.201911 
L 498.520697 189.068018 
L 503.300576 199.478509 
L 508.080454 188.154816 
L 512.860332 191.905619 
L 517.640211 187.321808 
L 522.420089 211.235427 
L 527.199967 216.096584 
L 531.979846 220.229101 
L 536.759724 188.818329 
L 541.539602 190.269272 
L 541.539602 188.822986 
L 541.539602 188.822986 
L 536.759724 178.366369 
L 531.979846 130.209074 
L 527.199967 125.63544 
L 522.420089 154.101051 
L 517.640211 186.097738 
L 512.860332 191.018419 
L 508.080454 186.306107 
L 503.300576 178.328848 
L 498.520697 187.209038 
L 493.740819 177.006468 
L 488.960941 188.13866 
L 484.181062 191.655571 
L 479.401184 189.610492 
L 474.621306 155.650491 
L 469.841427 189.252558 
L 465.061549 182.746021 
L 460.281671 113.203968 
L 455.501792 181.072973 
L 450.721914 191.728884 
L 445.942036 196.283888 
L 441.162157 188.921185 
L 436.382279 195.303814 
L 431.602401 191.598692 
L 426.822522 196.824527 
L 422.042644 192.796337 
L 417.262766 197.225647 
L 412.482887 192.657615 
L 407.703009 197.528662 
L 402.923131 175.477907 
L 398.143252 197.428523 
L 393.363374 127.838479 
L 388.583496 190.749318 
L 383.803617 187.884015 
L 379.023739 186.317044 
L 374.243861 200.297341 
L 369.463982 139.670867 
L 364.684104 182.296622 
L 359.904226 193.163804 
L 355.124347 170.331399 
L 350.344469 168.849778 
L 345.564591 190.382523 
L 340.784712 203.660798 
L 336.004834 202.271899 
L 331.224956 201.907983 
L 326.445077 205.787269 
L 321.665199 208.528515 
L 316.885321 207.122267 
L 312.105442 202.6228 
L 307.325564 206.629977 
L 302.545686 212.107553 
L 297.765808 198.337426 
L 292.985929 215.951521 
L 288.206051 182.891955 
L 283.426173 205.774652 
L 278.646294 187.130548 
L 273.866416 217.0261 
L 269.086538 171.24635 
L 264.306659 216.198175 
L 259.526781 214.718039 
L 254.746903 197.388778 
L 249.967024 122.535398 
L 245.187146 216.707179 
L 240.407268 214.434679 
L 235.627389 217.279222 
L 230.847511 215.217478 
L 226.067633 217.398119 
L 221.287754 214.911778 
L 216.507876 217.409536 
L 211.727998 154.966083 
L 206.948119 217.184304 
L 202.168241 173.402411 
L 197.388363 218.287761 
L 192.608484 151.077246 
L 187.828606 218.013118 
L 183.048728 213.027097 
L 178.268849 217.632774 
L 173.488971 194.048694 
L 168.709093 219.109153 
L 163.929214 220.412167 
L 159.149336 126.317239 
L 154.369458 220.142989 
L 149.589579 211.807065 
L 144.809701 218.81806 
L 140.029823 158.590762 
L 135.249944 229.153535 
L 130.470066 221.075632 
L 125.690188 217.838272 
L 120.910309 218.924825 
L 116.130431 205.501281 
L 111.350553 209.622739 
L 106.570674 211.782824 
L 101.790796 210.444023 
L 97.010918 40.114545 
L 92.231039 212.801419 
L 87.451161 213.922901 
L 82.671283 211.557855 
L 77.891404 211.63785 
L 73.111526 209.403897 
L 68.331648 186.178107 
z
" clip-path="url(#p71b072b5c5)" style="fill: #ff7f0e; fill-opacity: 0.15"/>
   </g>
   <g id="matplotlib.axis_1">
    <g id="xtick_1">
     <g id="line2d_1">
      <path d="M 63.551769 318.04 
L 63.551769 26.88 
" clip-path="url(#p71b072b5c5)" style="fill: none; stroke: #b0b0b0; stroke-opacity: 0.3; stroke-width: 0.8; stroke-linecap: square"/>
     </g>
     <g id="line2d_2">
      <defs>
       <path id="mc809188de9" d="M 0 0 
L 0 3.5 
" style="stroke: #000000; stroke-width: 0.8"/>
      </defs>
      <g>
       <use xlink:href="#mc809188de9" x="63.551769" y="318.04" style="stroke: #000000; stroke-width: 0.8"/>
      </g>
     </g>
     <g id="text_1">
      <!-- 0 -->
      <g transform="translate(60.370519 332.638438) scale(0.1 -0.1)">
       <defs>
        <path id="DejaVuSans-30" d="M 2034 4250 
Q 1547 4250 1301 3770 
Q 1056 3291 1056 2328 
Q 1056 1369 1301 889 
Q 1547 409 2034 409 
Q 2525 409 2770 889 
Q 3016 1369 3016 2328 
Q 3016 3291 2770 3770 
Q 2525 4250 2034 4250 
z
M 2034 4750 
Q 2819 4750 3233 4129 
Q 3647 3509 3647 2328 
Q 3647 1150 3233 529 
Q 2819 -91 2034 -91 
Q 1250 -91 836 529 
Q 422 1150 422 2328 
Q 422 3509 836 4129 
Q 1250 4750 2034 4750 
z
" transform="scale(0.015625)"/>
       </defs>
       <use xlink:href="#DejaVuSans-30"/>
      </g>
     </g>
    </g>
    <g id="xtick_2">
     <g id="line2d_3">
      <path d="M 159.149336 318.04 
L 159.149336 26.88 
" clip-path="url(#p71b072b5c5)" style="fill: none; stroke: #b0b0b0; stroke-opacity: 0.3; stroke-width: 0.8; stroke-linecap: square"/>
     </g>
     <g id="line2d_4">
      <g>
       <use xlink:href="#mc809188de9" x="159.149336" y="318.04" style="stroke: #000000; stroke-width: 0.8"/>
      </g>
     </g>
     <g id="text_2">
      <!-- 20 -->
      <g transform="translate(152.786836 332.638438) scale(0.1 -0.1)">
       <defs>
        <path id="DejaVuSans-32" d="M 1228 531 
L 3431 531 
L 3431 0 
L 469 0 
L 469 531 
Q 828 903 1448 1529 
Q 2069 2156 2228 2338 
Q 2531 2678 2651 2914 
Q 2772 3150 2772 3378 
Q 2772 3750 2511 3984 
Q 2250 4219 1831 4219 
Q 1534 4219 1204 4116 
Q 875 4013 500 3803 
L 500 4441 
Q 881 4594 1212 4672 
Q 1544 4750 1819 4750 
Q 2544 4750 2975 4387 
Q 3406 4025 3406 3419 
Q 3406 3131 3298 2873 
Q 3191 2616 2906 2266 
Q 2828 2175 2409 1742 
Q 1991 1309 1228 531 
z
" transform="scale(0.015625)"/>
       </defs>
       <use xlink:href="#DejaVuSans-32"/>
       <use xlink:href="#DejaVuSans-30" transform="translate(63.623047 0)"/>
      </g>
     </g>
    </g>
    <g id="xtick_3">
     <g id="line2d_5">
      <path d="M 254.746903 318.04 
L 254.746903 26.88 
" clip-path="url(#p71b072b5c5)" style="fill: none; stroke: #b0b0b0; stroke-opacity: 0.3; stroke-width: 0.8; stroke-linecap: square"/>
     </g>
     <g id="line2d_6">
      <g>
       <use xlink:href="#mc809188de9" x="254.746903" y="318.04" style="stroke: #000000; stroke-width: 0.8"/>
      </g>
     </g>
     <g id="text_3">
      <!-- 40 -->
      <g transform="translate(248.384403 332.638438) scale(0.1 -0.1)">
       <defs>
        <path id="DejaVuSans-34" d="M 2419 4116 
L 825 1625 
L 2419 1625 
L 2419 4116 
z
M 2253 4666 
L 3047 4666 
L 3047 1625 
L 3713 1625 
L 3713 1100 
L 3047 1100 
L 3047 0 
L 2419 0 
L 2419 1100 
L 313 1100 
L 313 1709 
L 2253 4666 
z
" transform="scale(0.015625)"/>
       </defs>
       <use xlink:href="#DejaVuSans-34"/>
       <use xlink:href="#DejaVuSans-30" transform="translate(63.623047 0)"/>
      </g>
     </g>
    </g>
    <g id="xtick_4">
     <g id="line2d_7">
      <path d="M 350.344469 318.04 
L 350.344469 26.88 
" clip-path="url(#p71b072b5c5)" style="fill: none; stroke: #b0b0b0; stroke-opacity: 0.3; stroke-width: 0.8; stroke-linecap: square"/>
     </g>
     <g id="line2d_8">
      <g>
       <use xlink:href="#mc809188de9" x="350.344469" y="318.04" style="stroke: #000000; stroke-width: 0.8"/>
      </g>
     </g>
     <g id="text_4">
      <!-- 60 -->
      <g transform="translate(343.981969 332.638438) scale(0.1 -0.1)">
       <defs>
        <path id="DejaVuSans-36" d="M 2113 2584 
Q 1688 2584 1439 2293 
Q 1191 2003 1191 1497 
Q 1191 994 1439 701 
Q 1688 409 2113 409 
Q 2538 409 2786 701 
Q 3034 994 3034 1497 
Q 3034 2003 2786 2293 
Q 2538 2584 2113 2584 
z
M 3366 4563 
L 3366 3988 
Q 3128 4100 2886 4159 
Q 2644 4219 2406 4219 
Q 1781 4219 1451 3797 
Q 1122 3375 1075 2522 
Q 1259 2794 1537 2939 
Q 1816 3084 2150 3084 
Q 2853 3084 3261 2657 
Q 3669 2231 3669 1497 
Q 3669 778 3244 343 
Q 2819 -91 2113 -91 
Q 1303 -91 875 529 
Q 447 1150 447 2328 
Q 447 3434 972 4092 
Q 1497 4750 2381 4750 
Q 2619 4750 2861 4703 
Q 3103 4656 3366 4563 
z
" transform="scale(0.015625)"/>
       </defs>
       <use xlink:href="#DejaVuSans-36"/>
       <use xlink:href="#DejaVuSans-30" transform="translate(63.623047 0)"/>
      </g>
     </g>
    </g>
    <g id="xtick_5">
     <g id="line2d_9">
      <path d="M 445.942036 318.04 
L 445.942036 26.88 
" clip-path="url(#p71b072b5c5)" style="fill: none; stroke: #b0b0b0; stroke-opacity: 0.3; stroke-width: 0.8; stroke-linecap: square"/>
     </g>
     <g id="line2d_10">
      <g>
       <use xlink:href="#mc809188de9" x="445.942036" y="318.04" style="stroke: #000000; stroke-width: 0.8"/>
      </g>
     </g>
     <g id="text_5">
      <!-- 80 -->
      <g transform="translate(439.579536 332.638438) scale(0.1 -0.1)">
       <defs>
        <path id="DejaVuSans-38" d="M 2034 2216 
Q 1584 2216 1326 1975 
Q 1069 1734 1069 1313 
Q 1069 891 1326 650 
Q 1584 409 2034 409 
Q 2484 409 2743 651 
Q 3003 894 3003 1313 
Q 3003 1734 2745 1975 
Q 2488 2216 2034 2216 
z
M 1403 2484 
Q 997 2584 770 2862 
Q 544 3141 544 3541 
Q 544 4100 942 4425 
Q 1341 4750 2034 4750 
Q 2731 4750 3128 4425 
Q 3525 4100 3525 3541 
Q 3525 3141 3298 2862 
Q 3072 2584 2669 2484 
Q 3125 2378 3379 2068 
Q 3634 1759 3634 1313 
Q 3634 634 3220 271 
Q 2806 -91 2034 -91 
Q 1263 -91 848 271 
Q 434 634 434 1313 
Q 434 1759 690 2068 
Q 947 2378 1403 2484 
z
M 1172 3481 
Q 1172 3119 1398 2916 
Q 1625 2713 2034 2713 
Q 2441 2713 2670 2916 
Q 2900 3119 2900 3481 
Q 2900 3844 2670 4047 
Q 2441 4250 2034 4250 
Q 1625 4250 1398 4047 
Q 1172 3844 1172 3481 
z
" transform="scale(0.015625)"/>
       </defs>
       <use xlink:href="#DejaVuSans-38"/>
       <use xlink:href="#DejaVuSans-30" transform="translate(63.623047 0)"/>
      </g>
     </g>
    </g>
    <g id="xtick_6">
     <g id="line2d_11">
      <path d="M 541.539602 318.04 
L 541.539602 26.88 
" clip-path="url(#p71b072b5c5)" style="fill: none; stroke: #b0b0b0; stroke-opacity: 0.3; stroke-width: 0.8; stroke-linecap: square"/>
     </g>
     <g id="line2d_12">
      <g>
       <use xlink:href="#mc809188de9" x="541.539602" y="318.04" style="stroke: #000000; stroke-width: 0.8"/>
      </g>
     </g>
     <g id="text_6">
      <!-- 100 -->
      <g transform="translate(531.995852 332.638438) scale(0.1 -0.1)">
       <defs>
        <path id="DejaVuSans-31" d="M 794 531 
L 1825 531 
L 1825 4091 
L 703 3866 
L 703 4441 
L 1819 4666 
L 2450 4666 
L 2450 531 
L 3481 531 
L 3481 0 
L 794 0 
L 794 531 
z
" transform="scale(0.015625)"/>
       </defs>
       <use xlink:href="#DejaVuSans-31"/>
       <use xlink:href="#DejaVuSans-30" transform="translate(63.623047 0)"/>
       <use xlink:href="#DejaVuSans-30" transform="translate(127.246094 0)"/>
      </g>
     </g>
    </g>
    <g id="text_7">
     <!-- Draft length -->
     <g transform="translate(274.806719 346.316563) scale(0.1 -0.1)">
      <defs>
       <path id="DejaVuSans-44" d="M 1259 4147 
L 1259 519 
L 2022 519 
Q 2988 519 3436 956 
Q 3884 1394 3884 2338 
Q 3884 3275 3436 3711 
Q 2988 4147 2022 4147 
L 1259 4147 
z
M 628 4666 
L 1925 4666 
Q 3281 4666 3915 4102 
Q 4550 3538 4550 2338 
Q 4550 1131 3912 565 
Q 3275 0 1925 0 
L 628 0 
L 628 4666 
z
" transform="scale(0.015625)"/>
       <path id="DejaVuSans-72" d="M 2631 2963 
Q 2534 3019 2420 3045 
Q 2306 3072 2169 3072 
Q 1681 3072 1420 2755 
Q 1159 2438 1159 1844 
L 1159 0 
L 581 0 
L 581 3500 
L 1159 3500 
L 1159 2956 
Q 1341 3275 1631 3429 
Q 1922 3584 2338 3584 
Q 2397 3584 2469 3576 
Q 2541 3569 2628 3553 
L 2631 2963 
z
" transform="scale(0.015625)"/>
       <path id="DejaVuSans-61" d="M 2194 1759 
Q 1497 1759 1228 1600 
Q 959 1441 959 1056 
Q 959 750 1161 570 
Q 1363 391 1709 391 
Q 2188 391 2477 730 
Q 2766 1069 2766 1631 
L 2766 1759 
L 2194 1759 
z
M 3341 1997 
L 3341 0 
L 2766 0 
L 2766 531 
Q 2569 213 2275 61 
Q 1981 -91 1556 -91 
Q 1019 -91 701 211 
Q 384 513 384 1019 
Q 384 1609 779 1909 
Q 1175 2209 1959 2209 
L 2766 2209 
L 2766 2266 
Q 2766 2663 2505 2880 
Q 2244 3097 1772 3097 
Q 1472 3097 1187 3025 
Q 903 2953 641 2809 
L 641 3341 
Q 956 3463 1253 3523 
Q 1550 3584 1831 3584 
Q 2591 3584 2966 3190 
Q 3341 2797 3341 1997 
z
" transform="scale(0.015625)"/>
       <path id="DejaVuSans-66" d="M 2375 4863 
L 2375 4384 
L 1825 4384 
Q 1516 4384 1395 4259 
Q 1275 4134 1275 3809 
L 1275 3500 
L 2222 3500 
L 2222 3053 
L 1275 3053 
L 1275 0 
L 697 0 
L 697 3053 
L 147 3053 
L 147 3500 
L 697 3500 
L 697 3744 
Q 697 4328 969 4595 
Q 1241 4863 1831 4863 
L 2375 4863 
z
" transform="scale(0.015625)"/>
       <path id="DejaVuSans-74" d="M 1172 4494 
L 1172 3500 
L 2356 3500 
L 2356 3053 
L 1172 3053 
L 1172 1153 
Q 1172 725 1289 603 
Q 1406 481 1766 481 
L 2356 481 
L 2356 0 
L 1766 0 
Q 1100 0 847 248 
Q 594 497 594 1153 
L 594 3053 
L 172 3053 
L 172 3500 
L 594 3500 
L 594 4494 
L 1172 4494 
z
" transform="scale(0.015625)"/>
       <path id="DejaVuSans-20" transform="scale(0.015625)"/>
       <path id="DejaVuSans-6c" d="M 603 4863 
L 1178 4863 
L 1178 0 
L 603 0 
L 603 4863 
z
" transform="scale(0.015625)"/>
       <path id="DejaVuSans-65" d="M 3597 1894 
L 3597 1613 
L 953 1613 
Q 991 1019 1311 708 
Q 1631 397 2203 397 
Q 2534 397 2845 478 
Q 3156 559 3463 722 
L 3463 178 
Q 3153 47 2828 -22 
Q 2503 -91 2169 -91 
Q 1331 -91 842 396 
Q 353 884 353 1716 
Q 353 2575 817 3079 
Q 1281 3584 2069 3584 
Q 2775 3584 3186 3129 
Q 3597 2675 3597 1894 
z
M 3022 2063 
Q 3016 2534 2758 2815 
Q 2500 3097 2075 3097 
Q 1594 3097 1305 2825 
Q 1016 2553 972 2059 
L 3022 2063 
z
" transform="scale(0.015625)"/>
       <path id="DejaVuSans-6e" d="M 3513 2113 
L 3513 0 
L 2938 0 
L 2938 2094 
Q 2938 2591 2744 2837 
Q 2550 3084 2163 3084 
Q 1697 3084 1428 2787 
Q 1159 2491 1159 1978 
L 1159 0 
L 581 0 
L 581 3500 
L 1159 3500 
L 1159 2956 
Q 1366 3272 1645 3428 
Q 1925 3584 2291 3584 
Q 2894 3584 3203 3211 
Q 3513 2838 3513 2113 
z
" transform="scale(0.015625)"/>
       <path id="DejaVuSans-67" d="M 2906 1791 
Q 2906 2416 2648 2759 
Q 2391 3103 1925 3103 
Q 1463 3103 1205 2759 
Q 947 2416 947 1791 
Q 947 1169 1205 825 
Q 1463 481 1925 481 
Q 2391 481 2648 825 
Q 2906 1169 2906 1791 
z
M 3481 434 
Q 3481 -459 3084 -895 
Q 2688 -1331 1869 -1331 
Q 1566 -1331 1297 -1286 
Q 1028 -1241 775 -1147 
L 775 -588 
Q 1028 -725 1275 -790 
Q 1522 -856 1778 -856 
Q 2344 -856 2625 -561 
Q 2906 -266 2906 331 
L 2906 616 
Q 2728 306 2450 153 
Q 2172 0 1784 0 
Q 1141 0 747 490 
Q 353 981 353 1791 
Q 353 2603 747 3093 
Q 1141 3584 1784 3584 
Q 2172 3584 2450 3431 
Q 2728 3278 2906 2969 
L 2906 3500 
L 3481 3500 
L 3481 434 
z
" transform="scale(0.015625)"/>
       <path id="DejaVuSans-68" d="M 3513 2113 
L 3513 0 
L 2938 0 
L 2938 2094 
Q 2938 2591 2744 2837 
Q 2550 3084 2163 3084 
Q 1697 3084 1428 2787 
Q 1159 2491 1159 1978 
L 1159 0 
L 581 0 
L 581 4863 
L 1159 4863 
L 1159 2956 
Q 1366 3272 1645 3428 
Q 1925 3584 2291 3584 
Q 2894 3584 3203 3211 
Q 3513 2838 3513 2113 
z
" transform="scale(0.015625)"/>
      </defs>
      <use xlink:href="#DejaVuSans-44"/>
      <use xlink:href="#DejaVuSans-72" transform="translate(77.001953 0)"/>
      <use xlink:href="#DejaVuSans-61" transform="translate(118.115234 0)"/>
      <use xlink:href="#DejaVuSans-66" transform="translate(179.394531 0)"/>
      <use xlink:href="#DejaVuSans-74" transform="translate(212.849609 0)"/>
      <use xlink:href="#DejaVuSans-20" transform="translate(252.058594 0)"/>
      <use xlink:href="#DejaVuSans-6c" transform="translate(283.845703 0)"/>
      <use xlink:href="#DejaVuSans-65" transform="translate(311.628906 0)"/>
      <use xlink:href="#DejaVuSans-6e" transform="translate(373.152344 0)"/>
      <use xlink:href="#DejaVuSans-67" transform="translate(436.53125 0)"/>
      <use xlink:href="#DejaVuSans-74" transform="translate(500.007812 0)"/>
      <use xlink:href="#DejaVuSans-68" transform="translate(539.216797 0)"/>
     </g>
    </g>
   </g>
   <g id="matplotlib.axis_2">
    <g id="ytick_1">
     <g id="line2d_13">
      <path d="M 44.67125 314.098561 
L 565.2 314.098561 
" clip-path="url(#p71b072b5c5)" style="fill: none; stroke: #b0b0b0; stroke-opacity: 0.3; stroke-width: 0.8; stroke-linecap: square"/>
     </g>
     <g id="line2d_14">
      <defs>
       <path id="md75a550caf" d="M 0 0 
L -3.5 0 
" style="stroke: #000000; stroke-width: 0.8"/>
      </defs>
      <g>
       <use xlink:href="#md75a550caf" x="44.67125" y="314.098561" style="stroke: #000000; stroke-width: 0.8"/>
      </g>
     </g>
     <g id="text_8">
      <!-- 10 -->
      <g transform="translate(24.94625 317.89778) scale(0.1 -0.1)">
       <use xlink:href="#DejaVuSans-31"/>
       <use xlink:href="#DejaVuSans-30" transform="translate(63.623047 0)"/>
      </g>
     </g>
    </g>
    <g id="ytick_2">
     <g id="line2d_15">
      <path d="M 44.67125 259.367322 
L 565.2 259.367322 
" clip-path="url(#p71b072b5c5)" style="fill: none; stroke: #b0b0b0; stroke-opacity: 0.3; stroke-width: 0.8; stroke-linecap: square"/>
     </g>
     <g id="line2d_16">
      <g>
       <use xlink:href="#md75a550caf" x="44.67125" y="259.367322" style="stroke: #000000; stroke-width: 0.8"/>
      </g>
     </g>
     <g id="text_9">
      <!-- 15 -->
      <g transform="translate(24.94625 263.166541) scale(0.1 -0.1)">
       <defs>
        <path id="DejaVuSans-35" d="M 691 4666 
L 3169 4666 
L 3169 4134 
L 1269 4134 
L 1269 2991 
Q 1406 3038 1543 3061 
Q 1681 3084 1819 3084 
Q 2600 3084 3056 2656 
Q 3513 2228 3513 1497 
Q 3513 744 3044 326 
Q 2575 -91 1722 -91 
Q 1428 -91 1123 -41 
Q 819 9 494 109 
L 494 744 
Q 775 591 1075 516 
Q 1375 441 1709 441 
Q 2250 441 2565 725 
Q 2881 1009 2881 1497 
Q 2881 1984 2565 2268 
Q 2250 2553 1709 2553 
Q 1456 2553 1204 2497 
Q 953 2441 691 2322 
L 691 4666 
z
" transform="scale(0.015625)"/>
       </defs>
       <use xlink:href="#DejaVuSans-31"/>
       <use xlink:href="#DejaVuSans-35" transform="translate(63.623047 0)"/>
      </g>
     </g>
    </g>
    <g id="ytick_3">
     <g id="line2d_17">
      <path d="M 44.67125 204.636083 
L 565.2 204.636083 
" clip-path="url(#p71b072b5c5)" style="fill: none; stroke: #b0b0b0; stroke-opacity: 0.3; stroke-width: 0.8; stroke-linecap: square"/>
     </g>
     <g id="line2d_18">
      <g>
       <use xlink:href="#md75a550caf" x="44.67125" y="204.636083" style="stroke: #000000; stroke-width: 0.8"/>
      </g>
     </g>
     <g id="text_10">
      <!-- 20 -->
      <g transform="translate(24.94625 208.435301) scale(0.1 -0.1)">
       <use xlink:href="#DejaVuSans-32"/>
       <use xlink:href="#DejaVuSans-30" transform="translate(63.623047 0)"/>
      </g>
     </g>
    </g>
    <g id="ytick_4">
     <g id="line2d_19">
      <path d="M 44.67125 149.904843 
L 565.2 149.904843 
" clip-path="url(#p71b072b5c5)" style="fill: none; stroke: #b0b0b0; stroke-opacity: 0.3; stroke-width: 0.8; stroke-linecap: square"/>
     </g>
     <g id="line2d_20">
      <g>
       <use xlink:href="#md75a550caf" x="44.67125" y="149.904843" style="stroke: #000000; stroke-width: 0.8"/>
      </g>
     </g>
     <g id="text_11">
      <!-- 25 -->
      <g transform="translate(24.94625 153.704062) scale(0.1 -0.1)">
       <use xlink:href="#DejaVuSans-32"/>
       <use xlink:href="#DejaVuSans-35" transform="translate(63.623047 0)"/>
      </g>
     </g>
    </g>
    <g id="ytick_5">
     <g id="line2d_21">
      <path d="M 44.67125 95.173604 
L 565.2 95.173604 
" clip-path="url(#p71b072b5c5)" style="fill: none; stroke: #b0b0b0; stroke-opacity: 0.3; stroke-width: 0.8; stroke-linecap: square"/>
     </g>
     <g id="line2d_22">
      <g>
       <use xlink:href="#md75a550caf" x="44.67125" y="95.173604" style="stroke: #000000; stroke-width: 0.8"/>
      </g>
     </g>
     <g id="text_12">
      <!-- 30 -->
      <g transform="translate(24.94625 98.972823) scale(0.1 -0.1)">
       <defs>
        <path id="DejaVuSans-33" d="M 2597 2516 
Q 3050 2419 3304 2112 
Q 3559 1806 3559 1356 
Q 3559 666 3084 287 
Q 2609 -91 1734 -91 
Q 1441 -91 1130 -33 
Q 819 25 488 141 
L 488 750 
Q 750 597 1062 519 
Q 1375 441 1716 441 
Q 2309 441 2620 675 
Q 2931 909 2931 1356 
Q 2931 1769 2642 2001 
Q 2353 2234 1838 2234 
L 1294 2234 
L 1294 2753 
L 1863 2753 
Q 2328 2753 2575 2939 
Q 2822 3125 2822 3475 
Q 2822 3834 2567 4026 
Q 2313 4219 1838 4219 
Q 1578 4219 1281 4162 
Q 984 4106 628 3988 
L 628 4550 
Q 988 4650 1302 4700 
Q 1616 4750 1894 4750 
Q 2613 4750 3031 4423 
Q 3450 4097 3450 3541 
Q 3450 3153 3228 2886 
Q 3006 2619 2597 2516 
z
" transform="scale(0.015625)"/>
       </defs>
       <use xlink:href="#DejaVuSans-33"/>
       <use xlink:href="#DejaVuSans-30" transform="translate(63.623047 0)"/>
      </g>
     </g>
    </g>
    <g id="ytick_6">
     <g id="line2d_23">
      <path d="M 44.67125 40.442365 
L 565.2 40.442365 
" clip-path="url(#p71b072b5c5)" style="fill: none; stroke: #b0b0b0; stroke-opacity: 0.3; stroke-width: 0.8; stroke-linecap: square"/>
     </g>
     <g id="line2d_24">
      <g>
       <use xlink:href="#md75a550caf" x="44.67125" y="40.442365" style="stroke: #000000; stroke-width: 0.8"/>
      </g>
     </g>
     <g id="text_13">
      <!-- 35 -->
      <g transform="translate(24.94625 44.241584) scale(0.1 -0.1)">
       <use xlink:href="#DejaVuSans-33"/>
       <use xlink:href="#DejaVuSans-35" transform="translate(63.623047 0)"/>
      </g>
     </g>
    </g>
    <g id="text_14">
     <!-- cuda_ms -->
     <g transform="translate(18.588438 194.59125) rotate(-90) scale(0.1 -0.1)">
      <defs>
       <path id="DejaVuSans-63" d="M 3122 3366 
L 3122 2828 
Q 2878 2963 2633 3030 
Q 2388 3097 2138 3097 
Q 1578 3097 1268 2742 
Q 959 2388 959 1747 
Q 959 1106 1268 751 
Q 1578 397 2138 397 
Q 2388 397 2633 464 
Q 2878 531 3122 666 
L 3122 134 
Q 2881 22 2623 -34 
Q 2366 -91 2075 -91 
Q 1284 -91 818 406 
Q 353 903 353 1747 
Q 353 2603 823 3093 
Q 1294 3584 2113 3584 
Q 2378 3584 2631 3529 
Q 2884 3475 3122 3366 
z
" transform="scale(0.015625)"/>
       <path id="DejaVuSans-75" d="M 544 1381 
L 544 3500 
L 1119 3500 
L 1119 1403 
Q 1119 906 1312 657 
Q 1506 409 1894 409 
Q 2359 409 2629 706 
Q 2900 1003 2900 1516 
L 2900 3500 
L 3475 3500 
L 3475 0 
L 2900 0 
L 2900 538 
Q 2691 219 2414 64 
Q 2138 -91 1772 -91 
Q 1169 -91 856 284 
Q 544 659 544 1381 
z
M 1991 3584 
L 1991 3584 
z
" transform="scale(0.015625)"/>
       <path id="DejaVuSans-64" d="M 2906 2969 
L 2906 4863 
L 3481 4863 
L 3481 0 
L 2906 0 
L 2906 525 
Q 2725 213 2448 61 
Q 2172 -91 1784 -91 
Q 1150 -91 751 415 
Q 353 922 353 1747 
Q 353 2572 751 3078 
Q 1150 3584 1784 3584 
Q 2172 3584 2448 3432 
Q 2725 3281 2906 2969 
z
M 947 1747 
Q 947 1113 1208 752 
Q 1469 391 1925 391 
Q 2381 391 2643 752 
Q 2906 1113 2906 1747 
Q 2906 2381 2643 2742 
Q 2381 3103 1925 3103 
Q 1469 3103 1208 2742 
Q 947 2381 947 1747 
z
" transform="scale(0.015625)"/>
       <path id="DejaVuSans-5f" d="M 3263 -1063 
L 3263 -1509 
L -63 -1509 
L -63 -1063 
L 3263 -1063 
z
" transform="scale(0.015625)"/>
       <path id="DejaVuSans-6d" d="M 3328 2828 
Q 3544 3216 3844 3400 
Q 4144 3584 4550 3584 
Q 5097 3584 5394 3201 
Q 5691 2819 5691 2113 
L 5691 0 
L 5113 0 
L 5113 2094 
Q 5113 2597 4934 2840 
Q 4756 3084 4391 3084 
Q 3944 3084 3684 2787 
Q 3425 2491 3425 1978 
L 3425 0 
L 2847 0 
L 2847 2094 
Q 2847 2600 2669 2842 
Q 2491 3084 2119 3084 
Q 1678 3084 1418 2786 
Q 1159 2488 1159 1978 
L 1159 0 
L 581 0 
L 581 3500 
L 1159 3500 
L 1159 2956 
Q 1356 3278 1631 3431 
Q 1906 3584 2284 3584 
Q 2666 3584 2933 3390 
Q 3200 3197 3328 2828 
z
" transform="scale(0.015625)"/>
       <path id="DejaVuSans-73" d="M 2834 3397 
L 2834 2853 
Q 2591 2978 2328 3040 
Q 2066 3103 1784 3103 
Q 1356 3103 1142 2972 
Q 928 2841 928 2578 
Q 928 2378 1081 2264 
Q 1234 2150 1697 2047 
L 1894 2003 
Q 2506 1872 2764 1633 
Q 3022 1394 3022 966 
Q 3022 478 2636 193 
Q 2250 -91 1575 -91 
Q 1294 -91 989 -36 
Q 684 19 347 128 
L 347 722 
Q 666 556 975 473 
Q 1284 391 1588 391 
Q 1994 391 2212 530 
Q 2431 669 2431 922 
Q 2431 1156 2273 1281 
Q 2116 1406 1581 1522 
L 1381 1569 
Q 847 1681 609 1914 
Q 372 2147 372 2553 
Q 372 3047 722 3315 
Q 1072 3584 1716 3584 
Q 2034 3584 2315 3537 
Q 2597 3491 2834 3397 
z
" transform="scale(0.015625)"/>
      </defs>
      <use xlink:href="#DejaVuSans-63"/>
      <use xlink:href="#DejaVuSans-75" transform="translate(54.980469 0)"/>
      <use xlink:href="#DejaVuSans-64" transform="translate(118.359375 0)"/>
      <use xlink:href="#DejaVuSans-61" transform="translate(181.835938 0)"/>
      <use xlink:href="#DejaVuSans-5f" transform="translate(243.115234 0)"/>
      <use xlink:href="#DejaVuSans-6d" transform="translate(293.115234 0)"/>
      <use xlink:href="#DejaVuSans-73" transform="translate(390.527344 0)"/>
     </g>
    </g>
   </g>
   <g id="line2d_25">
    <path d="M 68.331648 240.800735 
L 73.111526 222.041493 
L 77.891404 206.435469 
L 82.671283 227.471917 
L 87.451161 225.048717 
L 92.231039 222.158345 
L 97.010918 221.850379 
L 101.790796 222.359789 
L 106.570674 218.829392 
L 111.350553 214.775636 
L 116.130431 211.035343 
L 120.910309 225.582542 
L 125.690188 230.006713 
L 130.470066 230.524111 
L 135.249944 236.819592 
L 140.029823 235.821051 
L 144.809701 226.750621 
L 149.589579 214.848005 
L 154.369458 225.916884 
L 159.149336 227.422874 
L 163.929214 226.06309 
L 168.709093 219.305457 
L 173.488971 223.798601 
L 178.268849 217.726358 
L 183.048728 224.083133 
L 187.828606 224.424412 
L 192.608484 223.823927 
L 197.388363 224.05872 
L 202.168241 217.807764 
L 206.948119 222.940277 
L 211.727998 212.497976 
L 216.507876 223.943196 
L 221.287754 189.938092 
L 226.067633 223.636421 
L 230.847511 220.309427 
L 235.627389 223.651238 
L 240.407268 220.616135 
L 245.187146 222.921779 
L 249.967024 220.640475 
L 254.746903 223.96877 
L 259.526781 219.394639 
L 264.306659 220.174676 
L 269.086538 221.704384 
L 273.866416 224.574611 
L 278.646294 221.442902 
L 283.426173 222.086856 
L 288.206051 213.437287 
L 292.985929 215.792149 
L 297.765808 218.384674 
L 302.545686 208.754394 
L 307.325564 211.374484 
L 312.105442 217.76867 
L 316.885321 201.580834 
L 321.665199 214.845585 
L 326.445077 208.228065 
L 331.224956 210.779676 
L 336.004834 188.112294 
L 340.784712 211.53877 
L 345.564591 199.900648 
L 350.344469 211.624097 
L 355.124347 188.07008 
L 359.904226 208.465127 
L 364.684104 206.693661 
L 369.463982 209.82124 
L 374.243861 204.636225 
L 379.023739 212.292226 
L 383.803617 209.904887 
L 388.583496 204.527987 
L 393.363374 195.659459 
L 398.143252 203.787985 
L 402.923131 195.551957 
L 407.703009 203.519181 
L 412.482887 190.48397 
L 417.262766 203.380401 
L 422.042644 198.816535 
L 426.822522 202.568067 
L 431.602401 197.61241 
L 436.382279 201.491131 
L 441.162157 197.791504 
L 445.942036 202.933406 
L 450.721914 197.118129 
L 455.501792 199.08968 
L 460.281671 193.748121 
L 465.061549 199.815423 
L 469.841427 191.731944 
L 474.621306 198.267329 
L 479.401184 195.77064 
L 484.181062 193.672675 
L 488.960941 179.156789 
L 493.740819 195.479064 
L 498.520697 193.521844 
L 503.300576 192.980448 
L 508.080454 193.018946 
L 512.860332 196.970383 
L 517.640211 193.001254 
L 522.420089 197.387705 
L 527.199967 190.993733 
L 531.979846 195.236989 
L 536.759724 190.667269 
L 541.539602 185.248228 
" clip-path="url(#p71b072b5c5)" style="fill: none; stroke: #1f77b4; stroke-width: 1.2; stroke-linecap: square"/>
    <defs>
     <path id="m76fc8f10a3" d="M 0 1.25 
C 0.331504 1.25 0.649475 1.118292 0.883883 0.883883 
C 1.118292 0.649475 1.25 0.331504 1.25 0 
C 1.25 -0.331504 1.118292 -0.649475 0.883883 -0.883883 
C 0.649475 -1.118292 0.331504 -1.25 0 -1.25 
C -0.331504 -1.25 -0.649475 -1.118292 -0.883883 -0.883883 
C -1.118292 -0.649475 -1.25 -0.331504 -1.25 0 
C -1.25 0.331504 -1.118292 0.649475 -0.883883 0.883883 
C -0.649475 1.118292 -0.331504 1.25 0 1.25 
z
" style="stroke: #1f77b4"/>
    </defs>
    <g clip-path="url(#p71b072b5c5)">
     <use xlink:href="#m76fc8f10a3" x="68.331648" y="240.800735" style="fill: #1f77b4; stroke: #1f77b4"/>
     <use xlink:href="#m76fc8f10a3" x="73.111526" y="222.041493" style="fill: #1f77b4; stroke: #1f77b4"/>
     <use xlink:href="#m76fc8f10a3" x="77.891404" y="206.435469" style="fill: #1f77b4; stroke: #1f77b4"/>
     <use xlink:href="#m76fc8f10a3" x="82.671283" y="227.471917" style="fill: #1f77b4; stroke: #1f77b4"/>
     <use xlink:href="#m76fc8f10a3" x="87.451161" y="225.048717" style="fill: #1f77b4; stroke: #1f77b4"/>
     <use xlink:href="#m76fc8f10a3" x="92.231039" y="222.158345" style="fill: #1f77b4; stroke: #1f77b4"/>
     <use xlink:href="#m76fc8f10a3" x="97.010918" y="221.850379" style="fill: #1f77b4; stroke: #1f77b4"/>
     <use xlink:href="#m76fc8f10a3" x="101.790796" y="222.359789" style="fill: #1f77b4; stroke: #1f77b4"/>
     <use xlink:href="#m76fc8f10a3" x="106.570674" y="218.829392" style="fill: #1f77b4; stroke: #1f77b4"/>
     <use xlink:href="#m76fc8f10a3" x="111.350553" y="214.775636" style="fill: #1f77b4; stroke: #1f77b4"/>
     <use xlink:href="#m76fc8f10a3" x="116.130431" y="211.035343" style="fill: #1f77b4; stroke: #1f77b4"/>
     <use xlink:href="#m76fc8f10a3" x="120.910309" y="225.582542" style="fill: #1f77b4; stroke: #1f77b4"/>
     <use xlink:href="#m76fc8f10a3" x="125.690188" y="230.006713" style="fill: #1f77b4; stroke: #1f77b4"/>
     <use xlink:href="#m76fc8f10a3" x="130.470066" y="230.524111" style="fill: #1f77b4; stroke: #1f77b4"/>
     <use xlink:href="#m76fc8f10a3" x="135.249944" y="236.819592" style="fill: #1f77b4; stroke: #1f77b4"/>
     <use xlink:href="#m76fc8f10a3" x="140.029823" y="235.821051" style="fill: #1f77b4; stroke: #1f77b4"/>
     <use xlink:href="#m76fc8f10a3" x="144.809701" y="226.750621" style="fill: #1f77b4; stroke: #1f77b4"/>
     <use xlink:href="#m76fc8f10a3" x="149.589579" y="214.848005" style="fill: #1f77b4; stroke: #1f77b4"/>
     <use xlink:href="#m76fc8f10a3" x="154.369458" y="225.916884" style="fill: #1f77b4; stroke: #1f77b4"/>
     <use xlink:href="#m76fc8f10a3" x="159.149336" y="227.422874" style="fill: #1f77b4; stroke: #1f77b4"/>
     <use xlink:href="#m76fc8f10a3" x="163.929214" y="226.06309" style="fill: #1f77b4; stroke: #1f77b4"/>
     <use xlink:href="#m76fc8f10a3" x="168.709093" y="219.305457" style="fill: #1f77b4; stroke: #1f77b4"/>
     <use xlink:href="#m76fc8f10a3" x="173.488971" y="223.798601" style="fill: #1f77b4; stroke: #1f77b4"/>
     <use xlink:href="#m76fc8f10a3" x="178.268849" y="217.726358" style="fill: #1f77b4; stroke: #1f77b4"/>
     <use xlink:href="#m76fc8f10a3" x="183.048728" y="224.083133" style="fill: #1f77b4; stroke: #1f77b4"/>
     <use xlink:href="#m76fc8f10a3" x="187.828606" y="224.424412" style="fill: #1f77b4; stroke: #1f77b4"/>
     <use xlink:href="#m76fc8f10a3" x="192.608484" y="223.823927" style="fill: #1f77b4; stroke: #1f77b4"/>
     <use xlink:href="#m76fc8f10a3" x="197.388363" y="224.05872" style="fill: #1f77b4; stroke: #1f77b4"/>
     <use xlink:href="#m76fc8f10a3" x="202.168241" y="217.807764" style="fill: #1f77b4; stroke: #1f77b4"/>
     <use xlink:href="#m76fc8f10a3" x="206.948119" y="222.940277" style="fill: #1f77b4; stroke: #1f77b4"/>
     <use xlink:href="#m76fc8f10a3" x="211.727998" y="212.497976" style="fill: #1f77b4; stroke: #1f77b4"/>
     <use xlink:href="#m76fc8f10a3" x="216.507876" y="223.943196" style="fill: #1f77b4; stroke: #1f77b4"/>
     <use xlink:href="#m76fc8f10a3" x="221.287754" y="189.938092" style="fill: #1f77b4; stroke: #1f77b4"/>
     <use xlink:href="#m76fc8f10a3" x="226.067633" y="223.636421" style="fill: #1f77b4; stroke: #1f77b4"/>
     <use xlink:href="#m76fc8f10a3" x="230.847511" y="220.309427" style="fill: #1f77b4; stroke: #1f77b4"/>
     <use xlink:href="#m76fc8f10a3" x="235.627389" y="223.651238" style="fill: #1f77b4; stroke: #1f77b4"/>
     <use xlink:href="#m76fc8f10a3" x="240.407268" y="220.616135" style="fill: #1f77b4; stroke: #1f77b4"/>
     <use xlink:href="#m76fc8f10a3" x="245.187146" y="222.921779" style="fill: #1f77b4; stroke: #1f77b4"/>
     <use xlink:href="#m76fc8f10a3" x="249.967024" y="220.640475" style="fill: #1f77b4; stroke: #1f77b4"/>
     <use xlink:href="#m76fc8f10a3" x="254.746903" y="223.96877" style="fill: #1f77b4; stroke: #1f77b4"/>
     <use xlink:href="#m76fc8f10a3" x="259.526781" y="219.394639" style="fill: #1f77b4; stroke: #1f77b4"/>
     <use xlink:href="#m76fc8f10a3" x="264.306659" y="220.174676" style="fill: #1f77b4; stroke: #1f77b4"/>
     <use xlink:href="#m76fc8f10a3" x="269.086538" y="221.704384" style="fill: #1f77b4; stroke: #1f77b4"/>
     <use xlink:href="#m76fc8f10a3" x="273.866416" y="224.574611" style="fill: #1f77b4; stroke: #1f77b4"/>
     <use xlink:href="#m76fc8f10a3" x="278.646294" y="221.442902" style="fill: #1f77b4; stroke: #1f77b4"/>
     <use xlink:href="#m76fc8f10a3" x="283.426173" y="222.086856" style="fill: #1f77b4; stroke: #1f77b4"/>
     <use xlink:href="#m76fc8f10a3" x="288.206051" y="213.437287" style="fill: #1f77b4; stroke: #1f77b4"/>
     <use xlink:href="#m76fc8f10a3" x="292.985929" y="215.792149" style="fill: #1f77b4; stroke: #1f77b4"/>
     <use xlink:href="#m76fc8f10a3" x="297.765808" y="218.384674" style="fill: #1f77b4; stroke: #1f77b4"/>
     <use xlink:href="#m76fc8f10a3" x="302.545686" y="208.754394" style="fill: #1f77b4; stroke: #1f77b4"/>
     <use xlink:href="#m76fc8f10a3" x="307.325564" y="211.374484" style="fill: #1f77b4; stroke: #1f77b4"/>
     <use xlink:href="#m76fc8f10a3" x="312.105442" y="217.76867" style="fill: #1f77b4; stroke: #1f77b4"/>
     <use xlink:href="#m76fc8f10a3" x="316.885321" y="201.580834" style="fill: #1f77b4; stroke: #1f77b4"/>
     <use xlink:href="#m76fc8f10a3" x="321.665199" y="214.845585" style="fill: #1f77b4; stroke: #1f77b4"/>
     <use xlink:href="#m76fc8f10a3" x="326.445077" y="208.228065" style="fill: #1f77b4; stroke: #1f77b4"/>
     <use xlink:href="#m76fc8f10a3" x="331.224956" y="210.779676" style="fill: #1f77b4; stroke: #1f77b4"/>
     <use xlink:href="#m76fc8f10a3" x="336.004834" y="188.112294" style="fill: #1f77b4; stroke: #1f77b4"/>
     <use xlink:href="#m76fc8f10a3" x="340.784712" y="211.53877" style="fill: #1f77b4; stroke: #1f77b4"/>
     <use xlink:href="#m76fc8f10a3" x="345.564591" y="199.900648" style="fill: #1f77b4; stroke: #1f77b4"/>
     <use xlink:href="#m76fc8f10a3" x="350.344469" y="211.624097" style="fill: #1f77b4; stroke: #1f77b4"/>
     <use xlink:href="#m76fc8f10a3" x="355.124347" y="188.07008" style="fill: #1f77b4; stroke: #1f77b4"/>
     <use xlink:href="#m76fc8f10a3" x="359.904226" y="208.465127" style="fill: #1f77b4; stroke: #1f77b4"/>
     <use xlink:href="#m76fc8f10a3" x="364.684104" y="206.693661" style="fill: #1f77b4; stroke: #1f77b4"/>
     <use xlink:href="#m76fc8f10a3" x="369.463982" y="209.82124" style="fill: #1f77b4; stroke: #1f77b4"/>
     <use xlink:href="#m76fc8f10a3" x="374.243861" y="204.636225" style="fill: #1f77b4; stroke: #1f77b4"/>
     <use xlink:href="#m76fc8f10a3" x="379.023739" y="212.292226" style="fill: #1f77b4; stroke: #1f77b4"/>
     <use xlink:href="#m76fc8f10a3" x="383.803617" y="209.904887" style="fill: #1f77b4; stroke: #1f77b4"/>
     <use xlink:href="#m76fc8f10a3" x="388.583496" y="204.527987" style="fill: #1f77b4; stroke: #1f77b4"/>
     <use xlink:href="#m76fc8f10a3" x="393.363374" y="195.659459" style="fill: #1f77b4; stroke: #1f77b4"/>
     <use xlink:href="#m76fc8f10a3" x="398.143252" y="203.787985" style="fill: #1f77b4; stroke: #1f77b4"/>
     <use xlink:href="#m76fc8f10a3" x="402.923131" y="195.551957" style="fill: #1f77b4; stroke: #1f77b4"/>
     <use xlink:href="#m76fc8f10a3" x="407.703009" y="203.519181" style="fill: #1f77b4; stroke: #1f77b4"/>
     <use xlink:href="#m76fc8f10a3" x="412.482887" y="190.48397" style="fill: #1f77b4; stroke: #1f77b4"/>
     <use xlink:href="#m76fc8f10a3" x="417.262766" y="203.380401" style="fill: #1f77b4; stroke: #1f77b4"/>
     <use xlink:href="#m76fc8f10a3" x="422.042644" y="198.816535" style="fill: #1f77b4; stroke: #1f77b4"/>
     <use xlink:href="#m76fc8f10a3" x="426.822522" y="202.568067" style="fill: #1f77b4; stroke: #1f77b4"/>
     <use xlink:href="#m76fc8f10a3" x="431.602401" y="197.61241" style="fill: #1f77b4; stroke: #1f77b4"/>
     <use xlink:href="#m76fc8f10a3" x="436.382279" y="201.491131" style="fill: #1f77b4; stroke: #1f77b4"/>
     <use xlink:href="#m76fc8f10a3" x="441.162157" y="197.791504" style="fill: #1f77b4; stroke: #1f77b4"/>
     <use xlink:href="#m76fc8f10a3" x="445.942036" y="202.933406" style="fill: #1f77b4; stroke: #1f77b4"/>
     <use xlink:href="#m76fc8f10a3" x="450.721914" y="197.118129" style="fill: #1f77b4; stroke: #1f77b4"/>
     <use xlink:href="#m76fc8f10a3" x="455.501792" y="199.08968" style="fill: #1f77b4; stroke: #1f77b4"/>
     <use xlink:href="#m76fc8f10a3" x="460.281671" y="193.748121" style="fill: #1f77b4; stroke: #1f77b4"/>
     <use xlink:href="#m76fc8f10a3" x="465.061549" y="199.815423" style="fill: #1f77b4; stroke: #1f77b4"/>
     <use xlink:href="#m76fc8f10a3" x="469.841427" y="191.731944" style="fill: #1f77b4; stroke: #1f77b4"/>
     <use xlink:href="#m76fc8f10a3" x="474.621306" y="198.267329" style="fill: #1f77b4; stroke: #1f77b4"/>
     <use xlink:href="#m76fc8f10a3" x="479.401184" y="195.77064" style="fill: #1f77b4; stroke: #1f77b4"/>
     <use xlink:href="#m76fc8f10a3" x="484.181062" y="193.672675" style="fill: #1f77b4; stroke: #1f77b4"/>
     <use xlink:href="#m76fc8f10a3" x="488.960941" y="179.156789" style="fill: #1f77b4; stroke: #1f77b4"/>
     <use xlink:href="#m76fc8f10a3" x="493.740819" y="195.479064" style="fill: #1f77b4; stroke: #1f77b4"/>
     <use xlink:href="#m76fc8f10a3" x="498.520697" y="193.521844" style="fill: #1f77b4; stroke: #1f77b4"/>
     <use xlink:href="#m76fc8f10a3" x="503.300576" y="192.980448" style="fill: #1f77b4; stroke: #1f77b4"/>
     <use xlink:href="#m76fc8f10a3" x="508.080454" y="193.018946" style="fill: #1f77b4; stroke: #1f77b4"/>
     <use xlink:href="#m76fc8f10a3" x="512.860332" y="196.970383" style="fill: #1f77b4; stroke: #1f77b4"/>
     <use xlink:href="#m76fc8f10a3" x="517.640211" y="193.001254" style="fill: #1f77b4; stroke: #1f77b4"/>
     <use xlink:href="#m76fc8f10a3" x="522.420089" y="197.387705" style="fill: #1f77b4; stroke: #1f77b4"/>
     <use xlink:href="#m76fc8f10a3" x="527.199967" y="190.993733" style="fill: #1f77b4; stroke: #1f77b4"/>
     <use xlink:href="#m76fc8f10a3" x="531.979846" y="195.236989" style="fill: #1f77b4; stroke: #1f77b4"/>
     <use xlink:href="#m76fc8f10a3" x="536.759724" y="190.667269" style="fill: #1f77b4; stroke: #1f77b4"/>
     <use xlink:href="#m76fc8f10a3" x="541.539602" y="185.248228" style="fill: #1f77b4; stroke: #1f77b4"/>
    </g>
   </g>
   <g id="line2d_26">
    <path d="M 68.331648 223.106552 
L 73.111526 216.018464 
L 77.891404 216.575021 
L 82.671283 221.859979 
L 87.451161 218.142529 
L 92.231039 215.100804 
L 97.010918 172.46 
L 101.790796 213.403205 
L 106.570674 213.465938 
L 111.350553 212.861008 
L 116.130431 215.238534 
L 120.910309 222.870571 
L 125.690188 223.746308 
L 130.470066 226.651074 
L 135.249944 231.169441 
L 140.029823 211.867332 
L 144.809701 221.124111 
L 149.589579 219.533415 
L 154.369458 220.864203 
L 159.149336 199.174131 
L 163.929214 220.982529 
L 168.709093 219.957433 
L 173.488971 213.047353 
L 178.268849 219.542735 
L 183.048728 217.402627 
L 187.828606 218.942459 
L 192.608484 200.078239 
L 197.388363 218.983654 
L 202.168241 207.892176 
L 206.948119 217.752176 
L 211.727998 202.11771 
L 216.507876 218.459005 
L 221.287754 215.814355 
L 226.067633 218.105957 
L 230.847511 216.100428 
L 235.627389 218.16004 
L 240.407268 215.352233 
L 245.187146 217.506275 
L 249.967024 192.965873 
L 254.746903 212.807313 
L 259.526781 215.40141 
L 264.306659 217.165318 
L 269.086538 203.565733 
L 273.866416 218.643605 
L 278.646294 209.481431 
L 283.426173 215.001145 
L 288.206051 207.336147 
L 292.985929 216.954798 
L 297.765808 209.513033 
L 302.545686 213.357772 
L 307.325564 208.865822 
L 312.105442 210.012634 
L 316.885321 207.820023 
L 321.665199 210.482887 
L 326.445077 206.714575 
L 331.224956 203.659435 
L 336.004834 202.66047 
L 340.784712 205.79786 
L 345.564591 200.062726 
L 350.344469 196.747988 
L 355.124347 193.969114 
L 359.904226 201.080396 
L 364.684104 196.991222 
L 369.463982 188.967013 
L 374.243861 201.412144 
L 379.023739 202.238134 
L 383.803617 200.322212 
L 388.583496 196.998053 
L 393.363374 178.640022 
L 398.143252 198.188587 
L 402.923131 189.561472 
L 407.703009 197.871723 
L 412.482887 193.643738 
L 417.262766 197.748986 
L 422.042644 193.647241 
L 426.822522 197.180411 
L 431.602401 192.471767 
L 436.382279 196.124423 
L 441.162157 191.836572 
L 445.942036 197.32406 
L 450.721914 192.359753 
L 455.501792 191.143579 
L 460.281671 169.931012 
L 465.061549 191.348982 
L 469.841427 190.269176 
L 474.621306 184.606584 
L 479.401184 190.170365 
L 484.181062 193.182385 
L 488.960941 188.868793 
L 493.740819 188.604189 
L 498.520697 188.138528 
L 503.300576 188.903678 
L 508.080454 187.230461 
L 512.860332 191.462019 
L 517.640211 186.709773 
L 522.420089 182.668239 
L 527.199967 170.866012 
L 531.979846 175.219088 
L 536.759724 183.592349 
L 541.539602 189.546129 
" clip-path="url(#p71b072b5c5)" style="fill: none; stroke: #ff7f0e; stroke-width: 1.2; stroke-linecap: square"/>
    <defs>
     <path id="m69d71afd3b" d="M 0 1.25 
C 0.331504 1.25 0.649475 1.118292 0.883883 0.883883 
C 1.118292 0.649475 1.25 0.331504 1.25 0 
C 1.25 -0.331504 1.118292 -0.649475 0.883883 -0.883883 
C 0.649475 -1.118292 0.331504 -1.25 0 -1.25 
C -0.331504 -1.25 -0.649475 -1.118292 -0.883883 -0.883883 
C -1.118292 -0.649475 -1.25 -0.331504 -1.25 0 
C -1.25 0.331504 -1.118292 0.649475 -0.883883 0.883883 
C -0.649475 1.118292 -0.331504 1.25 0 1.25 
z
" style="stroke: #ff7f0e"/>
    </defs>
    <g clip-path="url(#p71b072b5c5)">
     <use xlink:href="#m69d71afd3b" x="68.331648" y="223.106552" style="fill: #ff7f0e; stroke: #ff7f0e"/>
     <use xlink:href="#m69d71afd3b" x="73.111526" y="216.018464" style="fill: #ff7f0e; stroke: #ff7f0e"/>
     <use xlink:href="#m69d71afd3b" x="77.891404" y="216.575021" style="fill: #ff7f0e; stroke: #ff7f0e"/>
     <use xlink:href="#m69d71afd3b" x="82.671283" y="221.859979" style="fill: #ff7f0e; stroke: #ff7f0e"/>
     <use xlink:href="#m69d71afd3b" x="87.451161" y="218.142529" style="fill: #ff7f0e; stroke: #ff7f0e"/>
     <use xlink:href="#m69d71afd3b" x="92.231039" y="215.100804" style="fill: #ff7f0e; stroke: #ff7f0e"/>
     <use xlink:href="#m69d71afd3b" x="97.010918" y="172.46" style="fill: #ff7f0e; stroke: #ff7f0e"/>
     <use xlink:href="#m69d71afd3b" x="101.790796" y="213.403205" style="fill: #ff7f0e; stroke: #ff7f0e"/>
     <use xlink:href="#m69d71afd3b" x="106.570674" y="213.465938" style="fill: #ff7f0e; stroke: #ff7f0e"/>
     <use xlink:href="#m69d71afd3b" x="111.350553" y="212.861008" style="fill: #ff7f0e; stroke: #ff7f0e"/>
     <use xlink:href="#m69d71afd3b" x="116.130431" y="215.238534" style="fill: #ff7f0e; stroke: #ff7f0e"/>
     <use xlink:href="#m69d71afd3b" x="120.910309" y="222.870571" style="fill: #ff7f0e; stroke: #ff7f0e"/>
     <use xlink:href="#m69d71afd3b" x="125.690188" y="223.746308" style="fill: #ff7f0e; stroke: #ff7f0e"/>
     <use xlink:href="#m69d71afd3b" x="130.470066" y="226.651074" style="fill: #ff7f0e; stroke: #ff7f0e"/>
     <use xlink:href="#m69d71afd3b" x="135.249944" y="231.169441" style="fill: #ff7f0e; stroke: #ff7f0e"/>
     <use xlink:href="#m69d71afd3b" x="140.029823" y="211.867332" style="fill: #ff7f0e; stroke: #ff7f0e"/>
     <use xlink:href="#m69d71afd3b" x="144.809701" y="221.124111" style="fill: #ff7f0e; stroke: #ff7f0e"/>
     <use xlink:href="#m69d71afd3b" x="149.589579" y="219.533415" style="fill: #ff7f0e; stroke: #ff7f0e"/>
     <use xlink:href="#m69d71afd3b" x="154.369458" y="220.864203" style="fill: #ff7f0e; stroke: #ff7f0e"/>
     <use xlink:href="#m69d71afd3b" x="159.149336" y="199.174131" style="fill: #ff7f0e; stroke: #ff7f0e"/>
     <use xlink:href="#m69d71afd3b" x="163.929214" y="220.982529" style="fill: #ff7f0e; stroke: #ff7f0e"/>
     <use xlink:href="#m69d71afd3b" x="168.709093" y="219.957433" style="fill: #ff7f0e; stroke: #ff7f0e"/>
     <use xlink:href="#m69d71afd3b" x="173.488971" y="213.047353" style="fill: #ff7f0e; stroke: #ff7f0e"/>
     <use xlink:href="#m69d71afd3b" x="178.268849" y="219.542735" style="fill: #ff7f0e; stroke: #ff7f0e"/>
     <use xlink:href="#m69d71afd3b" x="183.048728" y="217.402627" style="fill: #ff7f0e; stroke: #ff7f0e"/>
     <use xlink:href="#m69d71afd3b" x="187.828606" y="218.942459" style="fill: #ff7f0e; stroke: #ff7f0e"/>
     <use xlink:href="#m69d71afd3b" x="192.608484" y="200.078239" style="fill: #ff7f0e; stroke: #ff7f0e"/>
     <use xlink:href="#m69d71afd3b" x="197.388363" y="218.983654" style="fill: #ff7f0e; stroke: #ff7f0e"/>
     <use xlink:href="#m69d71afd3b" x="202.168241" y="207.892176" style="fill: #ff7f0e; stroke: #ff7f0e"/>
     <use xlink:href="#m69d71afd3b" x="206.948119" y="217.752176" style="fill: #ff7f0e; stroke: #ff7f0e"/>
     <use xlink:href="#m69d71afd3b" x="211.727998" y="202.11771" style="fill: #ff7f0e; stroke: #ff7f0e"/>
     <use xlink:href="#m69d71afd3b" x="216.507876" y="218.459005" style="fill: #ff7f0e; stroke: #ff7f0e"/>
     <use xlink:href="#m69d71afd3b" x="221.287754" y="215.814355" style="fill: #ff7f0e; stroke: #ff7f0e"/>
     <use xlink:href="#m69d71afd3b" x="226.067633" y="218.105957" style="fill: #ff7f0e; stroke: #ff7f0e"/>
     <use xlink:href="#m69d71afd3b" x="230.847511" y="216.100428" style="fill: #ff7f0e; stroke: #ff7f0e"/>
     <use xlink:href="#m69d71afd3b" x="235.627389" y="218.16004" style="fill: #ff7f0e; stroke: #ff7f0e"/>
     <use xlink:href="#m69d71afd3b" x="240.407268" y="215.352233" style="fill: #ff7f0e; stroke: #ff7f0e"/>
     <use xlink:href="#m69d71afd3b" x="245.187146" y="217.506275" style="fill: #ff7f0e; stroke: #ff7f0e"/>
     <use xlink:href="#m69d71afd3b" x="249.967024" y="192.965873" style="fill: #ff7f0e; stroke: #ff7f0e"/>
     <use xlink:href="#m69d71afd3b" x="254.746903" y="212.807313" style="fill: #ff7f0e; stroke: #ff7f0e"/>
     <use xlink:href="#m69d71afd3b" x="259.526781" y="215.40141" style="fill: #ff7f0e; stroke: #ff7f0e"/>
     <use xlink:href="#m69d71afd3b" x="264.306659" y="217.165318" style="fill: #ff7f0e; stroke: #ff7f0e"/>
     <use xlink:href="#m69d71afd3b" x="269.086538" y="203.565733" style="fill: #ff7f0e; stroke: #ff7f0e"/>
     <use xlink:href="#m69d71afd3b" x="273.866416" y="218.643605" style="fill: #ff7f0e; stroke: #ff7f0e"/>
     <use xlink:href="#m69d71afd3b" x="278.646294" y="209.481431" style="fill: #ff7f0e; stroke: #ff7f0e"/>
     <use xlink:href="#m69d71afd3b" x="283.426173" y="215.001145" style="fill: #ff7f0e; stroke: #ff7f0e"/>
     <use xlink:href="#m69d71afd3b" x="288.206051" y="207.336147" style="fill: #ff7f0e; stroke: #ff7f0e"/>
     <use xlink:href="#m69d71afd3b" x="292.985929" y="216.954798" style="fill: #ff7f0e; stroke: #ff7f0e"/>
     <use xlink:href="#m69d71afd3b" x="297.765808" y="209.513033" style="fill: #ff7f0e; stroke: #ff7f0e"/>
     <use xlink:href="#m69d71afd3b" x="302.545686" y="213.357772" style="fill: #ff7f0e; stroke: #ff7f0e"/>
     <use xlink:href="#m69d71afd3b" x="307.325564" y="208.865822" style="fill: #ff7f0e; stroke: #ff7f0e"/>
     <use xlink:href="#m69d71afd3b" x="312.105442" y="210.012634" style="fill: #ff7f0e; stroke: #ff7f0e"/>
     <use xlink:href="#m69d71afd3b" x="316.885321" y="207.820023" style="fill: #ff7f0e; stroke: #ff7f0e"/>
     <use xlink:href="#m69d71afd3b" x="321.665199" y="210.482887" style="fill: #ff7f0e; stroke: #ff7f0e"/>
     <use xlink:href="#m69d71afd3b" x="326.445077" y="206.714575" style="fill: #ff7f0e; stroke: #ff7f0e"/>
     <use xlink:href="#m69d71afd3b" x="331.224956" y="203.659435" style="fill: #ff7f0e; stroke: #ff7f0e"/>
     <use xlink:href="#m69d71afd3b" x="336.004834" y="202.66047" style="fill: #ff7f0e; stroke: #ff7f0e"/>
     <use xlink:href="#m69d71afd3b" x="340.784712" y="205.79786" style="fill: #ff7f0e; stroke: #ff7f0e"/>
     <use xlink:href="#m69d71afd3b" x="345.564591" y="200.062726" style="fill: #ff7f0e; stroke: #ff7f0e"/>
     <use xlink:href="#m69d71afd3b" x="350.344469" y="196.747988" style="fill: #ff7f0e; stroke: #ff7f0e"/>
     <use xlink:href="#m69d71afd3b" x="355.124347" y="193.969114" style="fill: #ff7f0e; stroke: #ff7f0e"/>
     <use xlink:href="#m69d71afd3b" x="359.904226" y="201.080396" style="fill: #ff7f0e; stroke: #ff7f0e"/>
     <use xlink:href="#m69d71afd3b" x="364.684104" y="196.991222" style="fill: #ff7f0e; stroke: #ff7f0e"/>
     <use xlink:href="#m69d71afd3b" x="369.463982" y="188.967013" style="fill: #ff7f0e; stroke: #ff7f0e"/>
     <use xlink:href="#m69d71afd3b" x="374.243861" y="201.412144" style="fill: #ff7f0e; stroke: #ff7f0e"/>
     <use xlink:href="#m69d71afd3b" x="379.023739" y="202.238134" style="fill: #ff7f0e; stroke: #ff7f0e"/>
     <use xlink:href="#m69d71afd3b" x="383.803617" y="200.322212" style="fill: #ff7f0e; stroke: #ff7f0e"/>
     <use xlink:href="#m69d71afd3b" x="388.583496" y="196.998053" style="fill: #ff7f0e; stroke: #ff7f0e"/>
     <use xlink:href="#m69d71afd3b" x="393.363374" y="178.640022" style="fill: #ff7f0e; stroke: #ff7f0e"/>
     <use xlink:href="#m69d71afd3b" x="398.143252" y="198.188587" style="fill: #ff7f0e; stroke: #ff7f0e"/>
     <use xlink:href="#m69d71afd3b" x="402.923131" y="189.561472" style="fill: #ff7f0e; stroke: #ff7f0e"/>
     <use xlink:href="#m69d71afd3b" x="407.703009" y="197.871723" style="fill: #ff7f0e; stroke: #ff7f0e"/>
     <use xlink:href="#m69d71afd3b" x="412.482887" y="193.643738" style="fill: #ff7f0e; stroke: #ff7f0e"/>
     <use xlink:href="#m69d71afd3b" x="417.262766" y="197.748986" style="fill: #ff7f0e; stroke: #ff7f0e"/>
     <use xlink:href="#m69d71afd3b" x="422.042644" y="193.647241" style="fill: #ff7f0e; stroke: #ff7f0e"/>
     <use xlink:href="#m69d71afd3b" x="426.822522" y="197.180411" style="fill: #ff7f0e; stroke: #ff7f0e"/>
     <use xlink:href="#m69d71afd3b" x="431.602401" y="192.471767" style="fill: #ff7f0e; stroke: #ff7f0e"/>
     <use xlink:href="#m69d71afd3b" x="436.382279" y="196.124423" style="fill: #ff7f0e; stroke: #ff7f0e"/>
     <use xlink:href="#m69d71afd3b" x="441.162157" y="191.836572" style="fill: #ff7f0e; stroke: #ff7f0e"/>
     <use xlink:href="#m69d71afd3b" x="445.942036" y="197.32406" style="fill: #ff7f0e; stroke: #ff7f0e"/>
     <use xlink:href="#m69d71afd3b" x="450.721914" y="192.359753" style="fill: #ff7f0e; stroke: #ff7f0e"/>
     <use xlink:href="#m69d71afd3b" x="455.501792" y="191.143579" style="fill: #ff7f0e; stroke: #ff7f0e"/>
     <use xlink:href="#m69d71afd3b" x="460.281671" y="169.931012" style="fill: #ff7f0e; stroke: #ff7f0e"/>
     <use xlink:href="#m69d71afd3b" x="465.061549" y="191.348982" style="fill: #ff7f0e; stroke: #ff7f0e"/>
     <use xlink:href="#m69d71afd3b" x="469.841427" y="190.269176" style="fill: #ff7f0e; stroke: #ff7f0e"/>
     <use xlink:href="#m69d71afd3b" x="474.621306" y="184.606584" style="fill: #ff7f0e; stroke: #ff7f0e"/>
     <use xlink:href="#m69d71afd3b" x="479.401184" y="190.170365" style="fill: #ff7f0e; stroke: #ff7f0e"/>
     <use xlink:href="#m69d71afd3b" x="484.181062" y="193.182385" style="fill: #ff7f0e; stroke: #ff7f0e"/>
     <use xlink:href="#m69d71afd3b" x="488.960941" y="188.868793" style="fill: #ff7f0e; stroke: #ff7f0e"/>
     <use xlink:href="#m69d71afd3b" x="493.740819" y="188.604189" style="fill: #ff7f0e; stroke: #ff7f0e"/>
     <use xlink:href="#m69d71afd3b" x="498.520697" y="188.138528" style="fill: #ff7f0e; stroke: #ff7f0e"/>
     <use xlink:href="#m69d71afd3b" x="503.300576" y="188.903678" style="fill: #ff7f0e; stroke: #ff7f0e"/>
     <use xlink:href="#m69d71afd3b" x="508.080454" y="187.230461" style="fill: #ff7f0e; stroke: #ff7f0e"/>
     <use xlink:href="#m69d71afd3b" x="512.860332" y="191.462019" style="fill: #ff7f0e; stroke: #ff7f0e"/>
     <use xlink:href="#m69d71afd3b" x="517.640211" y="186.709773" style="fill: #ff7f0e; stroke: #ff7f0e"/>
     <use xlink:href="#m69d71afd3b" x="522.420089" y="182.668239" style="fill: #ff7f0e; stroke: #ff7f0e"/>
     <use xlink:href="#m69d71afd3b" x="527.199967" y="170.866012" style="fill: #ff7f0e; stroke: #ff7f0e"/>
     <use xlink:href="#m69d71afd3b" x="531.979846" y="175.219088" style="fill: #ff7f0e; stroke: #ff7f0e"/>
     <use xlink:href="#m69d71afd3b" x="536.759724" y="183.592349" style="fill: #ff7f0e; stroke: #ff7f0e"/>
     <use xlink:href="#m69d71afd3b" x="541.539602" y="189.546129" style="fill: #ff7f0e; stroke: #ff7f0e"/>
    </g>
   </g>
   <g id="patch_3">
    <path d="M 44.67125 318.04 
L 44.67125 26.88 
" style="fill: none; stroke: #000000; stroke-width: 0.8; stroke-linejoin: miter; stroke-linecap: square"/>
   </g>
   <g id="patch_4">
    <path d="M 565.2 318.04 
L 565.2 26.88 
" style="fill: none; stroke: #000000; stroke-width: 0.8; stroke-linejoin: miter; stroke-linecap: square"/>
   </g>
   <g id="patch_5">
    <path d="M 44.67125 318.04 
L 565.2 318.04 
" style="fill: none; stroke: #000000; stroke-width: 0.8; stroke-linejoin: miter; stroke-linecap: square"/>
   </g>
   <g id="patch_6">
    <path d="M 44.67125 26.88 
L 565.2 26.88 
" style="fill: none; stroke: #000000; stroke-width: 0.8; stroke-linejoin: miter; stroke-linecap: square"/>
   </g>
   <g id="text_15">
    <!-- Verification latency vs draft length, context_len=512 -->
    <g transform="translate(146.370625 20.88) scale(0.12 -0.12)">
     <defs>
      <path id="DejaVuSans-56" d="M 1831 0 
L 50 4666 
L 709 4666 
L 2188 738 
L 3669 4666 
L 4325 4666 
L 2547 0 
L 1831 0 
z
" transform="scale(0.015625)"/>
      <path id="DejaVuSans-69" d="M 603 3500 
L 1178 3500 
L 1178 0 
L 603 0 
L 603 3500 
z
M 603 4863 
L 1178 4863 
L 1178 4134 
L 603 4134 
L 603 4863 
z
" transform="scale(0.015625)"/>
      <path id="DejaVuSans-6f" d="M 1959 3097 
Q 1497 3097 1228 2736 
Q 959 2375 959 1747 
Q 959 1119 1226 758 
Q 1494 397 1959 397 
Q 2419 397 2687 759 
Q 2956 1122 2956 1747 
Q 2956 2369 2687 2733 
Q 2419 3097 1959 3097 
z
M 1959 3584 
Q 2709 3584 3137 3096 
Q 3566 2609 3566 1747 
Q 3566 888 3137 398 
Q 2709 -91 1959 -91 
Q 1206 -91 779 398 
Q 353 888 353 1747 
Q 353 2609 779 3096 
Q 1206 3584 1959 3584 
z
" transform="scale(0.015625)"/>
      <path id="DejaVuSans-79" d="M 2059 -325 
Q 1816 -950 1584 -1140 
Q 1353 -1331 966 -1331 
L 506 -1331 
L 506 -850 
L 844 -850 
Q 1081 -850 1212 -737 
Q 1344 -625 1503 -206 
L 1606 56 
L 191 3500 
L 800 3500 
L 1894 763 
L 2988 3500 
L 3597 3500 
L 2059 -325 
z
" transform="scale(0.015625)"/>
      <path id="DejaVuSans-76" d="M 191 3500 
L 800 3500 
L 1894 563 
L 2988 3500 
L 3597 3500 
L 2284 0 
L 1503 0 
L 191 3500 
z
" transform="scale(0.015625)"/>
      <path id="DejaVuSans-2c" d="M 750 794 
L 1409 794 
L 1409 256 
L 897 -744 
L 494 -744 
L 750 256 
L 750 794 
z
" transform="scale(0.015625)"/>
      <path id="DejaVuSans-78" d="M 3513 3500 
L 2247 1797 
L 3578 0 
L 2900 0 
L 1881 1375 
L 863 0 
L 184 0 
L 1544 1831 
L 300 3500 
L 978 3500 
L 1906 2253 
L 2834 3500 
L 3513 3500 
z
" transform="scale(0.015625)"/>
      <path id="DejaVuSans-3d" d="M 678 2906 
L 4684 2906 
L 4684 2381 
L 678 2381 
L 678 2906 
z
M 678 1631 
L 4684 1631 
L 4684 1100 
L 678 1100 
L 678 1631 
z
" transform="scale(0.015625)"/>
     </defs>
     <use xlink:href="#DejaVuSans-56"/>
     <use xlink:href="#DejaVuSans-65" transform="translate(60.658203 0)"/>
     <use xlink:href="#DejaVuSans-72" transform="translate(122.181641 0)"/>
     <use xlink:href="#DejaVuSans-69" transform="translate(163.294922 0)"/>
     <use xlink:href="#DejaVuSans-66" transform="translate(191.078125 0)"/>
     <use xlink:href="#DejaVuSans-69" transform="translate(226.283203 0)"/>
     <use xlink:href="#DejaVuSans-63" transform="translate(254.066406 0)"/>
     <use xlink:href="#DejaVuSans-61" transform="translate(309.046875 0)"/>
     <use xlink:href="#DejaVuSans-74" transform="translate(370.326172 0)"/>
     <use xlink:href="#DejaVuSans-69" transform="translate(409.535156 0)"/>
     <use xlink:href="#DejaVuSans-6f" transform="translate(437.318359 0)"/>
     <use xlink:href="#DejaVuSans-6e" transform="translate(498.5 0)"/>
     <use xlink:href="#DejaVuSans-20" transform="translate(561.878906 0)"/>
     <use xlink:href="#DejaVuSans-6c" transform="translate(593.666016 0)"/>
     <use xlink:href="#DejaVuSans-61" transform="translate(621.449219 0)"/>
     <use xlink:href="#DejaVuSans-74" transform="translate(682.728516 0)"/>
     <use xlink:href="#DejaVuSans-65" transform="translate(721.9375 0)"/>
     <use xlink:href="#DejaVuSans-6e" transform="translate(783.460938 0)"/>
     <use xlink:href="#DejaVuSans-63" transform="translate(846.839844 0)"/>
     <use xlink:href="#DejaVuSans-79" transform="translate(901.820312 0)"/>
     <use xlink:href="#DejaVuSans-20" transform="translate(961 0)"/>
     <use xlink:href="#DejaVuSans-76" transform="translate(992.787109 0)"/>
     <use xlink:href="#DejaVuSans-73" transform="translate(1051.966797 0)"/>
     <use xlink:href="#DejaVuSans-20" transform="translate(1104.066406 0)"/>
     <use xlink:href="#DejaVuSans-64" transform="translate(1135.853516 0)"/>
     <use xlink:href="#DejaVuSans-72" transform="translate(1199.330078 0)"/>
     <use xlink:href="#DejaVuSans-61" transform="translate(1240.443359 0)"/>
     <use xlink:href="#DejaVuSans-66" transform="translate(1301.722656 0)"/>
     <use xlink:href="#DejaVuSans-74" transform="translate(1335.177734 0)"/>
     <use xlink:href="#DejaVuSans-20" transform="translate(1374.386719 0)"/>
     <use xlink:href="#DejaVuSans-6c" transform="translate(1406.173828 0)"/>
     <use xlink:href="#DejaVuSans-65" transform="translate(1433.957031 0)"/>
     <use xlink:href="#DejaVuSans-6e" transform="translate(1495.480469 0)"/>
     <use xlink:href="#DejaVuSans-67" transform="translate(1558.859375 0)"/>
     <use xlink:href="#DejaVuSans-74" transform="translate(1622.335938 0)"/>
     <use xlink:href="#DejaVuSans-68" transform="translate(1661.544922 0)"/>
     <use xlink:href="#DejaVuSans-2c" transform="translate(1724.923828 0)"/>
     <use xlink:href="#DejaVuSans-20" transform="translate(1756.710938 0)"/>
     <use xlink:href="#DejaVuSans-63" transform="translate(1788.498047 0)"/>
     <use xlink:href="#DejaVuSans-6f" transform="translate(1843.478516 0)"/>
     <use xlink:href="#DejaVuSans-6e" transform="translate(1904.660156 0)"/>
     <use xlink:href="#DejaVuSans-74" transform="translate(1968.039062 0)"/>
     <use xlink:href="#DejaVuSans-65" transform="translate(2007.248047 0)"/>
     <use xlink:href="#DejaVuSans-78" transform="translate(2067.021484 0)"/>
     <use xlink:href="#DejaVuSans-74" transform="translate(2126.201172 0)"/>
     <use xlink:href="#DejaVuSans-5f" transform="translate(2165.410156 0)"/>
     <use xlink:href="#DejaVuSans-6c" transform="translate(2215.410156 0)"/>
     <use xlink:href="#DejaVuSans-65" transform="translate(2243.193359 0)"/>
     <use xlink:href="#DejaVuSans-6e" transform="translate(2304.716797 0)"/>
     <use xlink:href="#DejaVuSans-3d" transform="translate(2368.095703 0)"/>
     <use xlink:href="#DejaVuSans-35" transform="translate(2451.884766 0)"/>
     <use xlink:href="#DejaVuSans-31" transform="translate(2515.507812 0)"/>
     <use xlink:href="#DejaVuSans-32" transform="translate(2579.130859 0)"/>
    </g>
   </g>
   <g id="legend_1">
    <g id="patch_7">
     <path d="M 414.221875 64.7925 
L 558.2 64.7925 
Q 560.2 64.7925 560.2 62.7925 
L 560.2 33.88 
Q 560.2 31.88 558.2 31.88 
L 414.221875 31.88 
Q 412.221875 31.88 412.221875 33.88 
L 412.221875 62.7925 
Q 412.221875 64.7925 414.221875 64.7925 
z
" style="fill: #ffffff; opacity: 0.8; stroke: #cccccc; stroke-linejoin: miter"/>
    </g>
    <g id="line2d_27">
     <path d="M 416.221875 39.978437 
L 426.221875 39.978437 
L 436.221875 39.978437 
" style="fill: none; stroke: #1f77b4; stroke-width: 1.2; stroke-linecap: square"/>
     <g>
      <use xlink:href="#m76fc8f10a3" x="426.221875" y="39.978437" style="fill: #1f77b4; stroke: #1f77b4"/>
     </g>
    </g>
    <g id="text_16">
     <!-- target_only -->
     <g transform="translate(444.221875 43.478437) scale(0.1 -0.1)">
      <use xlink:href="#DejaVuSans-74"/>
      <use xlink:href="#DejaVuSans-61" transform="translate(39.208984 0)"/>
      <use xlink:href="#DejaVuSans-72" transform="translate(100.488281 0)"/>
      <use xlink:href="#DejaVuSans-67" transform="translate(139.851562 0)"/>
      <use xlink:href="#DejaVuSans-65" transform="translate(203.328125 0)"/>
      <use xlink:href="#DejaVuSans-74" transform="translate(264.851562 0)"/>
      <use xlink:href="#DejaVuSans-5f" transform="translate(304.060547 0)"/>
      <use xlink:href="#DejaVuSans-6f" transform="translate(354.060547 0)"/>
      <use xlink:href="#DejaVuSans-6e" transform="translate(415.242188 0)"/>
      <use xlink:href="#DejaVuSans-6c" transform="translate(478.621094 0)"/>
      <use xlink:href="#DejaVuSans-79" transform="translate(506.404297 0)"/>
     </g>
    </g>
    <g id="line2d_28">
     <path d="M 416.221875 54.934687 
L 426.221875 54.934687 
L 436.221875 54.934687 
" style="fill: none; stroke: #ff7f0e; stroke-width: 1.2; stroke-linecap: square"/>
     <g>
      <use xlink:href="#m69d71afd3b" x="426.221875" y="54.934687" style="fill: #ff7f0e; stroke: #ff7f0e"/>
     </g>
    </g>
    <g id="text_17">
     <!-- classic_spec_sampling -->
     <g transform="translate(444.221875 58.434687) scale(0.1 -0.1)">
      <defs>
       <path id="DejaVuSans-70" d="M 1159 525 
L 1159 -1331 
L 581 -1331 
L 581 3500 
L 1159 3500 
L 1159 2969 
Q 1341 3281 1617 3432 
Q 1894 3584 2278 3584 
Q 2916 3584 3314 3078 
Q 3713 2572 3713 1747 
Q 3713 922 3314 415 
Q 2916 -91 2278 -91 
Q 1894 -91 1617 61 
Q 1341 213 1159 525 
z
M 3116 1747 
Q 3116 2381 2855 2742 
Q 2594 3103 2138 3103 
Q 1681 3103 1420 2742 
Q 1159 2381 1159 1747 
Q 1159 1113 1420 752 
Q 1681 391 2138 391 
Q 2594 391 2855 752 
Q 3116 1113 3116 1747 
z
" transform="scale(0.015625)"/>
      </defs>
      <use xlink:href="#DejaVuSans-63"/>
      <use xlink:href="#DejaVuSans-6c" transform="translate(54.980469 0)"/>
      <use xlink:href="#DejaVuSans-61" transform="translate(82.763672 0)"/>
      <use xlink:href="#DejaVuSans-73" transform="translate(144.042969 0)"/>
      <use xlink:href="#DejaVuSans-73" transform="translate(196.142578 0)"/>
      <use xlink:href="#DejaVuSans-69" transform="translate(248.242188 0)"/>
      <use xlink:href="#DejaVuSans-63" transform="translate(276.025391 0)"/>
      <use xlink:href="#DejaVuSans-5f" transform="translate(331.005859 0)"/>
      <use xlink:href="#DejaVuSans-73" transform="translate(381.005859 0)"/>
      <use xlink:href="#DejaVuSans-70" transform="translate(433.105469 0)"/>
      <use xlink:href="#DejaVuSans-65" transform="translate(496.582031 0)"/>
      <use xlink:href="#DejaVuSans-63" transform="translate(558.105469 0)"/>
      <use xlink:href="#DejaVuSans-5f" transform="translate(613.085938 0)"/>
      <use xlink:href="#DejaVuSans-73" transform="translate(663.085938 0)"/>
      <use xlink:href="#DejaVuSans-61" transform="translate(715.185547 0)"/>
      <use xlink:href="#DejaVuSans-6d" transform="translate(776.464844 0)"/>
      <use xlink:href="#DejaVuSans-70" transform="translate(873.876953 0)"/>
      <use xlink:href="#DejaVuSans-6c" transform="translate(937.353516 0)"/>
      <use xlink:href="#DejaVuSans-69" transform="translate(965.136719 0)"/>
      <use xlink:href="#DejaVuSans-6e" transform="translate(992.919922 0)"/>
      <use xlink:href="#DejaVuSans-67" transform="translate(1056.298828 0)"/>
     </g>
    </g>
   </g>
  </g>
 </g>
 <defs>
  <clipPath id="p71b072b5c5">
   <rect x="44.67125" y="26.88" width="520.52875" height="291.16"/>
  </clipPath>
 </defs>
</svg>
