<?xml version="1.0" encoding="utf-8" standalone="no"?>
<!DOCTYPE svg PUBLIC "-//W3C//DTD SVG 1.1//EN"
  "http://www.w3.org/Graphics/SVG/1.1/DTD/svg11.dtd">
<svg xmlns:xlink="http://www.w3.org/1999/xlink" width="576pt" height="360pt" viewBox="0 0 576 360" xmlns="http://www.w3.org/2000/svg" version="1.1">
 <metadata>
  <rdf:RDF xmlns:dc="http://purl.org/dc/elements/1.1/" xmlns:cc="http://creativecommons.org/ns#" xmlns:rdf="http://www.w3.org/1999/02/22-rdf-syntax-ns#">
   <cc:Work>
    <dc:type rdf:resource="http://purl.org/dc/dcmitype/StillImage"/>
    <dc:date>2026-05-18T00:00:01.672049</dc:date>
    <dc:format>image/svg+xml</dc:format>
    <dc:creator>
     <cc:Agent>
      <dc:title>Matplotlib v3.10.9, https://matplotlib.org/</dc:title>
     </cc:Agent>
    </dc:creator>
   </cc:Work>
  </rdf:RDF>
 </metadata>
 <defs>
  <style type="text/css">*{stroke-linejoin: round; stroke-linecap: butt}</style>
 </defs>
 <g id="figure_1">
  <g id="patch_1">
   <path d="M 0 360 
L 576 360 
L 576 0 
L 0 0 
z
" style="fill: #ffffff"/>
  </g>
  <g id="axes_1">
   <g id="patch_2">
    <path d="M 44.67125 318.04 
L 565.2 318.04 
L 565.2 26.88 
L 44.67125 26.88 
z
" style="fill: #ffffff"/>
   </g>
   <g id="FillBetweenPolyCollection_1">
    <path d="M 68.331648 213.787436 
L 68.331648 231.2614 
L 73.111526 229.215706 
L 77.891404 226.151027 
L 82.671283 230.217731 
L 87.451161 228.303317 
L 92.231039 229.660041 
L 97.010918 228.147674 
L 101.790796 250.460681 
L 106.570674 228.306861 
L 111.350553 229.893052 
L 116.130431 233.40712 
L 120.910309 240.0826 
L 125.690188 226.744476 
L 130.470066 226.37106 
L 135.249944 224.123825 
L 140.029823 245.049316 
L 144.809701 220.617232 
L 149.589579 221.14477 
L 154.369458 224.741934 
L 159.149336 220.289117 
L 163.929214 219.746258 
L 168.709093 245.011314 
L 173.488971 219.856264 
L 178.268849 222.278688 
L 183.048728 219.661007 
L 187.828606 220.348391 
L 192.608484 220.244522 
L 197.388363 220.923551 
L 202.168241 232.135435 
L 206.948119 219.141916 
L 211.727998 219.43803 
L 216.507876 220.15279 
L 221.287754 219.560703 
L 226.067633 220.604917 
L 230.847511 228.19988 
L 235.627389 220.289571 
L 240.407268 218.582837 
L 245.187146 219.838625 
L 249.967024 216.274505 
L 254.746903 217.654249 
L 259.526781 215.940212 
L 264.306659 217.136055 
L 269.086538 216.748123 
L 273.866416 216.621358 
L 278.646294 215.943004 
L 283.426173 227.529569 
L 288.206051 231.567655 
L 292.985929 222.271144 
L 297.765808 214.627139 
L 302.545686 215.099136 
L 307.325564 214.014413 
L 312.105442 251.697679 
L 316.885321 207.983639 
L 321.665199 242.418892 
L 326.445077 203.735488 
L 331.224956 200.747471 
L 336.004834 201.779308 
L 340.784712 194.424525 
L 345.564591 231.857183 
L 350.344469 218.188221 
L 355.124347 203.221422 
L 359.904226 204.509092 
L 364.684104 206.863006 
L 369.463982 210.797605 
L 374.243861 208.537276 
L 379.023739 210.31775 
L 383.803617 209.062526 
L 388.583496 202.407175 
L 393.363374 200.665647 
L 398.143252 201.487493 
L 402.923131 200.299569 
L 407.703009 210.85651 
L 412.482887 200.825878 
L 417.262766 210.889897 
L 422.042644 201.814855 
L 426.822522 202.809838 
L 431.602401 201.625784 
L 436.382279 202.260109 
L 441.162157 201.609235 
L 445.942036 206.310011 
L 450.721914 211.553731 
L 455.501792 200.545613 
L 460.281671 199.612248 
L 465.061549 200.002286 
L 469.841427 201.735094 
L 474.621306 240.539264 
L 479.401184 197.556628 
L 484.181062 198.490342 
L 488.960941 197.999453 
L 493.740819 198.52797 
L 498.520697 210.530003 
L 503.300576 206.345009 
L 508.080454 208.251225 
L 512.860332 197.13434 
L 517.640211 196.862319 
L 522.420089 197.614263 
L 527.199967 203.806162 
L 531.979846 197.488314 
L 536.759724 232.655311 
L 541.539602 194.315891 
L 541.539602 187.579992 
L 541.539602 187.579992 
L 536.759724 98.702384 
L 531.979846 194.876635 
L 527.199967 180.029525 
L 522.420089 196.942753 
L 517.640211 195.601953 
L 512.860332 196.270255 
L 508.080454 173.345744 
L 503.300576 180.025655 
L 498.520697 171.766275 
L 493.740819 197.367964 
L 488.960941 197.062171 
L 484.181062 195.556798 
L 479.401184 196.543404 
L 474.621306 108.169342 
L 469.841427 193.308784 
L 465.061549 198.218434 
L 460.281671 198.04159 
L 455.501792 198.565413 
L 450.721914 176.165296 
L 445.942036 187.187693 
L 441.162157 200.517586 
L 436.382279 200.625363 
L 431.602401 200.203555 
L 426.822522 200.450155 
L 422.042644 200.607834 
L 417.262766 171.826616 
L 412.482887 199.634054 
L 407.703009 182.339642 
L 402.923131 196.979339 
L 398.143252 200.052424 
L 393.363374 199.528113 
L 388.583496 201.101479 
L 383.803617 207.546495 
L 379.023739 207.927141 
L 374.243861 207.156459 
L 369.463982 203.569871 
L 364.684104 200.364275 
L 359.904226 196.190775 
L 355.124347 183.467107 
L 350.344469 136.350757 
L 345.564591 111.964367 
L 340.784712 190.634644 
L 336.004834 191.029671 
L 331.224956 192.784119 
L 326.445077 196.569669 
L 321.665199 135.004672 
L 316.885321 201.841891 
L 312.105442 111.600509 
L 307.325564 203.312443 
L 302.545686 214.100497 
L 297.765808 213.132208 
L 292.985929 202.215557 
L 288.206051 179.969822 
L 283.426173 192.73605 
L 278.646294 214.247863 
L 273.866416 215.192057 
L 269.086538 213.222767 
L 264.306659 215.920374 
L 259.526781 214.654694 
L 254.746903 216.50194 
L 249.967024 215.275128 
L 245.187146 218.172322 
L 240.407268 217.016263 
L 235.627389 218.420037 
L 230.847511 199.038304 
L 226.067633 218.350667 
L 221.287754 215.569755 
L 216.507876 218.809423 
L 211.727998 215.511056 
L 206.948119 218.06365 
L 202.168241 191.796699 
L 197.388363 219.625705 
L 192.608484 218.78773 
L 187.828606 219.004535 
L 183.048728 218.716746 
L 178.268849 213.47477 
L 173.488971 218.546597 
L 168.709093 172.057854 
L 163.929214 217.015105 
L 159.149336 219.214695 
L 154.369458 206.723377 
L 149.589579 215.434512 
L 144.809701 219.597792 
L 140.029823 181.509517 
L 135.249944 222.023456 
L 130.470066 223.705207 
L 125.690188 224.636352 
L 120.910309 202.558805 
L 116.130431 212.309835 
L 111.350553 222.54123 
L 106.570674 227.03511 
L 101.790796 183.552144 
L 97.010918 225.051062 
L 92.231039 224.722124 
L 87.451161 225.538605 
L 82.671283 225.616664 
L 77.891404 221.630813 
L 73.111526 205.963811 
L 68.331648 213.787436 
z
" clip-path="url(#p36b1b16f86)" style="fill: #1f77b4; fill-opacity: 0.15"/>
   </g>
   <g id="FillBetweenPolyCollection_2">
    <path d="M 68.331648 208.661216 
L 68.331648 228.902728 
L 73.111526 221.112196 
L 77.891404 221.577032 
L 82.671283 244.33521 
L 87.451161 223.913495 
L 92.231039 224.955121 
L 97.010918 223.630827 
L 101.790796 225.249465 
L 106.570674 224.034815 
L 111.350553 234.846222 
L 116.130431 221.714127 
L 120.910309 224.646112 
L 125.690188 222.43222 
L 130.470066 220.480024 
L 135.249944 218.898763 
L 140.029823 221.615216 
L 144.809701 230.252009 
L 149.589579 232.857573 
L 154.369458 215.252494 
L 159.149336 216.47043 
L 163.929214 215.013236 
L 168.709093 215.778436 
L 173.488971 215.091054 
L 178.268849 233.114305 
L 183.048728 304.805455 
L 187.828606 215.454809 
L 192.608484 215.889137 
L 197.388363 219.188156 
L 202.168241 236.110993 
L 206.948119 215.351319 
L 211.727998 219.732571 
L 216.507876 219.27535 
L 221.287754 215.66808 
L 226.067633 217.440765 
L 230.847511 215.139643 
L 235.627389 223.168248 
L 240.407268 263.680881 
L 245.187146 227.026429 
L 249.967024 212.952464 
L 254.746903 220.186341 
L 259.526781 218.058638 
L 264.306659 213.682879 
L 269.086538 244.685057 
L 273.866416 213.732264 
L 278.646294 213.101841 
L 283.426173 223.147494 
L 288.206051 210.963605 
L 292.985929 211.036669 
L 297.765808 209.976483 
L 302.545686 210.961326 
L 307.325564 202.340521 
L 312.105442 204.366684 
L 316.885321 205.997812 
L 321.665199 208.146122 
L 326.445077 196.437422 
L 331.224956 204.880025 
L 336.004834 199.505651 
L 340.784712 202.722422 
L 345.564591 188.146167 
L 350.344469 200.97364 
L 355.124347 190.677743 
L 359.904226 198.594983 
L 364.684104 203.527632 
L 369.463982 206.232825 
L 374.243861 206.572371 
L 379.023739 205.546333 
L 383.803617 204.889394 
L 388.583496 197.694236 
L 393.363374 196.195176 
L 398.143252 209.237213 
L 402.923131 195.512571 
L 407.703009 197.093848 
L 412.482887 196.422043 
L 417.262766 197.729929 
L 422.042644 197.256764 
L 426.822522 197.705765 
L 431.602401 196.945075 
L 436.382279 199.896381 
L 441.162157 210.433454 
L 445.942036 196.526707 
L 450.721914 208.266169 
L 455.501792 195.847021 
L 460.281671 195.573808 
L 465.061549 200.097214 
L 469.841427 195.464671 
L 474.621306 193.673974 
L 479.401184 193.428996 
L 484.181062 199.336787 
L 488.960941 193.904881 
L 493.740819 211.102963 
L 498.520697 193.168531 
L 503.300576 229.67239 
L 508.080454 192.636915 
L 512.860332 193.212579 
L 517.640211 201.039693 
L 522.420089 193.693616 
L 527.199967 198.032398 
L 531.979846 192.346602 
L 536.759724 188.902809 
L 541.539602 188.100243 
L 541.539602 177.919364 
L 541.539602 177.919364 
L 536.759724 183.822417 
L 531.979846 191.370467 
L 527.199967 175.493069 
L 522.420089 192.198005 
L 517.640211 166.042274 
L 512.860332 191.83189 
L 508.080454 190.67827 
L 503.300576 121.86018 
L 498.520697 191.636533 
L 493.740819 158.750493 
L 488.960941 191.115627 
L 484.181062 179.989778 
L 479.401184 190.889204 
L 474.621306 191.722066 
L 469.841427 192.180968 
L 465.061549 181.496105 
L 460.281671 192.333408 
L 455.501792 192.590438 
L 450.721914 168.879212 
L 445.942036 194.894521 
L 441.162157 169.197404 
L 436.382279 190.633762 
L 431.602401 195.88021 
L 426.822522 196.43938 
L 422.042644 195.225382 
L 417.262766 196.127055 
L 412.482887 195.215273 
L 407.703009 194.790819 
L 402.923131 191.459808 
L 398.143252 172.111864 
L 393.363374 195.062002 
L 388.583496 195.85385 
L 383.803617 202.711096 
L 379.023739 204.268856 
L 374.243861 195.880139 
L 369.463982 198.425137 
L 364.684104 195.913874 
L 359.904226 191.340605 
L 355.124347 187.116505 
L 350.344469 161.757196 
L 345.564591 185.857745 
L 340.784712 153.673128 
L 336.004834 163.445333 
L 331.224956 159.384129 
L 326.445077 186.272452 
L 321.665199 191.854368 
L 316.885321 193.073722 
L 312.105442 184.398566 
L 307.325564 195.971574 
L 302.545686 208.263148 
L 297.765808 208.405676 
L 292.985929 209.803779 
L 288.206051 208.494354 
L 283.426173 181.79325 
L 278.646294 203.822528 
L 273.866416 204.989928 
L 269.086538 148.643824 
L 264.306659 211.83302 
L 259.526781 196.72883 
L 254.746903 200.572836 
L 249.967024 210.269482 
L 245.187146 190.701234 
L 240.407268 119.667292 
L 235.627389 202.256098 
L 230.847511 213.553456 
L 226.067633 215.38666 
L 221.287754 214.09275 
L 216.507876 207.906003 
L 211.727998 200.859873 
L 206.948119 212.270768 
L 202.168241 170.791795 
L 197.388363 207.320182 
L 192.608484 214.11635 
L 187.828606 214.666614 
L 183.048728 40.114545 
L 178.268849 180.566057 
L 173.488971 214.053956 
L 168.709093 213.666745 
L 163.929214 213.966352 
L 159.149336 211.11687 
L 154.369458 213.193439 
L 149.589579 180.418865 
L 144.809701 187.440458 
L 140.029823 212.838754 
L 135.249944 215.4232 
L 130.470066 216.528932 
L 125.690188 216.700422 
L 120.910309 212.871583 
L 116.130431 218.830473 
L 111.350553 196.147579 
L 106.570674 222.707502 
L 101.790796 217.604921 
L 97.010918 220.422225 
L 92.231039 217.893647 
L 87.451161 221.706525 
L 82.671283 183.925589 
L 77.891404 218.704616 
L 73.111526 218.030366 
L 68.331648 208.661216 
z
" clip-path="url(#p36b1b16f86)" style="fill: #ff7f0e; fill-opacity: 0.15"/>
   </g>
   <g id="matplotlib.axis_1">
    <g id="xtick_1">
     <g id="line2d_1">
      <path d="M 63.551769 318.04 
L 63.551769 26.88 
" clip-path="url(#p36b1b16f86)" style="fill: none; stroke: #b0b0b0; stroke-opacity: 0.3; stroke-width: 0.8; stroke-linecap: square"/>
     </g>
     <g id="line2d_2">
      <defs>
       <path id="m2ddd148e40" d="M 0 0 
L 0 3.5 
" style="stroke: #000000; stroke-width: 0.8"/>
      </defs>
      <g>
       <use xlink:href="#m2ddd148e40" x="63.551769" y="318.04" style="stroke: #000000; stroke-width: 0.8"/>
      </g>
     </g>
     <g id="text_1">
      <!-- 0 -->
      <g transform="translate(60.370519 332.638438) scale(0.1 -0.1)">
       <defs>
        <path id="DejaVuSans-30" d="M 2034 4250 
Q 1547 4250 1301 3770 
Q 1056 3291 1056 2328 
Q 1056 1369 1301 889 
Q 1547 409 2034 409 
Q 2525 409 2770 889 
Q 3016 1369 3016 2328 
Q 3016 3291 2770 3770 
Q 2525 4250 2034 4250 
z
M 2034 4750 
Q 2819 4750 3233 4129 
Q 3647 3509 3647 2328 
Q 3647 1150 3233 529 
Q 2819 -91 2034 -91 
Q 1250 -91 836 529 
Q 422 1150 422 2328 
Q 422 3509 836 4129 
Q 1250 4750 2034 4750 
z
" transform="scale(0.015625)"/>
       </defs>
       <use xlink:href="#DejaVuSans-30"/>
      </g>
     </g>
    </g>
    <g id="xtick_2">
     <g id="line2d_3">
      <path d="M 159.149336 318.04 
L 159.149336 26.88 
" clip-path="url(#p36b1b16f86)" style="fill: none; stroke: #b0b0b0; stroke-opacity: 0.3; stroke-width: 0.8; stroke-linecap: square"/>
     </g>
     <g id="line2d_4">
      <g>
       <use xlink:href="#m2ddd148e40" x="159.149336" y="318.04" style="stroke: #000000; stroke-width: 0.8"/>
      </g>
     </g>
     <g id="text_2">
      <!-- 20 -->
      <g transform="translate(152.786836 332.638438) scale(0.1 -0.1)">
       <defs>
        <path id="DejaVuSans-32" d="M 1228 531 
L 3431 531 
L 3431 0 
L 469 0 
L 469 531 
Q 828 903 1448 1529 
Q 2069 2156 2228 2338 
Q 2531 2678 2651 2914 
Q 2772 3150 2772 3378 
Q 2772 3750 2511 3984 
Q 2250 4219 1831 4219 
Q 1534 4219 1204 4116 
Q 875 4013 500 3803 
L 500 4441 
Q 881 4594 1212 4672 
Q 1544 4750 1819 4750 
Q 2544 4750 2975 4387 
Q 3406 4025 3406 3419 
Q 3406 3131 3298 2873 
Q 3191 2616 2906 2266 
Q 2828 2175 2409 1742 
Q 1991 1309 1228 531 
z
" transform="scale(0.015625)"/>
       </defs>
       <use xlink:href="#DejaVuSans-32"/>
       <use xlink:href="#DejaVuSans-30" transform="translate(63.623047 0)"/>
      </g>
     </g>
    </g>
    <g id="xtick_3">
     <g id="line2d_5">
      <path d="M 254.746903 318.04 
L 254.746903 26.88 
" clip-path="url(#p36b1b16f86)" style="fill: none; stroke: #b0b0b0; stroke-opacity: 0.3; stroke-width: 0.8; stroke-linecap: square"/>
     </g>
     <g id="line2d_6">
      <g>
       <use xlink:href="#m2ddd148e40" x="254.746903" y="318.04" style="stroke: #000000; stroke-width: 0.8"/>
      </g>
     </g>
     <g id="text_3">
      <!-- 40 -->
      <g transform="translate(248.384403 332.638438) scale(0.1 -0.1)">
       <defs>
        <path id="DejaVuSans-34" d="M 2419 4116 
L 825 1625 
L 2419 1625 
L 2419 4116 
z
M 2253 4666 
L 3047 4666 
L 3047 1625 
L 3713 1625 
L 3713 1100 
L 3047 1100 
L 3047 0 
L 2419 0 
L 2419 1100 
L 313 1100 
L 313 1709 
L 2253 4666 
z
" transform="scale(0.015625)"/>
       </defs>
       <use xlink:href="#DejaVuSans-34"/>
       <use xlink:href="#DejaVuSans-30" transform="translate(63.623047 0)"/>
      </g>
     </g>
    </g>
    <g id="xtick_4">
     <g id="line2d_7">
      <path d="M 350.344469 318.04 
L 350.344469 26.88 
" clip-path="url(#p36b1b16f86)" style="fill: none; stroke: #b0b0b0; stroke-opacity: 0.3; stroke-width: 0.8; stroke-linecap: square"/>
     </g>
     <g id="line2d_8">
      <g>
       <use xlink:href="#m2ddd148e40" x="350.344469" y="318.04" style="stroke: #000000; stroke-width: 0.8"/>
      </g>
     </g>
     <g id="text_4">
      <!-- 60 -->
      <g transform="translate(343.981969 332.638438) scale(0.1 -0.1)">
       <defs>
        <path id="DejaVuSans-36" d="M 2113 2584 
Q 1688 2584 1439 2293 
Q 1191 2003 1191 1497 
Q 1191 994 1439 701 
Q 1688 409 2113 409 
Q 2538 409 2786 701 
Q 3034 994 3034 1497 
Q 3034 2003 2786 2293 
Q 2538 2584 2113 2584 
z
M 3366 4563 
L 3366 3988 
Q 3128 4100 2886 4159 
Q 2644 4219 2406 4219 
Q 1781 4219 1451 3797 
Q 1122 3375 1075 2522 
Q 1259 2794 1537 2939 
Q 1816 3084 2150 3084 
Q 2853 3084 3261 2657 
Q 3669 2231 3669 1497 
Q 3669 778 3244 343 
Q 2819 -91 2113 -91 
Q 1303 -91 875 529 
Q 447 1150 447 2328 
Q 447 3434 972 4092 
Q 1497 4750 2381 4750 
Q 2619 4750 2861 4703 
Q 3103 4656 3366 4563 
z
" transform="scale(0.015625)"/>
       </defs>
       <use xlink:href="#DejaVuSans-36"/>
       <use xlink:href="#DejaVuSans-30" transform="translate(63.623047 0)"/>
      </g>
     </g>
    </g>
    <g id="xtick_5">
     <g id="line2d_9">
      <path d="M 445.942036 318.04 
L 445.942036 26.88 
" clip-path="url(#p36b1b16f86)" style="fill: none; stroke: #b0b0b0; stroke-opacity: 0.3; stroke-width: 0.8; stroke-linecap: square"/>
     </g>
     <g id="line2d_10">
      <g>
       <use xlink:href="#m2ddd148e40" x="445.942036" y="318.04" style="stroke: #000000; stroke-width: 0.8"/>
      </g>
     </g>
     <g id="text_5">
      <!-- 80 -->
      <g transform="translate(439.579536 332.638438) scale(0.1 -0.1)">
       <defs>
        <path id="DejaVuSans-38" d="M 2034 2216 
Q 1584 2216 1326 1975 
Q 1069 1734 1069 1313 
Q 1069 891 1326 650 
Q 1584 409 2034 409 
Q 2484 409 2743 651 
Q 3003 894 3003 1313 
Q 3003 1734 2745 1975 
Q 2488 2216 2034 2216 
z
M 1403 2484 
Q 997 2584 770 2862 
Q 544 3141 544 3541 
Q 544 4100 942 4425 
Q 1341 4750 2034 4750 
Q 2731 4750 3128 4425 
Q 3525 4100 3525 3541 
Q 3525 3141 3298 2862 
Q 3072 2584 2669 2484 
Q 3125 2378 3379 2068 
Q 3634 1759 3634 1313 
Q 3634 634 3220 271 
Q 2806 -91 2034 -91 
Q 1263 -91 848 271 
Q 434 634 434 1313 
Q 434 1759 690 2068 
Q 947 2378 1403 2484 
z
M 1172 3481 
Q 1172 3119 1398 2916 
Q 1625 2713 2034 2713 
Q 2441 2713 2670 2916 
Q 2900 3119 2900 3481 
Q 2900 3844 2670 4047 
Q 2441 4250 2034 4250 
Q 1625 4250 1398 4047 
Q 1172 3844 1172 3481 
z
" transform="scale(0.015625)"/>
       </defs>
       <use xlink:href="#DejaVuSans-38"/>
       <use xlink:href="#DejaVuSans-30" transform="translate(63.623047 0)"/>
      </g>
     </g>
    </g>
    <g id="xtick_6">
     <g id="line2d_11">
      <path d="M 541.539602 318.04 
L 541.539602 26.88 
" clip-path="url(#p36b1b16f86)" style="fill: none; stroke: #b0b0b0; stroke-opacity: 0.3; stroke-width: 0.8; stroke-linecap: square"/>
     </g>
     <g id="line2d_12">
      <g>
       <use xlink:href="#m2ddd148e40" x="541.539602" y="318.04" style="stroke: #000000; stroke-width: 0.8"/>
      </g>
     </g>
     <g id="text_6">
      <!-- 100 -->
      <g transform="translate(531.995852 332.638438) scale(0.1 -0.1)">
       <defs>
        <path id="DejaVuSans-31" d="M 794 531 
L 1825 531 
L 1825 4091 
L 703 3866 
L 703 4441 
L 1819 4666 
L 2450 4666 
L 2450 531 
L 3481 531 
L 3481 0 
L 794 0 
L 794 531 
z
" transform="scale(0.015625)"/>
       </defs>
       <use xlink:href="#DejaVuSans-31"/>
       <use xlink:href="#DejaVuSans-30" transform="translate(63.623047 0)"/>
       <use xlink:href="#DejaVuSans-30" transform="translate(127.246094 0)"/>
      </g>
     </g>
    </g>
    <g id="text_7">
     <!-- Draft length -->
     <g transform="translate(274.806719 346.316563) scale(0.1 -0.1)">
      <defs>
       <path id="DejaVuSans-44" d="M 1259 4147 
L 1259 519 
L 2022 519 
Q 2988 519 3436 956 
Q 3884 1394 3884 2338 
Q 3884 3275 3436 3711 
Q 2988 4147 2022 4147 
L 1259 4147 
z
M 628 4666 
L 1925 4666 
Q 3281 4666 3915 4102 
Q 4550 3538 4550 2338 
Q 4550 1131 3912 565 
Q 3275 0 1925 0 
L 628 0 
L 628 4666 
z
" transform="scale(0.015625)"/>
       <path id="DejaVuSans-72" d="M 2631 2963 
Q 2534 3019 2420 3045 
Q 2306 3072 2169 3072 
Q 1681 3072 1420 2755 
Q 1159 2438 1159 1844 
L 1159 0 
L 581 0 
L 581 3500 
L 1159 3500 
L 1159 2956 
Q 1341 3275 1631 3429 
Q 1922 3584 2338 3584 
Q 2397 3584 2469 3576 
Q 2541 3569 2628 3553 
L 2631 2963 
z
" transform="scale(0.015625)"/>
       <path id="DejaVuSans-61" d="M 2194 1759 
Q 1497 1759 1228 1600 
Q 959 1441 959 1056 
Q 959 750 1161 570 
Q 1363 391 1709 391 
Q 2188 391 2477 730 
Q 2766 1069 2766 1631 
L 2766 1759 
L 2194 1759 
z
M 3341 1997 
L 3341 0 
L 2766 0 
L 2766 531 
Q 2569 213 2275 61 
Q 1981 -91 1556 -91 
Q 1019 -91 701 211 
Q 384 513 384 1019 
Q 384 1609 779 1909 
Q 1175 2209 1959 2209 
L 2766 2209 
L 2766 2266 
Q 2766 2663 2505 2880 
Q 2244 3097 1772 3097 
Q 1472 3097 1187 3025 
Q 903 2953 641 2809 
L 641 3341 
Q 956 3463 1253 3523 
Q 1550 3584 1831 3584 
Q 2591 3584 2966 3190 
Q 3341 2797 3341 1997 
z
" transform="scale(0.015625)"/>
       <path id="DejaVuSans-66" d="M 2375 4863 
L 2375 4384 
L 1825 4384 
Q 1516 4384 1395 4259 
Q 1275 4134 1275 3809 
L 1275 3500 
L 2222 3500 
L 2222 3053 
L 1275 3053 
L 1275 0 
L 697 0 
L 697 3053 
L 147 3053 
L 147 3500 
L 697 3500 
L 697 3744 
Q 697 4328 969 4595 
Q 1241 4863 1831 4863 
L 2375 4863 
z
" transform="scale(0.015625)"/>
       <path id="DejaVuSans-74" d="M 1172 4494 
L 1172 3500 
L 2356 3500 
L 2356 3053 
L 1172 3053 
L 1172 1153 
Q 1172 725 1289 603 
Q 1406 481 1766 481 
L 2356 481 
L 2356 0 
L 1766 0 
Q 1100 0 847 248 
Q 594 497 594 1153 
L 594 3053 
L 172 3053 
L 172 3500 
L 594 3500 
L 594 4494 
L 1172 4494 
z
" transform="scale(0.015625)"/>
       <path id="DejaVuSans-20" transform="scale(0.015625)"/>
       <path id="DejaVuSans-6c" d="M 603 4863 
L 1178 4863 
L 1178 0 
L 603 0 
L 603 4863 
z
" transform="scale(0.015625)"/>
       <path id="DejaVuSans-65" d="M 3597 1894 
L 3597 1613 
L 953 1613 
Q 991 1019 1311 708 
Q 1631 397 2203 397 
Q 2534 397 2845 478 
Q 3156 559 3463 722 
L 3463 178 
Q 3153 47 2828 -22 
Q 2503 -91 2169 -91 
Q 1331 -91 842 396 
Q 353 884 353 1716 
Q 353 2575 817 3079 
Q 1281 3584 2069 3584 
Q 2775 3584 3186 3129 
Q 3597 2675 3597 1894 
z
M 3022 2063 
Q 3016 2534 2758 2815 
Q 2500 3097 2075 3097 
Q 1594 3097 1305 2825 
Q 1016 2553 972 2059 
L 3022 2063 
z
" transform="scale(0.015625)"/>
       <path id="DejaVuSans-6e" d="M 3513 2113 
L 3513 0 
L 2938 0 
L 2938 2094 
Q 2938 2591 2744 2837 
Q 2550 3084 2163 3084 
Q 1697 3084 1428 2787 
Q 1159 2491 1159 1978 
L 1159 0 
L 581 0 
L 581 3500 
L 1159 3500 
L 1159 2956 
Q 1366 3272 1645 3428 
Q 1925 3584 2291 3584 
Q 2894 3584 3203 3211 
Q 3513 2838 3513 2113 
z
" transform="scale(0.015625)"/>
       <path id="DejaVuSans-67" d="M 2906 1791 
Q 2906 2416 2648 2759 
Q 2391 3103 1925 3103 
Q 1463 3103 1205 2759 
Q 947 2416 947 1791 
Q 947 1169 1205 825 
Q 1463 481 1925 481 
Q 2391 481 2648 825 
Q 2906 1169 2906 1791 
z
M 3481 434 
Q 3481 -459 3084 -895 
Q 2688 -1331 1869 -1331 
Q 1566 -1331 1297 -1286 
Q 1028 -1241 775 -1147 
L 775 -588 
Q 1028 -725 1275 -790 
Q 1522 -856 1778 -856 
Q 2344 -856 2625 -561 
Q 2906 -266 2906 331 
L 2906 616 
Q 2728 306 2450 153 
Q 2172 0 1784 0 
Q 1141 0 747 490 
Q 353 981 353 1791 
Q 353 2603 747 3093 
Q 1141 3584 1784 3584 
Q 2172 3584 2450 3431 
Q 2728 3278 2906 2969 
L 2906 3500 
L 3481 3500 
L 3481 434 
z
" transform="scale(0.015625)"/>
       <path id="DejaVuSans-68" d="M 3513 2113 
L 3513 0 
L 2938 0 
L 2938 2094 
Q 2938 2591 2744 2837 
Q 2550 3084 2163 3084 
Q 1697 3084 1428 2787 
Q 1159 2491 1159 1978 
L 1159 0 
L 581 0 
L 581 4863 
L 1159 4863 
L 1159 2956 
Q 1366 3272 1645 3428 
Q 1925 3584 2291 3584 
Q 2894 3584 3203 3211 
Q 3513 2838 3513 2113 
z
" transform="scale(0.015625)"/>
      </defs>
      <use xlink:href="#DejaVuSans-44"/>
      <use xlink:href="#DejaVuSans-72" transform="translate(77.001953 0)"/>
      <use xlink:href="#DejaVuSans-61" transform="translate(118.115234 0)"/>
      <use xlink:href="#DejaVuSans-66" transform="translate(179.394531 0)"/>
      <use xlink:href="#DejaVuSans-74" transform="translate(212.849609 0)"/>
      <use xlink:href="#DejaVuSans-20" transform="translate(252.058594 0)"/>
      <use xlink:href="#DejaVuSans-6c" transform="translate(283.845703 0)"/>
      <use xlink:href="#DejaVuSans-65" transform="translate(311.628906 0)"/>
      <use xlink:href="#DejaVuSans-6e" transform="translate(373.152344 0)"/>
      <use xlink:href="#DejaVuSans-67" transform="translate(436.53125 0)"/>
      <use xlink:href="#DejaVuSans-74" transform="translate(500.007812 0)"/>
      <use xlink:href="#DejaVuSans-68" transform="translate(539.216797 0)"/>
     </g>
    </g>
   </g>
   <g id="matplotlib.axis_2">
    <g id="ytick_1">
     <g id="line2d_13">
      <path d="M 44.67125 285.049527 
L 565.2 285.049527 
" clip-path="url(#p36b1b16f86)" style="fill: none; stroke: #b0b0b0; stroke-opacity: 0.3; stroke-width: 0.8; stroke-linecap: square"/>
     </g>
     <g id="line2d_14">
      <defs>
       <path id="m696270b08b" d="M 0 0 
L -3.5 0 
" style="stroke: #000000; stroke-width: 0.8"/>
      </defs>
      <g>
       <use xlink:href="#m696270b08b" x="44.67125" y="285.049527" style="stroke: #000000; stroke-width: 0.8"/>
      </g>
     </g>
     <g id="text_8">
      <!-- 10 -->
      <g transform="translate(24.94625 288.848746) scale(0.1 -0.1)">
       <use xlink:href="#DejaVuSans-31"/>
       <use xlink:href="#DejaVuSans-30" transform="translate(63.623047 0)"/>
      </g>
     </g>
    </g>
    <g id="ytick_2">
     <g id="line2d_15">
      <path d="M 44.67125 238.361972 
L 565.2 238.361972 
" clip-path="url(#p36b1b16f86)" style="fill: none; stroke: #b0b0b0; stroke-opacity: 0.3; stroke-width: 0.8; stroke-linecap: square"/>
     </g>
     <g id="line2d_16">
      <g>
       <use xlink:href="#m696270b08b" x="44.67125" y="238.361972" style="stroke: #000000; stroke-width: 0.8"/>
      </g>
     </g>
     <g id="text_9">
      <!-- 15 -->
      <g transform="translate(24.94625 242.16119) scale(0.1 -0.1)">
       <defs>
        <path id="DejaVuSans-35" d="M 691 4666 
L 3169 4666 
L 3169 4134 
L 1269 4134 
L 1269 2991 
Q 1406 3038 1543 3061 
Q 1681 3084 1819 3084 
Q 2600 3084 3056 2656 
Q 3513 2228 3513 1497 
Q 3513 744 3044 326 
Q 2575 -91 1722 -91 
Q 1428 -91 1123 -41 
Q 819 9 494 109 
L 494 744 
Q 775 591 1075 516 
Q 1375 441 1709 441 
Q 2250 441 2565 725 
Q 2881 1009 2881 1497 
Q 2881 1984 2565 2268 
Q 2250 2553 1709 2553 
Q 1456 2553 1204 2497 
Q 953 2441 691 2322 
L 691 4666 
z
" transform="scale(0.015625)"/>
       </defs>
       <use xlink:href="#DejaVuSans-31"/>
       <use xlink:href="#DejaVuSans-35" transform="translate(63.623047 0)"/>
      </g>
     </g>
    </g>
    <g id="ytick_3">
     <g id="line2d_17">
      <path d="M 44.67125 191.674416 
L 565.2 191.674416 
" clip-path="url(#p36b1b16f86)" style="fill: none; stroke: #b0b0b0; stroke-opacity: 0.3; stroke-width: 0.8; stroke-linecap: square"/>
     </g>
     <g id="line2d_18">
      <g>
       <use xlink:href="#m696270b08b" x="44.67125" y="191.674416" style="stroke: #000000; stroke-width: 0.8"/>
      </g>
     </g>
     <g id="text_10">
      <!-- 20 -->
      <g transform="translate(24.94625 195.473635) scale(0.1 -0.1)">
       <use xlink:href="#DejaVuSans-32"/>
       <use xlink:href="#DejaVuSans-30" transform="translate(63.623047 0)"/>
      </g>
     </g>
    </g>
    <g id="ytick_4">
     <g id="line2d_19">
      <path d="M 44.67125 144.98686 
L 565.2 144.98686 
" clip-path="url(#p36b1b16f86)" style="fill: none; stroke: #b0b0b0; stroke-opacity: 0.3; stroke-width: 0.8; stroke-linecap: square"/>
     </g>
     <g id="line2d_20">
      <g>
       <use xlink:href="#m696270b08b" x="44.67125" y="144.98686" style="stroke: #000000; stroke-width: 0.8"/>
      </g>
     </g>
     <g id="text_11">
      <!-- 25 -->
      <g transform="translate(24.94625 148.786079) scale(0.1 -0.1)">
       <use xlink:href="#DejaVuSans-32"/>
       <use xlink:href="#DejaVuSans-35" transform="translate(63.623047 0)"/>
      </g>
     </g>
    </g>
    <g id="ytick_5">
     <g id="line2d_21">
      <path d="M 44.67125 98.299305 
L 565.2 98.299305 
" clip-path="url(#p36b1b16f86)" style="fill: none; stroke: #b0b0b0; stroke-opacity: 0.3; stroke-width: 0.8; stroke-linecap: square"/>
     </g>
     <g id="line2d_22">
      <g>
       <use xlink:href="#m696270b08b" x="44.67125" y="98.299305" style="stroke: #000000; stroke-width: 0.8"/>
      </g>
     </g>
     <g id="text_12">
      <!-- 30 -->
      <g transform="translate(24.94625 102.098524) scale(0.1 -0.1)">
       <defs>
        <path id="DejaVuSans-33" d="M 2597 2516 
Q 3050 2419 3304 2112 
Q 3559 1806 3559 1356 
Q 3559 666 3084 287 
Q 2609 -91 1734 -91 
Q 1441 -91 1130 -33 
Q 819 25 488 141 
L 488 750 
Q 750 597 1062 519 
Q 1375 441 1716 441 
Q 2309 441 2620 675 
Q 2931 909 2931 1356 
Q 2931 1769 2642 2001 
Q 2353 2234 1838 2234 
L 1294 2234 
L 1294 2753 
L 1863 2753 
Q 2328 2753 2575 2939 
Q 2822 3125 2822 3475 
Q 2822 3834 2567 4026 
Q 2313 4219 1838 4219 
Q 1578 4219 1281 4162 
Q 984 4106 628 3988 
L 628 4550 
Q 988 4650 1302 4700 
Q 1616 4750 1894 4750 
Q 2613 4750 3031 4423 
Q 3450 4097 3450 3541 
Q 3450 3153 3228 2886 
Q 3006 2619 2597 2516 
z
" transform="scale(0.015625)"/>
       </defs>
       <use xlink:href="#DejaVuSans-33"/>
       <use xlink:href="#DejaVuSans-30" transform="translate(63.623047 0)"/>
      </g>
     </g>
    </g>
    <g id="ytick_6">
     <g id="line2d_23">
      <path d="M 44.67125 51.611749 
L 565.2 51.611749 
" clip-path="url(#p36b1b16f86)" style="fill: none; stroke: #b0b0b0; stroke-opacity: 0.3; stroke-width: 0.8; stroke-linecap: square"/>
     </g>
     <g id="line2d_24">
      <g>
       <use xlink:href="#m696270b08b" x="44.67125" y="51.611749" style="stroke: #000000; stroke-width: 0.8"/>
      </g>
     </g>
     <g id="text_13">
      <!-- 35 -->
      <g transform="translate(24.94625 55.410968) scale(0.1 -0.1)">
       <use xlink:href="#DejaVuSans-33"/>
       <use xlink:href="#DejaVuSans-35" transform="translate(63.623047 0)"/>
      </g>
     </g>
    </g>
    <g id="text_14">
     <!-- cuda_ms -->
     <g transform="translate(18.588438 194.59125) rotate(-90) scale(0.1 -0.1)">
      <defs>
       <path id="DejaVuSans-63" d="M 3122 3366 
L 3122 2828 
Q 2878 2963 2633 3030 
Q 2388 3097 2138 3097 
Q 1578 3097 1268 2742 
Q 959 2388 959 1747 
Q 959 1106 1268 751 
Q 1578 397 2138 397 
Q 2388 397 2633 464 
Q 2878 531 3122 666 
L 3122 134 
Q 2881 22 2623 -34 
Q 2366 -91 2075 -91 
Q 1284 -91 818 406 
Q 353 903 353 1747 
Q 353 2603 823 3093 
Q 1294 3584 2113 3584 
Q 2378 3584 2631 3529 
Q 2884 3475 3122 3366 
z
" transform="scale(0.015625)"/>
       <path id="DejaVuSans-75" d="M 544 1381 
L 544 3500 
L 1119 3500 
L 1119 1403 
Q 1119 906 1312 657 
Q 1506 409 1894 409 
Q 2359 409 2629 706 
Q 2900 1003 2900 1516 
L 2900 3500 
L 3475 3500 
L 3475 0 
L 2900 0 
L 2900 538 
Q 2691 219 2414 64 
Q 2138 -91 1772 -91 
Q 1169 -91 856 284 
Q 544 659 544 1381 
z
M 1991 3584 
L 1991 3584 
z
" transform="scale(0.015625)"/>
       <path id="DejaVuSans-64" d="M 2906 2969 
L 2906 4863 
L 3481 4863 
L 3481 0 
L 2906 0 
L 2906 525 
Q 2725 213 2448 61 
Q 2172 -91 1784 -91 
Q 1150 -91 751 415 
Q 353 922 353 1747 
Q 353 2572 751 3078 
Q 1150 3584 1784 3584 
Q 2172 3584 2448 3432 
Q 2725 3281 2906 2969 
z
M 947 1747 
Q 947 1113 1208 752 
Q 1469 391 1925 391 
Q 2381 391 2643 752 
Q 2906 1113 2906 1747 
Q 2906 2381 2643 2742 
Q 2381 3103 1925 3103 
Q 1469 3103 1208 2742 
Q 947 2381 947 1747 
z
" transform="scale(0.015625)"/>
       <path id="DejaVuSans-5f" d="M 3263 -1063 
L 3263 -1509 
L -63 -1509 
L -63 -1063 
L 3263 -1063 
z
" transform="scale(0.015625)"/>
       <path id="DejaVuSans-6d" d="M 3328 2828 
Q 3544 3216 3844 3400 
Q 4144 3584 4550 3584 
Q 5097 3584 5394 3201 
Q 5691 2819 5691 2113 
L 5691 0 
L 5113 0 
L 5113 2094 
Q 5113 2597 4934 2840 
Q 4756 3084 4391 3084 
Q 3944 3084 3684 2787 
Q 3425 2491 3425 1978 
L 3425 0 
L 2847 0 
L 2847 2094 
Q 2847 2600 2669 2842 
Q 2491 3084 2119 3084 
Q 1678 3084 1418 2786 
Q 1159 2488 1159 1978 
L 1159 0 
L 581 0 
L 581 3500 
L 1159 3500 
L 1159 2956 
Q 1356 3278 1631 3431 
Q 1906 3584 2284 3584 
Q 2666 3584 2933 3390 
Q 3200 3197 3328 2828 
z
" transform="scale(0.015625)"/>
       <path id="DejaVuSans-73" d="M 2834 3397 
L 2834 2853 
Q 2591 2978 2328 3040 
Q 2066 3103 1784 3103 
Q 1356 3103 1142 2972 
Q 928 2841 928 2578 
Q 928 2378 1081 2264 
Q 1234 2150 1697 2047 
L 1894 2003 
Q 2506 1872 2764 1633 
Q 3022 1394 3022 966 
Q 3022 478 2636 193 
Q 2250 -91 1575 -91 
Q 1294 -91 989 -36 
Q 684 19 347 128 
L 347 722 
Q 666 556 975 473 
Q 1284 391 1588 391 
Q 1994 391 2212 530 
Q 2431 669 2431 922 
Q 2431 1156 2273 1281 
Q 2116 1406 1581 1522 
L 1381 1569 
Q 847 1681 609 1914 
Q 372 2147 372 2553 
Q 372 3047 722 3315 
Q 1072 3584 1716 3584 
Q 2034 3584 2315 3537 
Q 2597 3491 2834 3397 
z
" transform="scale(0.015625)"/>
      </defs>
      <use xlink:href="#DejaVuSans-63"/>
      <use xlink:href="#DejaVuSans-75" transform="translate(54.980469 0)"/>
      <use xlink:href="#DejaVuSans-64" transform="translate(118.359375 0)"/>
      <use xlink:href="#DejaVuSans-61" transform="translate(181.835938 0)"/>
      <use xlink:href="#DejaVuSans-5f" transform="translate(243.115234 0)"/>
      <use xlink:href="#DejaVuSans-6d" transform="translate(293.115234 0)"/>
      <use xlink:href="#DejaVuSans-73" transform="translate(390.527344 0)"/>
     </g>
    </g>
   </g>
   <g id="line2d_25">
    <path d="M 68.331648 222.524418 
L 73.111526 217.589758 
L 77.891404 223.89092 
L 82.671283 227.917198 
L 87.451161 226.920961 
L 92.231039 227.191082 
L 97.010918 226.599368 
L 101.790796 217.006412 
L 106.570674 227.670986 
L 111.350553 226.217141 
L 116.130431 222.858478 
L 120.910309 221.320702 
L 125.690188 225.690414 
L 130.470066 225.038134 
L 135.249944 223.073641 
L 140.029823 213.279416 
L 144.809701 220.107512 
L 149.589579 218.289641 
L 154.369458 215.732655 
L 159.149336 219.751906 
L 163.929214 218.380681 
L 168.709093 208.534584 
L 173.488971 219.201431 
L 178.268849 217.876729 
L 183.048728 219.188876 
L 187.828606 219.676463 
L 192.608484 219.516126 
L 197.388363 220.274628 
L 202.168241 211.966067 
L 206.948119 218.602783 
L 211.727998 217.474543 
L 216.507876 219.481106 
L 221.287754 217.565229 
L 226.067633 219.477792 
L 230.847511 213.619092 
L 235.627389 219.354804 
L 240.407268 217.79955 
L 245.187146 219.005474 
L 249.967024 215.774817 
L 254.746903 217.078095 
L 259.526781 215.297453 
L 264.306659 216.528214 
L 269.086538 214.985445 
L 273.866416 215.906708 
L 278.646294 215.095434 
L 283.426173 210.13281 
L 288.206051 205.768738 
L 292.985929 212.243351 
L 297.765808 213.879674 
L 302.545686 214.599816 
L 307.325564 208.663428 
L 312.105442 181.649094 
L 316.885321 204.912765 
L 321.665199 188.711782 
L 326.445077 200.152579 
L 331.224956 196.765795 
L 336.004834 196.404489 
L 340.784712 192.529585 
L 345.564591 171.910775 
L 350.344469 177.269489 
L 355.124347 193.344264 
L 359.904226 200.349934 
L 364.684104 203.61364 
L 369.463982 207.183738 
L 374.243861 207.846868 
L 379.023739 209.122446 
L 383.803617 208.30451 
L 388.583496 201.754327 
L 393.363374 200.09688 
L 398.143252 200.769959 
L 402.923131 198.639454 
L 407.703009 196.598076 
L 412.482887 200.229966 
L 417.262766 191.358257 
L 422.042644 201.211345 
L 426.822522 201.629996 
L 431.602401 200.914669 
L 436.382279 201.442736 
L 441.162157 201.06341 
L 445.942036 196.748852 
L 450.721914 193.859513 
L 455.501792 199.555513 
L 460.281671 198.826919 
L 465.061549 199.11036 
L 469.841427 197.521939 
L 474.621306 174.354303 
L 479.401184 197.050016 
L 484.181062 197.02357 
L 488.960941 197.530812 
L 493.740819 197.947967 
L 498.520697 191.148139 
L 503.300576 193.185332 
L 508.080454 190.798485 
L 512.860332 196.702297 
L 517.640211 196.232136 
L 522.420089 197.278508 
L 527.199967 191.917843 
L 531.979846 196.182475 
L 536.759724 165.678847 
L 541.539602 190.947942 
" clip-path="url(#p36b1b16f86)" style="fill: none; stroke: #1f77b4; stroke-width: 1.2; stroke-linecap: square"/>
    <defs>
     <path id="m64fdf63dc0" d="M 0 1.25 
C 0.331504 1.25 0.649475 1.118292 0.883883 0.883883 
C 1.118292 0.649475 1.25 0.331504 1.25 0 
C 1.25 -0.331504 1.118292 -0.649475 0.883883 -0.883883 
C 0.649475 -1.118292 0.331504 -1.25 0 -1.25 
C -0.331504 -1.25 -0.649475 -1.118292 -0.883883 -0.883883 
C -1.118292 -0.649475 -1.25 -0.331504 -1.25 0 
C -1.25 0.331504 -1.118292 0.649475 -0.883883 0.883883 
C -0.649475 1.118292 -0.331504 1.25 0 1.25 
z
" style="stroke: #1f77b4"/>
    </defs>
    <g clip-path="url(#p36b1b16f86)">
     <use xlink:href="#m64fdf63dc0" x="68.331648" y="222.524418" style="fill: #1f77b4; stroke: #1f77b4"/>
     <use xlink:href="#m64fdf63dc0" x="73.111526" y="217.589758" style="fill: #1f77b4; stroke: #1f77b4"/>
     <use xlink:href="#m64fdf63dc0" x="77.891404" y="223.89092" style="fill: #1f77b4; stroke: #1f77b4"/>
     <use xlink:href="#m64fdf63dc0" x="82.671283" y="227.917198" style="fill: #1f77b4; stroke: #1f77b4"/>
     <use xlink:href="#m64fdf63dc0" x="87.451161" y="226.920961" style="fill: #1f77b4; stroke: #1f77b4"/>
     <use xlink:href="#m64fdf63dc0" x="92.231039" y="227.191082" style="fill: #1f77b4; stroke: #1f77b4"/>
     <use xlink:href="#m64fdf63dc0" x="97.010918" y="226.599368" style="fill: #1f77b4; stroke: #1f77b4"/>
     <use xlink:href="#m64fdf63dc0" x="101.790796" y="217.006412" style="fill: #1f77b4; stroke: #1f77b4"/>
     <use xlink:href="#m64fdf63dc0" x="106.570674" y="227.670986" style="fill: #1f77b4; stroke: #1f77b4"/>
     <use xlink:href="#m64fdf63dc0" x="111.350553" y="226.217141" style="fill: #1f77b4; stroke: #1f77b4"/>
     <use xlink:href="#m64fdf63dc0" x="116.130431" y="222.858478" style="fill: #1f77b4; stroke: #1f77b4"/>
     <use xlink:href="#m64fdf63dc0" x="120.910309" y="221.320702" style="fill: #1f77b4; stroke: #1f77b4"/>
     <use xlink:href="#m64fdf63dc0" x="125.690188" y="225.690414" style="fill: #1f77b4; stroke: #1f77b4"/>
     <use xlink:href="#m64fdf63dc0" x="130.470066" y="225.038134" style="fill: #1f77b4; stroke: #1f77b4"/>
     <use xlink:href="#m64fdf63dc0" x="135.249944" y="223.073641" style="fill: #1f77b4; stroke: #1f77b4"/>
     <use xlink:href="#m64fdf63dc0" x="140.029823" y="213.279416" style="fill: #1f77b4; stroke: #1f77b4"/>
     <use xlink:href="#m64fdf63dc0" x="144.809701" y="220.107512" style="fill: #1f77b4; stroke: #1f77b4"/>
     <use xlink:href="#m64fdf63dc0" x="149.589579" y="218.289641" style="fill: #1f77b4; stroke: #1f77b4"/>
     <use xlink:href="#m64fdf63dc0" x="154.369458" y="215.732655" style="fill: #1f77b4; stroke: #1f77b4"/>
     <use xlink:href="#m64fdf63dc0" x="159.149336" y="219.751906" style="fill: #1f77b4; stroke: #1f77b4"/>
     <use xlink:href="#m64fdf63dc0" x="163.929214" y="218.380681" style="fill: #1f77b4; stroke: #1f77b4"/>
     <use xlink:href="#m64fdf63dc0" x="168.709093" y="208.534584" style="fill: #1f77b4; stroke: #1f77b4"/>
     <use xlink:href="#m64fdf63dc0" x="173.488971" y="219.201431" style="fill: #1f77b4; stroke: #1f77b4"/>
     <use xlink:href="#m64fdf63dc0" x="178.268849" y="217.876729" style="fill: #1f77b4; stroke: #1f77b4"/>
     <use xlink:href="#m64fdf63dc0" x="183.048728" y="219.188876" style="fill: #1f77b4; stroke: #1f77b4"/>
     <use xlink:href="#m64fdf63dc0" x="187.828606" y="219.676463" style="fill: #1f77b4; stroke: #1f77b4"/>
     <use xlink:href="#m64fdf63dc0" x="192.608484" y="219.516126" style="fill: #1f77b4; stroke: #1f77b4"/>
     <use xlink:href="#m64fdf63dc0" x="197.388363" y="220.274628" style="fill: #1f77b4; stroke: #1f77b4"/>
     <use xlink:href="#m64fdf63dc0" x="202.168241" y="211.966067" style="fill: #1f77b4; stroke: #1f77b4"/>
     <use xlink:href="#m64fdf63dc0" x="206.948119" y="218.602783" style="fill: #1f77b4; stroke: #1f77b4"/>
     <use xlink:href="#m64fdf63dc0" x="211.727998" y="217.474543" style="fill: #1f77b4; stroke: #1f77b4"/>
     <use xlink:href="#m64fdf63dc0" x="216.507876" y="219.481106" style="fill: #1f77b4; stroke: #1f77b4"/>
     <use xlink:href="#m64fdf63dc0" x="221.287754" y="217.565229" style="fill: #1f77b4; stroke: #1f77b4"/>
     <use xlink:href="#m64fdf63dc0" x="226.067633" y="219.477792" style="fill: #1f77b4; stroke: #1f77b4"/>
     <use xlink:href="#m64fdf63dc0" x="230.847511" y="213.619092" style="fill: #1f77b4; stroke: #1f77b4"/>
     <use xlink:href="#m64fdf63dc0" x="235.627389" y="219.354804" style="fill: #1f77b4; stroke: #1f77b4"/>
     <use xlink:href="#m64fdf63dc0" x="240.407268" y="217.79955" style="fill: #1f77b4; stroke: #1f77b4"/>
     <use xlink:href="#m64fdf63dc0" x="245.187146" y="219.005474" style="fill: #1f77b4; stroke: #1f77b4"/>
     <use xlink:href="#m64fdf63dc0" x="249.967024" y="215.774817" style="fill: #1f77b4; stroke: #1f77b4"/>
     <use xlink:href="#m64fdf63dc0" x="254.746903" y="217.078095" style="fill: #1f77b4; stroke: #1f77b4"/>
     <use xlink:href="#m64fdf63dc0" x="259.526781" y="215.297453" style="fill: #1f77b4; stroke: #1f77b4"/>
     <use xlink:href="#m64fdf63dc0" x="264.306659" y="216.528214" style="fill: #1f77b4; stroke: #1f77b4"/>
     <use xlink:href="#m64fdf63dc0" x="269.086538" y="214.985445" style="fill: #1f77b4; stroke: #1f77b4"/>
     <use xlink:href="#m64fdf63dc0" x="273.866416" y="215.906708" style="fill: #1f77b4; stroke: #1f77b4"/>
     <use xlink:href="#m64fdf63dc0" x="278.646294" y="215.095434" style="fill: #1f77b4; stroke: #1f77b4"/>
     <use xlink:href="#m64fdf63dc0" x="283.426173" y="210.13281" style="fill: #1f77b4; stroke: #1f77b4"/>
     <use xlink:href="#m64fdf63dc0" x="288.206051" y="205.768738" style="fill: #1f77b4; stroke: #1f77b4"/>
     <use xlink:href="#m64fdf63dc0" x="292.985929" y="212.243351" style="fill: #1f77b4; stroke: #1f77b4"/>
     <use xlink:href="#m64fdf63dc0" x="297.765808" y="213.879674" style="fill: #1f77b4; stroke: #1f77b4"/>
     <use xlink:href="#m64fdf63dc0" x="302.545686" y="214.599816" style="fill: #1f77b4; stroke: #1f77b4"/>
     <use xlink:href="#m64fdf63dc0" x="307.325564" y="208.663428" style="fill: #1f77b4; stroke: #1f77b4"/>
     <use xlink:href="#m64fdf63dc0" x="312.105442" y="181.649094" style="fill: #1f77b4; stroke: #1f77b4"/>
     <use xlink:href="#m64fdf63dc0" x="316.885321" y="204.912765" style="fill: #1f77b4; stroke: #1f77b4"/>
     <use xlink:href="#m64fdf63dc0" x="321.665199" y="188.711782" style="fill: #1f77b4; stroke: #1f77b4"/>
     <use xlink:href="#m64fdf63dc0" x="326.445077" y="200.152579" style="fill: #1f77b4; stroke: #1f77b4"/>
     <use xlink:href="#m64fdf63dc0" x="331.224956" y="196.765795" style="fill: #1f77b4; stroke: #1f77b4"/>
     <use xlink:href="#m64fdf63dc0" x="336.004834" y="196.404489" style="fill: #1f77b4; stroke: #1f77b4"/>
     <use xlink:href="#m64fdf63dc0" x="340.784712" y="192.529585" style="fill: #1f77b4; stroke: #1f77b4"/>
     <use xlink:href="#m64fdf63dc0" x="345.564591" y="171.910775" style="fill: #1f77b4; stroke: #1f77b4"/>
     <use xlink:href="#m64fdf63dc0" x="350.344469" y="177.269489" style="fill: #1f77b4; stroke: #1f77b4"/>
     <use xlink:href="#m64fdf63dc0" x="355.124347" y="193.344264" style="fill: #1f77b4; stroke: #1f77b4"/>
     <use xlink:href="#m64fdf63dc0" x="359.904226" y="200.349934" style="fill: #1f77b4; stroke: #1f77b4"/>
     <use xlink:href="#m64fdf63dc0" x="364.684104" y="203.61364" style="fill: #1f77b4; stroke: #1f77b4"/>
     <use xlink:href="#m64fdf63dc0" x="369.463982" y="207.183738" style="fill: #1f77b4; stroke: #1f77b4"/>
     <use xlink:href="#m64fdf63dc0" x="374.243861" y="207.846868" style="fill: #1f77b4; stroke: #1f77b4"/>
     <use xlink:href="#m64fdf63dc0" x="379.023739" y="209.122446" style="fill: #1f77b4; stroke: #1f77b4"/>
     <use xlink:href="#m64fdf63dc0" x="383.803617" y="208.30451" style="fill: #1f77b4; stroke: #1f77b4"/>
     <use xlink:href="#m64fdf63dc0" x="388.583496" y="201.754327" style="fill: #1f77b4; stroke: #1f77b4"/>
     <use xlink:href="#m64fdf63dc0" x="393.363374" y="200.09688" style="fill: #1f77b4; stroke: #1f77b4"/>
     <use xlink:href="#m64fdf63dc0" x="398.143252" y="200.769959" style="fill: #1f77b4; stroke: #1f77b4"/>
     <use xlink:href="#m64fdf63dc0" x="402.923131" y="198.639454" style="fill: #1f77b4; stroke: #1f77b4"/>
     <use xlink:href="#m64fdf63dc0" x="407.703009" y="196.598076" style="fill: #1f77b4; stroke: #1f77b4"/>
     <use xlink:href="#m64fdf63dc0" x="412.482887" y="200.229966" style="fill: #1f77b4; stroke: #1f77b4"/>
     <use xlink:href="#m64fdf63dc0" x="417.262766" y="191.358257" style="fill: #1f77b4; stroke: #1f77b4"/>
     <use xlink:href="#m64fdf63dc0" x="422.042644" y="201.211345" style="fill: #1f77b4; stroke: #1f77b4"/>
     <use xlink:href="#m64fdf63dc0" x="426.822522" y="201.629996" style="fill: #1f77b4; stroke: #1f77b4"/>
     <use xlink:href="#m64fdf63dc0" x="431.602401" y="200.914669" style="fill: #1f77b4; stroke: #1f77b4"/>
     <use xlink:href="#m64fdf63dc0" x="436.382279" y="201.442736" style="fill: #1f77b4; stroke: #1f77b4"/>
     <use xlink:href="#m64fdf63dc0" x="441.162157" y="201.06341" style="fill: #1f77b4; stroke: #1f77b4"/>
     <use xlink:href="#m64fdf63dc0" x="445.942036" y="196.748852" style="fill: #1f77b4; stroke: #1f77b4"/>
     <use xlink:href="#m64fdf63dc0" x="450.721914" y="193.859513" style="fill: #1f77b4; stroke: #1f77b4"/>
     <use xlink:href="#m64fdf63dc0" x="455.501792" y="199.555513" style="fill: #1f77b4; stroke: #1f77b4"/>
     <use xlink:href="#m64fdf63dc0" x="460.281671" y="198.826919" style="fill: #1f77b4; stroke: #1f77b4"/>
     <use xlink:href="#m64fdf63dc0" x="465.061549" y="199.11036" style="fill: #1f77b4; stroke: #1f77b4"/>
     <use xlink:href="#m64fdf63dc0" x="469.841427" y="197.521939" style="fill: #1f77b4; stroke: #1f77b4"/>
     <use xlink:href="#m64fdf63dc0" x="474.621306" y="174.354303" style="fill: #1f77b4; stroke: #1f77b4"/>
     <use xlink:href="#m64fdf63dc0" x="479.401184" y="197.050016" style="fill: #1f77b4; stroke: #1f77b4"/>
     <use xlink:href="#m64fdf63dc0" x="484.181062" y="197.02357" style="fill: #1f77b4; stroke: #1f77b4"/>
     <use xlink:href="#m64fdf63dc0" x="488.960941" y="197.530812" style="fill: #1f77b4; stroke: #1f77b4"/>
     <use xlink:href="#m64fdf63dc0" x="493.740819" y="197.947967" style="fill: #1f77b4; stroke: #1f77b4"/>
     <use xlink:href="#m64fdf63dc0" x="498.520697" y="191.148139" style="fill: #1f77b4; stroke: #1f77b4"/>
     <use xlink:href="#m64fdf63dc0" x="503.300576" y="193.185332" style="fill: #1f77b4; stroke: #1f77b4"/>
     <use xlink:href="#m64fdf63dc0" x="508.080454" y="190.798485" style="fill: #1f77b4; stroke: #1f77b4"/>
     <use xlink:href="#m64fdf63dc0" x="512.860332" y="196.702297" style="fill: #1f77b4; stroke: #1f77b4"/>
     <use xlink:href="#m64fdf63dc0" x="517.640211" y="196.232136" style="fill: #1f77b4; stroke: #1f77b4"/>
     <use xlink:href="#m64fdf63dc0" x="522.420089" y="197.278508" style="fill: #1f77b4; stroke: #1f77b4"/>
     <use xlink:href="#m64fdf63dc0" x="527.199967" y="191.917843" style="fill: #1f77b4; stroke: #1f77b4"/>
     <use xlink:href="#m64fdf63dc0" x="531.979846" y="196.182475" style="fill: #1f77b4; stroke: #1f77b4"/>
     <use xlink:href="#m64fdf63dc0" x="536.759724" y="165.678847" style="fill: #1f77b4; stroke: #1f77b4"/>
     <use xlink:href="#m64fdf63dc0" x="541.539602" y="190.947942" style="fill: #1f77b4; stroke: #1f77b4"/>
    </g>
   </g>
   <g id="line2d_26">
    <path d="M 68.331648 218.781972 
L 73.111526 219.571281 
L 77.891404 220.140824 
L 82.671283 214.130399 
L 87.451161 222.81001 
L 92.231039 221.424384 
L 97.010918 222.026526 
L 101.790796 221.427193 
L 106.570674 223.371158 
L 111.350553 215.496901 
L 116.130431 220.2723 
L 120.910309 218.758848 
L 125.690188 219.566321 
L 130.470066 218.504478 
L 135.249944 217.160982 
L 140.029823 217.226985 
L 144.809701 208.846234 
L 149.589579 206.638219 
L 154.369458 214.222966 
L 159.149336 213.79365 
L 163.929214 214.489794 
L 168.709093 214.722591 
L 173.488971 214.572505 
L 178.268849 206.840181 
L 183.048728 172.46 
L 187.828606 215.060711 
L 192.608484 215.002744 
L 197.388363 213.254169 
L 202.168241 203.451394 
L 206.948119 213.811043 
L 211.727998 210.296222 
L 216.507876 213.590676 
L 221.287754 214.880415 
L 226.067633 216.413713 
L 230.847511 214.346549 
L 235.627389 212.712173 
L 240.407268 191.674087 
L 245.187146 208.863832 
L 249.967024 211.610973 
L 254.746903 210.379589 
L 259.526781 207.393734 
L 264.306659 212.75795 
L 269.086538 196.664441 
L 273.866416 209.361096 
L 278.646294 208.462185 
L 283.426173 202.470372 
L 288.206051 209.728979 
L 292.985929 210.420224 
L 297.765808 209.19108 
L 302.545686 209.612237 
L 307.325564 199.156048 
L 312.105442 194.382625 
L 316.885321 199.535767 
L 321.665199 200.000245 
L 326.445077 191.354937 
L 331.224956 182.132077 
L 336.004834 181.475492 
L 340.784712 178.197775 
L 345.564591 187.001956 
L 350.344469 181.365418 
L 355.124347 188.897124 
L 359.904226 194.967794 
L 364.684104 199.720753 
L 369.463982 202.328981 
L 374.243861 201.226255 
L 379.023739 204.907595 
L 383.803617 203.800245 
L 388.583496 196.774043 
L 393.363374 195.628589 
L 398.143252 190.674539 
L 402.923131 193.486189 
L 407.703009 195.942333 
L 412.482887 195.818658 
L 417.262766 196.928492 
L 422.042644 196.241073 
L 426.822522 197.072572 
L 431.602401 196.412643 
L 436.382279 195.265071 
L 441.162157 189.815429 
L 445.942036 195.710614 
L 450.721914 188.57269 
L 455.501792 194.21873 
L 460.281671 193.953608 
L 465.061549 190.796659 
L 469.841427 193.822819 
L 474.621306 192.69802 
L 479.401184 192.1591 
L 484.181062 189.663282 
L 488.960941 192.510254 
L 493.740819 184.926728 
L 498.520697 192.402532 
L 503.300576 175.766285 
L 508.080454 191.657593 
L 512.860332 192.522235 
L 517.640211 183.540983 
L 522.420089 192.945811 
L 527.199967 186.762734 
L 531.979846 191.858535 
L 536.759724 186.362613 
L 541.539602 183.009804 
" clip-path="url(#p36b1b16f86)" style="fill: none; stroke: #ff7f0e; stroke-width: 1.2; stroke-linecap: square"/>
    <defs>
     <path id="m0a5f73c141" d="M 0 1.25 
C 0.331504 1.25 0.649475 1.118292 0.883883 0.883883 
C 1.118292 0.649475 1.25 0.331504 1.25 0 
C 1.25 -0.331504 1.118292 -0.649475 0.883883 -0.883883 
C 0.649475 -1.118292 0.331504 -1.25 0 -1.25 
C -0.331504 -1.25 -0.649475 -1.118292 -0.883883 -0.883883 
C -1.118292 -0.649475 -1.25 -0.331504 -1.25 0 
C -1.25 0.331504 -1.118292 0.649475 -0.883883 0.883883 
C -0.649475 1.118292 -0.331504 1.25 0 1.25 
z
" style="stroke: #ff7f0e"/>
    </defs>
    <g clip-path="url(#p36b1b16f86)">
     <use xlink:href="#m0a5f73c141" x="68.331648" y="218.781972" style="fill: #ff7f0e; stroke: #ff7f0e"/>
     <use xlink:href="#m0a5f73c141" x="73.111526" y="219.571281" style="fill: #ff7f0e; stroke: #ff7f0e"/>
     <use xlink:href="#m0a5f73c141" x="77.891404" y="220.140824" style="fill: #ff7f0e; stroke: #ff7f0e"/>
     <use xlink:href="#m0a5f73c141" x="82.671283" y="214.130399" style="fill: #ff7f0e; stroke: #ff7f0e"/>
     <use xlink:href="#m0a5f73c141" x="87.451161" y="222.81001" style="fill: #ff7f0e; stroke: #ff7f0e"/>
     <use xlink:href="#m0a5f73c141" x="92.231039" y="221.424384" style="fill: #ff7f0e; stroke: #ff7f0e"/>
     <use xlink:href="#m0a5f73c141" x="97.010918" y="222.026526" style="fill: #ff7f0e; stroke: #ff7f0e"/>
     <use xlink:href="#m0a5f73c141" x="101.790796" y="221.427193" style="fill: #ff7f0e; stroke: #ff7f0e"/>
     <use xlink:href="#m0a5f73c141" x="106.570674" y="223.371158" style="fill: #ff7f0e; stroke: #ff7f0e"/>
     <use xlink:href="#m0a5f73c141" x="111.350553" y="215.496901" style="fill: #ff7f0e; stroke: #ff7f0e"/>
     <use xlink:href="#m0a5f73c141" x="116.130431" y="220.2723" style="fill: #ff7f0e; stroke: #ff7f0e"/>
     <use xlink:href="#m0a5f73c141" x="120.910309" y="218.758848" style="fill: #ff7f0e; stroke: #ff7f0e"/>
     <use xlink:href="#m0a5f73c141" x="125.690188" y="219.566321" style="fill: #ff7f0e; stroke: #ff7f0e"/>
     <use xlink:href="#m0a5f73c141" x="130.470066" y="218.504478" style="fill: #ff7f0e; stroke: #ff7f0e"/>
     <use xlink:href="#m0a5f73c141" x="135.249944" y="217.160982" style="fill: #ff7f0e; stroke: #ff7f0e"/>
     <use xlink:href="#m0a5f73c141" x="140.029823" y="217.226985" style="fill: #ff7f0e; stroke: #ff7f0e"/>
     <use xlink:href="#m0a5f73c141" x="144.809701" y="208.846234" style="fill: #ff7f0e; stroke: #ff7f0e"/>
     <use xlink:href="#m0a5f73c141" x="149.589579" y="206.638219" style="fill: #ff7f0e; stroke: #ff7f0e"/>
     <use xlink:href="#m0a5f73c141" x="154.369458" y="214.222966" style="fill: #ff7f0e; stroke: #ff7f0e"/>
     <use xlink:href="#m0a5f73c141" x="159.149336" y="213.79365" style="fill: #ff7f0e; stroke: #ff7f0e"/>
     <use xlink:href="#m0a5f73c141" x="163.929214" y="214.489794" style="fill: #ff7f0e; stroke: #ff7f0e"/>
     <use xlink:href="#m0a5f73c141" x="168.709093" y="214.722591" style="fill: #ff7f0e; stroke: #ff7f0e"/>
     <use xlink:href="#m0a5f73c141" x="173.488971" y="214.572505" style="fill: #ff7f0e; stroke: #ff7f0e"/>
     <use xlink:href="#m0a5f73c141" x="178.268849" y="206.840181" style="fill: #ff7f0e; stroke: #ff7f0e"/>
     <use xlink:href="#m0a5f73c141" x="183.048728" y="172.46" style="fill: #ff7f0e; stroke: #ff7f0e"/>
     <use xlink:href="#m0a5f73c141" x="187.828606" y="215.060711" style="fill: #ff7f0e; stroke: #ff7f0e"/>
     <use xlink:href="#m0a5f73c141" x="192.608484" y="215.002744" style="fill: #ff7f0e; stroke: #ff7f0e"/>
     <use xlink:href="#m0a5f73c141" x="197.388363" y="213.254169" style="fill: #ff7f0e; stroke: #ff7f0e"/>
     <use xlink:href="#m0a5f73c141" x="202.168241" y="203.451394" style="fill: #ff7f0e; stroke: #ff7f0e"/>
     <use xlink:href="#m0a5f73c141" x="206.948119" y="213.811043" style="fill: #ff7f0e; stroke: #ff7f0e"/>
     <use xlink:href="#m0a5f73c141" x="211.727998" y="210.296222" style="fill: #ff7f0e; stroke: #ff7f0e"/>
     <use xlink:href="#m0a5f73c141" x="216.507876" y="213.590676" style="fill: #ff7f0e; stroke: #ff7f0e"/>
     <use xlink:href="#m0a5f73c141" x="221.287754" y="214.880415" style="fill: #ff7f0e; stroke: #ff7f0e"/>
     <use xlink:href="#m0a5f73c141" x="226.067633" y="216.413713" style="fill: #ff7f0e; stroke: #ff7f0e"/>
     <use xlink:href="#m0a5f73c141" x="230.847511" y="214.346549" style="fill: #ff7f0e; stroke: #ff7f0e"/>
     <use xlink:href="#m0a5f73c141" x="235.627389" y="212.712173" style="fill: #ff7f0e; stroke: #ff7f0e"/>
     <use xlink:href="#m0a5f73c141" x="240.407268" y="191.674087" style="fill: #ff7f0e; stroke: #ff7f0e"/>
     <use xlink:href="#m0a5f73c141" x="245.187146" y="208.863832" style="fill: #ff7f0e; stroke: #ff7f0e"/>
     <use xlink:href="#m0a5f73c141" x="249.967024" y="211.610973" style="fill: #ff7f0e; stroke: #ff7f0e"/>
     <use xlink:href="#m0a5f73c141" x="254.746903" y="210.379589" style="fill: #ff7f0e; stroke: #ff7f0e"/>
     <use xlink:href="#m0a5f73c141" x="259.526781" y="207.393734" style="fill: #ff7f0e; stroke: #ff7f0e"/>
     <use xlink:href="#m0a5f73c141" x="264.306659" y="212.75795" style="fill: #ff7f0e; stroke: #ff7f0e"/>
     <use xlink:href="#m0a5f73c141" x="269.086538" y="196.664441" style="fill: #ff7f0e; stroke: #ff7f0e"/>
     <use xlink:href="#m0a5f73c141" x="273.866416" y="209.361096" style="fill: #ff7f0e; stroke: #ff7f0e"/>
     <use xlink:href="#m0a5f73c141" x="278.646294" y="208.462185" style="fill: #ff7f0e; stroke: #ff7f0e"/>
     <use xlink:href="#m0a5f73c141" x="283.426173" y="202.470372" style="fill: #ff7f0e; stroke: #ff7f0e"/>
     <use xlink:href="#m0a5f73c141" x="288.206051" y="209.728979" style="fill: #ff7f0e; stroke: #ff7f0e"/>
     <use xlink:href="#m0a5f73c141" x="292.985929" y="210.420224" style="fill: #ff7f0e; stroke: #ff7f0e"/>
     <use xlink:href="#m0a5f73c141" x="297.765808" y="209.19108" style="fill: #ff7f0e; stroke: #ff7f0e"/>
     <use xlink:href="#m0a5f73c141" x="302.545686" y="209.612237" style="fill: #ff7f0e; stroke: #ff7f0e"/>
     <use xlink:href="#m0a5f73c141" x="307.325564" y="199.156048" style="fill: #ff7f0e; stroke: #ff7f0e"/>
     <use xlink:href="#m0a5f73c141" x="312.105442" y="194.382625" style="fill: #ff7f0e; stroke: #ff7f0e"/>
     <use xlink:href="#m0a5f73c141" x="316.885321" y="199.535767" style="fill: #ff7f0e; stroke: #ff7f0e"/>
     <use xlink:href="#m0a5f73c141" x="321.665199" y="200.000245" style="fill: #ff7f0e; stroke: #ff7f0e"/>
     <use xlink:href="#m0a5f73c141" x="326.445077" y="191.354937" style="fill: #ff7f0e; stroke: #ff7f0e"/>
     <use xlink:href="#m0a5f73c141" x="331.224956" y="182.132077" style="fill: #ff7f0e; stroke: #ff7f0e"/>
     <use xlink:href="#m0a5f73c141" x="336.004834" y="181.475492" style="fill: #ff7f0e; stroke: #ff7f0e"/>
     <use xlink:href="#m0a5f73c141" x="340.784712" y="178.197775" style="fill: #ff7f0e; stroke: #ff7f0e"/>
     <use xlink:href="#m0a5f73c141" x="345.564591" y="187.001956" style="fill: #ff7f0e; stroke: #ff7f0e"/>
     <use xlink:href="#m0a5f73c141" x="350.344469" y="181.365418" style="fill: #ff7f0e; stroke: #ff7f0e"/>
     <use xlink:href="#m0a5f73c141" x="355.124347" y="188.897124" style="fill: #ff7f0e; stroke: #ff7f0e"/>
     <use xlink:href="#m0a5f73c141" x="359.904226" y="194.967794" style="fill: #ff7f0e; stroke: #ff7f0e"/>
     <use xlink:href="#m0a5f73c141" x="364.684104" y="199.720753" style="fill: #ff7f0e; stroke: #ff7f0e"/>
     <use xlink:href="#m0a5f73c141" x="369.463982" y="202.328981" style="fill: #ff7f0e; stroke: #ff7f0e"/>
     <use xlink:href="#m0a5f73c141" x="374.243861" y="201.226255" style="fill: #ff7f0e; stroke: #ff7f0e"/>
     <use xlink:href="#m0a5f73c141" x="379.023739" y="204.907595" style="fill: #ff7f0e; stroke: #ff7f0e"/>
     <use xlink:href="#m0a5f73c141" x="383.803617" y="203.800245" style="fill: #ff7f0e; stroke: #ff7f0e"/>
     <use xlink:href="#m0a5f73c141" x="388.583496" y="196.774043" style="fill: #ff7f0e; stroke: #ff7f0e"/>
     <use xlink:href="#m0a5f73c141" x="393.363374" y="195.628589" style="fill: #ff7f0e; stroke: #ff7f0e"/>
     <use xlink:href="#m0a5f73c141" x="398.143252" y="190.674539" style="fill: #ff7f0e; stroke: #ff7f0e"/>
     <use xlink:href="#m0a5f73c141" x="402.923131" y="193.486189" style="fill: #ff7f0e; stroke: #ff7f0e"/>
     <use xlink:href="#m0a5f73c141" x="407.703009" y="195.942333" style="fill: #ff7f0e; stroke: #ff7f0e"/>
     <use xlink:href="#m0a5f73c141" x="412.482887" y="195.818658" style="fill: #ff7f0e; stroke: #ff7f0e"/>
     <use xlink:href="#m0a5f73c141" x="417.262766" y="196.928492" style="fill: #ff7f0e; stroke: #ff7f0e"/>
     <use xlink:href="#m0a5f73c141" x="422.042644" y="196.241073" style="fill: #ff7f0e; stroke: #ff7f0e"/>
     <use xlink:href="#m0a5f73c141" x="426.822522" y="197.072572" style="fill: #ff7f0e; stroke: #ff7f0e"/>
     <use xlink:href="#m0a5f73c141" x="431.602401" y="196.412643" style="fill: #ff7f0e; stroke: #ff7f0e"/>
     <use xlink:href="#m0a5f73c141" x="436.382279" y="195.265071" style="fill: #ff7f0e; stroke: #ff7f0e"/>
     <use xlink:href="#m0a5f73c141" x="441.162157" y="189.815429" style="fill: #ff7f0e; stroke: #ff7f0e"/>
     <use xlink:href="#m0a5f73c141" x="445.942036" y="195.710614" style="fill: #ff7f0e; stroke: #ff7f0e"/>
     <use xlink:href="#m0a5f73c141" x="450.721914" y="188.57269" style="fill: #ff7f0e; stroke: #ff7f0e"/>
     <use xlink:href="#m0a5f73c141" x="455.501792" y="194.21873" style="fill: #ff7f0e; stroke: #ff7f0e"/>
     <use xlink:href="#m0a5f73c141" x="460.281671" y="193.953608" style="fill: #ff7f0e; stroke: #ff7f0e"/>
     <use xlink:href="#m0a5f73c141" x="465.061549" y="190.796659" style="fill: #ff7f0e; stroke: #ff7f0e"/>
     <use xlink:href="#m0a5f73c141" x="469.841427" y="193.822819" style="fill: #ff7f0e; stroke: #ff7f0e"/>
     <use xlink:href="#m0a5f73c141" x="474.621306" y="192.69802" style="fill: #ff7f0e; stroke: #ff7f0e"/>
     <use xlink:href="#m0a5f73c141" x="479.401184" y="192.1591" style="fill: #ff7f0e; stroke: #ff7f0e"/>
     <use xlink:href="#m0a5f73c141" x="484.181062" y="189.663282" style="fill: #ff7f0e; stroke: #ff7f0e"/>
     <use xlink:href="#m0a5f73c141" x="488.960941" y="192.510254" style="fill: #ff7f0e; stroke: #ff7f0e"/>
     <use xlink:href="#m0a5f73c141" x="493.740819" y="184.926728" style="fill: #ff7f0e; stroke: #ff7f0e"/>
     <use xlink:href="#m0a5f73c141" x="498.520697" y="192.402532" style="fill: #ff7f0e; stroke: #ff7f0e"/>
     <use xlink:href="#m0a5f73c141" x="503.300576" y="175.766285" style="fill: #ff7f0e; stroke: #ff7f0e"/>
     <use xlink:href="#m0a5f73c141" x="508.080454" y="191.657593" style="fill: #ff7f0e; stroke: #ff7f0e"/>
     <use xlink:href="#m0a5f73c141" x="512.860332" y="192.522235" style="fill: #ff7f0e; stroke: #ff7f0e"/>
     <use xlink:href="#m0a5f73c141" x="517.640211" y="183.540983" style="fill: #ff7f0e; stroke: #ff7f0e"/>
     <use xlink:href="#m0a5f73c141" x="522.420089" y="192.945811" style="fill: #ff7f0e; stroke: #ff7f0e"/>
     <use xlink:href="#m0a5f73c141" x="527.199967" y="186.762734" style="fill: #ff7f0e; stroke: #ff7f0e"/>
     <use xlink:href="#m0a5f73c141" x="531.979846" y="191.858535" style="fill: #ff7f0e; stroke: #ff7f0e"/>
     <use xlink:href="#m0a5f73c141" x="536.759724" y="186.362613" style="fill: #ff7f0e; stroke: #ff7f0e"/>
     <use xlink:href="#m0a5f73c141" x="541.539602" y="183.009804" style="fill: #ff7f0e; stroke: #ff7f0e"/>
    </g>
   </g>
   <g id="patch_3">
    <path d="M 44.67125 318.04 
L 44.67125 26.88 
" style="fill: none; stroke: #000000; stroke-width: 0.8; stroke-linejoin: miter; stroke-linecap: square"/>
   </g>
   <g id="patch_4">
    <path d="M 565.2 318.04 
L 565.2 26.88 
" style="fill: none; stroke: #000000; stroke-width: 0.8; stroke-linejoin: miter; stroke-linecap: square"/>
   </g>
   <g id="patch_5">
    <path d="M 44.67125 318.04 
L 565.2 318.04 
" style="fill: none; stroke: #000000; stroke-width: 0.8; stroke-linejoin: miter; stroke-linecap: square"/>
   </g>
   <g id="patch_6">
    <path d="M 44.67125 26.88 
L 565.2 26.88 
" style="fill: none; stroke: #000000; stroke-width: 0.8; stroke-linejoin: miter; stroke-linecap: square"/>
   </g>
   <g id="text_15">
    <!-- Verification latency vs draft length, context_len=128 -->
    <g transform="translate(146.370625 20.88) scale(0.12 -0.12)">
     <defs>
      <path id="DejaVuSans-56" d="M 1831 0 
L 50 4666 
L 709 4666 
L 2188 738 
L 3669 4666 
L 4325 4666 
L 2547 0 
L 1831 0 
z
" transform="scale(0.015625)"/>
      <path id="DejaVuSans-69" d="M 603 3500 
L 1178 3500 
L 1178 0 
L 603 0 
L 603 3500 
z
M 603 4863 
L 1178 4863 
L 1178 4134 
L 603 4134 
L 603 4863 
z
" transform="scale(0.015625)"/>
      <path id="DejaVuSans-6f" d="M 1959 3097 
Q 1497 3097 1228 2736 
Q 959 2375 959 1747 
Q 959 1119 1226 758 
Q 1494 397 1959 397 
Q 2419 397 2687 759 
Q 2956 1122 2956 1747 
Q 2956 2369 2687 2733 
Q 2419 3097 1959 3097 
z
M 1959 3584 
Q 2709 3584 3137 3096 
Q 3566 2609 3566 1747 
Q 3566 888 3137 398 
Q 2709 -91 1959 -91 
Q 1206 -91 779 398 
Q 353 888 353 1747 
Q 353 2609 779 3096 
Q 1206 3584 1959 3584 
z
" transform="scale(0.015625)"/>
      <path id="DejaVuSans-79" d="M 2059 -325 
Q 1816 -950 1584 -1140 
Q 1353 -1331 966 -1331 
L 506 -1331 
L 506 -850 
L 844 -850 
Q 1081 -850 1212 -737 
Q 1344 -625 1503 -206 
L 1606 56 
L 191 3500 
L 800 3500 
L 1894 763 
L 2988 3500 
L 3597 3500 
L 2059 -325 
z
" transform="scale(0.015625)"/>
      <path id="DejaVuSans-76" d="M 191 3500 
L 800 3500 
L 1894 563 
L 2988 3500 
L 3597 3500 
L 2284 0 
L 1503 0 
L 191 3500 
z
" transform="scale(0.015625)"/>
      <path id="DejaVuSans-2c" d="M 750 794 
L 1409 794 
L 1409 256 
L 897 -744 
L 494 -744 
L 750 256 
L 750 794 
z
" transform="scale(0.015625)"/>
      <path id="DejaVuSans-78" d="M 3513 3500 
L 2247 1797 
L 3578 0 
L 2900 0 
L 1881 1375 
L 863 0 
L 184 0 
L 1544 1831 
L 300 3500 
L 978 3500 
L 1906 2253 
L 2834 3500 
L 3513 3500 
z
" transform="scale(0.015625)"/>
      <path id="DejaVuSans-3d" d="M 678 2906 
L 4684 2906 
L 4684 2381 
L 678 2381 
L 678 2906 
z
M 678 1631 
L 4684 1631 
L 4684 1100 
L 678 1100 
L 678 1631 
z
" transform="scale(0.015625)"/>
     </defs>
     <use xlink:href="#DejaVuSans-56"/>
     <use xlink:href="#DejaVuSans-65" transform="translate(60.658203 0)"/>
     <use xlink:href="#DejaVuSans-72" transform="translate(122.181641 0)"/>
     <use xlink:href="#DejaVuSans-69" transform="translate(163.294922 0)"/>
     <use xlink:href="#DejaVuSans-66" transform="translate(191.078125 0)"/>
     <use xlink:href="#DejaVuSans-69" transform="translate(226.283203 0)"/>
     <use xlink:href="#DejaVuSans-63" transform="translate(254.066406 0)"/>
     <use xlink:href="#DejaVuSans-61" transform="translate(309.046875 0)"/>
     <use xlink:href="#DejaVuSans-74" transform="translate(370.326172 0)"/>
     <use xlink:href="#DejaVuSans-69" transform="translate(409.535156 0)"/>
     <use xlink:href="#DejaVuSans-6f" transform="translate(437.318359 0)"/>
     <use xlink:href="#DejaVuSans-6e" transform="translate(498.5 0)"/>
     <use xlink:href="#DejaVuSans-20" transform="translate(561.878906 0)"/>
     <use xlink:href="#DejaVuSans-6c" transform="translate(593.666016 0)"/>
     <use xlink:href="#DejaVuSans-61" transform="translate(621.449219 0)"/>
     <use xlink:href="#DejaVuSans-74" transform="translate(682.728516 0)"/>
     <use xlink:href="#DejaVuSans-65" transform="translate(721.9375 0)"/>
     <use xlink:href="#DejaVuSans-6e" transform="translate(783.460938 0)"/>
     <use xlink:href="#DejaVuSans-63" transform="translate(846.839844 0)"/>
     <use xlink:href="#DejaVuSans-79" transform="translate(901.820312 0)"/>
     <use xlink:href="#DejaVuSans-20" transform="translate(961 0)"/>
     <use xlink:href="#DejaVuSans-76" transform="translate(992.787109 0)"/>
     <use xlink:href="#DejaVuSans-73" transform="translate(1051.966797 0)"/>
     <use xlink:href="#DejaVuSans-20" transform="translate(1104.066406 0)"/>
     <use xlink:href="#DejaVuSans-64" transform="translate(1135.853516 0)"/>
     <use xlink:href="#DejaVuSans-72" transform="translate(1199.330078 0)"/>
     <use xlink:href="#DejaVuSans-61" transform="translate(1240.443359 0)"/>
     <use xlink:href="#DejaVuSans-66" transform="translate(1301.722656 0)"/>
     <use xlink:href="#DejaVuSans-74" transform="translate(1335.177734 0)"/>
     <use xlink:href="#DejaVuSans-20" transform="translate(1374.386719 0)"/>
     <use xlink:href="#DejaVuSans-6c" transform="translate(1406.173828 0)"/>
     <use xlink:href="#DejaVuSans-65" transform="translate(1433.957031 0)"/>
     <use xlink:href="#DejaVuSans-6e" transform="translate(1495.480469 0)"/>
     <use xlink:href="#DejaVuSans-67" transform="translate(1558.859375 0)"/>
     <use xlink:href="#DejaVuSans-74" transform="translate(1622.335938 0)"/>
     <use xlink:href="#DejaVuSans-68" transform="translate(1661.544922 0)"/>
     <use xlink:href="#DejaVuSans-2c" transform="translate(1724.923828 0)"/>
     <use xlink:href="#DejaVuSans-20" transform="translate(1756.710938 0)"/>
     <use xlink:href="#DejaVuSans-63" transform="translate(1788.498047 0)"/>
     <use xlink:href="#DejaVuSans-6f" transform="translate(1843.478516 0)"/>
     <use xlink:href="#DejaVuSans-6e" transform="translate(1904.660156 0)"/>
     <use xlink:href="#DejaVuSans-74" transform="translate(1968.039062 0)"/>
     <use xlink:href="#DejaVuSans-65" transform="translate(2007.248047 0)"/>
     <use xlink:href="#DejaVuSans-78" transform="translate(2067.021484 0)"/>
     <use xlink:href="#DejaVuSans-74" transform="translate(2126.201172 0)"/>
     <use xlink:href="#DejaVuSans-5f" transform="translate(2165.410156 0)"/>
     <use xlink:href="#DejaVuSans-6c" transform="translate(2215.410156 0)"/>
     <use xlink:href="#DejaVuSans-65" transform="translate(2243.193359 0)"/>
     <use xlink:href="#DejaVuSans-6e" transform="translate(2304.716797 0)"/>
     <use xlink:href="#DejaVuSans-3d" transform="translate(2368.095703 0)"/>
     <use xlink:href="#DejaVuSans-31" transform="translate(2451.884766 0)"/>
     <use xlink:href="#DejaVuSans-32" transform="translate(2515.507812 0)"/>
     <use xlink:href="#DejaVuSans-38" transform="translate(2579.130859 0)"/>
    </g>
   </g>
   <g id="legend_1">
    <g id="patch_7">
     <path d="M 414.221875 64.7925 
L 558.2 64.7925 
Q 560.2 64.7925 560.2 62.7925 
L 560.2 33.88 
Q 560.2 31.88 558.2 31.88 
L 414.221875 31.88 
Q 412.221875 31.88 412.221875 33.88 
L 412.221875 62.7925 
Q 412.221875 64.7925 414.221875 64.7925 
z
" style="fill: #ffffff; opacity: 0.8; stroke: #cccccc; stroke-linejoin: miter"/>
    </g>
    <g id="line2d_27">
     <path d="M 416.221875 39.978437 
L 426.221875 39.978437 
L 436.221875 39.978437 
" style="fill: none; stroke: #1f77b4; stroke-width: 1.2; stroke-linecap: square"/>
     <g>
      <use xlink:href="#m64fdf63dc0" x="426.221875" y="39.978437" style="fill: #1f77b4; stroke: #1f77b4"/>
     </g>
    </g>
    <g id="text_16">
     <!-- target_only -->
     <g transform="translate(444.221875 43.478437) scale(0.1 -0.1)">
      <use xlink:href="#DejaVuSans-74"/>
      <use xlink:href="#DejaVuSans-61" transform="translate(39.208984 0)"/>
      <use xlink:href="#DejaVuSans-72" transform="translate(100.488281 0)"/>
      <use xlink:href="#DejaVuSans-67" transform="translate(139.851562 0)"/>
      <use xlink:href="#DejaVuSans-65" transform="translate(203.328125 0)"/>
      <use xlink:href="#DejaVuSans-74" transform="translate(264.851562 0)"/>
      <use xlink:href="#DejaVuSans-5f" transform="translate(304.060547 0)"/>
      <use xlink:href="#DejaVuSans-6f" transform="translate(354.060547 0)"/>
      <use xlink:href="#DejaVuSans-6e" transform="translate(415.242188 0)"/>
      <use xlink:href="#DejaVuSans-6c" transform="translate(478.621094 0)"/>
      <use xlink:href="#DejaVuSans-79" transform="translate(506.404297 0)"/>
     </g>
    </g>
    <g id="line2d_28">
     <path d="M 416.221875 54.934687 
L 426.221875 54.934687 
L 436.221875 54.934687 
" style="fill: none; stroke: #ff7f0e; stroke-width: 1.2; stroke-linecap: square"/>
     <g>
      <use xlink:href="#m0a5f73c141" x="426.221875" y="54.934687" style="fill: #ff7f0e; stroke: #ff7f0e"/>
     </g>
    </g>
    <g id="text_17">
     <!-- classic_spec_sampling -->
     <g transform="translate(444.221875 58.434687) scale(0.1 -0.1)">
      <defs>
       <path id="DejaVuSans-70" d="M 1159 525 
L 1159 -1331 
L 581 -1331 
L 581 3500 
L 1159 3500 
L 1159 2969 
Q 1341 3281 1617 3432 
Q 1894 3584 2278 3584 
Q 2916 3584 3314 3078 
Q 3713 2572 3713 1747 
Q 3713 922 3314 415 
Q 2916 -91 2278 -91 
Q 1894 -91 1617 61 
Q 1341 213 1159 525 
z
M 3116 1747 
Q 3116 2381 2855 2742 
Q 2594 3103 2138 3103 
Q 1681 3103 1420 2742 
Q 1159 2381 1159 1747 
Q 1159 1113 1420 752 
Q 1681 391 2138 391 
Q 2594 391 2855 752 
Q 3116 1113 3116 1747 
z
" transform="scale(0.015625)"/>
      </defs>
      <use xlink:href="#DejaVuSans-63"/>
      <use xlink:href="#DejaVuSans-6c" transform="translate(54.980469 0)"/>
      <use xlink:href="#DejaVuSans-61" transform="translate(82.763672 0)"/>
      <use xlink:href="#DejaVuSans-73" transform="translate(144.042969 0)"/>
      <use xlink:href="#DejaVuSans-73" transform="translate(196.142578 0)"/>
      <use xlink:href="#DejaVuSans-69" transform="translate(248.242188 0)"/>
      <use xlink:href="#DejaVuSans-63" transform="translate(276.025391 0)"/>
      <use xlink:href="#DejaVuSans-5f" transform="translate(331.005859 0)"/>
      <use xlink:href="#DejaVuSans-73" transform="translate(381.005859 0)"/>
      <use xlink:href="#DejaVuSans-70" transform="translate(433.105469 0)"/>
      <use xlink:href="#DejaVuSans-65" transform="translate(496.582031 0)"/>
      <use xlink:href="#DejaVuSans-63" transform="translate(558.105469 0)"/>
      <use xlink:href="#DejaVuSans-5f" transform="translate(613.085938 0)"/>
      <use xlink:href="#DejaVuSans-73" transform="translate(663.085938 0)"/>
      <use xlink:href="#DejaVuSans-61" transform="translate(715.185547 0)"/>
      <use xlink:href="#DejaVuSans-6d" transform="translate(776.464844 0)"/>
      <use xlink:href="#DejaVuSans-70" transform="translate(873.876953 0)"/>
      <use xlink:href="#DejaVuSans-6c" transform="translate(937.353516 0)"/>
      <use xlink:href="#DejaVuSans-69" transform="translate(965.136719 0)"/>
      <use xlink:href="#DejaVuSans-6e" transform="translate(992.919922 0)"/>
      <use xlink:href="#DejaVuSans-67" transform="translate(1056.298828 0)"/>
     </g>
    </g>
   </g>
  </g>
 </g>
 <defs>
  <clipPath id="p36b1b16f86">
   <rect x="44.67125" y="26.88" width="520.52875" height="291.16"/>
  </clipPath>
 </defs>
</svg>
