<?xml version="1.0" encoding="utf-8" standalone="no"?>
<!DOCTYPE svg PUBLIC "-//W3C//DTD SVG 1.1//EN"
  "http://www.w3.org/Graphics/SVG/1.1/DTD/svg11.dtd">
<svg xmlns:xlink="http://www.w3.org/1999/xlink" width="576pt" height="360pt" viewBox="0 0 576 360" xmlns="http://www.w3.org/2000/svg" version="1.1">
 <metadata>
  <rdf:RDF xmlns:dc="http://purl.org/dc/elements/1.1/" xmlns:cc="http://creativecommons.org/ns#" xmlns:rdf="http://www.w3.org/1999/02/22-rdf-syntax-ns#">
   <cc:Work>
    <dc:type rdf:resource="http://purl.org/dc/dcmitype/StillImage"/>
    <dc:date>2026-05-18T00:00:01.576059</dc:date>
    <dc:format>image/svg+xml</dc:format>
    <dc:creator>
     <cc:Agent>
      <dc:title>Matplotlib v3.10.9, https://matplotlib.org/</dc:title>
     </cc:Agent>
    </dc:creator>
   </cc:Work>
  </rdf:RDF>
 </metadata>
 <defs>
  <style type="text/css">*{stroke-linejoin: round; stroke-linecap: butt}</style>
 </defs>
 <g id="figure_1">
  <g id="patch_1">
   <path d="M 0 360 
L 576 360 
L 576 0 
L 0 0 
z
" style="fill: #ffffff"/>
  </g>
  <g id="axes_1">
   <g id="patch_2">
    <path d="M 44.67125 318.04 
L 565.2 318.04 
L 565.2 26.88 
L 44.67125 26.88 
z
" style="fill: #ffffff"/>
   </g>
   <g id="FillBetweenPolyCollection_1">
    <path d="M 68.331648 230.599494 
L 68.331648 237.47631 
L 73.111526 231.624556 
L 77.891404 231.591721 
L 82.671283 234.547671 
L 87.451161 233.256817 
L 92.231039 235.702442 
L 97.010918 244.192408 
L 101.790796 240.577128 
L 106.570674 238.183175 
L 111.350553 249.491222 
L 116.130431 231.704705 
L 120.910309 233.091899 
L 125.690188 237.397614 
L 130.470066 233.016759 
L 135.249944 232.906795 
L 140.029823 233.979371 
L 144.809701 230.468603 
L 149.589579 231.054984 
L 154.369458 229.924733 
L 159.149336 231.12196 
L 163.929214 241.975431 
L 168.709093 220.451556 
L 173.488971 224.951733 
L 178.268849 228.369158 
L 183.048728 217.714977 
L 187.828606 220.088929 
L 192.608484 233.269941 
L 197.388363 232.498361 
L 202.168241 219.288455 
L 206.948119 219.321461 
L 211.727998 304.805455 
L 216.507876 219.674188 
L 221.287754 216.434963 
L 226.067633 283.627303 
L 230.847511 229.84232 
L 235.627389 213.591999 
L 240.407268 214.124684 
L 245.187146 215.826153 
L 249.967024 209.8902 
L 254.746903 206.700818 
L 259.526781 227.219784 
L 264.306659 221.139993 
L 269.086538 200.730919 
L 273.866416 199.776688 
L 278.646294 213.209048 
L 283.426173 223.666777 
L 288.206051 208.635998 
L 292.985929 205.056402 
L 297.765808 209.503154 
L 302.545686 226.971635 
L 307.325564 216.290427 
L 312.105442 217.132791 
L 316.885321 216.048154 
L 321.665199 228.409536 
L 326.445077 216.668746 
L 331.224956 225.435899 
L 336.004834 226.440432 
L 340.784712 222.645153 
L 345.564591 214.202388 
L 350.344469 234.153764 
L 355.124347 229.020842 
L 359.904226 287.993919 
L 364.684104 225.577209 
L 369.463982 215.17138 
L 374.243861 223.05185 
L 379.023739 230.422614 
L 383.803617 223.151634 
L 388.583496 217.504359 
L 393.363374 217.492637 
L 398.143252 228.120822 
L 402.923131 217.580126 
L 407.703009 218.172429 
L 412.482887 230.814026 
L 417.262766 217.878236 
L 422.042644 222.142886 
L 426.822522 231.181072 
L 431.602401 216.782029 
L 436.382279 253.035096 
L 441.162157 216.561546 
L 445.942036 237.53373 
L 450.721914 221.529968 
L 455.501792 216.467904 
L 460.281671 224.296479 
L 465.061549 216.438803 
L 469.841427 216.297845 
L 474.621306 214.710294 
L 479.401184 222.801687 
L 484.181062 215.438879 
L 488.960941 230.899701 
L 493.740819 221.415099 
L 498.520697 210.520192 
L 503.300576 216.84898 
L 508.080454 216.410294 
L 512.860332 210.017695 
L 517.640211 210.928507 
L 522.420089 222.762516 
L 527.199967 211.074565 
L 531.979846 212.914525 
L 536.759724 222.575169 
L 541.539602 213.842229 
L 541.539602 212.276526 
L 541.539602 212.276526 
L 536.759724 191.387079 
L 531.979846 208.833799 
L 527.199967 209.045519 
L 522.420089 171.643463 
L 517.640211 209.006818 
L 512.860332 207.728323 
L 508.080454 195.428557 
L 503.300576 200.329055 
L 498.520697 208.862164 
L 493.740819 189.90124 
L 488.960941 177.22714 
L 484.181062 211.656681 
L 479.401184 193.6156 
L 474.621306 212.462701 
L 469.841427 215.447562 
L 465.061549 215.458952 
L 460.281671 198.186028 
L 455.501792 215.561468 
L 450.721914 204.027364 
L 445.942036 176.073441 
L 441.162157 215.448217 
L 436.382279 145.845758 
L 431.602401 215.376491 
L 426.822522 186.651498 
L 422.042644 204.631916 
L 417.262766 210.450603 
L 412.482887 188.243807 
L 407.703009 216.472303 
L 402.923131 216.249091 
L 398.143252 195.159929 
L 393.363374 216.671287 
L 388.583496 216.720969 
L 383.803617 221.941994 
L 379.023739 206.474032 
L 374.243861 222.092735 
L 369.463982 212.192787 
L 364.684104 186.456226 
L 359.904226 46.063268 
L 355.124347 180.414592 
L 350.344469 171.655555 
L 345.564591 212.314655 
L 340.784712 193.393691 
L 336.004834 184.393507 
L 331.224956 185.089675 
L 326.445077 215.040801 
L 321.665199 176.780661 
L 316.885321 212.421781 
L 312.105442 214.135617 
L 307.325564 213.784768 
L 302.545686 188.101072 
L 297.765808 199.342909 
L 292.985929 198.187013 
L 288.206051 181.278145 
L 283.426173 152.368263 
L 278.646294 168.46544 
L 273.866416 195.943898 
L 269.086538 197.257872 
L 264.306659 154.085247 
L 259.526781 164.514212 
L 254.746903 199.966115 
L 249.967024 199.813754 
L 245.187146 207.805777 
L 240.407268 206.66477 
L 235.627389 205.764284 
L 230.847511 193.092834 
L 226.067633 72.118753 
L 221.287754 213.656084 
L 216.507876 217.893822 
L 211.727998 40.114545 
L 206.948119 216.558317 
L 202.168241 215.597214 
L 197.388363 189.716425 
L 192.608484 187.882727 
L 187.828606 216.894803 
L 183.048728 215.710075 
L 178.268849 197.472587 
L 173.488971 205.166585 
L 168.709093 208.702096 
L 163.929214 205.434045 
L 159.149336 227.269681 
L 154.369458 228.721303 
L 149.589579 228.665121 
L 144.809701 226.549241 
L 140.029823 232.216284 
L 135.249944 225.8064 
L 130.470066 229.170123 
L 125.690188 220.827246 
L 120.910309 230.92276 
L 116.130431 228.169868 
L 111.350553 196.205805 
L 106.570674 221.710617 
L 101.790796 215.17246 
L 97.010918 211.409796 
L 92.231039 228.82796 
L 87.451161 223.104315 
L 82.671283 229.473494 
L 77.891404 228.368213 
L 73.111526 229.471027 
L 68.331648 230.599494 
z
" clip-path="url(#pbd55c65d94)" style="fill: #1f77b4; fill-opacity: 0.15"/>
   </g>
   <g id="FillBetweenPolyCollection_2">
    <path d="M 68.331648 225.854563 
L 68.331648 235.440431 
L 73.111526 244.655068 
L 77.891404 228.445763 
L 82.671283 231.50295 
L 87.451161 230.433615 
L 92.231039 230.386576 
L 97.010918 230.461192 
L 101.790796 229.363068 
L 106.570674 230.649432 
L 111.350553 229.089257 
L 116.130431 239.301204 
L 120.910309 229.261972 
L 125.690188 229.415729 
L 130.470066 229.095317 
L 135.249944 230.401277 
L 140.029823 238.505356 
L 144.809701 280.128823 
L 149.589579 228.351692 
L 154.369458 279.270599 
L 159.149336 229.01061 
L 163.929214 226.548007 
L 168.709093 217.402189 
L 173.488971 216.781012 
L 178.268849 215.434907 
L 183.048728 271.360785 
L 187.828606 216.083072 
L 192.608484 217.360306 
L 197.388363 219.593338 
L 202.168241 215.891066 
L 206.948119 237.742384 
L 211.727998 213.52524 
L 216.507876 215.603485 
L 221.287754 212.095008 
L 226.067633 218.240686 
L 230.847511 214.705821 
L 235.627389 217.466205 
L 240.407268 220.850978 
L 245.187146 210.15053 
L 249.967024 205.28216 
L 254.746903 201.622552 
L 259.526781 205.44407 
L 264.306659 198.411282 
L 269.086538 193.899066 
L 273.866416 194.009567 
L 278.646294 199.363141 
L 283.426173 211.740513 
L 288.206051 196.742491 
L 292.985929 237.232461 
L 297.765808 213.610687 
L 302.545686 229.763541 
L 307.325564 211.634811 
L 312.105442 225.546057 
L 316.885321 212.358646 
L 321.665199 214.528726 
L 326.445077 212.747624 
L 331.224956 209.043704 
L 336.004834 209.778082 
L 340.784712 214.356656 
L 345.564591 210.088376 
L 350.344469 210.04796 
L 355.124347 222.263095 
L 359.904226 222.143563 
L 364.684104 221.61691 
L 369.463982 227.218139 
L 374.243861 219.701459 
L 379.023739 234.080216 
L 383.803617 219.329145 
L 388.583496 216.222891 
L 393.363374 224.32079 
L 398.143252 213.937098 
L 402.923131 217.588873 
L 407.703009 214.556722 
L 412.482887 213.31105 
L 417.262766 212.996963 
L 422.042644 220.867422 
L 426.822522 213.065747 
L 431.602401 213.399338 
L 436.382279 213.401257 
L 441.162157 220.550242 
L 445.942036 213.672547 
L 450.721914 216.910828 
L 455.501792 235.503081 
L 460.281671 212.900756 
L 465.061549 216.583414 
L 469.841427 212.969493 
L 474.621306 236.296357 
L 479.401184 211.499801 
L 484.181062 269.326562 
L 488.960941 210.454054 
L 493.740819 207.73087 
L 498.520697 209.779754 
L 503.300576 204.240648 
L 508.080454 210.415667 
L 512.860332 205.339737 
L 517.640211 207.187548 
L 522.420089 203.929526 
L 527.199967 216.895072 
L 531.979846 223.144726 
L 536.759724 210.777311 
L 541.539602 221.801458 
L 541.539602 187.015297 
L 541.539602 187.015297 
L 536.759724 205.564625 
L 531.979846 176.582194 
L 527.199967 181.084955 
L 522.420089 201.043156 
L 517.640211 203.138352 
L 512.860332 200.088075 
L 508.080454 197.362837 
L 503.300576 201.587887 
L 498.520697 202.437461 
L 493.740819 202.791601 
L 488.960941 202.760724 
L 484.181062 95.44398 
L 479.401184 206.506232 
L 474.621306 157.881125 
L 469.841427 211.578228 
L 465.061549 204.483453 
L 460.281671 211.976183 
L 455.501792 167.704735 
L 450.721914 202.233911 
L 445.942036 212.627957 
L 441.162157 192.648415 
L 436.382279 212.164443 
L 431.602401 212.255299 
L 426.822522 212.325072 
L 422.042644 197.855437 
L 417.262766 209.235928 
L 412.482887 212.439403 
L 407.703009 213.107973 
L 402.923131 205.528156 
L 398.143252 212.768726 
L 393.363374 191.785078 
L 388.583496 208.907511 
L 383.803617 218.484361 
L 379.023739 189.916615 
L 374.243861 217.657978 
L 369.463982 176.293704 
L 364.684104 177.7649 
L 359.904226 184.378996 
L 355.124347 180.541438 
L 350.344469 203.887806 
L 345.564591 204.363619 
L 340.784712 193.060135 
L 336.004834 206.396498 
L 331.224956 205.387789 
L 326.445077 207.872215 
L 321.665199 201.392966 
L 316.885321 208.783266 
L 312.105442 173.137476 
L 307.325564 209.231363 
L 302.545686 173.099609 
L 297.765808 171.968968 
L 292.985929 115.711848 
L 288.206051 191.026702 
L 283.426173 155.327682 
L 278.646294 181.386832 
L 273.866416 189.569337 
L 269.086538 190.612008 
L 264.306659 177.636647 
L 259.526781 192.66187 
L 254.746903 193.793036 
L 249.967024 187.556498 
L 245.187146 202.253292 
L 240.407268 179.457383 
L 235.627389 186.793899 
L 230.847511 209.517113 
L 226.067633 199.076633 
L 221.287754 208.687579 
L 216.507876 212.779945 
L 211.727998 210.118287 
L 206.948119 168.137233 
L 202.168241 213.271972 
L 197.388363 205.840426 
L 192.608484 211.327768 
L 187.828606 210.694253 
L 183.048728 98.336844 
L 178.268849 213.178431 
L 173.488971 213.940623 
L 168.709093 202.470006 
L 163.929214 225.067829 
L 159.149336 221.482141 
L 154.369458 123.856069 
L 149.589579 224.118968 
L 144.809701 120.61116 
L 140.029823 212.351945 
L 135.249944 221.448059 
L 130.470066 227.768497 
L 125.690188 227.236549 
L 120.910309 228.064234 
L 116.130431 205.015739 
L 111.350553 226.657985 
L 106.570674 225.364026 
L 101.790796 222.785507 
L 97.010918 228.345906 
L 92.231039 225.591193 
L 87.451161 218.878102 
L 82.671283 225.702653 
L 77.891404 225.785116 
L 73.111526 181.720301 
L 68.331648 225.854563 
z
" clip-path="url(#pbd55c65d94)" style="fill: #ff7f0e; fill-opacity: 0.15"/>
   </g>
   <g id="matplotlib.axis_1">
    <g id="xtick_1">
     <g id="line2d_1">
      <path d="M 63.551769 318.04 
L 63.551769 26.88 
" clip-path="url(#pbd55c65d94)" style="fill: none; stroke: #b0b0b0; stroke-opacity: 0.3; stroke-width: 0.8; stroke-linecap: square"/>
     </g>
     <g id="line2d_2">
      <defs>
       <path id="m4d99404f82" d="M 0 0 
L 0 3.5 
" style="stroke: #000000; stroke-width: 0.8"/>
      </defs>
      <g>
       <use xlink:href="#m4d99404f82" x="63.551769" y="318.04" style="stroke: #000000; stroke-width: 0.8"/>
      </g>
     </g>
     <g id="text_1">
      <!-- 0 -->
      <g transform="translate(60.370519 332.638438) scale(0.1 -0.1)">
       <defs>
        <path id="DejaVuSans-30" d="M 2034 4250 
Q 1547 4250 1301 3770 
Q 1056 3291 1056 2328 
Q 1056 1369 1301 889 
Q 1547 409 2034 409 
Q 2525 409 2770 889 
Q 3016 1369 3016 2328 
Q 3016 3291 2770 3770 
Q 2525 4250 2034 4250 
z
M 2034 4750 
Q 2819 4750 3233 4129 
Q 3647 3509 3647 2328 
Q 3647 1150 3233 529 
Q 2819 -91 2034 -91 
Q 1250 -91 836 529 
Q 422 1150 422 2328 
Q 422 3509 836 4129 
Q 1250 4750 2034 4750 
z
" transform="scale(0.015625)"/>
       </defs>
       <use xlink:href="#DejaVuSans-30"/>
      </g>
     </g>
    </g>
    <g id="xtick_2">
     <g id="line2d_3">
      <path d="M 159.149336 318.04 
L 159.149336 26.88 
" clip-path="url(#pbd55c65d94)" style="fill: none; stroke: #b0b0b0; stroke-opacity: 0.3; stroke-width: 0.8; stroke-linecap: square"/>
     </g>
     <g id="line2d_4">
      <g>
       <use xlink:href="#m4d99404f82" x="159.149336" y="318.04" style="stroke: #000000; stroke-width: 0.8"/>
      </g>
     </g>
     <g id="text_2">
      <!-- 20 -->
      <g transform="translate(152.786836 332.638438) scale(0.1 -0.1)">
       <defs>
        <path id="DejaVuSans-32" d="M 1228 531 
L 3431 531 
L 3431 0 
L 469 0 
L 469 531 
Q 828 903 1448 1529 
Q 2069 2156 2228 2338 
Q 2531 2678 2651 2914 
Q 2772 3150 2772 3378 
Q 2772 3750 2511 3984 
Q 2250 4219 1831 4219 
Q 1534 4219 1204 4116 
Q 875 4013 500 3803 
L 500 4441 
Q 881 4594 1212 4672 
Q 1544 4750 1819 4750 
Q 2544 4750 2975 4387 
Q 3406 4025 3406 3419 
Q 3406 3131 3298 2873 
Q 3191 2616 2906 2266 
Q 2828 2175 2409 1742 
Q 1991 1309 1228 531 
z
" transform="scale(0.015625)"/>
       </defs>
       <use xlink:href="#DejaVuSans-32"/>
       <use xlink:href="#DejaVuSans-30" transform="translate(63.623047 0)"/>
      </g>
     </g>
    </g>
    <g id="xtick_3">
     <g id="line2d_5">
      <path d="M 254.746903 318.04 
L 254.746903 26.88 
" clip-path="url(#pbd55c65d94)" style="fill: none; stroke: #b0b0b0; stroke-opacity: 0.3; stroke-width: 0.8; stroke-linecap: square"/>
     </g>
     <g id="line2d_6">
      <g>
       <use xlink:href="#m4d99404f82" x="254.746903" y="318.04" style="stroke: #000000; stroke-width: 0.8"/>
      </g>
     </g>
     <g id="text_3">
      <!-- 40 -->
      <g transform="translate(248.384403 332.638438) scale(0.1 -0.1)">
       <defs>
        <path id="DejaVuSans-34" d="M 2419 4116 
L 825 1625 
L 2419 1625 
L 2419 4116 
z
M 2253 4666 
L 3047 4666 
L 3047 1625 
L 3713 1625 
L 3713 1100 
L 3047 1100 
L 3047 0 
L 2419 0 
L 2419 1100 
L 313 1100 
L 313 1709 
L 2253 4666 
z
" transform="scale(0.015625)"/>
       </defs>
       <use xlink:href="#DejaVuSans-34"/>
       <use xlink:href="#DejaVuSans-30" transform="translate(63.623047 0)"/>
      </g>
     </g>
    </g>
    <g id="xtick_4">
     <g id="line2d_7">
      <path d="M 350.344469 318.04 
L 350.344469 26.88 
" clip-path="url(#pbd55c65d94)" style="fill: none; stroke: #b0b0b0; stroke-opacity: 0.3; stroke-width: 0.8; stroke-linecap: square"/>
     </g>
     <g id="line2d_8">
      <g>
       <use xlink:href="#m4d99404f82" x="350.344469" y="318.04" style="stroke: #000000; stroke-width: 0.8"/>
      </g>
     </g>
     <g id="text_4">
      <!-- 60 -->
      <g transform="translate(343.981969 332.638438) scale(0.1 -0.1)">
       <defs>
        <path id="DejaVuSans-36" d="M 2113 2584 
Q 1688 2584 1439 2293 
Q 1191 2003 1191 1497 
Q 1191 994 1439 701 
Q 1688 409 2113 409 
Q 2538 409 2786 701 
Q 3034 994 3034 1497 
Q 3034 2003 2786 2293 
Q 2538 2584 2113 2584 
z
M 3366 4563 
L 3366 3988 
Q 3128 4100 2886 4159 
Q 2644 4219 2406 4219 
Q 1781 4219 1451 3797 
Q 1122 3375 1075 2522 
Q 1259 2794 1537 2939 
Q 1816 3084 2150 3084 
Q 2853 3084 3261 2657 
Q 3669 2231 3669 1497 
Q 3669 778 3244 343 
Q 2819 -91 2113 -91 
Q 1303 -91 875 529 
Q 447 1150 447 2328 
Q 447 3434 972 4092 
Q 1497 4750 2381 4750 
Q 2619 4750 2861 4703 
Q 3103 4656 3366 4563 
z
" transform="scale(0.015625)"/>
       </defs>
       <use xlink:href="#DejaVuSans-36"/>
       <use xlink:href="#DejaVuSans-30" transform="translate(63.623047 0)"/>
      </g>
     </g>
    </g>
    <g id="xtick_5">
     <g id="line2d_9">
      <path d="M 445.942036 318.04 
L 445.942036 26.88 
" clip-path="url(#pbd55c65d94)" style="fill: none; stroke: #b0b0b0; stroke-opacity: 0.3; stroke-width: 0.8; stroke-linecap: square"/>
     </g>
     <g id="line2d_10">
      <g>
       <use xlink:href="#m4d99404f82" x="445.942036" y="318.04" style="stroke: #000000; stroke-width: 0.8"/>
      </g>
     </g>
     <g id="text_5">
      <!-- 80 -->
      <g transform="translate(439.579536 332.638438) scale(0.1 -0.1)">
       <defs>
        <path id="DejaVuSans-38" d="M 2034 2216 
Q 1584 2216 1326 1975 
Q 1069 1734 1069 1313 
Q 1069 891 1326 650 
Q 1584 409 2034 409 
Q 2484 409 2743 651 
Q 3003 894 3003 1313 
Q 3003 1734 2745 1975 
Q 2488 2216 2034 2216 
z
M 1403 2484 
Q 997 2584 770 2862 
Q 544 3141 544 3541 
Q 544 4100 942 4425 
Q 1341 4750 2034 4750 
Q 2731 4750 3128 4425 
Q 3525 4100 3525 3541 
Q 3525 3141 3298 2862 
Q 3072 2584 2669 2484 
Q 3125 2378 3379 2068 
Q 3634 1759 3634 1313 
Q 3634 634 3220 271 
Q 2806 -91 2034 -91 
Q 1263 -91 848 271 
Q 434 634 434 1313 
Q 434 1759 690 2068 
Q 947 2378 1403 2484 
z
M 1172 3481 
Q 1172 3119 1398 2916 
Q 1625 2713 2034 2713 
Q 2441 2713 2670 2916 
Q 2900 3119 2900 3481 
Q 2900 3844 2670 4047 
Q 2441 4250 2034 4250 
Q 1625 4250 1398 4047 
Q 1172 3844 1172 3481 
z
" transform="scale(0.015625)"/>
       </defs>
       <use xlink:href="#DejaVuSans-38"/>
       <use xlink:href="#DejaVuSans-30" transform="translate(63.623047 0)"/>
      </g>
     </g>
    </g>
    <g id="xtick_6">
     <g id="line2d_11">
      <path d="M 541.539602 318.04 
L 541.539602 26.88 
" clip-path="url(#pbd55c65d94)" style="fill: none; stroke: #b0b0b0; stroke-opacity: 0.3; stroke-width: 0.8; stroke-linecap: square"/>
     </g>
     <g id="line2d_12">
      <g>
       <use xlink:href="#m4d99404f82" x="541.539602" y="318.04" style="stroke: #000000; stroke-width: 0.8"/>
      </g>
     </g>
     <g id="text_6">
      <!-- 100 -->
      <g transform="translate(531.995852 332.638438) scale(0.1 -0.1)">
       <defs>
        <path id="DejaVuSans-31" d="M 794 531 
L 1825 531 
L 1825 4091 
L 703 3866 
L 703 4441 
L 1819 4666 
L 2450 4666 
L 2450 531 
L 3481 531 
L 3481 0 
L 794 0 
L 794 531 
z
" transform="scale(0.015625)"/>
       </defs>
       <use xlink:href="#DejaVuSans-31"/>
       <use xlink:href="#DejaVuSans-30" transform="translate(63.623047 0)"/>
       <use xlink:href="#DejaVuSans-30" transform="translate(127.246094 0)"/>
      </g>
     </g>
    </g>
    <g id="text_7">
     <!-- Draft length -->
     <g transform="translate(274.806719 346.316563) scale(0.1 -0.1)">
      <defs>
       <path id="DejaVuSans-44" d="M 1259 4147 
L 1259 519 
L 2022 519 
Q 2988 519 3436 956 
Q 3884 1394 3884 2338 
Q 3884 3275 3436 3711 
Q 2988 4147 2022 4147 
L 1259 4147 
z
M 628 4666 
L 1925 4666 
Q 3281 4666 3915 4102 
Q 4550 3538 4550 2338 
Q 4550 1131 3912 565 
Q 3275 0 1925 0 
L 628 0 
L 628 4666 
z
" transform="scale(0.015625)"/>
       <path id="DejaVuSans-72" d="M 2631 2963 
Q 2534 3019 2420 3045 
Q 2306 3072 2169 3072 
Q 1681 3072 1420 2755 
Q 1159 2438 1159 1844 
L 1159 0 
L 581 0 
L 581 3500 
L 1159 3500 
L 1159 2956 
Q 1341 3275 1631 3429 
Q 1922 3584 2338 3584 
Q 2397 3584 2469 3576 
Q 2541 3569 2628 3553 
L 2631 2963 
z
" transform="scale(0.015625)"/>
       <path id="DejaVuSans-61" d="M 2194 1759 
Q 1497 1759 1228 1600 
Q 959 1441 959 1056 
Q 959 750 1161 570 
Q 1363 391 1709 391 
Q 2188 391 2477 730 
Q 2766 1069 2766 1631 
L 2766 1759 
L 2194 1759 
z
M 3341 1997 
L 3341 0 
L 2766 0 
L 2766 531 
Q 2569 213 2275 61 
Q 1981 -91 1556 -91 
Q 1019 -91 701 211 
Q 384 513 384 1019 
Q 384 1609 779 1909 
Q 1175 2209 1959 2209 
L 2766 2209 
L 2766 2266 
Q 2766 2663 2505 2880 
Q 2244 3097 1772 3097 
Q 1472 3097 1187 3025 
Q 903 2953 641 2809 
L 641 3341 
Q 956 3463 1253 3523 
Q 1550 3584 1831 3584 
Q 2591 3584 2966 3190 
Q 3341 2797 3341 1997 
z
" transform="scale(0.015625)"/>
       <path id="DejaVuSans-66" d="M 2375 4863 
L 2375 4384 
L 1825 4384 
Q 1516 4384 1395 4259 
Q 1275 4134 1275 3809 
L 1275 3500 
L 2222 3500 
L 2222 3053 
L 1275 3053 
L 1275 0 
L 697 0 
L 697 3053 
L 147 3053 
L 147 3500 
L 697 3500 
L 697 3744 
Q 697 4328 969 4595 
Q 1241 4863 1831 4863 
L 2375 4863 
z
" transform="scale(0.015625)"/>
       <path id="DejaVuSans-74" d="M 1172 4494 
L 1172 3500 
L 2356 3500 
L 2356 3053 
L 1172 3053 
L 1172 1153 
Q 1172 725 1289 603 
Q 1406 481 1766 481 
L 2356 481 
L 2356 0 
L 1766 0 
Q 1100 0 847 248 
Q 594 497 594 1153 
L 594 3053 
L 172 3053 
L 172 3500 
L 594 3500 
L 594 4494 
L 1172 4494 
z
" transform="scale(0.015625)"/>
       <path id="DejaVuSans-20" transform="scale(0.015625)"/>
       <path id="DejaVuSans-6c" d="M 603 4863 
L 1178 4863 
L 1178 0 
L 603 0 
L 603 4863 
z
" transform="scale(0.015625)"/>
       <path id="DejaVuSans-65" d="M 3597 1894 
L 3597 1613 
L 953 1613 
Q 991 1019 1311 708 
Q 1631 397 2203 397 
Q 2534 397 2845 478 
Q 3156 559 3463 722 
L 3463 178 
Q 3153 47 2828 -22 
Q 2503 -91 2169 -91 
Q 1331 -91 842 396 
Q 353 884 353 1716 
Q 353 2575 817 3079 
Q 1281 3584 2069 3584 
Q 2775 3584 3186 3129 
Q 3597 2675 3597 1894 
z
M 3022 2063 
Q 3016 2534 2758 2815 
Q 2500 3097 2075 3097 
Q 1594 3097 1305 2825 
Q 1016 2553 972 2059 
L 3022 2063 
z
" transform="scale(0.015625)"/>
       <path id="DejaVuSans-6e" d="M 3513 2113 
L 3513 0 
L 2938 0 
L 2938 2094 
Q 2938 2591 2744 2837 
Q 2550 3084 2163 3084 
Q 1697 3084 1428 2787 
Q 1159 2491 1159 1978 
L 1159 0 
L 581 0 
L 581 3500 
L 1159 3500 
L 1159 2956 
Q 1366 3272 1645 3428 
Q 1925 3584 2291 3584 
Q 2894 3584 3203 3211 
Q 3513 2838 3513 2113 
z
" transform="scale(0.015625)"/>
       <path id="DejaVuSans-67" d="M 2906 1791 
Q 2906 2416 2648 2759 
Q 2391 3103 1925 3103 
Q 1463 3103 1205 2759 
Q 947 2416 947 1791 
Q 947 1169 1205 825 
Q 1463 481 1925 481 
Q 2391 481 2648 825 
Q 2906 1169 2906 1791 
z
M 3481 434 
Q 3481 -459 3084 -895 
Q 2688 -1331 1869 -1331 
Q 1566 -1331 1297 -1286 
Q 1028 -1241 775 -1147 
L 775 -588 
Q 1028 -725 1275 -790 
Q 1522 -856 1778 -856 
Q 2344 -856 2625 -561 
Q 2906 -266 2906 331 
L 2906 616 
Q 2728 306 2450 153 
Q 2172 0 1784 0 
Q 1141 0 747 490 
Q 353 981 353 1791 
Q 353 2603 747 3093 
Q 1141 3584 1784 3584 
Q 2172 3584 2450 3431 
Q 2728 3278 2906 2969 
L 2906 3500 
L 3481 3500 
L 3481 434 
z
" transform="scale(0.015625)"/>
       <path id="DejaVuSans-68" d="M 3513 2113 
L 3513 0 
L 2938 0 
L 2938 2094 
Q 2938 2591 2744 2837 
Q 2550 3084 2163 3084 
Q 1697 3084 1428 2787 
Q 1159 2491 1159 1978 
L 1159 0 
L 581 0 
L 581 4863 
L 1159 4863 
L 1159 2956 
Q 1366 3272 1645 3428 
Q 1925 3584 2291 3584 
Q 2894 3584 3203 3211 
Q 3513 2838 3513 2113 
z
" transform="scale(0.015625)"/>
      </defs>
      <use xlink:href="#DejaVuSans-44"/>
      <use xlink:href="#DejaVuSans-72" transform="translate(77.001953 0)"/>
      <use xlink:href="#DejaVuSans-61" transform="translate(118.115234 0)"/>
      <use xlink:href="#DejaVuSans-66" transform="translate(179.394531 0)"/>
      <use xlink:href="#DejaVuSans-74" transform="translate(212.849609 0)"/>
      <use xlink:href="#DejaVuSans-20" transform="translate(252.058594 0)"/>
      <use xlink:href="#DejaVuSans-6c" transform="translate(283.845703 0)"/>
      <use xlink:href="#DejaVuSans-65" transform="translate(311.628906 0)"/>
      <use xlink:href="#DejaVuSans-6e" transform="translate(373.152344 0)"/>
      <use xlink:href="#DejaVuSans-67" transform="translate(436.53125 0)"/>
      <use xlink:href="#DejaVuSans-74" transform="translate(500.007812 0)"/>
      <use xlink:href="#DejaVuSans-68" transform="translate(539.216797 0)"/>
     </g>
    </g>
   </g>
   <g id="matplotlib.axis_2">
    <g id="ytick_1">
     <g id="line2d_13">
      <path d="M 44.67125 313.195312 
L 565.2 313.195312 
" clip-path="url(#pbd55c65d94)" style="fill: none; stroke: #b0b0b0; stroke-opacity: 0.3; stroke-width: 0.8; stroke-linecap: square"/>
     </g>
     <g id="line2d_14">
      <defs>
       <path id="m674076c21a" d="M 0 0 
L -3.5 0 
" style="stroke: #000000; stroke-width: 0.8"/>
      </defs>
      <g>
       <use xlink:href="#m674076c21a" x="44.67125" y="313.195312" style="stroke: #000000; stroke-width: 0.8"/>
      </g>
     </g>
     <g id="text_8">
      <!-- 5 -->
      <g transform="translate(31.30875 316.994531) scale(0.1 -0.1)">
       <defs>
        <path id="DejaVuSans-35" d="M 691 4666 
L 3169 4666 
L 3169 4134 
L 1269 4134 
L 1269 2991 
Q 1406 3038 1543 3061 
Q 1681 3084 1819 3084 
Q 2600 3084 3056 2656 
Q 3513 2228 3513 1497 
Q 3513 744 3044 326 
Q 2575 -91 1722 -91 
Q 1428 -91 1123 -41 
Q 819 9 494 109 
L 494 744 
Q 775 591 1075 516 
Q 1375 441 1709 441 
Q 2250 441 2565 725 
Q 2881 1009 2881 1497 
Q 2881 1984 2565 2268 
Q 2250 2553 1709 2553 
Q 1456 2553 1204 2497 
Q 953 2441 691 2322 
L 691 4666 
z
" transform="scale(0.015625)"/>
       </defs>
       <use xlink:href="#DejaVuSans-35"/>
      </g>
     </g>
    </g>
    <g id="ytick_2">
     <g id="line2d_15">
      <path d="M 44.67125 278.606805 
L 565.2 278.606805 
" clip-path="url(#pbd55c65d94)" style="fill: none; stroke: #b0b0b0; stroke-opacity: 0.3; stroke-width: 0.8; stroke-linecap: square"/>
     </g>
     <g id="line2d_16">
      <g>
       <use xlink:href="#m674076c21a" x="44.67125" y="278.606805" style="stroke: #000000; stroke-width: 0.8"/>
      </g>
     </g>
     <g id="text_9">
      <!-- 10 -->
      <g transform="translate(24.94625 282.406023) scale(0.1 -0.1)">
       <use xlink:href="#DejaVuSans-31"/>
       <use xlink:href="#DejaVuSans-30" transform="translate(63.623047 0)"/>
      </g>
     </g>
    </g>
    <g id="ytick_3">
     <g id="line2d_17">
      <path d="M 44.67125 244.018297 
L 565.2 244.018297 
" clip-path="url(#pbd55c65d94)" style="fill: none; stroke: #b0b0b0; stroke-opacity: 0.3; stroke-width: 0.8; stroke-linecap: square"/>
     </g>
     <g id="line2d_18">
      <g>
       <use xlink:href="#m674076c21a" x="44.67125" y="244.018297" style="stroke: #000000; stroke-width: 0.8"/>
      </g>
     </g>
     <g id="text_10">
      <!-- 15 -->
      <g transform="translate(24.94625 247.817515) scale(0.1 -0.1)">
       <use xlink:href="#DejaVuSans-31"/>
       <use xlink:href="#DejaVuSans-35" transform="translate(63.623047 0)"/>
      </g>
     </g>
    </g>
    <g id="ytick_4">
     <g id="line2d_19">
      <path d="M 44.67125 209.429789 
L 565.2 209.429789 
" clip-path="url(#pbd55c65d94)" style="fill: none; stroke: #b0b0b0; stroke-opacity: 0.3; stroke-width: 0.8; stroke-linecap: square"/>
     </g>
     <g id="line2d_20">
      <g>
       <use xlink:href="#m674076c21a" x="44.67125" y="209.429789" style="stroke: #000000; stroke-width: 0.8"/>
      </g>
     </g>
     <g id="text_11">
      <!-- 20 -->
      <g transform="translate(24.94625 213.229008) scale(0.1 -0.1)">
       <use xlink:href="#DejaVuSans-32"/>
       <use xlink:href="#DejaVuSans-30" transform="translate(63.623047 0)"/>
      </g>
     </g>
    </g>
    <g id="ytick_5">
     <g id="line2d_21">
      <path d="M 44.67125 174.841281 
L 565.2 174.841281 
" clip-path="url(#pbd55c65d94)" style="fill: none; stroke: #b0b0b0; stroke-opacity: 0.3; stroke-width: 0.8; stroke-linecap: square"/>
     </g>
     <g id="line2d_22">
      <g>
       <use xlink:href="#m674076c21a" x="44.67125" y="174.841281" style="stroke: #000000; stroke-width: 0.8"/>
      </g>
     </g>
     <g id="text_12">
      <!-- 25 -->
      <g transform="translate(24.94625 178.6405) scale(0.1 -0.1)">
       <use xlink:href="#DejaVuSans-32"/>
       <use xlink:href="#DejaVuSans-35" transform="translate(63.623047 0)"/>
      </g>
     </g>
    </g>
    <g id="ytick_6">
     <g id="line2d_23">
      <path d="M 44.67125 140.252773 
L 565.2 140.252773 
" clip-path="url(#pbd55c65d94)" style="fill: none; stroke: #b0b0b0; stroke-opacity: 0.3; stroke-width: 0.8; stroke-linecap: square"/>
     </g>
     <g id="line2d_24">
      <g>
       <use xlink:href="#m674076c21a" x="44.67125" y="140.252773" style="stroke: #000000; stroke-width: 0.8"/>
      </g>
     </g>
     <g id="text_13">
      <!-- 30 -->
      <g transform="translate(24.94625 144.051992) scale(0.1 -0.1)">
       <defs>
        <path id="DejaVuSans-33" d="M 2597 2516 
Q 3050 2419 3304 2112 
Q 3559 1806 3559 1356 
Q 3559 666 3084 287 
Q 2609 -91 1734 -91 
Q 1441 -91 1130 -33 
Q 819 25 488 141 
L 488 750 
Q 750 597 1062 519 
Q 1375 441 1716 441 
Q 2309 441 2620 675 
Q 2931 909 2931 1356 
Q 2931 1769 2642 2001 
Q 2353 2234 1838 2234 
L 1294 2234 
L 1294 2753 
L 1863 2753 
Q 2328 2753 2575 2939 
Q 2822 3125 2822 3475 
Q 2822 3834 2567 4026 
Q 2313 4219 1838 4219 
Q 1578 4219 1281 4162 
Q 984 4106 628 3988 
L 628 4550 
Q 988 4650 1302 4700 
Q 1616 4750 1894 4750 
Q 2613 4750 3031 4423 
Q 3450 4097 3450 3541 
Q 3450 3153 3228 2886 
Q 3006 2619 2597 2516 
z
" transform="scale(0.015625)"/>
       </defs>
       <use xlink:href="#DejaVuSans-33"/>
       <use xlink:href="#DejaVuSans-30" transform="translate(63.623047 0)"/>
      </g>
     </g>
    </g>
    <g id="ytick_7">
     <g id="line2d_25">
      <path d="M 44.67125 105.664265 
L 565.2 105.664265 
" clip-path="url(#pbd55c65d94)" style="fill: none; stroke: #b0b0b0; stroke-opacity: 0.3; stroke-width: 0.8; stroke-linecap: square"/>
     </g>
     <g id="line2d_26">
      <g>
       <use xlink:href="#m674076c21a" x="44.67125" y="105.664265" style="stroke: #000000; stroke-width: 0.8"/>
      </g>
     </g>
     <g id="text_14">
      <!-- 35 -->
      <g transform="translate(24.94625 109.463484) scale(0.1 -0.1)">
       <use xlink:href="#DejaVuSans-33"/>
       <use xlink:href="#DejaVuSans-35" transform="translate(63.623047 0)"/>
      </g>
     </g>
    </g>
    <g id="ytick_8">
     <g id="line2d_27">
      <path d="M 44.67125 71.075757 
L 565.2 71.075757 
" clip-path="url(#pbd55c65d94)" style="fill: none; stroke: #b0b0b0; stroke-opacity: 0.3; stroke-width: 0.8; stroke-linecap: square"/>
     </g>
     <g id="line2d_28">
      <g>
       <use xlink:href="#m674076c21a" x="44.67125" y="71.075757" style="stroke: #000000; stroke-width: 0.8"/>
      </g>
     </g>
     <g id="text_15">
      <!-- 40 -->
      <g transform="translate(24.94625 74.874976) scale(0.1 -0.1)">
       <use xlink:href="#DejaVuSans-34"/>
       <use xlink:href="#DejaVuSans-30" transform="translate(63.623047 0)"/>
      </g>
     </g>
    </g>
    <g id="ytick_9">
     <g id="line2d_29">
      <path d="M 44.67125 36.487249 
L 565.2 36.487249 
" clip-path="url(#pbd55c65d94)" style="fill: none; stroke: #b0b0b0; stroke-opacity: 0.3; stroke-width: 0.8; stroke-linecap: square"/>
     </g>
     <g id="line2d_30">
      <g>
       <use xlink:href="#m674076c21a" x="44.67125" y="36.487249" style="stroke: #000000; stroke-width: 0.8"/>
      </g>
     </g>
     <g id="text_16">
      <!-- 45 -->
      <g transform="translate(24.94625 40.286468) scale(0.1 -0.1)">
       <use xlink:href="#DejaVuSans-34"/>
       <use xlink:href="#DejaVuSans-35" transform="translate(63.623047 0)"/>
      </g>
     </g>
    </g>
    <g id="text_17">
     <!-- cuda_ms -->
     <g transform="translate(18.588438 194.59125) rotate(-90) scale(0.1 -0.1)">
      <defs>
       <path id="DejaVuSans-63" d="M 3122 3366 
L 3122 2828 
Q 2878 2963 2633 3030 
Q 2388 3097 2138 3097 
Q 1578 3097 1268 2742 
Q 959 2388 959 1747 
Q 959 1106 1268 751 
Q 1578 397 2138 397 
Q 2388 397 2633 464 
Q 2878 531 3122 666 
L 3122 134 
Q 2881 22 2623 -34 
Q 2366 -91 2075 -91 
Q 1284 -91 818 406 
Q 353 903 353 1747 
Q 353 2603 823 3093 
Q 1294 3584 2113 3584 
Q 2378 3584 2631 3529 
Q 2884 3475 3122 3366 
z
" transform="scale(0.015625)"/>
       <path id="DejaVuSans-75" d="M 544 1381 
L 544 3500 
L 1119 3500 
L 1119 1403 
Q 1119 906 1312 657 
Q 1506 409 1894 409 
Q 2359 409 2629 706 
Q 2900 1003 2900 1516 
L 2900 3500 
L 3475 3500 
L 3475 0 
L 2900 0 
L 2900 538 
Q 2691 219 2414 64 
Q 2138 -91 1772 -91 
Q 1169 -91 856 284 
Q 544 659 544 1381 
z
M 1991 3584 
L 1991 3584 
z
" transform="scale(0.015625)"/>
       <path id="DejaVuSans-64" d="M 2906 2969 
L 2906 4863 
L 3481 4863 
L 3481 0 
L 2906 0 
L 2906 525 
Q 2725 213 2448 61 
Q 2172 -91 1784 -91 
Q 1150 -91 751 415 
Q 353 922 353 1747 
Q 353 2572 751 3078 
Q 1150 3584 1784 3584 
Q 2172 3584 2448 3432 
Q 2725 3281 2906 2969 
z
M 947 1747 
Q 947 1113 1208 752 
Q 1469 391 1925 391 
Q 2381 391 2643 752 
Q 2906 1113 2906 1747 
Q 2906 2381 2643 2742 
Q 2381 3103 1925 3103 
Q 1469 3103 1208 2742 
Q 947 2381 947 1747 
z
" transform="scale(0.015625)"/>
       <path id="DejaVuSans-5f" d="M 3263 -1063 
L 3263 -1509 
L -63 -1509 
L -63 -1063 
L 3263 -1063 
z
" transform="scale(0.015625)"/>
       <path id="DejaVuSans-6d" d="M 3328 2828 
Q 3544 3216 3844 3400 
Q 4144 3584 4550 3584 
Q 5097 3584 5394 3201 
Q 5691 2819 5691 2113 
L 5691 0 
L 5113 0 
L 5113 2094 
Q 5113 2597 4934 2840 
Q 4756 3084 4391 3084 
Q 3944 3084 3684 2787 
Q 3425 2491 3425 1978 
L 3425 0 
L 2847 0 
L 2847 2094 
Q 2847 2600 2669 2842 
Q 2491 3084 2119 3084 
Q 1678 3084 1418 2786 
Q 1159 2488 1159 1978 
L 1159 0 
L 581 0 
L 581 3500 
L 1159 3500 
L 1159 2956 
Q 1356 3278 1631 3431 
Q 1906 3584 2284 3584 
Q 2666 3584 2933 3390 
Q 3200 3197 3328 2828 
z
" transform="scale(0.015625)"/>
       <path id="DejaVuSans-73" d="M 2834 3397 
L 2834 2853 
Q 2591 2978 2328 3040 
Q 2066 3103 1784 3103 
Q 1356 3103 1142 2972 
Q 928 2841 928 2578 
Q 928 2378 1081 2264 
Q 1234 2150 1697 2047 
L 1894 2003 
Q 2506 1872 2764 1633 
Q 3022 1394 3022 966 
Q 3022 478 2636 193 
Q 2250 -91 1575 -91 
Q 1294 -91 989 -36 
Q 684 19 347 128 
L 347 722 
Q 666 556 975 473 
Q 1284 391 1588 391 
Q 1994 391 2212 530 
Q 2431 669 2431 922 
Q 2431 1156 2273 1281 
Q 2116 1406 1581 1522 
L 1381 1569 
Q 847 1681 609 1914 
Q 372 2147 372 2553 
Q 372 3047 722 3315 
Q 1072 3584 1716 3584 
Q 2034 3584 2315 3537 
Q 2597 3491 2834 3397 
z
" transform="scale(0.015625)"/>
      </defs>
      <use xlink:href="#DejaVuSans-63"/>
      <use xlink:href="#DejaVuSans-75" transform="translate(54.980469 0)"/>
      <use xlink:href="#DejaVuSans-64" transform="translate(118.359375 0)"/>
      <use xlink:href="#DejaVuSans-61" transform="translate(181.835938 0)"/>
      <use xlink:href="#DejaVuSans-5f" transform="translate(243.115234 0)"/>
      <use xlink:href="#DejaVuSans-6d" transform="translate(293.115234 0)"/>
      <use xlink:href="#DejaVuSans-73" transform="translate(390.527344 0)"/>
     </g>
    </g>
   </g>
   <g id="line2d_31">
    <path d="M 68.331648 234.037902 
L 73.111526 230.547792 
L 77.891404 229.979967 
L 82.671283 232.010582 
L 87.451161 228.180566 
L 92.231039 232.265201 
L 97.010918 227.801102 
L 101.790796 227.874794 
L 106.570674 229.946896 
L 111.350553 222.848513 
L 116.130431 229.937286 
L 120.910309 232.00733 
L 125.690188 229.11243 
L 130.470066 231.093441 
L 135.249944 229.356598 
L 140.029823 233.097827 
L 144.809701 228.508922 
L 149.589579 229.860053 
L 154.369458 229.323018 
L 159.149336 229.195821 
L 163.929214 223.704738 
L 168.709093 214.576826 
L 173.488971 215.059159 
L 178.268849 212.920872 
L 183.048728 216.712526 
L 187.828606 218.491866 
L 192.608484 210.576334 
L 197.388363 211.107393 
L 202.168241 217.442835 
L 206.948119 217.939889 
L 211.727998 172.46 
L 216.507876 218.784005 
L 221.287754 215.045524 
L 226.067633 177.873028 
L 230.847511 211.467577 
L 235.627389 209.678142 
L 240.407268 210.394727 
L 245.187146 211.815965 
L 249.967024 204.851977 
L 254.746903 203.333467 
L 259.526781 195.866998 
L 264.306659 187.61262 
L 269.086538 198.994396 
L 273.866416 197.860293 
L 278.646294 190.837244 
L 283.426173 188.01752 
L 288.206051 194.957072 
L 292.985929 201.621707 
L 297.765808 204.423032 
L 302.545686 207.536354 
L 307.325564 215.037598 
L 312.105442 215.634204 
L 316.885321 214.234968 
L 321.665199 202.595099 
L 326.445077 215.854773 
L 331.224956 205.262787 
L 336.004834 205.41697 
L 340.784712 208.019422 
L 345.564591 213.258521 
L 350.344469 202.90466 
L 355.124347 204.717717 
L 359.904226 167.028593 
L 364.684104 206.016718 
L 369.463982 213.682084 
L 374.243861 222.572292 
L 379.023739 218.448323 
L 383.803617 222.546814 
L 388.583496 217.112664 
L 393.363374 217.081962 
L 398.143252 211.640376 
L 402.923131 216.914608 
L 407.703009 217.322366 
L 412.482887 209.528916 
L 417.262766 214.164419 
L 422.042644 213.387401 
L 426.822522 208.916285 
L 431.602401 216.07926 
L 436.382279 199.440427 
L 441.162157 216.004882 
L 445.942036 206.803586 
L 450.721914 212.778666 
L 455.501792 216.014686 
L 460.281671 211.241253 
L 465.061549 215.948878 
L 469.841427 215.872703 
L 474.621306 213.586498 
L 479.401184 208.208643 
L 484.181062 213.54778 
L 488.960941 204.06342 
L 493.740819 205.65817 
L 498.520697 209.691178 
L 503.300576 208.589018 
L 508.080454 205.919426 
L 512.860332 208.873009 
L 517.640211 209.967663 
L 522.420089 197.202989 
L 527.199967 210.060042 
L 531.979846 210.874162 
L 536.759724 206.981124 
L 541.539602 213.059377 
" clip-path="url(#pbd55c65d94)" style="fill: none; stroke: #1f77b4; stroke-width: 1.2; stroke-linecap: square"/>
    <defs>
     <path id="mec98673dfb" d="M 0 1.25 
C 0.331504 1.25 0.649475 1.118292 0.883883 0.883883 
C 1.118292 0.649475 1.25 0.331504 1.25 0 
C 1.25 -0.331504 1.118292 -0.649475 0.883883 -0.883883 
C 0.649475 -1.118292 0.331504 -1.25 0 -1.25 
C -0.331504 -1.25 -0.649475 -1.118292 -0.883883 -0.883883 
C -1.118292 -0.649475 -1.25 -0.331504 -1.25 0 
C -1.25 0.331504 -1.118292 0.649475 -0.883883 0.883883 
C -0.649475 1.118292 -0.331504 1.25 0 1.25 
z
" style="stroke: #1f77b4"/>
    </defs>
    <g clip-path="url(#pbd55c65d94)">
     <use xlink:href="#mec98673dfb" x="68.331648" y="234.037902" style="fill: #1f77b4; stroke: #1f77b4"/>
     <use xlink:href="#mec98673dfb" x="73.111526" y="230.547792" style="fill: #1f77b4; stroke: #1f77b4"/>
     <use xlink:href="#mec98673dfb" x="77.891404" y="229.979967" style="fill: #1f77b4; stroke: #1f77b4"/>
     <use xlink:href="#mec98673dfb" x="82.671283" y="232.010582" style="fill: #1f77b4; stroke: #1f77b4"/>
     <use xlink:href="#mec98673dfb" x="87.451161" y="228.180566" style="fill: #1f77b4; stroke: #1f77b4"/>
     <use xlink:href="#mec98673dfb" x="92.231039" y="232.265201" style="fill: #1f77b4; stroke: #1f77b4"/>
     <use xlink:href="#mec98673dfb" x="97.010918" y="227.801102" style="fill: #1f77b4; stroke: #1f77b4"/>
     <use xlink:href="#mec98673dfb" x="101.790796" y="227.874794" style="fill: #1f77b4; stroke: #1f77b4"/>
     <use xlink:href="#mec98673dfb" x="106.570674" y="229.946896" style="fill: #1f77b4; stroke: #1f77b4"/>
     <use xlink:href="#mec98673dfb" x="111.350553" y="222.848513" style="fill: #1f77b4; stroke: #1f77b4"/>
     <use xlink:href="#mec98673dfb" x="116.130431" y="229.937286" style="fill: #1f77b4; stroke: #1f77b4"/>
     <use xlink:href="#mec98673dfb" x="120.910309" y="232.00733" style="fill: #1f77b4; stroke: #1f77b4"/>
     <use xlink:href="#mec98673dfb" x="125.690188" y="229.11243" style="fill: #1f77b4; stroke: #1f77b4"/>
     <use xlink:href="#mec98673dfb" x="130.470066" y="231.093441" style="fill: #1f77b4; stroke: #1f77b4"/>
     <use xlink:href="#mec98673dfb" x="135.249944" y="229.356598" style="fill: #1f77b4; stroke: #1f77b4"/>
     <use xlink:href="#mec98673dfb" x="140.029823" y="233.097827" style="fill: #1f77b4; stroke: #1f77b4"/>
     <use xlink:href="#mec98673dfb" x="144.809701" y="228.508922" style="fill: #1f77b4; stroke: #1f77b4"/>
     <use xlink:href="#mec98673dfb" x="149.589579" y="229.860053" style="fill: #1f77b4; stroke: #1f77b4"/>
     <use xlink:href="#mec98673dfb" x="154.369458" y="229.323018" style="fill: #1f77b4; stroke: #1f77b4"/>
     <use xlink:href="#mec98673dfb" x="159.149336" y="229.195821" style="fill: #1f77b4; stroke: #1f77b4"/>
     <use xlink:href="#mec98673dfb" x="163.929214" y="223.704738" style="fill: #1f77b4; stroke: #1f77b4"/>
     <use xlink:href="#mec98673dfb" x="168.709093" y="214.576826" style="fill: #1f77b4; stroke: #1f77b4"/>
     <use xlink:href="#mec98673dfb" x="173.488971" y="215.059159" style="fill: #1f77b4; stroke: #1f77b4"/>
     <use xlink:href="#mec98673dfb" x="178.268849" y="212.920872" style="fill: #1f77b4; stroke: #1f77b4"/>
     <use xlink:href="#mec98673dfb" x="183.048728" y="216.712526" style="fill: #1f77b4; stroke: #1f77b4"/>
     <use xlink:href="#mec98673dfb" x="187.828606" y="218.491866" style="fill: #1f77b4; stroke: #1f77b4"/>
     <use xlink:href="#mec98673dfb" x="192.608484" y="210.576334" style="fill: #1f77b4; stroke: #1f77b4"/>
     <use xlink:href="#mec98673dfb" x="197.388363" y="211.107393" style="fill: #1f77b4; stroke: #1f77b4"/>
     <use xlink:href="#mec98673dfb" x="202.168241" y="217.442835" style="fill: #1f77b4; stroke: #1f77b4"/>
     <use xlink:href="#mec98673dfb" x="206.948119" y="217.939889" style="fill: #1f77b4; stroke: #1f77b4"/>
     <use xlink:href="#mec98673dfb" x="211.727998" y="172.46" style="fill: #1f77b4; stroke: #1f77b4"/>
     <use xlink:href="#mec98673dfb" x="216.507876" y="218.784005" style="fill: #1f77b4; stroke: #1f77b4"/>
     <use xlink:href="#mec98673dfb" x="221.287754" y="215.045524" style="fill: #1f77b4; stroke: #1f77b4"/>
     <use xlink:href="#mec98673dfb" x="226.067633" y="177.873028" style="fill: #1f77b4; stroke: #1f77b4"/>
     <use xlink:href="#mec98673dfb" x="230.847511" y="211.467577" style="fill: #1f77b4; stroke: #1f77b4"/>
     <use xlink:href="#mec98673dfb" x="235.627389" y="209.678142" style="fill: #1f77b4; stroke: #1f77b4"/>
     <use xlink:href="#mec98673dfb" x="240.407268" y="210.394727" style="fill: #1f77b4; stroke: #1f77b4"/>
     <use xlink:href="#mec98673dfb" x="245.187146" y="211.815965" style="fill: #1f77b4; stroke: #1f77b4"/>
     <use xlink:href="#mec98673dfb" x="249.967024" y="204.851977" style="fill: #1f77b4; stroke: #1f77b4"/>
     <use xlink:href="#mec98673dfb" x="254.746903" y="203.333467" style="fill: #1f77b4; stroke: #1f77b4"/>
     <use xlink:href="#mec98673dfb" x="259.526781" y="195.866998" style="fill: #1f77b4; stroke: #1f77b4"/>
     <use xlink:href="#mec98673dfb" x="264.306659" y="187.61262" style="fill: #1f77b4; stroke: #1f77b4"/>
     <use xlink:href="#mec98673dfb" x="269.086538" y="198.994396" style="fill: #1f77b4; stroke: #1f77b4"/>
     <use xlink:href="#mec98673dfb" x="273.866416" y="197.860293" style="fill: #1f77b4; stroke: #1f77b4"/>
     <use xlink:href="#mec98673dfb" x="278.646294" y="190.837244" style="fill: #1f77b4; stroke: #1f77b4"/>
     <use xlink:href="#mec98673dfb" x="283.426173" y="188.01752" style="fill: #1f77b4; stroke: #1f77b4"/>
     <use xlink:href="#mec98673dfb" x="288.206051" y="194.957072" style="fill: #1f77b4; stroke: #1f77b4"/>
     <use xlink:href="#mec98673dfb" x="292.985929" y="201.621707" style="fill: #1f77b4; stroke: #1f77b4"/>
     <use xlink:href="#mec98673dfb" x="297.765808" y="204.423032" style="fill: #1f77b4; stroke: #1f77b4"/>
     <use xlink:href="#mec98673dfb" x="302.545686" y="207.536354" style="fill: #1f77b4; stroke: #1f77b4"/>
     <use xlink:href="#mec98673dfb" x="307.325564" y="215.037598" style="fill: #1f77b4; stroke: #1f77b4"/>
     <use xlink:href="#mec98673dfb" x="312.105442" y="215.634204" style="fill: #1f77b4; stroke: #1f77b4"/>
     <use xlink:href="#mec98673dfb" x="316.885321" y="214.234968" style="fill: #1f77b4; stroke: #1f77b4"/>
     <use xlink:href="#mec98673dfb" x="321.665199" y="202.595099" style="fill: #1f77b4; stroke: #1f77b4"/>
     <use xlink:href="#mec98673dfb" x="326.445077" y="215.854773" style="fill: #1f77b4; stroke: #1f77b4"/>
     <use xlink:href="#mec98673dfb" x="331.224956" y="205.262787" style="fill: #1f77b4; stroke: #1f77b4"/>
     <use xlink:href="#mec98673dfb" x="336.004834" y="205.41697" style="fill: #1f77b4; stroke: #1f77b4"/>
     <use xlink:href="#mec98673dfb" x="340.784712" y="208.019422" style="fill: #1f77b4; stroke: #1f77b4"/>
     <use xlink:href="#mec98673dfb" x="345.564591" y="213.258521" style="fill: #1f77b4; stroke: #1f77b4"/>
     <use xlink:href="#mec98673dfb" x="350.344469" y="202.90466" style="fill: #1f77b4; stroke: #1f77b4"/>
     <use xlink:href="#mec98673dfb" x="355.124347" y="204.717717" style="fill: #1f77b4; stroke: #1f77b4"/>
     <use xlink:href="#mec98673dfb" x="359.904226" y="167.028593" style="fill: #1f77b4; stroke: #1f77b4"/>
     <use xlink:href="#mec98673dfb" x="364.684104" y="206.016718" style="fill: #1f77b4; stroke: #1f77b4"/>
     <use xlink:href="#mec98673dfb" x="369.463982" y="213.682084" style="fill: #1f77b4; stroke: #1f77b4"/>
     <use xlink:href="#mec98673dfb" x="374.243861" y="222.572292" style="fill: #1f77b4; stroke: #1f77b4"/>
     <use xlink:href="#mec98673dfb" x="379.023739" y="218.448323" style="fill: #1f77b4; stroke: #1f77b4"/>
     <use xlink:href="#mec98673dfb" x="383.803617" y="222.546814" style="fill: #1f77b4; stroke: #1f77b4"/>
     <use xlink:href="#mec98673dfb" x="388.583496" y="217.112664" style="fill: #1f77b4; stroke: #1f77b4"/>
     <use xlink:href="#mec98673dfb" x="393.363374" y="217.081962" style="fill: #1f77b4; stroke: #1f77b4"/>
     <use xlink:href="#mec98673dfb" x="398.143252" y="211.640376" style="fill: #1f77b4; stroke: #1f77b4"/>
     <use xlink:href="#mec98673dfb" x="402.923131" y="216.914608" style="fill: #1f77b4; stroke: #1f77b4"/>
     <use xlink:href="#mec98673dfb" x="407.703009" y="217.322366" style="fill: #1f77b4; stroke: #1f77b4"/>
     <use xlink:href="#mec98673dfb" x="412.482887" y="209.528916" style="fill: #1f77b4; stroke: #1f77b4"/>
     <use xlink:href="#mec98673dfb" x="417.262766" y="214.164419" style="fill: #1f77b4; stroke: #1f77b4"/>
     <use xlink:href="#mec98673dfb" x="422.042644" y="213.387401" style="fill: #1f77b4; stroke: #1f77b4"/>
     <use xlink:href="#mec98673dfb" x="426.822522" y="208.916285" style="fill: #1f77b4; stroke: #1f77b4"/>
     <use xlink:href="#mec98673dfb" x="431.602401" y="216.07926" style="fill: #1f77b4; stroke: #1f77b4"/>
     <use xlink:href="#mec98673dfb" x="436.382279" y="199.440427" style="fill: #1f77b4; stroke: #1f77b4"/>
     <use xlink:href="#mec98673dfb" x="441.162157" y="216.004882" style="fill: #1f77b4; stroke: #1f77b4"/>
     <use xlink:href="#mec98673dfb" x="445.942036" y="206.803586" style="fill: #1f77b4; stroke: #1f77b4"/>
     <use xlink:href="#mec98673dfb" x="450.721914" y="212.778666" style="fill: #1f77b4; stroke: #1f77b4"/>
     <use xlink:href="#mec98673dfb" x="455.501792" y="216.014686" style="fill: #1f77b4; stroke: #1f77b4"/>
     <use xlink:href="#mec98673dfb" x="460.281671" y="211.241253" style="fill: #1f77b4; stroke: #1f77b4"/>
     <use xlink:href="#mec98673dfb" x="465.061549" y="215.948878" style="fill: #1f77b4; stroke: #1f77b4"/>
     <use xlink:href="#mec98673dfb" x="469.841427" y="215.872703" style="fill: #1f77b4; stroke: #1f77b4"/>
     <use xlink:href="#mec98673dfb" x="474.621306" y="213.586498" style="fill: #1f77b4; stroke: #1f77b4"/>
     <use xlink:href="#mec98673dfb" x="479.401184" y="208.208643" style="fill: #1f77b4; stroke: #1f77b4"/>
     <use xlink:href="#mec98673dfb" x="484.181062" y="213.54778" style="fill: #1f77b4; stroke: #1f77b4"/>
     <use xlink:href="#mec98673dfb" x="488.960941" y="204.06342" style="fill: #1f77b4; stroke: #1f77b4"/>
     <use xlink:href="#mec98673dfb" x="493.740819" y="205.65817" style="fill: #1f77b4; stroke: #1f77b4"/>
     <use xlink:href="#mec98673dfb" x="498.520697" y="209.691178" style="fill: #1f77b4; stroke: #1f77b4"/>
     <use xlink:href="#mec98673dfb" x="503.300576" y="208.589018" style="fill: #1f77b4; stroke: #1f77b4"/>
     <use xlink:href="#mec98673dfb" x="508.080454" y="205.919426" style="fill: #1f77b4; stroke: #1f77b4"/>
     <use xlink:href="#mec98673dfb" x="512.860332" y="208.873009" style="fill: #1f77b4; stroke: #1f77b4"/>
     <use xlink:href="#mec98673dfb" x="517.640211" y="209.967663" style="fill: #1f77b4; stroke: #1f77b4"/>
     <use xlink:href="#mec98673dfb" x="522.420089" y="197.202989" style="fill: #1f77b4; stroke: #1f77b4"/>
     <use xlink:href="#mec98673dfb" x="527.199967" y="210.060042" style="fill: #1f77b4; stroke: #1f77b4"/>
     <use xlink:href="#mec98673dfb" x="531.979846" y="210.874162" style="fill: #1f77b4; stroke: #1f77b4"/>
     <use xlink:href="#mec98673dfb" x="536.759724" y="206.981124" style="fill: #1f77b4; stroke: #1f77b4"/>
     <use xlink:href="#mec98673dfb" x="541.539602" y="213.059377" style="fill: #1f77b4; stroke: #1f77b4"/>
    </g>
   </g>
   <g id="line2d_32">
    <path d="M 68.331648 230.647497 
L 73.111526 213.187684 
L 77.891404 227.11544 
L 82.671283 228.602802 
L 87.451161 224.655859 
L 92.231039 227.988884 
L 97.010918 229.403549 
L 101.790796 226.074288 
L 106.570674 228.006729 
L 111.350553 227.873621 
L 116.130431 222.158472 
L 120.910309 228.663103 
L 125.690188 228.326139 
L 130.470066 228.431907 
L 135.249944 225.924668 
L 140.029823 225.428651 
L 144.809701 200.369992 
L 149.589579 226.23533 
L 154.369458 201.563334 
L 159.149336 225.246376 
L 163.929214 225.807918 
L 168.709093 209.936098 
L 173.488971 215.360817 
L 178.268849 214.306669 
L 183.048728 184.848814 
L 187.828606 213.388662 
L 192.608484 214.344037 
L 197.388363 212.716882 
L 202.168241 214.581519 
L 206.948119 202.939808 
L 211.727998 211.821764 
L 216.507876 214.191715 
L 221.287754 210.391294 
L 226.067633 208.658659 
L 230.847511 212.111467 
L 235.627389 202.130052 
L 240.407268 200.15418 
L 245.187146 206.201911 
L 249.967024 196.419329 
L 254.746903 197.707794 
L 259.526781 199.05297 
L 264.306659 188.023964 
L 269.086538 192.255537 
L 273.866416 191.789452 
L 278.646294 190.374986 
L 283.426173 183.534098 
L 288.206051 193.884596 
L 292.985929 176.472154 
L 297.765808 192.789827 
L 302.545686 201.431575 
L 307.325564 210.433087 
L 312.105442 199.341767 
L 316.885321 210.570956 
L 321.665199 207.960846 
L 326.445077 210.309919 
L 331.224956 207.215746 
L 336.004834 208.08729 
L 340.784712 203.708395 
L 345.564591 207.225997 
L 350.344469 206.967883 
L 355.124347 201.402266 
L 359.904226 203.26128 
L 364.684104 199.690905 
L 369.463982 201.755922 
L 374.243861 218.679718 
L 379.023739 211.998415 
L 383.803617 218.906753 
L 388.583496 212.565201 
L 393.363374 208.052934 
L 398.143252 213.352912 
L 402.923131 211.558514 
L 407.703009 213.832348 
L 412.482887 212.875226 
L 417.262766 211.116446 
L 422.042644 209.36143 
L 426.822522 212.695409 
L 431.602401 212.827318 
L 436.382279 212.78285 
L 441.162157 206.599329 
L 445.942036 213.150252 
L 450.721914 209.57237 
L 455.501792 201.603908 
L 460.281671 212.438469 
L 465.061549 210.533434 
L 469.841427 212.273861 
L 474.621306 197.088741 
L 479.401184 209.003016 
L 484.181062 182.385271 
L 488.960941 206.607389 
L 493.740819 205.261235 
L 498.520697 206.108608 
L 503.300576 202.914268 
L 508.080454 203.889252 
L 512.860332 202.713906 
L 517.640211 205.16295 
L 522.420089 202.486341 
L 527.199967 198.990014 
L 531.979846 199.86346 
L 536.759724 208.170968 
L 541.539602 204.408378 
" clip-path="url(#pbd55c65d94)" style="fill: none; stroke: #ff7f0e; stroke-width: 1.2; stroke-linecap: square"/>
    <defs>
     <path id="m3358e99edb" d="M 0 1.25 
C 0.331504 1.25 0.649475 1.118292 0.883883 0.883883 
C 1.118292 0.649475 1.25 0.331504 1.25 0 
C 1.25 -0.331504 1.118292 -0.649475 0.883883 -0.883883 
C 0.649475 -1.118292 0.331504 -1.25 0 -1.25 
C -0.331504 -1.25 -0.649475 -1.118292 -0.883883 -0.883883 
C -1.118292 -0.649475 -1.25 -0.331504 -1.25 0 
C -1.25 0.331504 -1.118292 0.649475 -0.883883 0.883883 
C -0.649475 1.118292 -0.331504 1.25 0 1.25 
z
" style="stroke: #ff7f0e"/>
    </defs>
    <g clip-path="url(#pbd55c65d94)">
     <use xlink:href="#m3358e99edb" x="68.331648" y="230.647497" style="fill: #ff7f0e; stroke: #ff7f0e"/>
     <use xlink:href="#m3358e99edb" x="73.111526" y="213.187684" style="fill: #ff7f0e; stroke: #ff7f0e"/>
     <use xlink:href="#m3358e99edb" x="77.891404" y="227.11544" style="fill: #ff7f0e; stroke: #ff7f0e"/>
     <use xlink:href="#m3358e99edb" x="82.671283" y="228.602802" style="fill: #ff7f0e; stroke: #ff7f0e"/>
     <use xlink:href="#m3358e99edb" x="87.451161" y="224.655859" style="fill: #ff7f0e; stroke: #ff7f0e"/>
     <use xlink:href="#m3358e99edb" x="92.231039" y="227.988884" style="fill: #ff7f0e; stroke: #ff7f0e"/>
     <use xlink:href="#m3358e99edb" x="97.010918" y="229.403549" style="fill: #ff7f0e; stroke: #ff7f0e"/>
     <use xlink:href="#m3358e99edb" x="101.790796" y="226.074288" style="fill: #ff7f0e; stroke: #ff7f0e"/>
     <use xlink:href="#m3358e99edb" x="106.570674" y="228.006729" style="fill: #ff7f0e; stroke: #ff7f0e"/>
     <use xlink:href="#m3358e99edb" x="111.350553" y="227.873621" style="fill: #ff7f0e; stroke: #ff7f0e"/>
     <use xlink:href="#m3358e99edb" x="116.130431" y="222.158472" style="fill: #ff7f0e; stroke: #ff7f0e"/>
     <use xlink:href="#m3358e99edb" x="120.910309" y="228.663103" style="fill: #ff7f0e; stroke: #ff7f0e"/>
     <use xlink:href="#m3358e99edb" x="125.690188" y="228.326139" style="fill: #ff7f0e; stroke: #ff7f0e"/>
     <use xlink:href="#m3358e99edb" x="130.470066" y="228.431907" style="fill: #ff7f0e; stroke: #ff7f0e"/>
     <use xlink:href="#m3358e99edb" x="135.249944" y="225.924668" style="fill: #ff7f0e; stroke: #ff7f0e"/>
     <use xlink:href="#m3358e99edb" x="140.029823" y="225.428651" style="fill: #ff7f0e; stroke: #ff7f0e"/>
     <use xlink:href="#m3358e99edb" x="144.809701" y="200.369992" style="fill: #ff7f0e; stroke: #ff7f0e"/>
     <use xlink:href="#m3358e99edb" x="149.589579" y="226.23533" style="fill: #ff7f0e; stroke: #ff7f0e"/>
     <use xlink:href="#m3358e99edb" x="154.369458" y="201.563334" style="fill: #ff7f0e; stroke: #ff7f0e"/>
     <use xlink:href="#m3358e99edb" x="159.149336" y="225.246376" style="fill: #ff7f0e; stroke: #ff7f0e"/>
     <use xlink:href="#m3358e99edb" x="163.929214" y="225.807918" style="fill: #ff7f0e; stroke: #ff7f0e"/>
     <use xlink:href="#m3358e99edb" x="168.709093" y="209.936098" style="fill: #ff7f0e; stroke: #ff7f0e"/>
     <use xlink:href="#m3358e99edb" x="173.488971" y="215.360817" style="fill: #ff7f0e; stroke: #ff7f0e"/>
     <use xlink:href="#m3358e99edb" x="178.268849" y="214.306669" style="fill: #ff7f0e; stroke: #ff7f0e"/>
     <use xlink:href="#m3358e99edb" x="183.048728" y="184.848814" style="fill: #ff7f0e; stroke: #ff7f0e"/>
     <use xlink:href="#m3358e99edb" x="187.828606" y="213.388662" style="fill: #ff7f0e; stroke: #ff7f0e"/>
     <use xlink:href="#m3358e99edb" x="192.608484" y="214.344037" style="fill: #ff7f0e; stroke: #ff7f0e"/>
     <use xlink:href="#m3358e99edb" x="197.388363" y="212.716882" style="fill: #ff7f0e; stroke: #ff7f0e"/>
     <use xlink:href="#m3358e99edb" x="202.168241" y="214.581519" style="fill: #ff7f0e; stroke: #ff7f0e"/>
     <use xlink:href="#m3358e99edb" x="206.948119" y="202.939808" style="fill: #ff7f0e; stroke: #ff7f0e"/>
     <use xlink:href="#m3358e99edb" x="211.727998" y="211.821764" style="fill: #ff7f0e; stroke: #ff7f0e"/>
     <use xlink:href="#m3358e99edb" x="216.507876" y="214.191715" style="fill: #ff7f0e; stroke: #ff7f0e"/>
     <use xlink:href="#m3358e99edb" x="221.287754" y="210.391294" style="fill: #ff7f0e; stroke: #ff7f0e"/>
     <use xlink:href="#m3358e99edb" x="226.067633" y="208.658659" style="fill: #ff7f0e; stroke: #ff7f0e"/>
     <use xlink:href="#m3358e99edb" x="230.847511" y="212.111467" style="fill: #ff7f0e; stroke: #ff7f0e"/>
     <use xlink:href="#m3358e99edb" x="235.627389" y="202.130052" style="fill: #ff7f0e; stroke: #ff7f0e"/>
     <use xlink:href="#m3358e99edb" x="240.407268" y="200.15418" style="fill: #ff7f0e; stroke: #ff7f0e"/>
     <use xlink:href="#m3358e99edb" x="245.187146" y="206.201911" style="fill: #ff7f0e; stroke: #ff7f0e"/>
     <use xlink:href="#m3358e99edb" x="249.967024" y="196.419329" style="fill: #ff7f0e; stroke: #ff7f0e"/>
     <use xlink:href="#m3358e99edb" x="254.746903" y="197.707794" style="fill: #ff7f0e; stroke: #ff7f0e"/>
     <use xlink:href="#m3358e99edb" x="259.526781" y="199.05297" style="fill: #ff7f0e; stroke: #ff7f0e"/>
     <use xlink:href="#m3358e99edb" x="264.306659" y="188.023964" style="fill: #ff7f0e; stroke: #ff7f0e"/>
     <use xlink:href="#m3358e99edb" x="269.086538" y="192.255537" style="fill: #ff7f0e; stroke: #ff7f0e"/>
     <use xlink:href="#m3358e99edb" x="273.866416" y="191.789452" style="fill: #ff7f0e; stroke: #ff7f0e"/>
     <use xlink:href="#m3358e99edb" x="278.646294" y="190.374986" style="fill: #ff7f0e; stroke: #ff7f0e"/>
     <use xlink:href="#m3358e99edb" x="283.426173" y="183.534098" style="fill: #ff7f0e; stroke: #ff7f0e"/>
     <use xlink:href="#m3358e99edb" x="288.206051" y="193.884596" style="fill: #ff7f0e; stroke: #ff7f0e"/>
     <use xlink:href="#m3358e99edb" x="292.985929" y="176.472154" style="fill: #ff7f0e; stroke: #ff7f0e"/>
     <use xlink:href="#m3358e99edb" x="297.765808" y="192.789827" style="fill: #ff7f0e; stroke: #ff7f0e"/>
     <use xlink:href="#m3358e99edb" x="302.545686" y="201.431575" style="fill: #ff7f0e; stroke: #ff7f0e"/>
     <use xlink:href="#m3358e99edb" x="307.325564" y="210.433087" style="fill: #ff7f0e; stroke: #ff7f0e"/>
     <use xlink:href="#m3358e99edb" x="312.105442" y="199.341767" style="fill: #ff7f0e; stroke: #ff7f0e"/>
     <use xlink:href="#m3358e99edb" x="316.885321" y="210.570956" style="fill: #ff7f0e; stroke: #ff7f0e"/>
     <use xlink:href="#m3358e99edb" x="321.665199" y="207.960846" style="fill: #ff7f0e; stroke: #ff7f0e"/>
     <use xlink:href="#m3358e99edb" x="326.445077" y="210.309919" style="fill: #ff7f0e; stroke: #ff7f0e"/>
     <use xlink:href="#m3358e99edb" x="331.224956" y="207.215746" style="fill: #ff7f0e; stroke: #ff7f0e"/>
     <use xlink:href="#m3358e99edb" x="336.004834" y="208.08729" style="fill: #ff7f0e; stroke: #ff7f0e"/>
     <use xlink:href="#m3358e99edb" x="340.784712" y="203.708395" style="fill: #ff7f0e; stroke: #ff7f0e"/>
     <use xlink:href="#m3358e99edb" x="345.564591" y="207.225997" style="fill: #ff7f0e; stroke: #ff7f0e"/>
     <use xlink:href="#m3358e99edb" x="350.344469" y="206.967883" style="fill: #ff7f0e; stroke: #ff7f0e"/>
     <use xlink:href="#m3358e99edb" x="355.124347" y="201.402266" style="fill: #ff7f0e; stroke: #ff7f0e"/>
     <use xlink:href="#m3358e99edb" x="359.904226" y="203.26128" style="fill: #ff7f0e; stroke: #ff7f0e"/>
     <use xlink:href="#m3358e99edb" x="364.684104" y="199.690905" style="fill: #ff7f0e; stroke: #ff7f0e"/>
     <use xlink:href="#m3358e99edb" x="369.463982" y="201.755922" style="fill: #ff7f0e; stroke: #ff7f0e"/>
     <use xlink:href="#m3358e99edb" x="374.243861" y="218.679718" style="fill: #ff7f0e; stroke: #ff7f0e"/>
     <use xlink:href="#m3358e99edb" x="379.023739" y="211.998415" style="fill: #ff7f0e; stroke: #ff7f0e"/>
     <use xlink:href="#m3358e99edb" x="383.803617" y="218.906753" style="fill: #ff7f0e; stroke: #ff7f0e"/>
     <use xlink:href="#m3358e99edb" x="388.583496" y="212.565201" style="fill: #ff7f0e; stroke: #ff7f0e"/>
     <use xlink:href="#m3358e99edb" x="393.363374" y="208.052934" style="fill: #ff7f0e; stroke: #ff7f0e"/>
     <use xlink:href="#m3358e99edb" x="398.143252" y="213.352912" style="fill: #ff7f0e; stroke: #ff7f0e"/>
     <use xlink:href="#m3358e99edb" x="402.923131" y="211.558514" style="fill: #ff7f0e; stroke: #ff7f0e"/>
     <use xlink:href="#m3358e99edb" x="407.703009" y="213.832348" style="fill: #ff7f0e; stroke: #ff7f0e"/>
     <use xlink:href="#m3358e99edb" x="412.482887" y="212.875226" style="fill: #ff7f0e; stroke: #ff7f0e"/>
     <use xlink:href="#m3358e99edb" x="417.262766" y="211.116446" style="fill: #ff7f0e; stroke: #ff7f0e"/>
     <use xlink:href="#m3358e99edb" x="422.042644" y="209.36143" style="fill: #ff7f0e; stroke: #ff7f0e"/>
     <use xlink:href="#m3358e99edb" x="426.822522" y="212.695409" style="fill: #ff7f0e; stroke: #ff7f0e"/>
     <use xlink:href="#m3358e99edb" x="431.602401" y="212.827318" style="fill: #ff7f0e; stroke: #ff7f0e"/>
     <use xlink:href="#m3358e99edb" x="436.382279" y="212.78285" style="fill: #ff7f0e; stroke: #ff7f0e"/>
     <use xlink:href="#m3358e99edb" x="441.162157" y="206.599329" style="fill: #ff7f0e; stroke: #ff7f0e"/>
     <use xlink:href="#m3358e99edb" x="445.942036" y="213.150252" style="fill: #ff7f0e; stroke: #ff7f0e"/>
     <use xlink:href="#m3358e99edb" x="450.721914" y="209.57237" style="fill: #ff7f0e; stroke: #ff7f0e"/>
     <use xlink:href="#m3358e99edb" x="455.501792" y="201.603908" style="fill: #ff7f0e; stroke: #ff7f0e"/>
     <use xlink:href="#m3358e99edb" x="460.281671" y="212.438469" style="fill: #ff7f0e; stroke: #ff7f0e"/>
     <use xlink:href="#m3358e99edb" x="465.061549" y="210.533434" style="fill: #ff7f0e; stroke: #ff7f0e"/>
     <use xlink:href="#m3358e99edb" x="469.841427" y="212.273861" style="fill: #ff7f0e; stroke: #ff7f0e"/>
     <use xlink:href="#m3358e99edb" x="474.621306" y="197.088741" style="fill: #ff7f0e; stroke: #ff7f0e"/>
     <use xlink:href="#m3358e99edb" x="479.401184" y="209.003016" style="fill: #ff7f0e; stroke: #ff7f0e"/>
     <use xlink:href="#m3358e99edb" x="484.181062" y="182.385271" style="fill: #ff7f0e; stroke: #ff7f0e"/>
     <use xlink:href="#m3358e99edb" x="488.960941" y="206.607389" style="fill: #ff7f0e; stroke: #ff7f0e"/>
     <use xlink:href="#m3358e99edb" x="493.740819" y="205.261235" style="fill: #ff7f0e; stroke: #ff7f0e"/>
     <use xlink:href="#m3358e99edb" x="498.520697" y="206.108608" style="fill: #ff7f0e; stroke: #ff7f0e"/>
     <use xlink:href="#m3358e99edb" x="503.300576" y="202.914268" style="fill: #ff7f0e; stroke: #ff7f0e"/>
     <use xlink:href="#m3358e99edb" x="508.080454" y="203.889252" style="fill: #ff7f0e; stroke: #ff7f0e"/>
     <use xlink:href="#m3358e99edb" x="512.860332" y="202.713906" style="fill: #ff7f0e; stroke: #ff7f0e"/>
     <use xlink:href="#m3358e99edb" x="517.640211" y="205.16295" style="fill: #ff7f0e; stroke: #ff7f0e"/>
     <use xlink:href="#m3358e99edb" x="522.420089" y="202.486341" style="fill: #ff7f0e; stroke: #ff7f0e"/>
     <use xlink:href="#m3358e99edb" x="527.199967" y="198.990014" style="fill: #ff7f0e; stroke: #ff7f0e"/>
     <use xlink:href="#m3358e99edb" x="531.979846" y="199.86346" style="fill: #ff7f0e; stroke: #ff7f0e"/>
     <use xlink:href="#m3358e99edb" x="536.759724" y="208.170968" style="fill: #ff7f0e; stroke: #ff7f0e"/>
     <use xlink:href="#m3358e99edb" x="541.539602" y="204.408378" style="fill: #ff7f0e; stroke: #ff7f0e"/>
    </g>
   </g>
   <g id="patch_3">
    <path d="M 44.67125 318.04 
L 44.67125 26.88 
" style="fill: none; stroke: #000000; stroke-width: 0.8; stroke-linejoin: miter; stroke-linecap: square"/>
   </g>
   <g id="patch_4">
    <path d="M 565.2 318.04 
L 565.2 26.88 
" style="fill: none; stroke: #000000; stroke-width: 0.8; stroke-linejoin: miter; stroke-linecap: square"/>
   </g>
   <g id="patch_5">
    <path d="M 44.67125 318.04 
L 565.2 318.04 
" style="fill: none; stroke: #000000; stroke-width: 0.8; stroke-linejoin: miter; stroke-linecap: square"/>
   </g>
   <g id="patch_6">
    <path d="M 44.67125 26.88 
L 565.2 26.88 
" style="fill: none; stroke: #000000; stroke-width: 0.8; stroke-linejoin: miter; stroke-linecap: square"/>
   </g>
   <g id="text_18">
    <!-- Verification latency vs draft length, context_len=64 -->
    <g transform="translate(150.188125 20.88) scale(0.12 -0.12)">
     <defs>
      <path id="DejaVuSans-56" d="M 1831 0 
L 50 4666 
L 709 4666 
L 2188 738 
L 3669 4666 
L 4325 4666 
L 2547 0 
L 1831 0 
z
" transform="scale(0.015625)"/>
      <path id="DejaVuSans-69" d="M 603 3500 
L 1178 3500 
L 1178 0 
L 603 0 
L 603 3500 
z
M 603 4863 
L 1178 4863 
L 1178 4134 
L 603 4134 
L 603 4863 
z
" transform="scale(0.015625)"/>
      <path id="DejaVuSans-6f" d="M 1959 3097 
Q 1497 3097 1228 2736 
Q 959 2375 959 1747 
Q 959 1119 1226 758 
Q 1494 397 1959 397 
Q 2419 397 2687 759 
Q 2956 1122 2956 1747 
Q 2956 2369 2687 2733 
Q 2419 3097 1959 3097 
z
M 1959 3584 
Q 2709 3584 3137 3096 
Q 3566 2609 3566 1747 
Q 3566 888 3137 398 
Q 2709 -91 1959 -91 
Q 1206 -91 779 398 
Q 353 888 353 1747 
Q 353 2609 779 3096 
Q 1206 3584 1959 3584 
z
" transform="scale(0.015625)"/>
      <path id="DejaVuSans-79" d="M 2059 -325 
Q 1816 -950 1584 -1140 
Q 1353 -1331 966 -1331 
L 506 -1331 
L 506 -850 
L 844 -850 
Q 1081 -850 1212 -737 
Q 1344 -625 1503 -206 
L 1606 56 
L 191 3500 
L 800 3500 
L 1894 763 
L 2988 3500 
L 3597 3500 
L 2059 -325 
z
" transform="scale(0.015625)"/>
      <path id="DejaVuSans-76" d="M 191 3500 
L 800 3500 
L 1894 563 
L 2988 3500 
L 3597 3500 
L 2284 0 
L 1503 0 
L 191 3500 
z
" transform="scale(0.015625)"/>
      <path id="DejaVuSans-2c" d="M 750 794 
L 1409 794 
L 1409 256 
L 897 -744 
L 494 -744 
L 750 256 
L 750 794 
z
" transform="scale(0.015625)"/>
      <path id="DejaVuSans-78" d="M 3513 3500 
L 2247 1797 
L 3578 0 
L 2900 0 
L 1881 1375 
L 863 0 
L 184 0 
L 1544 1831 
L 300 3500 
L 978 3500 
L 1906 2253 
L 2834 3500 
L 3513 3500 
z
" transform="scale(0.015625)"/>
      <path id="DejaVuSans-3d" d="M 678 2906 
L 4684 2906 
L 4684 2381 
L 678 2381 
L 678 2906 
z
M 678 1631 
L 4684 1631 
L 4684 1100 
L 678 1100 
L 678 1631 
z
" transform="scale(0.015625)"/>
     </defs>
     <use xlink:href="#DejaVuSans-56"/>
     <use xlink:href="#DejaVuSans-65" transform="translate(60.658203 0)"/>
     <use xlink:href="#DejaVuSans-72" transform="translate(122.181641 0)"/>
     <use xlink:href="#DejaVuSans-69" transform="translate(163.294922 0)"/>
     <use xlink:href="#DejaVuSans-66" transform="translate(191.078125 0)"/>
     <use xlink:href="#DejaVuSans-69" transform="translate(226.283203 0)"/>
     <use xlink:href="#DejaVuSans-63" transform="translate(254.066406 0)"/>
     <use xlink:href="#DejaVuSans-61" transform="translate(309.046875 0)"/>
     <use xlink:href="#DejaVuSans-74" transform="translate(370.326172 0)"/>
     <use xlink:href="#DejaVuSans-69" transform="translate(409.535156 0)"/>
     <use xlink:href="#DejaVuSans-6f" transform="translate(437.318359 0)"/>
     <use xlink:href="#DejaVuSans-6e" transform="translate(498.5 0)"/>
     <use xlink:href="#DejaVuSans-20" transform="translate(561.878906 0)"/>
     <use xlink:href="#DejaVuSans-6c" transform="translate(593.666016 0)"/>
     <use xlink:href="#DejaVuSans-61" transform="translate(621.449219 0)"/>
     <use xlink:href="#DejaVuSans-74" transform="translate(682.728516 0)"/>
     <use xlink:href="#DejaVuSans-65" transform="translate(721.9375 0)"/>
     <use xlink:href="#DejaVuSans-6e" transform="translate(783.460938 0)"/>
     <use xlink:href="#DejaVuSans-63" transform="translate(846.839844 0)"/>
     <use xlink:href="#DejaVuSans-79" transform="translate(901.820312 0)"/>
     <use xlink:href="#DejaVuSans-20" transform="translate(961 0)"/>
     <use xlink:href="#DejaVuSans-76" transform="translate(992.787109 0)"/>
     <use xlink:href="#DejaVuSans-73" transform="translate(1051.966797 0)"/>
     <use xlink:href="#DejaVuSans-20" transform="translate(1104.066406 0)"/>
     <use xlink:href="#DejaVuSans-64" transform="translate(1135.853516 0)"/>
     <use xlink:href="#DejaVuSans-72" transform="translate(1199.330078 0)"/>
     <use xlink:href="#DejaVuSans-61" transform="translate(1240.443359 0)"/>
     <use xlink:href="#DejaVuSans-66" transform="translate(1301.722656 0)"/>
     <use xlink:href="#DejaVuSans-74" transform="translate(1335.177734 0)"/>
     <use xlink:href="#DejaVuSans-20" transform="translate(1374.386719 0)"/>
     <use xlink:href="#DejaVuSans-6c" transform="translate(1406.173828 0)"/>
     <use xlink:href="#DejaVuSans-65" transform="translate(1433.957031 0)"/>
     <use xlink:href="#DejaVuSans-6e" transform="translate(1495.480469 0)"/>
     <use xlink:href="#DejaVuSans-67" transform="translate(1558.859375 0)"/>
     <use xlink:href="#DejaVuSans-74" transform="translate(1622.335938 0)"/>
     <use xlink:href="#DejaVuSans-68" transform="translate(1661.544922 0)"/>
     <use xlink:href="#DejaVuSans-2c" transform="translate(1724.923828 0)"/>
     <use xlink:href="#DejaVuSans-20" transform="translate(1756.710938 0)"/>
     <use xlink:href="#DejaVuSans-63" transform="translate(1788.498047 0)"/>
     <use xlink:href="#DejaVuSans-6f" transform="translate(1843.478516 0)"/>
     <use xlink:href="#DejaVuSans-6e" transform="translate(1904.660156 0)"/>
     <use xlink:href="#DejaVuSans-74" transform="translate(1968.039062 0)"/>
     <use xlink:href="#DejaVuSans-65" transform="translate(2007.248047 0)"/>
     <use xlink:href="#DejaVuSans-78" transform="translate(2067.021484 0)"/>
     <use xlink:href="#DejaVuSans-74" transform="translate(2126.201172 0)"/>
     <use xlink:href="#DejaVuSans-5f" transform="translate(2165.410156 0)"/>
     <use xlink:href="#DejaVuSans-6c" transform="translate(2215.410156 0)"/>
     <use xlink:href="#DejaVuSans-65" transform="translate(2243.193359 0)"/>
     <use xlink:href="#DejaVuSans-6e" transform="translate(2304.716797 0)"/>
     <use xlink:href="#DejaVuSans-3d" transform="translate(2368.095703 0)"/>
     <use xlink:href="#DejaVuSans-36" transform="translate(2451.884766 0)"/>
     <use xlink:href="#DejaVuSans-34" transform="translate(2515.507812 0)"/>
    </g>
   </g>
   <g id="legend_1">
    <g id="patch_7">
     <path d="M 414.221875 64.7925 
L 558.2 64.7925 
Q 560.2 64.7925 560.2 62.7925 
L 560.2 33.88 
Q 560.2 31.88 558.2 31.88 
L 414.221875 31.88 
Q 412.221875 31.88 412.221875 33.88 
L 412.221875 62.7925 
Q 412.221875 64.7925 414.221875 64.7925 
z
" style="fill: #ffffff; opacity: 0.8; stroke: #cccccc; stroke-linejoin: miter"/>
    </g>
    <g id="line2d_33">
     <path d="M 416.221875 39.978437 
L 426.221875 39.978437 
L 436.221875 39.978437 
" style="fill: none; stroke: #1f77b4; stroke-width: 1.2; stroke-linecap: square"/>
     <g>
      <use xlink:href="#mec98673dfb" x="426.221875" y="39.978437" style="fill: #1f77b4; stroke: #1f77b4"/>
     </g>
    </g>
    <g id="text_19">
     <!-- target_only -->
     <g transform="translate(444.221875 43.478437) scale(0.1 -0.1)">
      <use xlink:href="#DejaVuSans-74"/>
      <use xlink:href="#DejaVuSans-61" transform="translate(39.208984 0)"/>
      <use xlink:href="#DejaVuSans-72" transform="translate(100.488281 0)"/>
      <use xlink:href="#DejaVuSans-67" transform="translate(139.851562 0)"/>
      <use xlink:href="#DejaVuSans-65" transform="translate(203.328125 0)"/>
      <use xlink:href="#DejaVuSans-74" transform="translate(264.851562 0)"/>
      <use xlink:href="#DejaVuSans-5f" transform="translate(304.060547 0)"/>
      <use xlink:href="#DejaVuSans-6f" transform="translate(354.060547 0)"/>
      <use xlink:href="#DejaVuSans-6e" transform="translate(415.242188 0)"/>
      <use xlink:href="#DejaVuSans-6c" transform="translate(478.621094 0)"/>
      <use xlink:href="#DejaVuSans-79" transform="translate(506.404297 0)"/>
     </g>
    </g>
    <g id="line2d_34">
     <path d="M 416.221875 54.934687 
L 426.221875 54.934687 
L 436.221875 54.934687 
" style="fill: none; stroke: #ff7f0e; stroke-width: 1.2; stroke-linecap: square"/>
     <g>
      <use xlink:href="#m3358e99edb" x="426.221875" y="54.934687" style="fill: #ff7f0e; stroke: #ff7f0e"/>
     </g>
    </g>
    <g id="text_20">
     <!-- classic_spec_sampling -->
     <g transform="translate(444.221875 58.434687) scale(0.1 -0.1)">
      <defs>
       <path id="DejaVuSans-70" d="M 1159 525 
L 1159 -1331 
L 581 -1331 
L 581 3500 
L 1159 3500 
L 1159 2969 
Q 1341 3281 1617 3432 
Q 1894 3584 2278 3584 
Q 2916 3584 3314 3078 
Q 3713 2572 3713 1747 
Q 3713 922 3314 415 
Q 2916 -91 2278 -91 
Q 1894 -91 1617 61 
Q 1341 213 1159 525 
z
M 3116 1747 
Q 3116 2381 2855 2742 
Q 2594 3103 2138 3103 
Q 1681 3103 1420 2742 
Q 1159 2381 1159 1747 
Q 1159 1113 1420 752 
Q 1681 391 2138 391 
Q 2594 391 2855 752 
Q 3116 1113 3116 1747 
z
" transform="scale(0.015625)"/>
      </defs>
      <use xlink:href="#DejaVuSans-63"/>
      <use xlink:href="#DejaVuSans-6c" transform="translate(54.980469 0)"/>
      <use xlink:href="#DejaVuSans-61" transform="translate(82.763672 0)"/>
      <use xlink:href="#DejaVuSans-73" transform="translate(144.042969 0)"/>
      <use xlink:href="#DejaVuSans-73" transform="translate(196.142578 0)"/>
      <use xlink:href="#DejaVuSans-69" transform="translate(248.242188 0)"/>
      <use xlink:href="#DejaVuSans-63" transform="translate(276.025391 0)"/>
      <use xlink:href="#DejaVuSans-5f" transform="translate(331.005859 0)"/>
      <use xlink:href="#DejaVuSans-73" transform="translate(381.005859 0)"/>
      <use xlink:href="#DejaVuSans-70" transform="translate(433.105469 0)"/>
      <use xlink:href="#DejaVuSans-65" transform="translate(496.582031 0)"/>
      <use xlink:href="#DejaVuSans-63" transform="translate(558.105469 0)"/>
      <use xlink:href="#DejaVuSans-5f" transform="translate(613.085938 0)"/>
      <use xlink:href="#DejaVuSans-73" transform="translate(663.085938 0)"/>
      <use xlink:href="#DejaVuSans-61" transform="translate(715.185547 0)"/>
      <use xlink:href="#DejaVuSans-6d" transform="translate(776.464844 0)"/>
      <use xlink:href="#DejaVuSans-70" transform="translate(873.876953 0)"/>
      <use xlink:href="#DejaVuSans-6c" transform="translate(937.353516 0)"/>
      <use xlink:href="#DejaVuSans-69" transform="translate(965.136719 0)"/>
      <use xlink:href="#DejaVuSans-6e" transform="translate(992.919922 0)"/>
      <use xlink:href="#DejaVuSans-67" transform="translate(1056.298828 0)"/>
     </g>
    </g>
   </g>
  </g>
 </g>
 <defs>
  <clipPath id="pbd55c65d94">
   <rect x="44.67125" y="26.88" width="520.52875" height="291.16"/>
  </clipPath>
 </defs>
</svg>
