<?xml version="1.0" encoding="utf-8" standalone="no"?>
<!DOCTYPE svg PUBLIC "-//W3C//DTD SVG 1.1//EN"
  "http://www.w3.org/Graphics/SVG/1.1/DTD/svg11.dtd">
<svg xmlns:xlink="http://www.w3.org/1999/xlink" width="576pt" height="360pt" viewBox="0 0 576 360" xmlns="http://www.w3.org/2000/svg" version="1.1">
 <metadata>
  <rdf:RDF xmlns:dc="http://purl.org/dc/elements/1.1/" xmlns:cc="http://creativecommons.org/ns#" xmlns:rdf="http://www.w3.org/1999/02/22-rdf-syntax-ns#">
   <cc:Work>
    <dc:type rdf:resource="http://purl.org/dc/dcmitype/StillImage"/>
    <dc:date>2026-05-18T00:00:02.018205</dc:date>
    <dc:format>image/svg+xml</dc:format>
    <dc:creator>
     <cc:Agent>
      <dc:title>Matplotlib v3.10.9, https://matplotlib.org/</dc:title>
     </cc:Agent>
    </dc:creator>
   </cc:Work>
  </rdf:RDF>
 </metadata>
 <defs>
  <style type="text/css">*{stroke-linejoin: round; stroke-linecap: butt}</style>
 </defs>
 <g id="figure_1">
  <g id="patch_1">
   <path d="M 0 360 
L 576 360 
L 576 0 
L 0 0 
z
" style="fill: #ffffff"/>
  </g>
  <g id="axes_1">
   <g id="patch_2">
    <path d="M 44.67125 318.04 
L 565.2 318.04 
L 565.2 26.88 
L 44.67125 26.88 
z
" style="fill: #ffffff"/>
   </g>
   <g id="FillBetweenPolyCollection_1">
    <path d="M 68.331648 226.400051 
L 68.331648 229.383259 
L 73.111526 295.691132 
L 77.891404 222.786952 
L 82.671283 221.395125 
L 87.451161 226.0944 
L 92.231039 220.506018 
L 97.010918 222.209222 
L 101.790796 220.844669 
L 106.570674 219.391179 
L 111.350553 273.590182 
L 116.130431 221.086316 
L 120.910309 217.402283 
L 125.690188 242.20515 
L 130.470066 220.748041 
L 135.249944 226.614827 
L 140.029823 228.880243 
L 144.809701 224.716511 
L 149.589579 225.996953 
L 154.369458 225.81632 
L 159.149336 229.962673 
L 163.929214 231.646915 
L 168.709093 230.63965 
L 173.488971 226.373186 
L 178.268849 290.691478 
L 183.048728 226.036588 
L 187.828606 226.203347 
L 192.608484 224.894286 
L 197.388363 287.853088 
L 202.168241 226.218824 
L 206.948119 232.432897 
L 211.727998 226.058428 
L 216.507876 246.401455 
L 221.287754 224.858564 
L 226.067633 224.15597 
L 230.847511 234.679251 
L 235.627389 221.315224 
L 240.407268 221.968531 
L 245.187146 237.352242 
L 249.967024 230.68056 
L 254.746903 223.772043 
L 259.526781 217.869117 
L 264.306659 296.707661 
L 269.086538 217.868171 
L 273.866416 217.402725 
L 278.646294 221.431984 
L 283.426173 219.881708 
L 288.206051 211.806893 
L 292.985929 220.866597 
L 297.765808 224.013414 
L 302.545686 225.172342 
L 307.325564 221.938729 
L 312.105442 244.141307 
L 316.885321 234.172826 
L 321.665199 226.814186 
L 326.445077 226.599711 
L 331.224956 230.830032 
L 336.004834 237.896124 
L 340.784712 223.106976 
L 345.564591 244.632367 
L 350.344469 304.805455 
L 355.124347 224.553103 
L 359.904226 224.764366 
L 364.684104 237.398201 
L 369.463982 224.321095 
L 374.243861 254.258491 
L 379.023739 225.224158 
L 383.803617 225.179909 
L 388.583496 223.44021 
L 393.363374 223.067491 
L 398.143252 223.17689 
L 402.923131 222.781938 
L 407.703009 222.773477 
L 412.482887 221.187606 
L 417.262766 223.098819 
L 422.042644 222.751496 
L 426.822522 228.537904 
L 431.602401 294.28754 
L 436.382279 221.099415 
L 441.162157 219.372325 
L 445.942036 216.378135 
L 450.721914 214.489234 
L 455.501792 213.245312 
L 460.281671 212.128754 
L 465.061549 211.251171 
L 469.841427 212.023292 
L 474.621306 209.976831 
L 479.401184 211.478881 
L 484.181062 211.218364 
L 488.960941 262.63893 
L 493.740819 215.664837 
L 498.520697 218.532829 
L 503.300576 217.451794 
L 508.080454 216.547512 
L 512.860332 216.790455 
L 517.640211 218.234544 
L 522.420089 251.547387 
L 527.199967 245.270644 
L 531.979846 217.378781 
L 536.759724 223.174637 
L 541.539602 217.49113 
L 541.539602 214.12904 
L 541.539602 214.12904 
L 536.759724 203.143649 
L 531.979846 213.771039 
L 527.199967 148.468486 
L 522.420089 148.336905 
L 517.640211 214.321225 
L 512.860332 213.393154 
L 508.080454 212.12747 
L 503.300576 213.646019 
L 498.520697 214.878502 
L 493.740819 210.206182 
L 488.960941 104.198401 
L 484.181062 209.208934 
L 479.401184 209.388457 
L 474.621306 208.956294 
L 469.841427 207.986863 
L 465.061549 210.194797 
L 460.281671 206.508186 
L 455.501792 210.310824 
L 450.721914 210.419194 
L 445.942036 212.278824 
L 441.162157 213.571595 
L 436.382279 219.471535 
L 431.602401 60.767114 
L 426.822522 205.594753 
L 422.042644 220.110476 
L 417.262766 218.880079 
L 412.482887 218.411929 
L 407.703009 219.135551 
L 402.923131 217.738579 
L 398.143252 217.056857 
L 393.363374 219.245835 
L 388.583496 221.844447 
L 383.803617 222.578809 
L 379.023739 221.812969 
L 374.243861 130.605682 
L 369.463982 222.135428 
L 364.684104 182.145415 
L 359.904226 222.600432 
L 355.124347 221.084549 
L 350.344469 40.114545 
L 345.564591 182.021378 
L 340.784712 219.867717 
L 336.004834 195.430489 
L 331.224956 208.452589 
L 326.445077 223.125296 
L 321.665199 223.877291 
L 316.885321 208.083523 
L 312.105442 186.688204 
L 307.325564 214.126638 
L 302.545686 198.746483 
L 297.765808 198.245166 
L 292.985929 197.21059 
L 288.206051 209.529034 
L 283.426173 194.355596 
L 278.646294 198.815546 
L 273.866416 212.037221 
L 269.086538 214.966957 
L 264.306659 65.463782 
L 259.526781 215.024514 
L 254.746903 208.885341 
L 249.967024 206.56131 
L 245.187146 184.312579 
L 240.407268 219.823917 
L 235.627389 218.311751 
L 230.847511 201.24064 
L 226.067633 222.642861 
L 221.287754 217.7781 
L 216.507876 184.074147 
L 211.727998 224.687715 
L 206.948119 205.70113 
L 202.168241 224.512354 
L 197.388363 88.596763 
L 192.608484 223.174287 
L 187.828606 220.685355 
L 183.048728 224.317003 
L 178.268849 88.596369 
L 173.488971 219.793696 
L 168.709093 211.651152 
L 163.929214 208.029033 
L 159.149336 206.276601 
L 154.369458 221.587427 
L 149.589579 222.129275 
L 144.809701 220.914856 
L 140.029823 213.677093 
L 135.249944 219.701088 
L 130.470066 212.711298 
L 125.690188 180.744541 
L 120.910309 214.972165 
L 116.130431 208.301504 
L 111.350553 93.466378 
L 106.570674 211.207972 
L 101.790796 209.896362 
L 97.010918 215.876678 
L 92.231039 215.65028 
L 87.451161 205.515464 
L 82.671283 216.768033 
L 77.891404 217.757242 
L 73.111526 83.876377 
L 68.331648 226.400051 
z
" clip-path="url(#p0243f660bb)" style="fill: #1f77b4; fill-opacity: 0.15"/>
   </g>
   <g id="FillBetweenPolyCollection_2">
    <path d="M 68.331648 225.787369 
L 68.331648 227.814466 
L 73.111526 222.831155 
L 77.891404 293.364606 
L 82.671283 221.160345 
L 87.451161 220.086633 
L 92.231039 223.840572 
L 97.010918 218.107742 
L 101.790796 216.268308 
L 106.570674 222.621033 
L 111.350553 214.779663 
L 116.130431 215.301423 
L 120.910309 215.202138 
L 125.690188 224.965974 
L 130.470066 218.829644 
L 135.249944 224.598271 
L 140.029823 222.575578 
L 144.809701 228.380291 
L 149.589579 223.565607 
L 154.369458 235.441695 
L 159.149336 222.079905 
L 163.929214 226.314593 
L 168.709093 224.041758 
L 173.488971 230.548552 
L 178.268849 224.168354 
L 183.048728 224.171967 
L 187.828606 224.316489 
L 192.608484 223.027597 
L 197.388363 223.542755 
L 202.168241 223.891811 
L 206.948119 227.559818 
L 211.727998 224.881307 
L 216.507876 230.929849 
L 221.287754 222.302054 
L 226.067633 221.822377 
L 230.847511 223.843819 
L 235.627389 220.219711 
L 240.407268 228.962242 
L 245.187146 228.087476 
L 249.967024 221.27425 
L 254.746903 218.864239 
L 259.526781 215.015502 
L 264.306659 235.184709 
L 269.086538 247.229661 
L 273.866416 223.035164 
L 278.646294 231.78151 
L 283.426173 210.679578 
L 288.206051 215.605491 
L 292.985929 211.033788 
L 297.765808 213.82335 
L 302.545686 215.123207 
L 307.325564 217.721164 
L 312.105442 224.942705 
L 316.885321 225.629033 
L 321.665199 224.580828 
L 326.445077 227.081808 
L 331.224956 223.13501 
L 336.004834 222.658685 
L 340.784712 222.212713 
L 345.564591 222.079042 
L 350.344469 222.846763 
L 355.124347 223.307368 
L 359.904226 289.36934 
L 364.684104 220.914873 
L 369.463982 229.714683 
L 374.243861 223.4997 
L 379.023739 240.517324 
L 383.803617 230.733543 
L 388.583496 227.848408 
L 393.363374 220.975046 
L 398.143252 225.786258 
L 402.923131 221.846323 
L 407.703009 220.63681 
L 412.482887 219.883335 
L 417.262766 238.543901 
L 422.042644 226.181651 
L 426.822522 301.843271 
L 431.602401 219.867362 
L 436.382279 219.903611 
L 441.162157 218.189788 
L 445.942036 226.878129 
L 450.721914 212.048903 
L 455.501792 210.801221 
L 460.281671 214.282624 
L 465.061549 218.433129 
L 469.841427 209.626418 
L 474.621306 215.226057 
L 479.401184 215.807529 
L 484.181062 231.344311 
L 488.960941 207.4722 
L 493.740819 218.813343 
L 498.520697 216.84112 
L 503.300576 215.560899 
L 508.080454 217.786705 
L 512.860332 215.132346 
L 517.640211 221.241076 
L 522.420089 216.447392 
L 527.199967 215.384424 
L 531.979846 222.867454 
L 536.759724 284.827708 
L 541.539602 224.379314 
L 541.539602 191.104197 
L 541.539602 191.104197 
L 536.759724 75.039254 
L 531.979846 188.210583 
L 527.199967 211.342674 
L 522.420089 212.504573 
L 517.640211 200.068093 
L 512.860332 211.961064 
L 508.080454 203.721246 
L 503.300576 212.275138 
L 498.520697 213.193854 
L 493.740819 199.385605 
L 488.960941 204.559133 
L 484.181062 152.392966 
L 479.401184 195.222925 
L 474.621306 192.687186 
L 469.841427 206.933675 
L 465.061549 190.191958 
L 460.281671 197.427556 
L 455.501792 208.551494 
L 450.721914 209.164207 
L 445.942036 181.32325 
L 441.162157 210.428318 
L 436.382279 215.936172 
L 431.602401 217.197682 
L 426.822522 59.911632 
L 422.042644 205.247057 
L 417.262766 183.742775 
L 412.482887 216.611368 
L 407.703009 219.260841 
L 402.923131 216.134807 
L 398.143252 209.873661 
L 393.363374 217.253369 
L 388.583496 201.068403 
L 383.803617 206.690897 
L 379.023739 186.093732 
L 374.243861 220.498979 
L 369.463982 204.052651 
L 364.684104 219.876956 
L 359.904226 91.935999 
L 355.124347 221.431583 
L 350.344469 220.144143 
L 345.564591 219.236793 
L 340.784712 220.221172 
L 336.004834 220.782477 
L 331.224956 220.446667 
L 326.445077 217.733344 
L 321.665199 221.327992 
L 316.885321 222.647426 
L 312.105442 219.972909 
L 307.325564 214.025356 
L 302.545686 210.903013 
L 297.765808 212.144293 
L 292.985929 208.96773 
L 288.206051 192.094423 
L 283.426173 208.037844 
L 278.646294 174.178123 
L 273.866416 192.83631 
L 269.086538 139.894278 
L 264.306659 177.582732 
L 259.526781 212.703601 
L 254.746903 214.402131 
L 249.967024 219.564107 
L 245.187146 204.785984 
L 240.407268 201.30361 
L 235.627389 215.755128 
L 230.847511 217.187129 
L 226.067633 220.64123 
L 221.287754 220.383397 
L 216.507876 204.669284 
L 211.727998 223.272288 
L 206.948119 217.310708 
L 202.168241 221.978156 
L 197.388363 221.490101 
L 192.608484 221.032574 
L 187.828606 219.309428 
L 183.048728 222.896881 
L 178.268849 222.645657 
L 173.488971 205.830271 
L 168.709093 221.49856 
L 163.929214 215.589049 
L 159.149336 216.806658 
L 154.369458 184.916746 
L 149.589579 222.822532 
L 144.809701 203.819144 
L 140.029823 219.667876 
L 135.249944 217.180503 
L 130.470066 209.395366 
L 125.690188 211.605233 
L 120.910309 213.27896 
L 116.130431 213.878105 
L 111.350553 213.265417 
L 106.570674 198.92984 
L 101.790796 212.580469 
L 97.010918 212.394148 
L 92.231039 203.134278 
L 87.451161 214.004656 
L 82.671283 215.645016 
L 77.891404 73.738666 
L 73.111526 220.248471 
L 68.331648 225.787369 
z
" clip-path="url(#p0243f660bb)" style="fill: #ff7f0e; fill-opacity: 0.15"/>
   </g>
   <g id="matplotlib.axis_1">
    <g id="xtick_1">
     <g id="line2d_1">
      <path d="M 63.551769 318.04 
L 63.551769 26.88 
" clip-path="url(#p0243f660bb)" style="fill: none; stroke: #b0b0b0; stroke-opacity: 0.3; stroke-width: 0.8; stroke-linecap: square"/>
     </g>
     <g id="line2d_2">
      <defs>
       <path id="m1c0e0725c8" d="M 0 0 
L 0 3.5 
" style="stroke: #000000; stroke-width: 0.8"/>
      </defs>
      <g>
       <use xlink:href="#m1c0e0725c8" x="63.551769" y="318.04" style="stroke: #000000; stroke-width: 0.8"/>
      </g>
     </g>
     <g id="text_1">
      <!-- 0 -->
      <g transform="translate(60.370519 332.638438) scale(0.1 -0.1)">
       <defs>
        <path id="DejaVuSans-30" d="M 2034 4250 
Q 1547 4250 1301 3770 
Q 1056 3291 1056 2328 
Q 1056 1369 1301 889 
Q 1547 409 2034 409 
Q 2525 409 2770 889 
Q 3016 1369 3016 2328 
Q 3016 3291 2770 3770 
Q 2525 4250 2034 4250 
z
M 2034 4750 
Q 2819 4750 3233 4129 
Q 3647 3509 3647 2328 
Q 3647 1150 3233 529 
Q 2819 -91 2034 -91 
Q 1250 -91 836 529 
Q 422 1150 422 2328 
Q 422 3509 836 4129 
Q 1250 4750 2034 4750 
z
" transform="scale(0.015625)"/>
       </defs>
       <use xlink:href="#DejaVuSans-30"/>
      </g>
     </g>
    </g>
    <g id="xtick_2">
     <g id="line2d_3">
      <path d="M 159.149336 318.04 
L 159.149336 26.88 
" clip-path="url(#p0243f660bb)" style="fill: none; stroke: #b0b0b0; stroke-opacity: 0.3; stroke-width: 0.8; stroke-linecap: square"/>
     </g>
     <g id="line2d_4">
      <g>
       <use xlink:href="#m1c0e0725c8" x="159.149336" y="318.04" style="stroke: #000000; stroke-width: 0.8"/>
      </g>
     </g>
     <g id="text_2">
      <!-- 20 -->
      <g transform="translate(152.786836 332.638438) scale(0.1 -0.1)">
       <defs>
        <path id="DejaVuSans-32" d="M 1228 531 
L 3431 531 
L 3431 0 
L 469 0 
L 469 531 
Q 828 903 1448 1529 
Q 2069 2156 2228 2338 
Q 2531 2678 2651 2914 
Q 2772 3150 2772 3378 
Q 2772 3750 2511 3984 
Q 2250 4219 1831 4219 
Q 1534 4219 1204 4116 
Q 875 4013 500 3803 
L 500 4441 
Q 881 4594 1212 4672 
Q 1544 4750 1819 4750 
Q 2544 4750 2975 4387 
Q 3406 4025 3406 3419 
Q 3406 3131 3298 2873 
Q 3191 2616 2906 2266 
Q 2828 2175 2409 1742 
Q 1991 1309 1228 531 
z
" transform="scale(0.015625)"/>
       </defs>
       <use xlink:href="#DejaVuSans-32"/>
       <use xlink:href="#DejaVuSans-30" transform="translate(63.623047 0)"/>
      </g>
     </g>
    </g>
    <g id="xtick_3">
     <g id="line2d_5">
      <path d="M 254.746903 318.04 
L 254.746903 26.88 
" clip-path="url(#p0243f660bb)" style="fill: none; stroke: #b0b0b0; stroke-opacity: 0.3; stroke-width: 0.8; stroke-linecap: square"/>
     </g>
     <g id="line2d_6">
      <g>
       <use xlink:href="#m1c0e0725c8" x="254.746903" y="318.04" style="stroke: #000000; stroke-width: 0.8"/>
      </g>
     </g>
     <g id="text_3">
      <!-- 40 -->
      <g transform="translate(248.384403 332.638438) scale(0.1 -0.1)">
       <defs>
        <path id="DejaVuSans-34" d="M 2419 4116 
L 825 1625 
L 2419 1625 
L 2419 4116 
z
M 2253 4666 
L 3047 4666 
L 3047 1625 
L 3713 1625 
L 3713 1100 
L 3047 1100 
L 3047 0 
L 2419 0 
L 2419 1100 
L 313 1100 
L 313 1709 
L 2253 4666 
z
" transform="scale(0.015625)"/>
       </defs>
       <use xlink:href="#DejaVuSans-34"/>
       <use xlink:href="#DejaVuSans-30" transform="translate(63.623047 0)"/>
      </g>
     </g>
    </g>
    <g id="xtick_4">
     <g id="line2d_7">
      <path d="M 350.344469 318.04 
L 350.344469 26.88 
" clip-path="url(#p0243f660bb)" style="fill: none; stroke: #b0b0b0; stroke-opacity: 0.3; stroke-width: 0.8; stroke-linecap: square"/>
     </g>
     <g id="line2d_8">
      <g>
       <use xlink:href="#m1c0e0725c8" x="350.344469" y="318.04" style="stroke: #000000; stroke-width: 0.8"/>
      </g>
     </g>
     <g id="text_4">
      <!-- 60 -->
      <g transform="translate(343.981969 332.638438) scale(0.1 -0.1)">
       <defs>
        <path id="DejaVuSans-36" d="M 2113 2584 
Q 1688 2584 1439 2293 
Q 1191 2003 1191 1497 
Q 1191 994 1439 701 
Q 1688 409 2113 409 
Q 2538 409 2786 701 
Q 3034 994 3034 1497 
Q 3034 2003 2786 2293 
Q 2538 2584 2113 2584 
z
M 3366 4563 
L 3366 3988 
Q 3128 4100 2886 4159 
Q 2644 4219 2406 4219 
Q 1781 4219 1451 3797 
Q 1122 3375 1075 2522 
Q 1259 2794 1537 2939 
Q 1816 3084 2150 3084 
Q 2853 3084 3261 2657 
Q 3669 2231 3669 1497 
Q 3669 778 3244 343 
Q 2819 -91 2113 -91 
Q 1303 -91 875 529 
Q 447 1150 447 2328 
Q 447 3434 972 4092 
Q 1497 4750 2381 4750 
Q 2619 4750 2861 4703 
Q 3103 4656 3366 4563 
z
" transform="scale(0.015625)"/>
       </defs>
       <use xlink:href="#DejaVuSans-36"/>
       <use xlink:href="#DejaVuSans-30" transform="translate(63.623047 0)"/>
      </g>
     </g>
    </g>
    <g id="xtick_5">
     <g id="line2d_9">
      <path d="M 445.942036 318.04 
L 445.942036 26.88 
" clip-path="url(#p0243f660bb)" style="fill: none; stroke: #b0b0b0; stroke-opacity: 0.3; stroke-width: 0.8; stroke-linecap: square"/>
     </g>
     <g id="line2d_10">
      <g>
       <use xlink:href="#m1c0e0725c8" x="445.942036" y="318.04" style="stroke: #000000; stroke-width: 0.8"/>
      </g>
     </g>
     <g id="text_5">
      <!-- 80 -->
      <g transform="translate(439.579536 332.638438) scale(0.1 -0.1)">
       <defs>
        <path id="DejaVuSans-38" d="M 2034 2216 
Q 1584 2216 1326 1975 
Q 1069 1734 1069 1313 
Q 1069 891 1326 650 
Q 1584 409 2034 409 
Q 2484 409 2743 651 
Q 3003 894 3003 1313 
Q 3003 1734 2745 1975 
Q 2488 2216 2034 2216 
z
M 1403 2484 
Q 997 2584 770 2862 
Q 544 3141 544 3541 
Q 544 4100 942 4425 
Q 1341 4750 2034 4750 
Q 2731 4750 3128 4425 
Q 3525 4100 3525 3541 
Q 3525 3141 3298 2862 
Q 3072 2584 2669 2484 
Q 3125 2378 3379 2068 
Q 3634 1759 3634 1313 
Q 3634 634 3220 271 
Q 2806 -91 2034 -91 
Q 1263 -91 848 271 
Q 434 634 434 1313 
Q 434 1759 690 2068 
Q 947 2378 1403 2484 
z
M 1172 3481 
Q 1172 3119 1398 2916 
Q 1625 2713 2034 2713 
Q 2441 2713 2670 2916 
Q 2900 3119 2900 3481 
Q 2900 3844 2670 4047 
Q 2441 4250 2034 4250 
Q 1625 4250 1398 4047 
Q 1172 3844 1172 3481 
z
" transform="scale(0.015625)"/>
       </defs>
       <use xlink:href="#DejaVuSans-38"/>
       <use xlink:href="#DejaVuSans-30" transform="translate(63.623047 0)"/>
      </g>
     </g>
    </g>
    <g id="xtick_6">
     <g id="line2d_11">
      <path d="M 541.539602 318.04 
L 541.539602 26.88 
" clip-path="url(#p0243f660bb)" style="fill: none; stroke: #b0b0b0; stroke-opacity: 0.3; stroke-width: 0.8; stroke-linecap: square"/>
     </g>
     <g id="line2d_12">
      <g>
       <use xlink:href="#m1c0e0725c8" x="541.539602" y="318.04" style="stroke: #000000; stroke-width: 0.8"/>
      </g>
     </g>
     <g id="text_6">
      <!-- 100 -->
      <g transform="translate(531.995852 332.638438) scale(0.1 -0.1)">
       <defs>
        <path id="DejaVuSans-31" d="M 794 531 
L 1825 531 
L 1825 4091 
L 703 3866 
L 703 4441 
L 1819 4666 
L 2450 4666 
L 2450 531 
L 3481 531 
L 3481 0 
L 794 0 
L 794 531 
z
" transform="scale(0.015625)"/>
       </defs>
       <use xlink:href="#DejaVuSans-31"/>
       <use xlink:href="#DejaVuSans-30" transform="translate(63.623047 0)"/>
       <use xlink:href="#DejaVuSans-30" transform="translate(127.246094 0)"/>
      </g>
     </g>
    </g>
    <g id="text_7">
     <!-- Draft length -->
     <g transform="translate(274.806719 346.316563) scale(0.1 -0.1)">
      <defs>
       <path id="DejaVuSans-44" d="M 1259 4147 
L 1259 519 
L 2022 519 
Q 2988 519 3436 956 
Q 3884 1394 3884 2338 
Q 3884 3275 3436 3711 
Q 2988 4147 2022 4147 
L 1259 4147 
z
M 628 4666 
L 1925 4666 
Q 3281 4666 3915 4102 
Q 4550 3538 4550 2338 
Q 4550 1131 3912 565 
Q 3275 0 1925 0 
L 628 0 
L 628 4666 
z
" transform="scale(0.015625)"/>
       <path id="DejaVuSans-72" d="M 2631 2963 
Q 2534 3019 2420 3045 
Q 2306 3072 2169 3072 
Q 1681 3072 1420 2755 
Q 1159 2438 1159 1844 
L 1159 0 
L 581 0 
L 581 3500 
L 1159 3500 
L 1159 2956 
Q 1341 3275 1631 3429 
Q 1922 3584 2338 3584 
Q 2397 3584 2469 3576 
Q 2541 3569 2628 3553 
L 2631 2963 
z
" transform="scale(0.015625)"/>
       <path id="DejaVuSans-61" d="M 2194 1759 
Q 1497 1759 1228 1600 
Q 959 1441 959 1056 
Q 959 750 1161 570 
Q 1363 391 1709 391 
Q 2188 391 2477 730 
Q 2766 1069 2766 1631 
L 2766 1759 
L 2194 1759 
z
M 3341 1997 
L 3341 0 
L 2766 0 
L 2766 531 
Q 2569 213 2275 61 
Q 1981 -91 1556 -91 
Q 1019 -91 701 211 
Q 384 513 384 1019 
Q 384 1609 779 1909 
Q 1175 2209 1959 2209 
L 2766 2209 
L 2766 2266 
Q 2766 2663 2505 2880 
Q 2244 3097 1772 3097 
Q 1472 3097 1187 3025 
Q 903 2953 641 2809 
L 641 3341 
Q 956 3463 1253 3523 
Q 1550 3584 1831 3584 
Q 2591 3584 2966 3190 
Q 3341 2797 3341 1997 
z
" transform="scale(0.015625)"/>
       <path id="DejaVuSans-66" d="M 2375 4863 
L 2375 4384 
L 1825 4384 
Q 1516 4384 1395 4259 
Q 1275 4134 1275 3809 
L 1275 3500 
L 2222 3500 
L 2222 3053 
L 1275 3053 
L 1275 0 
L 697 0 
L 697 3053 
L 147 3053 
L 147 3500 
L 697 3500 
L 697 3744 
Q 697 4328 969 4595 
Q 1241 4863 1831 4863 
L 2375 4863 
z
" transform="scale(0.015625)"/>
       <path id="DejaVuSans-74" d="M 1172 4494 
L 1172 3500 
L 2356 3500 
L 2356 3053 
L 1172 3053 
L 1172 1153 
Q 1172 725 1289 603 
Q 1406 481 1766 481 
L 2356 481 
L 2356 0 
L 1766 0 
Q 1100 0 847 248 
Q 594 497 594 1153 
L 594 3053 
L 172 3053 
L 172 3500 
L 594 3500 
L 594 4494 
L 1172 4494 
z
" transform="scale(0.015625)"/>
       <path id="DejaVuSans-20" transform="scale(0.015625)"/>
       <path id="DejaVuSans-6c" d="M 603 4863 
L 1178 4863 
L 1178 0 
L 603 0 
L 603 4863 
z
" transform="scale(0.015625)"/>
       <path id="DejaVuSans-65" d="M 3597 1894 
L 3597 1613 
L 953 1613 
Q 991 1019 1311 708 
Q 1631 397 2203 397 
Q 2534 397 2845 478 
Q 3156 559 3463 722 
L 3463 178 
Q 3153 47 2828 -22 
Q 2503 -91 2169 -91 
Q 1331 -91 842 396 
Q 353 884 353 1716 
Q 353 2575 817 3079 
Q 1281 3584 2069 3584 
Q 2775 3584 3186 3129 
Q 3597 2675 3597 1894 
z
M 3022 2063 
Q 3016 2534 2758 2815 
Q 2500 3097 2075 3097 
Q 1594 3097 1305 2825 
Q 1016 2553 972 2059 
L 3022 2063 
z
" transform="scale(0.015625)"/>
       <path id="DejaVuSans-6e" d="M 3513 2113 
L 3513 0 
L 2938 0 
L 2938 2094 
Q 2938 2591 2744 2837 
Q 2550 3084 2163 3084 
Q 1697 3084 1428 2787 
Q 1159 2491 1159 1978 
L 1159 0 
L 581 0 
L 581 3500 
L 1159 3500 
L 1159 2956 
Q 1366 3272 1645 3428 
Q 1925 3584 2291 3584 
Q 2894 3584 3203 3211 
Q 3513 2838 3513 2113 
z
" transform="scale(0.015625)"/>
       <path id="DejaVuSans-67" d="M 2906 1791 
Q 2906 2416 2648 2759 
Q 2391 3103 1925 3103 
Q 1463 3103 1205 2759 
Q 947 2416 947 1791 
Q 947 1169 1205 825 
Q 1463 481 1925 481 
Q 2391 481 2648 825 
Q 2906 1169 2906 1791 
z
M 3481 434 
Q 3481 -459 3084 -895 
Q 2688 -1331 1869 -1331 
Q 1566 -1331 1297 -1286 
Q 1028 -1241 775 -1147 
L 775 -588 
Q 1028 -725 1275 -790 
Q 1522 -856 1778 -856 
Q 2344 -856 2625 -561 
Q 2906 -266 2906 331 
L 2906 616 
Q 2728 306 2450 153 
Q 2172 0 1784 0 
Q 1141 0 747 490 
Q 353 981 353 1791 
Q 353 2603 747 3093 
Q 1141 3584 1784 3584 
Q 2172 3584 2450 3431 
Q 2728 3278 2906 2969 
L 2906 3500 
L 3481 3500 
L 3481 434 
z
" transform="scale(0.015625)"/>
       <path id="DejaVuSans-68" d="M 3513 2113 
L 3513 0 
L 2938 0 
L 2938 2094 
Q 2938 2591 2744 2837 
Q 2550 3084 2163 3084 
Q 1697 3084 1428 2787 
Q 1159 2491 1159 1978 
L 1159 0 
L 581 0 
L 581 4863 
L 1159 4863 
L 1159 2956 
Q 1366 3272 1645 3428 
Q 1925 3584 2291 3584 
Q 2894 3584 3203 3211 
Q 3513 2838 3513 2113 
z
" transform="scale(0.015625)"/>
      </defs>
      <use xlink:href="#DejaVuSans-44"/>
      <use xlink:href="#DejaVuSans-72" transform="translate(77.001953 0)"/>
      <use xlink:href="#DejaVuSans-61" transform="translate(118.115234 0)"/>
      <use xlink:href="#DejaVuSans-66" transform="translate(179.394531 0)"/>
      <use xlink:href="#DejaVuSans-74" transform="translate(212.849609 0)"/>
      <use xlink:href="#DejaVuSans-20" transform="translate(252.058594 0)"/>
      <use xlink:href="#DejaVuSans-6c" transform="translate(283.845703 0)"/>
      <use xlink:href="#DejaVuSans-65" transform="translate(311.628906 0)"/>
      <use xlink:href="#DejaVuSans-6e" transform="translate(373.152344 0)"/>
      <use xlink:href="#DejaVuSans-67" transform="translate(436.53125 0)"/>
      <use xlink:href="#DejaVuSans-74" transform="translate(500.007812 0)"/>
      <use xlink:href="#DejaVuSans-68" transform="translate(539.216797 0)"/>
     </g>
    </g>
   </g>
   <g id="matplotlib.axis_2">
    <g id="ytick_1">
     <g id="line2d_13">
      <path d="M 44.67125 284.2239 
L 565.2 284.2239 
" clip-path="url(#p0243f660bb)" style="fill: none; stroke: #b0b0b0; stroke-opacity: 0.3; stroke-width: 0.8; stroke-linecap: square"/>
     </g>
     <g id="line2d_14">
      <defs>
       <path id="m8b53a84147" d="M 0 0 
L -3.5 0 
" style="stroke: #000000; stroke-width: 0.8"/>
      </defs>
      <g>
       <use xlink:href="#m8b53a84147" x="44.67125" y="284.2239" style="stroke: #000000; stroke-width: 0.8"/>
      </g>
     </g>
     <g id="text_8">
      <!-- 10 -->
      <g transform="translate(24.94625 288.023119) scale(0.1 -0.1)">
       <use xlink:href="#DejaVuSans-31"/>
       <use xlink:href="#DejaVuSans-30" transform="translate(63.623047 0)"/>
      </g>
     </g>
    </g>
    <g id="ytick_2">
     <g id="line2d_15">
      <path d="M 44.67125 247.453774 
L 565.2 247.453774 
" clip-path="url(#p0243f660bb)" style="fill: none; stroke: #b0b0b0; stroke-opacity: 0.3; stroke-width: 0.8; stroke-linecap: square"/>
     </g>
     <g id="line2d_16">
      <g>
       <use xlink:href="#m8b53a84147" x="44.67125" y="247.453774" style="stroke: #000000; stroke-width: 0.8"/>
      </g>
     </g>
     <g id="text_9">
      <!-- 20 -->
      <g transform="translate(24.94625 251.252993) scale(0.1 -0.1)">
       <use xlink:href="#DejaVuSans-32"/>
       <use xlink:href="#DejaVuSans-30" transform="translate(63.623047 0)"/>
      </g>
     </g>
    </g>
    <g id="ytick_3">
     <g id="line2d_17">
      <path d="M 44.67125 210.683648 
L 565.2 210.683648 
" clip-path="url(#p0243f660bb)" style="fill: none; stroke: #b0b0b0; stroke-opacity: 0.3; stroke-width: 0.8; stroke-linecap: square"/>
     </g>
     <g id="line2d_18">
      <g>
       <use xlink:href="#m8b53a84147" x="44.67125" y="210.683648" style="stroke: #000000; stroke-width: 0.8"/>
      </g>
     </g>
     <g id="text_10">
      <!-- 30 -->
      <g transform="translate(24.94625 214.482866) scale(0.1 -0.1)">
       <defs>
        <path id="DejaVuSans-33" d="M 2597 2516 
Q 3050 2419 3304 2112 
Q 3559 1806 3559 1356 
Q 3559 666 3084 287 
Q 2609 -91 1734 -91 
Q 1441 -91 1130 -33 
Q 819 25 488 141 
L 488 750 
Q 750 597 1062 519 
Q 1375 441 1716 441 
Q 2309 441 2620 675 
Q 2931 909 2931 1356 
Q 2931 1769 2642 2001 
Q 2353 2234 1838 2234 
L 1294 2234 
L 1294 2753 
L 1863 2753 
Q 2328 2753 2575 2939 
Q 2822 3125 2822 3475 
Q 2822 3834 2567 4026 
Q 2313 4219 1838 4219 
Q 1578 4219 1281 4162 
Q 984 4106 628 3988 
L 628 4550 
Q 988 4650 1302 4700 
Q 1616 4750 1894 4750 
Q 2613 4750 3031 4423 
Q 3450 4097 3450 3541 
Q 3450 3153 3228 2886 
Q 3006 2619 2597 2516 
z
" transform="scale(0.015625)"/>
       </defs>
       <use xlink:href="#DejaVuSans-33"/>
       <use xlink:href="#DejaVuSans-30" transform="translate(63.623047 0)"/>
      </g>
     </g>
    </g>
    <g id="ytick_4">
     <g id="line2d_19">
      <path d="M 44.67125 173.913521 
L 565.2 173.913521 
" clip-path="url(#p0243f660bb)" style="fill: none; stroke: #b0b0b0; stroke-opacity: 0.3; stroke-width: 0.8; stroke-linecap: square"/>
     </g>
     <g id="line2d_20">
      <g>
       <use xlink:href="#m8b53a84147" x="44.67125" y="173.913521" style="stroke: #000000; stroke-width: 0.8"/>
      </g>
     </g>
     <g id="text_11">
      <!-- 40 -->
      <g transform="translate(24.94625 177.71274) scale(0.1 -0.1)">
       <use xlink:href="#DejaVuSans-34"/>
       <use xlink:href="#DejaVuSans-30" transform="translate(63.623047 0)"/>
      </g>
     </g>
    </g>
    <g id="ytick_5">
     <g id="line2d_21">
      <path d="M 44.67125 137.143395 
L 565.2 137.143395 
" clip-path="url(#p0243f660bb)" style="fill: none; stroke: #b0b0b0; stroke-opacity: 0.3; stroke-width: 0.8; stroke-linecap: square"/>
     </g>
     <g id="line2d_22">
      <g>
       <use xlink:href="#m8b53a84147" x="44.67125" y="137.143395" style="stroke: #000000; stroke-width: 0.8"/>
      </g>
     </g>
     <g id="text_12">
      <!-- 50 -->
      <g transform="translate(24.94625 140.942614) scale(0.1 -0.1)">
       <defs>
        <path id="DejaVuSans-35" d="M 691 4666 
L 3169 4666 
L 3169 4134 
L 1269 4134 
L 1269 2991 
Q 1406 3038 1543 3061 
Q 1681 3084 1819 3084 
Q 2600 3084 3056 2656 
Q 3513 2228 3513 1497 
Q 3513 744 3044 326 
Q 2575 -91 1722 -91 
Q 1428 -91 1123 -41 
Q 819 9 494 109 
L 494 744 
Q 775 591 1075 516 
Q 1375 441 1709 441 
Q 2250 441 2565 725 
Q 2881 1009 2881 1497 
Q 2881 1984 2565 2268 
Q 2250 2553 1709 2553 
Q 1456 2553 1204 2497 
Q 953 2441 691 2322 
L 691 4666 
z
" transform="scale(0.015625)"/>
       </defs>
       <use xlink:href="#DejaVuSans-35"/>
       <use xlink:href="#DejaVuSans-30" transform="translate(63.623047 0)"/>
      </g>
     </g>
    </g>
    <g id="ytick_6">
     <g id="line2d_23">
      <path d="M 44.67125 100.373269 
L 565.2 100.373269 
" clip-path="url(#p0243f660bb)" style="fill: none; stroke: #b0b0b0; stroke-opacity: 0.3; stroke-width: 0.8; stroke-linecap: square"/>
     </g>
     <g id="line2d_24">
      <g>
       <use xlink:href="#m8b53a84147" x="44.67125" y="100.373269" style="stroke: #000000; stroke-width: 0.8"/>
      </g>
     </g>
     <g id="text_13">
      <!-- 60 -->
      <g transform="translate(24.94625 104.172487) scale(0.1 -0.1)">
       <use xlink:href="#DejaVuSans-36"/>
       <use xlink:href="#DejaVuSans-30" transform="translate(63.623047 0)"/>
      </g>
     </g>
    </g>
    <g id="ytick_7">
     <g id="line2d_25">
      <path d="M 44.67125 63.603142 
L 565.2 63.603142 
" clip-path="url(#p0243f660bb)" style="fill: none; stroke: #b0b0b0; stroke-opacity: 0.3; stroke-width: 0.8; stroke-linecap: square"/>
     </g>
     <g id="line2d_26">
      <g>
       <use xlink:href="#m8b53a84147" x="44.67125" y="63.603142" style="stroke: #000000; stroke-width: 0.8"/>
      </g>
     </g>
     <g id="text_14">
      <!-- 70 -->
      <g transform="translate(24.94625 67.402361) scale(0.1 -0.1)">
       <defs>
        <path id="DejaVuSans-37" d="M 525 4666 
L 3525 4666 
L 3525 4397 
L 1831 0 
L 1172 0 
L 2766 4134 
L 525 4134 
L 525 4666 
z
" transform="scale(0.015625)"/>
       </defs>
       <use xlink:href="#DejaVuSans-37"/>
       <use xlink:href="#DejaVuSans-30" transform="translate(63.623047 0)"/>
      </g>
     </g>
    </g>
    <g id="text_15">
     <!-- cuda_ms -->
     <g transform="translate(18.588438 194.59125) rotate(-90) scale(0.1 -0.1)">
      <defs>
       <path id="DejaVuSans-63" d="M 3122 3366 
L 3122 2828 
Q 2878 2963 2633 3030 
Q 2388 3097 2138 3097 
Q 1578 3097 1268 2742 
Q 959 2388 959 1747 
Q 959 1106 1268 751 
Q 1578 397 2138 397 
Q 2388 397 2633 464 
Q 2878 531 3122 666 
L 3122 134 
Q 2881 22 2623 -34 
Q 2366 -91 2075 -91 
Q 1284 -91 818 406 
Q 353 903 353 1747 
Q 353 2603 823 3093 
Q 1294 3584 2113 3584 
Q 2378 3584 2631 3529 
Q 2884 3475 3122 3366 
z
" transform="scale(0.015625)"/>
       <path id="DejaVuSans-75" d="M 544 1381 
L 544 3500 
L 1119 3500 
L 1119 1403 
Q 1119 906 1312 657 
Q 1506 409 1894 409 
Q 2359 409 2629 706 
Q 2900 1003 2900 1516 
L 2900 3500 
L 3475 3500 
L 3475 0 
L 2900 0 
L 2900 538 
Q 2691 219 2414 64 
Q 2138 -91 1772 -91 
Q 1169 -91 856 284 
Q 544 659 544 1381 
z
M 1991 3584 
L 1991 3584 
z
" transform="scale(0.015625)"/>
       <path id="DejaVuSans-64" d="M 2906 2969 
L 2906 4863 
L 3481 4863 
L 3481 0 
L 2906 0 
L 2906 525 
Q 2725 213 2448 61 
Q 2172 -91 1784 -91 
Q 1150 -91 751 415 
Q 353 922 353 1747 
Q 353 2572 751 3078 
Q 1150 3584 1784 3584 
Q 2172 3584 2448 3432 
Q 2725 3281 2906 2969 
z
M 947 1747 
Q 947 1113 1208 752 
Q 1469 391 1925 391 
Q 2381 391 2643 752 
Q 2906 1113 2906 1747 
Q 2906 2381 2643 2742 
Q 2381 3103 1925 3103 
Q 1469 3103 1208 2742 
Q 947 2381 947 1747 
z
" transform="scale(0.015625)"/>
       <path id="DejaVuSans-5f" d="M 3263 -1063 
L 3263 -1509 
L -63 -1509 
L -63 -1063 
L 3263 -1063 
z
" transform="scale(0.015625)"/>
       <path id="DejaVuSans-6d" d="M 3328 2828 
Q 3544 3216 3844 3400 
Q 4144 3584 4550 3584 
Q 5097 3584 5394 3201 
Q 5691 2819 5691 2113 
L 5691 0 
L 5113 0 
L 5113 2094 
Q 5113 2597 4934 2840 
Q 4756 3084 4391 3084 
Q 3944 3084 3684 2787 
Q 3425 2491 3425 1978 
L 3425 0 
L 2847 0 
L 2847 2094 
Q 2847 2600 2669 2842 
Q 2491 3084 2119 3084 
Q 1678 3084 1418 2786 
Q 1159 2488 1159 1978 
L 1159 0 
L 581 0 
L 581 3500 
L 1159 3500 
L 1159 2956 
Q 1356 3278 1631 3431 
Q 1906 3584 2284 3584 
Q 2666 3584 2933 3390 
Q 3200 3197 3328 2828 
z
" transform="scale(0.015625)"/>
       <path id="DejaVuSans-73" d="M 2834 3397 
L 2834 2853 
Q 2591 2978 2328 3040 
Q 2066 3103 1784 3103 
Q 1356 3103 1142 2972 
Q 928 2841 928 2578 
Q 928 2378 1081 2264 
Q 1234 2150 1697 2047 
L 1894 2003 
Q 2506 1872 2764 1633 
Q 3022 1394 3022 966 
Q 3022 478 2636 193 
Q 2250 -91 1575 -91 
Q 1294 -91 989 -36 
Q 684 19 347 128 
L 347 722 
Q 666 556 975 473 
Q 1284 391 1588 391 
Q 1994 391 2212 530 
Q 2431 669 2431 922 
Q 2431 1156 2273 1281 
Q 2116 1406 1581 1522 
L 1381 1569 
Q 847 1681 609 1914 
Q 372 2147 372 2553 
Q 372 3047 722 3315 
Q 1072 3584 1716 3584 
Q 2034 3584 2315 3537 
Q 2597 3491 2834 3397 
z
" transform="scale(0.015625)"/>
      </defs>
      <use xlink:href="#DejaVuSans-63"/>
      <use xlink:href="#DejaVuSans-75" transform="translate(54.980469 0)"/>
      <use xlink:href="#DejaVuSans-64" transform="translate(118.359375 0)"/>
      <use xlink:href="#DejaVuSans-61" transform="translate(181.835938 0)"/>
      <use xlink:href="#DejaVuSans-5f" transform="translate(243.115234 0)"/>
      <use xlink:href="#DejaVuSans-6d" transform="translate(293.115234 0)"/>
      <use xlink:href="#DejaVuSans-73" transform="translate(390.527344 0)"/>
     </g>
    </g>
   </g>
   <g id="line2d_27">
    <path d="M 68.331648 227.891655 
L 73.111526 189.783755 
L 77.891404 220.272097 
L 82.671283 219.081579 
L 87.451161 215.804932 
L 92.231039 218.078149 
L 97.010918 219.04295 
L 101.790796 215.370515 
L 106.570674 215.299575 
L 111.350553 183.52828 
L 116.130431 214.69391 
L 120.910309 216.187224 
L 125.690188 211.474846 
L 130.470066 216.729669 
L 135.249944 223.157958 
L 140.029823 221.278668 
L 144.809701 222.815683 
L 149.589579 224.063114 
L 154.369458 223.701873 
L 159.149336 218.119637 
L 163.929214 219.837974 
L 168.709093 221.145401 
L 173.488971 223.083441 
L 178.268849 189.643923 
L 183.048728 225.176795 
L 187.828606 223.444351 
L 192.608484 224.034286 
L 197.388363 188.224926 
L 202.168241 225.365589 
L 206.948119 219.067013 
L 211.727998 225.373071 
L 216.507876 215.237801 
L 221.287754 221.318332 
L 226.067633 223.399416 
L 230.847511 217.959945 
L 235.627389 219.813488 
L 240.407268 220.896224 
L 245.187146 210.832411 
L 249.967024 218.620935 
L 254.746903 216.328692 
L 259.526781 216.446816 
L 264.306659 181.085721 
L 269.086538 216.417564 
L 273.866416 214.719973 
L 278.646294 210.123765 
L 283.426173 207.118652 
L 288.206051 210.667963 
L 292.985929 209.038593 
L 297.765808 211.12929 
L 302.545686 211.959412 
L 307.325564 218.032684 
L 312.105442 215.414756 
L 316.885321 221.128174 
L 321.665199 225.345738 
L 326.445077 224.862503 
L 331.224956 219.64131 
L 336.004834 216.663306 
L 340.784712 221.487347 
L 345.564591 213.326872 
L 350.344469 172.46 
L 355.124347 222.818826 
L 359.904226 223.682399 
L 364.684104 209.771808 
L 369.463982 223.228262 
L 374.243861 192.432086 
L 379.023739 223.518564 
L 383.803617 223.879359 
L 388.583496 222.642329 
L 393.363374 221.156663 
L 398.143252 220.116874 
L 402.923131 220.260259 
L 407.703009 220.954514 
L 412.482887 219.799767 
L 417.262766 220.989449 
L 422.042644 221.430986 
L 426.822522 217.066329 
L 431.602401 177.527327 
L 436.382279 220.285475 
L 441.162157 216.47196 
L 445.942036 214.32848 
L 450.721914 212.454214 
L 455.501792 211.778068 
L 460.281671 209.31847 
L 465.061549 210.722984 
L 469.841427 210.005078 
L 474.621306 209.466562 
L 479.401184 210.433669 
L 484.181062 210.213649 
L 488.960941 183.418665 
L 493.740819 212.935509 
L 498.520697 216.705666 
L 503.300576 215.548907 
L 508.080454 214.337491 
L 512.860332 215.091804 
L 517.640211 216.277884 
L 522.420089 199.942146 
L 527.199967 196.869565 
L 531.979846 215.57491 
L 536.759724 213.159143 
L 541.539602 215.810085 
" clip-path="url(#p0243f660bb)" style="fill: none; stroke: #1f77b4; stroke-width: 1.2; stroke-linecap: square"/>
    <defs>
     <path id="m6f1eb906ff" d="M 0 1.25 
C 0.331504 1.25 0.649475 1.118292 0.883883 0.883883 
C 1.118292 0.649475 1.25 0.331504 1.25 0 
C 1.25 -0.331504 1.118292 -0.649475 0.883883 -0.883883 
C 0.649475 -1.118292 0.331504 -1.25 0 -1.25 
C -0.331504 -1.25 -0.649475 -1.118292 -0.883883 -0.883883 
C -1.118292 -0.649475 -1.25 -0.331504 -1.25 0 
C -1.25 0.331504 -1.118292 0.649475 -0.883883 0.883883 
C -0.649475 1.118292 -0.331504 1.25 0 1.25 
z
" style="stroke: #1f77b4"/>
    </defs>
    <g clip-path="url(#p0243f660bb)">
     <use xlink:href="#m6f1eb906ff" x="68.331648" y="227.891655" style="fill: #1f77b4; stroke: #1f77b4"/>
     <use xlink:href="#m6f1eb906ff" x="73.111526" y="189.783755" style="fill: #1f77b4; stroke: #1f77b4"/>
     <use xlink:href="#m6f1eb906ff" x="77.891404" y="220.272097" style="fill: #1f77b4; stroke: #1f77b4"/>
     <use xlink:href="#m6f1eb906ff" x="82.671283" y="219.081579" style="fill: #1f77b4; stroke: #1f77b4"/>
     <use xlink:href="#m6f1eb906ff" x="87.451161" y="215.804932" style="fill: #1f77b4; stroke: #1f77b4"/>
     <use xlink:href="#m6f1eb906ff" x="92.231039" y="218.078149" style="fill: #1f77b4; stroke: #1f77b4"/>
     <use xlink:href="#m6f1eb906ff" x="97.010918" y="219.04295" style="fill: #1f77b4; stroke: #1f77b4"/>
     <use xlink:href="#m6f1eb906ff" x="101.790796" y="215.370515" style="fill: #1f77b4; stroke: #1f77b4"/>
     <use xlink:href="#m6f1eb906ff" x="106.570674" y="215.299575" style="fill: #1f77b4; stroke: #1f77b4"/>
     <use xlink:href="#m6f1eb906ff" x="111.350553" y="183.52828" style="fill: #1f77b4; stroke: #1f77b4"/>
     <use xlink:href="#m6f1eb906ff" x="116.130431" y="214.69391" style="fill: #1f77b4; stroke: #1f77b4"/>
     <use xlink:href="#m6f1eb906ff" x="120.910309" y="216.187224" style="fill: #1f77b4; stroke: #1f77b4"/>
     <use xlink:href="#m6f1eb906ff" x="125.690188" y="211.474846" style="fill: #1f77b4; stroke: #1f77b4"/>
     <use xlink:href="#m6f1eb906ff" x="130.470066" y="216.729669" style="fill: #1f77b4; stroke: #1f77b4"/>
     <use xlink:href="#m6f1eb906ff" x="135.249944" y="223.157958" style="fill: #1f77b4; stroke: #1f77b4"/>
     <use xlink:href="#m6f1eb906ff" x="140.029823" y="221.278668" style="fill: #1f77b4; stroke: #1f77b4"/>
     <use xlink:href="#m6f1eb906ff" x="144.809701" y="222.815683" style="fill: #1f77b4; stroke: #1f77b4"/>
     <use xlink:href="#m6f1eb906ff" x="149.589579" y="224.063114" style="fill: #1f77b4; stroke: #1f77b4"/>
     <use xlink:href="#m6f1eb906ff" x="154.369458" y="223.701873" style="fill: #1f77b4; stroke: #1f77b4"/>
     <use xlink:href="#m6f1eb906ff" x="159.149336" y="218.119637" style="fill: #1f77b4; stroke: #1f77b4"/>
     <use xlink:href="#m6f1eb906ff" x="163.929214" y="219.837974" style="fill: #1f77b4; stroke: #1f77b4"/>
     <use xlink:href="#m6f1eb906ff" x="168.709093" y="221.145401" style="fill: #1f77b4; stroke: #1f77b4"/>
     <use xlink:href="#m6f1eb906ff" x="173.488971" y="223.083441" style="fill: #1f77b4; stroke: #1f77b4"/>
     <use xlink:href="#m6f1eb906ff" x="178.268849" y="189.643923" style="fill: #1f77b4; stroke: #1f77b4"/>
     <use xlink:href="#m6f1eb906ff" x="183.048728" y="225.176795" style="fill: #1f77b4; stroke: #1f77b4"/>
     <use xlink:href="#m6f1eb906ff" x="187.828606" y="223.444351" style="fill: #1f77b4; stroke: #1f77b4"/>
     <use xlink:href="#m6f1eb906ff" x="192.608484" y="224.034286" style="fill: #1f77b4; stroke: #1f77b4"/>
     <use xlink:href="#m6f1eb906ff" x="197.388363" y="188.224926" style="fill: #1f77b4; stroke: #1f77b4"/>
     <use xlink:href="#m6f1eb906ff" x="202.168241" y="225.365589" style="fill: #1f77b4; stroke: #1f77b4"/>
     <use xlink:href="#m6f1eb906ff" x="206.948119" y="219.067013" style="fill: #1f77b4; stroke: #1f77b4"/>
     <use xlink:href="#m6f1eb906ff" x="211.727998" y="225.373071" style="fill: #1f77b4; stroke: #1f77b4"/>
     <use xlink:href="#m6f1eb906ff" x="216.507876" y="215.237801" style="fill: #1f77b4; stroke: #1f77b4"/>
     <use xlink:href="#m6f1eb906ff" x="221.287754" y="221.318332" style="fill: #1f77b4; stroke: #1f77b4"/>
     <use xlink:href="#m6f1eb906ff" x="226.067633" y="223.399416" style="fill: #1f77b4; stroke: #1f77b4"/>
     <use xlink:href="#m6f1eb906ff" x="230.847511" y="217.959945" style="fill: #1f77b4; stroke: #1f77b4"/>
     <use xlink:href="#m6f1eb906ff" x="235.627389" y="219.813488" style="fill: #1f77b4; stroke: #1f77b4"/>
     <use xlink:href="#m6f1eb906ff" x="240.407268" y="220.896224" style="fill: #1f77b4; stroke: #1f77b4"/>
     <use xlink:href="#m6f1eb906ff" x="245.187146" y="210.832411" style="fill: #1f77b4; stroke: #1f77b4"/>
     <use xlink:href="#m6f1eb906ff" x="249.967024" y="218.620935" style="fill: #1f77b4; stroke: #1f77b4"/>
     <use xlink:href="#m6f1eb906ff" x="254.746903" y="216.328692" style="fill: #1f77b4; stroke: #1f77b4"/>
     <use xlink:href="#m6f1eb906ff" x="259.526781" y="216.446816" style="fill: #1f77b4; stroke: #1f77b4"/>
     <use xlink:href="#m6f1eb906ff" x="264.306659" y="181.085721" style="fill: #1f77b4; stroke: #1f77b4"/>
     <use xlink:href="#m6f1eb906ff" x="269.086538" y="216.417564" style="fill: #1f77b4; stroke: #1f77b4"/>
     <use xlink:href="#m6f1eb906ff" x="273.866416" y="214.719973" style="fill: #1f77b4; stroke: #1f77b4"/>
     <use xlink:href="#m6f1eb906ff" x="278.646294" y="210.123765" style="fill: #1f77b4; stroke: #1f77b4"/>
     <use xlink:href="#m6f1eb906ff" x="283.426173" y="207.118652" style="fill: #1f77b4; stroke: #1f77b4"/>
     <use xlink:href="#m6f1eb906ff" x="288.206051" y="210.667963" style="fill: #1f77b4; stroke: #1f77b4"/>
     <use xlink:href="#m6f1eb906ff" x="292.985929" y="209.038593" style="fill: #1f77b4; stroke: #1f77b4"/>
     <use xlink:href="#m6f1eb906ff" x="297.765808" y="211.12929" style="fill: #1f77b4; stroke: #1f77b4"/>
     <use xlink:href="#m6f1eb906ff" x="302.545686" y="211.959412" style="fill: #1f77b4; stroke: #1f77b4"/>
     <use xlink:href="#m6f1eb906ff" x="307.325564" y="218.032684" style="fill: #1f77b4; stroke: #1f77b4"/>
     <use xlink:href="#m6f1eb906ff" x="312.105442" y="215.414756" style="fill: #1f77b4; stroke: #1f77b4"/>
     <use xlink:href="#m6f1eb906ff" x="316.885321" y="221.128174" style="fill: #1f77b4; stroke: #1f77b4"/>
     <use xlink:href="#m6f1eb906ff" x="321.665199" y="225.345738" style="fill: #1f77b4; stroke: #1f77b4"/>
     <use xlink:href="#m6f1eb906ff" x="326.445077" y="224.862503" style="fill: #1f77b4; stroke: #1f77b4"/>
     <use xlink:href="#m6f1eb906ff" x="331.224956" y="219.64131" style="fill: #1f77b4; stroke: #1f77b4"/>
     <use xlink:href="#m6f1eb906ff" x="336.004834" y="216.663306" style="fill: #1f77b4; stroke: #1f77b4"/>
     <use xlink:href="#m6f1eb906ff" x="340.784712" y="221.487347" style="fill: #1f77b4; stroke: #1f77b4"/>
     <use xlink:href="#m6f1eb906ff" x="345.564591" y="213.326872" style="fill: #1f77b4; stroke: #1f77b4"/>
     <use xlink:href="#m6f1eb906ff" x="350.344469" y="172.46" style="fill: #1f77b4; stroke: #1f77b4"/>
     <use xlink:href="#m6f1eb906ff" x="355.124347" y="222.818826" style="fill: #1f77b4; stroke: #1f77b4"/>
     <use xlink:href="#m6f1eb906ff" x="359.904226" y="223.682399" style="fill: #1f77b4; stroke: #1f77b4"/>
     <use xlink:href="#m6f1eb906ff" x="364.684104" y="209.771808" style="fill: #1f77b4; stroke: #1f77b4"/>
     <use xlink:href="#m6f1eb906ff" x="369.463982" y="223.228262" style="fill: #1f77b4; stroke: #1f77b4"/>
     <use xlink:href="#m6f1eb906ff" x="374.243861" y="192.432086" style="fill: #1f77b4; stroke: #1f77b4"/>
     <use xlink:href="#m6f1eb906ff" x="379.023739" y="223.518564" style="fill: #1f77b4; stroke: #1f77b4"/>
     <use xlink:href="#m6f1eb906ff" x="383.803617" y="223.879359" style="fill: #1f77b4; stroke: #1f77b4"/>
     <use xlink:href="#m6f1eb906ff" x="388.583496" y="222.642329" style="fill: #1f77b4; stroke: #1f77b4"/>
     <use xlink:href="#m6f1eb906ff" x="393.363374" y="221.156663" style="fill: #1f77b4; stroke: #1f77b4"/>
     <use xlink:href="#m6f1eb906ff" x="398.143252" y="220.116874" style="fill: #1f77b4; stroke: #1f77b4"/>
     <use xlink:href="#m6f1eb906ff" x="402.923131" y="220.260259" style="fill: #1f77b4; stroke: #1f77b4"/>
     <use xlink:href="#m6f1eb906ff" x="407.703009" y="220.954514" style="fill: #1f77b4; stroke: #1f77b4"/>
     <use xlink:href="#m6f1eb906ff" x="412.482887" y="219.799767" style="fill: #1f77b4; stroke: #1f77b4"/>
     <use xlink:href="#m6f1eb906ff" x="417.262766" y="220.989449" style="fill: #1f77b4; stroke: #1f77b4"/>
     <use xlink:href="#m6f1eb906ff" x="422.042644" y="221.430986" style="fill: #1f77b4; stroke: #1f77b4"/>
     <use xlink:href="#m6f1eb906ff" x="426.822522" y="217.066329" style="fill: #1f77b4; stroke: #1f77b4"/>
     <use xlink:href="#m6f1eb906ff" x="431.602401" y="177.527327" style="fill: #1f77b4; stroke: #1f77b4"/>
     <use xlink:href="#m6f1eb906ff" x="436.382279" y="220.285475" style="fill: #1f77b4; stroke: #1f77b4"/>
     <use xlink:href="#m6f1eb906ff" x="441.162157" y="216.47196" style="fill: #1f77b4; stroke: #1f77b4"/>
     <use xlink:href="#m6f1eb906ff" x="445.942036" y="214.32848" style="fill: #1f77b4; stroke: #1f77b4"/>
     <use xlink:href="#m6f1eb906ff" x="450.721914" y="212.454214" style="fill: #1f77b4; stroke: #1f77b4"/>
     <use xlink:href="#m6f1eb906ff" x="455.501792" y="211.778068" style="fill: #1f77b4; stroke: #1f77b4"/>
     <use xlink:href="#m6f1eb906ff" x="460.281671" y="209.31847" style="fill: #1f77b4; stroke: #1f77b4"/>
     <use xlink:href="#m6f1eb906ff" x="465.061549" y="210.722984" style="fill: #1f77b4; stroke: #1f77b4"/>
     <use xlink:href="#m6f1eb906ff" x="469.841427" y="210.005078" style="fill: #1f77b4; stroke: #1f77b4"/>
     <use xlink:href="#m6f1eb906ff" x="474.621306" y="209.466562" style="fill: #1f77b4; stroke: #1f77b4"/>
     <use xlink:href="#m6f1eb906ff" x="479.401184" y="210.433669" style="fill: #1f77b4; stroke: #1f77b4"/>
     <use xlink:href="#m6f1eb906ff" x="484.181062" y="210.213649" style="fill: #1f77b4; stroke: #1f77b4"/>
     <use xlink:href="#m6f1eb906ff" x="488.960941" y="183.418665" style="fill: #1f77b4; stroke: #1f77b4"/>
     <use xlink:href="#m6f1eb906ff" x="493.740819" y="212.935509" style="fill: #1f77b4; stroke: #1f77b4"/>
     <use xlink:href="#m6f1eb906ff" x="498.520697" y="216.705666" style="fill: #1f77b4; stroke: #1f77b4"/>
     <use xlink:href="#m6f1eb906ff" x="503.300576" y="215.548907" style="fill: #1f77b4; stroke: #1f77b4"/>
     <use xlink:href="#m6f1eb906ff" x="508.080454" y="214.337491" style="fill: #1f77b4; stroke: #1f77b4"/>
     <use xlink:href="#m6f1eb906ff" x="512.860332" y="215.091804" style="fill: #1f77b4; stroke: #1f77b4"/>
     <use xlink:href="#m6f1eb906ff" x="517.640211" y="216.277884" style="fill: #1f77b4; stroke: #1f77b4"/>
     <use xlink:href="#m6f1eb906ff" x="522.420089" y="199.942146" style="fill: #1f77b4; stroke: #1f77b4"/>
     <use xlink:href="#m6f1eb906ff" x="527.199967" y="196.869565" style="fill: #1f77b4; stroke: #1f77b4"/>
     <use xlink:href="#m6f1eb906ff" x="531.979846" y="215.57491" style="fill: #1f77b4; stroke: #1f77b4"/>
     <use xlink:href="#m6f1eb906ff" x="536.759724" y="213.159143" style="fill: #1f77b4; stroke: #1f77b4"/>
     <use xlink:href="#m6f1eb906ff" x="541.539602" y="215.810085" style="fill: #1f77b4; stroke: #1f77b4"/>
    </g>
   </g>
   <g id="line2d_28">
    <path d="M 68.331648 226.800918 
L 73.111526 221.539813 
L 77.891404 183.551636 
L 82.671283 218.40268 
L 87.451161 217.045644 
L 92.231039 213.487425 
L 97.010918 215.250945 
L 101.790796 214.424389 
L 106.570674 210.775436 
L 111.350553 214.02254 
L 116.130431 214.589764 
L 120.910309 214.240549 
L 125.690188 218.285604 
L 130.470066 214.112505 
L 135.249944 220.889387 
L 140.029823 221.121727 
L 144.809701 216.099717 
L 149.589579 223.194069 
L 154.369458 210.179221 
L 159.149336 219.443281 
L 163.929214 220.951821 
L 168.709093 222.770159 
L 173.488971 218.189412 
L 178.268849 223.407006 
L 183.048728 223.534424 
L 187.828606 221.812959 
L 192.608484 222.030086 
L 197.388363 222.516428 
L 202.168241 222.934983 
L 206.948119 222.435263 
L 211.727998 224.076798 
L 216.507876 217.799566 
L 221.287754 221.342726 
L 226.067633 221.231803 
L 230.847511 220.515474 
L 235.627389 217.98742 
L 240.407268 215.132926 
L 245.187146 216.43673 
L 249.967024 220.419178 
L 254.746903 216.633185 
L 259.526781 213.859551 
L 264.306659 206.38372 
L 269.086538 193.561969 
L 273.866416 207.935737 
L 278.646294 202.979816 
L 283.426173 209.358711 
L 288.206051 203.849957 
L 292.985929 210.000759 
L 297.765808 212.983821 
L 302.545686 213.01311 
L 307.325564 215.87326 
L 312.105442 222.457807 
L 316.885321 224.13823 
L 321.665199 222.95441 
L 326.445077 222.407576 
L 331.224956 221.790839 
L 336.004834 221.720581 
L 340.784712 221.216942 
L 345.564591 220.657918 
L 350.344469 221.495453 
L 355.124347 222.369475 
L 359.904226 190.65267 
L 364.684104 220.395914 
L 369.463982 216.883667 
L 374.243861 221.99934 
L 379.023739 213.305528 
L 383.803617 218.71222 
L 388.583496 214.458405 
L 393.363374 219.114207 
L 398.143252 217.829959 
L 402.923131 218.990565 
L 407.703009 219.948826 
L 412.482887 218.247352 
L 417.262766 211.143338 
L 422.042644 215.714354 
L 426.822522 180.877451 
L 431.602401 218.532522 
L 436.382279 217.919892 
L 441.162157 214.309053 
L 445.942036 204.100689 
L 450.721914 210.606555 
L 455.501792 209.676357 
L 460.281671 205.85509 
L 465.061549 204.312543 
L 469.841427 208.280047 
L 474.621306 203.956622 
L 479.401184 205.515227 
L 484.181062 191.868638 
L 488.960941 206.015666 
L 493.740819 209.099474 
L 498.520697 215.017487 
L 503.300576 213.918019 
L 508.080454 210.753975 
L 512.860332 213.546705 
L 517.640211 210.654584 
L 522.420089 214.475983 
L 527.199967 213.363549 
L 531.979846 205.539018 
L 536.759724 179.933481 
L 541.539602 207.741756 
" clip-path="url(#p0243f660bb)" style="fill: none; stroke: #ff7f0e; stroke-width: 1.2; stroke-linecap: square"/>
    <defs>
     <path id="m050c15adf5" d="M 0 1.25 
C 0.331504 1.25 0.649475 1.118292 0.883883 0.883883 
C 1.118292 0.649475 1.25 0.331504 1.25 0 
C 1.25 -0.331504 1.118292 -0.649475 0.883883 -0.883883 
C 0.649475 -1.118292 0.331504 -1.25 0 -1.25 
C -0.331504 -1.25 -0.649475 -1.118292 -0.883883 -0.883883 
C -1.118292 -0.649475 -1.25 -0.331504 -1.25 0 
C -1.25 0.331504 -1.118292 0.649475 -0.883883 0.883883 
C -0.649475 1.118292 -0.331504 1.25 0 1.25 
z
" style="stroke: #ff7f0e"/>
    </defs>
    <g clip-path="url(#p0243f660bb)">
     <use xlink:href="#m050c15adf5" x="68.331648" y="226.800918" style="fill: #ff7f0e; stroke: #ff7f0e"/>
     <use xlink:href="#m050c15adf5" x="73.111526" y="221.539813" style="fill: #ff7f0e; stroke: #ff7f0e"/>
     <use xlink:href="#m050c15adf5" x="77.891404" y="183.551636" style="fill: #ff7f0e; stroke: #ff7f0e"/>
     <use xlink:href="#m050c15adf5" x="82.671283" y="218.40268" style="fill: #ff7f0e; stroke: #ff7f0e"/>
     <use xlink:href="#m050c15adf5" x="87.451161" y="217.045644" style="fill: #ff7f0e; stroke: #ff7f0e"/>
     <use xlink:href="#m050c15adf5" x="92.231039" y="213.487425" style="fill: #ff7f0e; stroke: #ff7f0e"/>
     <use xlink:href="#m050c15adf5" x="97.010918" y="215.250945" style="fill: #ff7f0e; stroke: #ff7f0e"/>
     <use xlink:href="#m050c15adf5" x="101.790796" y="214.424389" style="fill: #ff7f0e; stroke: #ff7f0e"/>
     <use xlink:href="#m050c15adf5" x="106.570674" y="210.775436" style="fill: #ff7f0e; stroke: #ff7f0e"/>
     <use xlink:href="#m050c15adf5" x="111.350553" y="214.02254" style="fill: #ff7f0e; stroke: #ff7f0e"/>
     <use xlink:href="#m050c15adf5" x="116.130431" y="214.589764" style="fill: #ff7f0e; stroke: #ff7f0e"/>
     <use xlink:href="#m050c15adf5" x="120.910309" y="214.240549" style="fill: #ff7f0e; stroke: #ff7f0e"/>
     <use xlink:href="#m050c15adf5" x="125.690188" y="218.285604" style="fill: #ff7f0e; stroke: #ff7f0e"/>
     <use xlink:href="#m050c15adf5" x="130.470066" y="214.112505" style="fill: #ff7f0e; stroke: #ff7f0e"/>
     <use xlink:href="#m050c15adf5" x="135.249944" y="220.889387" style="fill: #ff7f0e; stroke: #ff7f0e"/>
     <use xlink:href="#m050c15adf5" x="140.029823" y="221.121727" style="fill: #ff7f0e; stroke: #ff7f0e"/>
     <use xlink:href="#m050c15adf5" x="144.809701" y="216.099717" style="fill: #ff7f0e; stroke: #ff7f0e"/>
     <use xlink:href="#m050c15adf5" x="149.589579" y="223.194069" style="fill: #ff7f0e; stroke: #ff7f0e"/>
     <use xlink:href="#m050c15adf5" x="154.369458" y="210.179221" style="fill: #ff7f0e; stroke: #ff7f0e"/>
     <use xlink:href="#m050c15adf5" x="159.149336" y="219.443281" style="fill: #ff7f0e; stroke: #ff7f0e"/>
     <use xlink:href="#m050c15adf5" x="163.929214" y="220.951821" style="fill: #ff7f0e; stroke: #ff7f0e"/>
     <use xlink:href="#m050c15adf5" x="168.709093" y="222.770159" style="fill: #ff7f0e; stroke: #ff7f0e"/>
     <use xlink:href="#m050c15adf5" x="173.488971" y="218.189412" style="fill: #ff7f0e; stroke: #ff7f0e"/>
     <use xlink:href="#m050c15adf5" x="178.268849" y="223.407006" style="fill: #ff7f0e; stroke: #ff7f0e"/>
     <use xlink:href="#m050c15adf5" x="183.048728" y="223.534424" style="fill: #ff7f0e; stroke: #ff7f0e"/>
     <use xlink:href="#m050c15adf5" x="187.828606" y="221.812959" style="fill: #ff7f0e; stroke: #ff7f0e"/>
     <use xlink:href="#m050c15adf5" x="192.608484" y="222.030086" style="fill: #ff7f0e; stroke: #ff7f0e"/>
     <use xlink:href="#m050c15adf5" x="197.388363" y="222.516428" style="fill: #ff7f0e; stroke: #ff7f0e"/>
     <use xlink:href="#m050c15adf5" x="202.168241" y="222.934983" style="fill: #ff7f0e; stroke: #ff7f0e"/>
     <use xlink:href="#m050c15adf5" x="206.948119" y="222.435263" style="fill: #ff7f0e; stroke: #ff7f0e"/>
     <use xlink:href="#m050c15adf5" x="211.727998" y="224.076798" style="fill: #ff7f0e; stroke: #ff7f0e"/>
     <use xlink:href="#m050c15adf5" x="216.507876" y="217.799566" style="fill: #ff7f0e; stroke: #ff7f0e"/>
     <use xlink:href="#m050c15adf5" x="221.287754" y="221.342726" style="fill: #ff7f0e; stroke: #ff7f0e"/>
     <use xlink:href="#m050c15adf5" x="226.067633" y="221.231803" style="fill: #ff7f0e; stroke: #ff7f0e"/>
     <use xlink:href="#m050c15adf5" x="230.847511" y="220.515474" style="fill: #ff7f0e; stroke: #ff7f0e"/>
     <use xlink:href="#m050c15adf5" x="235.627389" y="217.98742" style="fill: #ff7f0e; stroke: #ff7f0e"/>
     <use xlink:href="#m050c15adf5" x="240.407268" y="215.132926" style="fill: #ff7f0e; stroke: #ff7f0e"/>
     <use xlink:href="#m050c15adf5" x="245.187146" y="216.43673" style="fill: #ff7f0e; stroke: #ff7f0e"/>
     <use xlink:href="#m050c15adf5" x="249.967024" y="220.419178" style="fill: #ff7f0e; stroke: #ff7f0e"/>
     <use xlink:href="#m050c15adf5" x="254.746903" y="216.633185" style="fill: #ff7f0e; stroke: #ff7f0e"/>
     <use xlink:href="#m050c15adf5" x="259.526781" y="213.859551" style="fill: #ff7f0e; stroke: #ff7f0e"/>
     <use xlink:href="#m050c15adf5" x="264.306659" y="206.38372" style="fill: #ff7f0e; stroke: #ff7f0e"/>
     <use xlink:href="#m050c15adf5" x="269.086538" y="193.561969" style="fill: #ff7f0e; stroke: #ff7f0e"/>
     <use xlink:href="#m050c15adf5" x="273.866416" y="207.935737" style="fill: #ff7f0e; stroke: #ff7f0e"/>
     <use xlink:href="#m050c15adf5" x="278.646294" y="202.979816" style="fill: #ff7f0e; stroke: #ff7f0e"/>
     <use xlink:href="#m050c15adf5" x="283.426173" y="209.358711" style="fill: #ff7f0e; stroke: #ff7f0e"/>
     <use xlink:href="#m050c15adf5" x="288.206051" y="203.849957" style="fill: #ff7f0e; stroke: #ff7f0e"/>
     <use xlink:href="#m050c15adf5" x="292.985929" y="210.000759" style="fill: #ff7f0e; stroke: #ff7f0e"/>
     <use xlink:href="#m050c15adf5" x="297.765808" y="212.983821" style="fill: #ff7f0e; stroke: #ff7f0e"/>
     <use xlink:href="#m050c15adf5" x="302.545686" y="213.01311" style="fill: #ff7f0e; stroke: #ff7f0e"/>
     <use xlink:href="#m050c15adf5" x="307.325564" y="215.87326" style="fill: #ff7f0e; stroke: #ff7f0e"/>
     <use xlink:href="#m050c15adf5" x="312.105442" y="222.457807" style="fill: #ff7f0e; stroke: #ff7f0e"/>
     <use xlink:href="#m050c15adf5" x="316.885321" y="224.13823" style="fill: #ff7f0e; stroke: #ff7f0e"/>
     <use xlink:href="#m050c15adf5" x="321.665199" y="222.95441" style="fill: #ff7f0e; stroke: #ff7f0e"/>
     <use xlink:href="#m050c15adf5" x="326.445077" y="222.407576" style="fill: #ff7f0e; stroke: #ff7f0e"/>
     <use xlink:href="#m050c15adf5" x="331.224956" y="221.790839" style="fill: #ff7f0e; stroke: #ff7f0e"/>
     <use xlink:href="#m050c15adf5" x="336.004834" y="221.720581" style="fill: #ff7f0e; stroke: #ff7f0e"/>
     <use xlink:href="#m050c15adf5" x="340.784712" y="221.216942" style="fill: #ff7f0e; stroke: #ff7f0e"/>
     <use xlink:href="#m050c15adf5" x="345.564591" y="220.657918" style="fill: #ff7f0e; stroke: #ff7f0e"/>
     <use xlink:href="#m050c15adf5" x="350.344469" y="221.495453" style="fill: #ff7f0e; stroke: #ff7f0e"/>
     <use xlink:href="#m050c15adf5" x="355.124347" y="222.369475" style="fill: #ff7f0e; stroke: #ff7f0e"/>
     <use xlink:href="#m050c15adf5" x="359.904226" y="190.65267" style="fill: #ff7f0e; stroke: #ff7f0e"/>
     <use xlink:href="#m050c15adf5" x="364.684104" y="220.395914" style="fill: #ff7f0e; stroke: #ff7f0e"/>
     <use xlink:href="#m050c15adf5" x="369.463982" y="216.883667" style="fill: #ff7f0e; stroke: #ff7f0e"/>
     <use xlink:href="#m050c15adf5" x="374.243861" y="221.99934" style="fill: #ff7f0e; stroke: #ff7f0e"/>
     <use xlink:href="#m050c15adf5" x="379.023739" y="213.305528" style="fill: #ff7f0e; stroke: #ff7f0e"/>
     <use xlink:href="#m050c15adf5" x="383.803617" y="218.71222" style="fill: #ff7f0e; stroke: #ff7f0e"/>
     <use xlink:href="#m050c15adf5" x="388.583496" y="214.458405" style="fill: #ff7f0e; stroke: #ff7f0e"/>
     <use xlink:href="#m050c15adf5" x="393.363374" y="219.114207" style="fill: #ff7f0e; stroke: #ff7f0e"/>
     <use xlink:href="#m050c15adf5" x="398.143252" y="217.829959" style="fill: #ff7f0e; stroke: #ff7f0e"/>
     <use xlink:href="#m050c15adf5" x="402.923131" y="218.990565" style="fill: #ff7f0e; stroke: #ff7f0e"/>
     <use xlink:href="#m050c15adf5" x="407.703009" y="219.948826" style="fill: #ff7f0e; stroke: #ff7f0e"/>
     <use xlink:href="#m050c15adf5" x="412.482887" y="218.247352" style="fill: #ff7f0e; stroke: #ff7f0e"/>
     <use xlink:href="#m050c15adf5" x="417.262766" y="211.143338" style="fill: #ff7f0e; stroke: #ff7f0e"/>
     <use xlink:href="#m050c15adf5" x="422.042644" y="215.714354" style="fill: #ff7f0e; stroke: #ff7f0e"/>
     <use xlink:href="#m050c15adf5" x="426.822522" y="180.877451" style="fill: #ff7f0e; stroke: #ff7f0e"/>
     <use xlink:href="#m050c15adf5" x="431.602401" y="218.532522" style="fill: #ff7f0e; stroke: #ff7f0e"/>
     <use xlink:href="#m050c15adf5" x="436.382279" y="217.919892" style="fill: #ff7f0e; stroke: #ff7f0e"/>
     <use xlink:href="#m050c15adf5" x="441.162157" y="214.309053" style="fill: #ff7f0e; stroke: #ff7f0e"/>
     <use xlink:href="#m050c15adf5" x="445.942036" y="204.100689" style="fill: #ff7f0e; stroke: #ff7f0e"/>
     <use xlink:href="#m050c15adf5" x="450.721914" y="210.606555" style="fill: #ff7f0e; stroke: #ff7f0e"/>
     <use xlink:href="#m050c15adf5" x="455.501792" y="209.676357" style="fill: #ff7f0e; stroke: #ff7f0e"/>
     <use xlink:href="#m050c15adf5" x="460.281671" y="205.85509" style="fill: #ff7f0e; stroke: #ff7f0e"/>
     <use xlink:href="#m050c15adf5" x="465.061549" y="204.312543" style="fill: #ff7f0e; stroke: #ff7f0e"/>
     <use xlink:href="#m050c15adf5" x="469.841427" y="208.280047" style="fill: #ff7f0e; stroke: #ff7f0e"/>
     <use xlink:href="#m050c15adf5" x="474.621306" y="203.956622" style="fill: #ff7f0e; stroke: #ff7f0e"/>
     <use xlink:href="#m050c15adf5" x="479.401184" y="205.515227" style="fill: #ff7f0e; stroke: #ff7f0e"/>
     <use xlink:href="#m050c15adf5" x="484.181062" y="191.868638" style="fill: #ff7f0e; stroke: #ff7f0e"/>
     <use xlink:href="#m050c15adf5" x="488.960941" y="206.015666" style="fill: #ff7f0e; stroke: #ff7f0e"/>
     <use xlink:href="#m050c15adf5" x="493.740819" y="209.099474" style="fill: #ff7f0e; stroke: #ff7f0e"/>
     <use xlink:href="#m050c15adf5" x="498.520697" y="215.017487" style="fill: #ff7f0e; stroke: #ff7f0e"/>
     <use xlink:href="#m050c15adf5" x="503.300576" y="213.918019" style="fill: #ff7f0e; stroke: #ff7f0e"/>
     <use xlink:href="#m050c15adf5" x="508.080454" y="210.753975" style="fill: #ff7f0e; stroke: #ff7f0e"/>
     <use xlink:href="#m050c15adf5" x="512.860332" y="213.546705" style="fill: #ff7f0e; stroke: #ff7f0e"/>
     <use xlink:href="#m050c15adf5" x="517.640211" y="210.654584" style="fill: #ff7f0e; stroke: #ff7f0e"/>
     <use xlink:href="#m050c15adf5" x="522.420089" y="214.475983" style="fill: #ff7f0e; stroke: #ff7f0e"/>
     <use xlink:href="#m050c15adf5" x="527.199967" y="213.363549" style="fill: #ff7f0e; stroke: #ff7f0e"/>
     <use xlink:href="#m050c15adf5" x="531.979846" y="205.539018" style="fill: #ff7f0e; stroke: #ff7f0e"/>
     <use xlink:href="#m050c15adf5" x="536.759724" y="179.933481" style="fill: #ff7f0e; stroke: #ff7f0e"/>
     <use xlink:href="#m050c15adf5" x="541.539602" y="207.741756" style="fill: #ff7f0e; stroke: #ff7f0e"/>
    </g>
   </g>
   <g id="patch_3">
    <path d="M 44.67125 318.04 
L 44.67125 26.88 
" style="fill: none; stroke: #000000; stroke-width: 0.8; stroke-linejoin: miter; stroke-linecap: square"/>
   </g>
   <g id="patch_4">
    <path d="M 565.2 318.04 
L 565.2 26.88 
" style="fill: none; stroke: #000000; stroke-width: 0.8; stroke-linejoin: miter; stroke-linecap: square"/>
   </g>
   <g id="patch_5">
    <path d="M 44.67125 318.04 
L 565.2 318.04 
" style="fill: none; stroke: #000000; stroke-width: 0.8; stroke-linejoin: miter; stroke-linecap: square"/>
   </g>
   <g id="patch_6">
    <path d="M 44.67125 26.88 
L 565.2 26.88 
" style="fill: none; stroke: #000000; stroke-width: 0.8; stroke-linejoin: miter; stroke-linecap: square"/>
   </g>
   <g id="text_16">
    <!-- Verification latency vs draft length, context_len=2048 -->
    <g transform="translate(142.553125 20.88) scale(0.12 -0.12)">
     <defs>
      <path id="DejaVuSans-56" d="M 1831 0 
L 50 4666 
L 709 4666 
L 2188 738 
L 3669 4666 
L 4325 4666 
L 2547 0 
L 1831 0 
z
" transform="scale(0.015625)"/>
      <path id="DejaVuSans-69" d="M 603 3500 
L 1178 3500 
L 1178 0 
L 603 0 
L 603 3500 
z
M 603 4863 
L 1178 4863 
L 1178 4134 
L 603 4134 
L 603 4863 
z
" transform="scale(0.015625)"/>
      <path id="DejaVuSans-6f" d="M 1959 3097 
Q 1497 3097 1228 2736 
Q 959 2375 959 1747 
Q 959 1119 1226 758 
Q 1494 397 1959 397 
Q 2419 397 2687 759 
Q 2956 1122 2956 1747 
Q 2956 2369 2687 2733 
Q 2419 3097 1959 3097 
z
M 1959 3584 
Q 2709 3584 3137 3096 
Q 3566 2609 3566 1747 
Q 3566 888 3137 398 
Q 2709 -91 1959 -91 
Q 1206 -91 779 398 
Q 353 888 353 1747 
Q 353 2609 779 3096 
Q 1206 3584 1959 3584 
z
" transform="scale(0.015625)"/>
      <path id="DejaVuSans-79" d="M 2059 -325 
Q 1816 -950 1584 -1140 
Q 1353 -1331 966 -1331 
L 506 -1331 
L 506 -850 
L 844 -850 
Q 1081 -850 1212 -737 
Q 1344 -625 1503 -206 
L 1606 56 
L 191 3500 
L 800 3500 
L 1894 763 
L 2988 3500 
L 3597 3500 
L 2059 -325 
z
" transform="scale(0.015625)"/>
      <path id="DejaVuSans-76" d="M 191 3500 
L 800 3500 
L 1894 563 
L 2988 3500 
L 3597 3500 
L 2284 0 
L 1503 0 
L 191 3500 
z
" transform="scale(0.015625)"/>
      <path id="DejaVuSans-2c" d="M 750 794 
L 1409 794 
L 1409 256 
L 897 -744 
L 494 -744 
L 750 256 
L 750 794 
z
" transform="scale(0.015625)"/>
      <path id="DejaVuSans-78" d="M 3513 3500 
L 2247 1797 
L 3578 0 
L 2900 0 
L 1881 1375 
L 863 0 
L 184 0 
L 1544 1831 
L 300 3500 
L 978 3500 
L 1906 2253 
L 2834 3500 
L 3513 3500 
z
" transform="scale(0.015625)"/>
      <path id="DejaVuSans-3d" d="M 678 2906 
L 4684 2906 
L 4684 2381 
L 678 2381 
L 678 2906 
z
M 678 1631 
L 4684 1631 
L 4684 1100 
L 678 1100 
L 678 1631 
z
" transform="scale(0.015625)"/>
     </defs>
     <use xlink:href="#DejaVuSans-56"/>
     <use xlink:href="#DejaVuSans-65" transform="translate(60.658203 0)"/>
     <use xlink:href="#DejaVuSans-72" transform="translate(122.181641 0)"/>
     <use xlink:href="#DejaVuSans-69" transform="translate(163.294922 0)"/>
     <use xlink:href="#DejaVuSans-66" transform="translate(191.078125 0)"/>
     <use xlink:href="#DejaVuSans-69" transform="translate(226.283203 0)"/>
     <use xlink:href="#DejaVuSans-63" transform="translate(254.066406 0)"/>
     <use xlink:href="#DejaVuSans-61" transform="translate(309.046875 0)"/>
     <use xlink:href="#DejaVuSans-74" transform="translate(370.326172 0)"/>
     <use xlink:href="#DejaVuSans-69" transform="translate(409.535156 0)"/>
     <use xlink:href="#DejaVuSans-6f" transform="translate(437.318359 0)"/>
     <use xlink:href="#DejaVuSans-6e" transform="translate(498.5 0)"/>
     <use xlink:href="#DejaVuSans-20" transform="translate(561.878906 0)"/>
     <use xlink:href="#DejaVuSans-6c" transform="translate(593.666016 0)"/>
     <use xlink:href="#DejaVuSans-61" transform="translate(621.449219 0)"/>
     <use xlink:href="#DejaVuSans-74" transform="translate(682.728516 0)"/>
     <use xlink:href="#DejaVuSans-65" transform="translate(721.9375 0)"/>
     <use xlink:href="#DejaVuSans-6e" transform="translate(783.460938 0)"/>
     <use xlink:href="#DejaVuSans-63" transform="translate(846.839844 0)"/>
     <use xlink:href="#DejaVuSans-79" transform="translate(901.820312 0)"/>
     <use xlink:href="#DejaVuSans-20" transform="translate(961 0)"/>
     <use xlink:href="#DejaVuSans-76" transform="translate(992.787109 0)"/>
     <use xlink:href="#DejaVuSans-73" transform="translate(1051.966797 0)"/>
     <use xlink:href="#DejaVuSans-20" transform="translate(1104.066406 0)"/>
     <use xlink:href="#DejaVuSans-64" transform="translate(1135.853516 0)"/>
     <use xlink:href="#DejaVuSans-72" transform="translate(1199.330078 0)"/>
     <use xlink:href="#DejaVuSans-61" transform="translate(1240.443359 0)"/>
     <use xlink:href="#DejaVuSans-66" transform="translate(1301.722656 0)"/>
     <use xlink:href="#DejaVuSans-74" transform="translate(1335.177734 0)"/>
     <use xlink:href="#DejaVuSans-20" transform="translate(1374.386719 0)"/>
     <use xlink:href="#DejaVuSans-6c" transform="translate(1406.173828 0)"/>
     <use xlink:href="#DejaVuSans-65" transform="translate(1433.957031 0)"/>
     <use xlink:href="#DejaVuSans-6e" transform="translate(1495.480469 0)"/>
     <use xlink:href="#DejaVuSans-67" transform="translate(1558.859375 0)"/>
     <use xlink:href="#DejaVuSans-74" transform="translate(1622.335938 0)"/>
     <use xlink:href="#DejaVuSans-68" transform="translate(1661.544922 0)"/>
     <use xlink:href="#DejaVuSans-2c" transform="translate(1724.923828 0)"/>
     <use xlink:href="#DejaVuSans-20" transform="translate(1756.710938 0)"/>
     <use xlink:href="#DejaVuSans-63" transform="translate(1788.498047 0)"/>
     <use xlink:href="#DejaVuSans-6f" transform="translate(1843.478516 0)"/>
     <use xlink:href="#DejaVuSans-6e" transform="translate(1904.660156 0)"/>
     <use xlink:href="#DejaVuSans-74" transform="translate(1968.039062 0)"/>
     <use xlink:href="#DejaVuSans-65" transform="translate(2007.248047 0)"/>
     <use xlink:href="#DejaVuSans-78" transform="translate(2067.021484 0)"/>
     <use xlink:href="#DejaVuSans-74" transform="translate(2126.201172 0)"/>
     <use xlink:href="#DejaVuSans-5f" transform="translate(2165.410156 0)"/>
     <use xlink:href="#DejaVuSans-6c" transform="translate(2215.410156 0)"/>
     <use xlink:href="#DejaVuSans-65" transform="translate(2243.193359 0)"/>
     <use xlink:href="#DejaVuSans-6e" transform="translate(2304.716797 0)"/>
     <use xlink:href="#DejaVuSans-3d" transform="translate(2368.095703 0)"/>
     <use xlink:href="#DejaVuSans-32" transform="translate(2451.884766 0)"/>
     <use xlink:href="#DejaVuSans-30" transform="translate(2515.507812 0)"/>
     <use xlink:href="#DejaVuSans-34" transform="translate(2579.130859 0)"/>
     <use xlink:href="#DejaVuSans-38" transform="translate(2642.753906 0)"/>
    </g>
   </g>
   <g id="legend_1">
    <g id="patch_7">
     <path d="M 51.67125 64.7925 
L 195.649375 64.7925 
Q 197.649375 64.7925 197.649375 62.7925 
L 197.649375 33.88 
Q 197.649375 31.88 195.649375 31.88 
L 51.67125 31.88 
Q 49.67125 31.88 49.67125 33.88 
L 49.67125 62.7925 
Q 49.67125 64.7925 51.67125 64.7925 
z
" style="fill: #ffffff; opacity: 0.8; stroke: #cccccc; stroke-linejoin: miter"/>
    </g>
    <g id="line2d_29">
     <path d="M 53.67125 39.978437 
L 63.67125 39.978437 
L 73.67125 39.978437 
" style="fill: none; stroke: #1f77b4; stroke-width: 1.2; stroke-linecap: square"/>
     <g>
      <use xlink:href="#m6f1eb906ff" x="63.67125" y="39.978437" style="fill: #1f77b4; stroke: #1f77b4"/>
     </g>
    </g>
    <g id="text_17">
     <!-- target_only -->
     <g transform="translate(81.67125 43.478437) scale(0.1 -0.1)">
      <use xlink:href="#DejaVuSans-74"/>
      <use xlink:href="#DejaVuSans-61" transform="translate(39.208984 0)"/>
      <use xlink:href="#DejaVuSans-72" transform="translate(100.488281 0)"/>
      <use xlink:href="#DejaVuSans-67" transform="translate(139.851562 0)"/>
      <use xlink:href="#DejaVuSans-65" transform="translate(203.328125 0)"/>
      <use xlink:href="#DejaVuSans-74" transform="translate(264.851562 0)"/>
      <use xlink:href="#DejaVuSans-5f" transform="translate(304.060547 0)"/>
      <use xlink:href="#DejaVuSans-6f" transform="translate(354.060547 0)"/>
      <use xlink:href="#DejaVuSans-6e" transform="translate(415.242188 0)"/>
      <use xlink:href="#DejaVuSans-6c" transform="translate(478.621094 0)"/>
      <use xlink:href="#DejaVuSans-79" transform="translate(506.404297 0)"/>
     </g>
    </g>
    <g id="line2d_30">
     <path d="M 53.67125 54.934687 
L 63.67125 54.934687 
L 73.67125 54.934687 
" style="fill: none; stroke: #ff7f0e; stroke-width: 1.2; stroke-linecap: square"/>
     <g>
      <use xlink:href="#m050c15adf5" x="63.67125" y="54.934687" style="fill: #ff7f0e; stroke: #ff7f0e"/>
     </g>
    </g>
    <g id="text_18">
     <!-- classic_spec_sampling -->
     <g transform="translate(81.67125 58.434687) scale(0.1 -0.1)">
      <defs>
       <path id="DejaVuSans-70" d="M 1159 525 
L 1159 -1331 
L 581 -1331 
L 581 3500 
L 1159 3500 
L 1159 2969 
Q 1341 3281 1617 3432 
Q 1894 3584 2278 3584 
Q 2916 3584 3314 3078 
Q 3713 2572 3713 1747 
Q 3713 922 3314 415 
Q 2916 -91 2278 -91 
Q 1894 -91 1617 61 
Q 1341 213 1159 525 
z
M 3116 1747 
Q 3116 2381 2855 2742 
Q 2594 3103 2138 3103 
Q 1681 3103 1420 2742 
Q 1159 2381 1159 1747 
Q 1159 1113 1420 752 
Q 1681 391 2138 391 
Q 2594 391 2855 752 
Q 3116 1113 3116 1747 
z
" transform="scale(0.015625)"/>
      </defs>
      <use xlink:href="#DejaVuSans-63"/>
      <use xlink:href="#DejaVuSans-6c" transform="translate(54.980469 0)"/>
      <use xlink:href="#DejaVuSans-61" transform="translate(82.763672 0)"/>
      <use xlink:href="#DejaVuSans-73" transform="translate(144.042969 0)"/>
      <use xlink:href="#DejaVuSans-73" transform="translate(196.142578 0)"/>
      <use xlink:href="#DejaVuSans-69" transform="translate(248.242188 0)"/>
      <use xlink:href="#DejaVuSans-63" transform="translate(276.025391 0)"/>
      <use xlink:href="#DejaVuSans-5f" transform="translate(331.005859 0)"/>
      <use xlink:href="#DejaVuSans-73" transform="translate(381.005859 0)"/>
      <use xlink:href="#DejaVuSans-70" transform="translate(433.105469 0)"/>
      <use xlink:href="#DejaVuSans-65" transform="translate(496.582031 0)"/>
      <use xlink:href="#DejaVuSans-63" transform="translate(558.105469 0)"/>
      <use xlink:href="#DejaVuSans-5f" transform="translate(613.085938 0)"/>
      <use xlink:href="#DejaVuSans-73" transform="translate(663.085938 0)"/>
      <use xlink:href="#DejaVuSans-61" transform="translate(715.185547 0)"/>
      <use xlink:href="#DejaVuSans-6d" transform="translate(776.464844 0)"/>
      <use xlink:href="#DejaVuSans-70" transform="translate(873.876953 0)"/>
      <use xlink:href="#DejaVuSans-6c" transform="translate(937.353516 0)"/>
      <use xlink:href="#DejaVuSans-69" transform="translate(965.136719 0)"/>
      <use xlink:href="#DejaVuSans-6e" transform="translate(992.919922 0)"/>
      <use xlink:href="#DejaVuSans-67" transform="translate(1056.298828 0)"/>
     </g>
    </g>
   </g>
  </g>
 </g>
 <defs>
  <clipPath id="p0243f660bb">
   <rect x="44.67125" y="26.88" width="520.52875" height="291.16"/>
  </clipPath>
 </defs>
</svg>
