<?xml version="1.0" encoding="utf-8" standalone="no"?>
<!DOCTYPE svg PUBLIC "-//W3C//DTD SVG 1.1//EN"
  "http://www.w3.org/Graphics/SVG/1.1/DTD/svg11.dtd">
<svg xmlns:xlink="http://www.w3.org/1999/xlink" width="576pt" height="360pt" viewBox="0 0 576 360" xmlns="http://www.w3.org/2000/svg" version="1.1">
 <metadata>
  <rdf:RDF xmlns:dc="http://purl.org/dc/elements/1.1/" xmlns:cc="http://creativecommons.org/ns#" xmlns:rdf="http://www.w3.org/1999/02/22-rdf-syntax-ns#">
   <cc:Work>
    <dc:type rdf:resource="http://purl.org/dc/dcmitype/StillImage"/>
    <dc:date>2026-05-18T00:00:01.487043</dc:date>
    <dc:format>image/svg+xml</dc:format>
    <dc:creator>
     <cc:Agent>
      <dc:title>Matplotlib v3.10.9, https://matplotlib.org/</dc:title>
     </cc:Agent>
    </dc:creator>
   </cc:Work>
  </rdf:RDF>
 </metadata>
 <defs>
  <style type="text/css">*{stroke-linejoin: round; stroke-linecap: butt}</style>
 </defs>
 <g id="figure_1">
  <g id="patch_1">
   <path d="M 0 360 
L 576 360 
L 576 0 
L 0 0 
z
" style="fill: #ffffff"/>
  </g>
  <g id="axes_1">
   <g id="patch_2">
    <path d="M 44.67125 318.04 
L 565.2 318.04 
L 565.2 26.88 
L 44.67125 26.88 
z
" style="fill: #ffffff"/>
   </g>
   <g id="FillBetweenPolyCollection_1">
    <path d="M 68.331648 240.970791 
L 68.331648 242.010948 
L 73.111526 243.902601 
L 77.891404 237.209567 
L 82.671283 246.963099 
L 87.451161 238.773752 
L 92.231039 242.358095 
L 97.010918 239.817351 
L 101.790796 237.727919 
L 106.570674 236.90324 
L 111.350553 252.058825 
L 116.130431 235.697148 
L 120.910309 235.616504 
L 125.690188 243.893006 
L 130.470066 235.639109 
L 135.249944 235.04214 
L 140.029823 235.411504 
L 144.809701 233.215606 
L 149.589579 232.237897 
L 154.369458 244.64681 
L 159.149336 236.067857 
L 163.929214 286.088407 
L 168.709093 241.573897 
L 173.488971 239.364243 
L 178.268849 238.080579 
L 183.048728 236.047567 
L 187.828606 235.531539 
L 192.608484 230.821785 
L 197.388363 230.454911 
L 202.168241 246.381509 
L 206.948119 230.109778 
L 211.727998 229.61775 
L 216.507876 230.738162 
L 221.287754 270.08602 
L 226.067633 224.856493 
L 230.847511 250.942072 
L 235.627389 219.267576 
L 240.407268 223.338018 
L 245.187146 218.85364 
L 249.967024 221.747475 
L 254.746903 217.617619 
L 259.526781 212.330399 
L 264.306659 213.529666 
L 269.086538 212.853085 
L 273.866416 229.611725 
L 278.646294 212.370648 
L 283.426173 222.922167 
L 288.206051 212.621975 
L 292.985929 216.468897 
L 297.765808 221.876247 
L 302.545686 301.769556 
L 307.325564 225.158914 
L 312.105442 224.762189 
L 316.885321 224.601731 
L 321.665199 217.040011 
L 326.445077 216.13607 
L 331.224956 214.472982 
L 336.004834 213.976229 
L 340.784712 235.517956 
L 345.564591 214.965118 
L 350.344469 215.115886 
L 355.124347 214.703688 
L 359.904226 214.21291 
L 364.684104 214.477067 
L 369.463982 260.90152 
L 374.243861 215.665743 
L 379.023739 225.554684 
L 383.803617 215.059145 
L 388.583496 228.323056 
L 393.363374 212.904877 
L 398.143252 222.070786 
L 402.923131 214.946992 
L 407.703009 212.14156 
L 412.482887 212.86177 
L 417.262766 224.14808 
L 422.042644 210.967882 
L 426.822522 211.215942 
L 431.602401 210.683651 
L 436.382279 209.691748 
L 441.162157 210.927828 
L 445.942036 215.669687 
L 450.721914 210.218659 
L 455.501792 232.113083 
L 460.281671 212.03485 
L 465.061549 212.929093 
L 469.841427 208.367722 
L 474.621306 229.682358 
L 479.401184 218.68195 
L 484.181062 212.74577 
L 488.960941 273.92095 
L 493.740819 218.310466 
L 498.520697 200.951945 
L 503.300576 199.931434 
L 508.080454 220.572611 
L 512.860332 215.511435 
L 517.640211 234.401405 
L 522.420089 201.770163 
L 527.199967 227.906724 
L 531.979846 218.13608 
L 536.759724 219.044579 
L 541.539602 232.82921 
L 541.539602 191.381324 
L 541.539602 191.381324 
L 536.759724 217.886717 
L 531.979846 217.100232 
L 527.199967 197.712912 
L 522.420089 197.83134 
L 517.640211 121.851041 
L 512.860332 149.076131 
L 508.080454 150.124313 
L 503.300576 194.840815 
L 498.520697 196.21528 
L 493.740819 166.302602 
L 488.960941 62.248932 
L 484.181062 168.2283 
L 479.401184 174.045553 
L 474.621306 165.025511 
L 469.841427 201.846345 
L 465.061549 201.988458 
L 460.281671 208.244695 
L 455.501792 152.986453 
L 450.721914 208.201605 
L 445.942036 199.457369 
L 441.162157 209.96638 
L 436.382279 206.012684 
L 431.602401 207.134306 
L 426.822522 207.816244 
L 422.042644 206.758217 
L 417.262766 187.192086 
L 412.482887 211.469883 
L 407.703009 209.39788 
L 402.923131 202.047653 
L 398.143252 192.44132 
L 393.363374 211.899111 
L 388.583496 183.63209 
L 383.803617 212.733602 
L 379.023739 192.409005 
L 374.243861 213.724019 
L 369.463982 107.42958 
L 364.684104 212.104009 
L 359.904226 212.966066 
L 355.124347 212.497976 
L 350.344469 212.823545 
L 345.564591 213.450885 
L 340.784712 167.100853 
L 336.004834 210.390187 
L 331.224956 208.9642 
L 326.445077 213.977438 
L 321.665199 213.74426 
L 316.885321 222.258977 
L 312.105442 221.42118 
L 307.325564 218.795138 
L 302.545686 59.66204 
L 297.765808 215.182456 
L 292.985929 209.98097 
L 288.206051 207.785724 
L 283.426173 184.992131 
L 278.646294 207.847115 
L 273.866416 168.416343 
L 269.086538 209.263266 
L 264.306659 210.106188 
L 259.526781 209.522196 
L 254.746903 209.812618 
L 249.967024 209.949519 
L 245.187146 209.959742 
L 240.407268 205.278536 
L 235.627389 212.984851 
L 230.847511 155.842894 
L 226.067633 221.899779 
L 221.287754 136.69632 
L 216.507876 227.737137 
L 211.727998 227.379383 
L 206.948119 228.139259 
L 202.168241 183.25898 
L 197.388363 227.921427 
L 192.608484 228.213381 
L 187.828606 218.191172 
L 183.048728 214.595023 
L 178.268849 214.59948 
L 173.488971 199.80494 
L 168.709093 202.681229 
L 163.929214 121.697665 
L 159.149336 220.311098 
L 154.369458 205.329491 
L 149.589579 230.956862 
L 144.809701 231.195481 
L 140.029823 232.59543 
L 135.249944 231.311777 
L 130.470066 233.912997 
L 125.690188 215.526759 
L 120.910309 233.886317 
L 116.130431 234.018119 
L 111.350553 210.071663 
L 106.570674 235.955854 
L 101.790796 236.361665 
L 97.010918 226.169586 
L 92.231039 228.995593 
L 87.451161 237.37475 
L 82.671283 222.794642 
L 77.891404 236.159687 
L 73.111526 219.645472 
L 68.331648 240.970791 
z
" clip-path="url(#p85fb1ab332)" style="fill: #1f77b4; fill-opacity: 0.15"/>
   </g>
   <g id="FillBetweenPolyCollection_2">
    <path d="M 68.331648 236.618156 
L 68.331648 240.197025 
L 73.111526 240.345388 
L 77.891404 234.254875 
L 82.671283 237.94036 
L 87.451161 234.689127 
L 92.231039 246.904416 
L 97.010918 239.46792 
L 101.790796 238.618693 
L 106.570674 234.400289 
L 111.350553 250.031189 
L 116.130431 239.861164 
L 120.910309 255.488848 
L 125.690188 233.356908 
L 130.470066 268.071106 
L 135.249944 232.488317 
L 140.029823 233.310352 
L 144.809701 230.346118 
L 149.589579 233.406354 
L 154.369458 229.266006 
L 159.149336 228.934393 
L 163.929214 228.488158 
L 168.709093 228.002013 
L 173.488971 239.307582 
L 178.268849 232.256496 
L 183.048728 227.158256 
L 187.828606 228.139419 
L 192.608484 227.912646 
L 197.388363 227.71222 
L 202.168241 235.635538 
L 206.948119 227.546216 
L 211.727998 262.080134 
L 216.507876 227.673639 
L 221.287754 224.774241 
L 226.067633 220.785259 
L 230.847511 220.020724 
L 235.627389 217.540478 
L 240.407268 214.342731 
L 245.187146 212.132127 
L 249.967024 213.590189 
L 254.746903 210.298205 
L 259.526781 211.633547 
L 264.306659 210.638575 
L 269.086538 238.126276 
L 273.866416 206.428924 
L 278.646294 209.515013 
L 283.426173 208.482763 
L 288.206051 213.905056 
L 292.985929 217.525039 
L 297.765808 218.264784 
L 302.545686 219.52756 
L 307.325564 221.97933 
L 312.105442 274.893223 
L 316.885321 221.448643 
L 321.665199 213.733135 
L 326.445077 212.402587 
L 331.224956 249.382389 
L 336.004834 210.628779 
L 340.784712 210.210345 
L 345.564591 211.314658 
L 350.344469 232.747684 
L 355.124347 227.297493 
L 359.904226 262.392998 
L 364.684104 219.922614 
L 369.463982 211.472211 
L 374.243861 223.205763 
L 379.023739 256.851547 
L 383.803617 215.36219 
L 388.583496 210.309816 
L 393.363374 209.803467 
L 398.143252 234.924448 
L 402.923131 208.241258 
L 407.703009 229.989337 
L 412.482887 212.766955 
L 417.262766 208.72357 
L 422.042644 206.336425 
L 426.822522 207.551275 
L 431.602401 206.523951 
L 436.382279 206.417279 
L 441.162157 207.474792 
L 445.942036 260.438601 
L 450.721914 206.848595 
L 455.501792 216.812245 
L 460.281671 225.90741 
L 465.061549 212.213623 
L 469.841427 206.41989 
L 474.621306 205.511357 
L 479.401184 205.370048 
L 484.181062 200.581598 
L 488.960941 201.08186 
L 493.740819 197.174891 
L 498.520697 195.287762 
L 503.300576 260.591501 
L 508.080454 202.165042 
L 512.860332 191.661563 
L 517.640211 200.474603 
L 522.420089 201.307446 
L 527.199967 227.983327 
L 531.979846 243.300519 
L 536.759724 216.066803 
L 541.539602 304.805455 
L 541.539602 40.114545 
L 541.539602 40.114545 
L 536.759724 214.495964 
L 531.979846 160.379508 
L 527.199967 187.641281 
L 522.420089 191.051048 
L 517.640211 174.580298 
L 512.860332 190.342157 
L 508.080454 169.099594 
L 503.300576 56.066277 
L 498.520697 189.731487 
L 493.740819 192.361063 
L 488.960941 192.461566 
L 484.181062 192.423795 
L 479.401184 198.613475 
L 474.621306 197.047051 
L 469.841427 193.525166 
L 465.061549 192.020773 
L 460.281671 168.986991 
L 455.501792 183.743598 
L 450.721914 201.953992 
L 445.942036 99.698384 
L 441.162157 203.44111 
L 436.382279 201.718308 
L 431.602401 202.203074 
L 426.822522 204.273055 
L 422.042644 203.335031 
L 417.262766 205.930572 
L 412.482887 200.184324 
L 407.703009 165.777874 
L 402.923131 205.645039 
L 398.143252 157.160552 
L 393.363374 206.311517 
L 388.583496 207.112785 
L 383.803617 197.755729 
L 379.023739 104.43657 
L 374.243861 181.229046 
L 369.463982 209.129013 
L 364.684104 189.979794 
L 359.904226 106.907355 
L 355.124347 177.603797 
L 350.344469 167.349385 
L 345.564591 209.887094 
L 340.784712 208.602185 
L 336.004834 208.458236 
L 331.224956 132.15787 
L 326.445077 209.899087 
L 321.665199 210.060804 
L 316.885321 217.792266 
L 312.105442 114.982092 
L 307.325564 215.710015 
L 302.545686 211.437628 
L 297.765808 212.154349 
L 292.985929 198.287765 
L 288.206051 182.699991 
L 283.426173 203.32619 
L 278.646294 202.187308 
L 273.866416 201.782224 
L 269.086538 141.445364 
L 264.306659 204.515325 
L 259.526781 197.078705 
L 254.746903 206.974584 
L 249.967024 206.327271 
L 245.187146 206.024982 
L 240.407268 206.688218 
L 235.627389 207.05131 
L 230.847511 212.508634 
L 226.067633 218.671368 
L 221.287754 212.717962 
L 216.507876 224.659566 
L 211.727998 137.399184 
L 206.948119 225.768175 
L 202.168241 207.44087 
L 197.388363 226.240838 
L 192.608484 224.127894 
L 187.828606 225.565356 
L 183.048728 224.886688 
L 178.268849 217.019496 
L 173.488971 202.037411 
L 168.709093 226.498803 
L 163.929214 226.276985 
L 159.149336 224.671738 
L 154.369458 228.279206 
L 149.589579 222.13491 
L 144.809701 227.381574 
L 140.029823 228.173017 
L 135.249944 226.51518 
L 130.470066 157.583186 
L 125.690188 229.391432 
L 120.910309 186.842548 
L 116.130431 217.334711 
L 111.350553 207.159892 
L 106.570674 231.721865 
L 101.790796 222.611283 
L 97.010918 217.616991 
L 92.231039 208.483763 
L 87.451161 232.536466 
L 82.671283 235.78405 
L 77.891404 233.302196 
L 73.111526 222.22491 
L 68.331648 236.618156 
z
" clip-path="url(#p85fb1ab332)" style="fill: #ff7f0e; fill-opacity: 0.15"/>
   </g>
   <g id="matplotlib.axis_1">
    <g id="xtick_1">
     <g id="line2d_1">
      <path d="M 63.551769 318.04 
L 63.551769 26.88 
" clip-path="url(#p85fb1ab332)" style="fill: none; stroke: #b0b0b0; stroke-opacity: 0.3; stroke-width: 0.8; stroke-linecap: square"/>
     </g>
     <g id="line2d_2">
      <defs>
       <path id="mc1058b6d7d" d="M 0 0 
L 0 3.5 
" style="stroke: #000000; stroke-width: 0.8"/>
      </defs>
      <g>
       <use xlink:href="#mc1058b6d7d" x="63.551769" y="318.04" style="stroke: #000000; stroke-width: 0.8"/>
      </g>
     </g>
     <g id="text_1">
      <!-- 0 -->
      <g transform="translate(60.370519 332.638438) scale(0.1 -0.1)">
       <defs>
        <path id="DejaVuSans-30" d="M 2034 4250 
Q 1547 4250 1301 3770 
Q 1056 3291 1056 2328 
Q 1056 1369 1301 889 
Q 1547 409 2034 409 
Q 2525 409 2770 889 
Q 3016 1369 3016 2328 
Q 3016 3291 2770 3770 
Q 2525 4250 2034 4250 
z
M 2034 4750 
Q 2819 4750 3233 4129 
Q 3647 3509 3647 2328 
Q 3647 1150 3233 529 
Q 2819 -91 2034 -91 
Q 1250 -91 836 529 
Q 422 1150 422 2328 
Q 422 3509 836 4129 
Q 1250 4750 2034 4750 
z
" transform="scale(0.015625)"/>
       </defs>
       <use xlink:href="#DejaVuSans-30"/>
      </g>
     </g>
    </g>
    <g id="xtick_2">
     <g id="line2d_3">
      <path d="M 159.149336 318.04 
L 159.149336 26.88 
" clip-path="url(#p85fb1ab332)" style="fill: none; stroke: #b0b0b0; stroke-opacity: 0.3; stroke-width: 0.8; stroke-linecap: square"/>
     </g>
     <g id="line2d_4">
      <g>
       <use xlink:href="#mc1058b6d7d" x="159.149336" y="318.04" style="stroke: #000000; stroke-width: 0.8"/>
      </g>
     </g>
     <g id="text_2">
      <!-- 20 -->
      <g transform="translate(152.786836 332.638438) scale(0.1 -0.1)">
       <defs>
        <path id="DejaVuSans-32" d="M 1228 531 
L 3431 531 
L 3431 0 
L 469 0 
L 469 531 
Q 828 903 1448 1529 
Q 2069 2156 2228 2338 
Q 2531 2678 2651 2914 
Q 2772 3150 2772 3378 
Q 2772 3750 2511 3984 
Q 2250 4219 1831 4219 
Q 1534 4219 1204 4116 
Q 875 4013 500 3803 
L 500 4441 
Q 881 4594 1212 4672 
Q 1544 4750 1819 4750 
Q 2544 4750 2975 4387 
Q 3406 4025 3406 3419 
Q 3406 3131 3298 2873 
Q 3191 2616 2906 2266 
Q 2828 2175 2409 1742 
Q 1991 1309 1228 531 
z
" transform="scale(0.015625)"/>
       </defs>
       <use xlink:href="#DejaVuSans-32"/>
       <use xlink:href="#DejaVuSans-30" transform="translate(63.623047 0)"/>
      </g>
     </g>
    </g>
    <g id="xtick_3">
     <g id="line2d_5">
      <path d="M 254.746903 318.04 
L 254.746903 26.88 
" clip-path="url(#p85fb1ab332)" style="fill: none; stroke: #b0b0b0; stroke-opacity: 0.3; stroke-width: 0.8; stroke-linecap: square"/>
     </g>
     <g id="line2d_6">
      <g>
       <use xlink:href="#mc1058b6d7d" x="254.746903" y="318.04" style="stroke: #000000; stroke-width: 0.8"/>
      </g>
     </g>
     <g id="text_3">
      <!-- 40 -->
      <g transform="translate(248.384403 332.638438) scale(0.1 -0.1)">
       <defs>
        <path id="DejaVuSans-34" d="M 2419 4116 
L 825 1625 
L 2419 1625 
L 2419 4116 
z
M 2253 4666 
L 3047 4666 
L 3047 1625 
L 3713 1625 
L 3713 1100 
L 3047 1100 
L 3047 0 
L 2419 0 
L 2419 1100 
L 313 1100 
L 313 1709 
L 2253 4666 
z
" transform="scale(0.015625)"/>
       </defs>
       <use xlink:href="#DejaVuSans-34"/>
       <use xlink:href="#DejaVuSans-30" transform="translate(63.623047 0)"/>
      </g>
     </g>
    </g>
    <g id="xtick_4">
     <g id="line2d_7">
      <path d="M 350.344469 318.04 
L 350.344469 26.88 
" clip-path="url(#p85fb1ab332)" style="fill: none; stroke: #b0b0b0; stroke-opacity: 0.3; stroke-width: 0.8; stroke-linecap: square"/>
     </g>
     <g id="line2d_8">
      <g>
       <use xlink:href="#mc1058b6d7d" x="350.344469" y="318.04" style="stroke: #000000; stroke-width: 0.8"/>
      </g>
     </g>
     <g id="text_4">
      <!-- 60 -->
      <g transform="translate(343.981969 332.638438) scale(0.1 -0.1)">
       <defs>
        <path id="DejaVuSans-36" d="M 2113 2584 
Q 1688 2584 1439 2293 
Q 1191 2003 1191 1497 
Q 1191 994 1439 701 
Q 1688 409 2113 409 
Q 2538 409 2786 701 
Q 3034 994 3034 1497 
Q 3034 2003 2786 2293 
Q 2538 2584 2113 2584 
z
M 3366 4563 
L 3366 3988 
Q 3128 4100 2886 4159 
Q 2644 4219 2406 4219 
Q 1781 4219 1451 3797 
Q 1122 3375 1075 2522 
Q 1259 2794 1537 2939 
Q 1816 3084 2150 3084 
Q 2853 3084 3261 2657 
Q 3669 2231 3669 1497 
Q 3669 778 3244 343 
Q 2819 -91 2113 -91 
Q 1303 -91 875 529 
Q 447 1150 447 2328 
Q 447 3434 972 4092 
Q 1497 4750 2381 4750 
Q 2619 4750 2861 4703 
Q 3103 4656 3366 4563 
z
" transform="scale(0.015625)"/>
       </defs>
       <use xlink:href="#DejaVuSans-36"/>
       <use xlink:href="#DejaVuSans-30" transform="translate(63.623047 0)"/>
      </g>
     </g>
    </g>
    <g id="xtick_5">
     <g id="line2d_9">
      <path d="M 445.942036 318.04 
L 445.942036 26.88 
" clip-path="url(#p85fb1ab332)" style="fill: none; stroke: #b0b0b0; stroke-opacity: 0.3; stroke-width: 0.8; stroke-linecap: square"/>
     </g>
     <g id="line2d_10">
      <g>
       <use xlink:href="#mc1058b6d7d" x="445.942036" y="318.04" style="stroke: #000000; stroke-width: 0.8"/>
      </g>
     </g>
     <g id="text_5">
      <!-- 80 -->
      <g transform="translate(439.579536 332.638438) scale(0.1 -0.1)">
       <defs>
        <path id="DejaVuSans-38" d="M 2034 2216 
Q 1584 2216 1326 1975 
Q 1069 1734 1069 1313 
Q 1069 891 1326 650 
Q 1584 409 2034 409 
Q 2484 409 2743 651 
Q 3003 894 3003 1313 
Q 3003 1734 2745 1975 
Q 2488 2216 2034 2216 
z
M 1403 2484 
Q 997 2584 770 2862 
Q 544 3141 544 3541 
Q 544 4100 942 4425 
Q 1341 4750 2034 4750 
Q 2731 4750 3128 4425 
Q 3525 4100 3525 3541 
Q 3525 3141 3298 2862 
Q 3072 2584 2669 2484 
Q 3125 2378 3379 2068 
Q 3634 1759 3634 1313 
Q 3634 634 3220 271 
Q 2806 -91 2034 -91 
Q 1263 -91 848 271 
Q 434 634 434 1313 
Q 434 1759 690 2068 
Q 947 2378 1403 2484 
z
M 1172 3481 
Q 1172 3119 1398 2916 
Q 1625 2713 2034 2713 
Q 2441 2713 2670 2916 
Q 2900 3119 2900 3481 
Q 2900 3844 2670 4047 
Q 2441 4250 2034 4250 
Q 1625 4250 1398 4047 
Q 1172 3844 1172 3481 
z
" transform="scale(0.015625)"/>
       </defs>
       <use xlink:href="#DejaVuSans-38"/>
       <use xlink:href="#DejaVuSans-30" transform="translate(63.623047 0)"/>
      </g>
     </g>
    </g>
    <g id="xtick_6">
     <g id="line2d_11">
      <path d="M 541.539602 318.04 
L 541.539602 26.88 
" clip-path="url(#p85fb1ab332)" style="fill: none; stroke: #b0b0b0; stroke-opacity: 0.3; stroke-width: 0.8; stroke-linecap: square"/>
     </g>
     <g id="line2d_12">
      <g>
       <use xlink:href="#mc1058b6d7d" x="541.539602" y="318.04" style="stroke: #000000; stroke-width: 0.8"/>
      </g>
     </g>
     <g id="text_6">
      <!-- 100 -->
      <g transform="translate(531.995852 332.638438) scale(0.1 -0.1)">
       <defs>
        <path id="DejaVuSans-31" d="M 794 531 
L 1825 531 
L 1825 4091 
L 703 3866 
L 703 4441 
L 1819 4666 
L 2450 4666 
L 2450 531 
L 3481 531 
L 3481 0 
L 794 0 
L 794 531 
z
" transform="scale(0.015625)"/>
       </defs>
       <use xlink:href="#DejaVuSans-31"/>
       <use xlink:href="#DejaVuSans-30" transform="translate(63.623047 0)"/>
       <use xlink:href="#DejaVuSans-30" transform="translate(127.246094 0)"/>
      </g>
     </g>
    </g>
    <g id="text_7">
     <!-- Draft length -->
     <g transform="translate(274.806719 346.316563) scale(0.1 -0.1)">
      <defs>
       <path id="DejaVuSans-44" d="M 1259 4147 
L 1259 519 
L 2022 519 
Q 2988 519 3436 956 
Q 3884 1394 3884 2338 
Q 3884 3275 3436 3711 
Q 2988 4147 2022 4147 
L 1259 4147 
z
M 628 4666 
L 1925 4666 
Q 3281 4666 3915 4102 
Q 4550 3538 4550 2338 
Q 4550 1131 3912 565 
Q 3275 0 1925 0 
L 628 0 
L 628 4666 
z
" transform="scale(0.015625)"/>
       <path id="DejaVuSans-72" d="M 2631 2963 
Q 2534 3019 2420 3045 
Q 2306 3072 2169 3072 
Q 1681 3072 1420 2755 
Q 1159 2438 1159 1844 
L 1159 0 
L 581 0 
L 581 3500 
L 1159 3500 
L 1159 2956 
Q 1341 3275 1631 3429 
Q 1922 3584 2338 3584 
Q 2397 3584 2469 3576 
Q 2541 3569 2628 3553 
L 2631 2963 
z
" transform="scale(0.015625)"/>
       <path id="DejaVuSans-61" d="M 2194 1759 
Q 1497 1759 1228 1600 
Q 959 1441 959 1056 
Q 959 750 1161 570 
Q 1363 391 1709 391 
Q 2188 391 2477 730 
Q 2766 1069 2766 1631 
L 2766 1759 
L 2194 1759 
z
M 3341 1997 
L 3341 0 
L 2766 0 
L 2766 531 
Q 2569 213 2275 61 
Q 1981 -91 1556 -91 
Q 1019 -91 701 211 
Q 384 513 384 1019 
Q 384 1609 779 1909 
Q 1175 2209 1959 2209 
L 2766 2209 
L 2766 2266 
Q 2766 2663 2505 2880 
Q 2244 3097 1772 3097 
Q 1472 3097 1187 3025 
Q 903 2953 641 2809 
L 641 3341 
Q 956 3463 1253 3523 
Q 1550 3584 1831 3584 
Q 2591 3584 2966 3190 
Q 3341 2797 3341 1997 
z
" transform="scale(0.015625)"/>
       <path id="DejaVuSans-66" d="M 2375 4863 
L 2375 4384 
L 1825 4384 
Q 1516 4384 1395 4259 
Q 1275 4134 1275 3809 
L 1275 3500 
L 2222 3500 
L 2222 3053 
L 1275 3053 
L 1275 0 
L 697 0 
L 697 3053 
L 147 3053 
L 147 3500 
L 697 3500 
L 697 3744 
Q 697 4328 969 4595 
Q 1241 4863 1831 4863 
L 2375 4863 
z
" transform="scale(0.015625)"/>
       <path id="DejaVuSans-74" d="M 1172 4494 
L 1172 3500 
L 2356 3500 
L 2356 3053 
L 1172 3053 
L 1172 1153 
Q 1172 725 1289 603 
Q 1406 481 1766 481 
L 2356 481 
L 2356 0 
L 1766 0 
Q 1100 0 847 248 
Q 594 497 594 1153 
L 594 3053 
L 172 3053 
L 172 3500 
L 594 3500 
L 594 4494 
L 1172 4494 
z
" transform="scale(0.015625)"/>
       <path id="DejaVuSans-20" transform="scale(0.015625)"/>
       <path id="DejaVuSans-6c" d="M 603 4863 
L 1178 4863 
L 1178 0 
L 603 0 
L 603 4863 
z
" transform="scale(0.015625)"/>
       <path id="DejaVuSans-65" d="M 3597 1894 
L 3597 1613 
L 953 1613 
Q 991 1019 1311 708 
Q 1631 397 2203 397 
Q 2534 397 2845 478 
Q 3156 559 3463 722 
L 3463 178 
Q 3153 47 2828 -22 
Q 2503 -91 2169 -91 
Q 1331 -91 842 396 
Q 353 884 353 1716 
Q 353 2575 817 3079 
Q 1281 3584 2069 3584 
Q 2775 3584 3186 3129 
Q 3597 2675 3597 1894 
z
M 3022 2063 
Q 3016 2534 2758 2815 
Q 2500 3097 2075 3097 
Q 1594 3097 1305 2825 
Q 1016 2553 972 2059 
L 3022 2063 
z
" transform="scale(0.015625)"/>
       <path id="DejaVuSans-6e" d="M 3513 2113 
L 3513 0 
L 2938 0 
L 2938 2094 
Q 2938 2591 2744 2837 
Q 2550 3084 2163 3084 
Q 1697 3084 1428 2787 
Q 1159 2491 1159 1978 
L 1159 0 
L 581 0 
L 581 3500 
L 1159 3500 
L 1159 2956 
Q 1366 3272 1645 3428 
Q 1925 3584 2291 3584 
Q 2894 3584 3203 3211 
Q 3513 2838 3513 2113 
z
" transform="scale(0.015625)"/>
       <path id="DejaVuSans-67" d="M 2906 1791 
Q 2906 2416 2648 2759 
Q 2391 3103 1925 3103 
Q 1463 3103 1205 2759 
Q 947 2416 947 1791 
Q 947 1169 1205 825 
Q 1463 481 1925 481 
Q 2391 481 2648 825 
Q 2906 1169 2906 1791 
z
M 3481 434 
Q 3481 -459 3084 -895 
Q 2688 -1331 1869 -1331 
Q 1566 -1331 1297 -1286 
Q 1028 -1241 775 -1147 
L 775 -588 
Q 1028 -725 1275 -790 
Q 1522 -856 1778 -856 
Q 2344 -856 2625 -561 
Q 2906 -266 2906 331 
L 2906 616 
Q 2728 306 2450 153 
Q 2172 0 1784 0 
Q 1141 0 747 490 
Q 353 981 353 1791 
Q 353 2603 747 3093 
Q 1141 3584 1784 3584 
Q 2172 3584 2450 3431 
Q 2728 3278 2906 2969 
L 2906 3500 
L 3481 3500 
L 3481 434 
z
" transform="scale(0.015625)"/>
       <path id="DejaVuSans-68" d="M 3513 2113 
L 3513 0 
L 2938 0 
L 2938 2094 
Q 2938 2591 2744 2837 
Q 2550 3084 2163 3084 
Q 1697 3084 1428 2787 
Q 1159 2491 1159 1978 
L 1159 0 
L 581 0 
L 581 4863 
L 1159 4863 
L 1159 2956 
Q 1366 3272 1645 3428 
Q 1925 3584 2291 3584 
Q 2894 3584 3203 3211 
Q 3513 2838 3513 2113 
z
" transform="scale(0.015625)"/>
      </defs>
      <use xlink:href="#DejaVuSans-44"/>
      <use xlink:href="#DejaVuSans-72" transform="translate(77.001953 0)"/>
      <use xlink:href="#DejaVuSans-61" transform="translate(118.115234 0)"/>
      <use xlink:href="#DejaVuSans-66" transform="translate(179.394531 0)"/>
      <use xlink:href="#DejaVuSans-74" transform="translate(212.849609 0)"/>
      <use xlink:href="#DejaVuSans-20" transform="translate(252.058594 0)"/>
      <use xlink:href="#DejaVuSans-6c" transform="translate(283.845703 0)"/>
      <use xlink:href="#DejaVuSans-65" transform="translate(311.628906 0)"/>
      <use xlink:href="#DejaVuSans-6e" transform="translate(373.152344 0)"/>
      <use xlink:href="#DejaVuSans-67" transform="translate(436.53125 0)"/>
      <use xlink:href="#DejaVuSans-74" transform="translate(500.007812 0)"/>
      <use xlink:href="#DejaVuSans-68" transform="translate(539.216797 0)"/>
     </g>
    </g>
   </g>
   <g id="matplotlib.axis_2">
    <g id="ytick_1">
     <g id="line2d_13">
      <path d="M 44.67125 270.627752 
L 565.2 270.627752 
" clip-path="url(#p85fb1ab332)" style="fill: none; stroke: #b0b0b0; stroke-opacity: 0.3; stroke-width: 0.8; stroke-linecap: square"/>
     </g>
     <g id="line2d_14">
      <defs>
       <path id="mc01d94c6a8" d="M 0 0 
L -3.5 0 
" style="stroke: #000000; stroke-width: 0.8"/>
      </defs>
      <g>
       <use xlink:href="#mc01d94c6a8" x="44.67125" y="270.627752" style="stroke: #000000; stroke-width: 0.8"/>
      </g>
     </g>
     <g id="text_8">
      <!-- 10 -->
      <g transform="translate(24.94625 274.426971) scale(0.1 -0.1)">
       <use xlink:href="#DejaVuSans-31"/>
       <use xlink:href="#DejaVuSans-30" transform="translate(63.623047 0)"/>
      </g>
     </g>
    </g>
    <g id="ytick_2">
     <g id="line2d_15">
      <path d="M 44.67125 215.144993 
L 565.2 215.144993 
" clip-path="url(#p85fb1ab332)" style="fill: none; stroke: #b0b0b0; stroke-opacity: 0.3; stroke-width: 0.8; stroke-linecap: square"/>
     </g>
     <g id="line2d_16">
      <g>
       <use xlink:href="#mc01d94c6a8" x="44.67125" y="215.144993" style="stroke: #000000; stroke-width: 0.8"/>
      </g>
     </g>
     <g id="text_9">
      <!-- 20 -->
      <g transform="translate(24.94625 218.944212) scale(0.1 -0.1)">
       <use xlink:href="#DejaVuSans-32"/>
       <use xlink:href="#DejaVuSans-30" transform="translate(63.623047 0)"/>
      </g>
     </g>
    </g>
    <g id="ytick_3">
     <g id="line2d_17">
      <path d="M 44.67125 159.662233 
L 565.2 159.662233 
" clip-path="url(#p85fb1ab332)" style="fill: none; stroke: #b0b0b0; stroke-opacity: 0.3; stroke-width: 0.8; stroke-linecap: square"/>
     </g>
     <g id="line2d_18">
      <g>
       <use xlink:href="#mc01d94c6a8" x="44.67125" y="159.662233" style="stroke: #000000; stroke-width: 0.8"/>
      </g>
     </g>
     <g id="text_10">
      <!-- 30 -->
      <g transform="translate(24.94625 163.461452) scale(0.1 -0.1)">
       <defs>
        <path id="DejaVuSans-33" d="M 2597 2516 
Q 3050 2419 3304 2112 
Q 3559 1806 3559 1356 
Q 3559 666 3084 287 
Q 2609 -91 1734 -91 
Q 1441 -91 1130 -33 
Q 819 25 488 141 
L 488 750 
Q 750 597 1062 519 
Q 1375 441 1716 441 
Q 2309 441 2620 675 
Q 2931 909 2931 1356 
Q 2931 1769 2642 2001 
Q 2353 2234 1838 2234 
L 1294 2234 
L 1294 2753 
L 1863 2753 
Q 2328 2753 2575 2939 
Q 2822 3125 2822 3475 
Q 2822 3834 2567 4026 
Q 2313 4219 1838 4219 
Q 1578 4219 1281 4162 
Q 984 4106 628 3988 
L 628 4550 
Q 988 4650 1302 4700 
Q 1616 4750 1894 4750 
Q 2613 4750 3031 4423 
Q 3450 4097 3450 3541 
Q 3450 3153 3228 2886 
Q 3006 2619 2597 2516 
z
" transform="scale(0.015625)"/>
       </defs>
       <use xlink:href="#DejaVuSans-33"/>
       <use xlink:href="#DejaVuSans-30" transform="translate(63.623047 0)"/>
      </g>
     </g>
    </g>
    <g id="ytick_4">
     <g id="line2d_19">
      <path d="M 44.67125 104.179474 
L 565.2 104.179474 
" clip-path="url(#p85fb1ab332)" style="fill: none; stroke: #b0b0b0; stroke-opacity: 0.3; stroke-width: 0.8; stroke-linecap: square"/>
     </g>
     <g id="line2d_20">
      <g>
       <use xlink:href="#mc01d94c6a8" x="44.67125" y="104.179474" style="stroke: #000000; stroke-width: 0.8"/>
      </g>
     </g>
     <g id="text_11">
      <!-- 40 -->
      <g transform="translate(24.94625 107.978693) scale(0.1 -0.1)">
       <use xlink:href="#DejaVuSans-34"/>
       <use xlink:href="#DejaVuSans-30" transform="translate(63.623047 0)"/>
      </g>
     </g>
    </g>
    <g id="ytick_5">
     <g id="line2d_21">
      <path d="M 44.67125 48.696715 
L 565.2 48.696715 
" clip-path="url(#p85fb1ab332)" style="fill: none; stroke: #b0b0b0; stroke-opacity: 0.3; stroke-width: 0.8; stroke-linecap: square"/>
     </g>
     <g id="line2d_22">
      <g>
       <use xlink:href="#mc01d94c6a8" x="44.67125" y="48.696715" style="stroke: #000000; stroke-width: 0.8"/>
      </g>
     </g>
     <g id="text_12">
      <!-- 50 -->
      <g transform="translate(24.94625 52.495934) scale(0.1 -0.1)">
       <defs>
        <path id="DejaVuSans-35" d="M 691 4666 
L 3169 4666 
L 3169 4134 
L 1269 4134 
L 1269 2991 
Q 1406 3038 1543 3061 
Q 1681 3084 1819 3084 
Q 2600 3084 3056 2656 
Q 3513 2228 3513 1497 
Q 3513 744 3044 326 
Q 2575 -91 1722 -91 
Q 1428 -91 1123 -41 
Q 819 9 494 109 
L 494 744 
Q 775 591 1075 516 
Q 1375 441 1709 441 
Q 2250 441 2565 725 
Q 2881 1009 2881 1497 
Q 2881 1984 2565 2268 
Q 2250 2553 1709 2553 
Q 1456 2553 1204 2497 
Q 953 2441 691 2322 
L 691 4666 
z
" transform="scale(0.015625)"/>
       </defs>
       <use xlink:href="#DejaVuSans-35"/>
       <use xlink:href="#DejaVuSans-30" transform="translate(63.623047 0)"/>
      </g>
     </g>
    </g>
    <g id="text_13">
     <!-- cuda_ms -->
     <g transform="translate(18.588438 194.59125) rotate(-90) scale(0.1 -0.1)">
      <defs>
       <path id="DejaVuSans-63" d="M 3122 3366 
L 3122 2828 
Q 2878 2963 2633 3030 
Q 2388 3097 2138 3097 
Q 1578 3097 1268 2742 
Q 959 2388 959 1747 
Q 959 1106 1268 751 
Q 1578 397 2138 397 
Q 2388 397 2633 464 
Q 2878 531 3122 666 
L 3122 134 
Q 2881 22 2623 -34 
Q 2366 -91 2075 -91 
Q 1284 -91 818 406 
Q 353 903 353 1747 
Q 353 2603 823 3093 
Q 1294 3584 2113 3584 
Q 2378 3584 2631 3529 
Q 2884 3475 3122 3366 
z
" transform="scale(0.015625)"/>
       <path id="DejaVuSans-75" d="M 544 1381 
L 544 3500 
L 1119 3500 
L 1119 1403 
Q 1119 906 1312 657 
Q 1506 409 1894 409 
Q 2359 409 2629 706 
Q 2900 1003 2900 1516 
L 2900 3500 
L 3475 3500 
L 3475 0 
L 2900 0 
L 2900 538 
Q 2691 219 2414 64 
Q 2138 -91 1772 -91 
Q 1169 -91 856 284 
Q 544 659 544 1381 
z
M 1991 3584 
L 1991 3584 
z
" transform="scale(0.015625)"/>
       <path id="DejaVuSans-64" d="M 2906 2969 
L 2906 4863 
L 3481 4863 
L 3481 0 
L 2906 0 
L 2906 525 
Q 2725 213 2448 61 
Q 2172 -91 1784 -91 
Q 1150 -91 751 415 
Q 353 922 353 1747 
Q 353 2572 751 3078 
Q 1150 3584 1784 3584 
Q 2172 3584 2448 3432 
Q 2725 3281 2906 2969 
z
M 947 1747 
Q 947 1113 1208 752 
Q 1469 391 1925 391 
Q 2381 391 2643 752 
Q 2906 1113 2906 1747 
Q 2906 2381 2643 2742 
Q 2381 3103 1925 3103 
Q 1469 3103 1208 2742 
Q 947 2381 947 1747 
z
" transform="scale(0.015625)"/>
       <path id="DejaVuSans-5f" d="M 3263 -1063 
L 3263 -1509 
L -63 -1509 
L -63 -1063 
L 3263 -1063 
z
" transform="scale(0.015625)"/>
       <path id="DejaVuSans-6d" d="M 3328 2828 
Q 3544 3216 3844 3400 
Q 4144 3584 4550 3584 
Q 5097 3584 5394 3201 
Q 5691 2819 5691 2113 
L 5691 0 
L 5113 0 
L 5113 2094 
Q 5113 2597 4934 2840 
Q 4756 3084 4391 3084 
Q 3944 3084 3684 2787 
Q 3425 2491 3425 1978 
L 3425 0 
L 2847 0 
L 2847 2094 
Q 2847 2600 2669 2842 
Q 2491 3084 2119 3084 
Q 1678 3084 1418 2786 
Q 1159 2488 1159 1978 
L 1159 0 
L 581 0 
L 581 3500 
L 1159 3500 
L 1159 2956 
Q 1356 3278 1631 3431 
Q 1906 3584 2284 3584 
Q 2666 3584 2933 3390 
Q 3200 3197 3328 2828 
z
" transform="scale(0.015625)"/>
       <path id="DejaVuSans-73" d="M 2834 3397 
L 2834 2853 
Q 2591 2978 2328 3040 
Q 2066 3103 1784 3103 
Q 1356 3103 1142 2972 
Q 928 2841 928 2578 
Q 928 2378 1081 2264 
Q 1234 2150 1697 2047 
L 1894 2003 
Q 2506 1872 2764 1633 
Q 3022 1394 3022 966 
Q 3022 478 2636 193 
Q 2250 -91 1575 -91 
Q 1294 -91 989 -36 
Q 684 19 347 128 
L 347 722 
Q 666 556 975 473 
Q 1284 391 1588 391 
Q 1994 391 2212 530 
Q 2431 669 2431 922 
Q 2431 1156 2273 1281 
Q 2116 1406 1581 1522 
L 1381 1569 
Q 847 1681 609 1914 
Q 372 2147 372 2553 
Q 372 3047 722 3315 
Q 1072 3584 1716 3584 
Q 2034 3584 2315 3537 
Q 2597 3491 2834 3397 
z
" transform="scale(0.015625)"/>
      </defs>
      <use xlink:href="#DejaVuSans-63"/>
      <use xlink:href="#DejaVuSans-75" transform="translate(54.980469 0)"/>
      <use xlink:href="#DejaVuSans-64" transform="translate(118.359375 0)"/>
      <use xlink:href="#DejaVuSans-61" transform="translate(181.835938 0)"/>
      <use xlink:href="#DejaVuSans-5f" transform="translate(243.115234 0)"/>
      <use xlink:href="#DejaVuSans-6d" transform="translate(293.115234 0)"/>
      <use xlink:href="#DejaVuSans-73" transform="translate(390.527344 0)"/>
     </g>
    </g>
   </g>
   <g id="line2d_23">
    <path d="M 68.331648 241.490869 
L 73.111526 231.774037 
L 77.891404 236.684627 
L 82.671283 234.87887 
L 87.451161 238.074251 
L 92.231039 235.676844 
L 97.010918 232.993469 
L 101.790796 237.044792 
L 106.570674 236.429547 
L 111.350553 231.065244 
L 116.130431 234.857634 
L 120.910309 234.751411 
L 125.690188 229.709883 
L 130.470066 234.776053 
L 135.249944 233.176958 
L 140.029823 234.003467 
L 144.809701 232.205543 
L 149.589579 231.597379 
L 154.369458 224.988151 
L 159.149336 228.189478 
L 163.929214 203.893036 
L 168.709093 222.127563 
L 173.488971 219.584591 
L 178.268849 226.34003 
L 183.048728 225.321295 
L 187.828606 226.861355 
L 192.608484 229.517583 
L 197.388363 229.188169 
L 202.168241 214.820245 
L 206.948119 229.124518 
L 211.727998 228.498567 
L 216.507876 229.23765 
L 221.287754 203.39117 
L 226.067633 223.378136 
L 230.847511 203.392483 
L 235.627389 216.126214 
L 240.407268 214.308277 
L 245.187146 214.406691 
L 249.967024 215.848497 
L 254.746903 213.715119 
L 259.526781 210.926298 
L 264.306659 211.817927 
L 269.086538 211.058176 
L 273.866416 199.014034 
L 278.646294 210.108881 
L 283.426173 203.957149 
L 288.206051 210.20385 
L 292.985929 213.224933 
L 297.765808 218.529351 
L 302.545686 180.715798 
L 307.325564 221.977026 
L 312.105442 223.091685 
L 316.885321 223.430354 
L 321.665199 215.392135 
L 326.445077 215.056754 
L 331.224956 211.718591 
L 336.004834 212.183208 
L 340.784712 201.309404 
L 345.564591 214.208002 
L 350.344469 213.969716 
L 355.124347 213.600832 
L 359.904226 213.589488 
L 364.684104 213.290538 
L 369.463982 184.16555 
L 374.243861 214.694881 
L 379.023739 208.981844 
L 383.803617 213.896374 
L 388.583496 205.977573 
L 393.363374 212.401994 
L 398.143252 207.256053 
L 402.923131 208.497323 
L 407.703009 210.76972 
L 412.482887 212.165826 
L 417.262766 205.670083 
L 422.042644 208.863049 
L 426.822522 209.516093 
L 431.602401 208.908978 
L 436.382279 207.852216 
L 441.162157 210.447104 
L 445.942036 207.563528 
L 450.721914 209.210132 
L 455.501792 192.549768 
L 460.281671 210.139773 
L 465.061549 207.458775 
L 469.841427 205.107034 
L 474.621306 197.353935 
L 479.401184 196.363752 
L 484.181062 190.487035 
L 488.960941 168.084941 
L 493.740819 192.306534 
L 498.520697 198.583612 
L 503.300576 197.386124 
L 508.080454 185.348462 
L 512.860332 182.293783 
L 517.640211 178.126223 
L 522.420089 199.800752 
L 527.199967 212.809818 
L 531.979846 217.618156 
L 536.759724 218.465648 
L 541.539602 212.105267 
" clip-path="url(#p85fb1ab332)" style="fill: none; stroke: #1f77b4; stroke-width: 1.2; stroke-linecap: square"/>
    <defs>
     <path id="m5f43deb8f2" d="M 0 1.25 
C 0.331504 1.25 0.649475 1.118292 0.883883 0.883883 
C 1.118292 0.649475 1.25 0.331504 1.25 0 
C 1.25 -0.331504 1.118292 -0.649475 0.883883 -0.883883 
C 0.649475 -1.118292 0.331504 -1.25 0 -1.25 
C -0.331504 -1.25 -0.649475 -1.118292 -0.883883 -0.883883 
C -1.118292 -0.649475 -1.25 -0.331504 -1.25 0 
C -1.25 0.331504 -1.118292 0.649475 -0.883883 0.883883 
C -0.649475 1.118292 -0.331504 1.25 0 1.25 
z
" style="stroke: #1f77b4"/>
    </defs>
    <g clip-path="url(#p85fb1ab332)">
     <use xlink:href="#m5f43deb8f2" x="68.331648" y="241.490869" style="fill: #1f77b4; stroke: #1f77b4"/>
     <use xlink:href="#m5f43deb8f2" x="73.111526" y="231.774037" style="fill: #1f77b4; stroke: #1f77b4"/>
     <use xlink:href="#m5f43deb8f2" x="77.891404" y="236.684627" style="fill: #1f77b4; stroke: #1f77b4"/>
     <use xlink:href="#m5f43deb8f2" x="82.671283" y="234.87887" style="fill: #1f77b4; stroke: #1f77b4"/>
     <use xlink:href="#m5f43deb8f2" x="87.451161" y="238.074251" style="fill: #1f77b4; stroke: #1f77b4"/>
     <use xlink:href="#m5f43deb8f2" x="92.231039" y="235.676844" style="fill: #1f77b4; stroke: #1f77b4"/>
     <use xlink:href="#m5f43deb8f2" x="97.010918" y="232.993469" style="fill: #1f77b4; stroke: #1f77b4"/>
     <use xlink:href="#m5f43deb8f2" x="101.790796" y="237.044792" style="fill: #1f77b4; stroke: #1f77b4"/>
     <use xlink:href="#m5f43deb8f2" x="106.570674" y="236.429547" style="fill: #1f77b4; stroke: #1f77b4"/>
     <use xlink:href="#m5f43deb8f2" x="111.350553" y="231.065244" style="fill: #1f77b4; stroke: #1f77b4"/>
     <use xlink:href="#m5f43deb8f2" x="116.130431" y="234.857634" style="fill: #1f77b4; stroke: #1f77b4"/>
     <use xlink:href="#m5f43deb8f2" x="120.910309" y="234.751411" style="fill: #1f77b4; stroke: #1f77b4"/>
     <use xlink:href="#m5f43deb8f2" x="125.690188" y="229.709883" style="fill: #1f77b4; stroke: #1f77b4"/>
     <use xlink:href="#m5f43deb8f2" x="130.470066" y="234.776053" style="fill: #1f77b4; stroke: #1f77b4"/>
     <use xlink:href="#m5f43deb8f2" x="135.249944" y="233.176958" style="fill: #1f77b4; stroke: #1f77b4"/>
     <use xlink:href="#m5f43deb8f2" x="140.029823" y="234.003467" style="fill: #1f77b4; stroke: #1f77b4"/>
     <use xlink:href="#m5f43deb8f2" x="144.809701" y="232.205543" style="fill: #1f77b4; stroke: #1f77b4"/>
     <use xlink:href="#m5f43deb8f2" x="149.589579" y="231.597379" style="fill: #1f77b4; stroke: #1f77b4"/>
     <use xlink:href="#m5f43deb8f2" x="154.369458" y="224.988151" style="fill: #1f77b4; stroke: #1f77b4"/>
     <use xlink:href="#m5f43deb8f2" x="159.149336" y="228.189478" style="fill: #1f77b4; stroke: #1f77b4"/>
     <use xlink:href="#m5f43deb8f2" x="163.929214" y="203.893036" style="fill: #1f77b4; stroke: #1f77b4"/>
     <use xlink:href="#m5f43deb8f2" x="168.709093" y="222.127563" style="fill: #1f77b4; stroke: #1f77b4"/>
     <use xlink:href="#m5f43deb8f2" x="173.488971" y="219.584591" style="fill: #1f77b4; stroke: #1f77b4"/>
     <use xlink:href="#m5f43deb8f2" x="178.268849" y="226.34003" style="fill: #1f77b4; stroke: #1f77b4"/>
     <use xlink:href="#m5f43deb8f2" x="183.048728" y="225.321295" style="fill: #1f77b4; stroke: #1f77b4"/>
     <use xlink:href="#m5f43deb8f2" x="187.828606" y="226.861355" style="fill: #1f77b4; stroke: #1f77b4"/>
     <use xlink:href="#m5f43deb8f2" x="192.608484" y="229.517583" style="fill: #1f77b4; stroke: #1f77b4"/>
     <use xlink:href="#m5f43deb8f2" x="197.388363" y="229.188169" style="fill: #1f77b4; stroke: #1f77b4"/>
     <use xlink:href="#m5f43deb8f2" x="202.168241" y="214.820245" style="fill: #1f77b4; stroke: #1f77b4"/>
     <use xlink:href="#m5f43deb8f2" x="206.948119" y="229.124518" style="fill: #1f77b4; stroke: #1f77b4"/>
     <use xlink:href="#m5f43deb8f2" x="211.727998" y="228.498567" style="fill: #1f77b4; stroke: #1f77b4"/>
     <use xlink:href="#m5f43deb8f2" x="216.507876" y="229.23765" style="fill: #1f77b4; stroke: #1f77b4"/>
     <use xlink:href="#m5f43deb8f2" x="221.287754" y="203.39117" style="fill: #1f77b4; stroke: #1f77b4"/>
     <use xlink:href="#m5f43deb8f2" x="226.067633" y="223.378136" style="fill: #1f77b4; stroke: #1f77b4"/>
     <use xlink:href="#m5f43deb8f2" x="230.847511" y="203.392483" style="fill: #1f77b4; stroke: #1f77b4"/>
     <use xlink:href="#m5f43deb8f2" x="235.627389" y="216.126214" style="fill: #1f77b4; stroke: #1f77b4"/>
     <use xlink:href="#m5f43deb8f2" x="240.407268" y="214.308277" style="fill: #1f77b4; stroke: #1f77b4"/>
     <use xlink:href="#m5f43deb8f2" x="245.187146" y="214.406691" style="fill: #1f77b4; stroke: #1f77b4"/>
     <use xlink:href="#m5f43deb8f2" x="249.967024" y="215.848497" style="fill: #1f77b4; stroke: #1f77b4"/>
     <use xlink:href="#m5f43deb8f2" x="254.746903" y="213.715119" style="fill: #1f77b4; stroke: #1f77b4"/>
     <use xlink:href="#m5f43deb8f2" x="259.526781" y="210.926298" style="fill: #1f77b4; stroke: #1f77b4"/>
     <use xlink:href="#m5f43deb8f2" x="264.306659" y="211.817927" style="fill: #1f77b4; stroke: #1f77b4"/>
     <use xlink:href="#m5f43deb8f2" x="269.086538" y="211.058176" style="fill: #1f77b4; stroke: #1f77b4"/>
     <use xlink:href="#m5f43deb8f2" x="273.866416" y="199.014034" style="fill: #1f77b4; stroke: #1f77b4"/>
     <use xlink:href="#m5f43deb8f2" x="278.646294" y="210.108881" style="fill: #1f77b4; stroke: #1f77b4"/>
     <use xlink:href="#m5f43deb8f2" x="283.426173" y="203.957149" style="fill: #1f77b4; stroke: #1f77b4"/>
     <use xlink:href="#m5f43deb8f2" x="288.206051" y="210.20385" style="fill: #1f77b4; stroke: #1f77b4"/>
     <use xlink:href="#m5f43deb8f2" x="292.985929" y="213.224933" style="fill: #1f77b4; stroke: #1f77b4"/>
     <use xlink:href="#m5f43deb8f2" x="297.765808" y="218.529351" style="fill: #1f77b4; stroke: #1f77b4"/>
     <use xlink:href="#m5f43deb8f2" x="302.545686" y="180.715798" style="fill: #1f77b4; stroke: #1f77b4"/>
     <use xlink:href="#m5f43deb8f2" x="307.325564" y="221.977026" style="fill: #1f77b4; stroke: #1f77b4"/>
     <use xlink:href="#m5f43deb8f2" x="312.105442" y="223.091685" style="fill: #1f77b4; stroke: #1f77b4"/>
     <use xlink:href="#m5f43deb8f2" x="316.885321" y="223.430354" style="fill: #1f77b4; stroke: #1f77b4"/>
     <use xlink:href="#m5f43deb8f2" x="321.665199" y="215.392135" style="fill: #1f77b4; stroke: #1f77b4"/>
     <use xlink:href="#m5f43deb8f2" x="326.445077" y="215.056754" style="fill: #1f77b4; stroke: #1f77b4"/>
     <use xlink:href="#m5f43deb8f2" x="331.224956" y="211.718591" style="fill: #1f77b4; stroke: #1f77b4"/>
     <use xlink:href="#m5f43deb8f2" x="336.004834" y="212.183208" style="fill: #1f77b4; stroke: #1f77b4"/>
     <use xlink:href="#m5f43deb8f2" x="340.784712" y="201.309404" style="fill: #1f77b4; stroke: #1f77b4"/>
     <use xlink:href="#m5f43deb8f2" x="345.564591" y="214.208002" style="fill: #1f77b4; stroke: #1f77b4"/>
     <use xlink:href="#m5f43deb8f2" x="350.344469" y="213.969716" style="fill: #1f77b4; stroke: #1f77b4"/>
     <use xlink:href="#m5f43deb8f2" x="355.124347" y="213.600832" style="fill: #1f77b4; stroke: #1f77b4"/>
     <use xlink:href="#m5f43deb8f2" x="359.904226" y="213.589488" style="fill: #1f77b4; stroke: #1f77b4"/>
     <use xlink:href="#m5f43deb8f2" x="364.684104" y="213.290538" style="fill: #1f77b4; stroke: #1f77b4"/>
     <use xlink:href="#m5f43deb8f2" x="369.463982" y="184.16555" style="fill: #1f77b4; stroke: #1f77b4"/>
     <use xlink:href="#m5f43deb8f2" x="374.243861" y="214.694881" style="fill: #1f77b4; stroke: #1f77b4"/>
     <use xlink:href="#m5f43deb8f2" x="379.023739" y="208.981844" style="fill: #1f77b4; stroke: #1f77b4"/>
     <use xlink:href="#m5f43deb8f2" x="383.803617" y="213.896374" style="fill: #1f77b4; stroke: #1f77b4"/>
     <use xlink:href="#m5f43deb8f2" x="388.583496" y="205.977573" style="fill: #1f77b4; stroke: #1f77b4"/>
     <use xlink:href="#m5f43deb8f2" x="393.363374" y="212.401994" style="fill: #1f77b4; stroke: #1f77b4"/>
     <use xlink:href="#m5f43deb8f2" x="398.143252" y="207.256053" style="fill: #1f77b4; stroke: #1f77b4"/>
     <use xlink:href="#m5f43deb8f2" x="402.923131" y="208.497323" style="fill: #1f77b4; stroke: #1f77b4"/>
     <use xlink:href="#m5f43deb8f2" x="407.703009" y="210.76972" style="fill: #1f77b4; stroke: #1f77b4"/>
     <use xlink:href="#m5f43deb8f2" x="412.482887" y="212.165826" style="fill: #1f77b4; stroke: #1f77b4"/>
     <use xlink:href="#m5f43deb8f2" x="417.262766" y="205.670083" style="fill: #1f77b4; stroke: #1f77b4"/>
     <use xlink:href="#m5f43deb8f2" x="422.042644" y="208.863049" style="fill: #1f77b4; stroke: #1f77b4"/>
     <use xlink:href="#m5f43deb8f2" x="426.822522" y="209.516093" style="fill: #1f77b4; stroke: #1f77b4"/>
     <use xlink:href="#m5f43deb8f2" x="431.602401" y="208.908978" style="fill: #1f77b4; stroke: #1f77b4"/>
     <use xlink:href="#m5f43deb8f2" x="436.382279" y="207.852216" style="fill: #1f77b4; stroke: #1f77b4"/>
     <use xlink:href="#m5f43deb8f2" x="441.162157" y="210.447104" style="fill: #1f77b4; stroke: #1f77b4"/>
     <use xlink:href="#m5f43deb8f2" x="445.942036" y="207.563528" style="fill: #1f77b4; stroke: #1f77b4"/>
     <use xlink:href="#m5f43deb8f2" x="450.721914" y="209.210132" style="fill: #1f77b4; stroke: #1f77b4"/>
     <use xlink:href="#m5f43deb8f2" x="455.501792" y="192.549768" style="fill: #1f77b4; stroke: #1f77b4"/>
     <use xlink:href="#m5f43deb8f2" x="460.281671" y="210.139773" style="fill: #1f77b4; stroke: #1f77b4"/>
     <use xlink:href="#m5f43deb8f2" x="465.061549" y="207.458775" style="fill: #1f77b4; stroke: #1f77b4"/>
     <use xlink:href="#m5f43deb8f2" x="469.841427" y="205.107034" style="fill: #1f77b4; stroke: #1f77b4"/>
     <use xlink:href="#m5f43deb8f2" x="474.621306" y="197.353935" style="fill: #1f77b4; stroke: #1f77b4"/>
     <use xlink:href="#m5f43deb8f2" x="479.401184" y="196.363752" style="fill: #1f77b4; stroke: #1f77b4"/>
     <use xlink:href="#m5f43deb8f2" x="484.181062" y="190.487035" style="fill: #1f77b4; stroke: #1f77b4"/>
     <use xlink:href="#m5f43deb8f2" x="488.960941" y="168.084941" style="fill: #1f77b4; stroke: #1f77b4"/>
     <use xlink:href="#m5f43deb8f2" x="493.740819" y="192.306534" style="fill: #1f77b4; stroke: #1f77b4"/>
     <use xlink:href="#m5f43deb8f2" x="498.520697" y="198.583612" style="fill: #1f77b4; stroke: #1f77b4"/>
     <use xlink:href="#m5f43deb8f2" x="503.300576" y="197.386124" style="fill: #1f77b4; stroke: #1f77b4"/>
     <use xlink:href="#m5f43deb8f2" x="508.080454" y="185.348462" style="fill: #1f77b4; stroke: #1f77b4"/>
     <use xlink:href="#m5f43deb8f2" x="512.860332" y="182.293783" style="fill: #1f77b4; stroke: #1f77b4"/>
     <use xlink:href="#m5f43deb8f2" x="517.640211" y="178.126223" style="fill: #1f77b4; stroke: #1f77b4"/>
     <use xlink:href="#m5f43deb8f2" x="522.420089" y="199.800752" style="fill: #1f77b4; stroke: #1f77b4"/>
     <use xlink:href="#m5f43deb8f2" x="527.199967" y="212.809818" style="fill: #1f77b4; stroke: #1f77b4"/>
     <use xlink:href="#m5f43deb8f2" x="531.979846" y="217.618156" style="fill: #1f77b4; stroke: #1f77b4"/>
     <use xlink:href="#m5f43deb8f2" x="536.759724" y="218.465648" style="fill: #1f77b4; stroke: #1f77b4"/>
     <use xlink:href="#m5f43deb8f2" x="541.539602" y="212.105267" style="fill: #1f77b4; stroke: #1f77b4"/>
    </g>
   </g>
   <g id="line2d_24">
    <path d="M 68.331648 238.407591 
L 73.111526 231.285149 
L 77.891404 233.778535 
L 82.671283 236.862205 
L 87.451161 233.612796 
L 92.231039 227.69409 
L 97.010918 228.542456 
L 101.790796 230.614988 
L 106.570674 233.061077 
L 111.350553 228.595541 
L 116.130431 228.597938 
L 120.910309 221.165698 
L 125.690188 231.37417 
L 130.470066 212.827146 
L 135.249944 229.501748 
L 140.029823 230.741685 
L 144.809701 228.863846 
L 149.589579 227.770632 
L 154.369458 228.772606 
L 159.149336 226.803066 
L 163.929214 227.382572 
L 168.709093 227.250408 
L 173.488971 220.672496 
L 178.268849 224.637996 
L 183.048728 226.022472 
L 187.828606 226.852388 
L 192.608484 226.02027 
L 197.388363 226.976529 
L 202.168241 221.538204 
L 206.948119 226.657196 
L 211.727998 199.739659 
L 216.507876 226.166603 
L 221.287754 218.746101 
L 226.067633 219.728313 
L 230.847511 216.264679 
L 235.627389 212.295894 
L 240.407268 210.515474 
L 245.187146 209.078555 
L 249.967024 209.95873 
L 254.746903 208.636395 
L 259.526781 204.356126 
L 264.306659 207.57695 
L 269.086538 189.78582 
L 273.866416 204.105574 
L 278.646294 205.851161 
L 283.426173 205.904476 
L 288.206051 198.302523 
L 292.985929 207.906402 
L 297.765808 215.209566 
L 302.545686 215.482594 
L 307.325564 218.844673 
L 312.105442 194.937658 
L 316.885321 219.620454 
L 321.665199 211.89697 
L 326.445077 211.150837 
L 331.224956 190.77013 
L 336.004834 209.543507 
L 340.784712 209.406265 
L 345.564591 210.600876 
L 350.344469 200.048535 
L 355.124347 202.450645 
L 359.904226 184.650177 
L 364.684104 204.951204 
L 369.463982 210.300612 
L 374.243861 202.217405 
L 379.023739 180.644058 
L 383.803617 206.558959 
L 388.583496 208.711301 
L 393.363374 208.057492 
L 398.143252 196.0425 
L 402.923131 206.943149 
L 407.703009 197.883606 
L 412.482887 206.475639 
L 417.262766 207.327071 
L 422.042644 204.835728 
L 426.822522 205.912165 
L 431.602401 204.363513 
L 436.382279 204.067793 
L 441.162157 205.457951 
L 445.942036 180.068492 
L 450.721914 204.401293 
L 455.501792 200.277922 
L 460.281671 197.4472 
L 465.061549 202.117198 
L 469.841427 199.972528 
L 474.621306 201.279204 
L 479.401184 201.991761 
L 484.181062 196.502697 
L 488.960941 196.771713 
L 493.740819 194.767977 
L 498.520697 192.509624 
L 503.300576 158.328889 
L 508.080454 185.632318 
L 512.860332 191.00186 
L 517.640211 187.527451 
L 522.420089 196.179247 
L 527.199967 207.812304 
L 531.979846 201.840014 
L 536.759724 215.281383 
L 541.539602 172.46 
" clip-path="url(#p85fb1ab332)" style="fill: none; stroke: #ff7f0e; stroke-width: 1.2; stroke-linecap: square"/>
    <defs>
     <path id="mf5a3b098b7" d="M 0 1.25 
C 0.331504 1.25 0.649475 1.118292 0.883883 0.883883 
C 1.118292 0.649475 1.25 0.331504 1.25 0 
C 1.25 -0.331504 1.118292 -0.649475 0.883883 -0.883883 
C 0.649475 -1.118292 0.331504 -1.25 0 -1.25 
C -0.331504 -1.25 -0.649475 -1.118292 -0.883883 -0.883883 
C -1.118292 -0.649475 -1.25 -0.331504 -1.25 0 
C -1.25 0.331504 -1.118292 0.649475 -0.883883 0.883883 
C -0.649475 1.118292 -0.331504 1.25 0 1.25 
z
" style="stroke: #ff7f0e"/>
    </defs>
    <g clip-path="url(#p85fb1ab332)">
     <use xlink:href="#mf5a3b098b7" x="68.331648" y="238.407591" style="fill: #ff7f0e; stroke: #ff7f0e"/>
     <use xlink:href="#mf5a3b098b7" x="73.111526" y="231.285149" style="fill: #ff7f0e; stroke: #ff7f0e"/>
     <use xlink:href="#mf5a3b098b7" x="77.891404" y="233.778535" style="fill: #ff7f0e; stroke: #ff7f0e"/>
     <use xlink:href="#mf5a3b098b7" x="82.671283" y="236.862205" style="fill: #ff7f0e; stroke: #ff7f0e"/>
     <use xlink:href="#mf5a3b098b7" x="87.451161" y="233.612796" style="fill: #ff7f0e; stroke: #ff7f0e"/>
     <use xlink:href="#mf5a3b098b7" x="92.231039" y="227.69409" style="fill: #ff7f0e; stroke: #ff7f0e"/>
     <use xlink:href="#mf5a3b098b7" x="97.010918" y="228.542456" style="fill: #ff7f0e; stroke: #ff7f0e"/>
     <use xlink:href="#mf5a3b098b7" x="101.790796" y="230.614988" style="fill: #ff7f0e; stroke: #ff7f0e"/>
     <use xlink:href="#mf5a3b098b7" x="106.570674" y="233.061077" style="fill: #ff7f0e; stroke: #ff7f0e"/>
     <use xlink:href="#mf5a3b098b7" x="111.350553" y="228.595541" style="fill: #ff7f0e; stroke: #ff7f0e"/>
     <use xlink:href="#mf5a3b098b7" x="116.130431" y="228.597938" style="fill: #ff7f0e; stroke: #ff7f0e"/>
     <use xlink:href="#mf5a3b098b7" x="120.910309" y="221.165698" style="fill: #ff7f0e; stroke: #ff7f0e"/>
     <use xlink:href="#mf5a3b098b7" x="125.690188" y="231.37417" style="fill: #ff7f0e; stroke: #ff7f0e"/>
     <use xlink:href="#mf5a3b098b7" x="130.470066" y="212.827146" style="fill: #ff7f0e; stroke: #ff7f0e"/>
     <use xlink:href="#mf5a3b098b7" x="135.249944" y="229.501748" style="fill: #ff7f0e; stroke: #ff7f0e"/>
     <use xlink:href="#mf5a3b098b7" x="140.029823" y="230.741685" style="fill: #ff7f0e; stroke: #ff7f0e"/>
     <use xlink:href="#mf5a3b098b7" x="144.809701" y="228.863846" style="fill: #ff7f0e; stroke: #ff7f0e"/>
     <use xlink:href="#mf5a3b098b7" x="149.589579" y="227.770632" style="fill: #ff7f0e; stroke: #ff7f0e"/>
     <use xlink:href="#mf5a3b098b7" x="154.369458" y="228.772606" style="fill: #ff7f0e; stroke: #ff7f0e"/>
     <use xlink:href="#mf5a3b098b7" x="159.149336" y="226.803066" style="fill: #ff7f0e; stroke: #ff7f0e"/>
     <use xlink:href="#mf5a3b098b7" x="163.929214" y="227.382572" style="fill: #ff7f0e; stroke: #ff7f0e"/>
     <use xlink:href="#mf5a3b098b7" x="168.709093" y="227.250408" style="fill: #ff7f0e; stroke: #ff7f0e"/>
     <use xlink:href="#mf5a3b098b7" x="173.488971" y="220.672496" style="fill: #ff7f0e; stroke: #ff7f0e"/>
     <use xlink:href="#mf5a3b098b7" x="178.268849" y="224.637996" style="fill: #ff7f0e; stroke: #ff7f0e"/>
     <use xlink:href="#mf5a3b098b7" x="183.048728" y="226.022472" style="fill: #ff7f0e; stroke: #ff7f0e"/>
     <use xlink:href="#mf5a3b098b7" x="187.828606" y="226.852388" style="fill: #ff7f0e; stroke: #ff7f0e"/>
     <use xlink:href="#mf5a3b098b7" x="192.608484" y="226.02027" style="fill: #ff7f0e; stroke: #ff7f0e"/>
     <use xlink:href="#mf5a3b098b7" x="197.388363" y="226.976529" style="fill: #ff7f0e; stroke: #ff7f0e"/>
     <use xlink:href="#mf5a3b098b7" x="202.168241" y="221.538204" style="fill: #ff7f0e; stroke: #ff7f0e"/>
     <use xlink:href="#mf5a3b098b7" x="206.948119" y="226.657196" style="fill: #ff7f0e; stroke: #ff7f0e"/>
     <use xlink:href="#mf5a3b098b7" x="211.727998" y="199.739659" style="fill: #ff7f0e; stroke: #ff7f0e"/>
     <use xlink:href="#mf5a3b098b7" x="216.507876" y="226.166603" style="fill: #ff7f0e; stroke: #ff7f0e"/>
     <use xlink:href="#mf5a3b098b7" x="221.287754" y="218.746101" style="fill: #ff7f0e; stroke: #ff7f0e"/>
     <use xlink:href="#mf5a3b098b7" x="226.067633" y="219.728313" style="fill: #ff7f0e; stroke: #ff7f0e"/>
     <use xlink:href="#mf5a3b098b7" x="230.847511" y="216.264679" style="fill: #ff7f0e; stroke: #ff7f0e"/>
     <use xlink:href="#mf5a3b098b7" x="235.627389" y="212.295894" style="fill: #ff7f0e; stroke: #ff7f0e"/>
     <use xlink:href="#mf5a3b098b7" x="240.407268" y="210.515474" style="fill: #ff7f0e; stroke: #ff7f0e"/>
     <use xlink:href="#mf5a3b098b7" x="245.187146" y="209.078555" style="fill: #ff7f0e; stroke: #ff7f0e"/>
     <use xlink:href="#mf5a3b098b7" x="249.967024" y="209.95873" style="fill: #ff7f0e; stroke: #ff7f0e"/>
     <use xlink:href="#mf5a3b098b7" x="254.746903" y="208.636395" style="fill: #ff7f0e; stroke: #ff7f0e"/>
     <use xlink:href="#mf5a3b098b7" x="259.526781" y="204.356126" style="fill: #ff7f0e; stroke: #ff7f0e"/>
     <use xlink:href="#mf5a3b098b7" x="264.306659" y="207.57695" style="fill: #ff7f0e; stroke: #ff7f0e"/>
     <use xlink:href="#mf5a3b098b7" x="269.086538" y="189.78582" style="fill: #ff7f0e; stroke: #ff7f0e"/>
     <use xlink:href="#mf5a3b098b7" x="273.866416" y="204.105574" style="fill: #ff7f0e; stroke: #ff7f0e"/>
     <use xlink:href="#mf5a3b098b7" x="278.646294" y="205.851161" style="fill: #ff7f0e; stroke: #ff7f0e"/>
     <use xlink:href="#mf5a3b098b7" x="283.426173" y="205.904476" style="fill: #ff7f0e; stroke: #ff7f0e"/>
     <use xlink:href="#mf5a3b098b7" x="288.206051" y="198.302523" style="fill: #ff7f0e; stroke: #ff7f0e"/>
     <use xlink:href="#mf5a3b098b7" x="292.985929" y="207.906402" style="fill: #ff7f0e; stroke: #ff7f0e"/>
     <use xlink:href="#mf5a3b098b7" x="297.765808" y="215.209566" style="fill: #ff7f0e; stroke: #ff7f0e"/>
     <use xlink:href="#mf5a3b098b7" x="302.545686" y="215.482594" style="fill: #ff7f0e; stroke: #ff7f0e"/>
     <use xlink:href="#mf5a3b098b7" x="307.325564" y="218.844673" style="fill: #ff7f0e; stroke: #ff7f0e"/>
     <use xlink:href="#mf5a3b098b7" x="312.105442" y="194.937658" style="fill: #ff7f0e; stroke: #ff7f0e"/>
     <use xlink:href="#mf5a3b098b7" x="316.885321" y="219.620454" style="fill: #ff7f0e; stroke: #ff7f0e"/>
     <use xlink:href="#mf5a3b098b7" x="321.665199" y="211.89697" style="fill: #ff7f0e; stroke: #ff7f0e"/>
     <use xlink:href="#mf5a3b098b7" x="326.445077" y="211.150837" style="fill: #ff7f0e; stroke: #ff7f0e"/>
     <use xlink:href="#mf5a3b098b7" x="331.224956" y="190.77013" style="fill: #ff7f0e; stroke: #ff7f0e"/>
     <use xlink:href="#mf5a3b098b7" x="336.004834" y="209.543507" style="fill: #ff7f0e; stroke: #ff7f0e"/>
     <use xlink:href="#mf5a3b098b7" x="340.784712" y="209.406265" style="fill: #ff7f0e; stroke: #ff7f0e"/>
     <use xlink:href="#mf5a3b098b7" x="345.564591" y="210.600876" style="fill: #ff7f0e; stroke: #ff7f0e"/>
     <use xlink:href="#mf5a3b098b7" x="350.344469" y="200.048535" style="fill: #ff7f0e; stroke: #ff7f0e"/>
     <use xlink:href="#mf5a3b098b7" x="355.124347" y="202.450645" style="fill: #ff7f0e; stroke: #ff7f0e"/>
     <use xlink:href="#mf5a3b098b7" x="359.904226" y="184.650177" style="fill: #ff7f0e; stroke: #ff7f0e"/>
     <use xlink:href="#mf5a3b098b7" x="364.684104" y="204.951204" style="fill: #ff7f0e; stroke: #ff7f0e"/>
     <use xlink:href="#mf5a3b098b7" x="369.463982" y="210.300612" style="fill: #ff7f0e; stroke: #ff7f0e"/>
     <use xlink:href="#mf5a3b098b7" x="374.243861" y="202.217405" style="fill: #ff7f0e; stroke: #ff7f0e"/>
     <use xlink:href="#mf5a3b098b7" x="379.023739" y="180.644058" style="fill: #ff7f0e; stroke: #ff7f0e"/>
     <use xlink:href="#mf5a3b098b7" x="383.803617" y="206.558959" style="fill: #ff7f0e; stroke: #ff7f0e"/>
     <use xlink:href="#mf5a3b098b7" x="388.583496" y="208.711301" style="fill: #ff7f0e; stroke: #ff7f0e"/>
     <use xlink:href="#mf5a3b098b7" x="393.363374" y="208.057492" style="fill: #ff7f0e; stroke: #ff7f0e"/>
     <use xlink:href="#mf5a3b098b7" x="398.143252" y="196.0425" style="fill: #ff7f0e; stroke: #ff7f0e"/>
     <use xlink:href="#mf5a3b098b7" x="402.923131" y="206.943149" style="fill: #ff7f0e; stroke: #ff7f0e"/>
     <use xlink:href="#mf5a3b098b7" x="407.703009" y="197.883606" style="fill: #ff7f0e; stroke: #ff7f0e"/>
     <use xlink:href="#mf5a3b098b7" x="412.482887" y="206.475639" style="fill: #ff7f0e; stroke: #ff7f0e"/>
     <use xlink:href="#mf5a3b098b7" x="417.262766" y="207.327071" style="fill: #ff7f0e; stroke: #ff7f0e"/>
     <use xlink:href="#mf5a3b098b7" x="422.042644" y="204.835728" style="fill: #ff7f0e; stroke: #ff7f0e"/>
     <use xlink:href="#mf5a3b098b7" x="426.822522" y="205.912165" style="fill: #ff7f0e; stroke: #ff7f0e"/>
     <use xlink:href="#mf5a3b098b7" x="431.602401" y="204.363513" style="fill: #ff7f0e; stroke: #ff7f0e"/>
     <use xlink:href="#mf5a3b098b7" x="436.382279" y="204.067793" style="fill: #ff7f0e; stroke: #ff7f0e"/>
     <use xlink:href="#mf5a3b098b7" x="441.162157" y="205.457951" style="fill: #ff7f0e; stroke: #ff7f0e"/>
     <use xlink:href="#mf5a3b098b7" x="445.942036" y="180.068492" style="fill: #ff7f0e; stroke: #ff7f0e"/>
     <use xlink:href="#mf5a3b098b7" x="450.721914" y="204.401293" style="fill: #ff7f0e; stroke: #ff7f0e"/>
     <use xlink:href="#mf5a3b098b7" x="455.501792" y="200.277922" style="fill: #ff7f0e; stroke: #ff7f0e"/>
     <use xlink:href="#mf5a3b098b7" x="460.281671" y="197.4472" style="fill: #ff7f0e; stroke: #ff7f0e"/>
     <use xlink:href="#mf5a3b098b7" x="465.061549" y="202.117198" style="fill: #ff7f0e; stroke: #ff7f0e"/>
     <use xlink:href="#mf5a3b098b7" x="469.841427" y="199.972528" style="fill: #ff7f0e; stroke: #ff7f0e"/>
     <use xlink:href="#mf5a3b098b7" x="474.621306" y="201.279204" style="fill: #ff7f0e; stroke: #ff7f0e"/>
     <use xlink:href="#mf5a3b098b7" x="479.401184" y="201.991761" style="fill: #ff7f0e; stroke: #ff7f0e"/>
     <use xlink:href="#mf5a3b098b7" x="484.181062" y="196.502697" style="fill: #ff7f0e; stroke: #ff7f0e"/>
     <use xlink:href="#mf5a3b098b7" x="488.960941" y="196.771713" style="fill: #ff7f0e; stroke: #ff7f0e"/>
     <use xlink:href="#mf5a3b098b7" x="493.740819" y="194.767977" style="fill: #ff7f0e; stroke: #ff7f0e"/>
     <use xlink:href="#mf5a3b098b7" x="498.520697" y="192.509624" style="fill: #ff7f0e; stroke: #ff7f0e"/>
     <use xlink:href="#mf5a3b098b7" x="503.300576" y="158.328889" style="fill: #ff7f0e; stroke: #ff7f0e"/>
     <use xlink:href="#mf5a3b098b7" x="508.080454" y="185.632318" style="fill: #ff7f0e; stroke: #ff7f0e"/>
     <use xlink:href="#mf5a3b098b7" x="512.860332" y="191.00186" style="fill: #ff7f0e; stroke: #ff7f0e"/>
     <use xlink:href="#mf5a3b098b7" x="517.640211" y="187.527451" style="fill: #ff7f0e; stroke: #ff7f0e"/>
     <use xlink:href="#mf5a3b098b7" x="522.420089" y="196.179247" style="fill: #ff7f0e; stroke: #ff7f0e"/>
     <use xlink:href="#mf5a3b098b7" x="527.199967" y="207.812304" style="fill: #ff7f0e; stroke: #ff7f0e"/>
     <use xlink:href="#mf5a3b098b7" x="531.979846" y="201.840014" style="fill: #ff7f0e; stroke: #ff7f0e"/>
     <use xlink:href="#mf5a3b098b7" x="536.759724" y="215.281383" style="fill: #ff7f0e; stroke: #ff7f0e"/>
     <use xlink:href="#mf5a3b098b7" x="541.539602" y="172.46" style="fill: #ff7f0e; stroke: #ff7f0e"/>
    </g>
   </g>
   <g id="patch_3">
    <path d="M 44.67125 318.04 
L 44.67125 26.88 
" style="fill: none; stroke: #000000; stroke-width: 0.8; stroke-linejoin: miter; stroke-linecap: square"/>
   </g>
   <g id="patch_4">
    <path d="M 565.2 318.04 
L 565.2 26.88 
" style="fill: none; stroke: #000000; stroke-width: 0.8; stroke-linejoin: miter; stroke-linecap: square"/>
   </g>
   <g id="patch_5">
    <path d="M 44.67125 318.04 
L 565.2 318.04 
" style="fill: none; stroke: #000000; stroke-width: 0.8; stroke-linejoin: miter; stroke-linecap: square"/>
   </g>
   <g id="patch_6">
    <path d="M 44.67125 26.88 
L 565.2 26.88 
" style="fill: none; stroke: #000000; stroke-width: 0.8; stroke-linejoin: miter; stroke-linecap: square"/>
   </g>
   <g id="text_14">
    <!-- Verification latency vs draft length, context_len=32 -->
    <g transform="translate(150.188125 20.88) scale(0.12 -0.12)">
     <defs>
      <path id="DejaVuSans-56" d="M 1831 0 
L 50 4666 
L 709 4666 
L 2188 738 
L 3669 4666 
L 4325 4666 
L 2547 0 
L 1831 0 
z
" transform="scale(0.015625)"/>
      <path id="DejaVuSans-69" d="M 603 3500 
L 1178 3500 
L 1178 0 
L 603 0 
L 603 3500 
z
M 603 4863 
L 1178 4863 
L 1178 4134 
L 603 4134 
L 603 4863 
z
" transform="scale(0.015625)"/>
      <path id="DejaVuSans-6f" d="M 1959 3097 
Q 1497 3097 1228 2736 
Q 959 2375 959 1747 
Q 959 1119 1226 758 
Q 1494 397 1959 397 
Q 2419 397 2687 759 
Q 2956 1122 2956 1747 
Q 2956 2369 2687 2733 
Q 2419 3097 1959 3097 
z
M 1959 3584 
Q 2709 3584 3137 3096 
Q 3566 2609 3566 1747 
Q 3566 888 3137 398 
Q 2709 -91 1959 -91 
Q 1206 -91 779 398 
Q 353 888 353 1747 
Q 353 2609 779 3096 
Q 1206 3584 1959 3584 
z
" transform="scale(0.015625)"/>
      <path id="DejaVuSans-79" d="M 2059 -325 
Q 1816 -950 1584 -1140 
Q 1353 -1331 966 -1331 
L 506 -1331 
L 506 -850 
L 844 -850 
Q 1081 -850 1212 -737 
Q 1344 -625 1503 -206 
L 1606 56 
L 191 3500 
L 800 3500 
L 1894 763 
L 2988 3500 
L 3597 3500 
L 2059 -325 
z
" transform="scale(0.015625)"/>
      <path id="DejaVuSans-76" d="M 191 3500 
L 800 3500 
L 1894 563 
L 2988 3500 
L 3597 3500 
L 2284 0 
L 1503 0 
L 191 3500 
z
" transform="scale(0.015625)"/>
      <path id="DejaVuSans-2c" d="M 750 794 
L 1409 794 
L 1409 256 
L 897 -744 
L 494 -744 
L 750 256 
L 750 794 
z
" transform="scale(0.015625)"/>
      <path id="DejaVuSans-78" d="M 3513 3500 
L 2247 1797 
L 3578 0 
L 2900 0 
L 1881 1375 
L 863 0 
L 184 0 
L 1544 1831 
L 300 3500 
L 978 3500 
L 1906 2253 
L 2834 3500 
L 3513 3500 
z
" transform="scale(0.015625)"/>
      <path id="DejaVuSans-3d" d="M 678 2906 
L 4684 2906 
L 4684 2381 
L 678 2381 
L 678 2906 
z
M 678 1631 
L 4684 1631 
L 4684 1100 
L 678 1100 
L 678 1631 
z
" transform="scale(0.015625)"/>
     </defs>
     <use xlink:href="#DejaVuSans-56"/>
     <use xlink:href="#DejaVuSans-65" transform="translate(60.658203 0)"/>
     <use xlink:href="#DejaVuSans-72" transform="translate(122.181641 0)"/>
     <use xlink:href="#DejaVuSans-69" transform="translate(163.294922 0)"/>
     <use xlink:href="#DejaVuSans-66" transform="translate(191.078125 0)"/>
     <use xlink:href="#DejaVuSans-69" transform="translate(226.283203 0)"/>
     <use xlink:href="#DejaVuSans-63" transform="translate(254.066406 0)"/>
     <use xlink:href="#DejaVuSans-61" transform="translate(309.046875 0)"/>
     <use xlink:href="#DejaVuSans-74" transform="translate(370.326172 0)"/>
     <use xlink:href="#DejaVuSans-69" transform="translate(409.535156 0)"/>
     <use xlink:href="#DejaVuSans-6f" transform="translate(437.318359 0)"/>
     <use xlink:href="#DejaVuSans-6e" transform="translate(498.5 0)"/>
     <use xlink:href="#DejaVuSans-20" transform="translate(561.878906 0)"/>
     <use xlink:href="#DejaVuSans-6c" transform="translate(593.666016 0)"/>
     <use xlink:href="#DejaVuSans-61" transform="translate(621.449219 0)"/>
     <use xlink:href="#DejaVuSans-74" transform="translate(682.728516 0)"/>
     <use xlink:href="#DejaVuSans-65" transform="translate(721.9375 0)"/>
     <use xlink:href="#DejaVuSans-6e" transform="translate(783.460938 0)"/>
     <use xlink:href="#DejaVuSans-63" transform="translate(846.839844 0)"/>
     <use xlink:href="#DejaVuSans-79" transform="translate(901.820312 0)"/>
     <use xlink:href="#DejaVuSans-20" transform="translate(961 0)"/>
     <use xlink:href="#DejaVuSans-76" transform="translate(992.787109 0)"/>
     <use xlink:href="#DejaVuSans-73" transform="translate(1051.966797 0)"/>
     <use xlink:href="#DejaVuSans-20" transform="translate(1104.066406 0)"/>
     <use xlink:href="#DejaVuSans-64" transform="translate(1135.853516 0)"/>
     <use xlink:href="#DejaVuSans-72" transform="translate(1199.330078 0)"/>
     <use xlink:href="#DejaVuSans-61" transform="translate(1240.443359 0)"/>
     <use xlink:href="#DejaVuSans-66" transform="translate(1301.722656 0)"/>
     <use xlink:href="#DejaVuSans-74" transform="translate(1335.177734 0)"/>
     <use xlink:href="#DejaVuSans-20" transform="translate(1374.386719 0)"/>
     <use xlink:href="#DejaVuSans-6c" transform="translate(1406.173828 0)"/>
     <use xlink:href="#DejaVuSans-65" transform="translate(1433.957031 0)"/>
     <use xlink:href="#DejaVuSans-6e" transform="translate(1495.480469 0)"/>
     <use xlink:href="#DejaVuSans-67" transform="translate(1558.859375 0)"/>
     <use xlink:href="#DejaVuSans-74" transform="translate(1622.335938 0)"/>
     <use xlink:href="#DejaVuSans-68" transform="translate(1661.544922 0)"/>
     <use xlink:href="#DejaVuSans-2c" transform="translate(1724.923828 0)"/>
     <use xlink:href="#DejaVuSans-20" transform="translate(1756.710938 0)"/>
     <use xlink:href="#DejaVuSans-63" transform="translate(1788.498047 0)"/>
     <use xlink:href="#DejaVuSans-6f" transform="translate(1843.478516 0)"/>
     <use xlink:href="#DejaVuSans-6e" transform="translate(1904.660156 0)"/>
     <use xlink:href="#DejaVuSans-74" transform="translate(1968.039062 0)"/>
     <use xlink:href="#DejaVuSans-65" transform="translate(2007.248047 0)"/>
     <use xlink:href="#DejaVuSans-78" transform="translate(2067.021484 0)"/>
     <use xlink:href="#DejaVuSans-74" transform="translate(2126.201172 0)"/>
     <use xlink:href="#DejaVuSans-5f" transform="translate(2165.410156 0)"/>
     <use xlink:href="#DejaVuSans-6c" transform="translate(2215.410156 0)"/>
     <use xlink:href="#DejaVuSans-65" transform="translate(2243.193359 0)"/>
     <use xlink:href="#DejaVuSans-6e" transform="translate(2304.716797 0)"/>
     <use xlink:href="#DejaVuSans-3d" transform="translate(2368.095703 0)"/>
     <use xlink:href="#DejaVuSans-33" transform="translate(2451.884766 0)"/>
     <use xlink:href="#DejaVuSans-32" transform="translate(2515.507812 0)"/>
    </g>
   </g>
   <g id="legend_1">
    <g id="patch_7">
     <path d="M 51.67125 64.7925 
L 195.649375 64.7925 
Q 197.649375 64.7925 197.649375 62.7925 
L 197.649375 33.88 
Q 197.649375 31.88 195.649375 31.88 
L 51.67125 31.88 
Q 49.67125 31.88 49.67125 33.88 
L 49.67125 62.7925 
Q 49.67125 64.7925 51.67125 64.7925 
z
" style="fill: #ffffff; opacity: 0.8; stroke: #cccccc; stroke-linejoin: miter"/>
    </g>
    <g id="line2d_25">
     <path d="M 53.67125 39.978437 
L 63.67125 39.978437 
L 73.67125 39.978437 
" style="fill: none; stroke: #1f77b4; stroke-width: 1.2; stroke-linecap: square"/>
     <g>
      <use xlink:href="#m5f43deb8f2" x="63.67125" y="39.978437" style="fill: #1f77b4; stroke: #1f77b4"/>
     </g>
    </g>
    <g id="text_15">
     <!-- target_only -->
     <g transform="translate(81.67125 43.478437) scale(0.1 -0.1)">
      <use xlink:href="#DejaVuSans-74"/>
      <use xlink:href="#DejaVuSans-61" transform="translate(39.208984 0)"/>
      <use xlink:href="#DejaVuSans-72" transform="translate(100.488281 0)"/>
      <use xlink:href="#DejaVuSans-67" transform="translate(139.851562 0)"/>
      <use xlink:href="#DejaVuSans-65" transform="translate(203.328125 0)"/>
      <use xlink:href="#DejaVuSans-74" transform="translate(264.851562 0)"/>
      <use xlink:href="#DejaVuSans-5f" transform="translate(304.060547 0)"/>
      <use xlink:href="#DejaVuSans-6f" transform="translate(354.060547 0)"/>
      <use xlink:href="#DejaVuSans-6e" transform="translate(415.242188 0)"/>
      <use xlink:href="#DejaVuSans-6c" transform="translate(478.621094 0)"/>
      <use xlink:href="#DejaVuSans-79" transform="translate(506.404297 0)"/>
     </g>
    </g>
    <g id="line2d_26">
     <path d="M 53.67125 54.934687 
L 63.67125 54.934687 
L 73.67125 54.934687 
" style="fill: none; stroke: #ff7f0e; stroke-width: 1.2; stroke-linecap: square"/>
     <g>
      <use xlink:href="#mf5a3b098b7" x="63.67125" y="54.934687" style="fill: #ff7f0e; stroke: #ff7f0e"/>
     </g>
    </g>
    <g id="text_16">
     <!-- classic_spec_sampling -->
     <g transform="translate(81.67125 58.434687) scale(0.1 -0.1)">
      <defs>
       <path id="DejaVuSans-70" d="M 1159 525 
L 1159 -1331 
L 581 -1331 
L 581 3500 
L 1159 3500 
L 1159 2969 
Q 1341 3281 1617 3432 
Q 1894 3584 2278 3584 
Q 2916 3584 3314 3078 
Q 3713 2572 3713 1747 
Q 3713 922 3314 415 
Q 2916 -91 2278 -91 
Q 1894 -91 1617 61 
Q 1341 213 1159 525 
z
M 3116 1747 
Q 3116 2381 2855 2742 
Q 2594 3103 2138 3103 
Q 1681 3103 1420 2742 
Q 1159 2381 1159 1747 
Q 1159 1113 1420 752 
Q 1681 391 2138 391 
Q 2594 391 2855 752 
Q 3116 1113 3116 1747 
z
" transform="scale(0.015625)"/>
      </defs>
      <use xlink:href="#DejaVuSans-63"/>
      <use xlink:href="#DejaVuSans-6c" transform="translate(54.980469 0)"/>
      <use xlink:href="#DejaVuSans-61" transform="translate(82.763672 0)"/>
      <use xlink:href="#DejaVuSans-73" transform="translate(144.042969 0)"/>
      <use xlink:href="#DejaVuSans-73" transform="translate(196.142578 0)"/>
      <use xlink:href="#DejaVuSans-69" transform="translate(248.242188 0)"/>
      <use xlink:href="#DejaVuSans-63" transform="translate(276.025391 0)"/>
      <use xlink:href="#DejaVuSans-5f" transform="translate(331.005859 0)"/>
      <use xlink:href="#DejaVuSans-73" transform="translate(381.005859 0)"/>
      <use xlink:href="#DejaVuSans-70" transform="translate(433.105469 0)"/>
      <use xlink:href="#DejaVuSans-65" transform="translate(496.582031 0)"/>
      <use xlink:href="#DejaVuSans-63" transform="translate(558.105469 0)"/>
      <use xlink:href="#DejaVuSans-5f" transform="translate(613.085938 0)"/>
      <use xlink:href="#DejaVuSans-73" transform="translate(663.085938 0)"/>
      <use xlink:href="#DejaVuSans-61" transform="translate(715.185547 0)"/>
      <use xlink:href="#DejaVuSans-6d" transform="translate(776.464844 0)"/>
      <use xlink:href="#DejaVuSans-70" transform="translate(873.876953 0)"/>
      <use xlink:href="#DejaVuSans-6c" transform="translate(937.353516 0)"/>
      <use xlink:href="#DejaVuSans-69" transform="translate(965.136719 0)"/>
      <use xlink:href="#DejaVuSans-6e" transform="translate(992.919922 0)"/>
      <use xlink:href="#DejaVuSans-67" transform="translate(1056.298828 0)"/>
     </g>
    </g>
   </g>
  </g>
 </g>
 <defs>
  <clipPath id="p85fb1ab332">
   <rect x="44.67125" y="26.88" width="520.52875" height="291.16"/>
  </clipPath>
 </defs>
</svg>
