<?xml version="1.0" encoding="utf-8" standalone="no"?>
<!DOCTYPE svg PUBLIC "-//W3C//DTD SVG 1.1//EN"
  "http://www.w3.org/Graphics/SVG/1.1/DTD/svg11.dtd">
<svg xmlns:xlink="http://www.w3.org/1999/xlink" width="543.640625pt" height="408.108115pt" viewBox="0 0 543.640625 408.108115" xmlns="http://www.w3.org/2000/svg" version="1.1">
 <metadata>
  <rdf:RDF xmlns:dc="http://purl.org/dc/elements/1.1/" xmlns:cc="http://creativecommons.org/ns#" xmlns:rdf="http://www.w3.org/1999/02/22-rdf-syntax-ns#">
   <cc:Work>
    <dc:type rdf:resource="http://purl.org/dc/dcmitype/StillImage"/>
    <dc:date>2026-06-01T19:45:25.319036</dc:date>
    <dc:format>image/svg+xml</dc:format>
    <dc:creator>
     <cc:Agent>
      <dc:title>Matplotlib v3.10.9, https://matplotlib.org/</dc:title>
     </cc:Agent>
    </dc:creator>
   </cc:Work>
  </rdf:RDF>
 </metadata>
 <defs>
  <style type="text/css">*{stroke-linejoin: round; stroke-linecap: butt}</style>
 </defs>
 <g id="figure_1">
  <g id="patch_1">
   <path d="M 0 408.108115 
L 543.640625 408.108115 
L 543.640625 -0 
L 0 -0 
z
" style="fill: #ffffff"/>
  </g>
  <g id="axes_1">
   <g id="patch_2">
    <path d="M 34.240625 343.870125 
L 536.440625 343.870125 
L 536.440625 22.318125 
L 34.240625 22.318125 
z
" style="fill: #ffffff"/>
   </g>
   <g id="FillBetweenPolyCollection_1">
    <path d="M 73.478044 295.355951 
L 71.094115 295.355951 
L 71.028528 293.933778 
L 70.967358 292.511606 
L 70.910172 291.089434 
L 70.856058 289.667261 
L 70.803628 288.245089 
L 70.751035 286.822917 
L 70.696019 285.400744 
L 70.635985 283.978572 
L 70.56809 282.5564 
L 70.489362 281.134227 
L 70.396826 279.712055 
L 70.287648 278.289883 
L 70.159276 276.867711 
L 70.009585 275.445538 
L 69.837015 274.023366 
L 69.640693 272.601194 
L 69.420532 271.179021 
L 69.177299 269.756849 
L 68.912653 268.334677 
L 68.629129 266.912504 
L 68.330078 265.490332 
L 68.019555 264.06816 
L 67.702152 262.645987 
L 67.382777 261.223815 
L 67.066399 259.801643 
L 66.757752 258.37947 
L 66.461024 256.957298 
L 66.179555 255.535126 
L 65.915547 254.112953 
L 65.669836 252.690781 
L 65.441716 251.268609 
L 65.228872 249.846436 
L 65.0274 248.424264 
L 64.831958 247.002092 
L 64.636021 245.579919 
L 64.432253 244.157747 
L 64.212966 242.735575 
L 63.970645 241.313402 
L 63.698507 239.89123 
L 63.391047 238.469058 
L 63.044542 237.046885 
L 62.65746 235.624713 
L 62.230748 234.202541 
L 61.767967 232.780368 
L 61.275268 231.358196 
L 60.761191 229.936024 
L 60.236316 228.513852 
L 59.712779 227.091679 
L 59.203693 225.669507 
L 58.722513 224.247335 
L 58.282393 222.825162 
L 57.895581 221.40299 
L 57.572883 219.980818 
L 57.323241 218.558645 
L 57.153431 217.136473 
L 57.067898 215.714301 
L 57.068723 214.292128 
L 57.155712 212.869956 
L 57.32658 211.447784 
L 57.57721 210.025611 
L 57.901956 208.603439 
L 58.293968 207.181267 
L 58.745511 205.759094 
L 59.248267 204.336922 
L 59.793599 202.91475 
L 60.372781 201.492577 
L 60.977184 200.070405 
L 61.598435 198.648233 
L 62.228533 197.22606 
L 62.859958 195.803888 
L 63.48575 194.381716 
L 64.099589 192.959543 
L 64.695855 191.537371 
L 65.269696 190.115199 
L 65.817066 188.693026 
L 66.334769 187.270854 
L 66.820469 185.848682 
L 67.272686 184.426509 
L 67.690763 183.004337 
L 68.074805 181.582165 
L 68.425597 180.159993 
L 68.744492 178.73782 
L 69.033293 177.315648 
L 69.294125 175.893476 
L 69.529308 174.471303 
L 69.741247 173.049131 
L 69.932327 171.626959 
L 70.104847 170.204786 
L 70.260964 168.782614 
L 70.40267 167.360442 
L 70.531785 165.938269 
L 70.649958 164.516097 
L 70.758692 163.093925 
L 70.859351 161.671752 
L 70.953182 160.24958 
L 71.041314 158.827408 
L 71.124762 157.405235 
L 71.204418 155.983063 
L 71.281031 154.560891 
L 73.291128 154.560891 
L 73.291128 154.560891 
L 73.367741 155.983063 
L 73.447397 157.405235 
L 73.530845 158.827408 
L 73.618977 160.24958 
L 73.712808 161.671752 
L 73.813467 163.093925 
L 73.922201 164.516097 
L 74.040374 165.938269 
L 74.169489 167.360442 
L 74.311195 168.782614 
L 74.467312 170.204786 
L 74.639832 171.626959 
L 74.830912 173.049131 
L 75.042851 174.471303 
L 75.278035 175.893476 
L 75.538867 177.315648 
L 75.827667 178.73782 
L 76.146562 180.159993 
L 76.497354 181.582165 
L 76.881396 183.004337 
L 77.299473 184.426509 
L 77.75169 185.848682 
L 78.23739 187.270854 
L 78.755093 188.693026 
L 79.302463 190.115199 
L 79.876304 191.537371 
L 80.472571 192.959543 
L 81.086409 194.381716 
L 81.712201 195.803888 
L 82.343626 197.22606 
L 82.973724 198.648233 
L 83.594975 200.070405 
L 84.199378 201.492577 
L 84.77856 202.91475 
L 85.323892 204.336922 
L 85.826648 205.759094 
L 86.278192 207.181267 
L 86.670203 208.603439 
L 86.994949 210.025611 
L 87.245579 211.447784 
L 87.416448 212.869956 
L 87.503437 214.292128 
L 87.504261 215.714301 
L 87.418728 217.136473 
L 87.248918 218.558645 
L 86.999276 219.980818 
L 86.676578 221.40299 
L 86.289766 222.825162 
L 85.849646 224.247335 
L 85.368466 225.669507 
L 84.85938 227.091679 
L 84.335843 228.513852 
L 83.810968 229.936024 
L 83.296891 231.358196 
L 82.804192 232.780368 
L 82.341412 234.202541 
L 81.914699 235.624713 
L 81.527617 237.046885 
L 81.181112 238.469058 
L 80.873652 239.89123 
L 80.601514 241.313402 
L 80.359193 242.735575 
L 80.139906 244.157747 
L 79.936138 245.579919 
L 79.740201 247.002092 
L 79.544759 248.424264 
L 79.343287 249.846436 
L 79.130443 251.268609 
L 78.902323 252.690781 
L 78.656612 254.112953 
L 78.392604 255.535126 
L 78.111135 256.957298 
L 77.814407 258.37947 
L 77.50576 259.801643 
L 77.189382 261.223815 
L 76.870007 262.645987 
L 76.552604 264.06816 
L 76.242081 265.490332 
L 75.94303 266.912504 
L 75.659506 268.334677 
L 75.39486 269.756849 
L 75.151628 271.179021 
L 74.931466 272.601194 
L 74.735144 274.023366 
L 74.562574 275.445538 
L 74.412883 276.867711 
L 74.284511 278.289883 
L 74.175333 279.712055 
L 74.082797 281.134227 
L 74.004069 282.5564 
L 73.936174 283.978572 
L 73.87614 285.400744 
L 73.821124 286.822917 
L 73.768531 288.245089 
L 73.716101 289.667261 
L 73.661987 291.089434 
L 73.604801 292.511606 
L 73.543632 293.933778 
L 73.478044 295.355951 
z
" clip-path="url(#pd6d7734f84)" style="fill: #1f77b4; fill-opacity: 0.65"/>
   </g>
   <g id="FillBetweenPolyCollection_2">
    <path d="M 135.002129 257.043886 
L 131.315485 257.043886 
L 131.135643 255.151148 
L 130.938164 253.258411 
L 130.720122 251.365674 
L 130.478348 249.472937 
L 130.209549 247.580199 
L 129.910459 245.687462 
L 129.578017 243.794725 
L 129.209565 241.901988 
L 128.803058 240.00925 
L 128.357268 238.116513 
L 127.871983 236.223776 
L 127.348171 234.331039 
L 126.788098 232.438301 
L 126.195398 230.545564 
L 125.575075 228.652827 
L 124.933433 226.76009 
L 124.277926 224.867352 
L 123.616942 222.974615 
L 122.959524 221.081878 
L 122.315032 219.18914 
L 121.692774 217.296403 
L 121.101634 215.403666 
L 120.549696 213.510929 
L 120.043911 211.618191 
L 119.58982 209.725454 
L 119.191353 207.832717 
L 118.85071 205.93998 
L 118.568346 204.047242 
L 118.343053 202.154505 
L 118.172124 200.261768 
L 118.051599 198.369031 
L 117.976568 196.476293 
L 117.941508 194.583556 
L 117.940625 192.690819 
L 117.968184 190.798082 
L 118.018799 188.905344 
L 118.087673 187.012607 
L 118.17076 185.11987 
L 118.264859 183.227133 
L 118.367641 181.334395 
L 118.477597 179.441658 
L 118.593942 177.548921 
L 118.716482 175.656183 
L 118.845451 173.763446 
L 118.981351 171.870709 
L 119.124801 169.977972 
L 119.276409 168.085234 
L 119.436674 166.192497 
L 119.605926 164.29976 
L 119.784295 162.407023 
L 119.971714 160.514285 
L 120.167947 158.621548 
L 120.372626 156.728811 
L 120.585301 154.836074 
L 120.805486 152.943336 
L 121.032694 151.050599 
L 121.266469 149.157862 
L 121.506394 147.265125 
L 121.752094 145.372387 
L 122.003223 143.47965 
L 122.259443 141.586913 
L 122.520407 139.694176 
L 122.785734 137.801438 
L 123.054997 135.908701 
L 123.327713 134.015964 
L 123.603345 132.123226 
L 123.881316 130.230489 
L 124.161025 128.337752 
L 124.441872 126.445015 
L 124.723286 124.552277 
L 125.00475 122.65954 
L 125.285822 120.766803 
L 125.566148 118.874066 
L 125.845465 116.981328 
L 126.123597 115.088591 
L 126.400436 113.195854 
L 126.675917 111.303117 
L 126.949985 109.410379 
L 127.222562 107.517642 
L 127.493509 105.624905 
L 127.762598 103.732168 
L 128.029487 101.83943 
L 128.293706 99.946693 
L 128.554658 98.053956 
L 128.811628 96.161219 
L 129.063808 94.268481 
L 129.310329 92.375744 
L 129.550304 90.483007 
L 129.782873 88.590269 
L 130.007244 86.697532 
L 130.222741 84.804795 
L 130.428831 82.912058 
L 130.62515 81.01932 
L 130.811515 79.126583 
L 130.98792 77.233846 
L 131.154526 75.341109 
L 131.311631 73.448371 
L 131.459643 71.555634 
L 131.59904 69.662897 
L 134.718574 69.662897 
L 134.718574 69.662897 
L 134.857971 71.555634 
L 135.005983 73.448371 
L 135.163088 75.341109 
L 135.329693 77.233846 
L 135.506099 79.126583 
L 135.692464 81.01932 
L 135.888783 82.912058 
L 136.094872 84.804795 
L 136.310369 86.697532 
L 136.534741 88.590269 
L 136.767309 90.483007 
L 137.007285 92.375744 
L 137.253806 94.268481 
L 137.505985 96.161219 
L 137.762955 98.053956 
L 138.023907 99.946693 
L 138.288126 101.83943 
L 138.555015 103.732168 
L 138.824105 105.624905 
L 139.095052 107.517642 
L 139.367629 109.410379 
L 139.641697 111.303117 
L 139.917178 113.195854 
L 140.194017 115.088591 
L 140.472149 116.981328 
L 140.751466 118.874066 
L 141.031792 120.766803 
L 141.312864 122.65954 
L 141.594328 124.552277 
L 141.875742 126.445015 
L 142.156589 128.337752 
L 142.436298 130.230489 
L 142.714269 132.123226 
L 142.989901 134.015964 
L 143.262617 135.908701 
L 143.53188 137.801438 
L 143.797207 139.694176 
L 144.058171 141.586913 
L 144.314391 143.47965 
L 144.565519 145.372387 
L 144.81122 147.265125 
L 145.051145 149.157862 
L 145.28492 151.050599 
L 145.512128 152.943336 
L 145.732313 154.836074 
L 145.944988 156.728811 
L 146.149667 158.621548 
L 146.3459 160.514285 
L 146.533319 162.407023 
L 146.711688 164.29976 
L 146.880939 166.192497 
L 147.041205 168.085234 
L 147.192812 169.977972 
L 147.336262 171.870709 
L 147.472162 173.763446 
L 147.601131 175.656183 
L 147.723671 177.548921 
L 147.840017 179.441658 
L 147.949973 181.334395 
L 148.052754 183.227133 
L 148.146854 185.11987 
L 148.22994 187.012607 
L 148.298814 188.905344 
L 148.34943 190.798082 
L 148.376989 192.690819 
L 148.376105 194.583556 
L 148.341046 196.476293 
L 148.266015 198.369031 
L 148.14549 200.261768 
L 147.97456 202.154505 
L 147.749267 204.047242 
L 147.466904 205.93998 
L 147.12626 207.832717 
L 146.727793 209.725454 
L 146.273703 211.618191 
L 145.767918 213.510929 
L 145.21598 215.403666 
L 144.62484 217.296403 
L 144.002582 219.18914 
L 143.358089 221.081878 
L 142.700671 222.974615 
L 142.039688 224.867352 
L 141.38418 226.76009 
L 140.742538 228.652827 
L 140.122216 230.545564 
L 139.529516 232.438301 
L 138.969442 234.331039 
L 138.44563 236.223776 
L 137.960346 238.116513 
L 137.514556 240.00925 
L 137.108048 241.901988 
L 136.739596 243.794725 
L 136.407154 245.687462 
L 136.108065 247.580199 
L 135.839266 249.472937 
L 135.597491 251.365674 
L 135.37945 253.258411 
L 135.181971 255.151148 
L 135.002129 257.043886 
z
" clip-path="url(#pd6d7734f84)" style="fill: #1f77b4; fill-opacity: 0.65"/>
   </g>
   <g id="FillBetweenPolyCollection_3">
    <path d="M 196.078143 215.292926 
L 191.984925 215.292926 
L 191.858724 213.491322 
L 191.734193 211.689718 
L 191.612133 209.888114 
L 191.493287 208.08651 
L 191.378318 206.284906 
L 191.267797 204.483302 
L 191.16219 202.681698 
L 191.061853 200.880094 
L 190.967028 199.07849 
L 190.877842 197.276886 
L 190.794312 195.475282 
L 190.716356 193.673678 
L 190.643804 191.872074 
L 190.576415 190.07047 
L 190.513891 188.268866 
L 190.455903 186.467262 
L 190.402106 184.665657 
L 190.352159 182.864053 
L 190.305745 181.062449 
L 190.262583 179.260845 
L 190.222444 177.459241 
L 190.185152 175.657637 
L 190.150594 173.856033 
L 190.118709 172.054429 
L 190.089491 170.252825 
L 190.062965 168.451221 
L 190.03918 166.649617 
L 190.018181 164.848013 
L 189.999989 163.046409 
L 189.984576 161.244805 
L 189.971835 159.443201 
L 189.961561 157.641597 
L 189.953421 155.839993 
L 189.946937 154.038389 
L 189.94147 152.236784 
L 189.936206 150.43518 
L 189.930148 148.633576 
L 189.922123 146.831972 
L 189.91078 145.030368 
L 189.894602 143.228764 
L 189.871928 141.42716 
L 189.840971 139.625556 
L 189.799845 137.823952 
L 189.746596 136.022348 
L 189.679235 134.220744 
L 189.595775 132.41914 
L 189.494265 130.617536 
L 189.37283 128.815932 
L 189.229709 127.014328 
L 189.063293 125.212724 
L 188.872161 123.41112 
L 188.655121 121.609516 
L 188.411241 119.807912 
L 188.139887 118.006307 
L 187.840758 116.204703 
L 187.513917 114.403099 
L 187.15982 112.601495 
L 186.779351 110.799891 
L 186.373841 108.998287 
L 185.945093 107.196683 
L 185.495396 105.395079 
L 185.027537 103.593475 
L 184.544801 101.791871 
L 184.050963 99.990267 
L 183.550271 98.188663 
L 183.04741 96.387059 
L 182.547464 94.585455 
L 182.055852 92.783851 
L 181.578259 90.982247 
L 181.120548 89.180643 
L 180.688666 87.379039 
L 180.288531 85.577434 
L 179.925918 83.77583 
L 179.606339 81.974226 
L 179.33492 80.172622 
L 179.116281 78.371018 
L 178.954422 76.569414 
L 178.852622 74.76781 
L 178.813352 72.966206 
L 178.838204 71.164602 
L 178.92784 69.362998 
L 179.081973 67.561394 
L 179.299357 65.75979 
L 179.577817 63.958186 
L 179.914292 62.156582 
L 180.304907 60.354978 
L 180.745062 58.553374 
L 181.229537 56.75177 
L 181.752616 54.950166 
L 182.30821 53.148561 
L 182.889996 51.346957 
L 183.491548 49.545353 
L 184.10647 47.743749 
L 184.728514 45.942145 
L 185.351695 44.140541 
L 185.970389 42.338937 
L 186.579413 40.537333 
L 187.174095 38.735729 
L 187.750316 36.934125 
L 200.312752 36.934125 
L 200.312752 36.934125 
L 200.888974 38.735729 
L 201.483655 40.537333 
L 202.09268 42.338937 
L 202.711373 44.140541 
L 203.334554 45.942145 
L 203.956598 47.743749 
L 204.57152 49.545353 
L 205.173073 51.346957 
L 205.754859 53.148561 
L 206.310453 54.950166 
L 206.833531 56.75177 
L 207.318006 58.553374 
L 207.758161 60.354978 
L 208.148776 62.156582 
L 208.485251 63.958186 
L 208.763711 65.75979 
L 208.981095 67.561394 
L 209.135228 69.362998 
L 209.224865 71.164602 
L 209.249716 72.966206 
L 209.210446 74.76781 
L 209.108646 76.569414 
L 208.946787 78.371018 
L 208.728148 80.172622 
L 208.456729 81.974226 
L 208.13715 83.77583 
L 207.774537 85.577434 
L 207.374402 87.379039 
L 206.94252 89.180643 
L 206.484809 90.982247 
L 206.007216 92.783851 
L 205.515604 94.585455 
L 205.015658 96.387059 
L 204.512798 98.188663 
L 204.012105 99.990267 
L 203.518267 101.791871 
L 203.035531 103.593475 
L 202.567672 105.395079 
L 202.117975 107.196683 
L 201.689227 108.998287 
L 201.283717 110.799891 
L 200.903248 112.601495 
L 200.549152 114.403099 
L 200.22231 116.204703 
L 199.923181 118.006307 
L 199.651827 119.807912 
L 199.407947 121.609516 
L 199.190907 123.41112 
L 198.999776 125.212724 
L 198.83336 127.014328 
L 198.690239 128.815932 
L 198.568804 130.617536 
L 198.467293 132.41914 
L 198.383833 134.220744 
L 198.316472 136.022348 
L 198.263223 137.823952 
L 198.222097 139.625556 
L 198.19114 141.42716 
L 198.168466 143.228764 
L 198.152288 145.030368 
L 198.140945 146.831972 
L 198.13292 148.633576 
L 198.126863 150.43518 
L 198.121598 152.236784 
L 198.116131 154.038389 
L 198.109647 155.839993 
L 198.101507 157.641597 
L 198.091233 159.443201 
L 198.078493 161.244805 
L 198.063079 163.046409 
L 198.044887 164.848013 
L 198.023888 166.649617 
L 198.000103 168.451221 
L 197.973578 170.252825 
L 197.944359 172.054429 
L 197.912475 173.856033 
L 197.877916 175.657637 
L 197.840624 177.459241 
L 197.800485 179.260845 
L 197.757323 181.062449 
L 197.710909 182.864053 
L 197.660963 184.665657 
L 197.607165 186.467262 
L 197.549177 188.268866 
L 197.486654 190.07047 
L 197.419264 191.872074 
L 197.346712 193.673678 
L 197.268756 195.475282 
L 197.185227 197.276886 
L 197.09604 199.07849 
L 197.001215 200.880094 
L 196.900879 202.681698 
L 196.795271 204.483302 
L 196.68475 206.284906 
L 196.569781 208.08651 
L 196.450935 209.888114 
L 196.328876 211.689718 
L 196.204344 213.491322 
L 196.078143 215.292926 
z
" clip-path="url(#pd6d7734f84)" style="fill: #1f77b4; fill-opacity: 0.65"/>
   </g>
   <g id="FillBetweenPolyCollection_4">
    <path d="M 256.510557 222.846382 
L 253.297966 222.846382 
L 253.181659 221.392232 
L 253.063356 219.938083 
L 252.943176 218.483933 
L 252.821144 217.029784 
L 252.697184 215.575634 
L 252.571112 214.121485 
L 252.442629 212.667335 
L 252.311321 211.213186 
L 252.176661 209.759036 
L 252.038012 208.304887 
L 251.894641 206.850737 
L 251.745726 205.396588 
L 251.590382 203.942438 
L 251.427672 202.488289 
L 251.256637 201.034139 
L 251.076313 199.57999 
L 250.885753 198.12584 
L 250.684053 196.67169 
L 250.470358 195.217541 
L 250.243885 193.763391 
L 250.003923 192.309242 
L 249.74984 190.855092 
L 249.481084 189.400943 
L 249.197187 187.946793 
L 248.897762 186.492644 
L 248.582514 185.038494 
L 248.251253 183.584345 
L 247.903916 182.130195 
L 247.540601 180.676046 
L 247.16161 179.221896 
L 246.767501 177.767747 
L 246.359145 176.313597 
L 245.937786 174.859448 
L 245.505097 173.405298 
L 245.063221 171.951149 
L 244.614801 170.496999 
L 244.162983 169.04285 
L 243.711395 167.5887 
L 243.264088 166.13455 
L 242.825453 164.680401 
L 242.400107 163.226251 
L 241.992752 161.772102 
L 241.608023 160.317952 
L 241.250318 158.863803 
L 240.923642 157.409653 
L 240.631453 155.955504 
L 240.376543 154.501354 
L 240.160939 153.047205 
L 239.985846 151.593055 
L 239.851631 150.138906 
L 239.757846 148.684756 
L 239.703285 147.230607 
L 239.68608 145.776457 
L 239.703804 144.322308 
L 239.75361 142.868158 
L 239.832353 141.414009 
L 239.936721 139.959859 
L 240.063348 138.505709 
L 240.208916 137.05156 
L 240.37023 135.59741 
L 240.544281 134.143261 
L 240.728282 132.689111 
L 240.919698 131.234962 
L 241.116258 129.780812 
L 241.315969 128.326663 
L 241.517118 126.872513 
L 241.71829 125.418364 
L 241.918373 123.964214 
L 242.116581 122.510065 
L 242.31247 121.055915 
L 242.505956 119.601766 
L 242.697329 118.147616 
L 242.887255 116.693467 
L 243.076766 115.239317 
L 243.267234 113.785168 
L 243.46033 112.331018 
L 243.657953 110.876869 
L 243.86216 109.422719 
L 244.075067 107.968569 
L 244.29875 106.51442 
L 244.535143 105.06027 
L 244.785936 103.606121 
L 245.052486 102.151971 
L 245.335743 100.697822 
L 245.636194 99.243672 
L 245.953827 97.789523 
L 246.288127 96.335373 
L 246.638083 94.881224 
L 247.002226 93.427074 
L 247.378676 91.972925 
L 247.765211 90.518775 
L 248.15934 89.064626 
L 248.558379 87.610476 
L 248.959535 86.156327 
L 249.35998 84.702177 
L 249.756924 83.248028 
L 250.147676 81.793878 
L 250.529699 80.339728 
L 250.900658 78.885579 
L 258.907865 78.885579 
L 258.907865 78.885579 
L 259.278823 80.339728 
L 259.660847 81.793878 
L 260.051598 83.248028 
L 260.448542 84.702177 
L 260.848988 86.156327 
L 261.250144 87.610476 
L 261.649183 89.064626 
L 262.043312 90.518775 
L 262.429847 91.972925 
L 262.806297 93.427074 
L 263.170439 94.881224 
L 263.520395 96.335373 
L 263.854695 97.789523 
L 264.172329 99.243672 
L 264.472779 100.697822 
L 264.756037 102.151971 
L 265.022587 103.606121 
L 265.27338 105.06027 
L 265.509773 106.51442 
L 265.733456 107.968569 
L 265.946363 109.422719 
L 266.15057 110.876869 
L 266.348193 112.331018 
L 266.541288 113.785168 
L 266.731757 115.239317 
L 266.921268 116.693467 
L 267.111194 118.147616 
L 267.302566 119.601766 
L 267.496053 121.055915 
L 267.691941 122.510065 
L 267.890149 123.964214 
L 268.090233 125.418364 
L 268.291404 126.872513 
L 268.492554 128.326663 
L 268.692265 129.780812 
L 268.888825 131.234962 
L 269.080241 132.689111 
L 269.264242 134.143261 
L 269.438293 135.59741 
L 269.599607 137.05156 
L 269.745175 138.505709 
L 269.871802 139.959859 
L 269.97617 141.414009 
L 270.054912 142.868158 
L 270.104718 144.322308 
L 270.122443 145.776457 
L 270.105237 147.230607 
L 270.050677 148.684756 
L 269.956892 150.138906 
L 269.822677 151.593055 
L 269.647584 153.047205 
L 269.43198 154.501354 
L 269.17707 155.955504 
L 268.884881 157.409653 
L 268.558204 158.863803 
L 268.200499 160.317952 
L 267.81577 161.772102 
L 267.408416 163.226251 
L 266.98307 164.680401 
L 266.544435 166.13455 
L 266.097128 167.5887 
L 265.645539 169.04285 
L 265.193722 170.496999 
L 264.745302 171.951149 
L 264.303426 173.405298 
L 263.870737 174.859448 
L 263.449378 176.313597 
L 263.041022 177.767747 
L 262.646913 179.221896 
L 262.267922 180.676046 
L 261.904607 182.130195 
L 261.55727 183.584345 
L 261.226009 185.038494 
L 260.910761 186.492644 
L 260.611336 187.946793 
L 260.327438 189.400943 
L 260.058683 190.855092 
L 259.8046 192.309242 
L 259.564637 193.763391 
L 259.338164 195.217541 
L 259.12447 196.67169 
L 258.922769 198.12584 
L 258.73221 199.57999 
L 258.551885 201.034139 
L 258.38085 202.488289 
L 258.218141 203.942438 
L 258.062797 205.396588 
L 257.913882 206.850737 
L 257.77051 208.304887 
L 257.631862 209.759036 
L 257.497201 211.213186 
L 257.365894 212.667335 
L 257.237411 214.121485 
L 257.111339 215.575634 
L 256.987379 217.029784 
L 256.865347 218.483933 
L 256.745167 219.938083 
L 256.626864 221.392232 
L 256.510557 222.846382 
z
" clip-path="url(#pd6d7734f84)" style="fill: #1f77b4; fill-opacity: 0.65"/>
   </g>
   <g id="FillBetweenPolyCollection_5">
    <path d="M 319.29044 234.991141 
L 312.263537 234.991141 
L 312.099549 233.977348 
L 311.939702 232.963555 
L 311.782905 231.949762 
L 311.627566 230.935969 
L 311.471618 229.922176 
L 311.312569 228.908383 
L 311.147578 227.89459 
L 310.973556 226.880797 
L 310.787278 225.867004 
L 310.585519 224.853211 
L 310.365195 223.839418 
L 310.123507 222.825625 
L 309.858087 221.811832 
L 309.567128 220.798039 
L 309.249503 219.784246 
L 308.90485 218.770453 
L 308.533644 217.75666 
L 308.137223 216.742867 
L 307.717783 215.729074 
L 307.278336 214.715281 
L 306.822633 213.701488 
L 306.355055 212.687695 
L 305.880468 211.673902 
L 305.404067 210.660109 
L 304.931201 209.646316 
L 304.467183 208.632523 
L 304.01712 207.61873 
L 303.58574 206.604937 
L 303.177241 205.591144 
L 302.795176 204.577351 
L 302.44236 203.563558 
L 302.120818 202.549765 
L 301.831771 201.535972 
L 301.575661 200.522179 
L 301.352212 199.508386 
L 301.160522 198.494593 
L 300.999178 197.4808 
L 300.866397 196.467007 
L 300.760168 195.453214 
L 300.678401 194.439421 
L 300.61907 193.425628 
L 300.580334 192.411835 
L 300.560641 191.398042 
L 300.558807 190.384249 
L 300.574053 189.370456 
L 300.606021 188.356663 
L 300.654751 187.34287 
L 300.720623 186.329077 
L 300.804285 185.315284 
L 300.906549 184.301491 
L 301.028277 183.287698 
L 301.170265 182.273905 
L 301.333126 181.260112 
L 301.517182 180.246319 
L 301.722377 179.232526 
L 301.948206 178.218733 
L 302.193678 177.20494 
L 302.457303 176.191147 
L 302.73711 175.177354 
L 303.030692 174.163561 
L 303.335278 173.149768 
L 303.64782 172.135975 
L 303.965101 171.122182 
L 304.283849 170.108389 
L 304.60085 169.094596 
L 304.91306 168.080803 
L 305.217711 167.06701 
L 305.512395 166.053217 
L 305.795137 165.039424 
L 306.064445 164.025631 
L 306.319343 163.011838 
L 306.559378 161.998045 
L 306.784613 160.984252 
L 306.995598 159.970459 
L 307.193329 158.956666 
L 307.379193 157.942873 
L 307.554904 156.92908 
L 307.722433 155.915287 
L 307.883933 154.901494 
L 308.04166 153.887701 
L 308.197907 152.873908 
L 308.35492 151.860115 
L 308.514842 150.846322 
L 308.679642 149.832529 
L 308.851066 148.818736 
L 309.03059 147.804943 
L 309.21938 146.79115 
L 309.418268 145.777357 
L 309.62773 144.763564 
L 309.847883 143.749771 
L 310.078486 142.735978 
L 310.318954 141.722185 
L 310.568381 140.708392 
L 310.825573 139.694599 
L 311.089086 138.680806 
L 311.357269 137.667013 
L 311.628322 136.65322 
L 311.900339 135.639427 
L 312.171369 134.625634 
L 319.382609 134.625634 
L 319.382609 134.625634 
L 319.653638 135.639427 
L 319.925655 136.65322 
L 320.196708 137.667013 
L 320.464892 138.680806 
L 320.728404 139.694599 
L 320.985596 140.708392 
L 321.235024 141.722185 
L 321.475492 142.735978 
L 321.706094 143.749771 
L 321.926247 144.763564 
L 322.135709 145.777357 
L 322.334597 146.79115 
L 322.523387 147.804943 
L 322.702911 148.818736 
L 322.874336 149.832529 
L 323.039136 150.846322 
L 323.199057 151.860115 
L 323.356071 152.873908 
L 323.512317 153.887701 
L 323.670045 154.901494 
L 323.831544 155.915287 
L 323.999073 156.92908 
L 324.174784 157.942873 
L 324.360648 158.956666 
L 324.558379 159.970459 
L 324.769364 160.984252 
L 324.994599 161.998045 
L 325.234634 163.011838 
L 325.489532 164.025631 
L 325.75884 165.039424 
L 326.041582 166.053217 
L 326.336266 167.06701 
L 326.640917 168.080803 
L 326.953128 169.094596 
L 327.270128 170.108389 
L 327.588876 171.122182 
L 327.906158 172.135975 
L 328.218699 173.149768 
L 328.523285 174.163561 
L 328.816867 175.177354 
L 329.096674 176.191147 
L 329.360299 177.20494 
L 329.605771 178.218733 
L 329.8316 179.232526 
L 330.036795 180.246319 
L 330.220851 181.260112 
L 330.383712 182.273905 
L 330.525701 183.287698 
L 330.647429 184.301491 
L 330.749692 185.315284 
L 330.833354 186.329077 
L 330.899227 187.34287 
L 330.947956 188.356663 
L 330.979924 189.370456 
L 330.99517 190.384249 
L 330.993336 191.398042 
L 330.973643 192.411835 
L 330.934907 193.425628 
L 330.875576 194.439421 
L 330.793809 195.453214 
L 330.68758 196.467007 
L 330.554799 197.4808 
L 330.393455 198.494593 
L 330.201765 199.508386 
L 329.978316 200.522179 
L 329.722206 201.535972 
L 329.433159 202.549765 
L 329.111617 203.563558 
L 328.758801 204.577351 
L 328.376736 205.591144 
L 327.968238 206.604937 
L 327.536857 207.61873 
L 327.086794 208.632523 
L 326.622777 209.646316 
L 326.14991 210.660109 
L 325.67351 211.673902 
L 325.198923 212.687695 
L 324.731344 213.701488 
L 324.275641 214.715281 
L 323.836194 215.729074 
L 323.416754 216.742867 
L 323.020333 217.75666 
L 322.649127 218.770453 
L 322.304475 219.784246 
L 321.986849 220.798039 
L 321.695891 221.811832 
L 321.430471 222.825625 
L 321.188783 223.839418 
L 320.968458 224.853211 
L 320.766699 225.867004 
L 320.580421 226.880797 
L 320.406399 227.89459 
L 320.241409 228.908383 
L 320.082359 229.922176 
L 319.926411 230.935969 
L 319.771072 231.949762 
L 319.614275 232.963555 
L 319.454428 233.977348 
L 319.29044 234.991141 
z
" clip-path="url(#pd6d7734f84)" style="fill: #1f77b4; fill-opacity: 0.65"/>
   </g>
   <g id="FillBetweenPolyCollection_6">
    <path d="M 379.74318 219.334155 
L 373.556252 219.334155 
L 373.254509 218.453798 
L 372.938425 217.573441 
L 372.608497 216.693084 
L 372.265385 215.812726 
L 371.909951 214.932369 
L 371.543292 214.052012 
L 371.166768 213.171655 
L 370.782009 212.291298 
L 370.390901 211.41094 
L 369.995556 210.530583 
L 369.59826 209.650226 
L 369.201396 208.769869 
L 368.807365 207.889512 
L 368.418486 207.009154 
L 368.036915 206.128797 
L 367.664552 205.24844 
L 367.302987 204.368083 
L 366.953446 203.487725 
L 366.61678 202.607368 
L 366.293464 201.727011 
L 365.983628 200.846654 
L 365.687102 199.966297 
L 365.403475 199.085939 
L 365.132154 198.205582 
L 364.872429 197.325225 
L 364.623525 196.444868 
L 364.384646 195.564511 
L 364.15501 194.684153 
L 363.933877 193.803796 
L 363.720563 192.923439 
L 363.514458 192.043082 
L 363.315051 191.162725 
L 363.12195 190.282367 
L 362.934921 189.40201 
L 362.753927 188.521653 
L 362.579175 187.641296 
L 362.411163 186.760938 
L 362.250718 185.880581 
L 362.099014 185.000224 
L 361.957582 184.119867 
L 361.828274 183.23951 
L 361.71321 182.359152 
L 361.614689 181.478795 
L 361.535076 180.598438 
L 361.476671 179.718081 
L 361.44157 178.837724 
L 361.431534 177.957366 
L 361.447871 177.077009 
L 361.491357 176.196652 
L 361.562187 175.316295 
L 361.659985 174.435938 
L 361.783846 173.55558 
L 361.932443 172.675223 
L 362.104154 171.794866 
L 362.297226 170.914509 
L 362.509948 170.034151 
L 362.740814 169.153794 
L 362.988676 168.273437 
L 363.252853 167.39308 
L 363.533192 166.512723 
L 363.830076 165.632365 
L 364.144379 164.752008 
L 364.477352 163.871651 
L 364.830473 162.991294 
L 365.205255 162.110937 
L 365.603031 161.230579 
L 366.024738 160.350222 
L 366.470717 159.469865 
L 366.940538 158.589508 
L 367.432877 157.709151 
L 367.945446 156.828793 
L 368.474988 155.948436 
L 369.017335 155.068079 
L 369.567529 154.187722 
L 370.119988 153.307364 
L 370.668726 152.427007 
L 371.207584 151.54665 
L 371.730481 150.666293 
L 372.231657 149.785936 
L 372.705895 148.905578 
L 373.148711 148.025221 
L 373.556507 147.144864 
L 373.926666 146.264507 
L 374.257617 145.38415 
L 374.548826 144.503792 
L 374.800766 143.623435 
L 375.014835 142.743078 
L 375.193242 141.862721 
L 375.338875 140.982364 
L 375.455149 140.102006 
L 375.54585 139.221649 
L 375.614972 138.341292 
L 375.666565 137.460935 
L 375.704596 136.580577 
L 375.73282 135.70022 
L 375.754677 134.819863 
L 375.773202 133.939506 
L 375.790968 133.059149 
L 375.810047 132.178791 
L 377.489385 132.178791 
L 377.489385 132.178791 
L 377.508464 133.059149 
L 377.52623 133.939506 
L 377.544755 134.819863 
L 377.566611 135.70022 
L 377.594836 136.580577 
L 377.632867 137.460935 
L 377.68446 138.341292 
L 377.753581 139.221649 
L 377.844282 140.102006 
L 377.960557 140.982364 
L 378.10619 141.862721 
L 378.284597 142.743078 
L 378.498666 143.623435 
L 378.750606 144.503792 
L 379.041815 145.38415 
L 379.372765 146.264507 
L 379.742925 147.144864 
L 380.15072 148.025221 
L 380.593537 148.905578 
L 381.067774 149.785936 
L 381.56895 150.666293 
L 382.091848 151.54665 
L 382.630706 152.427007 
L 383.179444 153.307364 
L 383.731903 154.187722 
L 384.282097 155.068079 
L 384.824444 155.948436 
L 385.353986 156.828793 
L 385.866555 157.709151 
L 386.358894 158.589508 
L 386.828714 159.469865 
L 387.274693 160.350222 
L 387.696401 161.230579 
L 388.094177 162.110937 
L 388.468959 162.991294 
L 388.82208 163.871651 
L 389.155053 164.752008 
L 389.469356 165.632365 
L 389.76624 166.512723 
L 390.046579 167.39308 
L 390.310756 168.273437 
L 390.558618 169.153794 
L 390.789484 170.034151 
L 391.002205 170.914509 
L 391.195278 171.794866 
L 391.366989 172.675223 
L 391.515586 173.55558 
L 391.639447 174.435938 
L 391.737244 175.316295 
L 391.808075 176.196652 
L 391.85156 177.077009 
L 391.867898 177.957366 
L 391.857861 178.837724 
L 391.822761 179.718081 
L 391.764356 180.598438 
L 391.684743 181.478795 
L 391.586222 182.359152 
L 391.471158 183.23951 
L 391.34185 184.119867 
L 391.200418 185.000224 
L 391.048714 185.880581 
L 390.888268 186.760938 
L 390.720257 187.641296 
L 390.545505 188.521653 
L 390.364511 189.40201 
L 390.177482 190.282367 
L 389.984381 191.162725 
L 389.784974 192.043082 
L 389.578869 192.923439 
L 389.365554 193.803796 
L 389.144421 194.684153 
L 388.914786 195.564511 
L 388.675907 196.444868 
L 388.427002 197.325225 
L 388.167278 198.205582 
L 387.895957 199.085939 
L 387.612329 199.966297 
L 387.315804 200.846654 
L 387.005968 201.727011 
L 386.682651 202.607368 
L 386.345985 203.487725 
L 385.996445 204.368083 
L 385.63488 205.24844 
L 385.262517 206.128797 
L 384.880945 207.009154 
L 384.492067 207.889512 
L 384.098036 208.769869 
L 383.701172 209.650226 
L 383.303876 210.530583 
L 382.908531 211.41094 
L 382.517423 212.291298 
L 382.132664 213.171655 
L 381.75614 214.052012 
L 381.389481 214.932369 
L 381.034047 215.812726 
L 380.690935 216.693084 
L 380.361007 217.573441 
L 380.044923 218.453798 
L 379.74318 219.334155 
z
" clip-path="url(#pd6d7734f84)" style="fill: #1f77b4; fill-opacity: 0.65"/>
   </g>
   <g id="FillBetweenPolyCollection_7">
    <path d="M 439.963557 270.495602 
L 435.081329 270.495602 
L 434.830738 268.288284 
L 434.562632 266.080966 
L 434.276156 263.873648 
L 433.970483 261.66633 
L 433.644854 259.459012 
L 433.298634 257.251694 
L 432.931355 255.044375 
L 432.542782 252.837057 
L 432.13296 250.629739 
L 431.702269 248.422421 
L 431.251476 246.215103 
L 430.781771 244.007785 
L 430.294806 241.800467 
L 429.792716 239.593149 
L 429.278126 237.38583 
L 428.754145 235.178512 
L 428.224341 232.971194 
L 427.692694 230.763876 
L 427.163532 228.556558 
L 426.641444 226.34924 
L 426.13118 224.141922 
L 425.637528 221.934604 
L 425.165191 219.727286 
L 424.718655 217.519967 
L 424.302067 215.312649 
L 423.919118 213.105331 
L 423.572956 210.898013 
L 423.266119 208.690695 
L 423.000503 206.483377 
L 422.777362 204.276059 
L 422.597339 202.068741 
L 422.460537 199.861422 
L 422.3666 197.654104 
L 422.314824 195.446786 
L 422.304261 193.239468 
L 422.333833 191.03215 
L 422.402425 188.824832 
L 422.50896 186.617514 
L 422.652449 184.410196 
L 422.832015 182.202877 
L 423.046879 179.995559 
L 423.296326 177.788241 
L 423.579653 175.580923 
L 423.896087 173.373605 
L 424.244711 171.166287 
L 424.624378 168.958969 
L 425.033638 166.751651 
L 425.470679 164.544333 
L 425.933278 162.337014 
L 426.418783 160.129696 
L 426.924115 157.922378 
L 427.445783 155.71506 
L 427.979937 153.507742 
L 428.522421 151.300424 
L 429.068855 149.093106 
L 429.61472 146.885788 
L 430.155451 144.678469 
L 430.686538 142.471151 
L 431.203623 140.263833 
L 431.702592 138.056515 
L 432.179668 135.849197 
L 432.631483 133.641879 
L 433.055151 131.434561 
L 433.448314 129.227243 
L 433.809185 127.019925 
L 434.136564 124.812606 
L 434.429843 122.605288 
L 434.688987 120.39797 
L 434.914503 118.190652 
L 435.107394 115.983334 
L 435.269094 113.776016 
L 435.401404 111.568698 
L 435.50641 109.36138 
L 435.586409 107.154061 
L 435.64383 104.946743 
L 435.681163 102.739425 
L 435.700903 100.532107 
L 435.70549 98.324789 
L 435.697284 96.117471 
L 435.67853 93.910153 
L 435.651356 91.702835 
L 435.617769 89.495516 
L 435.579667 87.288198 
L 435.53885 85.08088 
L 435.497042 82.873562 
L 435.455903 80.666244 
L 435.417042 78.458926 
L 435.382019 76.251608 
L 435.352341 74.04429 
L 435.329445 71.836972 
L 435.314677 69.629653 
L 435.309257 67.422335 
L 435.31424 65.215017 
L 435.330476 63.007699 
L 435.358572 60.800381 
L 435.398855 58.593063 
L 435.451347 56.385745 
L 435.51575 54.178427 
L 435.59144 51.971108 
L 439.453446 51.971108 
L 439.453446 51.971108 
L 439.529137 54.178427 
L 439.593539 56.385745 
L 439.646031 58.593063 
L 439.686315 60.800381 
L 439.714411 63.007699 
L 439.730647 65.215017 
L 439.735629 67.422335 
L 439.730209 69.629653 
L 439.715441 71.836972 
L 439.692546 74.04429 
L 439.662867 76.251608 
L 439.627844 78.458926 
L 439.588983 80.666244 
L 439.547844 82.873562 
L 439.506036 85.08088 
L 439.46522 87.288198 
L 439.427117 89.495516 
L 439.39353 91.702835 
L 439.366357 93.910153 
L 439.347603 96.117471 
L 439.339396 98.324789 
L 439.343984 100.532107 
L 439.363723 102.739425 
L 439.401057 104.946743 
L 439.458477 107.154061 
L 439.538476 109.36138 
L 439.643482 111.568698 
L 439.775792 113.776016 
L 439.937493 115.983334 
L 440.130383 118.190652 
L 440.355899 120.39797 
L 440.615043 122.605288 
L 440.908322 124.812606 
L 441.235702 127.019925 
L 441.596573 129.227243 
L 441.989736 131.434561 
L 442.413403 133.641879 
L 442.865218 135.849197 
L 443.342294 138.056515 
L 443.841264 140.263833 
L 444.358349 142.471151 
L 444.889436 144.678469 
L 445.430167 146.885788 
L 445.976031 149.093106 
L 446.522465 151.300424 
L 447.064949 153.507742 
L 447.599103 155.71506 
L 448.120772 157.922378 
L 448.626103 160.129696 
L 449.111609 162.337014 
L 449.574207 164.544333 
L 450.011248 166.751651 
L 450.420508 168.958969 
L 450.800175 171.166287 
L 451.148799 173.373605 
L 451.465233 175.580923 
L 451.74856 177.788241 
L 451.998008 179.995559 
L 452.212871 182.202877 
L 452.392437 184.410196 
L 452.535927 186.617514 
L 452.642461 188.824832 
L 452.711053 191.03215 
L 452.740625 193.239468 
L 452.730062 195.446786 
L 452.678286 197.654104 
L 452.58435 199.861422 
L 452.447547 202.068741 
L 452.267525 204.276059 
L 452.044383 206.483377 
L 451.778767 208.690695 
L 451.471931 210.898013 
L 451.125769 213.105331 
L 450.74282 215.312649 
L 450.326231 217.519967 
L 449.879696 219.727286 
L 449.407358 221.934604 
L 448.913706 224.141922 
L 448.403442 226.34924 
L 447.881355 228.556558 
L 447.352192 230.763876 
L 446.820545 232.971194 
L 446.290741 235.178512 
L 445.76676 237.38583 
L 445.25217 239.593149 
L 444.750081 241.800467 
L 444.263116 244.007785 
L 443.793411 246.215103 
L 443.342617 248.422421 
L 442.911926 250.629739 
L 442.502104 252.837057 
L 442.113531 255.044375 
L 441.746253 257.251694 
L 441.400032 259.459012 
L 441.074404 261.66633 
L 440.76873 263.873648 
L 440.482254 266.080966 
L 440.214148 268.288284 
L 439.963557 270.495602 
z
" clip-path="url(#pd6d7734f84)" style="fill: #1f77b4; fill-opacity: 0.65"/>
   </g>
   <g id="FillBetweenPolyCollection_8">
    <path d="M 499.750189 329.254125 
L 497.040152 329.254125 
L 496.90873 327.72485 
L 496.765866 326.195574 
L 496.610206 324.666299 
L 496.440401 323.137024 
L 496.25517 321.607748 
L 496.05335 320.078473 
L 495.833942 318.549198 
L 495.596142 317.019922 
L 495.339358 315.490647 
L 495.063209 313.961372 
L 494.767507 312.432096 
L 494.452235 310.902821 
L 494.117511 309.373546 
L 493.763559 307.84427 
L 493.390675 306.314995 
L 492.999223 304.78572 
L 492.589627 303.256444 
L 492.1624 301.727169 
L 491.718182 300.197894 
L 491.257802 298.668618 
L 490.782349 297.139343 
L 490.293254 295.610068 
L 489.792364 294.080793 
L 489.282018 292.551517 
L 488.76509 291.022242 
L 488.245014 289.492967 
L 487.725774 287.963691 
L 487.211859 286.434416 
L 486.70818 284.905141 
L 486.219952 283.375865 
L 485.752547 281.84659 
L 485.311323 280.317315 
L 484.901447 278.788039 
L 484.527709 277.258764 
L 484.194347 275.729489 
L 483.904899 274.200213 
L 483.662074 272.670938 
L 483.46767 271.141663 
L 483.322527 269.612387 
L 483.226528 268.083112 
L 483.178639 266.553837 
L 483.176989 265.024561 
L 483.218984 263.495286 
L 483.301443 261.966011 
L 483.420751 260.436735 
L 483.573019 258.90746 
L 483.754237 257.378185 
L 483.960427 255.848909 
L 484.187768 254.319634 
L 484.432711 252.790359 
L 484.692061 251.261083 
L 484.963043 249.731808 
L 485.243336 248.202533 
L 485.531089 246.673257 
L 485.824913 245.143982 
L 486.123851 243.614707 
L 486.427334 242.085431 
L 486.73512 240.556156 
L 487.047223 239.026881 
L 487.363828 237.497605 
L 487.685203 235.96833 
L 488.011611 234.439055 
L 488.34322 232.909779 
L 488.680024 231.380504 
L 489.021772 229.851229 
L 489.367921 228.321954 
L 489.717604 226.792678 
L 490.069624 225.263403 
L 490.422476 223.734128 
L 490.774393 222.204852 
L 491.123415 220.675577 
L 491.467473 219.146302 
L 491.804489 217.617026 
L 492.132478 216.087751 
L 492.449647 214.558476 
L 492.754481 213.0292 
L 493.04581 211.499925 
L 493.32286 209.97065 
L 493.585268 208.441374 
L 493.833075 206.912099 
L 494.066696 205.382824 
L 494.286864 203.853548 
L 494.494563 202.324273 
L 494.690946 200.794998 
L 494.877261 199.265722 
L 495.054768 197.736447 
L 495.224676 196.207172 
L 495.388087 194.677896 
L 495.545962 193.148621 
L 495.699096 191.619346 
L 495.848114 190.09007 
L 495.993475 188.560795 
L 496.135489 187.03152 
L 496.274337 185.502244 
L 496.410093 183.972969 
L 496.542745 182.443694 
L 496.672216 180.914418 
L 496.798376 179.385143 
L 496.921055 177.855868 
L 499.869286 177.855868 
L 499.869286 177.855868 
L 499.991964 179.385143 
L 500.118125 180.914418 
L 500.247596 182.443694 
L 500.380248 183.972969 
L 500.516004 185.502244 
L 500.654852 187.03152 
L 500.796866 188.560795 
L 500.942227 190.09007 
L 501.091245 191.619346 
L 501.244379 193.148621 
L 501.402254 194.677896 
L 501.565665 196.207172 
L 501.735573 197.736447 
L 501.91308 199.265722 
L 502.099395 200.794998 
L 502.295778 202.324273 
L 502.503477 203.853548 
L 502.723645 205.382824 
L 502.957266 206.912099 
L 503.205073 208.441374 
L 503.467481 209.97065 
L 503.744531 211.499925 
L 504.03586 213.0292 
L 504.340693 214.558476 
L 504.657863 216.087751 
L 504.985852 217.617026 
L 505.322868 219.146302 
L 505.666926 220.675577 
L 506.015948 222.204852 
L 506.367865 223.734128 
L 506.720717 225.263403 
L 507.072737 226.792678 
L 507.422419 228.321954 
L 507.768569 229.851229 
L 508.110317 231.380504 
L 508.447121 232.909779 
L 508.77873 234.439055 
L 509.105138 235.96833 
L 509.426513 237.497605 
L 509.743118 239.026881 
L 510.05522 240.556156 
L 510.363007 242.085431 
L 510.66649 243.614707 
L 510.965428 245.143982 
L 511.259252 246.673257 
L 511.547005 248.202533 
L 511.827298 249.731808 
L 512.09828 251.261083 
L 512.35763 252.790359 
L 512.602573 254.319634 
L 512.829914 255.848909 
L 513.036104 257.378185 
L 513.217322 258.90746 
L 513.36959 260.436735 
L 513.488898 261.966011 
L 513.571357 263.495286 
L 513.613352 265.024561 
L 513.611702 266.553837 
L 513.563813 268.083112 
L 513.467814 269.612387 
L 513.322671 271.141663 
L 513.128267 272.670938 
L 512.885442 274.200213 
L 512.595994 275.729489 
L 512.262632 277.258764 
L 511.888894 278.788039 
L 511.479018 280.317315 
L 511.037794 281.84659 
L 510.570389 283.375865 
L 510.082161 284.905141 
L 509.578482 286.434416 
L 509.064567 287.963691 
L 508.545327 289.492967 
L 508.025251 291.022242 
L 507.508323 292.551517 
L 506.997977 294.080793 
L 506.497087 295.610068 
L 506.007991 297.139343 
L 505.532538 298.668618 
L 505.072159 300.197894 
L 504.627941 301.727169 
L 504.200714 303.256444 
L 503.791118 304.78572 
L 503.399666 306.314995 
L 503.026782 307.84427 
L 502.672829 309.373546 
L 502.338106 310.902821 
L 502.022834 312.432096 
L 501.727132 313.961372 
L 501.450983 315.490647 
L 501.194199 317.019922 
L 500.956399 318.549198 
L 500.736991 320.078473 
L 500.535171 321.607748 
L 500.34994 323.137024 
L 500.180135 324.666299 
L 500.024475 326.195574 
L 499.881611 327.72485 
L 499.750189 329.254125 
z
" clip-path="url(#pd6d7734f84)" style="fill: #1f77b4; fill-opacity: 0.65"/>
   </g>
   <g id="matplotlib.axis_1">
    <g id="xtick_1">
     <g id="line2d_1">
      <defs>
       <path id="md05ed5b7a5" d="M 0 0 
L 0 3.5 
" style="stroke: #000000; stroke-width: 0.8"/>
      </defs>
      <g>
       <use xlink:href="#md05ed5b7a5" x="72.28608" y="343.870125" style="stroke: #000000; stroke-width: 0.8"/>
      </g>
     </g>
     <g id="text_1">
      <!-- gsm8k -->
      <g transform="translate(42.276333 374.176346) rotate(-30) scale(0.1 -0.1)">
       <defs>
        <path id="DejaVuSans-67" d="M 2906 1791 
Q 2906 2416 2648 2759 
Q 2391 3103 1925 3103 
Q 1463 3103 1205 2759 
Q 947 2416 947 1791 
Q 947 1169 1205 825 
Q 1463 481 1925 481 
Q 2391 481 2648 825 
Q 2906 1169 2906 1791 
z
M 3481 434 
Q 3481 -459 3084 -895 
Q 2688 -1331 1869 -1331 
Q 1566 -1331 1297 -1286 
Q 1028 -1241 775 -1147 
L 775 -588 
Q 1028 -725 1275 -790 
Q 1522 -856 1778 -856 
Q 2344 -856 2625 -561 
Q 2906 -266 2906 331 
L 2906 616 
Q 2728 306 2450 153 
Q 2172 0 1784 0 
Q 1141 0 747 490 
Q 353 981 353 1791 
Q 353 2603 747 3093 
Q 1141 3584 1784 3584 
Q 2172 3584 2450 3431 
Q 2728 3278 2906 2969 
L 2906 3500 
L 3481 3500 
L 3481 434 
z
" transform="scale(0.015625)"/>
        <path id="DejaVuSans-73" d="M 2834 3397 
L 2834 2853 
Q 2591 2978 2328 3040 
Q 2066 3103 1784 3103 
Q 1356 3103 1142 2972 
Q 928 2841 928 2578 
Q 928 2378 1081 2264 
Q 1234 2150 1697 2047 
L 1894 2003 
Q 2506 1872 2764 1633 
Q 3022 1394 3022 966 
Q 3022 478 2636 193 
Q 2250 -91 1575 -91 
Q 1294 -91 989 -36 
Q 684 19 347 128 
L 347 722 
Q 666 556 975 473 
Q 1284 391 1588 391 
Q 1994 391 2212 530 
Q 2431 669 2431 922 
Q 2431 1156 2273 1281 
Q 2116 1406 1581 1522 
L 1381 1569 
Q 847 1681 609 1914 
Q 372 2147 372 2553 
Q 372 3047 722 3315 
Q 1072 3584 1716 3584 
Q 2034 3584 2315 3537 
Q 2597 3491 2834 3397 
z
" transform="scale(0.015625)"/>
        <path id="DejaVuSans-6d" d="M 3328 2828 
Q 3544 3216 3844 3400 
Q 4144 3584 4550 3584 
Q 5097 3584 5394 3201 
Q 5691 2819 5691 2113 
L 5691 0 
L 5113 0 
L 5113 2094 
Q 5113 2597 4934 2840 
Q 4756 3084 4391 3084 
Q 3944 3084 3684 2787 
Q 3425 2491 3425 1978 
L 3425 0 
L 2847 0 
L 2847 2094 
Q 2847 2600 2669 2842 
Q 2491 3084 2119 3084 
Q 1678 3084 1418 2786 
Q 1159 2488 1159 1978 
L 1159 0 
L 581 0 
L 581 3500 
L 1159 3500 
L 1159 2956 
Q 1356 3278 1631 3431 
Q 1906 3584 2284 3584 
Q 2666 3584 2933 3390 
Q 3200 3197 3328 2828 
z
" transform="scale(0.015625)"/>
        <path id="DejaVuSans-38" d="M 2034 2216 
Q 1584 2216 1326 1975 
Q 1069 1734 1069 1313 
Q 1069 891 1326 650 
Q 1584 409 2034 409 
Q 2484 409 2743 651 
Q 3003 894 3003 1313 
Q 3003 1734 2745 1975 
Q 2488 2216 2034 2216 
z
M 1403 2484 
Q 997 2584 770 2862 
Q 544 3141 544 3541 
Q 544 4100 942 4425 
Q 1341 4750 2034 4750 
Q 2731 4750 3128 4425 
Q 3525 4100 3525 3541 
Q 3525 3141 3298 2862 
Q 3072 2584 2669 2484 
Q 3125 2378 3379 2068 
Q 3634 1759 3634 1313 
Q 3634 634 3220 271 
Q 2806 -91 2034 -91 
Q 1263 -91 848 271 
Q 434 634 434 1313 
Q 434 1759 690 2068 
Q 947 2378 1403 2484 
z
M 1172 3481 
Q 1172 3119 1398 2916 
Q 1625 2713 2034 2713 
Q 2441 2713 2670 2916 
Q 2900 3119 2900 3481 
Q 2900 3844 2670 4047 
Q 2441 4250 2034 4250 
Q 1625 4250 1398 4047 
Q 1172 3844 1172 3481 
z
" transform="scale(0.015625)"/>
        <path id="DejaVuSans-6b" d="M 581 4863 
L 1159 4863 
L 1159 1991 
L 2875 3500 
L 3609 3500 
L 1753 1863 
L 3688 0 
L 2938 0 
L 1159 1709 
L 1159 0 
L 581 0 
L 581 4863 
z
" transform="scale(0.015625)"/>
       </defs>
       <use xlink:href="#DejaVuSans-67"/>
       <use xlink:href="#DejaVuSans-73" transform="translate(63.476562 0)"/>
       <use xlink:href="#DejaVuSans-6d" transform="translate(115.576172 0)"/>
       <use xlink:href="#DejaVuSans-38" transform="translate(212.988281 0)"/>
       <use xlink:href="#DejaVuSans-6b" transform="translate(276.611328 0)"/>
      </g>
     </g>
    </g>
    <g id="xtick_2">
     <g id="line2d_2">
      <g>
       <use xlink:href="#md05ed5b7a5" x="133.158807" y="343.870125" style="stroke: #000000; stroke-width: 0.8"/>
      </g>
     </g>
     <g id="text_2">
      <!-- hendrycks_math -->
      <g transform="translate(60.245934 398.86619) rotate(-30) scale(0.1 -0.1)">
       <defs>
        <path id="DejaVuSans-68" d="M 3513 2113 
L 3513 0 
L 2938 0 
L 2938 2094 
Q 2938 2591 2744 2837 
Q 2550 3084 2163 3084 
Q 1697 3084 1428 2787 
Q 1159 2491 1159 1978 
L 1159 0 
L 581 0 
L 581 4863 
L 1159 4863 
L 1159 2956 
Q 1366 3272 1645 3428 
Q 1925 3584 2291 3584 
Q 2894 3584 3203 3211 
Q 3513 2838 3513 2113 
z
" transform="scale(0.015625)"/>
        <path id="DejaVuSans-65" d="M 3597 1894 
L 3597 1613 
L 953 1613 
Q 991 1019 1311 708 
Q 1631 397 2203 397 
Q 2534 397 2845 478 
Q 3156 559 3463 722 
L 3463 178 
Q 3153 47 2828 -22 
Q 2503 -91 2169 -91 
Q 1331 -91 842 396 
Q 353 884 353 1716 
Q 353 2575 817 3079 
Q 1281 3584 2069 3584 
Q 2775 3584 3186 3129 
Q 3597 2675 3597 1894 
z
M 3022 2063 
Q 3016 2534 2758 2815 
Q 2500 3097 2075 3097 
Q 1594 3097 1305 2825 
Q 1016 2553 972 2059 
L 3022 2063 
z
" transform="scale(0.015625)"/>
        <path id="DejaVuSans-6e" d="M 3513 2113 
L 3513 0 
L 2938 0 
L 2938 2094 
Q 2938 2591 2744 2837 
Q 2550 3084 2163 3084 
Q 1697 3084 1428 2787 
Q 1159 2491 1159 1978 
L 1159 0 
L 581 0 
L 581 3500 
L 1159 3500 
L 1159 2956 
Q 1366 3272 1645 3428 
Q 1925 3584 2291 3584 
Q 2894 3584 3203 3211 
Q 3513 2838 3513 2113 
z
" transform="scale(0.015625)"/>
        <path id="DejaVuSans-64" d="M 2906 2969 
L 2906 4863 
L 3481 4863 
L 3481 0 
L 2906 0 
L 2906 525 
Q 2725 213 2448 61 
Q 2172 -91 1784 -91 
Q 1150 -91 751 415 
Q 353 922 353 1747 
Q 353 2572 751 3078 
Q 1150 3584 1784 3584 
Q 2172 3584 2448 3432 
Q 2725 3281 2906 2969 
z
M 947 1747 
Q 947 1113 1208 752 
Q 1469 391 1925 391 
Q 2381 391 2643 752 
Q 2906 1113 2906 1747 
Q 2906 2381 2643 2742 
Q 2381 3103 1925 3103 
Q 1469 3103 1208 2742 
Q 947 2381 947 1747 
z
" transform="scale(0.015625)"/>
        <path id="DejaVuSans-72" d="M 2631 2963 
Q 2534 3019 2420 3045 
Q 2306 3072 2169 3072 
Q 1681 3072 1420 2755 
Q 1159 2438 1159 1844 
L 1159 0 
L 581 0 
L 581 3500 
L 1159 3500 
L 1159 2956 
Q 1341 3275 1631 3429 
Q 1922 3584 2338 3584 
Q 2397 3584 2469 3576 
Q 2541 3569 2628 3553 
L 2631 2963 
z
" transform="scale(0.015625)"/>
        <path id="DejaVuSans-79" d="M 2059 -325 
Q 1816 -950 1584 -1140 
Q 1353 -1331 966 -1331 
L 506 -1331 
L 506 -850 
L 844 -850 
Q 1081 -850 1212 -737 
Q 1344 -625 1503 -206 
L 1606 56 
L 191 3500 
L 800 3500 
L 1894 763 
L 2988 3500 
L 3597 3500 
L 2059 -325 
z
" transform="scale(0.015625)"/>
        <path id="DejaVuSans-63" d="M 3122 3366 
L 3122 2828 
Q 2878 2963 2633 3030 
Q 2388 3097 2138 3097 
Q 1578 3097 1268 2742 
Q 959 2388 959 1747 
Q 959 1106 1268 751 
Q 1578 397 2138 397 
Q 2388 397 2633 464 
Q 2878 531 3122 666 
L 3122 134 
Q 2881 22 2623 -34 
Q 2366 -91 2075 -91 
Q 1284 -91 818 406 
Q 353 903 353 1747 
Q 353 2603 823 3093 
Q 1294 3584 2113 3584 
Q 2378 3584 2631 3529 
Q 2884 3475 3122 3366 
z
" transform="scale(0.015625)"/>
        <path id="DejaVuSans-5f" d="M 3263 -1063 
L 3263 -1509 
L -63 -1509 
L -63 -1063 
L 3263 -1063 
z
" transform="scale(0.015625)"/>
        <path id="DejaVuSans-61" d="M 2194 1759 
Q 1497 1759 1228 1600 
Q 959 1441 959 1056 
Q 959 750 1161 570 
Q 1363 391 1709 391 
Q 2188 391 2477 730 
Q 2766 1069 2766 1631 
L 2766 1759 
L 2194 1759 
z
M 3341 1997 
L 3341 0 
L 2766 0 
L 2766 531 
Q 2569 213 2275 61 
Q 1981 -91 1556 -91 
Q 1019 -91 701 211 
Q 384 513 384 1019 
Q 384 1609 779 1909 
Q 1175 2209 1959 2209 
L 2766 2209 
L 2766 2266 
Q 2766 2663 2505 2880 
Q 2244 3097 1772 3097 
Q 1472 3097 1187 3025 
Q 903 2953 641 2809 
L 641 3341 
Q 956 3463 1253 3523 
Q 1550 3584 1831 3584 
Q 2591 3584 2966 3190 
Q 3341 2797 3341 1997 
z
" transform="scale(0.015625)"/>
        <path id="DejaVuSans-74" d="M 1172 4494 
L 1172 3500 
L 2356 3500 
L 2356 3053 
L 1172 3053 
L 1172 1153 
Q 1172 725 1289 603 
Q 1406 481 1766 481 
L 2356 481 
L 2356 0 
L 1766 0 
Q 1100 0 847 248 
Q 594 497 594 1153 
L 594 3053 
L 172 3053 
L 172 3500 
L 594 3500 
L 594 4494 
L 1172 4494 
z
" transform="scale(0.015625)"/>
       </defs>
       <use xlink:href="#DejaVuSans-68"/>
       <use xlink:href="#DejaVuSans-65" transform="translate(63.378906 0)"/>
       <use xlink:href="#DejaVuSans-6e" transform="translate(124.902344 0)"/>
       <use xlink:href="#DejaVuSans-64" transform="translate(188.28125 0)"/>
       <use xlink:href="#DejaVuSans-72" transform="translate(251.757812 0)"/>
       <use xlink:href="#DejaVuSans-79" transform="translate(292.871094 0)"/>
       <use xlink:href="#DejaVuSans-63" transform="translate(352.050781 0)"/>
       <use xlink:href="#DejaVuSans-6b" transform="translate(407.03125 0)"/>
       <use xlink:href="#DejaVuSans-73" transform="translate(464.941406 0)"/>
       <use xlink:href="#DejaVuSans-5f" transform="translate(517.041016 0)"/>
       <use xlink:href="#DejaVuSans-6d" transform="translate(567.041016 0)"/>
       <use xlink:href="#DejaVuSans-61" transform="translate(664.453125 0)"/>
       <use xlink:href="#DejaVuSans-74" transform="translate(725.732422 0)"/>
       <use xlink:href="#DejaVuSans-68" transform="translate(764.941406 0)"/>
      </g>
     </g>
    </g>
    <g id="xtick_3">
     <g id="line2d_3">
      <g>
       <use xlink:href="#md05ed5b7a5" x="194.031534" y="343.870125" style="stroke: #000000; stroke-width: 0.8"/>
      </g>
     </g>
     <g id="text_3">
      <!-- mbpp -->
      <g transform="translate(168.062337 371.843534) rotate(-30) scale(0.1 -0.1)">
       <defs>
        <path id="DejaVuSans-62" d="M 3116 1747 
Q 3116 2381 2855 2742 
Q 2594 3103 2138 3103 
Q 1681 3103 1420 2742 
Q 1159 2381 1159 1747 
Q 1159 1113 1420 752 
Q 1681 391 2138 391 
Q 2594 391 2855 752 
Q 3116 1113 3116 1747 
z
M 1159 2969 
Q 1341 3281 1617 3432 
Q 1894 3584 2278 3584 
Q 2916 3584 3314 3078 
Q 3713 2572 3713 1747 
Q 3713 922 3314 415 
Q 2916 -91 2278 -91 
Q 1894 -91 1617 61 
Q 1341 213 1159 525 
L 1159 0 
L 581 0 
L 581 4863 
L 1159 4863 
L 1159 2969 
z
" transform="scale(0.015625)"/>
        <path id="DejaVuSans-70" d="M 1159 525 
L 1159 -1331 
L 581 -1331 
L 581 3500 
L 1159 3500 
L 1159 2969 
Q 1341 3281 1617 3432 
Q 1894 3584 2278 3584 
Q 2916 3584 3314 3078 
Q 3713 2572 3713 1747 
Q 3713 922 3314 415 
Q 2916 -91 2278 -91 
Q 1894 -91 1617 61 
Q 1341 213 1159 525 
z
M 3116 1747 
Q 3116 2381 2855 2742 
Q 2594 3103 2138 3103 
Q 1681 3103 1420 2742 
Q 1159 2381 1159 1747 
Q 1159 1113 1420 752 
Q 1681 391 2138 391 
Q 2594 391 2855 752 
Q 3116 1113 3116 1747 
z
" transform="scale(0.015625)"/>
       </defs>
       <use xlink:href="#DejaVuSans-6d"/>
       <use xlink:href="#DejaVuSans-62" transform="translate(97.412109 0)"/>
       <use xlink:href="#DejaVuSans-70" transform="translate(160.888672 0)"/>
       <use xlink:href="#DejaVuSans-70" transform="translate(224.365234 0)"/>
      </g>
     </g>
    </g>
    <g id="xtick_4">
     <g id="line2d_4">
      <g>
       <use xlink:href="#md05ed5b7a5" x="254.904261" y="343.870125" style="stroke: #000000; stroke-width: 0.8"/>
      </g>
     </g>
     <g id="text_4">
      <!-- humaneval -->
      <g transform="translate(205.48878 385.380252) rotate(-30) scale(0.1 -0.1)">
       <defs>
        <path id="DejaVuSans-75" d="M 544 1381 
L 544 3500 
L 1119 3500 
L 1119 1403 
Q 1119 906 1312 657 
Q 1506 409 1894 409 
Q 2359 409 2629 706 
Q 2900 1003 2900 1516 
L 2900 3500 
L 3475 3500 
L 3475 0 
L 2900 0 
L 2900 538 
Q 2691 219 2414 64 
Q 2138 -91 1772 -91 
Q 1169 -91 856 284 
Q 544 659 544 1381 
z
M 1991 3584 
L 1991 3584 
z
" transform="scale(0.015625)"/>
        <path id="DejaVuSans-76" d="M 191 3500 
L 800 3500 
L 1894 563 
L 2988 3500 
L 3597 3500 
L 2284 0 
L 1503 0 
L 191 3500 
z
" transform="scale(0.015625)"/>
        <path id="DejaVuSans-6c" d="M 603 4863 
L 1178 4863 
L 1178 0 
L 603 0 
L 603 4863 
z
" transform="scale(0.015625)"/>
       </defs>
       <use xlink:href="#DejaVuSans-68"/>
       <use xlink:href="#DejaVuSans-75" transform="translate(63.378906 0)"/>
       <use xlink:href="#DejaVuSans-6d" transform="translate(126.757812 0)"/>
       <use xlink:href="#DejaVuSans-61" transform="translate(224.169922 0)"/>
       <use xlink:href="#DejaVuSans-6e" transform="translate(285.449219 0)"/>
       <use xlink:href="#DejaVuSans-65" transform="translate(348.828125 0)"/>
       <use xlink:href="#DejaVuSans-76" transform="translate(410.351562 0)"/>
       <use xlink:href="#DejaVuSans-61" transform="translate(469.53125 0)"/>
       <use xlink:href="#DejaVuSans-6c" transform="translate(530.810547 0)"/>
      </g>
     </g>
    </g>
    <g id="xtick_5">
     <g id="line2d_5">
      <g>
       <use xlink:href="#md05ed5b7a5" x="315.776989" y="343.870125" style="stroke: #000000; stroke-width: 0.8"/>
      </g>
     </g>
     <g id="text_5">
      <!-- oasst1 -->
      <g transform="translate(286.202961 373.924784) rotate(-30) scale(0.1 -0.1)">
       <defs>
        <path id="DejaVuSans-6f" d="M 1959 3097 
Q 1497 3097 1228 2736 
Q 959 2375 959 1747 
Q 959 1119 1226 758 
Q 1494 397 1959 397 
Q 2419 397 2687 759 
Q 2956 1122 2956 1747 
Q 2956 2369 2687 2733 
Q 2419 3097 1959 3097 
z
M 1959 3584 
Q 2709 3584 3137 3096 
Q 3566 2609 3566 1747 
Q 3566 888 3137 398 
Q 2709 -91 1959 -91 
Q 1206 -91 779 398 
Q 353 888 353 1747 
Q 353 2609 779 3096 
Q 1206 3584 1959 3584 
z
" transform="scale(0.015625)"/>
        <path id="DejaVuSans-31" d="M 794 531 
L 1825 531 
L 1825 4091 
L 703 3866 
L 703 4441 
L 1819 4666 
L 2450 4666 
L 2450 531 
L 3481 531 
L 3481 0 
L 794 0 
L 794 531 
z
" transform="scale(0.015625)"/>
       </defs>
       <use xlink:href="#DejaVuSans-6f"/>
       <use xlink:href="#DejaVuSans-61" transform="translate(61.181641 0)"/>
       <use xlink:href="#DejaVuSans-73" transform="translate(122.460938 0)"/>
       <use xlink:href="#DejaVuSans-73" transform="translate(174.560547 0)"/>
       <use xlink:href="#DejaVuSans-74" transform="translate(226.660156 0)"/>
       <use xlink:href="#DejaVuSans-31" transform="translate(265.869141 0)"/>
      </g>
     </g>
    </g>
    <g id="xtick_6">
     <g id="line2d_6">
      <g>
       <use xlink:href="#md05ed5b7a5" x="376.649716" y="343.870125" style="stroke: #000000; stroke-width: 0.8"/>
      </g>
     </g>
     <g id="text_6">
      <!-- daily_dialog -->
      <g transform="translate(323.984246 387.176346) rotate(-30) scale(0.1 -0.1)">
       <defs>
        <path id="DejaVuSans-69" d="M 603 3500 
L 1178 3500 
L 1178 0 
L 603 0 
L 603 3500 
z
M 603 4863 
L 1178 4863 
L 1178 4134 
L 603 4134 
L 603 4863 
z
" transform="scale(0.015625)"/>
       </defs>
       <use xlink:href="#DejaVuSans-64"/>
       <use xlink:href="#DejaVuSans-61" transform="translate(63.476562 0)"/>
       <use xlink:href="#DejaVuSans-69" transform="translate(124.755859 0)"/>
       <use xlink:href="#DejaVuSans-6c" transform="translate(152.539062 0)"/>
       <use xlink:href="#DejaVuSans-79" transform="translate(180.322266 0)"/>
       <use xlink:href="#DejaVuSans-5f" transform="translate(239.501953 0)"/>
       <use xlink:href="#DejaVuSans-64" transform="translate(289.501953 0)"/>
       <use xlink:href="#DejaVuSans-69" transform="translate(352.978516 0)"/>
       <use xlink:href="#DejaVuSans-61" transform="translate(380.761719 0)"/>
       <use xlink:href="#DejaVuSans-6c" transform="translate(442.041016 0)"/>
       <use xlink:href="#DejaVuSans-6f" transform="translate(469.824219 0)"/>
       <use xlink:href="#DejaVuSans-67" transform="translate(531.005859 0)"/>
      </g>
     </g>
    </g>
    <g id="xtick_7">
     <g id="line2d_7">
      <g>
       <use xlink:href="#md05ed5b7a5" x="437.522443" y="343.870125" style="stroke: #000000; stroke-width: 0.8"/>
      </g>
     </g>
     <g id="text_7">
      <!-- strategyqa -->
      <g transform="translate(389.556201 384.543534) rotate(-30) scale(0.1 -0.1)">
       <defs>
        <path id="DejaVuSans-71" d="M 947 1747 
Q 947 1113 1208 752 
Q 1469 391 1925 391 
Q 2381 391 2643 752 
Q 2906 1113 2906 1747 
Q 2906 2381 2643 2742 
Q 2381 3103 1925 3103 
Q 1469 3103 1208 2742 
Q 947 2381 947 1747 
z
M 2906 525 
Q 2725 213 2448 61 
Q 2172 -91 1784 -91 
Q 1150 -91 751 415 
Q 353 922 353 1747 
Q 353 2572 751 3078 
Q 1150 3584 1784 3584 
Q 2172 3584 2448 3432 
Q 2725 3281 2906 2969 
L 2906 3500 
L 3481 3500 
L 3481 -1331 
L 2906 -1331 
L 2906 525 
z
" transform="scale(0.015625)"/>
       </defs>
       <use xlink:href="#DejaVuSans-73"/>
       <use xlink:href="#DejaVuSans-74" transform="translate(52.099609 0)"/>
       <use xlink:href="#DejaVuSans-72" transform="translate(91.308594 0)"/>
       <use xlink:href="#DejaVuSans-61" transform="translate(132.421875 0)"/>
       <use xlink:href="#DejaVuSans-74" transform="translate(193.701172 0)"/>
       <use xlink:href="#DejaVuSans-65" transform="translate(232.910156 0)"/>
       <use xlink:href="#DejaVuSans-67" transform="translate(294.433594 0)"/>
       <use xlink:href="#DejaVuSans-79" transform="translate(357.910156 0)"/>
       <use xlink:href="#DejaVuSans-71" transform="translate(417.089844 0)"/>
       <use xlink:href="#DejaVuSans-61" transform="translate(480.566406 0)"/>
      </g>
     </g>
    </g>
    <g id="xtick_8">
     <g id="line2d_8">
      <g>
       <use xlink:href="#md05ed5b7a5" x="498.39517" y="343.870125" style="stroke: #000000; stroke-width: 0.8"/>
      </g>
     </g>
     <g id="text_8">
      <!-- logiqa -->
      <g transform="translate(470.941552 372.700565) rotate(-30) scale(0.1 -0.1)">
       <use xlink:href="#DejaVuSans-6c"/>
       <use xlink:href="#DejaVuSans-6f" transform="translate(27.783203 0)"/>
       <use xlink:href="#DejaVuSans-67" transform="translate(88.964844 0)"/>
       <use xlink:href="#DejaVuSans-69" transform="translate(152.441406 0)"/>
       <use xlink:href="#DejaVuSans-71" transform="translate(180.224609 0)"/>
       <use xlink:href="#DejaVuSans-61" transform="translate(243.701172 0)"/>
      </g>
     </g>
    </g>
   </g>
   <g id="matplotlib.axis_2">
    <g id="ytick_1">
     <g id="line2d_9">
      <path d="M 34.240625 323.097583 
L 536.440625 323.097583 
" clip-path="url(#pd6d7734f84)" style="fill: none; stroke: #b0b0b0; stroke-opacity: 0.3; stroke-width: 0.8; stroke-linecap: square"/>
     </g>
     <g id="line2d_10">
      <defs>
       <path id="m8f5074fd93" d="M 0 0 
L -3.5 0 
" style="stroke: #000000; stroke-width: 0.8"/>
      </defs>
      <g>
       <use xlink:href="#m8f5074fd93" x="34.240625" y="323.097583" style="stroke: #000000; stroke-width: 0.8"/>
      </g>
     </g>
     <g id="text_9">
      <!-- 1 -->
      <g transform="translate(20.878125 326.896801) scale(0.1 -0.1)">
       <use xlink:href="#DejaVuSans-31"/>
      </g>
     </g>
    </g>
    <g id="ytick_2">
     <g id="line2d_11">
      <path d="M 34.240625 265.111496 
L 536.440625 265.111496 
" clip-path="url(#pd6d7734f84)" style="fill: none; stroke: #b0b0b0; stroke-opacity: 0.3; stroke-width: 0.8; stroke-linecap: square"/>
     </g>
     <g id="line2d_12">
      <g>
       <use xlink:href="#m8f5074fd93" x="34.240625" y="265.111496" style="stroke: #000000; stroke-width: 0.8"/>
      </g>
     </g>
     <g id="text_10">
      <!-- 2 -->
      <g transform="translate(20.878125 268.910715) scale(0.1 -0.1)">
       <defs>
        <path id="DejaVuSans-32" d="M 1228 531 
L 3431 531 
L 3431 0 
L 469 0 
L 469 531 
Q 828 903 1448 1529 
Q 2069 2156 2228 2338 
Q 2531 2678 2651 2914 
Q 2772 3150 2772 3378 
Q 2772 3750 2511 3984 
Q 2250 4219 1831 4219 
Q 1534 4219 1204 4116 
Q 875 4013 500 3803 
L 500 4441 
Q 881 4594 1212 4672 
Q 1544 4750 1819 4750 
Q 2544 4750 2975 4387 
Q 3406 4025 3406 3419 
Q 3406 3131 3298 2873 
Q 3191 2616 2906 2266 
Q 2828 2175 2409 1742 
Q 1991 1309 1228 531 
z
" transform="scale(0.015625)"/>
       </defs>
       <use xlink:href="#DejaVuSans-32"/>
      </g>
     </g>
    </g>
    <g id="ytick_3">
     <g id="line2d_13">
      <path d="M 34.240625 207.125409 
L 536.440625 207.125409 
" clip-path="url(#pd6d7734f84)" style="fill: none; stroke: #b0b0b0; stroke-opacity: 0.3; stroke-width: 0.8; stroke-linecap: square"/>
     </g>
     <g id="line2d_14">
      <g>
       <use xlink:href="#m8f5074fd93" x="34.240625" y="207.125409" style="stroke: #000000; stroke-width: 0.8"/>
      </g>
     </g>
     <g id="text_11">
      <!-- 3 -->
      <g transform="translate(20.878125 210.924628) scale(0.1 -0.1)">
       <defs>
        <path id="DejaVuSans-33" d="M 2597 2516 
Q 3050 2419 3304 2112 
Q 3559 1806 3559 1356 
Q 3559 666 3084 287 
Q 2609 -91 1734 -91 
Q 1441 -91 1130 -33 
Q 819 25 488 141 
L 488 750 
Q 750 597 1062 519 
Q 1375 441 1716 441 
Q 2309 441 2620 675 
Q 2931 909 2931 1356 
Q 2931 1769 2642 2001 
Q 2353 2234 1838 2234 
L 1294 2234 
L 1294 2753 
L 1863 2753 
Q 2328 2753 2575 2939 
Q 2822 3125 2822 3475 
Q 2822 3834 2567 4026 
Q 2313 4219 1838 4219 
Q 1578 4219 1281 4162 
Q 984 4106 628 3988 
L 628 4550 
Q 988 4650 1302 4700 
Q 1616 4750 1894 4750 
Q 2613 4750 3031 4423 
Q 3450 4097 3450 3541 
Q 3450 3153 3228 2886 
Q 3006 2619 2597 2516 
z
" transform="scale(0.015625)"/>
       </defs>
       <use xlink:href="#DejaVuSans-33"/>
      </g>
     </g>
    </g>
    <g id="ytick_4">
     <g id="line2d_15">
      <path d="M 34.240625 149.139322 
L 536.440625 149.139322 
" clip-path="url(#pd6d7734f84)" style="fill: none; stroke: #b0b0b0; stroke-opacity: 0.3; stroke-width: 0.8; stroke-linecap: square"/>
     </g>
     <g id="line2d_16">
      <g>
       <use xlink:href="#m8f5074fd93" x="34.240625" y="149.139322" style="stroke: #000000; stroke-width: 0.8"/>
      </g>
     </g>
     <g id="text_12">
      <!-- 4 -->
      <g transform="translate(20.878125 152.938541) scale(0.1 -0.1)">
       <defs>
        <path id="DejaVuSans-34" d="M 2419 4116 
L 825 1625 
L 2419 1625 
L 2419 4116 
z
M 2253 4666 
L 3047 4666 
L 3047 1625 
L 3713 1625 
L 3713 1100 
L 3047 1100 
L 3047 0 
L 2419 0 
L 2419 1100 
L 313 1100 
L 313 1709 
L 2253 4666 
z
" transform="scale(0.015625)"/>
       </defs>
       <use xlink:href="#DejaVuSans-34"/>
      </g>
     </g>
    </g>
    <g id="ytick_5">
     <g id="line2d_17">
      <path d="M 34.240625 91.153236 
L 536.440625 91.153236 
" clip-path="url(#pd6d7734f84)" style="fill: none; stroke: #b0b0b0; stroke-opacity: 0.3; stroke-width: 0.8; stroke-linecap: square"/>
     </g>
     <g id="line2d_18">
      <g>
       <use xlink:href="#m8f5074fd93" x="34.240625" y="91.153236" style="stroke: #000000; stroke-width: 0.8"/>
      </g>
     </g>
     <g id="text_13">
      <!-- 5 -->
      <g transform="translate(20.878125 94.952455) scale(0.1 -0.1)">
       <defs>
        <path id="DejaVuSans-35" d="M 691 4666 
L 3169 4666 
L 3169 4134 
L 1269 4134 
L 1269 2991 
Q 1406 3038 1543 3061 
Q 1681 3084 1819 3084 
Q 2600 3084 3056 2656 
Q 3513 2228 3513 1497 
Q 3513 744 3044 326 
Q 2575 -91 1722 -91 
Q 1428 -91 1123 -41 
Q 819 9 494 109 
L 494 744 
Q 775 591 1075 516 
Q 1375 441 1709 441 
Q 2250 441 2565 725 
Q 2881 1009 2881 1497 
Q 2881 1984 2565 2268 
Q 2250 2553 1709 2553 
Q 1456 2553 1204 2497 
Q 953 2441 691 2322 
L 691 4666 
z
" transform="scale(0.015625)"/>
       </defs>
       <use xlink:href="#DejaVuSans-35"/>
      </g>
     </g>
    </g>
    <g id="ytick_6">
     <g id="line2d_19">
      <path d="M 34.240625 33.167149 
L 536.440625 33.167149 
" clip-path="url(#pd6d7734f84)" style="fill: none; stroke: #b0b0b0; stroke-opacity: 0.3; stroke-width: 0.8; stroke-linecap: square"/>
     </g>
     <g id="line2d_20">
      <g>
       <use xlink:href="#m8f5074fd93" x="34.240625" y="33.167149" style="stroke: #000000; stroke-width: 0.8"/>
      </g>
     </g>
     <g id="text_14">
      <!-- 6 -->
      <g transform="translate(20.878125 36.966368) scale(0.1 -0.1)">
       <defs>
        <path id="DejaVuSans-36" d="M 2113 2584 
Q 1688 2584 1439 2293 
Q 1191 2003 1191 1497 
Q 1191 994 1439 701 
Q 1688 409 2113 409 
Q 2538 409 2786 701 
Q 3034 994 3034 1497 
Q 3034 2003 2786 2293 
Q 2538 2584 2113 2584 
z
M 3366 4563 
L 3366 3988 
Q 3128 4100 2886 4159 
Q 2644 4219 2406 4219 
Q 1781 4219 1451 3797 
Q 1122 3375 1075 2522 
Q 1259 2794 1537 2939 
Q 1816 3084 2150 3084 
Q 2853 3084 3261 2657 
Q 3669 2231 3669 1497 
Q 3669 778 3244 343 
Q 2819 -91 2113 -91 
Q 1303 -91 875 529 
Q 447 1150 447 2328 
Q 447 3434 972 4092 
Q 1497 4750 2381 4750 
Q 2619 4750 2861 4703 
Q 3103 4656 3366 4563 
z
" transform="scale(0.015625)"/>
       </defs>
       <use xlink:href="#DejaVuSans-36"/>
      </g>
     </g>
    </g>
    <g id="text_15">
     <!-- Prompt mean draft entropy (nats) -->
     <g transform="translate(14.798438 267.531625) rotate(-90) scale(0.1 -0.1)">
      <defs>
       <path id="DejaVuSans-50" d="M 1259 4147 
L 1259 2394 
L 2053 2394 
Q 2494 2394 2734 2622 
Q 2975 2850 2975 3272 
Q 2975 3691 2734 3919 
Q 2494 4147 2053 4147 
L 1259 4147 
z
M 628 4666 
L 2053 4666 
Q 2838 4666 3239 4311 
Q 3641 3956 3641 3272 
Q 3641 2581 3239 2228 
Q 2838 1875 2053 1875 
L 1259 1875 
L 1259 0 
L 628 0 
L 628 4666 
z
" transform="scale(0.015625)"/>
       <path id="DejaVuSans-20" transform="scale(0.015625)"/>
       <path id="DejaVuSans-66" d="M 2375 4863 
L 2375 4384 
L 1825 4384 
Q 1516 4384 1395 4259 
Q 1275 4134 1275 3809 
L 1275 3500 
L 2222 3500 
L 2222 3053 
L 1275 3053 
L 1275 0 
L 697 0 
L 697 3053 
L 147 3053 
L 147 3500 
L 697 3500 
L 697 3744 
Q 697 4328 969 4595 
Q 1241 4863 1831 4863 
L 2375 4863 
z
" transform="scale(0.015625)"/>
       <path id="DejaVuSans-28" d="M 1984 4856 
Q 1566 4138 1362 3434 
Q 1159 2731 1159 2009 
Q 1159 1288 1364 580 
Q 1569 -128 1984 -844 
L 1484 -844 
Q 1016 -109 783 600 
Q 550 1309 550 2009 
Q 550 2706 781 3412 
Q 1013 4119 1484 4856 
L 1984 4856 
z
" transform="scale(0.015625)"/>
       <path id="DejaVuSans-29" d="M 513 4856 
L 1013 4856 
Q 1481 4119 1714 3412 
Q 1947 2706 1947 2009 
Q 1947 1309 1714 600 
Q 1481 -109 1013 -844 
L 513 -844 
Q 928 -128 1133 580 
Q 1338 1288 1338 2009 
Q 1338 2731 1133 3434 
Q 928 4138 513 4856 
z
" transform="scale(0.015625)"/>
      </defs>
      <use xlink:href="#DejaVuSans-50"/>
      <use xlink:href="#DejaVuSans-72" transform="translate(58.552734 0)"/>
      <use xlink:href="#DejaVuSans-6f" transform="translate(97.416016 0)"/>
      <use xlink:href="#DejaVuSans-6d" transform="translate(158.597656 0)"/>
      <use xlink:href="#DejaVuSans-70" transform="translate(256.009766 0)"/>
      <use xlink:href="#DejaVuSans-74" transform="translate(319.486328 0)"/>
      <use xlink:href="#DejaVuSans-20" transform="translate(358.695312 0)"/>
      <use xlink:href="#DejaVuSans-6d" transform="translate(390.482422 0)"/>
      <use xlink:href="#DejaVuSans-65" transform="translate(487.894531 0)"/>
      <use xlink:href="#DejaVuSans-61" transform="translate(549.417969 0)"/>
      <use xlink:href="#DejaVuSans-6e" transform="translate(610.697266 0)"/>
      <use xlink:href="#DejaVuSans-20" transform="translate(674.076172 0)"/>
      <use xlink:href="#DejaVuSans-64" transform="translate(705.863281 0)"/>
      <use xlink:href="#DejaVuSans-72" transform="translate(769.339844 0)"/>
      <use xlink:href="#DejaVuSans-61" transform="translate(810.453125 0)"/>
      <use xlink:href="#DejaVuSans-66" transform="translate(871.732422 0)"/>
      <use xlink:href="#DejaVuSans-74" transform="translate(905.1875 0)"/>
      <use xlink:href="#DejaVuSans-20" transform="translate(944.396484 0)"/>
      <use xlink:href="#DejaVuSans-65" transform="translate(976.183594 0)"/>
      <use xlink:href="#DejaVuSans-6e" transform="translate(1037.707031 0)"/>
      <use xlink:href="#DejaVuSans-74" transform="translate(1101.085938 0)"/>
      <use xlink:href="#DejaVuSans-72" transform="translate(1140.294922 0)"/>
      <use xlink:href="#DejaVuSans-6f" transform="translate(1179.158203 0)"/>
      <use xlink:href="#DejaVuSans-70" transform="translate(1240.339844 0)"/>
      <use xlink:href="#DejaVuSans-79" transform="translate(1303.816406 0)"/>
      <use xlink:href="#DejaVuSans-20" transform="translate(1362.996094 0)"/>
      <use xlink:href="#DejaVuSans-28" transform="translate(1394.783203 0)"/>
      <use xlink:href="#DejaVuSans-6e" transform="translate(1433.796875 0)"/>
      <use xlink:href="#DejaVuSans-61" transform="translate(1497.175781 0)"/>
      <use xlink:href="#DejaVuSans-74" transform="translate(1558.455078 0)"/>
      <use xlink:href="#DejaVuSans-73" transform="translate(1597.664062 0)"/>
      <use xlink:href="#DejaVuSans-29" transform="translate(1649.763672 0)"/>
     </g>
    </g>
   </g>
   <g id="LineCollection_1">
    <path d="M 64.676989 221.885682 
L 79.89517 221.885682 
" clip-path="url(#pd6d7734f84)" style="fill: none; stroke: #1f77b4; stroke-width: 1.5"/>
    <path d="M 125.549716 171.081204 
L 140.767898 171.081204 
" clip-path="url(#pd6d7734f84)" style="fill: none; stroke: #1f77b4; stroke-width: 1.5"/>
    <path d="M 186.422443 99.038889 
L 201.640625 99.038889 
" clip-path="url(#pd6d7734f84)" style="fill: none; stroke: #1f77b4; stroke-width: 1.5"/>
    <path d="M 247.29517 140.686354 
L 262.513352 140.686354 
" clip-path="url(#pd6d7734f84)" style="fill: none; stroke: #1f77b4; stroke-width: 1.5"/>
    <path d="M 308.167898 185.701301 
L 323.38608 185.701301 
" clip-path="url(#pd6d7734f84)" style="fill: none; stroke: #1f77b4; stroke-width: 1.5"/>
    <path d="M 369.040625 181.492967 
L 384.258807 181.492967 
" clip-path="url(#pd6d7734f84)" style="fill: none; stroke: #1f77b4; stroke-width: 1.5"/>
    <path d="M 429.913352 182.914302 
L 445.131534 182.914302 
" clip-path="url(#pd6d7734f84)" style="fill: none; stroke: #1f77b4; stroke-width: 1.5"/>
    <path d="M 490.78608 257.256807 
L 506.004261 257.256807 
" clip-path="url(#pd6d7734f84)" style="fill: none; stroke: #1f77b4; stroke-width: 1.5"/>
   </g>
   <g id="LineCollection_2">
    <path d="M 64.676989 154.560891 
L 79.89517 154.560891 
" clip-path="url(#pd6d7734f84)" style="fill: none; stroke: #1f77b4; stroke-width: 1.5"/>
    <path d="M 125.549716 69.662897 
L 140.767898 69.662897 
" clip-path="url(#pd6d7734f84)" style="fill: none; stroke: #1f77b4; stroke-width: 1.5"/>
    <path d="M 186.422443 36.934125 
L 201.640625 36.934125 
" clip-path="url(#pd6d7734f84)" style="fill: none; stroke: #1f77b4; stroke-width: 1.5"/>
    <path d="M 247.29517 78.885579 
L 262.513352 78.885579 
" clip-path="url(#pd6d7734f84)" style="fill: none; stroke: #1f77b4; stroke-width: 1.5"/>
    <path d="M 308.167898 134.625634 
L 323.38608 134.625634 
" clip-path="url(#pd6d7734f84)" style="fill: none; stroke: #1f77b4; stroke-width: 1.5"/>
    <path d="M 369.040625 132.178791 
L 384.258807 132.178791 
" clip-path="url(#pd6d7734f84)" style="fill: none; stroke: #1f77b4; stroke-width: 1.5"/>
    <path d="M 429.913352 51.971108 
L 445.131534 51.971108 
" clip-path="url(#pd6d7734f84)" style="fill: none; stroke: #1f77b4; stroke-width: 1.5"/>
    <path d="M 490.78608 177.855868 
L 506.004261 177.855868 
" clip-path="url(#pd6d7734f84)" style="fill: none; stroke: #1f77b4; stroke-width: 1.5"/>
   </g>
   <g id="LineCollection_3">
    <path d="M 64.676989 295.355951 
L 79.89517 295.355951 
" clip-path="url(#pd6d7734f84)" style="fill: none; stroke: #1f77b4; stroke-width: 1.5"/>
    <path d="M 125.549716 257.043886 
L 140.767898 257.043886 
" clip-path="url(#pd6d7734f84)" style="fill: none; stroke: #1f77b4; stroke-width: 1.5"/>
    <path d="M 186.422443 215.292926 
L 201.640625 215.292926 
" clip-path="url(#pd6d7734f84)" style="fill: none; stroke: #1f77b4; stroke-width: 1.5"/>
    <path d="M 247.29517 222.846382 
L 262.513352 222.846382 
" clip-path="url(#pd6d7734f84)" style="fill: none; stroke: #1f77b4; stroke-width: 1.5"/>
    <path d="M 308.167898 234.991141 
L 323.38608 234.991141 
" clip-path="url(#pd6d7734f84)" style="fill: none; stroke: #1f77b4; stroke-width: 1.5"/>
    <path d="M 369.040625 219.334155 
L 384.258807 219.334155 
" clip-path="url(#pd6d7734f84)" style="fill: none; stroke: #1f77b4; stroke-width: 1.5"/>
    <path d="M 429.913352 270.495602 
L 445.131534 270.495602 
" clip-path="url(#pd6d7734f84)" style="fill: none; stroke: #1f77b4; stroke-width: 1.5"/>
    <path d="M 490.78608 329.254125 
L 506.004261 329.254125 
" clip-path="url(#pd6d7734f84)" style="fill: none; stroke: #1f77b4; stroke-width: 1.5"/>
   </g>
   <g id="LineCollection_4">
    <path d="M 72.28608 295.355951 
L 72.28608 154.560891 
" clip-path="url(#pd6d7734f84)" style="fill: none; stroke: #1f77b4; stroke-width: 1.5"/>
    <path d="M 133.158807 257.043886 
L 133.158807 69.662897 
" clip-path="url(#pd6d7734f84)" style="fill: none; stroke: #1f77b4; stroke-width: 1.5"/>
    <path d="M 194.031534 215.292926 
L 194.031534 36.934125 
" clip-path="url(#pd6d7734f84)" style="fill: none; stroke: #1f77b4; stroke-width: 1.5"/>
    <path d="M 254.904261 222.846382 
L 254.904261 78.885579 
" clip-path="url(#pd6d7734f84)" style="fill: none; stroke: #1f77b4; stroke-width: 1.5"/>
    <path d="M 315.776989 234.991141 
L 315.776989 134.625634 
" clip-path="url(#pd6d7734f84)" style="fill: none; stroke: #1f77b4; stroke-width: 1.5"/>
    <path d="M 376.649716 219.334155 
L 376.649716 132.178791 
" clip-path="url(#pd6d7734f84)" style="fill: none; stroke: #1f77b4; stroke-width: 1.5"/>
    <path d="M 437.522443 270.495602 
L 437.522443 51.971108 
" clip-path="url(#pd6d7734f84)" style="fill: none; stroke: #1f77b4; stroke-width: 1.5"/>
    <path d="M 498.39517 329.254125 
L 498.39517 177.855868 
" clip-path="url(#pd6d7734f84)" style="fill: none; stroke: #1f77b4; stroke-width: 1.5"/>
   </g>
   <g id="LineCollection_5">
    <path d="M 64.676989 218.677045 
L 79.89517 218.677045 
" clip-path="url(#pd6d7734f84)" style="fill: none; stroke: #1f77b4; stroke-width: 1.5"/>
    <path d="M 125.549716 175.23655 
L 140.767898 175.23655 
" clip-path="url(#pd6d7734f84)" style="fill: none; stroke: #1f77b4; stroke-width: 1.5"/>
    <path d="M 186.422443 81.034996 
L 201.640625 81.034996 
" clip-path="url(#pd6d7734f84)" style="fill: none; stroke: #1f77b4; stroke-width: 1.5"/>
    <path d="M 247.29517 141.576032 
L 262.513352 141.576032 
" clip-path="url(#pd6d7734f84)" style="fill: none; stroke: #1f77b4; stroke-width: 1.5"/>
    <path d="M 308.167898 185.183247 
L 323.38608 185.183247 
" clip-path="url(#pd6d7734f84)" style="fill: none; stroke: #1f77b4; stroke-width: 1.5"/>
    <path d="M 369.040625 179.747427 
L 384.258807 179.747427 
" clip-path="url(#pd6d7734f84)" style="fill: none; stroke: #1f77b4; stroke-width: 1.5"/>
    <path d="M 429.913352 187.137979 
L 445.131534 187.137979 
" clip-path="url(#pd6d7734f84)" style="fill: none; stroke: #1f77b4; stroke-width: 1.5"/>
    <path d="M 490.78608 260.182109 
L 506.004261 260.182109 
" clip-path="url(#pd6d7734f84)" style="fill: none; stroke: #1f77b4; stroke-width: 1.5"/>
   </g>
   <g id="patch_3">
    <path d="M 34.240625 343.870125 
L 34.240625 22.318125 
" style="fill: none; stroke: #000000; stroke-width: 0.8; stroke-linejoin: miter; stroke-linecap: square"/>
   </g>
   <g id="patch_4">
    <path d="M 536.440625 343.870125 
L 536.440625 22.318125 
" style="fill: none; stroke: #000000; stroke-width: 0.8; stroke-linejoin: miter; stroke-linecap: square"/>
   </g>
   <g id="patch_5">
    <path d="M 34.240625 343.870125 
L 536.440625 343.870125 
" style="fill: none; stroke: #000000; stroke-width: 0.8; stroke-linejoin: miter; stroke-linecap: square"/>
   </g>
   <g id="patch_6">
    <path d="M 34.240625 22.318125 
L 536.440625 22.318125 
" style="fill: none; stroke: #000000; stroke-width: 0.8; stroke-linejoin: miter; stroke-linecap: square"/>
   </g>
   <g id="text_16">
    <!-- Draft entropy distribution by dataset -->
    <g transform="translate(175.144063 16.318125) scale(0.12 -0.12)">
     <defs>
      <path id="DejaVuSans-44" d="M 1259 4147 
L 1259 519 
L 2022 519 
Q 2988 519 3436 956 
Q 3884 1394 3884 2338 
Q 3884 3275 3436 3711 
Q 2988 4147 2022 4147 
L 1259 4147 
z
M 628 4666 
L 1925 4666 
Q 3281 4666 3915 4102 
Q 4550 3538 4550 2338 
Q 4550 1131 3912 565 
Q 3275 0 1925 0 
L 628 0 
L 628 4666 
z
" transform="scale(0.015625)"/>
     </defs>
     <use xlink:href="#DejaVuSans-44"/>
     <use xlink:href="#DejaVuSans-72" transform="translate(77.001953 0)"/>
     <use xlink:href="#DejaVuSans-61" transform="translate(118.115234 0)"/>
     <use xlink:href="#DejaVuSans-66" transform="translate(179.394531 0)"/>
     <use xlink:href="#DejaVuSans-74" transform="translate(212.849609 0)"/>
     <use xlink:href="#DejaVuSans-20" transform="translate(252.058594 0)"/>
     <use xlink:href="#DejaVuSans-65" transform="translate(283.845703 0)"/>
     <use xlink:href="#DejaVuSans-6e" transform="translate(345.369141 0)"/>
     <use xlink:href="#DejaVuSans-74" transform="translate(408.748047 0)"/>
     <use xlink:href="#DejaVuSans-72" transform="translate(447.957031 0)"/>
     <use xlink:href="#DejaVuSans-6f" transform="translate(486.820312 0)"/>
     <use xlink:href="#DejaVuSans-70" transform="translate(548.001953 0)"/>
     <use xlink:href="#DejaVuSans-79" transform="translate(611.478516 0)"/>
     <use xlink:href="#DejaVuSans-20" transform="translate(670.658203 0)"/>
     <use xlink:href="#DejaVuSans-64" transform="translate(702.445312 0)"/>
     <use xlink:href="#DejaVuSans-69" transform="translate(765.921875 0)"/>
     <use xlink:href="#DejaVuSans-73" transform="translate(793.705078 0)"/>
     <use xlink:href="#DejaVuSans-74" transform="translate(845.804688 0)"/>
     <use xlink:href="#DejaVuSans-72" transform="translate(885.013672 0)"/>
     <use xlink:href="#DejaVuSans-69" transform="translate(926.126953 0)"/>
     <use xlink:href="#DejaVuSans-62" transform="translate(953.910156 0)"/>
     <use xlink:href="#DejaVuSans-75" transform="translate(1017.386719 0)"/>
     <use xlink:href="#DejaVuSans-74" transform="translate(1080.765625 0)"/>
     <use xlink:href="#DejaVuSans-69" transform="translate(1119.974609 0)"/>
     <use xlink:href="#DejaVuSans-6f" transform="translate(1147.757812 0)"/>
     <use xlink:href="#DejaVuSans-6e" transform="translate(1208.939453 0)"/>
     <use xlink:href="#DejaVuSans-20" transform="translate(1272.318359 0)"/>
     <use xlink:href="#DejaVuSans-62" transform="translate(1304.105469 0)"/>
     <use xlink:href="#DejaVuSans-79" transform="translate(1367.582031 0)"/>
     <use xlink:href="#DejaVuSans-20" transform="translate(1426.761719 0)"/>
     <use xlink:href="#DejaVuSans-64" transform="translate(1458.548828 0)"/>
     <use xlink:href="#DejaVuSans-61" transform="translate(1522.025391 0)"/>
     <use xlink:href="#DejaVuSans-74" transform="translate(1583.304688 0)"/>
     <use xlink:href="#DejaVuSans-61" transform="translate(1622.513672 0)"/>
     <use xlink:href="#DejaVuSans-73" transform="translate(1683.792969 0)"/>
     <use xlink:href="#DejaVuSans-65" transform="translate(1735.892578 0)"/>
     <use xlink:href="#DejaVuSans-74" transform="translate(1797.416016 0)"/>
    </g>
   </g>
  </g>
 </g>
 <defs>
  <clipPath id="pd6d7734f84">
   <rect x="34.240625" y="22.318125" width="502.2" height="321.552"/>
  </clipPath>
 </defs>
</svg>
