<?xml version="1.0" encoding="utf-8" standalone="no"?>
<!DOCTYPE svg PUBLIC "-//W3C//DTD SVG 1.1//EN"
  "http://www.w3.org/Graphics/SVG/1.1/DTD/svg11.dtd">
<svg xmlns:xlink="http://www.w3.org/1999/xlink" width="576pt" height="360pt" viewBox="0 0 576 360" xmlns="http://www.w3.org/2000/svg" version="1.1">
 <metadata>
  <rdf:RDF xmlns:dc="http://purl.org/dc/elements/1.1/" xmlns:cc="http://creativecommons.org/ns#" xmlns:rdf="http://www.w3.org/1999/02/22-rdf-syntax-ns#">
   <cc:Work>
    <dc:type rdf:resource="http://purl.org/dc/dcmitype/StillImage"/>
    <dc:date>2026-05-18T00:23:36.957392</dc:date>
    <dc:format>image/svg+xml</dc:format>
    <dc:creator>
     <cc:Agent>
      <dc:title>Matplotlib v3.10.9, https://matplotlib.org/</dc:title>
     </cc:Agent>
    </dc:creator>
   </cc:Work>
  </rdf:RDF>
 </metadata>
 <defs>
  <style type="text/css">*{stroke-linejoin: round; stroke-linecap: butt}</style>
 </defs>
 <g id="figure_1">
  <g id="patch_1">
   <path d="M 0 360 
L 576 360 
L 576 0 
L 0 0 
z
" style="fill: #ffffff"/>
  </g>
  <g id="axes_1">
   <g id="patch_2">
    <path d="M 44.67125 318.04 
L 565.2 318.04 
L 565.2 26.88 
L 44.67125 26.88 
z
" style="fill: #ffffff"/>
   </g>
   <g id="FillBetweenPolyCollection_1">
    <path d="M 68.331648 298.104003 
L 68.331648 298.876994 
L 73.111526 295.656923 
L 77.891404 294.77237 
L 82.671283 294.702096 
L 87.451161 294.524893 
L 92.231039 298.298856 
L 97.010918 290.31477 
L 101.790796 289.117945 
L 106.570674 286.996463 
L 111.350553 304.805455 
L 116.130431 284.439032 
L 120.910309 299.282495 
L 125.690188 283.680179 
L 130.470066 282.563952 
L 135.249944 281.788346 
L 140.029823 291.788172 
L 144.809701 291.484917 
L 149.589579 280.900088 
L 154.369458 283.184284 
L 159.149336 279.18983 
L 163.929214 275.42539 
L 168.709093 275.851164 
L 173.488971 288.728831 
L 178.268849 276.822905 
L 183.048728 275.414382 
L 187.828606 264.255364 
L 192.608484 264.250435 
L 197.388363 264.582651 
L 202.168241 261.540774 
L 206.948119 261.555033 
L 211.727998 261.845204 
L 216.507876 262.049248 
L 221.287754 254.127239 
L 226.067633 254.176227 
L 230.847511 252.925668 
L 235.627389 252.497859 
L 240.407268 251.215025 
L 245.187146 249.974895 
L 249.967024 247.64023 
L 254.746903 243.367192 
L 259.526781 242.863332 
L 264.306659 242.380769 
L 269.086538 246.062648 
L 273.866416 241.860049 
L 278.646294 252.514437 
L 283.426173 239.742614 
L 288.206051 238.226754 
L 292.985929 239.026962 
L 297.765808 241.401343 
L 302.545686 235.800033 
L 307.325564 235.864267 
L 312.105442 203.530278 
L 316.885321 205.005351 
L 321.665199 204.226796 
L 326.445077 203.196287 
L 331.224956 199.948647 
L 336.004834 200.9786 
L 340.784712 199.818148 
L 345.564591 200.676667 
L 350.344469 194.638393 
L 355.124347 196.242839 
L 359.904226 193.784475 
L 364.684104 192.314869 
L 369.463982 198.309784 
L 374.243861 170.748305 
L 379.023739 206.600884 
L 383.803617 166.215388 
L 388.583496 162.326257 
L 393.363374 161.850861 
L 398.143252 159.622858 
L 402.923131 156.30317 
L 407.703009 170.84701 
L 412.482887 152.122803 
L 417.262766 149.547689 
L 422.042644 147.98691 
L 426.822522 155.653904 
L 431.602401 131.812638 
L 436.382279 132.550071 
L 441.162157 127.821358 
L 445.942036 132.665819 
L 450.721914 122.769407 
L 455.501792 118.916967 
L 460.281671 116.597047 
L 465.061549 131.336602 
L 469.841427 115.529734 
L 474.621306 110.289903 
L 479.401184 108.064607 
L 484.181062 114.767197 
L 488.960941 104.466753 
L 493.740819 88.974962 
L 498.520697 87.511941 
L 503.300576 89.962446 
L 508.080454 82.939245 
L 512.860332 80.436702 
L 517.640211 97.223189 
L 522.420089 79.423983 
L 527.199967 73.690359 
L 531.979846 70.97519 
L 536.759724 76.583058 
L 541.539602 84.681529 
L 541.539602 40.114545 
L 541.539602 40.114545 
L 536.759724 50.794218 
L 531.979846 70.552591 
L 527.199967 72.571483 
L 522.420089 78.912706 
L 517.640211 47.555784 
L 512.860332 79.958833 
L 508.080454 82.490035 
L 503.300576 84.91854 
L 498.520697 87.051038 
L 493.740819 88.589699 
L 488.960941 103.724155 
L 484.181062 101.495303 
L 479.401184 107.682989 
L 474.621306 109.878717 
L 469.841427 106.468613 
L 465.061549 93.930366 
L 460.281671 116.116084 
L 455.501792 118.4043 
L 450.721914 122.207346 
L 445.942036 118.699394 
L 441.162157 127.564003 
L 436.382279 127.343362 
L 431.602401 131.434957 
L 426.822522 130.812283 
L 422.042644 147.722097 
L 417.262766 149.298839 
L 412.482887 151.736507 
L 407.703009 126.607568 
L 402.923131 156.069817 
L 398.143252 159.32762 
L 393.363374 159.85945 
L 388.583496 161.679921 
L 383.803617 165.570195 
L 379.023739 108.791652 
L 374.243861 170.138605 
L 369.463982 169.287843 
L 364.684104 191.65427 
L 359.904226 193.421397 
L 355.124347 195.738845 
L 350.344469 194.29857 
L 345.564591 195.538701 
L 340.784712 199.406593 
L 336.004834 200.783816 
L 331.224956 199.561321 
L 326.445077 202.937158 
L 321.665199 203.981476 
L 316.885321 204.566003 
L 312.105442 203.200415 
L 307.325564 235.509732 
L 302.545686 235.426968 
L 297.765808 229.394043 
L 292.985929 238.698299 
L 288.206051 237.858335 
L 283.426173 239.096348 
L 278.646294 216.920323 
L 273.866416 240.928305 
L 269.086538 231.375332 
L 264.306659 241.664618 
L 259.526781 242.207284 
L 254.746903 242.601334 
L 249.967024 233.318532 
L 245.187146 247.907886 
L 240.407268 248.893127 
L 235.627389 249.907836 
L 230.847511 251.015968 
L 226.067633 252.716865 
L 221.287754 252.282973 
L 216.507876 260.686109 
L 211.727998 259.095322 
L 206.948119 259.465302 
L 202.168241 259.533669 
L 197.388363 261.455736 
L 192.608484 261.52599 
L 187.828606 261.584178 
L 183.048728 274.080975 
L 178.268849 275.483955 
L 173.488971 252.464674 
L 168.709093 273.493124 
L 163.929214 274.771952 
L 159.149336 271.288285 
L 154.369458 274.570055 
L 149.589579 280.287564 
L 144.809701 265.062874 
L 140.029823 266.604308 
L 135.249944 281.388298 
L 130.470066 281.192873 
L 125.690188 280.289376 
L 120.910309 261.06333 
L 116.130431 284.008076 
L 111.350553 252.964887 
L 106.570674 285.326382 
L 101.790796 284.714788 
L 97.010918 283.451663 
L 92.231039 279.564045 
L 87.451161 290.359479 
L 82.671283 294.145068 
L 77.891404 293.962027 
L 73.111526 294.384456 
L 68.331648 298.104003 
z
" clip-path="url(#p9584ad4d1e)" style="fill: #1f77b4; fill-opacity: 0.15"/>
   </g>
   <g id="FillBetweenPolyCollection_2">
    <path d="M 68.331648 290.560973 
L 68.331648 300.483038 
L 73.111526 293.899822 
L 77.891404 296.688234 
L 82.671283 302.364708 
L 87.451161 295.624616 
L 92.231039 289.702269 
L 97.010918 286.540316 
L 101.790796 286.386113 
L 106.570674 287.631967 
L 111.350553 284.120155 
L 116.130431 297.379541 
L 120.910309 283.027092 
L 125.690188 289.065241 
L 130.470066 280.61653 
L 135.249944 280.270881 
L 140.029823 283.663665 
L 144.809701 279.990873 
L 149.589579 280.785792 
L 154.369458 282.886372 
L 159.149336 275.809827 
L 163.929214 273.61124 
L 168.709093 287.46864 
L 173.488971 276.368466 
L 178.268849 276.213306 
L 183.048728 281.061272 
L 187.828606 262.872352 
L 192.608484 262.491794 
L 197.388363 265.090339 
L 202.168241 259.860591 
L 206.948119 259.63862 
L 211.727998 259.903671 
L 216.507876 266.484595 
L 221.287754 252.528926 
L 226.067633 252.290399 
L 230.847511 250.78701 
L 235.627389 250.624382 
L 240.407268 248.854812 
L 245.187146 248.100991 
L 249.967024 241.623833 
L 254.746903 241.69342 
L 259.526781 251.620313 
L 264.306659 265.602505 
L 269.086538 239.285917 
L 273.866416 239.984745 
L 278.646294 237.248552 
L 283.426173 245.544201 
L 288.206051 241.184892 
L 292.985929 237.199812 
L 297.765808 234.94788 
L 302.545686 233.895014 
L 307.325564 233.941809 
L 312.105442 201.671978 
L 316.885321 203.103615 
L 321.665199 203.456976 
L 326.445077 211.142336 
L 331.224956 197.968115 
L 336.004834 203.002747 
L 340.784712 197.750654 
L 345.564591 196.850336 
L 350.344469 192.582626 
L 355.124347 194.005741 
L 359.904226 194.341977 
L 364.684104 190.013694 
L 369.463982 186.905101 
L 374.243861 168.351045 
L 379.023739 168.798498 
L 383.803617 163.784739 
L 388.583496 160.019776 
L 393.363374 167.467451 
L 398.143252 158.244512 
L 402.923131 153.961255 
L 407.703009 151.58297 
L 412.482887 151.67105 
L 417.262766 147.218046 
L 422.042644 146.304287 
L 426.822522 143.698392 
L 431.602401 129.507237 
L 436.382279 128.210526 
L 441.162157 125.322652 
L 445.942036 124.873756 
L 450.721914 126.991688 
L 455.501792 118.317975 
L 460.281671 113.895567 
L 465.061549 114.166256 
L 469.841427 119.862145 
L 474.621306 107.307041 
L 479.401184 107.642725 
L 484.181062 107.448751 
L 488.960941 101.671212 
L 493.740819 86.155274 
L 498.520697 98.184289 
L 503.300576 88.393608 
L 508.080454 80.071497 
L 512.860332 85.153786 
L 517.640211 81.666025 
L 522.420089 76.410648 
L 527.199967 70.49548 
L 531.979846 78.472284 
L 536.759724 64.854255 
L 541.539602 64.493191 
L 541.539602 63.929339 
L 541.539602 63.929339 
L 536.759724 64.211737 
L 531.979846 50.636716 
L 527.199967 69.820943 
L 522.420089 75.850247 
L 517.640211 64.302764 
L 512.860332 61.944944 
L 508.080454 79.691859 
L 503.300576 79.920929 
L 498.520697 62.591015 
L 493.740819 85.588538 
L 488.960941 101.073434 
L 484.181062 105.701337 
L 479.401184 100.86315 
L 474.621306 106.807482 
L 469.841427 91.898105 
L 465.061549 113.61026 
L 460.281671 113.180462 
L 455.501792 111.919843 
L 450.721914 108.431384 
L 445.942036 124.290839 
L 441.162157 124.765671 
L 436.382279 127.851851 
L 431.602401 128.654104 
L 426.822522 143.143372 
L 422.042644 143.700631 
L 417.262766 146.810408 
L 412.482887 146.311102 
L 407.703009 151.202942 
L 402.923131 153.748037 
L 398.143252 155.360753 
L 393.363374 145.083222 
L 388.583496 159.629043 
L 383.803617 163.323171 
L 379.023739 162.363977 
L 374.243861 167.843527 
L 369.463982 182.170071 
L 364.684104 189.50935 
L 359.904226 186.496685 
L 355.124347 193.370333 
L 350.344469 191.953739 
L 345.564591 196.297879 
L 340.784712 197.378518 
L 336.004834 190.821423 
L 331.224956 197.59753 
L 326.445077 185.16836 
L 321.665199 200.310098 
L 316.885321 202.570042 
L 312.105442 201.258604 
L 307.325564 233.695779 
L 302.545686 233.412524 
L 297.765808 234.57748 
L 292.985929 236.726273 
L 288.206051 228.40703 
L 283.426173 224.933722 
L 278.646294 236.412113 
L 273.866416 239.136339 
L 269.086538 238.056535 
L 264.306659 198.781552 
L 259.526781 217.053668 
L 254.746903 240.063151 
L 249.967024 239.835226 
L 245.187146 245.652849 
L 240.407268 246.788793 
L 235.627389 249.348106 
L 230.847511 249.388934 
L 226.067633 251.139514 
L 221.287754 249.708622 
L 216.507876 249.182184 
L 211.727998 256.927226 
L 206.948119 257.531033 
L 202.168241 257.52899 
L 197.388363 254.324988 
L 192.608484 260.706851 
L 187.828606 260.618097 
L 183.048728 260.686792 
L 178.268849 272.038518 
L 173.488971 267.592609 
L 168.709093 250.544615 
L 163.929214 272.965719 
L 159.149336 272.774483 
L 154.369458 271.111319 
L 149.589579 276.273729 
L 144.809701 279.368649 
L 140.029823 275.149422 
L 135.249944 279.724599 
L 130.470066 280.155248 
L 125.690188 267.772016 
L 120.910309 282.795811 
L 116.130431 259.151426 
L 111.350553 283.578237 
L 106.570674 279.807537 
L 101.790796 285.255196 
L 97.010918 285.966482 
L 92.231039 289.086954 
L 87.451161 284.790183 
L 82.671283 278.327629 
L 77.891404 287.135963 
L 73.111526 293.379595 
L 68.331648 290.560973 
z
" clip-path="url(#p9584ad4d1e)" style="fill: #ff7f0e; fill-opacity: 0.15"/>
   </g>
   <g id="matplotlib.axis_1">
    <g id="xtick_1">
     <g id="line2d_1">
      <path d="M 63.551769 318.04 
L 63.551769 26.88 
" clip-path="url(#p9584ad4d1e)" style="fill: none; stroke: #b0b0b0; stroke-opacity: 0.3; stroke-width: 0.8; stroke-linecap: square"/>
     </g>
     <g id="line2d_2">
      <defs>
       <path id="ma0f68b7587" d="M 0 0 
L 0 3.5 
" style="stroke: #000000; stroke-width: 0.8"/>
      </defs>
      <g>
       <use xlink:href="#ma0f68b7587" x="63.551769" y="318.04" style="stroke: #000000; stroke-width: 0.8"/>
      </g>
     </g>
     <g id="text_1">
      <!-- 0 -->
      <g transform="translate(60.370519 332.638438) scale(0.1 -0.1)">
       <defs>
        <path id="DejaVuSans-30" d="M 2034 4250 
Q 1547 4250 1301 3770 
Q 1056 3291 1056 2328 
Q 1056 1369 1301 889 
Q 1547 409 2034 409 
Q 2525 409 2770 889 
Q 3016 1369 3016 2328 
Q 3016 3291 2770 3770 
Q 2525 4250 2034 4250 
z
M 2034 4750 
Q 2819 4750 3233 4129 
Q 3647 3509 3647 2328 
Q 3647 1150 3233 529 
Q 2819 -91 2034 -91 
Q 1250 -91 836 529 
Q 422 1150 422 2328 
Q 422 3509 836 4129 
Q 1250 4750 2034 4750 
z
" transform="scale(0.015625)"/>
       </defs>
       <use xlink:href="#DejaVuSans-30"/>
      </g>
     </g>
    </g>
    <g id="xtick_2">
     <g id="line2d_3">
      <path d="M 159.149336 318.04 
L 159.149336 26.88 
" clip-path="url(#p9584ad4d1e)" style="fill: none; stroke: #b0b0b0; stroke-opacity: 0.3; stroke-width: 0.8; stroke-linecap: square"/>
     </g>
     <g id="line2d_4">
      <g>
       <use xlink:href="#ma0f68b7587" x="159.149336" y="318.04" style="stroke: #000000; stroke-width: 0.8"/>
      </g>
     </g>
     <g id="text_2">
      <!-- 200 -->
      <g transform="translate(149.605586 332.638438) scale(0.1 -0.1)">
       <defs>
        <path id="DejaVuSans-32" d="M 1228 531 
L 3431 531 
L 3431 0 
L 469 0 
L 469 531 
Q 828 903 1448 1529 
Q 2069 2156 2228 2338 
Q 2531 2678 2651 2914 
Q 2772 3150 2772 3378 
Q 2772 3750 2511 3984 
Q 2250 4219 1831 4219 
Q 1534 4219 1204 4116 
Q 875 4013 500 3803 
L 500 4441 
Q 881 4594 1212 4672 
Q 1544 4750 1819 4750 
Q 2544 4750 2975 4387 
Q 3406 4025 3406 3419 
Q 3406 3131 3298 2873 
Q 3191 2616 2906 2266 
Q 2828 2175 2409 1742 
Q 1991 1309 1228 531 
z
" transform="scale(0.015625)"/>
       </defs>
       <use xlink:href="#DejaVuSans-32"/>
       <use xlink:href="#DejaVuSans-30" transform="translate(63.623047 0)"/>
       <use xlink:href="#DejaVuSans-30" transform="translate(127.246094 0)"/>
      </g>
     </g>
    </g>
    <g id="xtick_3">
     <g id="line2d_5">
      <path d="M 254.746903 318.04 
L 254.746903 26.88 
" clip-path="url(#p9584ad4d1e)" style="fill: none; stroke: #b0b0b0; stroke-opacity: 0.3; stroke-width: 0.8; stroke-linecap: square"/>
     </g>
     <g id="line2d_6">
      <g>
       <use xlink:href="#ma0f68b7587" x="254.746903" y="318.04" style="stroke: #000000; stroke-width: 0.8"/>
      </g>
     </g>
     <g id="text_3">
      <!-- 400 -->
      <g transform="translate(245.203153 332.638438) scale(0.1 -0.1)">
       <defs>
        <path id="DejaVuSans-34" d="M 2419 4116 
L 825 1625 
L 2419 1625 
L 2419 4116 
z
M 2253 4666 
L 3047 4666 
L 3047 1625 
L 3713 1625 
L 3713 1100 
L 3047 1100 
L 3047 0 
L 2419 0 
L 2419 1100 
L 313 1100 
L 313 1709 
L 2253 4666 
z
" transform="scale(0.015625)"/>
       </defs>
       <use xlink:href="#DejaVuSans-34"/>
       <use xlink:href="#DejaVuSans-30" transform="translate(63.623047 0)"/>
       <use xlink:href="#DejaVuSans-30" transform="translate(127.246094 0)"/>
      </g>
     </g>
    </g>
    <g id="xtick_4">
     <g id="line2d_7">
      <path d="M 350.344469 318.04 
L 350.344469 26.88 
" clip-path="url(#p9584ad4d1e)" style="fill: none; stroke: #b0b0b0; stroke-opacity: 0.3; stroke-width: 0.8; stroke-linecap: square"/>
     </g>
     <g id="line2d_8">
      <g>
       <use xlink:href="#ma0f68b7587" x="350.344469" y="318.04" style="stroke: #000000; stroke-width: 0.8"/>
      </g>
     </g>
     <g id="text_4">
      <!-- 600 -->
      <g transform="translate(340.800719 332.638438) scale(0.1 -0.1)">
       <defs>
        <path id="DejaVuSans-36" d="M 2113 2584 
Q 1688 2584 1439 2293 
Q 1191 2003 1191 1497 
Q 1191 994 1439 701 
Q 1688 409 2113 409 
Q 2538 409 2786 701 
Q 3034 994 3034 1497 
Q 3034 2003 2786 2293 
Q 2538 2584 2113 2584 
z
M 3366 4563 
L 3366 3988 
Q 3128 4100 2886 4159 
Q 2644 4219 2406 4219 
Q 1781 4219 1451 3797 
Q 1122 3375 1075 2522 
Q 1259 2794 1537 2939 
Q 1816 3084 2150 3084 
Q 2853 3084 3261 2657 
Q 3669 2231 3669 1497 
Q 3669 778 3244 343 
Q 2819 -91 2113 -91 
Q 1303 -91 875 529 
Q 447 1150 447 2328 
Q 447 3434 972 4092 
Q 1497 4750 2381 4750 
Q 2619 4750 2861 4703 
Q 3103 4656 3366 4563 
z
" transform="scale(0.015625)"/>
       </defs>
       <use xlink:href="#DejaVuSans-36"/>
       <use xlink:href="#DejaVuSans-30" transform="translate(63.623047 0)"/>
       <use xlink:href="#DejaVuSans-30" transform="translate(127.246094 0)"/>
      </g>
     </g>
    </g>
    <g id="xtick_5">
     <g id="line2d_9">
      <path d="M 445.942036 318.04 
L 445.942036 26.88 
" clip-path="url(#p9584ad4d1e)" style="fill: none; stroke: #b0b0b0; stroke-opacity: 0.3; stroke-width: 0.8; stroke-linecap: square"/>
     </g>
     <g id="line2d_10">
      <g>
       <use xlink:href="#ma0f68b7587" x="445.942036" y="318.04" style="stroke: #000000; stroke-width: 0.8"/>
      </g>
     </g>
     <g id="text_5">
      <!-- 800 -->
      <g transform="translate(436.398286 332.638438) scale(0.1 -0.1)">
       <defs>
        <path id="DejaVuSans-38" d="M 2034 2216 
Q 1584 2216 1326 1975 
Q 1069 1734 1069 1313 
Q 1069 891 1326 650 
Q 1584 409 2034 409 
Q 2484 409 2743 651 
Q 3003 894 3003 1313 
Q 3003 1734 2745 1975 
Q 2488 2216 2034 2216 
z
M 1403 2484 
Q 997 2584 770 2862 
Q 544 3141 544 3541 
Q 544 4100 942 4425 
Q 1341 4750 2034 4750 
Q 2731 4750 3128 4425 
Q 3525 4100 3525 3541 
Q 3525 3141 3298 2862 
Q 3072 2584 2669 2484 
Q 3125 2378 3379 2068 
Q 3634 1759 3634 1313 
Q 3634 634 3220 271 
Q 2806 -91 2034 -91 
Q 1263 -91 848 271 
Q 434 634 434 1313 
Q 434 1759 690 2068 
Q 947 2378 1403 2484 
z
M 1172 3481 
Q 1172 3119 1398 2916 
Q 1625 2713 2034 2713 
Q 2441 2713 2670 2916 
Q 2900 3119 2900 3481 
Q 2900 3844 2670 4047 
Q 2441 4250 2034 4250 
Q 1625 4250 1398 4047 
Q 1172 3844 1172 3481 
z
" transform="scale(0.015625)"/>
       </defs>
       <use xlink:href="#DejaVuSans-38"/>
       <use xlink:href="#DejaVuSans-30" transform="translate(63.623047 0)"/>
       <use xlink:href="#DejaVuSans-30" transform="translate(127.246094 0)"/>
      </g>
     </g>
    </g>
    <g id="xtick_6">
     <g id="line2d_11">
      <path d="M 541.539602 318.04 
L 541.539602 26.88 
" clip-path="url(#p9584ad4d1e)" style="fill: none; stroke: #b0b0b0; stroke-opacity: 0.3; stroke-width: 0.8; stroke-linecap: square"/>
     </g>
     <g id="line2d_12">
      <g>
       <use xlink:href="#ma0f68b7587" x="541.539602" y="318.04" style="stroke: #000000; stroke-width: 0.8"/>
      </g>
     </g>
     <g id="text_6">
      <!-- 1000 -->
      <g transform="translate(528.814602 332.638438) scale(0.1 -0.1)">
       <defs>
        <path id="DejaVuSans-31" d="M 794 531 
L 1825 531 
L 1825 4091 
L 703 3866 
L 703 4441 
L 1819 4666 
L 2450 4666 
L 2450 531 
L 3481 531 
L 3481 0 
L 794 0 
L 794 531 
z
" transform="scale(0.015625)"/>
       </defs>
       <use xlink:href="#DejaVuSans-31"/>
       <use xlink:href="#DejaVuSans-30" transform="translate(63.623047 0)"/>
       <use xlink:href="#DejaVuSans-30" transform="translate(127.246094 0)"/>
       <use xlink:href="#DejaVuSans-30" transform="translate(190.869141 0)"/>
      </g>
     </g>
    </g>
    <g id="text_7">
     <!-- Draft length -->
     <g transform="translate(274.806719 346.316563) scale(0.1 -0.1)">
      <defs>
       <path id="DejaVuSans-44" d="M 1259 4147 
L 1259 519 
L 2022 519 
Q 2988 519 3436 956 
Q 3884 1394 3884 2338 
Q 3884 3275 3436 3711 
Q 2988 4147 2022 4147 
L 1259 4147 
z
M 628 4666 
L 1925 4666 
Q 3281 4666 3915 4102 
Q 4550 3538 4550 2338 
Q 4550 1131 3912 565 
Q 3275 0 1925 0 
L 628 0 
L 628 4666 
z
" transform="scale(0.015625)"/>
       <path id="DejaVuSans-72" d="M 2631 2963 
Q 2534 3019 2420 3045 
Q 2306 3072 2169 3072 
Q 1681 3072 1420 2755 
Q 1159 2438 1159 1844 
L 1159 0 
L 581 0 
L 581 3500 
L 1159 3500 
L 1159 2956 
Q 1341 3275 1631 3429 
Q 1922 3584 2338 3584 
Q 2397 3584 2469 3576 
Q 2541 3569 2628 3553 
L 2631 2963 
z
" transform="scale(0.015625)"/>
       <path id="DejaVuSans-61" d="M 2194 1759 
Q 1497 1759 1228 1600 
Q 959 1441 959 1056 
Q 959 750 1161 570 
Q 1363 391 1709 391 
Q 2188 391 2477 730 
Q 2766 1069 2766 1631 
L 2766 1759 
L 2194 1759 
z
M 3341 1997 
L 3341 0 
L 2766 0 
L 2766 531 
Q 2569 213 2275 61 
Q 1981 -91 1556 -91 
Q 1019 -91 701 211 
Q 384 513 384 1019 
Q 384 1609 779 1909 
Q 1175 2209 1959 2209 
L 2766 2209 
L 2766 2266 
Q 2766 2663 2505 2880 
Q 2244 3097 1772 3097 
Q 1472 3097 1187 3025 
Q 903 2953 641 2809 
L 641 3341 
Q 956 3463 1253 3523 
Q 1550 3584 1831 3584 
Q 2591 3584 2966 3190 
Q 3341 2797 3341 1997 
z
" transform="scale(0.015625)"/>
       <path id="DejaVuSans-66" d="M 2375 4863 
L 2375 4384 
L 1825 4384 
Q 1516 4384 1395 4259 
Q 1275 4134 1275 3809 
L 1275 3500 
L 2222 3500 
L 2222 3053 
L 1275 3053 
L 1275 0 
L 697 0 
L 697 3053 
L 147 3053 
L 147 3500 
L 697 3500 
L 697 3744 
Q 697 4328 969 4595 
Q 1241 4863 1831 4863 
L 2375 4863 
z
" transform="scale(0.015625)"/>
       <path id="DejaVuSans-74" d="M 1172 4494 
L 1172 3500 
L 2356 3500 
L 2356 3053 
L 1172 3053 
L 1172 1153 
Q 1172 725 1289 603 
Q 1406 481 1766 481 
L 2356 481 
L 2356 0 
L 1766 0 
Q 1100 0 847 248 
Q 594 497 594 1153 
L 594 3053 
L 172 3053 
L 172 3500 
L 594 3500 
L 594 4494 
L 1172 4494 
z
" transform="scale(0.015625)"/>
       <path id="DejaVuSans-20" transform="scale(0.015625)"/>
       <path id="DejaVuSans-6c" d="M 603 4863 
L 1178 4863 
L 1178 0 
L 603 0 
L 603 4863 
z
" transform="scale(0.015625)"/>
       <path id="DejaVuSans-65" d="M 3597 1894 
L 3597 1613 
L 953 1613 
Q 991 1019 1311 708 
Q 1631 397 2203 397 
Q 2534 397 2845 478 
Q 3156 559 3463 722 
L 3463 178 
Q 3153 47 2828 -22 
Q 2503 -91 2169 -91 
Q 1331 -91 842 396 
Q 353 884 353 1716 
Q 353 2575 817 3079 
Q 1281 3584 2069 3584 
Q 2775 3584 3186 3129 
Q 3597 2675 3597 1894 
z
M 3022 2063 
Q 3016 2534 2758 2815 
Q 2500 3097 2075 3097 
Q 1594 3097 1305 2825 
Q 1016 2553 972 2059 
L 3022 2063 
z
" transform="scale(0.015625)"/>
       <path id="DejaVuSans-6e" d="M 3513 2113 
L 3513 0 
L 2938 0 
L 2938 2094 
Q 2938 2591 2744 2837 
Q 2550 3084 2163 3084 
Q 1697 3084 1428 2787 
Q 1159 2491 1159 1978 
L 1159 0 
L 581 0 
L 581 3500 
L 1159 3500 
L 1159 2956 
Q 1366 3272 1645 3428 
Q 1925 3584 2291 3584 
Q 2894 3584 3203 3211 
Q 3513 2838 3513 2113 
z
" transform="scale(0.015625)"/>
       <path id="DejaVuSans-67" d="M 2906 1791 
Q 2906 2416 2648 2759 
Q 2391 3103 1925 3103 
Q 1463 3103 1205 2759 
Q 947 2416 947 1791 
Q 947 1169 1205 825 
Q 1463 481 1925 481 
Q 2391 481 2648 825 
Q 2906 1169 2906 1791 
z
M 3481 434 
Q 3481 -459 3084 -895 
Q 2688 -1331 1869 -1331 
Q 1566 -1331 1297 -1286 
Q 1028 -1241 775 -1147 
L 775 -588 
Q 1028 -725 1275 -790 
Q 1522 -856 1778 -856 
Q 2344 -856 2625 -561 
Q 2906 -266 2906 331 
L 2906 616 
Q 2728 306 2450 153 
Q 2172 0 1784 0 
Q 1141 0 747 490 
Q 353 981 353 1791 
Q 353 2603 747 3093 
Q 1141 3584 1784 3584 
Q 2172 3584 2450 3431 
Q 2728 3278 2906 2969 
L 2906 3500 
L 3481 3500 
L 3481 434 
z
" transform="scale(0.015625)"/>
       <path id="DejaVuSans-68" d="M 3513 2113 
L 3513 0 
L 2938 0 
L 2938 2094 
Q 2938 2591 2744 2837 
Q 2550 3084 2163 3084 
Q 1697 3084 1428 2787 
Q 1159 2491 1159 1978 
L 1159 0 
L 581 0 
L 581 4863 
L 1159 4863 
L 1159 2956 
Q 1366 3272 1645 3428 
Q 1925 3584 2291 3584 
Q 2894 3584 3203 3211 
Q 3513 2838 3513 2113 
z
" transform="scale(0.015625)"/>
      </defs>
      <use xlink:href="#DejaVuSans-44"/>
      <use xlink:href="#DejaVuSans-72" transform="translate(77.001953 0)"/>
      <use xlink:href="#DejaVuSans-61" transform="translate(118.115234 0)"/>
      <use xlink:href="#DejaVuSans-66" transform="translate(179.394531 0)"/>
      <use xlink:href="#DejaVuSans-74" transform="translate(212.849609 0)"/>
      <use xlink:href="#DejaVuSans-20" transform="translate(252.058594 0)"/>
      <use xlink:href="#DejaVuSans-6c" transform="translate(283.845703 0)"/>
      <use xlink:href="#DejaVuSans-65" transform="translate(311.628906 0)"/>
      <use xlink:href="#DejaVuSans-6e" transform="translate(373.152344 0)"/>
      <use xlink:href="#DejaVuSans-67" transform="translate(436.53125 0)"/>
      <use xlink:href="#DejaVuSans-74" transform="translate(500.007812 0)"/>
      <use xlink:href="#DejaVuSans-68" transform="translate(539.216797 0)"/>
     </g>
    </g>
   </g>
   <g id="matplotlib.axis_2">
    <g id="ytick_1">
     <g id="line2d_13">
      <path d="M 44.67125 287.592021 
L 565.2 287.592021 
" clip-path="url(#p9584ad4d1e)" style="fill: none; stroke: #b0b0b0; stroke-opacity: 0.3; stroke-width: 0.8; stroke-linecap: square"/>
     </g>
     <g id="line2d_14">
      <defs>
       <path id="m4ecb4e5dea" d="M 0 0 
L -3.5 0 
" style="stroke: #000000; stroke-width: 0.8"/>
      </defs>
      <g>
       <use xlink:href="#m4ecb4e5dea" x="44.67125" y="287.592021" style="stroke: #000000; stroke-width: 0.8"/>
      </g>
     </g>
     <g id="text_8">
      <!-- 20 -->
      <g transform="translate(24.94625 291.39124) scale(0.1 -0.1)">
       <use xlink:href="#DejaVuSans-32"/>
       <use xlink:href="#DejaVuSans-30" transform="translate(63.623047 0)"/>
      </g>
     </g>
    </g>
    <g id="ytick_2">
     <g id="line2d_15">
      <path d="M 44.67125 253.295107 
L 565.2 253.295107 
" clip-path="url(#p9584ad4d1e)" style="fill: none; stroke: #b0b0b0; stroke-opacity: 0.3; stroke-width: 0.8; stroke-linecap: square"/>
     </g>
     <g id="line2d_16">
      <g>
       <use xlink:href="#m4ecb4e5dea" x="44.67125" y="253.295107" style="stroke: #000000; stroke-width: 0.8"/>
      </g>
     </g>
     <g id="text_9">
      <!-- 30 -->
      <g transform="translate(24.94625 257.094326) scale(0.1 -0.1)">
       <defs>
        <path id="DejaVuSans-33" d="M 2597 2516 
Q 3050 2419 3304 2112 
Q 3559 1806 3559 1356 
Q 3559 666 3084 287 
Q 2609 -91 1734 -91 
Q 1441 -91 1130 -33 
Q 819 25 488 141 
L 488 750 
Q 750 597 1062 519 
Q 1375 441 1716 441 
Q 2309 441 2620 675 
Q 2931 909 2931 1356 
Q 2931 1769 2642 2001 
Q 2353 2234 1838 2234 
L 1294 2234 
L 1294 2753 
L 1863 2753 
Q 2328 2753 2575 2939 
Q 2822 3125 2822 3475 
Q 2822 3834 2567 4026 
Q 2313 4219 1838 4219 
Q 1578 4219 1281 4162 
Q 984 4106 628 3988 
L 628 4550 
Q 988 4650 1302 4700 
Q 1616 4750 1894 4750 
Q 2613 4750 3031 4423 
Q 3450 4097 3450 3541 
Q 3450 3153 3228 2886 
Q 3006 2619 2597 2516 
z
" transform="scale(0.015625)"/>
       </defs>
       <use xlink:href="#DejaVuSans-33"/>
       <use xlink:href="#DejaVuSans-30" transform="translate(63.623047 0)"/>
      </g>
     </g>
    </g>
    <g id="ytick_3">
     <g id="line2d_17">
      <path d="M 44.67125 218.998193 
L 565.2 218.998193 
" clip-path="url(#p9584ad4d1e)" style="fill: none; stroke: #b0b0b0; stroke-opacity: 0.3; stroke-width: 0.8; stroke-linecap: square"/>
     </g>
     <g id="line2d_18">
      <g>
       <use xlink:href="#m4ecb4e5dea" x="44.67125" y="218.998193" style="stroke: #000000; stroke-width: 0.8"/>
      </g>
     </g>
     <g id="text_10">
      <!-- 40 -->
      <g transform="translate(24.94625 222.797412) scale(0.1 -0.1)">
       <use xlink:href="#DejaVuSans-34"/>
       <use xlink:href="#DejaVuSans-30" transform="translate(63.623047 0)"/>
      </g>
     </g>
    </g>
    <g id="ytick_4">
     <g id="line2d_19">
      <path d="M 44.67125 184.701279 
L 565.2 184.701279 
" clip-path="url(#p9584ad4d1e)" style="fill: none; stroke: #b0b0b0; stroke-opacity: 0.3; stroke-width: 0.8; stroke-linecap: square"/>
     </g>
     <g id="line2d_20">
      <g>
       <use xlink:href="#m4ecb4e5dea" x="44.67125" y="184.701279" style="stroke: #000000; stroke-width: 0.8"/>
      </g>
     </g>
     <g id="text_11">
      <!-- 50 -->
      <g transform="translate(24.94625 188.500497) scale(0.1 -0.1)">
       <defs>
        <path id="DejaVuSans-35" d="M 691 4666 
L 3169 4666 
L 3169 4134 
L 1269 4134 
L 1269 2991 
Q 1406 3038 1543 3061 
Q 1681 3084 1819 3084 
Q 2600 3084 3056 2656 
Q 3513 2228 3513 1497 
Q 3513 744 3044 326 
Q 2575 -91 1722 -91 
Q 1428 -91 1123 -41 
Q 819 9 494 109 
L 494 744 
Q 775 591 1075 516 
Q 1375 441 1709 441 
Q 2250 441 2565 725 
Q 2881 1009 2881 1497 
Q 2881 1984 2565 2268 
Q 2250 2553 1709 2553 
Q 1456 2553 1204 2497 
Q 953 2441 691 2322 
L 691 4666 
z
" transform="scale(0.015625)"/>
       </defs>
       <use xlink:href="#DejaVuSans-35"/>
       <use xlink:href="#DejaVuSans-30" transform="translate(63.623047 0)"/>
      </g>
     </g>
    </g>
    <g id="ytick_5">
     <g id="line2d_21">
      <path d="M 44.67125 150.404365 
L 565.2 150.404365 
" clip-path="url(#p9584ad4d1e)" style="fill: none; stroke: #b0b0b0; stroke-opacity: 0.3; stroke-width: 0.8; stroke-linecap: square"/>
     </g>
     <g id="line2d_22">
      <g>
       <use xlink:href="#m4ecb4e5dea" x="44.67125" y="150.404365" style="stroke: #000000; stroke-width: 0.8"/>
      </g>
     </g>
     <g id="text_12">
      <!-- 60 -->
      <g transform="translate(24.94625 154.203583) scale(0.1 -0.1)">
       <use xlink:href="#DejaVuSans-36"/>
       <use xlink:href="#DejaVuSans-30" transform="translate(63.623047 0)"/>
      </g>
     </g>
    </g>
    <g id="ytick_6">
     <g id="line2d_23">
      <path d="M 44.67125 116.10745 
L 565.2 116.10745 
" clip-path="url(#p9584ad4d1e)" style="fill: none; stroke: #b0b0b0; stroke-opacity: 0.3; stroke-width: 0.8; stroke-linecap: square"/>
     </g>
     <g id="line2d_24">
      <g>
       <use xlink:href="#m4ecb4e5dea" x="44.67125" y="116.10745" style="stroke: #000000; stroke-width: 0.8"/>
      </g>
     </g>
     <g id="text_13">
      <!-- 70 -->
      <g transform="translate(24.94625 119.906669) scale(0.1 -0.1)">
       <defs>
        <path id="DejaVuSans-37" d="M 525 4666 
L 3525 4666 
L 3525 4397 
L 1831 0 
L 1172 0 
L 2766 4134 
L 525 4134 
L 525 4666 
z
" transform="scale(0.015625)"/>
       </defs>
       <use xlink:href="#DejaVuSans-37"/>
       <use xlink:href="#DejaVuSans-30" transform="translate(63.623047 0)"/>
      </g>
     </g>
    </g>
    <g id="ytick_7">
     <g id="line2d_25">
      <path d="M 44.67125 81.810536 
L 565.2 81.810536 
" clip-path="url(#p9584ad4d1e)" style="fill: none; stroke: #b0b0b0; stroke-opacity: 0.3; stroke-width: 0.8; stroke-linecap: square"/>
     </g>
     <g id="line2d_26">
      <g>
       <use xlink:href="#m4ecb4e5dea" x="44.67125" y="81.810536" style="stroke: #000000; stroke-width: 0.8"/>
      </g>
     </g>
     <g id="text_14">
      <!-- 80 -->
      <g transform="translate(24.94625 85.609755) scale(0.1 -0.1)">
       <use xlink:href="#DejaVuSans-38"/>
       <use xlink:href="#DejaVuSans-30" transform="translate(63.623047 0)"/>
      </g>
     </g>
    </g>
    <g id="ytick_8">
     <g id="line2d_27">
      <path d="M 44.67125 47.513622 
L 565.2 47.513622 
" clip-path="url(#p9584ad4d1e)" style="fill: none; stroke: #b0b0b0; stroke-opacity: 0.3; stroke-width: 0.8; stroke-linecap: square"/>
     </g>
     <g id="line2d_28">
      <g>
       <use xlink:href="#m4ecb4e5dea" x="44.67125" y="47.513622" style="stroke: #000000; stroke-width: 0.8"/>
      </g>
     </g>
     <g id="text_15">
      <!-- 90 -->
      <g transform="translate(24.94625 51.312841) scale(0.1 -0.1)">
       <defs>
        <path id="DejaVuSans-39" d="M 703 97 
L 703 672 
Q 941 559 1184 500 
Q 1428 441 1663 441 
Q 2288 441 2617 861 
Q 2947 1281 2994 2138 
Q 2813 1869 2534 1725 
Q 2256 1581 1919 1581 
Q 1219 1581 811 2004 
Q 403 2428 403 3163 
Q 403 3881 828 4315 
Q 1253 4750 1959 4750 
Q 2769 4750 3195 4129 
Q 3622 3509 3622 2328 
Q 3622 1225 3098 567 
Q 2575 -91 1691 -91 
Q 1453 -91 1209 -44 
Q 966 3 703 97 
z
M 1959 2075 
Q 2384 2075 2632 2365 
Q 2881 2656 2881 3163 
Q 2881 3666 2632 3958 
Q 2384 4250 1959 4250 
Q 1534 4250 1286 3958 
Q 1038 3666 1038 3163 
Q 1038 2656 1286 2365 
Q 1534 2075 1959 2075 
z
" transform="scale(0.015625)"/>
       </defs>
       <use xlink:href="#DejaVuSans-39"/>
       <use xlink:href="#DejaVuSans-30" transform="translate(63.623047 0)"/>
      </g>
     </g>
    </g>
    <g id="text_16">
     <!-- cuda_ms -->
     <g transform="translate(18.588438 194.59125) rotate(-90) scale(0.1 -0.1)">
      <defs>
       <path id="DejaVuSans-63" d="M 3122 3366 
L 3122 2828 
Q 2878 2963 2633 3030 
Q 2388 3097 2138 3097 
Q 1578 3097 1268 2742 
Q 959 2388 959 1747 
Q 959 1106 1268 751 
Q 1578 397 2138 397 
Q 2388 397 2633 464 
Q 2878 531 3122 666 
L 3122 134 
Q 2881 22 2623 -34 
Q 2366 -91 2075 -91 
Q 1284 -91 818 406 
Q 353 903 353 1747 
Q 353 2603 823 3093 
Q 1294 3584 2113 3584 
Q 2378 3584 2631 3529 
Q 2884 3475 3122 3366 
z
" transform="scale(0.015625)"/>
       <path id="DejaVuSans-75" d="M 544 1381 
L 544 3500 
L 1119 3500 
L 1119 1403 
Q 1119 906 1312 657 
Q 1506 409 1894 409 
Q 2359 409 2629 706 
Q 2900 1003 2900 1516 
L 2900 3500 
L 3475 3500 
L 3475 0 
L 2900 0 
L 2900 538 
Q 2691 219 2414 64 
Q 2138 -91 1772 -91 
Q 1169 -91 856 284 
Q 544 659 544 1381 
z
M 1991 3584 
L 1991 3584 
z
" transform="scale(0.015625)"/>
       <path id="DejaVuSans-64" d="M 2906 2969 
L 2906 4863 
L 3481 4863 
L 3481 0 
L 2906 0 
L 2906 525 
Q 2725 213 2448 61 
Q 2172 -91 1784 -91 
Q 1150 -91 751 415 
Q 353 922 353 1747 
Q 353 2572 751 3078 
Q 1150 3584 1784 3584 
Q 2172 3584 2448 3432 
Q 2725 3281 2906 2969 
z
M 947 1747 
Q 947 1113 1208 752 
Q 1469 391 1925 391 
Q 2381 391 2643 752 
Q 2906 1113 2906 1747 
Q 2906 2381 2643 2742 
Q 2381 3103 1925 3103 
Q 1469 3103 1208 2742 
Q 947 2381 947 1747 
z
" transform="scale(0.015625)"/>
       <path id="DejaVuSans-5f" d="M 3263 -1063 
L 3263 -1509 
L -63 -1509 
L -63 -1063 
L 3263 -1063 
z
" transform="scale(0.015625)"/>
       <path id="DejaVuSans-6d" d="M 3328 2828 
Q 3544 3216 3844 3400 
Q 4144 3584 4550 3584 
Q 5097 3584 5394 3201 
Q 5691 2819 5691 2113 
L 5691 0 
L 5113 0 
L 5113 2094 
Q 5113 2597 4934 2840 
Q 4756 3084 4391 3084 
Q 3944 3084 3684 2787 
Q 3425 2491 3425 1978 
L 3425 0 
L 2847 0 
L 2847 2094 
Q 2847 2600 2669 2842 
Q 2491 3084 2119 3084 
Q 1678 3084 1418 2786 
Q 1159 2488 1159 1978 
L 1159 0 
L 581 0 
L 581 3500 
L 1159 3500 
L 1159 2956 
Q 1356 3278 1631 3431 
Q 1906 3584 2284 3584 
Q 2666 3584 2933 3390 
Q 3200 3197 3328 2828 
z
" transform="scale(0.015625)"/>
       <path id="DejaVuSans-73" d="M 2834 3397 
L 2834 2853 
Q 2591 2978 2328 3040 
Q 2066 3103 1784 3103 
Q 1356 3103 1142 2972 
Q 928 2841 928 2578 
Q 928 2378 1081 2264 
Q 1234 2150 1697 2047 
L 1894 2003 
Q 2506 1872 2764 1633 
Q 3022 1394 3022 966 
Q 3022 478 2636 193 
Q 2250 -91 1575 -91 
Q 1294 -91 989 -36 
Q 684 19 347 128 
L 347 722 
Q 666 556 975 473 
Q 1284 391 1588 391 
Q 1994 391 2212 530 
Q 2431 669 2431 922 
Q 2431 1156 2273 1281 
Q 2116 1406 1581 1522 
L 1381 1569 
Q 847 1681 609 1914 
Q 372 2147 372 2553 
Q 372 3047 722 3315 
Q 1072 3584 1716 3584 
Q 2034 3584 2315 3537 
Q 2597 3491 2834 3397 
z
" transform="scale(0.015625)"/>
      </defs>
      <use xlink:href="#DejaVuSans-63"/>
      <use xlink:href="#DejaVuSans-75" transform="translate(54.980469 0)"/>
      <use xlink:href="#DejaVuSans-64" transform="translate(118.359375 0)"/>
      <use xlink:href="#DejaVuSans-61" transform="translate(181.835938 0)"/>
      <use xlink:href="#DejaVuSans-5f" transform="translate(243.115234 0)"/>
      <use xlink:href="#DejaVuSans-6d" transform="translate(293.115234 0)"/>
      <use xlink:href="#DejaVuSans-73" transform="translate(390.527344 0)"/>
     </g>
    </g>
   </g>
   <g id="line2d_29">
    <path d="M 68.331648 298.490499 
L 73.111526 295.020689 
L 77.891404 294.367199 
L 82.671283 294.423582 
L 87.451161 292.442186 
L 92.231039 288.93145 
L 97.010918 286.883217 
L 101.790796 286.916366 
L 106.570674 286.161422 
L 111.350553 278.885171 
L 116.130431 284.223554 
L 120.910309 280.172913 
L 125.690188 281.984777 
L 130.470066 281.878413 
L 135.249944 281.588322 
L 140.029823 279.19624 
L 144.809701 278.273895 
L 149.589579 280.593826 
L 154.369458 278.877169 
L 159.149336 275.239057 
L 163.929214 275.098671 
L 168.709093 274.672144 
L 173.488971 270.596752 
L 178.268849 276.15343 
L 183.048728 274.747679 
L 187.828606 262.919771 
L 192.608484 262.888212 
L 197.388363 263.019194 
L 202.168241 260.537221 
L 206.948119 260.510168 
L 211.727998 260.470263 
L 216.507876 261.367679 
L 221.287754 253.205106 
L 226.067633 253.446546 
L 230.847511 251.970818 
L 235.627389 251.202847 
L 240.407268 250.054076 
L 245.187146 248.94139 
L 249.967024 240.479381 
L 254.746903 242.984263 
L 259.526781 242.535308 
L 264.306659 242.022693 
L 269.086538 238.71899 
L 273.866416 241.394177 
L 278.646294 234.71738 
L 283.426173 239.419481 
L 288.206051 238.042545 
L 292.985929 238.862631 
L 297.765808 235.397693 
L 302.545686 235.6135 
L 307.325564 235.686999 
L 312.105442 203.365347 
L 316.885321 204.785677 
L 321.665199 204.104136 
L 326.445077 203.066723 
L 331.224956 199.754984 
L 336.004834 200.881208 
L 340.784712 199.612371 
L 345.564591 198.107684 
L 350.344469 194.468482 
L 355.124347 195.990842 
L 359.904226 193.602936 
L 364.684104 191.984569 
L 369.463982 183.798814 
L 374.243861 170.443455 
L 379.023739 157.696268 
L 383.803617 165.892791 
L 388.583496 162.003089 
L 393.363374 160.855155 
L 398.143252 159.475239 
L 402.923131 156.186493 
L 407.703009 148.727289 
L 412.482887 151.929655 
L 417.262766 149.423264 
L 422.042644 147.854504 
L 426.822522 143.233093 
L 431.602401 131.623798 
L 436.382279 129.946717 
L 441.162157 127.692681 
L 445.942036 125.682607 
L 450.721914 122.488377 
L 455.501792 118.660633 
L 460.281671 116.356566 
L 465.061549 112.633484 
L 469.841427 110.999174 
L 474.621306 110.08431 
L 479.401184 107.873798 
L 484.181062 108.13125 
L 488.960941 104.095454 
L 493.740819 88.78233 
L 498.520697 87.28149 
L 503.300576 87.440493 
L 508.080454 82.71464 
L 512.860332 80.197767 
L 517.640211 72.389486 
L 522.420089 79.168344 
L 527.199967 73.130921 
L 531.979846 70.76389 
L 536.759724 63.688638 
L 541.539602 62.398037 
" clip-path="url(#p9584ad4d1e)" style="fill: none; stroke: #1f77b4; stroke-width: 1.2; stroke-linecap: square"/>
    <defs>
     <path id="ma2332d461d" d="M 0 1.25 
C 0.331504 1.25 0.649475 1.118292 0.883883 0.883883 
C 1.118292 0.649475 1.25 0.331504 1.25 0 
C 1.25 -0.331504 1.118292 -0.649475 0.883883 -0.883883 
C 0.649475 -1.118292 0.331504 -1.25 0 -1.25 
C -0.331504 -1.25 -0.649475 -1.118292 -0.883883 -0.883883 
C -1.118292 -0.649475 -1.25 -0.331504 -1.25 0 
C -1.25 0.331504 -1.118292 0.649475 -0.883883 0.883883 
C -0.649475 1.118292 -0.331504 1.25 0 1.25 
z
" style="stroke: #1f77b4"/>
    </defs>
    <g clip-path="url(#p9584ad4d1e)">
     <use xlink:href="#ma2332d461d" x="68.331648" y="298.490499" style="fill: #1f77b4; stroke: #1f77b4"/>
     <use xlink:href="#ma2332d461d" x="73.111526" y="295.020689" style="fill: #1f77b4; stroke: #1f77b4"/>
     <use xlink:href="#ma2332d461d" x="77.891404" y="294.367199" style="fill: #1f77b4; stroke: #1f77b4"/>
     <use xlink:href="#ma2332d461d" x="82.671283" y="294.423582" style="fill: #1f77b4; stroke: #1f77b4"/>
     <use xlink:href="#ma2332d461d" x="87.451161" y="292.442186" style="fill: #1f77b4; stroke: #1f77b4"/>
     <use xlink:href="#ma2332d461d" x="92.231039" y="288.93145" style="fill: #1f77b4; stroke: #1f77b4"/>
     <use xlink:href="#ma2332d461d" x="97.010918" y="286.883217" style="fill: #1f77b4; stroke: #1f77b4"/>
     <use xlink:href="#ma2332d461d" x="101.790796" y="286.916366" style="fill: #1f77b4; stroke: #1f77b4"/>
     <use xlink:href="#ma2332d461d" x="106.570674" y="286.161422" style="fill: #1f77b4; stroke: #1f77b4"/>
     <use xlink:href="#ma2332d461d" x="111.350553" y="278.885171" style="fill: #1f77b4; stroke: #1f77b4"/>
     <use xlink:href="#ma2332d461d" x="116.130431" y="284.223554" style="fill: #1f77b4; stroke: #1f77b4"/>
     <use xlink:href="#ma2332d461d" x="120.910309" y="280.172913" style="fill: #1f77b4; stroke: #1f77b4"/>
     <use xlink:href="#ma2332d461d" x="125.690188" y="281.984777" style="fill: #1f77b4; stroke: #1f77b4"/>
     <use xlink:href="#ma2332d461d" x="130.470066" y="281.878413" style="fill: #1f77b4; stroke: #1f77b4"/>
     <use xlink:href="#ma2332d461d" x="135.249944" y="281.588322" style="fill: #1f77b4; stroke: #1f77b4"/>
     <use xlink:href="#ma2332d461d" x="140.029823" y="279.19624" style="fill: #1f77b4; stroke: #1f77b4"/>
     <use xlink:href="#ma2332d461d" x="144.809701" y="278.273895" style="fill: #1f77b4; stroke: #1f77b4"/>
     <use xlink:href="#ma2332d461d" x="149.589579" y="280.593826" style="fill: #1f77b4; stroke: #1f77b4"/>
     <use xlink:href="#ma2332d461d" x="154.369458" y="278.877169" style="fill: #1f77b4; stroke: #1f77b4"/>
     <use xlink:href="#ma2332d461d" x="159.149336" y="275.239057" style="fill: #1f77b4; stroke: #1f77b4"/>
     <use xlink:href="#ma2332d461d" x="163.929214" y="275.098671" style="fill: #1f77b4; stroke: #1f77b4"/>
     <use xlink:href="#ma2332d461d" x="168.709093" y="274.672144" style="fill: #1f77b4; stroke: #1f77b4"/>
     <use xlink:href="#ma2332d461d" x="173.488971" y="270.596752" style="fill: #1f77b4; stroke: #1f77b4"/>
     <use xlink:href="#ma2332d461d" x="178.268849" y="276.15343" style="fill: #1f77b4; stroke: #1f77b4"/>
     <use xlink:href="#ma2332d461d" x="183.048728" y="274.747679" style="fill: #1f77b4; stroke: #1f77b4"/>
     <use xlink:href="#ma2332d461d" x="187.828606" y="262.919771" style="fill: #1f77b4; stroke: #1f77b4"/>
     <use xlink:href="#ma2332d461d" x="192.608484" y="262.888212" style="fill: #1f77b4; stroke: #1f77b4"/>
     <use xlink:href="#ma2332d461d" x="197.388363" y="263.019194" style="fill: #1f77b4; stroke: #1f77b4"/>
     <use xlink:href="#ma2332d461d" x="202.168241" y="260.537221" style="fill: #1f77b4; stroke: #1f77b4"/>
     <use xlink:href="#ma2332d461d" x="206.948119" y="260.510168" style="fill: #1f77b4; stroke: #1f77b4"/>
     <use xlink:href="#ma2332d461d" x="211.727998" y="260.470263" style="fill: #1f77b4; stroke: #1f77b4"/>
     <use xlink:href="#ma2332d461d" x="216.507876" y="261.367679" style="fill: #1f77b4; stroke: #1f77b4"/>
     <use xlink:href="#ma2332d461d" x="221.287754" y="253.205106" style="fill: #1f77b4; stroke: #1f77b4"/>
     <use xlink:href="#ma2332d461d" x="226.067633" y="253.446546" style="fill: #1f77b4; stroke: #1f77b4"/>
     <use xlink:href="#ma2332d461d" x="230.847511" y="251.970818" style="fill: #1f77b4; stroke: #1f77b4"/>
     <use xlink:href="#ma2332d461d" x="235.627389" y="251.202847" style="fill: #1f77b4; stroke: #1f77b4"/>
     <use xlink:href="#ma2332d461d" x="240.407268" y="250.054076" style="fill: #1f77b4; stroke: #1f77b4"/>
     <use xlink:href="#ma2332d461d" x="245.187146" y="248.94139" style="fill: #1f77b4; stroke: #1f77b4"/>
     <use xlink:href="#ma2332d461d" x="249.967024" y="240.479381" style="fill: #1f77b4; stroke: #1f77b4"/>
     <use xlink:href="#ma2332d461d" x="254.746903" y="242.984263" style="fill: #1f77b4; stroke: #1f77b4"/>
     <use xlink:href="#ma2332d461d" x="259.526781" y="242.535308" style="fill: #1f77b4; stroke: #1f77b4"/>
     <use xlink:href="#ma2332d461d" x="264.306659" y="242.022693" style="fill: #1f77b4; stroke: #1f77b4"/>
     <use xlink:href="#ma2332d461d" x="269.086538" y="238.71899" style="fill: #1f77b4; stroke: #1f77b4"/>
     <use xlink:href="#ma2332d461d" x="273.866416" y="241.394177" style="fill: #1f77b4; stroke: #1f77b4"/>
     <use xlink:href="#ma2332d461d" x="278.646294" y="234.71738" style="fill: #1f77b4; stroke: #1f77b4"/>
     <use xlink:href="#ma2332d461d" x="283.426173" y="239.419481" style="fill: #1f77b4; stroke: #1f77b4"/>
     <use xlink:href="#ma2332d461d" x="288.206051" y="238.042545" style="fill: #1f77b4; stroke: #1f77b4"/>
     <use xlink:href="#ma2332d461d" x="292.985929" y="238.862631" style="fill: #1f77b4; stroke: #1f77b4"/>
     <use xlink:href="#ma2332d461d" x="297.765808" y="235.397693" style="fill: #1f77b4; stroke: #1f77b4"/>
     <use xlink:href="#ma2332d461d" x="302.545686" y="235.6135" style="fill: #1f77b4; stroke: #1f77b4"/>
     <use xlink:href="#ma2332d461d" x="307.325564" y="235.686999" style="fill: #1f77b4; stroke: #1f77b4"/>
     <use xlink:href="#ma2332d461d" x="312.105442" y="203.365347" style="fill: #1f77b4; stroke: #1f77b4"/>
     <use xlink:href="#ma2332d461d" x="316.885321" y="204.785677" style="fill: #1f77b4; stroke: #1f77b4"/>
     <use xlink:href="#ma2332d461d" x="321.665199" y="204.104136" style="fill: #1f77b4; stroke: #1f77b4"/>
     <use xlink:href="#ma2332d461d" x="326.445077" y="203.066723" style="fill: #1f77b4; stroke: #1f77b4"/>
     <use xlink:href="#ma2332d461d" x="331.224956" y="199.754984" style="fill: #1f77b4; stroke: #1f77b4"/>
     <use xlink:href="#ma2332d461d" x="336.004834" y="200.881208" style="fill: #1f77b4; stroke: #1f77b4"/>
     <use xlink:href="#ma2332d461d" x="340.784712" y="199.612371" style="fill: #1f77b4; stroke: #1f77b4"/>
     <use xlink:href="#ma2332d461d" x="345.564591" y="198.107684" style="fill: #1f77b4; stroke: #1f77b4"/>
     <use xlink:href="#ma2332d461d" x="350.344469" y="194.468482" style="fill: #1f77b4; stroke: #1f77b4"/>
     <use xlink:href="#ma2332d461d" x="355.124347" y="195.990842" style="fill: #1f77b4; stroke: #1f77b4"/>
     <use xlink:href="#ma2332d461d" x="359.904226" y="193.602936" style="fill: #1f77b4; stroke: #1f77b4"/>
     <use xlink:href="#ma2332d461d" x="364.684104" y="191.984569" style="fill: #1f77b4; stroke: #1f77b4"/>
     <use xlink:href="#ma2332d461d" x="369.463982" y="183.798814" style="fill: #1f77b4; stroke: #1f77b4"/>
     <use xlink:href="#ma2332d461d" x="374.243861" y="170.443455" style="fill: #1f77b4; stroke: #1f77b4"/>
     <use xlink:href="#ma2332d461d" x="379.023739" y="157.696268" style="fill: #1f77b4; stroke: #1f77b4"/>
     <use xlink:href="#ma2332d461d" x="383.803617" y="165.892791" style="fill: #1f77b4; stroke: #1f77b4"/>
     <use xlink:href="#ma2332d461d" x="388.583496" y="162.003089" style="fill: #1f77b4; stroke: #1f77b4"/>
     <use xlink:href="#ma2332d461d" x="393.363374" y="160.855155" style="fill: #1f77b4; stroke: #1f77b4"/>
     <use xlink:href="#ma2332d461d" x="398.143252" y="159.475239" style="fill: #1f77b4; stroke: #1f77b4"/>
     <use xlink:href="#ma2332d461d" x="402.923131" y="156.186493" style="fill: #1f77b4; stroke: #1f77b4"/>
     <use xlink:href="#ma2332d461d" x="407.703009" y="148.727289" style="fill: #1f77b4; stroke: #1f77b4"/>
     <use xlink:href="#ma2332d461d" x="412.482887" y="151.929655" style="fill: #1f77b4; stroke: #1f77b4"/>
     <use xlink:href="#ma2332d461d" x="417.262766" y="149.423264" style="fill: #1f77b4; stroke: #1f77b4"/>
     <use xlink:href="#ma2332d461d" x="422.042644" y="147.854504" style="fill: #1f77b4; stroke: #1f77b4"/>
     <use xlink:href="#ma2332d461d" x="426.822522" y="143.233093" style="fill: #1f77b4; stroke: #1f77b4"/>
     <use xlink:href="#ma2332d461d" x="431.602401" y="131.623798" style="fill: #1f77b4; stroke: #1f77b4"/>
     <use xlink:href="#ma2332d461d" x="436.382279" y="129.946717" style="fill: #1f77b4; stroke: #1f77b4"/>
     <use xlink:href="#ma2332d461d" x="441.162157" y="127.692681" style="fill: #1f77b4; stroke: #1f77b4"/>
     <use xlink:href="#ma2332d461d" x="445.942036" y="125.682607" style="fill: #1f77b4; stroke: #1f77b4"/>
     <use xlink:href="#ma2332d461d" x="450.721914" y="122.488377" style="fill: #1f77b4; stroke: #1f77b4"/>
     <use xlink:href="#ma2332d461d" x="455.501792" y="118.660633" style="fill: #1f77b4; stroke: #1f77b4"/>
     <use xlink:href="#ma2332d461d" x="460.281671" y="116.356566" style="fill: #1f77b4; stroke: #1f77b4"/>
     <use xlink:href="#ma2332d461d" x="465.061549" y="112.633484" style="fill: #1f77b4; stroke: #1f77b4"/>
     <use xlink:href="#ma2332d461d" x="469.841427" y="110.999174" style="fill: #1f77b4; stroke: #1f77b4"/>
     <use xlink:href="#ma2332d461d" x="474.621306" y="110.08431" style="fill: #1f77b4; stroke: #1f77b4"/>
     <use xlink:href="#ma2332d461d" x="479.401184" y="107.873798" style="fill: #1f77b4; stroke: #1f77b4"/>
     <use xlink:href="#ma2332d461d" x="484.181062" y="108.13125" style="fill: #1f77b4; stroke: #1f77b4"/>
     <use xlink:href="#ma2332d461d" x="488.960941" y="104.095454" style="fill: #1f77b4; stroke: #1f77b4"/>
     <use xlink:href="#ma2332d461d" x="493.740819" y="88.78233" style="fill: #1f77b4; stroke: #1f77b4"/>
     <use xlink:href="#ma2332d461d" x="498.520697" y="87.28149" style="fill: #1f77b4; stroke: #1f77b4"/>
     <use xlink:href="#ma2332d461d" x="503.300576" y="87.440493" style="fill: #1f77b4; stroke: #1f77b4"/>
     <use xlink:href="#ma2332d461d" x="508.080454" y="82.71464" style="fill: #1f77b4; stroke: #1f77b4"/>
     <use xlink:href="#ma2332d461d" x="512.860332" y="80.197767" style="fill: #1f77b4; stroke: #1f77b4"/>
     <use xlink:href="#ma2332d461d" x="517.640211" y="72.389486" style="fill: #1f77b4; stroke: #1f77b4"/>
     <use xlink:href="#ma2332d461d" x="522.420089" y="79.168344" style="fill: #1f77b4; stroke: #1f77b4"/>
     <use xlink:href="#ma2332d461d" x="527.199967" y="73.130921" style="fill: #1f77b4; stroke: #1f77b4"/>
     <use xlink:href="#ma2332d461d" x="531.979846" y="70.76389" style="fill: #1f77b4; stroke: #1f77b4"/>
     <use xlink:href="#ma2332d461d" x="536.759724" y="63.688638" style="fill: #1f77b4; stroke: #1f77b4"/>
     <use xlink:href="#ma2332d461d" x="541.539602" y="62.398037" style="fill: #1f77b4; stroke: #1f77b4"/>
    </g>
   </g>
   <g id="line2d_30">
    <path d="M 68.331648 295.522005 
L 73.111526 293.639709 
L 77.891404 291.912098 
L 82.671283 290.346168 
L 87.451161 290.2074 
L 92.231039 289.394612 
L 97.010918 286.253399 
L 101.790796 285.820654 
L 106.570674 283.719752 
L 111.350553 283.849196 
L 116.130431 278.265483 
L 120.910309 282.911452 
L 125.690188 278.418628 
L 130.470066 280.385889 
L 135.249944 279.99774 
L 140.029823 279.406544 
L 144.809701 279.679761 
L 149.589579 278.529761 
L 154.369458 276.998845 
L 159.149336 274.292155 
L 163.929214 273.28848 
L 168.709093 269.006627 
L 173.488971 271.980538 
L 178.268849 274.125912 
L 183.048728 270.874032 
L 187.828606 261.745225 
L 192.608484 261.599323 
L 197.388363 259.707664 
L 202.168241 258.694791 
L 206.948119 258.584826 
L 211.727998 258.415449 
L 216.507876 257.83339 
L 221.287754 251.118774 
L 226.067633 251.714957 
L 230.847511 250.087972 
L 235.627389 249.986244 
L 240.407268 247.821802 
L 245.187146 246.87692 
L 249.967024 240.72953 
L 254.746903 240.878285 
L 259.526781 234.336991 
L 264.306659 232.192028 
L 269.086538 238.671226 
L 273.866416 239.560542 
L 278.646294 236.830333 
L 283.426173 235.238961 
L 288.206051 234.795961 
L 292.985929 236.963042 
L 297.765808 234.76268 
L 302.545686 233.653769 
L 307.325564 233.818794 
L 312.105442 201.465291 
L 316.885321 202.836828 
L 321.665199 201.883537 
L 326.445077 198.155348 
L 331.224956 197.782823 
L 336.004834 196.912085 
L 340.784712 197.564586 
L 345.564591 196.574107 
L 350.344469 192.268183 
L 355.124347 193.688037 
L 359.904226 190.419331 
L 364.684104 189.761522 
L 369.463982 184.537586 
L 374.243861 168.097286 
L 379.023739 165.581238 
L 383.803617 163.553955 
L 388.583496 159.82441 
L 393.363374 156.275337 
L 398.143252 156.802633 
L 402.923131 153.854646 
L 407.703009 151.392956 
L 412.482887 148.991076 
L 417.262766 147.014227 
L 422.042644 145.002459 
L 426.822522 143.420882 
L 431.602401 129.080671 
L 436.382279 128.031188 
L 441.162157 125.044162 
L 445.942036 124.582297 
L 450.721914 117.711536 
L 455.501792 115.118909 
L 460.281671 113.538014 
L 465.061549 113.888258 
L 469.841427 105.880125 
L 474.621306 107.057262 
L 479.401184 104.252937 
L 484.181062 106.575044 
L 488.960941 101.372323 
L 493.740819 85.871906 
L 498.520697 80.387652 
L 503.300576 84.157268 
L 508.080454 79.881678 
L 512.860332 73.549365 
L 517.640211 72.984394 
L 522.420089 76.130447 
L 527.199967 70.158211 
L 531.979846 64.5545 
L 536.759724 64.532996 
L 541.539602 64.211265 
" clip-path="url(#p9584ad4d1e)" style="fill: none; stroke: #ff7f0e; stroke-width: 1.2; stroke-linecap: square"/>
    <defs>
     <path id="m814c77ddeb" d="M 0 1.25 
C 0.331504 1.25 0.649475 1.118292 0.883883 0.883883 
C 1.118292 0.649475 1.25 0.331504 1.25 0 
C 1.25 -0.331504 1.118292 -0.649475 0.883883 -0.883883 
C 0.649475 -1.118292 0.331504 -1.25 0 -1.25 
C -0.331504 -1.25 -0.649475 -1.118292 -0.883883 -0.883883 
C -1.118292 -0.649475 -1.25 -0.331504 -1.25 0 
C -1.25 0.331504 -1.118292 0.649475 -0.883883 0.883883 
C -0.649475 1.118292 -0.331504 1.25 0 1.25 
z
" style="stroke: #ff7f0e"/>
    </defs>
    <g clip-path="url(#p9584ad4d1e)">
     <use xlink:href="#m814c77ddeb" x="68.331648" y="295.522005" style="fill: #ff7f0e; stroke: #ff7f0e"/>
     <use xlink:href="#m814c77ddeb" x="73.111526" y="293.639709" style="fill: #ff7f0e; stroke: #ff7f0e"/>
     <use xlink:href="#m814c77ddeb" x="77.891404" y="291.912098" style="fill: #ff7f0e; stroke: #ff7f0e"/>
     <use xlink:href="#m814c77ddeb" x="82.671283" y="290.346168" style="fill: #ff7f0e; stroke: #ff7f0e"/>
     <use xlink:href="#m814c77ddeb" x="87.451161" y="290.2074" style="fill: #ff7f0e; stroke: #ff7f0e"/>
     <use xlink:href="#m814c77ddeb" x="92.231039" y="289.394612" style="fill: #ff7f0e; stroke: #ff7f0e"/>
     <use xlink:href="#m814c77ddeb" x="97.010918" y="286.253399" style="fill: #ff7f0e; stroke: #ff7f0e"/>
     <use xlink:href="#m814c77ddeb" x="101.790796" y="285.820654" style="fill: #ff7f0e; stroke: #ff7f0e"/>
     <use xlink:href="#m814c77ddeb" x="106.570674" y="283.719752" style="fill: #ff7f0e; stroke: #ff7f0e"/>
     <use xlink:href="#m814c77ddeb" x="111.350553" y="283.849196" style="fill: #ff7f0e; stroke: #ff7f0e"/>
     <use xlink:href="#m814c77ddeb" x="116.130431" y="278.265483" style="fill: #ff7f0e; stroke: #ff7f0e"/>
     <use xlink:href="#m814c77ddeb" x="120.910309" y="282.911452" style="fill: #ff7f0e; stroke: #ff7f0e"/>
     <use xlink:href="#m814c77ddeb" x="125.690188" y="278.418628" style="fill: #ff7f0e; stroke: #ff7f0e"/>
     <use xlink:href="#m814c77ddeb" x="130.470066" y="280.385889" style="fill: #ff7f0e; stroke: #ff7f0e"/>
     <use xlink:href="#m814c77ddeb" x="135.249944" y="279.99774" style="fill: #ff7f0e; stroke: #ff7f0e"/>
     <use xlink:href="#m814c77ddeb" x="140.029823" y="279.406544" style="fill: #ff7f0e; stroke: #ff7f0e"/>
     <use xlink:href="#m814c77ddeb" x="144.809701" y="279.679761" style="fill: #ff7f0e; stroke: #ff7f0e"/>
     <use xlink:href="#m814c77ddeb" x="149.589579" y="278.529761" style="fill: #ff7f0e; stroke: #ff7f0e"/>
     <use xlink:href="#m814c77ddeb" x="154.369458" y="276.998845" style="fill: #ff7f0e; stroke: #ff7f0e"/>
     <use xlink:href="#m814c77ddeb" x="159.149336" y="274.292155" style="fill: #ff7f0e; stroke: #ff7f0e"/>
     <use xlink:href="#m814c77ddeb" x="163.929214" y="273.28848" style="fill: #ff7f0e; stroke: #ff7f0e"/>
     <use xlink:href="#m814c77ddeb" x="168.709093" y="269.006627" style="fill: #ff7f0e; stroke: #ff7f0e"/>
     <use xlink:href="#m814c77ddeb" x="173.488971" y="271.980538" style="fill: #ff7f0e; stroke: #ff7f0e"/>
     <use xlink:href="#m814c77ddeb" x="178.268849" y="274.125912" style="fill: #ff7f0e; stroke: #ff7f0e"/>
     <use xlink:href="#m814c77ddeb" x="183.048728" y="270.874032" style="fill: #ff7f0e; stroke: #ff7f0e"/>
     <use xlink:href="#m814c77ddeb" x="187.828606" y="261.745225" style="fill: #ff7f0e; stroke: #ff7f0e"/>
     <use xlink:href="#m814c77ddeb" x="192.608484" y="261.599323" style="fill: #ff7f0e; stroke: #ff7f0e"/>
     <use xlink:href="#m814c77ddeb" x="197.388363" y="259.707664" style="fill: #ff7f0e; stroke: #ff7f0e"/>
     <use xlink:href="#m814c77ddeb" x="202.168241" y="258.694791" style="fill: #ff7f0e; stroke: #ff7f0e"/>
     <use xlink:href="#m814c77ddeb" x="206.948119" y="258.584826" style="fill: #ff7f0e; stroke: #ff7f0e"/>
     <use xlink:href="#m814c77ddeb" x="211.727998" y="258.415449" style="fill: #ff7f0e; stroke: #ff7f0e"/>
     <use xlink:href="#m814c77ddeb" x="216.507876" y="257.83339" style="fill: #ff7f0e; stroke: #ff7f0e"/>
     <use xlink:href="#m814c77ddeb" x="221.287754" y="251.118774" style="fill: #ff7f0e; stroke: #ff7f0e"/>
     <use xlink:href="#m814c77ddeb" x="226.067633" y="251.714957" style="fill: #ff7f0e; stroke: #ff7f0e"/>
     <use xlink:href="#m814c77ddeb" x="230.847511" y="250.087972" style="fill: #ff7f0e; stroke: #ff7f0e"/>
     <use xlink:href="#m814c77ddeb" x="235.627389" y="249.986244" style="fill: #ff7f0e; stroke: #ff7f0e"/>
     <use xlink:href="#m814c77ddeb" x="240.407268" y="247.821802" style="fill: #ff7f0e; stroke: #ff7f0e"/>
     <use xlink:href="#m814c77ddeb" x="245.187146" y="246.87692" style="fill: #ff7f0e; stroke: #ff7f0e"/>
     <use xlink:href="#m814c77ddeb" x="249.967024" y="240.72953" style="fill: #ff7f0e; stroke: #ff7f0e"/>
     <use xlink:href="#m814c77ddeb" x="254.746903" y="240.878285" style="fill: #ff7f0e; stroke: #ff7f0e"/>
     <use xlink:href="#m814c77ddeb" x="259.526781" y="234.336991" style="fill: #ff7f0e; stroke: #ff7f0e"/>
     <use xlink:href="#m814c77ddeb" x="264.306659" y="232.192028" style="fill: #ff7f0e; stroke: #ff7f0e"/>
     <use xlink:href="#m814c77ddeb" x="269.086538" y="238.671226" style="fill: #ff7f0e; stroke: #ff7f0e"/>
     <use xlink:href="#m814c77ddeb" x="273.866416" y="239.560542" style="fill: #ff7f0e; stroke: #ff7f0e"/>
     <use xlink:href="#m814c77ddeb" x="278.646294" y="236.830333" style="fill: #ff7f0e; stroke: #ff7f0e"/>
     <use xlink:href="#m814c77ddeb" x="283.426173" y="235.238961" style="fill: #ff7f0e; stroke: #ff7f0e"/>
     <use xlink:href="#m814c77ddeb" x="288.206051" y="234.795961" style="fill: #ff7f0e; stroke: #ff7f0e"/>
     <use xlink:href="#m814c77ddeb" x="292.985929" y="236.963042" style="fill: #ff7f0e; stroke: #ff7f0e"/>
     <use xlink:href="#m814c77ddeb" x="297.765808" y="234.76268" style="fill: #ff7f0e; stroke: #ff7f0e"/>
     <use xlink:href="#m814c77ddeb" x="302.545686" y="233.653769" style="fill: #ff7f0e; stroke: #ff7f0e"/>
     <use xlink:href="#m814c77ddeb" x="307.325564" y="233.818794" style="fill: #ff7f0e; stroke: #ff7f0e"/>
     <use xlink:href="#m814c77ddeb" x="312.105442" y="201.465291" style="fill: #ff7f0e; stroke: #ff7f0e"/>
     <use xlink:href="#m814c77ddeb" x="316.885321" y="202.836828" style="fill: #ff7f0e; stroke: #ff7f0e"/>
     <use xlink:href="#m814c77ddeb" x="321.665199" y="201.883537" style="fill: #ff7f0e; stroke: #ff7f0e"/>
     <use xlink:href="#m814c77ddeb" x="326.445077" y="198.155348" style="fill: #ff7f0e; stroke: #ff7f0e"/>
     <use xlink:href="#m814c77ddeb" x="331.224956" y="197.782823" style="fill: #ff7f0e; stroke: #ff7f0e"/>
     <use xlink:href="#m814c77ddeb" x="336.004834" y="196.912085" style="fill: #ff7f0e; stroke: #ff7f0e"/>
     <use xlink:href="#m814c77ddeb" x="340.784712" y="197.564586" style="fill: #ff7f0e; stroke: #ff7f0e"/>
     <use xlink:href="#m814c77ddeb" x="345.564591" y="196.574107" style="fill: #ff7f0e; stroke: #ff7f0e"/>
     <use xlink:href="#m814c77ddeb" x="350.344469" y="192.268183" style="fill: #ff7f0e; stroke: #ff7f0e"/>
     <use xlink:href="#m814c77ddeb" x="355.124347" y="193.688037" style="fill: #ff7f0e; stroke: #ff7f0e"/>
     <use xlink:href="#m814c77ddeb" x="359.904226" y="190.419331" style="fill: #ff7f0e; stroke: #ff7f0e"/>
     <use xlink:href="#m814c77ddeb" x="364.684104" y="189.761522" style="fill: #ff7f0e; stroke: #ff7f0e"/>
     <use xlink:href="#m814c77ddeb" x="369.463982" y="184.537586" style="fill: #ff7f0e; stroke: #ff7f0e"/>
     <use xlink:href="#m814c77ddeb" x="374.243861" y="168.097286" style="fill: #ff7f0e; stroke: #ff7f0e"/>
     <use xlink:href="#m814c77ddeb" x="379.023739" y="165.581238" style="fill: #ff7f0e; stroke: #ff7f0e"/>
     <use xlink:href="#m814c77ddeb" x="383.803617" y="163.553955" style="fill: #ff7f0e; stroke: #ff7f0e"/>
     <use xlink:href="#m814c77ddeb" x="388.583496" y="159.82441" style="fill: #ff7f0e; stroke: #ff7f0e"/>
     <use xlink:href="#m814c77ddeb" x="393.363374" y="156.275337" style="fill: #ff7f0e; stroke: #ff7f0e"/>
     <use xlink:href="#m814c77ddeb" x="398.143252" y="156.802633" style="fill: #ff7f0e; stroke: #ff7f0e"/>
     <use xlink:href="#m814c77ddeb" x="402.923131" y="153.854646" style="fill: #ff7f0e; stroke: #ff7f0e"/>
     <use xlink:href="#m814c77ddeb" x="407.703009" y="151.392956" style="fill: #ff7f0e; stroke: #ff7f0e"/>
     <use xlink:href="#m814c77ddeb" x="412.482887" y="148.991076" style="fill: #ff7f0e; stroke: #ff7f0e"/>
     <use xlink:href="#m814c77ddeb" x="417.262766" y="147.014227" style="fill: #ff7f0e; stroke: #ff7f0e"/>
     <use xlink:href="#m814c77ddeb" x="422.042644" y="145.002459" style="fill: #ff7f0e; stroke: #ff7f0e"/>
     <use xlink:href="#m814c77ddeb" x="426.822522" y="143.420882" style="fill: #ff7f0e; stroke: #ff7f0e"/>
     <use xlink:href="#m814c77ddeb" x="431.602401" y="129.080671" style="fill: #ff7f0e; stroke: #ff7f0e"/>
     <use xlink:href="#m814c77ddeb" x="436.382279" y="128.031188" style="fill: #ff7f0e; stroke: #ff7f0e"/>
     <use xlink:href="#m814c77ddeb" x="441.162157" y="125.044162" style="fill: #ff7f0e; stroke: #ff7f0e"/>
     <use xlink:href="#m814c77ddeb" x="445.942036" y="124.582297" style="fill: #ff7f0e; stroke: #ff7f0e"/>
     <use xlink:href="#m814c77ddeb" x="450.721914" y="117.711536" style="fill: #ff7f0e; stroke: #ff7f0e"/>
     <use xlink:href="#m814c77ddeb" x="455.501792" y="115.118909" style="fill: #ff7f0e; stroke: #ff7f0e"/>
     <use xlink:href="#m814c77ddeb" x="460.281671" y="113.538014" style="fill: #ff7f0e; stroke: #ff7f0e"/>
     <use xlink:href="#m814c77ddeb" x="465.061549" y="113.888258" style="fill: #ff7f0e; stroke: #ff7f0e"/>
     <use xlink:href="#m814c77ddeb" x="469.841427" y="105.880125" style="fill: #ff7f0e; stroke: #ff7f0e"/>
     <use xlink:href="#m814c77ddeb" x="474.621306" y="107.057262" style="fill: #ff7f0e; stroke: #ff7f0e"/>
     <use xlink:href="#m814c77ddeb" x="479.401184" y="104.252937" style="fill: #ff7f0e; stroke: #ff7f0e"/>
     <use xlink:href="#m814c77ddeb" x="484.181062" y="106.575044" style="fill: #ff7f0e; stroke: #ff7f0e"/>
     <use xlink:href="#m814c77ddeb" x="488.960941" y="101.372323" style="fill: #ff7f0e; stroke: #ff7f0e"/>
     <use xlink:href="#m814c77ddeb" x="493.740819" y="85.871906" style="fill: #ff7f0e; stroke: #ff7f0e"/>
     <use xlink:href="#m814c77ddeb" x="498.520697" y="80.387652" style="fill: #ff7f0e; stroke: #ff7f0e"/>
     <use xlink:href="#m814c77ddeb" x="503.300576" y="84.157268" style="fill: #ff7f0e; stroke: #ff7f0e"/>
     <use xlink:href="#m814c77ddeb" x="508.080454" y="79.881678" style="fill: #ff7f0e; stroke: #ff7f0e"/>
     <use xlink:href="#m814c77ddeb" x="512.860332" y="73.549365" style="fill: #ff7f0e; stroke: #ff7f0e"/>
     <use xlink:href="#m814c77ddeb" x="517.640211" y="72.984394" style="fill: #ff7f0e; stroke: #ff7f0e"/>
     <use xlink:href="#m814c77ddeb" x="522.420089" y="76.130447" style="fill: #ff7f0e; stroke: #ff7f0e"/>
     <use xlink:href="#m814c77ddeb" x="527.199967" y="70.158211" style="fill: #ff7f0e; stroke: #ff7f0e"/>
     <use xlink:href="#m814c77ddeb" x="531.979846" y="64.5545" style="fill: #ff7f0e; stroke: #ff7f0e"/>
     <use xlink:href="#m814c77ddeb" x="536.759724" y="64.532996" style="fill: #ff7f0e; stroke: #ff7f0e"/>
     <use xlink:href="#m814c77ddeb" x="541.539602" y="64.211265" style="fill: #ff7f0e; stroke: #ff7f0e"/>
    </g>
   </g>
   <g id="patch_3">
    <path d="M 44.67125 318.04 
L 44.67125 26.88 
" style="fill: none; stroke: #000000; stroke-width: 0.8; stroke-linejoin: miter; stroke-linecap: square"/>
   </g>
   <g id="patch_4">
    <path d="M 565.2 318.04 
L 565.2 26.88 
" style="fill: none; stroke: #000000; stroke-width: 0.8; stroke-linejoin: miter; stroke-linecap: square"/>
   </g>
   <g id="patch_5">
    <path d="M 44.67125 318.04 
L 565.2 318.04 
" style="fill: none; stroke: #000000; stroke-width: 0.8; stroke-linejoin: miter; stroke-linecap: square"/>
   </g>
   <g id="patch_6">
    <path d="M 44.67125 26.88 
L 565.2 26.88 
" style="fill: none; stroke: #000000; stroke-width: 0.8; stroke-linejoin: miter; stroke-linecap: square"/>
   </g>
   <g id="text_17">
    <!-- Verification latency vs draft length, context_len=512 -->
    <g transform="translate(146.370625 20.88) scale(0.12 -0.12)">
     <defs>
      <path id="DejaVuSans-56" d="M 1831 0 
L 50 4666 
L 709 4666 
L 2188 738 
L 3669 4666 
L 4325 4666 
L 2547 0 
L 1831 0 
z
" transform="scale(0.015625)"/>
      <path id="DejaVuSans-69" d="M 603 3500 
L 1178 3500 
L 1178 0 
L 603 0 
L 603 3500 
z
M 603 4863 
L 1178 4863 
L 1178 4134 
L 603 4134 
L 603 4863 
z
" transform="scale(0.015625)"/>
      <path id="DejaVuSans-6f" d="M 1959 3097 
Q 1497 3097 1228 2736 
Q 959 2375 959 1747 
Q 959 1119 1226 758 
Q 1494 397 1959 397 
Q 2419 397 2687 759 
Q 2956 1122 2956 1747 
Q 2956 2369 2687 2733 
Q 2419 3097 1959 3097 
z
M 1959 3584 
Q 2709 3584 3137 3096 
Q 3566 2609 3566 1747 
Q 3566 888 3137 398 
Q 2709 -91 1959 -91 
Q 1206 -91 779 398 
Q 353 888 353 1747 
Q 353 2609 779 3096 
Q 1206 3584 1959 3584 
z
" transform="scale(0.015625)"/>
      <path id="DejaVuSans-79" d="M 2059 -325 
Q 1816 -950 1584 -1140 
Q 1353 -1331 966 -1331 
L 506 -1331 
L 506 -850 
L 844 -850 
Q 1081 -850 1212 -737 
Q 1344 -625 1503 -206 
L 1606 56 
L 191 3500 
L 800 3500 
L 1894 763 
L 2988 3500 
L 3597 3500 
L 2059 -325 
z
" transform="scale(0.015625)"/>
      <path id="DejaVuSans-76" d="M 191 3500 
L 800 3500 
L 1894 563 
L 2988 3500 
L 3597 3500 
L 2284 0 
L 1503 0 
L 191 3500 
z
" transform="scale(0.015625)"/>
      <path id="DejaVuSans-2c" d="M 750 794 
L 1409 794 
L 1409 256 
L 897 -744 
L 494 -744 
L 750 256 
L 750 794 
z
" transform="scale(0.015625)"/>
      <path id="DejaVuSans-78" d="M 3513 3500 
L 2247 1797 
L 3578 0 
L 2900 0 
L 1881 1375 
L 863 0 
L 184 0 
L 1544 1831 
L 300 3500 
L 978 3500 
L 1906 2253 
L 2834 3500 
L 3513 3500 
z
" transform="scale(0.015625)"/>
      <path id="DejaVuSans-3d" d="M 678 2906 
L 4684 2906 
L 4684 2381 
L 678 2381 
L 678 2906 
z
M 678 1631 
L 4684 1631 
L 4684 1100 
L 678 1100 
L 678 1631 
z
" transform="scale(0.015625)"/>
     </defs>
     <use xlink:href="#DejaVuSans-56"/>
     <use xlink:href="#DejaVuSans-65" transform="translate(60.658203 0)"/>
     <use xlink:href="#DejaVuSans-72" transform="translate(122.181641 0)"/>
     <use xlink:href="#DejaVuSans-69" transform="translate(163.294922 0)"/>
     <use xlink:href="#DejaVuSans-66" transform="translate(191.078125 0)"/>
     <use xlink:href="#DejaVuSans-69" transform="translate(226.283203 0)"/>
     <use xlink:href="#DejaVuSans-63" transform="translate(254.066406 0)"/>
     <use xlink:href="#DejaVuSans-61" transform="translate(309.046875 0)"/>
     <use xlink:href="#DejaVuSans-74" transform="translate(370.326172 0)"/>
     <use xlink:href="#DejaVuSans-69" transform="translate(409.535156 0)"/>
     <use xlink:href="#DejaVuSans-6f" transform="translate(437.318359 0)"/>
     <use xlink:href="#DejaVuSans-6e" transform="translate(498.5 0)"/>
     <use xlink:href="#DejaVuSans-20" transform="translate(561.878906 0)"/>
     <use xlink:href="#DejaVuSans-6c" transform="translate(593.666016 0)"/>
     <use xlink:href="#DejaVuSans-61" transform="translate(621.449219 0)"/>
     <use xlink:href="#DejaVuSans-74" transform="translate(682.728516 0)"/>
     <use xlink:href="#DejaVuSans-65" transform="translate(721.9375 0)"/>
     <use xlink:href="#DejaVuSans-6e" transform="translate(783.460938 0)"/>
     <use xlink:href="#DejaVuSans-63" transform="translate(846.839844 0)"/>
     <use xlink:href="#DejaVuSans-79" transform="translate(901.820312 0)"/>
     <use xlink:href="#DejaVuSans-20" transform="translate(961 0)"/>
     <use xlink:href="#DejaVuSans-76" transform="translate(992.787109 0)"/>
     <use xlink:href="#DejaVuSans-73" transform="translate(1051.966797 0)"/>
     <use xlink:href="#DejaVuSans-20" transform="translate(1104.066406 0)"/>
     <use xlink:href="#DejaVuSans-64" transform="translate(1135.853516 0)"/>
     <use xlink:href="#DejaVuSans-72" transform="translate(1199.330078 0)"/>
     <use xlink:href="#DejaVuSans-61" transform="translate(1240.443359 0)"/>
     <use xlink:href="#DejaVuSans-66" transform="translate(1301.722656 0)"/>
     <use xlink:href="#DejaVuSans-74" transform="translate(1335.177734 0)"/>
     <use xlink:href="#DejaVuSans-20" transform="translate(1374.386719 0)"/>
     <use xlink:href="#DejaVuSans-6c" transform="translate(1406.173828 0)"/>
     <use xlink:href="#DejaVuSans-65" transform="translate(1433.957031 0)"/>
     <use xlink:href="#DejaVuSans-6e" transform="translate(1495.480469 0)"/>
     <use xlink:href="#DejaVuSans-67" transform="translate(1558.859375 0)"/>
     <use xlink:href="#DejaVuSans-74" transform="translate(1622.335938 0)"/>
     <use xlink:href="#DejaVuSans-68" transform="translate(1661.544922 0)"/>
     <use xlink:href="#DejaVuSans-2c" transform="translate(1724.923828 0)"/>
     <use xlink:href="#DejaVuSans-20" transform="translate(1756.710938 0)"/>
     <use xlink:href="#DejaVuSans-63" transform="translate(1788.498047 0)"/>
     <use xlink:href="#DejaVuSans-6f" transform="translate(1843.478516 0)"/>
     <use xlink:href="#DejaVuSans-6e" transform="translate(1904.660156 0)"/>
     <use xlink:href="#DejaVuSans-74" transform="translate(1968.039062 0)"/>
     <use xlink:href="#DejaVuSans-65" transform="translate(2007.248047 0)"/>
     <use xlink:href="#DejaVuSans-78" transform="translate(2067.021484 0)"/>
     <use xlink:href="#DejaVuSans-74" transform="translate(2126.201172 0)"/>
     <use xlink:href="#DejaVuSans-5f" transform="translate(2165.410156 0)"/>
     <use xlink:href="#DejaVuSans-6c" transform="translate(2215.410156 0)"/>
     <use xlink:href="#DejaVuSans-65" transform="translate(2243.193359 0)"/>
     <use xlink:href="#DejaVuSans-6e" transform="translate(2304.716797 0)"/>
     <use xlink:href="#DejaVuSans-3d" transform="translate(2368.095703 0)"/>
     <use xlink:href="#DejaVuSans-35" transform="translate(2451.884766 0)"/>
     <use xlink:href="#DejaVuSans-31" transform="translate(2515.507812 0)"/>
     <use xlink:href="#DejaVuSans-32" transform="translate(2579.130859 0)"/>
    </g>
   </g>
   <g id="legend_1">
    <g id="patch_7">
     <path d="M 51.67125 64.7925 
L 195.649375 64.7925 
Q 197.649375 64.7925 197.649375 62.7925 
L 197.649375 33.88 
Q 197.649375 31.88 195.649375 31.88 
L 51.67125 31.88 
Q 49.67125 31.88 49.67125 33.88 
L 49.67125 62.7925 
Q 49.67125 64.7925 51.67125 64.7925 
z
" style="fill: #ffffff; opacity: 0.8; stroke: #cccccc; stroke-linejoin: miter"/>
    </g>
    <g id="line2d_31">
     <path d="M 53.67125 39.978437 
L 63.67125 39.978437 
L 73.67125 39.978437 
" style="fill: none; stroke: #1f77b4; stroke-width: 1.2; stroke-linecap: square"/>
     <g>
      <use xlink:href="#ma2332d461d" x="63.67125" y="39.978437" style="fill: #1f77b4; stroke: #1f77b4"/>
     </g>
    </g>
    <g id="text_18">
     <!-- target_only -->
     <g transform="translate(81.67125 43.478437) scale(0.1 -0.1)">
      <use xlink:href="#DejaVuSans-74"/>
      <use xlink:href="#DejaVuSans-61" transform="translate(39.208984 0)"/>
      <use xlink:href="#DejaVuSans-72" transform="translate(100.488281 0)"/>
      <use xlink:href="#DejaVuSans-67" transform="translate(139.851562 0)"/>
      <use xlink:href="#DejaVuSans-65" transform="translate(203.328125 0)"/>
      <use xlink:href="#DejaVuSans-74" transform="translate(264.851562 0)"/>
      <use xlink:href="#DejaVuSans-5f" transform="translate(304.060547 0)"/>
      <use xlink:href="#DejaVuSans-6f" transform="translate(354.060547 0)"/>
      <use xlink:href="#DejaVuSans-6e" transform="translate(415.242188 0)"/>
      <use xlink:href="#DejaVuSans-6c" transform="translate(478.621094 0)"/>
      <use xlink:href="#DejaVuSans-79" transform="translate(506.404297 0)"/>
     </g>
    </g>
    <g id="line2d_32">
     <path d="M 53.67125 54.934687 
L 63.67125 54.934687 
L 73.67125 54.934687 
" style="fill: none; stroke: #ff7f0e; stroke-width: 1.2; stroke-linecap: square"/>
     <g>
      <use xlink:href="#m814c77ddeb" x="63.67125" y="54.934687" style="fill: #ff7f0e; stroke: #ff7f0e"/>
     </g>
    </g>
    <g id="text_19">
     <!-- classic_spec_sampling -->
     <g transform="translate(81.67125 58.434687) scale(0.1 -0.1)">
      <defs>
       <path id="DejaVuSans-70" d="M 1159 525 
L 1159 -1331 
L 581 -1331 
L 581 3500 
L 1159 3500 
L 1159 2969 
Q 1341 3281 1617 3432 
Q 1894 3584 2278 3584 
Q 2916 3584 3314 3078 
Q 3713 2572 3713 1747 
Q 3713 922 3314 415 
Q 2916 -91 2278 -91 
Q 1894 -91 1617 61 
Q 1341 213 1159 525 
z
M 3116 1747 
Q 3116 2381 2855 2742 
Q 2594 3103 2138 3103 
Q 1681 3103 1420 2742 
Q 1159 2381 1159 1747 
Q 1159 1113 1420 752 
Q 1681 391 2138 391 
Q 2594 391 2855 752 
Q 3116 1113 3116 1747 
z
" transform="scale(0.015625)"/>
      </defs>
      <use xlink:href="#DejaVuSans-63"/>
      <use xlink:href="#DejaVuSans-6c" transform="translate(54.980469 0)"/>
      <use xlink:href="#DejaVuSans-61" transform="translate(82.763672 0)"/>
      <use xlink:href="#DejaVuSans-73" transform="translate(144.042969 0)"/>
      <use xlink:href="#DejaVuSans-73" transform="translate(196.142578 0)"/>
      <use xlink:href="#DejaVuSans-69" transform="translate(248.242188 0)"/>
      <use xlink:href="#DejaVuSans-63" transform="translate(276.025391 0)"/>
      <use xlink:href="#DejaVuSans-5f" transform="translate(331.005859 0)"/>
      <use xlink:href="#DejaVuSans-73" transform="translate(381.005859 0)"/>
      <use xlink:href="#DejaVuSans-70" transform="translate(433.105469 0)"/>
      <use xlink:href="#DejaVuSans-65" transform="translate(496.582031 0)"/>
      <use xlink:href="#DejaVuSans-63" transform="translate(558.105469 0)"/>
      <use xlink:href="#DejaVuSans-5f" transform="translate(613.085938 0)"/>
      <use xlink:href="#DejaVuSans-73" transform="translate(663.085938 0)"/>
      <use xlink:href="#DejaVuSans-61" transform="translate(715.185547 0)"/>
      <use xlink:href="#DejaVuSans-6d" transform="translate(776.464844 0)"/>
      <use xlink:href="#DejaVuSans-70" transform="translate(873.876953 0)"/>
      <use xlink:href="#DejaVuSans-6c" transform="translate(937.353516 0)"/>
      <use xlink:href="#DejaVuSans-69" transform="translate(965.136719 0)"/>
      <use xlink:href="#DejaVuSans-6e" transform="translate(992.919922 0)"/>
      <use xlink:href="#DejaVuSans-67" transform="translate(1056.298828 0)"/>
     </g>
    </g>
   </g>
  </g>
 </g>
 <defs>
  <clipPath id="p9584ad4d1e">
   <rect x="44.67125" y="26.88" width="520.52875" height="291.16"/>
  </clipPath>
 </defs>
</svg>
